<?xml version="1.0" encoding="UTF-8" standalone="no"?>
<!DOCTYPE svg PUBLIC "-//W3C//DTD SVG 1.1//EN" "http://www.w3.org/Graphics/SVG/1.1/DTD/svg11.dtd">
<svg width="100%" height="100%" viewBox="0 0 32 32" version="1.1" xmlns="http://www.w3.org/2000/svg" xmlns:xlink="http://www.w3.org/1999/xlink" xml:space="preserve" xmlns:serif="http://www.serif.com/" style="fill-rule:evenodd;clip-rule:evenodd;stroke-linejoin:round;stroke-miterlimit:2;">
    <path id="unlinked" d="M22.667,9.333L17.334,9.333L17.334,11.866L22.667,11.866C24.947,11.866 26.8,13.719 26.8,15.999C26.8,17.906 25.493,19.506 23.72,19.972L25.667,21.919C27.84,20.812 29.334,18.599 29.334,15.999C29.334,12.319 26.347,9.332 22.667,9.332L22.667,9.333ZM21.333,14.667L18.413,14.667L21.08,17.334L21.333,17.334L21.333,14.667ZM2.667,5.693L6.814,9.84C4.387,10.827 2.667,13.213 2.667,16C2.667,19.68 5.654,22.667 9.334,22.667L14.667,22.667L14.667,20.134L9.334,20.134C7.054,20.134 5.201,18.281 5.201,16.001C5.201,13.881 6.814,12.134 8.881,11.908L11.641,14.668L10.668,14.668L10.668,17.335L14.308,17.335L17.335,20.362L17.335,22.669L19.642,22.669L24.989,28.002L26.669,26.322L4.362,4.002L2.669,5.695L2.667,5.693Z" style="fill-rule:nonzero;"/>
</svg>
