<!-- Generated by IcoMoon.io -->
<svg version="1.1" xmlns="http://www.w3.org/2000/svg" width="100%" height="100%" viewBox="0 0 32 32">
<title>radio-button-on</title>
<path d="M16.005-0.059c8.821 0 15.984 7.187 15.984 16.037s-7.163 16.037-15.984 16.037c-8.824 0-15.987-7.187-15.987-16.037s7.163-16.037 15.987-16.037zM16.005 2.645c-7.36 0-13.333 5.973-13.333 13.333s5.973 13.333 13.333 13.333c7.357 0 13.333-5.973 13.333-13.333s-5.976-13.333-13.333-13.333zM24.005 15.979c0 4.427-3.573 8-8 8s-8-3.573-8-8c0-4.427 3.573-8 8-8s7.999 3.572 8 8z"></path>
</svg>
