<!-- Generated by IcoMoon.io -->
<svg version="1.1" xmlns="http://www.w3.org/2000/svg" width="32" height="32" viewBox="0 0 32 32">
<title>unlinked</title>
<path d="M19.005 25.369c0.293 0.293 0.293 0.768 0 1.061l-2.792 2.792c-3.704 3.704-9.731 3.704-13.435 0s-3.704-9.731 0-13.435l2.792-2.792c0.293-0.293 0.768-0.293 1.061 0l2.475 2.475c0.293 0.293 0.293 0.768 0 1.061l-2.792 2.792c-1.755 1.755-1.755 4.609 0 6.364s4.609 1.755 6.364 0l2.792-2.792c0.293-0.293 0.768-0.293 1.061 0l2.475 2.475zM15.47 9.106c0.293 0.293 0.768 0.293 1.061 0l2.792-2.792c1.755-1.755 4.609-1.755 6.364 0s1.755 4.609 0 6.364l-2.792 2.792c-0.293 0.293-0.293 0.768 0 1.061l2.475 2.475c0.293 0.293 0.768 0.293 1.061 0l2.792-2.792c3.704-3.704 3.704-9.731 0-13.435s-9.731-3.704-13.435 0l-2.792 2.792c-0.293 0.293-0.293 0.768 0 1.061l2.475 2.475zM30.146 31.561l1.414-1.414c0.586-0.586 0.586-1.536 0-2.121l-27.586-27.586c-0.586-0.586-1.536-0.586-2.121 0l-1.414 1.414c-0.586 0.586-0.586 1.536 0 2.121l27.586 27.586c0.586 0.586 1.536 0.586 2.121 0z"></path>
</svg>
