<svg xmlns="http://www.w3.org/2000/svg" viewBox="0 0 22.51 25.5"><defs><style>.cls-1{fill:#666;fill-rule:evenodd;}.cls-2{fill:#fff;}</style></defs><title>PerpetualAsset 4</title><g id="Layer_2" data-name="Layer 2"><g id="Layer_1-2" data-name="Layer 1"><path class="cls-1" d="M21.71,5.79,12.06.22a1.6,1.6,0,0,0-1.61,0L.8,5.79A1.6,1.6,0,0,0,0,7.18V18.32a1.63,1.63,0,0,0,.8,1.39l9.65,5.57a1.6,1.6,0,0,0,1.61,0l9.65-5.57a1.63,1.63,0,0,0,.8-1.39V7.18A1.6,1.6,0,0,0,21.71,5.79Z"/><polygon class="cls-2" points="10.96 11.13 5.51 11.13 5.51 14.37 10.96 14.37 10.96 18.17 17 12.75 10.96 7.32 10.96 11.13"/></g></g></svg>