<svg xmlns="http://www.w3.org/2000/svg" viewBox="0 0 402.96 189.5"><defs><style>.cls-1,.cls-15,.cls-18{fill:none;stroke-miterlimit:10;}.cls-1,.cls-15{stroke:#231f20;stroke-width:0.5px;}.cls-2{fill:#fff;}.cls-11,.cls-3{fill:#ec1c24;}.cls-10,.cls-11,.cls-12,.cls-3{fill-rule:evenodd;}.cls-10,.cls-3,.cls-5,.cls-9{opacity:0.5;}.cls-4{fill:#666;}.cls-6,.cls-9{fill:#2f7dc0;}.cls-7{fill:#0071bc;}.cls-8{fill:#6d6e70;}.cls-10{fill:#b62126;}.cls-12,.cls-13{fill:#ccc;}.cls-14{fill:#f15a24;}.cls-15,.cls-16,.cls-17{opacity:0.6;}.cls-16{fill:#fbb03b;}.cls-18{stroke:#f15a24;}</style></defs><title>Ren versionsAsset 10</title><g id="Layer_2" data-name="Layer 2"><g id="Layer_1-2" data-name="Layer 1"><line class="cls-1" x1="0.45" y1="73.14" x2="352.5" y2="73.14"/><path class="cls-2" d="M323,94.5H43a7.46,7.46,0,0,1-7.45-7.45V56.73a1,1,0,1,1,2,0V87.05A5.45,5.45,0,0,0,43,92.5H323a1,1,0,0,1,0,2Z"/><path class="cls-3" d="M44.18,39.1l-7.79-4.49a1.29,1.29,0,0,0-1.29,0L27.31,39.1a1.31,1.31,0,0,0-.65,1.13v9a1.3,1.3,0,0,0,.65,1.12l7.79,4.5a1.29,1.29,0,0,0,1.29,0l7.79-4.5a1.3,1.3,0,0,0,.65-1.12v-9A1.31,1.31,0,0,0,44.18,39.1Z"/><polygon class="cls-2" points="37.05 44.49 37.05 40.09 34.44 40.09 34.44 44.49 31.37 44.49 35.74 49.35 40.12 44.49 37.05 44.49"/><path class="cls-4" d="M21,28.33v-.65l.83-.81c2-1.89,2.89-2.9,2.9-4.07a1.4,1.4,0,0,0-1.55-1.53,2.63,2.63,0,0,0-1.65.66l-.34-.74a3.41,3.41,0,0,1,2.21-.79,2.19,2.19,0,0,1,2.38,2.26c0,1.44-1,2.61-2.68,4.19l-.63.58v0H26v.88Z"/><path class="cls-4" d="M32.32,24.34c0,2.65-1,4.12-2.72,4.12-1.52,0-2.55-1.43-2.57-4s1.12-4.05,2.71-4.05S32.32,21.86,32.32,24.34Zm-4.24.12c0,2,.63,3.18,1.59,3.18s1.59-1.26,1.59-3.25-.49-3.18-1.58-3.18C28.75,21.21,28.08,22.34,28.08,24.46Z"/><path class="cls-4" d="M33.37,27.7a.71.71,0,0,1,.72-.75.76.76,0,0,1,0,1.51A.71.71,0,0,1,33.37,27.7Z"/><path class="cls-4" d="M35.77,28.33v-.65l.83-.81c2-1.89,2.89-2.9,2.9-4.07A1.39,1.39,0,0,0,38,21.27a2.66,2.66,0,0,0-1.66.66L36,21.19a3.38,3.38,0,0,1,2.2-.79,2.19,2.19,0,0,1,2.39,2.26c0,1.44-1,2.61-2.69,4.19l-.62.58v0h3.5v.88Z"/><path class="cls-4" d="M42,27.7a.71.71,0,0,1,.72-.75.76.76,0,0,1,0,1.51A.71.71,0,0,1,42,27.7Z"/><path class="cls-4" d="M49.59,24.34c0,2.65-1,4.12-2.71,4.12-1.52,0-2.55-1.43-2.57-4S45.43,20.4,47,20.4,49.59,21.86,49.59,24.34Zm-4.23.12c0,2,.62,3.18,1.58,3.18s1.6-1.26,1.6-3.25-.49-3.18-1.58-3.18C46,21.21,45.36,22.34,45.36,24.46Z"/><path class="cls-4" d="M76,28.33v-.65l.83-.81c2-1.89,2.89-2.9,2.9-4.07a1.4,1.4,0,0,0-1.55-1.53,2.63,2.63,0,0,0-1.65.66l-.34-.74a3.41,3.41,0,0,1,2.21-.79,2.19,2.19,0,0,1,2.38,2.26c0,1.44-1,2.61-2.68,4.19l-.63.58v0H81v.88Z"/><path class="cls-4" d="M87.32,24.34c0,2.65-1,4.12-2.72,4.12-1.52,0-2.55-1.43-2.57-4s1.12-4.05,2.71-4.05S87.32,21.86,87.32,24.34Zm-4.24.12c0,2,.63,3.18,1.59,3.18s1.59-1.26,1.59-3.25-.49-3.18-1.58-3.18C83.75,21.21,83.08,22.34,83.08,24.46Z"/><path class="cls-4" d="M88.37,27.7a.71.71,0,0,1,.72-.75.76.76,0,0,1,0,1.51A.71.71,0,0,1,88.37,27.7Z"/><path class="cls-4" d="M90.77,28.33v-.65l.83-.81c2-1.89,2.89-2.9,2.9-4.07A1.39,1.39,0,0,0,93,21.27a2.66,2.66,0,0,0-1.66.66L91,21.19a3.38,3.38,0,0,1,2.2-.79,2.19,2.19,0,0,1,2.39,2.26c0,1.44-1,2.61-2.69,4.19l-.62.58v0h3.5v.88Z"/><path class="cls-4" d="M97,27.7a.71.71,0,0,1,.72-.75.76.76,0,0,1,0,1.51A.71.71,0,0,1,97,27.7Z"/><path class="cls-4" d="M101.7,21.51h0l-1.35.73-.21-.8,1.7-.91h.9v7.8h-1Z"/><path class="cls-4" d="M129,28.33v-.65l.83-.81c2-1.89,2.89-2.9,2.9-4.07a1.4,1.4,0,0,0-1.55-1.53,2.63,2.63,0,0,0-1.65.66l-.34-.74a3.41,3.41,0,0,1,2.21-.79,2.19,2.19,0,0,1,2.38,2.26c0,1.44-1,2.61-2.68,4.19l-.63.58v0H134v.88Z"/><path class="cls-4" d="M140.32,24.34c0,2.65-1,4.12-2.72,4.12-1.52,0-2.55-1.43-2.57-4s1.12-4.05,2.71-4.05S140.32,21.86,140.32,24.34Zm-4.24.12c0,2,.63,3.18,1.59,3.18s1.59-1.26,1.59-3.25-.49-3.18-1.58-3.18C136.75,21.21,136.08,22.34,136.08,24.46Z"/><path class="cls-4" d="M141.37,27.7a.71.71,0,0,1,.72-.75.76.76,0,0,1,0,1.51A.71.71,0,0,1,141.37,27.7Z"/><path class="cls-4" d="M144,27.11a3.41,3.41,0,0,0,1.72.5c1.36,0,1.78-.87,1.77-1.52,0-1.09-1-1.55-2-1.55h-.59v-.8h.59c.77,0,1.74-.39,1.74-1.32,0-.62-.4-1.17-1.37-1.17a3,3,0,0,0-1.56.51L144,21a3.71,3.71,0,0,1,2-.6c1.53,0,2.23.91,2.23,1.86a1.94,1.94,0,0,1-1.44,1.83v0a2,2,0,0,1,1.74,2c0,1.25-1,2.34-2.84,2.34a4,4,0,0,1-2-.53Z"/><path class="cls-4" d="M150,27.7a.71.71,0,0,1,.72-.75.76.76,0,0,1,0,1.51A.71.71,0,0,1,150,27.7Z"/><path class="cls-4" d="M157.59,24.34c0,2.65-1,4.12-2.71,4.12-1.52,0-2.55-1.43-2.57-4s1.12-4.05,2.71-4.05S157.59,21.86,157.59,24.34Zm-4.23.12c0,2,.62,3.18,1.58,3.18s1.6-1.26,1.6-3.25-.49-3.18-1.58-3.18C154,21.21,153.36,22.34,153.36,24.46Z"/><path class="cls-4" d="M362.89,65.13h-2.46v-.89h6v.89h-2.47v7.2h-1.05Z"/><path class="cls-4" d="M368.31,64.89a.62.62,0,0,1-.67.65.63.63,0,0,1-.64-.65.65.65,0,0,1,.66-.66A.63.63,0,0,1,368.31,64.89Zm-1.18,7.44V66.52h1.06v5.81Z"/><path class="cls-4" d="M369.94,68.09c0-.6,0-1.09-.05-1.57h.93l.05.94h0a2,2,0,0,1,1.83-1.07,1.71,1.71,0,0,1,1.64,1.16h0a2.42,2.42,0,0,1,.65-.75,2,2,0,0,1,1.28-.41c.77,0,1.91.5,1.91,2.52v3.42h-1V69c0-1.12-.41-1.79-1.26-1.79a1.38,1.38,0,0,0-1.25,1,1.74,1.74,0,0,0-.08.53v3.59h-1V68.85c0-.93-.41-1.6-1.21-1.6a1.45,1.45,0,0,0-1.31,1.06,1.4,1.4,0,0,0-.09.51v3.51h-1Z"/><path class="cls-4" d="M380.54,69.61a1.86,1.86,0,0,0,2,2,3.83,3.83,0,0,0,1.61-.3l.18.75a4.69,4.69,0,0,1-1.94.37,2.7,2.7,0,0,1-2.85-2.93c0-1.75,1-3.13,2.72-3.13a2.46,2.46,0,0,1,2.4,2.73,4.49,4.49,0,0,1,0,.49Zm3.09-.75a1.5,1.5,0,0,0-1.46-1.72,1.75,1.75,0,0,0-1.62,1.72Z"/><path class="cls-4" d="M386,63.81H387v8.52H386Z"/><path class="cls-4" d="M390,64.89a.62.62,0,0,1-.67.65.63.63,0,0,1-.64-.65.65.65,0,0,1,.66-.66A.63.63,0,0,1,390,64.89Zm-1.18,7.44V66.52h1.06v5.81Z"/><path class="cls-4" d="M391.6,68.09c0-.6,0-1.09-.05-1.57h.94l.06,1h0a2.14,2.14,0,0,1,1.92-1.09c.81,0,2.05.48,2.05,2.47v3.47h-1.05V69c0-.94-.35-1.72-1.35-1.72a1.51,1.51,0,0,0-1.41,1.08,1.53,1.53,0,0,0-.07.49v3.5H391.6Z"/><path class="cls-4" d="M398.85,69.61a1.86,1.86,0,0,0,2,2,3.8,3.8,0,0,0,1.61-.3l.18.75a4.63,4.63,0,0,1-1.93.37,2.7,2.7,0,0,1-2.86-2.93c0-1.75,1-3.13,2.72-3.13a2.46,2.46,0,0,1,2.4,2.73,4.49,4.49,0,0,1,0,.49Zm3.09-.75a1.5,1.5,0,0,0-1.46-1.72,1.76,1.76,0,0,0-1.62,1.72Z"/><g class="cls-5"><path class="cls-6" d="M326.66,93.41a.28.28,0,0,1,0,.4l-2,2c-.11.11-.2.07-.2-.09V91.53c0-.15.09-.19.2-.08Z"/></g><g class="cls-5"><path class="cls-6" d="M326.66,140.41a.28.28,0,0,1,0,.4l-2,2c-.11.11-.2.07-.2-.09v-4.15c0-.15.09-.19.2-.08Z"/></g><path class="cls-7" d="M326.66,164.41a.28.28,0,0,1,0,.4l-2,2c-.11.11-.2.07-.2-.09v-4.15c0-.15.09-.19.2-.08Z"/><g class="cls-5"><path class="cls-8" d="M326.66,115.41a.28.28,0,0,1,0,.4l-2,2c-.11.11-.2.07-.2-.09v-4.15c0-.15.09-.19.2-.08Z"/></g><path class="cls-9" d="M322.22,94.89h-280a7.46,7.46,0,0,1-7.45-7.45V57.11a1,1,0,0,1,2,0V87.44a5.46,5.46,0,0,0,5.45,5.45h280a1,1,0,0,1,0,2Z"/><path class="cls-2" d="M322.32,116.5H98a7.46,7.46,0,0,1-7.45-7.45V56.38a1,1,0,1,1,2,0v52.67A5.45,5.45,0,0,0,98,114.5H322.32a1,1,0,0,1,0,2Z"/><g class="cls-5"><path class="cls-8" d="M321.22,117H96.84a7.45,7.45,0,0,1-7.45-7.44V56.87a1,1,0,1,1,2,0v52.68A5.45,5.45,0,0,0,96.84,115H321.22a1,1,0,0,1,0,2Z"/></g><path class="cls-10" d="M98.83,39.1,91,34.61a1.29,1.29,0,0,0-1.29,0L82,39.1a1.31,1.31,0,0,0-.65,1.13v9A1.3,1.3,0,0,0,82,50.34l7.79,4.5a1.29,1.29,0,0,0,1.29,0l7.79-4.5a1.3,1.3,0,0,0,.65-1.12v-9A1.31,1.31,0,0,0,98.83,39.1ZM90.39,49.36,86,44.49h3.06v-4.4H91.7v4.4h3.07Z"/><path class="cls-2" d="M322.44,141.5H152.94a7.45,7.45,0,0,1-7.44-7.45V57.54a1,1,0,1,1,2,0v76.51a5.45,5.45,0,0,0,5.44,5.45h169.5a1,1,0,0,1,0,2Z"/><path class="cls-3" d="M153.71,39.1l-7.78-4.49a1.31,1.31,0,0,0-1.3,0l-7.79,4.49a1.3,1.3,0,0,0-.64,1.13v9a1.29,1.29,0,0,0,.64,1.12l7.79,4.5a1.31,1.31,0,0,0,1.3,0l7.78-4.5a1.3,1.3,0,0,0,.65-1.12v-9A1.31,1.31,0,0,0,153.71,39.1Zm-8.43,10.26-4.38-4.87H144v-4.4h2.62v4.4h3.07Z"/><g class="cls-5"><path class="cls-6" d="M321.22,141.36H151.72a7.45,7.45,0,0,1-7.44-7.44V57.4a1,1,0,0,1,2,0v76.52a5.45,5.45,0,0,0,5.44,5.44h169.5a1,1,0,0,1,0,2Z"/></g><path class="cls-4" d="M183,28.33v-.65l.83-.81c2-1.89,2.89-2.9,2.9-4.07a1.4,1.4,0,0,0-1.55-1.53,2.63,2.63,0,0,0-1.65.66l-.34-.74a3.41,3.41,0,0,1,2.21-.79,2.19,2.19,0,0,1,2.38,2.26c0,1.44-1,2.61-2.68,4.19l-.63.58v0H188v.88Z"/><path class="cls-4" d="M194.32,24.34c0,2.65-1,4.12-2.72,4.12-1.52,0-2.55-1.43-2.57-4s1.12-4.05,2.71-4.05S194.32,21.86,194.32,24.34Zm-4.24.12c0,2,.63,3.18,1.59,3.18s1.59-1.26,1.59-3.25-.49-3.18-1.58-3.18C190.75,21.21,190.08,22.34,190.08,24.46Z"/><path class="cls-4" d="M195.37,27.7a.71.71,0,0,1,.72-.75.76.76,0,0,1,0,1.51A.71.71,0,0,1,195.37,27.7Z"/><path class="cls-4" d="M201,28.33V26.2h-3.63v-.69l3.48-5H202v4.85h1.09v.82H202v2.13Zm0-2.95V22.77c0-.41,0-.81,0-1.22h0c-.24.45-.44.79-.65,1.15l-1.91,2.65v0Z"/><path class="cls-4" d="M204,27.7a.71.71,0,0,1,.72-.75.76.76,0,0,1,0,1.51A.71.71,0,0,1,204,27.7Z"/><path class="cls-4" d="M211.59,24.34c0,2.65-1,4.12-2.71,4.12-1.52,0-2.55-1.43-2.57-4s1.12-4.05,2.71-4.05S211.59,21.86,211.59,24.34Zm-4.23.12c0,2,.62,3.18,1.58,3.18s1.6-1.26,1.6-3.25-.49-3.18-1.58-3.18C208,21.21,207.36,22.34,207.36,24.46Z"/><path class="cls-2" d="M321.44,165.5H206.94a7.45,7.45,0,0,1-7.44-7.45V57.54a1,1,0,0,1,2,0V158.05a5.45,5.45,0,0,0,5.44,5.45h114.5a1,1,0,0,1,0,2Z"/><path class="cls-11" d="M207.71,39.1l-7.78-4.49a1.31,1.31,0,0,0-1.3,0l-7.79,4.49a1.3,1.3,0,0,0-.64,1.13v9a1.29,1.29,0,0,0,.64,1.12l7.79,4.5a1.31,1.31,0,0,0,1.3,0l7.78-4.5a1.3,1.3,0,0,0,.65-1.12v-9A1.31,1.31,0,0,0,207.71,39.1Zm-8.43,10.26-4.38-4.87H198v-4.4h2.62v4.4h3.07Z"/><path class="cls-6" d="M320.22,165.36H205.72a7.45,7.45,0,0,1-7.44-7.44V57.4a1,1,0,0,1,2,0V157.92a5.45,5.45,0,0,0,5.44,5.44h114.5a1,1,0,0,1,0,2Z"/><path class="cls-4" d="M246,28.33v-.65l.83-.81c2-1.89,2.89-2.9,2.9-4.07a1.4,1.4,0,0,0-1.55-1.53,2.63,2.63,0,0,0-1.65.66l-.34-.74a3.41,3.41,0,0,1,2.21-.79,2.19,2.19,0,0,1,2.38,2.26c0,1.44-1,2.61-2.68,4.19l-.63.58v0H251v.88Z"/><path class="cls-4" d="M257.32,24.34c0,2.65-1,4.12-2.72,4.12-1.52,0-2.55-1.43-2.57-4s1.12-4.05,2.71-4.05S257.32,21.86,257.32,24.34Zm-4.24.12c0,2,.63,3.18,1.59,3.18s1.59-1.26,1.59-3.25-.49-3.18-1.58-3.18C253.75,21.21,253.08,22.34,253.08,24.46Z"/><path class="cls-4" d="M258.37,27.7a.71.71,0,0,1,.72-.75.76.76,0,0,1,0,1.51A.71.71,0,0,1,258.37,27.7Z"/><path class="cls-4" d="M265.22,21.27a3.83,3.83,0,0,0-.79.05,3.18,3.18,0,0,0-2.71,2.77h0A2.37,2.37,0,0,1,266,25.71a2.61,2.61,0,0,1-2.59,2.75c-1.67,0-2.76-1.3-2.76-3.33A4.89,4.89,0,0,1,262,21.62a4.28,4.28,0,0,1,2.5-1.15,4.73,4.73,0,0,1,.76-.06Zm-.3,4.5a1.58,1.58,0,0,0-1.6-1.79,1.73,1.73,0,0,0-1.51,1,.84.84,0,0,0-.12.47c0,1.28.61,2.23,1.71,2.23C264.31,27.64,264.92,26.89,264.92,25.77Z"/><path class="cls-4" d="M267,27.7a.71.71,0,0,1,.72-.75.76.76,0,0,1,0,1.51A.71.71,0,0,1,267,27.7Z"/><path class="cls-4" d="M274.59,24.34c0,2.65-1,4.12-2.71,4.12-1.52,0-2.55-1.43-2.57-4s1.12-4.05,2.71-4.05S274.59,21.86,274.59,24.34Zm-4.23.12c0,2,.62,3.18,1.58,3.18s1.6-1.26,1.6-3.25-.49-3.18-1.58-3.18C271,21.21,270.36,22.34,270.36,24.46Z"/><path class="cls-2" d="M321.44,189.5h-51.5a7.45,7.45,0,0,1-7.44-7.45V57.54a1,1,0,0,1,2,0V182.05a5.45,5.45,0,0,0,5.44,5.45h51.5a1,1,0,0,1,0,2Z"/><path class="cls-12" d="M270.71,39.1l-7.78-4.49a1.31,1.31,0,0,0-1.3,0l-7.79,4.49a1.3,1.3,0,0,0-.64,1.13v9a1.29,1.29,0,0,0,.64,1.12l7.79,4.5a1.31,1.31,0,0,0,1.3,0l7.78-4.5a1.3,1.3,0,0,0,.65-1.12v-9A1.31,1.31,0,0,0,270.71,39.1Zm-8.43,10.26-4.38-4.87H261v-4.4h2.62v4.4h3.07Z"/><path class="cls-13" d="M320.22,189.36h-51.5a7.45,7.45,0,0,1-7.44-7.44V57.4a1,1,0,1,1,2,0V181.92a5.45,5.45,0,0,0,5.44,5.44h51.5a1,1,0,0,1,0,2Z"/><line class="cls-1" x1="170.5" y1="12.5" x2="170.5" y2="73.33"/><line class="cls-1" x1="230.5" y1="13.5" x2="230.5" y2="73.33"/><circle class="cls-14" cx="170.5" cy="6.5" r="6.5"/><path class="cls-2" d="M170.16,10.9v-1a2.91,2.91,0,0,1-1.53-.43l.24-.67a2.67,2.67,0,0,0,1.44.43c.71,0,1.19-.41,1.19-1s-.39-.89-1.13-1.19c-1-.4-1.65-.86-1.65-1.73a1.64,1.64,0,0,1,1.51-1.61v-1h.62v1a2.67,2.67,0,0,1,1.3.35l-.25.66a2.42,2.42,0,0,0-1.26-.34c-.77,0-1.06.46-1.06.86s.37.78,1.24,1.14c1,.42,1.55.94,1.55,1.83a1.74,1.74,0,0,1-1.58,1.7v1Z"/><line class="cls-15" x1="6.5" y1="12.5" x2="6.5" y2="73.33"/><circle class="cls-16" cx="6.5" cy="6.5" r="6.5"/><g class="cls-17"><path class="cls-2" d="M6.16,10.9v-1a2.91,2.91,0,0,1-1.53-.43l.24-.67a2.67,2.67,0,0,0,1.44.43c.71,0,1.19-.41,1.19-1s-.39-.89-1.13-1.19c-1-.4-1.65-.86-1.65-1.73A1.64,1.64,0,0,1,6.23,3.71v-1h.62v1A2.67,2.67,0,0,1,8.15,4l-.25.66a2.42,2.42,0,0,0-1.26-.34c-.77,0-1.06.46-1.06.86S6,6,6.82,6.34c1,.42,1.55.94,1.55,1.83a1.74,1.74,0,0,1-1.58,1.7v1Z"/></g><circle class="cls-18" cx="230.5" cy="7" r="6.5"/></g></g></svg>