<?xml version="1.0" encoding="UTF-8" standalone="no"?>
<!DOCTYPE svg PUBLIC "-//W3C//DTD SVG 1.1//EN" "http://www.w3.org/Graphics/SVG/1.1/DTD/svg11.dtd">
<svg width="100%" height="100%" viewBox="0 0 256 256" version="1.1" xmlns="http://www.w3.org/2000/svg" xmlns:xlink="http://www.w3.org/1999/xlink" xml:space="preserve" xmlns:serif="http://www.serif.com/" style="fill-rule:evenodd;clip-rule:evenodd;stroke-linejoin:round;stroke-miterlimit:2;">
    <g>
        <rect x="0" y="0" width="256" height="256" style="fill:rgb(247,223,30);fill-rule:nonzero;"/>
        <g transform="matrix(1,0,0,1,4.20544,0)">
            <g transform="matrix(1,0,0,1,-27.8948,-48.7274)">
                <path d="M67.312,213.932L86.903,202.076C90.682,208.777 94.12,214.447 102.367,214.447C110.272,214.447 115.256,211.355 115.256,199.327L115.256,117.529L139.314,117.529L139.314,199.667C139.314,224.584 124.708,235.926 103.398,235.926C84.153,235.926 72.982,225.959 67.311,213.93" style="fill-rule:nonzero;"/>
            </g>
            <g transform="matrix(1,0,0,1,-27.8948,-48.0406)">
                <path d="M152.381,211.354L171.969,200.013C177.126,208.434 183.828,214.62 195.684,214.62C205.653,214.62 212.009,209.636 212.009,202.762C212.009,194.514 205.479,191.592 194.481,186.782L188.468,184.203C171.111,176.815 159.597,167.535 159.597,147.945C159.597,129.901 173.345,116.153 194.826,116.153C210.12,116.153 221.118,121.481 229.022,135.4L210.291,147.429C206.166,140.04 201.7,137.119 194.826,137.119C187.78,137.119 183.312,141.587 183.312,147.429C183.312,154.646 187.78,157.568 198.09,162.037L204.104,164.614C224.553,173.379 236.067,182.313 236.067,202.418C236.067,224.072 219.055,235.928 196.2,235.928C173.861,235.928 159.426,225.274 152.381,211.354" style="fill-rule:nonzero;"/>
            </g>
        </g>
    </g>
</svg>
