<svg xmlns="http://www.w3.org/2000/svg" xml:space="preserve" style="fill-rule:evenodd;clip-rule:evenodd;stroke-linejoin:round;stroke-miterlimit:2" viewBox="0 0 32 32"><path d="M384 131.9c-7.753-8.433-110.425-128.473-114.9-133L48-.1C21.5 0 0 21.5 0 48v416c0 26.5 21.5 48 48 48h288c26.5 0 48-21.5 48-48V131.9Zm-35.9 2.1H257V27.9L348.1 134ZM30 479V27h200l1 105c0 13.3-1.3 29 12 29h111l1 318H30Z" style="fill-rule:nonzero" transform="matrix(.06285 0 0 .06285 3.934 -.054)"/><path d="m.052-.139.16-.234-.135-.208a.347.347 0 0 1-.028-.052.096.096 0 0 1-.01-.042.05.05 0 0 1 .018-.037.065.065 0 0 1 .045-.016c.02 0 .036.006.047.018a.493.493 0 0 1 .047.066l.107.174.115-.174.024-.038.019-.026a.137.137 0 0 1 .021-.015.076.076 0 0 1 .027-.005.06.06 0 0 1 .044.016.051.051 0 0 1 .018.039c0 .022-.013.052-.038.089l-.141.211.152.234a.3.3 0 0 1 .03.051.092.092 0 0 1 .009.038.062.062 0 0 1-.008.031.066.066 0 0 1-.024.023.074.074 0 0 1-.034.008.075.075 0 0 1-.035-.008.08.08 0 0 1-.023-.022L.427-.067.301-.265l-.134.204-.022.034a.146.146 0 0 1-.016.019.086.086 0 0 1-.022.015.09.09 0 0 1-.03.005.063.063 0 0 1-.044-.016.063.063 0 0 1-.017-.047c0-.024.012-.053.036-.088Z" style="fill-rule:nonzero" transform="matrix(17.82892 0 0 16.50777 10.371 25.928)"/></svg>