<?xml version="1.0" encoding="iso-8859-1"?>
<!-- Generator: Adobe Illustrator 19.0.0, SVG Export Plug-In . SVG Version: 6.00 Build 0)  -->
<svg version="1.1" id="Layer_1" xmlns="http://www.w3.org/2000/svg" xmlns:xlink="http://www.w3.org/1999/xlink" x="0px" y="0px"
	 viewBox="0 0 512.009 512.009" style="enable-background:new 0 0 512.009 512.009;" xml:space="preserve">
<polygon style="fill:#E6EAEE;" points="110.192,107.151 0.032,48.394 58.789,158.558 "/>
<polygon style="fill:#AAB5BD;" points="0.032,48.394 110.192,107.151 94.023,123.312 "/>
<polygon style="fill:#FF7059;" points="58.789,158.558 110.192,107.151 405.907,402.859 354.497,454.246 "/>
<rect x="238.521" y="53.994" transform="matrix(0.7073 -0.7069 0.7069 0.7073 -112.8233 253.6979)" style="fill:#E64732;" width="22.861" height="418.198"/>
<polygon style="fill:#34495E;" points="43.148,71.393 0.032,48.394 22.983,91.558 "/>
<polygon style="fill:#283A4D;" points="43.148,71.393 0.032,48.394 36.837,77.693 "/>
<polygon style="fill:#E6EAEE;" points="384.319,484.083 435.726,432.665 405.907,402.859 354.497,454.246 "/>
<rect x="401.314" y="404.755" transform="matrix(0.707 -0.7072 0.7072 0.707 -180.2206 416.6662)" style="fill:#AAB5BD;" width="22.871" height="42.16"/>
<path style="fill:#34495E;" d="M451.888,448.849c6.587,6.582,10.655,15.69,10.703,25.718c-0.054,9.989-4.114,19.087-10.703,25.659
	l0,0c-6.577,6.602-15.66,10.652-25.651,10.711c-10.04-0.041-19.164-4.106-25.746-10.701l-16.172-16.156l51.407-51.418
	L451.888,448.849z"/>
<path style="fill:#283A4D;" d="M419.557,448.839c6.577,6.592,10.66,15.708,10.67,25.738c0.018,9.989-4.07,19.067-10.652,25.659
	c-2.775,2.767-6.008,4.972-9.533,6.7c4.892,2.506,10.314,3.971,16.195,4.001c9.989-0.056,19.072-4.106,25.651-10.711
	c6.587-6.572,10.65-15.67,10.703-25.659c-0.049-10.028-4.114-19.136-10.703-25.718l-16.161-16.184L419.557,448.839z"/>
<rect x="194.98" y="-11.198" transform="matrix(-0.7071 -0.7071 0.7071 -0.7071 197.1987 640.8871)" style="fill:#FFD160;" width="72.703" height="581.601"/>
<polygon style="fill:#F7B64D;" points="446.512,83.527 462.693,99.686 51.445,510.937 35.276,494.773 "/>
<g>
	
		<rect x="331.5" y="70.401" transform="matrix(-0.707 -0.7072 0.7072 -0.707 579.3818 482.612)" style="fill:#283A4D;" width="116.325" height="101.774"/>
	
		<rect x="448.73" y="145.453" transform="matrix(-0.7071 -0.7071 0.7071 -0.7071 654.4877 663.7866)" style="fill:#283A4D;" width="31.977" height="101.782"/>
</g>
<path style="fill:#34495E;" d="M466.789,149.053c-6.241-6.272-6.239-16.379,0-22.62l-71.969,71.962
	c6.252-6.252,16.387-6.252,22.63,0c6.246,6.241,6.246,16.358,0,22.62l71.969-71.972
	C483.178,155.287,473.043,155.287,466.789,149.053z"/>
<path style="fill:#283A4D;" d="M369.125,28.743c-17.103-17.096-40.732-27.671-66.829-27.671c-26.081,0-49.718,10.573-66.826,27.671
	l-5.151,5.156l22.625,22.62c16.476-16.476,43.164-16.476,59.63-0.01c16.469,16.466,16.469,43.164,0,59.622l71.972-71.962
	L369.125,28.743z"/>
<g>
</g>
<g>
</g>
<g>
</g>
<g>
</g>
<g>
</g>
<g>
</g>
<g>
</g>
<g>
</g>
<g>
</g>
<g>
</g>
<g>
</g>
<g>
</g>
<g>
</g>
<g>
</g>
<g>
</g>
</svg>
