<?xml version="1.0" encoding="UTF-8" standalone="no"?>
<!DOCTYPE svg PUBLIC "-//W3C//DTD SVG 1.1//EN" "http://www.w3.org/Graphics/SVG/1.1/DTD/svg11.dtd">
<svg width="100%" height="100%" viewBox="0 0 292 309" version="1.1" xmlns="http://www.w3.org/2000/svg" xmlns:xlink="http://www.w3.org/1999/xlink" xml:space="preserve" xmlns:serif="http://www.serif.com/" style="fill-rule:evenodd;clip-rule:evenodd;stroke-linejoin:round;stroke-miterlimit:2;">
    <g transform="matrix(0.123207,0,0,0.123207,0,0)">
        <path d="M1181.35,3.352L7.86,416.334L193.303,1953.8L1182.59,2497.53L2176.99,1946.43L2362.36,409.02L1181.35,3.352Z" style="fill:rgb(179,179,179);fill-rule:nonzero;"/>
    </g>
    <g transform="matrix(0.123207,0,0,0.123207,0,0)">
        <path d="M2245.32,497.877L1178.61,134.119L1178.61,2367.62L2072.56,1872.88L2245.31,497.877L2245.32,497.877Z" style="fill:rgb(166,18,13);fill-rule:nonzero;"/>
    </g>
    <g transform="matrix(0.123207,0,0,0.123207,0,0)">
        <path d="M139.543,504.431L298.453,1879.45L1178.59,2367.62L1178.59,134.082L139.552,504.422L139.543,504.431Z" style="fill:rgb(221,27,22);fill-rule:nonzero;"/>
    </g>
    <g transform="matrix(0.123207,0,0,0.123207,0,0)">
        <path d="M1472.24,1323.12L1178.61,1460.43L869.133,1460.43L723.655,1824.31L453.068,1829.31L1178.61,215.227L1472.24,1323.13L1472.24,1323.12ZM1443.86,1253.99L1180.57,732.747L964.59,1245.02L1178.6,1245.02L1443.86,1254L1443.86,1253.99Z" style="fill:rgb(242,242,242);fill-rule:nonzero;"/>
    </g>
    <g transform="matrix(0.123207,0,0,0.123207,0,0)">
        <path d="M1178.6,215.217L1180.55,732.747L1425.6,1245.42L1179.16,1245.42L1178.6,1460.1L1519.38,1460.42L1678.65,1829.36L1937.57,1834.16L1178.6,215.217Z" style="fill:rgb(179,179,179);fill-rule:nonzero;"/>
    </g>
</svg>
