<?xml version="1.0" encoding="UTF-8" standalone="no"?>
<!DOCTYPE svg PUBLIC "-//W3C//DTD SVG 1.1//EN" "http://www.w3.org/Graphics/SVG/1.1/DTD/svg11.dtd">
<svg width="100%" height="100%" viewBox="0 0 300 300" version="1.1" xmlns="http://www.w3.org/2000/svg" xmlns:xlink="http://www.w3.org/1999/xlink" xml:space="preserve" xmlns:serif="http://www.serif.com/" style="fill-rule:evenodd;clip-rule:evenodd;stroke-linejoin:round;stroke-miterlimit:2;">
    <g transform="matrix(0.980676,0,0,0.985507,2.90821,3.66667)">
        <path d="M254,59.089C254,51.865 248.106,46 240.846,46L60.154,46C52.894,46 47,51.865 47,59.089L47,239.911C47,247.135 52.894,253 60.154,253L240.846,253C248.106,253 254,247.135 254,239.911L254,59.089Z" style="fill:white;"/>
        <path d="M272.355,59.089C272.355,41.785 258.236,27.735 240.846,27.735C240.846,27.735 60.154,27.735 60.154,27.735C42.764,27.735 28.645,41.785 28.645,59.089C28.645,59.089 28.645,239.911 28.645,239.911C28.645,257.215 42.764,271.265 60.154,271.265L240.846,271.265C258.236,271.265 272.355,257.215 272.355,239.911L272.355,59.089ZM254,59.089C254,51.865 248.106,46 240.846,46L60.154,46C52.894,46 47,51.865 47,59.089L47,239.911C47,247.135 52.894,253 60.154,253L240.846,253C248.106,253 254,247.135 254,239.911L254,59.089Z"/>
    </g>
    <path d="M166,167.943L219,121L219,164L149,235L149,185L149,235L81,164L81,121L131,166.588L131,68L166,68L166,167.943Z"/>
</svg>
