<?xml version="1.0" encoding="UTF-8" standalone="no"?><!DOCTYPE svg PUBLIC "-//W3C//DTD SVG 1.1//EN" "http://www.w3.org/Graphics/SVG/1.1/DTD/svg11.dtd"><svg width="100%" height="100%" viewBox="0 0 613 613" version="1.1" xmlns="http://www.w3.org/2000/svg" xmlns:xlink="http://www.w3.org/1999/xlink" xml:space="preserve" xmlns:serif="http://www.serif.com/" style="fill-rule:evenodd;clip-rule:evenodd;stroke-linejoin:round;stroke-miterlimit:2;"><g id="Layer_2"><path d="M417.29,365.2c1,4 2.17,8.06 2.92,12.21c3.143,15.756 3.747,31.913 1.79,47.86c-1.103,8.546 -4.237,16.704 -9.14,23.79c-4.184,5.922 -10.292,10.216 -17.28,12.15c-6.129,1.907 -12.632,2.285 -18.94,1.1c-7.034,-1.518 -13.962,-3.492 -20.74,-5.91c-4.503,-1.67 -8.853,-3.728 -13,-6.15c-4.07,-2.28 -7.94,-5 -11.76,-7.55c-2.4,-1.56 -4.89,-3 -7.19,-4.67c-3.66,-2.69 -7.19,-5.52 -10.79,-8.32c-2.18,-1.68 -4.39,-3.32 -6.77,-5.1c-2.49,2.1 -4.83,4.21 -7.33,6.18c-2,1.62 -4.17,3.13 -6.34,4.59c-6.22,4.18 -12.36,8.47 -18.73,12.41c-4.18,2.57 -8.8,4.47 -13.08,6.9c-6.37,3.68 -13.52,5 -20.56,7c-5.846,1.697 -12.002,2.039 -18,1c-7.846,-1.153 -15.027,-5.074 -20.24,-11.05c-3.341,-4.169 -5.954,-8.872 -7.73,-13.91c-5.2,-13.08 -4.94,-26.66 -4.07,-40.21c0.5,-7.75 1.85,-15.48 3.06,-23.18c0.639,-3.155 1.45,-6.273 2.43,-9.34c-2.62,-0.8 -5.1,-1.46 -7.51,-2.29c-6,-2 -11.92,-3.88 -17.66,-6.2c-6.162,-2.323 -12.174,-5.029 -18,-8.1c-8.447,-4.318 -16.277,-9.75 -23.28,-16.15c-3.831,-3.688 -7.168,-7.856 -9.93,-12.4c-4.367,-6.972 -5.325,-15.568 -2.6,-23.33c1.39,-3.664 3.31,-7.104 5.7,-10.21c3.417,-4.895 7.697,-9.128 12.63,-12.49c3.78,-2.59 7.69,-5 11.48,-7.56c8.306,-5.314 17.237,-9.579 26.59,-12.7c6,-2.16 12.07,-4.13 18.11,-6.21c1.31,-0.44 2.61,-1 4,-1.53c-0.94,-3.68 -2,-7.19 -2.71,-10.77c-2.88,-15.85 -4.41,-31.79 -2.2,-47.86c0.931,-8.722 3.942,-17.094 8.78,-24.41c2.735,-4.093 6.363,-7.512 10.61,-10c9.22,-5.37 19,-5.24 29.08,-3.77c7.281,1.253 14.338,3.574 20.94,6.89c7.127,3.47 14.076,7.294 20.82,11.46c4.635,2.842 9.124,5.916 13.45,9.21c4.13,3.07 7.95,6.44 12.12,9.76c1.85,-1.57 3.58,-3.13 5.44,-4.55c4.373,-3.333 8.79,-6.61 13.25,-9.83c3.82,-2.78 7.69,-5.52 11.57,-8.18c0.61,-0.32 1.24,-0.61 1.88,-0.88c7.399,-4.263 15.143,-7.895 23.15,-10.86c6.612,-2.396 13.553,-3.759 20.58,-4.04c5.859,-0.52 11.754,0.497 17.1,2.95c4.088,1.901 7.741,4.624 10.73,8c3.539,4.483 6.353,9.494 8.34,14.85c4.23,10.64 4.71,21.69 4.2,32.75c-0.46,9.45 -1.73,18.89 -2.95,28.28c-0.72,3.769 -1.675,7.49 -2.86,11.14c2.59,0.85 5,1.56 7.26,2.37c6.25,2.18 12.61,4.13 18.71,6.63c6.83,2.8 13.53,5.93 20.08,9.21c4.187,2.089 8.177,4.552 11.92,7.36c4,3 7.49,6.59 11.17,10c3.129,3.192 5.755,6.84 7.79,10.82c4.376,7.261 4.853,16.246 1.27,23.93c-1.618,4.421 -4.26,8.397 -7.71,11.6c-3.78,3.17 -6.93,6.92 -10.75,10c-3.261,2.541 -6.738,4.793 -10.39,6.73c-5.6,3.09 -11.3,6.08 -17.18,8.71c-5.51,2.46 -11.25,4.47 -16.93,6.59c-4.65,1.77 -9.43,3.44 -14.6,5.28Zm-111.13,-1.84c10.75,-0.44 21.69,-0.88 32.62,-1.38c1.079,0.05 2.142,-0.283 3,-0.94c2.26,-2.85 4.29,-5.87 6.38,-8.87c3.51,-5.06 7.09,-10.11 10.45,-15.26c2.52,-3.87 4.86,-7.83 7.11,-11.82c1.75,-3.11 3.22,-6.37 4.89,-9.54c1.67,-3.17 3.27,-5.78 4.76,-8.72c0.401,-0.817 0.458,-1.761 0.16,-2.62c-1.57,-3.24 -3.28,-6.42 -5.06,-9.59c-2.84,-5 -5.77,-10 -8.67,-15c-1.11,-1.84 -2.12,-3.92 -3.37,-5.78c-3.1,-4.62 -6.32,-9.2 -9.52,-13.73c-2.28,-3.3 -4.57,-6.59 -7,-9.83c-0.532,-0.62 -1.279,-1.017 -2.09,-1.11c-5.62,-0.37 -11.26,-0.9 -16.88,-0.86c-16,0.13 -32.05,0.6 -48.06,0.66c-2.7,-0.059 -5.23,1.352 -6.6,3.68c-3.61,5.12 -7,10.35 -10.39,15.61c-4,6.32 -8.06,12.65 -11.92,19.09c-3,5 -5.62,10.11 -8.28,15.23c-0.763,1.14 -1.08,2.522 -0.89,3.88c1,2.72 2.262,5.335 3.77,7.81c2.78,4.86 5.7,9.66 8.62,14.47c3.58,5.81 7.21,11.61 10.83,17.43c0.489,0.918 1.026,1.809 1.61,2.67c2.9,3.86 6,7.62 8.7,11.6c0.616,1.058 1.777,1.685 3,1.62l32.83,1.3Zm106.76,-13.86c2.2,-0.92 3.85,-1.7 5.6,-2.32c5.78,-2.06 11.68,-3.87 17.34,-6.17c5.66,-2.3 11,-5 16.43,-7.58c6.647,-3.176 12.771,-7.347 18.16,-12.37c3.011,-2.496 5.531,-5.531 7.43,-8.95c2.156,-4.109 2.23,-9.008 0.2,-13.18c-2.054,-3.937 -4.933,-7.386 -8.44,-10.11c-3.589,-3.086 -7.459,-5.828 -11.56,-8.19c-5.68,-3.545 -11.598,-6.696 -17.71,-9.43c-8.24,-3.42 -16.92,-6 -25.34,-9c-2.17,-0.77 -2.89,-0.11 -3.52,1.75c-2.5,7.36 -5,14.73 -7.81,22.09c-2.12,5.52 -4.65,10.85 -7.13,16.2c-0.995,1.803 -0.995,3.997 -0,5.8c2.11,4 4,8.25 5.7,12.45c2.233,5.373 4.353,10.777 6.36,16.21c1.45,4.13 2.76,8.34 4.29,12.85l-0,-0.05Zm-200.83,19.84c-0.39,1.84 -0.77,3.35 -1,4.88c-1.37,8.76 -3,17.51 -4,26.33c-0.798,7.004 -0.491,14.091 0.91,21c1.59,7.61 2.48,15.41 8.88,21.26c1.025,1.115 2.262,2.012 3.64,2.64c9,3.09 17.72,1 26.1,-2.19c5.261,-2.166 10.396,-4.627 15.38,-7.37c3.254,-1.623 6.409,-3.437 9.45,-5.43c3.8,-2.54 7.41,-5.3 11,-8.06c3.59,-2.76 7.57,-6 11.34,-9c-1.31,-1.51 -2.34,-2.8 -3.51,-4c-3.12,-3.14 -6.42,-6.16 -9.44,-9.4c-3.02,-3.24 -5.84,-6.63 -8.66,-10c-3.08,-3.68 -6,-7.53 -9.1,-11.15c-1.007,-0.99 -2.303,-1.635 -3.7,-1.84c-11,-1.73 -22.13,-3.24 -33.19,-4.94c-4.58,-0.87 -9.19,-1.82 -14.1,-2.73Zm188.23,-127.48c0.68,-3.52 1.45,-6.57 1.87,-9.7c1.23,-9.08 2.7,-18.17 3.3,-27.28c0.171,-5.428 -0.262,-10.858 -1.29,-16.19c-0.741,-6.28 -2.784,-12.336 -6,-17.78c-3.74,-5.91 -13.69,-8.39 -19.71,-6.81c-7,1.84 -14.22,3.11 -20.5,7c-5.6,3.46 -11.56,6.44 -17.34,9.66c-1.348,0.735 -2.644,1.56 -3.88,2.47c-4.23,3.24 -8.42,6.55 -12.59,9.85c-1.87,1.47 -3.72,3 -5.58,4.49c5.26,5.52 10.25,10.62 15.17,15.81c1.14,1.22 2,2.6 3.12,3.85c3,3.44 6.24,6.7 8.94,10.31c2.7,3.61 5.11,6.46 10.15,7c10.15,1.14 20.25,2.62 30.36,4c2.58,0.36 5.12,0.95 7.65,1.54c2.01,0.55 4.07,1.19 6.33,1.78Zm-200.9,19.55c-4.37,1.58 -8.34,3.13 -12.4,4.44c-6.949,2.011 -13.687,4.69 -20.12,8c-5.47,3 -11.23,5.64 -16.37,9c-3.944,2.935 -7.682,6.136 -11.19,9.58c-7,6.13 -8.6,14.83 -3.37,22.09c2.996,4.174 6.723,7.772 11,10.62c5.66,3.77 11.39,7.51 17.39,10.8c4.732,2.509 9.622,4.707 14.64,6.58c4.45,1.73 9.1,3 13.62,4.51c2.27,0.74 4.49,1.57 6.84,2.39c0.71,-1.71 1.41,-3.24 2,-4.78c2.38,-6.41 4.58,-12.89 7.11,-19.24c2.53,-6.35 5.26,-12.17 7.82,-18.3c0.32,-0.854 0.32,-1.796 -0,-2.65c-1.35,-3.17 -3,-6.24 -4.33,-9.41c-2.46,-5.83 -4.88,-11.7 -7.13,-17.61c-1.8,-5.16 -3.56,-10.43 -5.51,-16.02Zm94.26,-63.73c-4.31,-3.39 -8.4,-6.83 -12.77,-10c-5.44,-3.92 -11,-7.81 -16.73,-11.28c-8.818,-5.495 -18.575,-9.316 -28.78,-11.27c-3.53,-0.951 -7.222,-1.139 -10.83,-0.55c-5.455,0.886 -10.113,4.46 -12.38,9.5c-3.373,7.608 -5.254,15.793 -5.54,24.11c-0.72,10.18 1,20.25 2.68,30.17c0.76,4.48 1.71,8.91 2.64,13.72c2.606,-0.88 5.261,-1.612 7.95,-2.19c12.18,-1.84 24.42,-3.48 36.61,-5.38c2.254,-0.192 4.41,-1.013 6.22,-2.37c2.947,-3.105 5.722,-6.37 8.31,-9.78c3,-3.55 6,-7.16 9.05,-10.58c4.3,-4.7 8.77,-9.19 13.57,-14.1Zm24.94,215.57c4.39,3.29 8.44,6.39 12.53,9.44c3.7,2.78 7.27,5.77 11.19,8.27c4.56,2.86 9.267,5.5 14.12,7.92c3.656,1.849 7.431,3.453 11.3,4.8c5.742,2.019 11.794,3.018 17.88,2.95c7.08,0 11.49,-3.87 14.35,-9.12c4.13,-7.58 4.82,-16.05 5.7,-24.33c1,-9.48 -0.92,-18.87 -2.21,-28.24c-0.71,-5.21 -1.86,-10.39 -2.84,-15.63c-0.428,-0.042 -0.86,0.002 -1.27,0.13c-7,1.41 -13.91,3.09 -21,4.19c-8.6,1.33 -17.28,2.14 -25.82,3.28c-1.036,0.14 -1.995,0.626 -2.72,1.38c-2.29,2.67 -4.3,5.52 -6.54,8.25c-4,4.67 -7.77,9.37 -11.92,13.86c-4.15,4.49 -8.26,8.27 -12.73,12.78l-0.02,0.07Zm-12.44,-11.25c7.615,-7.25 14.76,-14.979 21.39,-23.14l-42.19,0l-0.5,0.47l21.3,22.67Zm-21.6,-170.16l43.11,0l-21.69,-23.12l-21.42,23.12Zm80,127.32c10.41,-1.71 21.09,-2.6 31.68,-5.93l-10.57,-28.39l-21.11,34.32Zm-148.53,-101.93c3.63,9.72 7.13,19.09 10.7,28.72l21,-34l-0.41,-0.48l-31.29,5.76Zm31.95,101.88l-21.2,-33.95c-3.51,9.57 -6.91,18.76 -10.35,28.11c10.55,3.24 20.95,4.09 31.55,5.84Zm137.6,-73.36c3.54,-9.65 7,-18.95 10.47,-28.56l-31.78,-5.83c7.17,11.64 14.18,22.92 21.31,34.39Z" style="fill:#60d8f9;fill-rule:nonzero;"/><path d="M551,357.27l-61,11.93c46.29,-31.59 77.34,-72.08 86.42,-125.76c0.907,3.507 1.827,7.037 2.76,10.59c3.718,13.352 6.393,26.973 8,40.74c1.503,14.199 1.687,28.507 0.55,42.74c-2.521,29.77 -10.848,58.76 -24.51,85.33c-13.402,26.04 -31.009,49.691 -52.11,70c-43.71,42.76 -97.78,68.11 -159.67,79.82c-22.579,4.135 -45.623,5.107 -68.47,2.89c-37.945,-3.229 -75.011,-13.206 -109.45,-29.46c-51.65,-24.54 -91,-60.75 -117.4,-108.61c-14.815,-26.923 -24.764,-56.25 -29.39,-86.63c-4.188,-27.423 -3.371,-55.379 2.41,-82.51c4.683,-24.02 12.471,-47.33 23.17,-69.34c12.567,-25.448 29.698,-48.375 50.54,-67.64c22.293,-20.344 47.802,-36.858 75.49,-48.87c14.914,-6.637 30.267,-12.24 45.95,-16.77c4.488,-1.008 8.066,-4.424 9.28,-8.86c4.31,-14.28 18.37,-22.64 35.08,-21.09c14.52,1.36 26.74,13.29 28.05,27.09c1.75,16.57 -11.32,31.31 -29.19,32.93c-4.353,0.401 -8.743,-0.019 -12.94,-1.24c-2.818,-0.912 -5.494,-2.215 -7.95,-3.87c-3.711,-2.643 -8.441,-3.433 -12.81,-2.14c-39.38,11 -75.49,27.62 -105.71,54c-37,31.52 -62.08,73.19 -71.62,118.91c-4.57,21.01 -6.438,42.517 -5.56,64c1.31,33.132 9.984,65.559 25.39,94.92c14.195,27.581 33.422,52.266 56.69,72.78c30.21,26.47 65.89,43.55 106.16,52.61c25.706,5.787 52.066,8.141 78.39,7c34.145,-1.397 67.706,-9.334 98.86,-23.38c25.409,-11.147 49.005,-26.039 70,-44.18c36.86,-32.8 59.79,-76.77 64.61,-123.91c0.09,-1.22 -0.02,-2.55 -0.02,-4.02Zm-286.46,-276.27c8.77,0.23 16.09,-6.17 16.33,-14.3l0,-0.92c0,-9.5 -6.56,-15.43 -16.95,-15.5c-8.48,0 -16.29,7.49 -16.25,15.72c0.33,8.37 7.79,15 16.87,15Z" style="fill:#60d8f9;fill-rule:nonzero;"/><path d="M341.58,305.61c0.5,17.73 -16.47,32.92 -35.52,32.84c-19.49,-0.33 -35.16,-15 -35.38,-33c-0.41,-18.16 15.15,-33.18 34.74,-33.56c19.59,-0.38 35.8,14 36.2,32.2l0,1.54l-0.04,-0.02Z" style="fill:#60d9f9;fill-rule:nonzero;"/></g></svg>