<?xml version="1.0" encoding="utf-8"?>
<!-- Generator: Adobe Illustrator 25.2.3, SVG Export Plug-In . SVG Version: 6.00 Build 0)  -->
<svg version="1.1" id="Layer_1" xmlns:serif="http://www.serif.com/"
	 xmlns="http://www.w3.org/2000/svg" xmlns:xlink="http://www.w3.org/1999/xlink" x="0px" y="0px" viewBox="0 0 595.3 841.9"
	 style="enable-background:new 0 0 595.3 841.9;" xml:space="preserve">
<style type="text/css">
	.st0{fill-rule:evenodd;clip-rule:evenodd;fill:#D7E9FC;}
	.st1{fill-rule:evenodd;clip-rule:evenodd;fill:#9FABB9;}
	.st2{fill-rule:evenodd;clip-rule:evenodd;fill:url(#imagebot_7_1_);}
	.st3{fill-rule:evenodd;clip-rule:evenodd;fill:#565E63;}
	.st4{fill-rule:evenodd;clip-rule:evenodd;fill:#FFFFFF;}
	.st5{fill-rule:evenodd;clip-rule:evenodd;fill-opacity:0.1762;}
</style>
<g id="imagebot_2">
	<path id="imagebot_9" class="st0" d="M190.8,73.2l29.8,29.8v188.6C200.7,321.4,84.8,543.2,21.9,669C2.1,708.7,2.1,758.3,31.9,798
		c19.9,29.8,54.5,39.8,89.3,39.8h357.5c34.8,0,69.4-10,89.3-39.8c29.8-39.7,29.8-89.4,10-129.1c-56.2-125.8-122.5-251.6-178.7-377.4
		V102.9l28.8-28.8l1-1L190.8,73.2L190.8,73.2z"/>
	<path id="imagebot_8" class="st1" d="M189.5,69.2c-1.3,0.3-2.3,1.2-2.7,2.4c-0.4,1.3,0,2.6,0.9,3.5l28.7,28.7v186.3
		c-5.3,8.1-15.8,26.6-30.1,53.1c-14.7,27-33,61.4-52.6,98.9C94.4,517.1,49.7,604,18.2,666.9c-20.4,40.7-20.3,91.8,10.2,132.6
		c0,0.1,0.1,0.1,0.1,0.2c20.7,30.9,56.7,41.2,92.1,41.2h357.5c35.4,0,71.4-10.2,92.1-41.2c0-0.1,0-0.1,0.1-0.2
		c30.5-40.8,30.6-91.9,10.2-132.6c-56.2-125.7-122.2-251.3-178.4-376.7V103.9L430,76.1l1-1c1-1,1.3-2.5,0.7-3.8
		c-0.5-1.3-1.8-2.1-3.2-2.2H190.2C190,69.2,189.7,69.2,189.5,69.2L189.5,69.2z M198.7,76.2H420L396.3,100c-0.7,0.7-1.1,1.6-1,2.5
		v188.6c0,0.5,0.1,1,0.3,1.4C451.8,418.5,518,544.3,574.2,669.9l0.1,0.1c19.3,38.7,19.3,86.9-9.6,125.5c0,0-0.1,0.1-0.1,0.1
		c-19,28.5-52.3,38.3-86.4,38.3H120.7c-34.1,0-67.4-9.8-86.4-38.3c0,0-0.1-0.1-0.1-0.1c-29-38.6-29-86.8-9.6-125.5
		c31.4-62.9,76.1-149.7,115.4-224.6c19.7-37.4,37.9-71.9,52.5-98.9c14.6-26.9,25.7-46.4,30.4-53.5c0.4-0.6,0.6-1.2,0.6-1.9V102.5
		c0-1-0.4-1.9-1.1-2.5L198.7,76.2L198.7,76.2z"/>
	
		<linearGradient id="imagebot_7_1_" gradientUnits="userSpaceOnUse" x1="-3.833458e-02" y1="840.0574" x2="2.7642" y2="837.2548" gradientTransform="matrix(195.1754 0 0 -157.6 9.9234 132793.2344)">
		<stop  offset="0" style="stop-color:#E92D28"/>
		<stop  offset="1" style="stop-color:#6D0018"/>
	</linearGradient>
	<path id="imagebot_7" class="st2" d="M193.8,381.5C152.4,455.4,82.1,586.2,38.6,670.3c-18.6,36-18.5,80.9,9.4,116.8
		c18.6,27,51.1,36,83.7,36h334.9c32.6,0,65.1-9,83.7-36c27.9-36,28-80.9,9.4-116.8c-44.6-96.3-95.4-192.6-142.1-288.9H193.8
		L193.8,381.5z"/>
	<path id="imagebot_6" class="st3" d="M193.8,381.1c-0.1,0-0.2,0.1-0.3,0.2c-0.1,0.1-0.2,0.2-0.3,0.3
		C151.8,455.4,81.6,586.2,38.1,670.3c-18.7,36.2-18.7,81.6,9.5,117.8c18.8,27.3,51.7,36.3,84.4,36.3h334.9
		c32.8,0,65.6-9.1,84.4-36.3c28.1-36.2,28.2-81.6,9.4-117.8c-44.6-96.3-95.5-192.5-142.1-288.7c-0.1-0.3-0.4-0.5-0.8-0.5H194.1
		C194,381,193.9,381,193.8,381.1z M194.6,382.8h222.8c46.6,96.1,97.3,192.3,141.8,288.3v0.1c18.5,35.7,18.4,80.2-9.3,115.9
		c-18.4,26.7-50.6,35.6-83,35.6H132c-32.4,0-64.6-9-83-35.6c-27.7-35.7-27.8-80.2-9.3-115.9C83.1,587.2,153.1,456.7,194.6,382.8z"/>
	<path id="imagebot_5" class="st4" d="M363.7,101.6v192.7c63.2,133.7,126.7,267.2,189.7,401c17.6,41.8-4.3,90.4-42.5,111.8
		c-34,22.8-75.9,14-114.2,15.6h-81.3c48.5-6.2,98-7.4,145.9-17.1c31.4-9.8,69.6-27.3,71.5-65.3c2-40.5-23.5-74.8-37-111.5
		L349.7,294.3V101.6L375,76.2h14.1L363.7,101.6L363.7,101.6z"/>
	<path id="imagebot_4" class="st5" d="M236.7,101.6v192.7C173.5,428,97.4,549.4,34.4,683.2c-17.6,41.7-3.5,98.1,31.5,122.6
		c35,17.5,24.5,14,64.1,18.6c27.1,0,127.8-1.7,154.8-1.7c-48.5-6.2-98-7.4-145.9-17.1c-31.4-9.8-69.6-27.3-71.5-65.3
		c-2-40.5,23.4-74.8,37-111.5c48.7-111.5,97.5-223,146.2-334.5V101.6l-25.3-25.5h-14.1L236.7,101.6L236.7,101.6z"/>
</g>
</svg>
