<?xml version="1.0" encoding="UTF-8" standalone="no"?>
<!DOCTYPE svg PUBLIC "-//W3C//DTD SVG 1.1//EN" "http://www.w3.org/Graphics/SVG/1.1/DTD/svg11.dtd">

<svg xmlns="http://www.w3.org/2000/svg" viewBox="0 0 612.61 612.61">
    <defs>
        <style>.cls-1{fill:#222;}.cls-2{fill:#00d8ff;}.cls-3{fill:#60d8f9;}.cls-3,.cls-4{fill-rule:evenodd;}.cls-4{fill:#60d9f9;}</style>
    </defs>
    <g id="Layer_2" data-name="Layer 2">
        <g id="Layer_1-2" data-name="Layer 1">
            <circle class="cls-1" cx="306.31" cy="306.31" r="306"/>
            <path class="cls-2" d="M306.31,612.61A306.21,306.21,0,0,1,89.71,89.72,306.31,306.31,0,1,1,425.53,588.54,304.2,304.2,0,0,1,306.31,612.61Zm0-612A305.77,305.77,0,0,0,187.32,588a305.77,305.77,0,0,0,238-563.34A303.83,303.83,0,0,0,306.31.62Z"/>
            <path class="cls-3" d="M417.29,365.2c1,4,2.17,8.06,2.92,12.21A150.79,150.79,0,0,1,422,425.27a53.94,53.94,0,0,1-9.14,23.79,31.42,31.42,0,0,1-17.28,12.15,39.32,39.32,0,0,1-18.94,1.1,165.91,165.91,0,0,1-20.74-5.91,83,83,0,0,1-13-6.15c-4.07-2.28-7.94-5-11.76-7.55-2.4-1.56-4.89-3-7.19-4.67-3.66-2.69-7.19-5.52-10.79-8.32-2.18-1.68-4.39-3.32-6.77-5.1-2.49,2.1-4.83,4.21-7.33,6.18-2,1.62-4.17,3.13-6.34,4.59-6.22,4.18-12.36,8.47-18.73,12.41-4.18,2.57-8.8,4.47-13.08,6.9-6.37,3.68-13.52,5-20.56,7a40.06,40.06,0,0,1-18,1,33.28,33.28,0,0,1-20.24-11.05,47.49,47.49,0,0,1-7.73-13.91c-5.2-13.08-4.94-26.66-4.07-40.21.5-7.75,1.85-15.48,3.06-23.18A88.24,88.24,0,0,1,195.8,365c-2.62-.8-5.1-1.46-7.51-2.29-6-2-11.92-3.88-17.66-6.2a158.51,158.51,0,0,1-18-8.1,106.11,106.11,0,0,1-23.28-16.15,61.68,61.68,0,0,1-9.93-12.4,27.06,27.06,0,0,1-2.6-23.33,40,40,0,0,1,5.7-10.21,49.19,49.19,0,0,1,12.63-12.49c3.78-2.59,7.69-5,11.48-7.56a119.54,119.54,0,0,1,26.59-12.7c6-2.16,12.07-4.13,18.11-6.21,1.31-.44,2.61-1,4-1.53-.94-3.68-2-7.19-2.71-10.77-2.88-15.85-4.41-31.79-2.2-47.86a54.8,54.8,0,0,1,8.78-24.41,32.54,32.54,0,0,1,10.61-10c9.22-5.37,19-5.24,29.08-3.77a75,75,0,0,1,20.94,6.89,237.17,237.17,0,0,1,20.82,11.46,162.06,162.06,0,0,1,13.45,9.21c4.13,3.07,7.95,6.44,12.12,9.76,1.85-1.57,3.58-3.13,5.44-4.55q6.56-5,13.25-9.83c3.82-2.78,7.69-5.52,11.57-8.18.61-.32,1.24-.61,1.88-.88a152.28,152.28,0,0,1,23.15-10.86A68.44,68.44,0,0,1,382.09,148a33.83,33.83,0,0,1,17.1,2.95,32.81,32.81,0,0,1,10.73,8,54.63,54.63,0,0,1,8.34,14.85c4.23,10.64,4.71,21.69,4.2,32.75-.46,9.45-1.73,18.89-2.95,28.28a91.93,91.93,0,0,1-2.86,11.14c2.59.85,5,1.56,7.26,2.37,6.25,2.18,12.61,4.13,18.71,6.63,6.83,2.8,13.53,5.93,20.08,9.21a77.62,77.62,0,0,1,11.92,7.36c4,3,7.49,6.59,11.17,10a44.2,44.2,0,0,1,7.79,10.82,25.49,25.49,0,0,1,1.27,23.93,29.81,29.81,0,0,1-7.71,11.6c-3.78,3.17-6.93,6.92-10.75,10A71.16,71.16,0,0,1,466,344.62c-5.6,3.09-11.3,6.08-17.18,8.71-5.51,2.46-11.25,4.47-16.93,6.59C427.24,361.69,422.46,363.36,417.29,365.2Zm-111.13-1.84c10.75-.44,21.69-.88,32.62-1.38a4.58,4.58,0,0,0,3-.94c2.26-2.85,4.29-5.87,6.38-8.87,3.51-5.06,7.09-10.11,10.45-15.26,2.52-3.87,4.86-7.83,7.11-11.82,1.75-3.11,3.22-6.37,4.89-9.54s3.27-5.78,4.76-8.72a3.41,3.41,0,0,0,.16-2.62c-1.57-3.24-3.28-6.42-5.06-9.59-2.84-5-5.77-10-8.67-15-1.11-1.84-2.12-3.92-3.37-5.78-3.1-4.62-6.32-9.2-9.52-13.73-2.28-3.3-4.57-6.59-7-9.83a3.24,3.24,0,0,0-2.09-1.11c-5.62-.37-11.26-.9-16.88-.86-16,.13-32.05.6-48.06.66a7.47,7.47,0,0,0-6.6,3.68c-3.61,5.12-7,10.35-10.39,15.61-4,6.32-8.06,12.65-11.92,19.09-3,5-5.62,10.11-8.28,15.23a5.58,5.58,0,0,0-.89,3.88,44.56,44.56,0,0,0,3.77,7.81c2.78,4.86,5.7,9.66,8.62,14.47,3.58,5.81,7.21,11.61,10.83,17.43a29.09,29.09,0,0,0,1.61,2.67c2.9,3.86,6,7.62,8.7,11.6a3.27,3.27,0,0,0,3,1.62ZM412.92,349.5c2.2-.92,3.85-1.7,5.6-2.32,5.78-2.06,11.68-3.87,17.34-6.17s11-5,16.43-7.58a72.44,72.44,0,0,0,18.16-12.37,31.49,31.49,0,0,0,7.43-8.95,14.61,14.61,0,0,0,.2-13.18,30.89,30.89,0,0,0-8.44-10.11,75.61,75.61,0,0,0-11.56-8.19,146.22,146.22,0,0,0-17.71-9.43c-8.24-3.42-16.92-6-25.34-9-2.17-.77-2.89-.11-3.52,1.75-2.5,7.36-5,14.73-7.81,22.09-2.12,5.52-4.65,10.85-7.13,16.2a6,6,0,0,0,0,5.8c2.11,4,4,8.25,5.7,12.45q3.35,8.06,6.36,16.21c1.45,4.13,2.76,8.34,4.29,12.85ZM212.09,369.34c-.39,1.84-.77,3.35-1,4.88-1.37,8.76-3,17.51-4,26.33a67.31,67.31,0,0,0,.91,21c1.59,7.61,2.48,15.41,8.88,21.26a11.32,11.32,0,0,0,3.64,2.64c9,3.09,17.72,1,26.1-2.19A151.53,151.53,0,0,0,262,435.89a92.87,92.87,0,0,0,9.45-5.43c3.8-2.54,7.41-5.3,11-8.06s7.57-6,11.34-9c-1.31-1.51-2.34-2.8-3.51-4-3.12-3.14-6.42-6.16-9.44-9.4s-5.84-6.63-8.66-10c-3.08-3.68-6-7.53-9.1-11.15a6.66,6.66,0,0,0-3.7-1.84c-11-1.73-22.13-3.24-33.19-4.94C221.61,371.2,217,370.25,212.09,369.34ZM400.32,241.86c.68-3.52,1.45-6.57,1.87-9.7,1.23-9.08,2.7-18.17,3.3-27.28a73.34,73.34,0,0,0-1.29-16.19,45.42,45.42,0,0,0-6-17.78c-3.74-5.91-13.69-8.39-19.71-6.81-7,1.84-14.22,3.11-20.5,7-5.6,3.46-11.56,6.44-17.34,9.66a34,34,0,0,0-3.88,2.47c-4.23,3.24-8.42,6.55-12.59,9.85-1.87,1.47-3.72,3-5.58,4.49,5.26,5.52,10.25,10.62,15.17,15.81,1.14,1.22,2,2.6,3.12,3.85,3,3.44,6.24,6.7,8.94,10.31s5.11,6.46,10.15,7c10.15,1.14,20.25,2.62,30.36,4,2.58.36,5.12.95,7.65,1.54C396,240.63,398.06,241.27,400.32,241.86Zm-200.9,19.55c-4.37,1.58-8.34,3.13-12.4,4.44a112.1,112.1,0,0,0-20.12,8c-5.47,3-11.23,5.64-16.37,9a108,108,0,0,0-11.19,9.58c-7,6.13-8.6,14.83-3.37,22.09a42.62,42.62,0,0,0,11,10.62c5.66,3.77,11.39,7.51,17.39,10.8A123.32,123.32,0,0,0,179,342.52c4.45,1.73,9.1,3,13.62,4.51,2.27.74,4.49,1.57,6.84,2.39.71-1.71,1.41-3.24,2-4.78,2.38-6.41,4.58-12.89,7.11-19.24s5.26-12.17,7.82-18.3a3.78,3.78,0,0,0,0-2.65c-1.35-3.17-3-6.24-4.33-9.41-2.46-5.83-4.88-11.7-7.13-17.61C203.13,272.27,201.37,267,199.42,261.41Zm94.26-63.73c-4.31-3.39-8.4-6.83-12.77-10-5.44-3.92-11-7.81-16.73-11.28a84.44,84.44,0,0,0-28.78-11.27,25.7,25.7,0,0,0-10.83-.55,16.47,16.47,0,0,0-12.38,9.5,65,65,0,0,0-5.54,24.11c-.72,10.18,1,20.25,2.68,30.17.76,4.48,1.71,8.91,2.64,13.72a72.44,72.44,0,0,1,7.95-2.19c12.18-1.84,24.42-3.48,36.61-5.38a12.08,12.08,0,0,0,6.22-2.37,116.68,116.68,0,0,0,8.31-9.78c3-3.55,6-7.16,9.05-10.58C284.41,207.08,288.88,202.59,293.68,197.68Zm24.94,215.57c4.39,3.29,8.44,6.39,12.53,9.44,3.7,2.78,7.27,5.77,11.19,8.27q6.84,4.29,14.12,7.92a92.32,92.32,0,0,0,11.3,4.8,52.14,52.14,0,0,0,17.88,2.95c7.08,0,11.49-3.87,14.35-9.12,4.13-7.58,4.82-16.05,5.7-24.33,1-9.48-.92-18.87-2.21-28.24-.71-5.21-1.86-10.39-2.84-15.63a3.2,3.2,0,0,0-1.27.13c-7,1.41-13.91,3.09-21,4.19-8.6,1.33-17.28,2.14-25.82,3.28a4.63,4.63,0,0,0-2.72,1.38c-2.29,2.67-4.3,5.52-6.54,8.25-4,4.67-7.77,9.37-11.92,13.86s-8.26,8.27-12.73,12.78ZM306.18,402a246.93,246.93,0,0,0,21.39-23.14H285.38l-.5.47Zm-21.6-170.16h43.11L306,208.72Zm80,127.32c10.41-1.71,21.09-2.6,31.68-5.93l-10.57-28.39ZM216.05,257.23c3.63,9.72,7.13,19.09,10.7,28.72l21-34-.41-.48ZM248,359.11l-21.2-33.95c-3.51,9.57-6.91,18.76-10.35,28.11C227,356.51,237.4,357.36,248,359.11ZM385.6,285.75c3.54-9.65,7-18.95,10.47-28.56l-31.78-5.83C371.46,263,378.47,274.28,385.6,285.75Z"/>
            <path class="cls-3" d="M551,357.27,490,369.2c46.29-31.59,77.34-72.08,86.42-125.76q1.36,5.26,2.76,10.59a267.56,267.56,0,0,1,8,40.74,231.17,231.17,0,0,1,.55,42.74,228.81,228.81,0,0,1-24.51,85.33,266.29,266.29,0,0,1-52.11,70c-43.71,42.76-97.78,68.11-159.67,79.82a247.44,247.44,0,0,1-68.47,2.89,320,320,0,0,1-109.45-29.46c-51.65-24.54-91-60.75-117.4-108.61a261.29,261.29,0,0,1-29.39-86.63,229.6,229.6,0,0,1,2.41-82.51A282.07,282.07,0,0,1,52.31,199a232,232,0,0,1,50.54-67.64,273.43,273.43,0,0,1,75.49-48.87,356,356,0,0,1,45.95-16.77,12.45,12.45,0,0,0,9.28-8.86c4.31-14.28,18.37-22.64,35.08-21.09,14.52,1.36,26.74,13.29,28.05,27.09,1.75,16.57-11.32,31.31-29.19,32.93a34.87,34.87,0,0,1-12.94-1.24,31.67,31.67,0,0,1-7.95-3.87,14.83,14.83,0,0,0-12.81-2.14c-39.38,11-75.49,27.62-105.71,54-37,31.52-62.08,73.19-71.62,118.91a252.6,252.6,0,0,0-5.56,64,223.28,223.28,0,0,0,25.39,94.92A248.82,248.82,0,0,0,133,493.15c30.21,26.47,65.89,43.55,106.16,52.61a298.11,298.11,0,0,0,78.39,7,267.1,267.1,0,0,0,98.86-23.38,277.68,277.68,0,0,0,70-44.18c36.86-32.8,59.79-76.77,64.61-123.91C551.11,360.07,551,358.74,551,357.27ZM264.54,81c8.77.23,16.09-6.17,16.33-14.3,0-.31,0-.62,0-.92,0-9.5-6.56-15.43-16.95-15.5-8.48,0-16.29,7.49-16.25,15.72C248,74.37,255.46,81,264.54,81Z"/>
            <path class="cls-4" d="M341.58,305.61c.5,17.73-16.47,32.92-35.52,32.84-19.49-.33-35.16-15-35.38-33-.41-18.16,15.15-33.18,34.74-33.56s35.8,14,36.2,32.2c0,.51,0,1,0,1.54Z"/>
        </g>
    </g>
</svg>