<?xml version="1.0" encoding="UTF-8" standalone="no"?>
<!DOCTYPE svg PUBLIC "-//W3C//DTD SVG 1.1//EN" "http://www.w3.org/Graphics/SVG/1.1/DTD/svg11.dtd">
<svg width="100%" height="100%" viewBox="0 0 300 300" version="1.1" xmlns="http://www.w3.org/2000/svg" xmlns:xlink="http://www.w3.org/1999/xlink" xml:space="preserve" xmlns:serif="http://www.serif.com/" style="fill-rule:evenodd;clip-rule:evenodd;stroke-linejoin:round;stroke-miterlimit:2;">
    <use id="Thinkster" xlink:href="#_Image1" x="30" y="10.583" width="242px" height="278.438px" transform="matrix(1,0,0,0.997985,0,0)"/>
    <path id="Thinkster1" serif:id="Thinkster" d="M155,16L155.988,16C230.388,11 267,49.612 267,91.012L266.491,121.036C261.217,122.146 249.961,119.144 248.389,111.764C246.605,103.394 246.542,99.609 246.018,92.715C245.364,84.099 242.461,78.075 237,75C223.435,67.093 209.111,63.01 194.367,61.048C193.044,58.092 189.794,56 186,56C181.033,56 177,59.585 177,64C177,68.415 181.033,72 186,72C187.905,72 189.672,71.473 191.128,70.574L191,71C212.453,73.311 230.803,77.487 235.177,89.377L237.295,112.862C237.713,119.975 241.267,125.561 250.567,128.344L266.34,129.934L265,208.988C265,250.388 207.388,277 156.988,284L137.012,284C104.721,281.01 34.477,250.595 35.988,209.407C35.997,209.198 36,208.989 35.998,208.779L35.33,129.949L62.693,125.729C70.721,124.047 75.295,117.704 77.89,108.686C80.011,98.002 85.623,92.295 94.726,91.565L136.082,87.137C140.791,86.071 143.19,88.027 144.388,91.556L144.396,102.571C144.836,107.225 142.704,108.76 140.325,109.372C129.241,109.776 118.662,110.75 108.113,112.976C106.555,111.161 104.17,110 101.5,110C96.809,110 93,113.585 93,118C93,122.415 96.809,126 101.5,126C104.729,126 107.54,124.302 108.978,121.804L109,122C133.369,118.947 171.757,120.608 200.369,120.308C205.09,120.259 209.652,121.909 209,100L208.616,100C211.23,98.635 213,96.01 213,93C213,88.585 209.191,85 204.5,85C199.809,85 196,88.585 196,93C196,96.01 197.77,98.635 200.384,100L200,100C198.723,107.999 201.515,109.056 190.37,109.164C180.495,109.261 174.807,109.035 166,109C162.895,108.655 154.433,108.857 155.043,103.192L155.018,52.054C157.788,45.334 162.049,43.688 166.202,42.388C189.452,41.555 208.148,44.455 221.508,51.729C222.695,54.802 225.827,57 229.5,57C234.191,57 238,53.415 238,49C238,44.585 234.191,41 229.5,41C228.141,41 226.856,41.301 225.716,41.835C216.115,36.344 193.621,31.847 167.102,31.196C155.492,30.911 155.663,29.119 155.005,26.754L155,16ZM209.75,218C214.155,215.195 204.826,203.475 199.75,207C167.293,236.774 136.738,238.634 100.25,209C94.733,204.819 85.467,215.643 90.25,219C125.556,254.506 176.148,254.771 209.75,218ZM58.449,166.029C57.074,168.309 67.173,176.372 68.704,173.564C77.299,159.339 93.044,154.925 106.824,165.897C110.465,169.181 119.124,159.802 117.288,157.479C103.062,139.491 72.507,140.345 58.449,166.029ZM182.733,156.434C180.695,158.147 187.643,169.043 190,166.881C202.734,156.201 219.06,157.117 228.55,171.956C230.934,176.242 242.161,170.167 241.175,167.376C233.532,145.753 204.343,136.678 182.733,156.434ZM142,16C144.183,17.096 144.271,21.912 144.341,26.76L144.368,64.251C142.557,72.312 137.588,76.256 129.798,76.518L95.896,79.756C82.668,81.476 73.962,87.378 70.537,98.166C67.99,108.946 63.006,114.218 56.192,115.353L35.229,117.971L35,91.012C35,59.652 50.096,31.728 93,21C92.522,21.215 93.402,20.756 93,21C91.533,32.585 93.986,37.095 90.406,52.157C89.786,54.767 84.593,55.492 85.002,55.416C85.002,55.416 68.733,59.777 63.416,61.838C62.1,60.693 60.38,60 58.5,60C54.361,60 51,63.361 51,67.5C51,71.639 54.361,75 58.5,75C62.212,75 65.297,72.298 65.895,68.755L66,69C82.751,63.895 100.476,61.388 112.367,61.966C113.709,63.227 115.515,64 117.5,64C121.639,64 125,60.639 125,56.5C125,52.361 121.639,49 117.5,49C114.605,49 112.092,50.643 110.841,53.048C108.495,53.15 106.208,53.29 103.982,53.463C102.137,52.759 101.352,51.09 101.181,42.915C101,34.277 101.043,22.122 103.747,18.322C115.411,16.285 126.777,15.433 142,16Z" style="fill:rgb(53,163,251);"/>
</svg>
