<!-- Generated by IcoMoon.io -->
<svg version="1.1" xmlns="http://www.w3.org/2000/svg" width="100%" height="100%" viewBox="0 0 32 32">
<title>not-allowed</title>
<path d="M16.005-0.059c8.821 0 15.984 7.187 15.984 16.037s-7.163 16.037-15.984 16.037c-8.824 0-15.987-7.187-15.987-16.037s7.163-16.037 15.987-16.037zM26.528 7.792l-18.709 18.709c2.261 1.76 5.101 2.811 8.187 2.811 7.357 0 13.333-5.973 13.333-13.333 0-3.085-1.051-5.925-2.811-8.187zM24.208 5.472c-2.261-1.771-5.109-2.827-8.203-2.827-7.36 0-13.333 5.973-13.333 13.333 0 3.093 1.056 5.941 2.824 8.205l18.712-18.712z"></path>
</svg>
