<?xml version="1.0" encoding="iso-8859-1"?>
<!-- Generator: Adobe Illustrator 19.0.0, SVG Export Plug-In . SVG Version: 6.00 Build 0)  -->
<svg version="1.1" id="Layer_1" xmlns="http://www.w3.org/2000/svg" xmlns:xlink="http://www.w3.org/1999/xlink" x="0px" y="0px"
	 viewBox="0 0 512 512" style="enable-background:new 0 0 512 512;" xml:space="preserve">
<circle style="fill:#C7E7EB;" cx="256" cy="256" r="256"/>
<path style="fill:#A7CBCF;" d="M512,256c0-34.302-6.763-67.019-19.002-96.915l-64.476-64.476l-66.783,22.261l-22.261-22.261
	l-244.87,13.487l-11.13,309.296l75.607,75.608C188.981,505.237,221.698,512,256,512C397.385,512,512,397.384,512,256z"/>
<g>
	<path style="fill:#111449;" d="M428.522,94.609v322.783H256l-11.13-11.13L256,395.13h38.957V372.87H267.13v-22.261h50.087v44.522
		h22.261v-44.522h22.261v-66.783H384v44.522h22.261V217.043H384v44.522h-22.261V161.391H256l-11.13-11.13L256,139.13h128v55.652
		h22.261V116.87h-44.522V94.609H428.522z M406.261,395.13v-44.522H384v22.261h-22.261v22.261H406.261z"/>
	<polygon style="fill:#111449;" points="339.478,94.609 339.478,116.87 256,116.87 244.87,105.739 256,94.609 	"/>
</g>
<path style="fill:#2F5E88;" d="M256,395.13v22.261H83.478V94.609H256v22.261H150.261v22.261H256v22.261h-33.391v33.391h-22.261
	v-33.391h-50.087v89.043h-44.522v44.522H128v-22.261h22.261v77.913h94.609v22.261H128v-55.652h-22.261v77.913H256z M128,228.174
	V116.87h-22.261v111.304H128z"/>
<polygon style="fill:#27467A;" points="328.348,250.435 328.348,205.913 256,205.913 244.87,228.174 256,250.435 "/>
<rect x="183.652" y="205.913" style="fill:#367596;" width="72.348" height="44.522"/>
<polygon style="fill:#27467A;" points="328.348,306.087 328.348,261.565 256,261.565 244.87,283.826 256,306.087 "/>
<rect x="183.652" y="261.565" style="fill:#367596;" width="72.348" height="44.522"/>
<g>
	<polygon style="fill:#5195AF;" points="256,183.652 244.87,200.348 256,217.043 339.478,217.043 339.478,183.652 	"/>
	<polygon style="fill:#5195AF;" points="256,239.304 244.87,256 256,272.696 339.478,272.696 339.478,239.304 	"/>
	<polygon style="fill:#5195AF;" points="256,294.957 244.87,311.652 256,328.348 339.478,328.348 339.478,294.957 	"/>
</g>
<g>
	<rect x="172.522" y="183.652" style="fill:#88ACB5;" width="83.478" height="33.391"/>
	<rect x="172.522" y="239.304" style="fill:#88ACB5;" width="83.478" height="33.391"/>
	<rect x="172.522" y="294.957" style="fill:#88ACB5;" width="83.478" height="33.391"/>
</g>
<g>
</g>
<g>
</g>
<g>
</g>
<g>
</g>
<g>
</g>
<g>
</g>
<g>
</g>
<g>
</g>
<g>
</g>
<g>
</g>
<g>
</g>
<g>
</g>
<g>
</g>
<g>
</g>
<g>
</g>
</svg>
