<?xml version="1.0" encoding="iso-8859-1"?>
<!-- Generator: Adobe Illustrator 19.0.0, SVG Export Plug-In . SVG Version: 6.00 Build 0)  -->
<svg version="1.1" id="Layer_1" xmlns="http://www.w3.org/2000/svg" xmlns:xlink="http://www.w3.org/1999/xlink" x="0px" y="0px"
	 viewBox="0 0 495.578 495.578" style="enable-background:new 0 0 495.578 495.578;" xml:space="preserve">
<g>
	<g>
		<path style="fill:#E6BE94;" d="M439.208,215.578c-46.975-53.529-96-65.973-96-125c0-64.333-54.333-113.667-149.429-79.321
			C91.816,48.083,21.208,136.911,21.208,247.578c0,136.966,111.033,248,248,248c22.527,0,44.354-3.004,65.099-8.632l-0.006-0.026
			C439.208,456.578,525.208,313.578,439.208,215.578z M333.709,189.69c-14.501,18.555-54.668,7.707-70.17-18.547
			c-13.664-23.14-8.664-56.232,14.988-70.822c13.71-8.457,31.791-0.135,35.231,15.602c2.8,12.806,8.543,28.671,20.239,43.187
			C341.125,167.96,340.707,180.736,333.709,189.69z"/>
	</g>
	<g>
		<circle style="fill:#FF4F19;" cx="165.098" cy="135.688" r="47.89"/>
	</g>
	<g>
		<circle style="fill:#FF8C62;" cx="176.94" cy="123.715" r="16.762"/>
	</g>
	<g>
		<circle style="fill:#FFCD00;" cx="117.098" cy="255.688" r="47.89"/>
	</g>
	<g>
		<circle style="fill:#FFE671;" cx="128.94" cy="243.715" r="16.762"/>
	</g>
	<g>
		<circle style="fill:#00C37A;" cx="172.879" cy="367.469" r="47.89"/>
	</g>
	<g>
		<circle style="fill:#60DC4D;" cx="184.72" cy="355.496" r="16.762"/>
	</g>
	<g>
		<circle style="fill:#4CD7FF;" cx="293.098" cy="407.688" r="47.89"/>
	</g>
	<g>
		<circle style="fill:#AEEFFF;" cx="304.939" cy="395.715" r="16.762"/>
	</g>
	<g>
		<circle style="fill:#009BCA;" cx="381.098" cy="319.469" r="47.89"/>
	</g>
	<g>
		<circle style="fill:#4CD7FF;" cx="392.939" cy="307.496" r="16.762"/>
	</g>
</g>
<g>
</g>
<g>
</g>
<g>
</g>
<g>
</g>
<g>
</g>
<g>
</g>
<g>
</g>
<g>
</g>
<g>
</g>
<g>
</g>
<g>
</g>
<g>
</g>
<g>
</g>
<g>
</g>
<g>
</g>
</svg>
