<svg xmlns="http://www.w3.org/2000/svg" width="425" height="425" viewBox="0 0 425 425">
    <path d="M365.148 60.721C324.699 20.43 272.871 0 211.104 0 151.18 0 100.286 20.926 59.834 62.2 20.266 102.646.201 152.061.201 209.072c0 57.12 19.258 106.825 57.229 147.727 40.119 43.402 91.822 65.408 153.674 65.408 2.891 0 5.781-.023 8.667-.066v-41.578c-2.887.061-5.775.102-8.667.102-48.709 0-89.295-17.77-120.621-52.801-29.279-32.989-44.125-72.955-44.125-118.791 0-46.221 15.74-85.809 46.791-117.669C124.67 58.954 164.358 42.5 211.104 42.5c49.001 0 89.748 15.676 121.111 46.595 29.465 28.993 44.404 64.536 44.404 105.64 0 45.003-14.664 80.011-19.156 89.674l-54.947.026V99.647h-50.768v22.9c-6.383-4.861-14.082-9.067-22.979-12.541-12.314-4.654-24.383-7.014-35.872-7.014-30.641 0-56.344 12.097-76.396 35.958-18.471 22.014-27.836 48.259-27.836 78.008 0 27.633 8.813 52.872 26.182 75 19.881 25.534 46.133 38.563 78.021 38.728l.662.002c25.625 0 47.819-8.832 66.01-26.254l7.25 21.078h121.586l13.615-27.938c13.279-26.551 20.014-61.15 20.014-102.84.001-51.325-19.128-96.414-56.857-134.013zM233.145 263.465c-10.895 13.098-23.559 19.465-38.721 19.465-20.01 0-35.455-7.992-47.209-24.423-9.424-13.245-14.203-27.707-14.203-42.981 0-17.038 5.479-32.285 16.281-45.312 12.102-14.545 27.117-21.616 45.9-21.616 11.621 0 23.071 5.177 34.028 15.386 13.77 12.833 20.463 29.771 20.463 51.782 0 18.459-5.564 34.507-16.539 47.699z"/>
</svg>