<svg height="512" width="512" xmlns="http://www.w3.org/2000/svg" viewBox="0 0 512 512">
    <path d="M511.863 282.781a8.793 8.793 0 0 0-4.468-7.656l-.003-.001-.025-.016a9.936 9.936 0 0 0-1.622-.869L388.93 222.035V64.936a8.46 8.46 0 0 0-.003-.226l-.002-.074a3.81 3.81 0 0 0-.01-.241 6.245 6.245 0 0 0-.012-.193l-.011-.133-.006-.07a9.961 9.961 0 0 0-2.155-5.317l-.051-.063-.072-.087-.076-.09-.056-.065a6.65 6.65 0 0 0-.138-.155l-.028-.03a8.29 8.29 0 0 0-.128-.137l-.031-.032-.145-.149-.009-.009a8.697 8.697 0 0 0-.168-.164l-.005-.005-.157-.146-.03-.027-.146-.129-.025-.022-.166-.14-.047-.038-.113-.091-.076-.06-.086-.066a9.981 9.981 0 0 0-2.18-1.261L260.08.87a10.002 10.002 0 0 0-8.16 0L129.198 55.714a9.998 9.998 0 0 0-2.179 1.261l-.086.066-.076.06a9.01 9.01 0 0 0-.113.091l-.047.038-.166.14-.025.022-.146.129-.03.027-.157.146-.005.005a8.697 8.697 0 0 0-.168.164l-.009.009a10.19 10.19 0 0 0-.145.149l-.031.032a8.29 8.29 0 0 0-.128.137l-.028.03-.138.155-.056.065-.076.09-.072.087-.05.063a9.942 9.942 0 0 0-2.155 5.317l-.006.07-.011.133a6.245 6.245 0 0 0-.012.193l-.004.09-.006.151-.002.074a8.515 8.515 0 0 0-.003.226v157.098L6.253 274.238l-.009.004a9.947 9.947 0 0 0-6.108 9.166v163.627a9.998 9.998 0 0 0 5.92 9.129l122.953 54.947.058.026a9.714 9.714 0 0 0 7.97.014l.111-.05L256 457.988l118.852 53.115.403.153c2.505.952 5.291.899 7.755-.153l.001-.001 122.932-54.938a10 10 0 0 0 5.92-9.129v-163.58zm-132.931 44.66l-98.423-43.986 98.423-43.985 98.423 43.985zM256 159.561c5.522 0 9.999-4.477 9.999-9.999v-23.203l102.933-46v141.674l-102.933 46.001V239.97c0-5.523-4.477-10-9.999-10s-9.999 4.477-9.999 10v28.064l-102.933-46.001V80.359l102.933 46v23.203c-.001 5.523 4.477 9.999 9.999 9.999zm0-138.609l98.424 43.986L256 108.922l-98.424-43.985zM133.068 239.47l98.424 43.985-98.424 43.986-98.423-43.986zM20.135 298.877l103.204 46.122a10.022 10.022 0 0 0-.271 2.32v139.233L20.135 440.551zm122.661 46.121L246 298.877v141.675l-102.933 46.001V347.318c0-.798-.094-1.575-.271-2.32zm123.203-46.121l103.204 46.122a10.022 10.022 0 0 0-.271 2.32v139.233l-102.933-46.001zm122.932 187.675V347.318c0-.799-.094-1.576-.271-2.32l103.204-46.122v141.675z"/><path d="M256 204.579c-4.232 0-8.112-2.774-9.47-6.786-1.28-3.78-.13-8.097 2.876-10.729 3.277-2.869 8.171-3.258 11.87-.97 3.546 2.194 5.38 6.532 4.488 10.604-.995 4.541-5.108 7.881-9.764 7.881z"/>
</svg>