<svg xmlns="http://www.w3.org/2000/svg" width="16" height="16" fill="none" viewBox="0 0 16 16"><g clip-path="url(#claude-logo-clip)"><g clip-path="url(#claude-logo-clip-inner)"><path fill="#d97757" d="m3.136 10.64 3.152-1.76.048-.16-.048-.08h-.16L5.6 8.608 3.808 8.56 2.24 8.48.72 8.4l-.384-.08L0 7.84l.032-.24.32-.208.464.032 1.008.08 1.52.096 1.104.064 1.632.192h.256l.032-.112-.08-.064-.064-.064L4.64 6.56 2.944 5.44l-.896-.656-.48-.32-.24-.32-.096-.672.432-.48.592.048.144.032.592.464 1.28.976L5.92 5.76l.24.192.096-.064.016-.048-.112-.176L5.28 4l-.96-1.664-.432-.688-.112-.416a1.7 1.7 0 0 1-.064-.48l.48-.672L4.48 0l.672.096.256.224.416.96.656 1.488 1.04 2.016.32.608.16.544.048.16h.112v-.08l.08-1.152.16-1.392.16-1.792.048-.512.256-.608.48-.32.416.176.32.464-.048.288L9.856 2.4 9.44 4.336 9.2 5.648h.144l.16-.176.656-.864 1.104-1.376.48-.56.576-.592.368-.288h.688l.496.752-.224.784-.704.896-.592.752-.848 1.136-.512.912.048.064h.112l1.92-.416 1.024-.176 1.216-.208.56.256.064.256-.224.544-1.312.32-1.536.32-2.288.528-.032.016.032.048 1.024.096.448.032h1.088l2.016.16.528.32.304.432-.048.32-.816.416-1.088-.256-2.56-.608-.864-.208h-.128v.064l.736.72 1.328 1.2 1.696 1.552.08.384-.208.32-.224-.032-1.472-1.12-.576-.48-1.28-1.088h-.08v.112l.288.432 1.568 2.352.08.72-.112.224-.416.16-.432-.096-.928-1.28-.96-1.44-.752-1.312-.08.064-.464 4.832-.208.24-.48.192-.4-.32-.224-.48.224-.992.256-1.28.208-1.024.192-1.264.112-.416v-.032H7.84l-.96 1.328-1.44 1.968-1.152 1.216-.272.112-.48-.24.048-.448.256-.368 1.6-2.048.96-1.264.64-.736-.016-.08h-.048l-4.224 2.752L2 12.48l-.32-.32.032-.48.16-.16 1.28-.88z"/></g></g><defs><clipPath id="claude-logo-clip"><rect width="16" height="16" fill="#fff" rx="4"/></clipPath><clipPath id="claude-logo-clip-inner"><path fill="#fff" d="M0 0h16v16H0z"/></clipPath></defs></svg>
