<svg id="Layer_1" data-name="Layer 1" xmlns="http://www.w3.org/2000/svg" viewBox="0 0 122.88 122.88"><defs><style>.cls-1{fill:#fecb00;}.cls-2{fill:#d08b00;}.cls-2,.cls-3{fill-rule:evenodd;}.cls-3{fill:#db9300;}.cls-4{fill:#b17600;}</style></defs><title>pound-coin-color</title><path class="cls-1" d="M61.44,0A61.46,61.46,0,1,1,18,18,61.21,61.21,0,0,1,61.44,0Z"/><path class="cls-2" d="M61.44,8.74a52.69,52.69,0,0,1,52.7,52.7c0,.31,0,.61,0,.92a50.86,50.86,0,1,0-51.77,51.77h-.92a52.7,52.7,0,0,1,0-105.4Z"/><path class="cls-3" d="M63.28,12.41A50.87,50.87,0,1,1,12.41,63.28,50.87,50.87,0,0,1,63.28,12.41Z"/><path class="cls-4" d="M63.19,59.83H74.66v9.24H64.52A20,20,0,0,1,63.35,75,15,15,0,0,1,60.7,79.1a16.71,16.71,0,0,1,3.63-.47,22.36,22.36,0,0,1,5,.75,31.92,31.92,0,0,0,6.77,1,16.5,16.5,0,0,0,3.6-.35,22.34,22.34,0,0,0,4-1.5L88.9,90a33.58,33.58,0,0,1-6.58,2.63,24.52,24.52,0,0,1-6.07.72,31.05,31.05,0,0,1-8.13-1.26c-4-1.12-6.47-1.77-7.44-1.95a17.75,17.75,0,0,0-3.1-.26q-4.87,0-10.76,3.47l-4.9-11q8-5.81,8-11.61c0-.21,0-.79-.07-1.74h-7.9V59.83h5.65c-1-3.38-1.51-5.36-1.62-5.9a16,16,0,0,1-.24-3,15.35,15.35,0,0,1,2.52-8.64,14.37,14.37,0,0,1,6.6-5.56,29.09,29.09,0,0,1,11-1.73,29.2,29.2,0,0,1,10.29,1.48,14.7,14.7,0,0,1,6.41,4.93,20.16,20.16,0,0,1,3.61,8.34L71.72,52c-.72-2.73-1.56-4.55-2.5-5.45a4.77,4.77,0,0,0-6.75.12,5.91,5.91,0,0,0-1.35,4.15,13.64,13.64,0,0,0,.27,2.75c.16.89.77,3,1.8,6.25Z"/><path class="cls-1" d="M60.55,57.56H72v9.06H61.88a19.49,19.49,0,0,1-1.17,5.76,14.57,14.57,0,0,1-2.65,4.07A17.35,17.35,0,0,1,61.69,76a22.92,22.92,0,0,1,5,.74,32.32,32.32,0,0,0,6.77,1,16.55,16.55,0,0,0,3.6-.34,23.43,23.43,0,0,0,4-1.47l5.15,11.3a34.31,34.31,0,0,1-6.58,2.58,25,25,0,0,1-6.08.7,31.68,31.68,0,0,1-8.12-1.23c-4-1.1-6.48-1.73-7.44-1.91a17.75,17.75,0,0,0-3.1-.26q-4.87,0-10.76,3.4L39.28,79.7q8-5.7,8-11.38c0-.21,0-.77-.08-1.7H39.28V57.56h5.65c-1-3.31-1.51-5.25-1.63-5.78a16.47,16.47,0,0,1-.23-3,14.85,14.85,0,0,1,2.52-8.47,14.3,14.3,0,0,1,6.6-5.44,29.28,29.28,0,0,1,11-1.71,29.52,29.52,0,0,1,10.3,1.46,14.73,14.73,0,0,1,6.41,4.82,19.59,19.59,0,0,1,3.61,8.18L69.08,49.9c-.73-2.68-1.56-4.46-2.51-5.34a4.8,4.8,0,0,0-6.74.12,5.63,5.63,0,0,0-1.36,4.06,13.22,13.22,0,0,0,.27,2.7c.17.87.78,2.91,1.81,6.12Z"/></svg>