<!-- Generated by IcoMoon.io -->
<svg version="1.1" xmlns="http://www.w3.org/2000/svg" width="32" height="32" viewBox="0 0 32 32">
<title>pivot</title>
<path d="M25.128 2.002c2.56 0.096 4.772 2.292 4.87 4.87 0.078 6.084 0.078 12.172 0 18.256-0.096 2.56-2.292 4.772-4.87 4.87-6.084 0.078-12.172 0.078-18.256 0-2.558-0.096-4.772-2.29-4.87-4.87-0.078-6.084-0.078-12.172 0-18.256 0.096-2.56 2.292-4.772 4.87-4.87 6.084-0.078 12.172-0.078 18.256 0zM28.094 9.956h-18.202v18.136c5.086 0.13 10.18 0.098 15.264-0.096 1.48-0.094 2.746-1.35 2.84-2.84 0.192-5.064 0.226-10.134 0.098-15.2zM3.968 24.1c0.010 0.352 0.022 0.704 0.036 1.056 0.094 1.484 1.354 2.746 2.84 2.84 0.338 0.012 0.674 0.024 1.012 0.036v-3.932h-3.888zM22 15.414l-0.292 0.294-1.416-1.416 2.708-2.706c0.902 0.902 1.804 1.804 2.708 2.706l-1.416 1.416-0.292-0.294v3.592c-0.032 2.604-2.246 4.892-4.872 4.992l-3.714 0.002 0.294 0.292-1.416 1.416-2.706-2.708 2.706-2.708c0.472 0.472 0.944 0.944 1.416 1.416l-0.322 0.32c3.372 0.030 6.578-0.164 6.614-3.034v-3.58zM3.88 18.038c0.002 1.346 0.012 2.694 0.038 4.040h3.938v-4.040h-3.976zM3.93 11.976c-0.018 1.348-0.034 2.694-0.044 4.042h3.97v-4.042h-3.926zM9.892 3.986c-0.962 0.008-1.924 0.014-2.886 0.014-1.57 0.020-2.946 1.348-3.004 2.922-0.012 1.012-0.028 2.022-0.042 3.034h3.896v-2.020h2.036v-3.95zM24.136 3.97v3.966h3.898c-0.012-0.364-0.024-0.728-0.038-1.092-0.094-1.48-1.35-2.746-2.84-2.84-0.34-0.012-0.68-0.024-1.020-0.034zM15.996 3.916c-1.356 0.014-2.714 0.032-4.070 0.048v3.972h4.070v-4.020zM22.102 3.924c-1.358-0.022-2.714-0.026-4.070-0.022v4.034h4.070v-4.012z"></path>
</svg>
