<svg width="100%" height="100%" viewBox="0 0 16 16" version="1.1" xmlns="http://www.w3.org/2000/svg" xmlns:xlink="http://www.w3.org/1999/xlink" xml:space="preserve" xmlns:serif="http://www.serif.com/" style="fill-rule:evenodd;clip-rule:evenodd;stroke-linejoin:round;stroke-miterlimit:1.41421;">
    <g id="aggregation">
        <path fill="#000000" d="M12.564,1.001C13.844,1.049 14.95,2.147 14.999,3.436C15.038,6.478 15.038,9.522 14.999,12.564C14.951,13.844 13.853,14.95 12.564,14.999C9.522,15.038 6.478,15.038 3.436,14.999C2.157,14.951 1.05,13.854 1.001,12.564C0.962,9.522 0.962,6.478 1.001,3.436C1.049,2.156 2.147,1.05 3.436,1.001C6.478,0.962 9.522,0.962 12.564,1.001ZM3.503,2C2.718,2.01 2.03,2.674 2.001,3.461C1.962,6.5 1.886,9.541 2.002,12.578C2.049,13.32 2.679,13.951 3.422,13.998C6.472,14.114 9.528,14.114 12.578,13.998C13.318,13.951 13.951,13.323 13.998,12.578C14.114,9.528 14.114,6.472 13.998,3.422C13.951,2.682 13.323,2.049 12.578,2.002C9.555,1.887 6.528,2 3.503,2ZM11,6L10,6L10,5L6,5C6,5.023 6,5.023 6,5.046C6.028,5.722 7.713,6.345 8.236,7.248C8.577,7.835 8.455,8.625 7.95,9.108C7.145,9.809 6,10.462 6,11L10,11L10,10L11,10L11,12L5,12C5,11.207 4.951,10.348 5.508,9.843C6.46,9.027 7.953,8.289 7.278,7.633C6.319,6.793 5.046,6.165 5.001,5.073L5,4L11,4L11,6Z" style="fill-rule:nonzero;"/>
    </g>
</svg>
