<svg width="100%" height="100%" viewBox="0 0 16 16" version="1.1" xmlns="http://www.w3.org/2000/svg" xmlns:xlink="http://www.w3.org/1999/xlink" xml:space="preserve" xmlns:serif="http://www.serif.com/" style="fill-rule:evenodd;clip-rule:evenodd;stroke-linejoin:round;stroke-miterlimit:1.41421;">
    <path fill="#000000" d="M8,2C11.311,2 14,4.689 14,8C14,11.311 11.311,14 8,14C4.689,14 2,11.311 2,8C2,4.689 4.689,2 8,2ZM8,3C10.76,3 13,5.24 13,8C13,10.76 10.76,13 8,13C5.24,13 3,10.76 3,8C3,5.24 5.24,3 8,3ZM8,7.293L10.646,4.646C10.882,4.882 11.118,5.118 11.354,5.354L8.707,8L11.354,10.646L10.646,11.354L8,8.707L5.354,11.354L4.646,10.646L7.293,8L4.646,5.354L5.354,4.646L8,7.293Z"/>
</svg>
