<svg width="100%" height="100%" viewBox="0 0 60 60" version="1.1" xmlns="http://www.w3.org/2000/svg" xmlns:xlink="http://www.w3.org/1999/xlink" xml:space="preserve" xmlns:serif="http://www.serif.com/" style="fill-rule:evenodd;clip-rule:evenodd;stroke-linejoin:round;stroke-miterlimit:1.41421;">
    <g id="chart-line">
        <g transform="matrix(1.02795,0,0,1.02811,-1.23645,-1.43139)">
            <path fill="#FFFFFF" d="M59.571,4.067C59.571,2.591 58.372,1.392 56.896,1.392L3.878,1.392C2.402,1.392 1.203,2.591 1.203,4.067L1.203,57.086C1.203,58.562 2.402,59.761 3.878,59.761L56.896,59.761C58.372,59.761 59.571,58.562 59.571,57.086L59.571,4.067Z"/>
        </g>
        <g>
            <g transform="matrix(1,0,0,1.10052,-0.323751,-2.08548)">
                <rect fill="#000000" x="2.324" y="3.712" width="1.015" height="49.976" style="fill-opacity:0.6;"/>
            </g>
            <g transform="matrix(-0.000372774,1,-1.10052,-0.000410246,60.0863,52.6778)">
                <rect fill="#000000" x="2.324" y="3.712" width="1.015" height="49.976" style="fill-opacity:0.6;"/>
            </g>
        </g>
        <g>
            <g transform="matrix(1,0,0,1,0,13)">
                <path d="M48.694,6.727L57.464,8.252C57.927,8.485 57.792,9.255 57.199,9.212L48.784,7.757L27.875,29.382C27.722,29.47 27.67,29.464 27.611,29.473L10.546,30.303L3.11,37.568C2.654,37.806 2.084,37.273 2.487,36.792L9.983,29.456C10.076,29.379 10.185,29.331 10.308,29.314L27.365,28.483L48.323,6.809C48.385,6.774 48.453,6.709 48.694,6.727Z" style="fill:rgb(82,151,229);fill-rule:nonzero;"/>
            </g>
            <path d="M8.397,25.506C8.453,25.511 8.452,25.511 8.507,25.522L27.892,30.531L43.248,35.538L56.676,26.519C57.159,26.26 57.738,26.933 57.234,27.349L43.603,36.504C43.468,36.578 43.322,36.6 43.169,36.565L27.612,31.491L8.311,26.504L2.803,26.34C2.254,26.269 2.154,25.387 2.833,25.34C4.687,25.396 6.542,25.451 8.397,25.506Z" style="fill:rgb(235,168,6);fill-rule:nonzero;"/>
            <g transform="matrix(1,0,0,1,0,-4)">
                <path d="M2.856,12.151C3.036,12.188 3.073,12.229 3.124,12.263L11.805,19.465L30.042,20.771C30.128,20.802 30.128,20.802 30.207,20.848L45.494,31.793C45.555,31.844 45.555,31.844 45.607,31.905L54.932,44.707C55.212,45.183 54.542,45.765 54.124,45.296L44.847,32.559L29.74,21.744L11.573,20.451C11.465,20.435 11.441,20.444 11.29,20.337L2.485,13.033C1.989,12.531 2.509,12.149 2.856,12.151Z" style="fill:rgb(195,32,69);fill-rule:nonzero;"/>
            </g>
        </g>
    </g>
</svg>
