<svg width="100%" height="100%" viewBox="0 0 60 60" version="1.1" xmlns="http://www.w3.org/2000/svg" xmlns:xlink="http://www.w3.org/1999/xlink" xml:space="preserve" xmlns:serif="http://www.serif.com/" style="fill-rule:evenodd;clip-rule:evenodd;stroke-linejoin:round;stroke-miterlimit:1.41421;">
    <g id="chart-pie">
        <g transform="matrix(1.02795,0,0,1.02811,-1.23645,-1.43139)">
            <path fill="#FFFFFF" d="M59.571,4.067C59.571,2.591 58.372,1.392 56.896,1.392L3.878,1.392C2.402,1.392 1.203,2.591 1.203,4.067L1.203,57.086C1.203,58.562 2.402,59.761 3.878,59.761L56.896,59.761C58.372,59.761 59.571,58.562 59.571,57.086L59.571,4.067Z"/>
        </g>
        <g transform="matrix(1.07406,0,0,1.07375,-3.24697,-4.71555)">
            <path d="M30.955,6.727C16.814,6.727 5.351,18.19 5.351,32.331C5.351,46.462 16.823,57.935 30.955,57.935C45.095,57.935 56.558,46.472 56.558,32.331L30.955,32.331L30.955,6.727Z" style="fill:rgb(235,168,6);"/>
        </g>
        <g transform="matrix(0.581244,0.90319,-0.902935,0.581081,41.2006,-16.7448)">
            <path d="M5.351,32.331C5.351,46.472 16.814,57.935 30.955,57.935C45.095,57.935 56.558,46.472 56.558,32.331L30.955,32.331L5.351,32.331Z" style="fill:rgb(195,32,69);"/>
        </g>
        <g transform="matrix(-0.93016,-0.537028,0.536877,-0.929898,41.403,76.7536)">
            <path d="M8.781,45.133C13.355,53.055 21.807,57.935 30.955,57.935C45.095,57.935 56.558,46.472 56.558,32.331L30.955,32.331L8.781,45.133Z" style="fill:rgb(82,151,229);"/>
        </g>
    </g>
</svg>
