<svg width="100%" height="100%" viewBox="0 0 16 16" version="1.1" xmlns="http://www.w3.org/2000/svg" xmlns:xlink="http://www.w3.org/1999/xlink" xml:space="preserve" xmlns:serif="http://www.serif.com/" style="fill-rule:evenodd;clip-rule:evenodd;stroke-linejoin:round;stroke-miterlimit:1.41421;">
    <path id="checkbox-indeterminate" fill="#000000" d="M12.485,15L3.515,15C2.127,15 1,13.873 1,12.485L1,3.515C1,2.127 2.127,1 3.515,1L12.485,1C13.873,1 15,2.127 15,3.515L15,12.485C15,13.873 13.873,15 12.485,15ZM12.512,1.975L3.501,1.975C2.673,1.975 2,2.648 2,3.477L2,12.488C2,13.316 2.673,13.989 3.501,13.989L12.512,13.989C13.341,13.989 14.014,13.316 14.014,12.488L14.014,3.477C14.014,2.648 13.341,1.975 12.512,1.975ZM12,8.5L4,8.5L4,7.5L12,7.5L12,8.5Z"/>
</svg>
