<svg width="100%" height="100%" viewBox="0 0 16 16" version="1.1" xmlns="http://www.w3.org/2000/svg" xmlns:xlink="http://www.w3.org/1999/xlink" xml:space="preserve" xmlns:serif="http://www.serif.com/" style="fill-rule:evenodd;clip-rule:evenodd;stroke-linejoin:round;stroke-miterlimit:1.41421;">
    <g id="copy">
        <path fill="#000000" d="M10.455,13.995L6.541,13.995C5.138,13.995 3.998,12.856 3.998,11.452L3.998,6.546C3.998,5.142 5.137,4.003 6.541,4.003L10.455,4.003C11.858,4.003 12.998,5.142 12.998,6.546L12.998,11.452C12.998,12.856 11.859,13.995 10.455,13.995ZM10.535,5.003L6.491,5.003C5.68,5.003 5.022,5.661 5.022,6.472L5.022,11.538C5.022,12.349 5.68,13.007 6.491,13.007L10.535,13.007C11.345,13.007 12.003,12.349 12.003,11.538L12.003,6.472C12.003,5.661 11.345,5.003 10.535,5.003ZM3.011,13.002L1.986,13.002C1.984,12.964 1.983,12.926 1.983,12.888L1.983,4.528C1.983,3.131 3.118,1.996 4.515,1.996L10.921,1.996C10.944,1.996 10.966,1.996 10.988,1.997L10.988,3.003L4.448,3.003C3.655,3.003 3.011,3.647 3.011,4.44L3.011,13.002Z"/>
    </g>
</svg>
