<svg width="100%" height="100%" viewBox="0 0 16 16" version="1.1" xmlns="http://www.w3.org/2000/svg" xmlns:xlink="http://www.w3.org/1999/xlink" xml:space="preserve" xmlns:serif="http://www.serif.com/" style="fill-rule:evenodd;clip-rule:evenodd;stroke-linejoin:round;stroke-miterlimit:1.41421;">
    <path id="cut" fill="#000000" d="M6.348,4.948C6.509,4.598 6.6,4.213 6.6,3.8C6.6,2.253 5.347,1 3.8,1C2.253,1 1,2.253 1,3.8C1,5.347 2.253,6.6 3.8,6.6C4.213,6.6 4.598,6.509 4.948,6.348L6.6,8L4.948,9.652C4.598,9.491 4.213,9.4 3.8,9.4C2.253,9.4 1,10.653 1,12.2C1,13.747 2.253,15 3.8,15C5.347,15 6.6,13.747 6.6,12.2C6.6,11.787 6.509,11.402 6.348,11.052L8,9.4L12.9,14.3L15,14.3L15,13.6L6.348,4.948ZM3.8,5.2C3.03,5.2 2.4,4.577 2.4,3.8C2.4,3.023 3.03,2.4 3.8,2.4C4.57,2.4 5.2,3.023 5.2,3.8C5.2,4.577 4.57,5.2 3.8,5.2ZM3.8,13.6C3.03,13.6 2.4,12.977 2.4,12.2C2.4,11.423 3.03,10.8 3.8,10.8C4.57,10.8 5.2,11.423 5.2,12.2C5.2,12.977 4.57,13.6 3.8,13.6ZM8,8.35C7.804,8.35 7.65,8.196 7.65,8C7.65,7.804 7.804,7.65 8,7.65C8.196,7.65 8.35,7.804 8.35,8C8.35,8.196 8.196,8.35 8,8.35ZM12.9,1.7L8.7,5.9L10.1,7.3L15,2.4L15,1.7L12.9,1.7Z" style="fill-rule:nonzero;"/>
</svg>
