<svg width="100%" height="100%" viewBox="0 0 24 24" version="1.1" xmlns="http://www.w3.org/2000/svg" xmlns:xlink="http://www.w3.org/1999/xlink" xml:space="preserve" xmlns:serif="http://www.serif.com/" style="fill-rule:evenodd;clip-rule:evenodd;stroke-linejoin:round;stroke-miterlimit:1.41421;">
    <g transform="matrix(1,0,0,1,-0.981302,0.993982)">
        <path fill="#000000" d="M5.632,16.498C6.459,16.498 7.132,17.17 7.132,17.998C7.132,18.825 6.459,19.498 5.632,19.498C4.804,19.498 4.132,18.825 4.132,17.998C4.132,17.17 4.804,16.498 5.632,16.498ZM21.831,18.998L9.236,18.998L9.236,16.998L21.831,16.998L21.831,18.998ZM5.632,9.506C6.459,9.506 7.132,10.178 7.132,11.006C7.132,11.834 6.459,12.506 5.632,12.506C4.804,12.506 4.132,11.834 4.132,11.006C4.132,10.178 4.804,9.506 5.632,9.506ZM5.632,10.006C6.184,10.006 6.632,10.454 6.632,11.006C6.632,11.558 6.184,12.006 5.632,12.006C5.08,12.006 4.632,11.558 4.632,11.006C4.632,10.454 5.08,10.006 5.632,10.006ZM17.831,12.006L9.236,12.006L9.236,10.006L17.831,10.006L17.831,12.006ZM5.632,2.514C6.459,2.514 7.132,3.187 7.132,4.014C7.132,4.842 6.459,5.514 5.632,5.514C4.804,5.514 4.132,4.842 4.132,4.014C4.132,3.187 4.804,2.514 5.632,2.514ZM21.831,5.014L9.236,5.014L9.236,3.014L21.831,3.014L21.831,5.014Z"/>
    </g>
</svg>
