<svg width="100%" height="100%" viewBox="0 0 16 16" version="1.1" xmlns="http://www.w3.org/2000/svg" xmlns:xlink="http://www.w3.org/1999/xlink" xml:space="preserve" xmlns:serif="http://www.serif.com/" style="fill-rule:evenodd;clip-rule:evenodd;stroke-linejoin:round;stroke-miterlimit:1.41421;">
    <path id="eye-slash" fill="#000000" d="M4.652,3.945C5.635,3.447 6.73,3.159 7.854,3.126C8.001,3.125 8,3.125 8.146,3.126C11.124,3.213 13.81,5.17 14.956,8C14.956,8 14.297,9.589 13.344,10.587C13.006,10.94 12.633,11.253 12.231,11.524L13.207,12.5L12.5,13.207L11.332,12.039C8.933,13.198 5.888,13.075 3.68,11.48C2.833,10.868 2.119,10.078 1.596,9.174C1.391,8.819 1.249,8.506 1.044,8C1.044,8 1.493,6.891 2.045,6.141C2.523,5.492 3.108,4.93 3.766,4.474L2.793,3.5L3.5,2.793L4.652,3.945ZM4.502,5.209C3.483,5.881 2.648,6.832 2.14,7.963L2.124,8C3.354,10.881 6.935,12.532 9.939,11.575C10.168,11.502 10.392,11.416 10.61,11.317L10.154,10.861C9.57,11.299 8.845,11.558 8.059,11.558C6.128,11.558 4.559,9.99 4.559,8.058C4.559,7.273 4.819,6.547 5.256,5.963L4.502,5.209ZM11.518,10.811C12.531,10.132 13.353,9.165 13.86,8.037L13.876,8C12.884,5.677 10.459,4.101 7.873,4.126C7.017,4.151 6.18,4.355 5.412,4.705L5.963,5.256C6.547,4.818 7.273,4.558 8.059,4.558C9.991,4.558 11.559,6.126 11.559,8.058C11.559,8.844 11.3,9.57 10.862,10.154L11.518,10.811ZM5.973,6.68C5.712,7.076 5.559,7.549 5.559,8.058C5.559,9.438 6.68,10.558 8.059,10.558C8.568,10.558 9.042,10.406 9.437,10.144L5.973,6.68ZM10.144,9.437C10.407,9.042 10.559,8.568 10.559,8.058C10.559,6.678 9.439,5.558 8.059,5.558C7.55,5.558 7.076,5.711 6.68,5.973L10.144,9.437Z" style="fill-rule:nonzero;"/>
</svg>
