<svg width="100%" height="100%" viewBox="0 0 16 16" version="1.1" xmlns="http://www.w3.org/2000/svg" xmlns:xlink="http://www.w3.org/1999/xlink" xml:space="preserve" xmlns:serif="http://www.serif.com/" style="fill-rule:evenodd;clip-rule:evenodd;stroke-linejoin:round;stroke-miterlimit:1.41421;">
    <g id="eye">
        <path fill="#000000" d="M8.146,3.104C11.124,3.191 13.81,5.147 14.956,7.977C14.956,7.977 14.297,9.567 13.344,10.565C10.913,13.109 6.577,13.55 3.68,11.457C2.833,10.846 2.119,10.055 1.596,9.151C1.391,8.796 1.249,8.483 1.044,7.977C1.044,7.977 1.493,6.869 2.045,6.119C3.384,4.299 5.56,3.171 7.854,3.104C8.001,3.102 8,3.102 8.146,3.104ZM7.873,4.104C5.425,4.175 3.144,5.705 2.14,7.94L2.124,7.977C3.354,10.858 6.935,12.51 9.939,11.553C11.668,11.002 13.11,9.684 13.86,8.015L13.876,7.977C12.884,5.654 10.459,4.079 7.873,4.104ZM8,4.577C9.877,4.577 11.4,6.101 11.4,7.977C11.4,9.854 9.877,11.377 8,11.377C6.123,11.377 4.6,9.854 4.6,7.977C4.6,6.101 6.123,4.577 8,4.577ZM10.5,7.961C10.5,7.955 10.5,7.95 10.5,7.944C10.5,6.564 9.38,5.444 8,5.444C6.62,5.444 5.5,6.564 5.5,7.944C5.5,7.95 5.5,7.955 5.5,7.961C5.5,7.966 5.5,7.972 5.5,7.977C5.5,9.357 6.62,10.477 8,10.477C9.38,10.477 10.5,9.357 10.5,7.977C10.5,7.972 10.5,7.966 10.5,7.961Z" style="fill-rule:nonzero;"/>
    </g>
</svg>
