<svg width="100%" height="100%" viewBox="0 0 16 16" version="1.1" xmlns="http://www.w3.org/2000/svg" xmlns:xlink="http://www.w3.org/1999/xlink" xml:space="preserve" xmlns:serif="http://www.serif.com/" style="fill-rule:evenodd;clip-rule:evenodd;stroke-linejoin:round;stroke-miterlimit:1.41421;">
    <path fill="#000000" d="M13,4.092C12.967,5.421 10.971,6.669 9.629,8.079C9.545,8.177 9.503,8.291 9.5,8.42L9.5,10.25L6.5,12.5C6.5,11.13 6.533,9.759 6.499,8.389C6.49,8.272 6.448,8.168 6.371,8.079C5.013,6.652 3.03,5.305 3,4.092L3,3L13,3C13,3.364 13,3.728 13,4.092ZM4,4C4,4.152 4.03,4.306 4.129,4.421C5.487,5.848 7.47,7.195 7.5,8.408L7.5,10.5L8.5,9.75L8.5,8.408C8.533,7.079 10.529,5.831 11.871,4.421C11.97,4.306 12,4.152 12,4C9.333,4 6.667,4 4,4Z" style="fill-rule:nonzero;"/>
</svg>
