<svg width="100%" height="100%" viewBox="0 0 16 16" version="1.1" xmlns="http://www.w3.org/2000/svg" xmlns:xlink="http://www.w3.org/1999/xlink" xml:space="preserve" xmlns:serif="http://www.serif.com/" style="fill-rule:evenodd;clip-rule:evenodd;stroke-linejoin:round;stroke-miterlimit:1.41421;">
    <g id="grip">
        <path fill="#000000" d="M4,10L3,10L3,8L4,8L4,10ZM7,10L6,10L6,8L7,8L7,10ZM10,10L9,10L9,8L10,8L10,10ZM13,10L12,10L12,8L13,8L13,10ZM4,7L3,7L3,5L4,5L4,7ZM7,7L6,7L6,5L7,5L7,7ZM10,7L9,7L9,5L10,5L10,7ZM13,7L12,7L12,5L13,5L13,7ZM4,4L3,4L3,2L4,2L4,4ZM7,4L6,4L6,2L7,2L7,4ZM10,4L9,4L9,2L10,2L10,4ZM13,4L12,4L12,2L13,2L13,4Z" style="fill-rule:nonzero;"/>
    </g>
</svg>
