<svg width="100%" height="100%" viewBox="0 0 16 16" version="1.1" xmlns="http://www.w3.org/2000/svg" xmlns:xlink="http://www.w3.org/1999/xlink" xml:space="preserve" xmlns:serif="http://www.serif.com/" style="fill-rule:evenodd;clip-rule:evenodd;stroke-linejoin:round;stroke-miterlimit:1.41421;">
    <g id="indeterminate">
        <path fill="#000000" d="M8.141,4.126C10.816,4.161 13.745,5.026 14.957,8C14.957,8 14.223,9.745 12.999,10.603C11.279,11.808 9.032,11.979 7.026,11.843C4.592,11.679 2.105,10.607 1.043,8C1.043,8 1.792,6.203 3.104,5.327C4.495,4.399 6.225,4.147 7.859,4.126C8.001,4.125 8,4.125 8.141,4.126ZM7.868,5.126C7.61,5.129 7.351,5.137 7.093,5.154C5.158,5.285 3.027,6.051 2.138,7.97C2.138,7.97 2.463,8.799 3.105,9.402C4.846,11.038 7.586,11.053 9.648,10.771C11.359,10.537 13.103,9.669 13.862,8.03C13.862,8.03 13.537,7.201 12.895,6.598C11.632,5.412 9.789,5.148 8.132,5.126C8,5.125 8.001,5.125 7.868,5.126ZM8.156,5.584C9.605,5.613 11.417,6.251 11.417,8C11.417,8.665 11.183,9.348 10.649,9.774C9.668,10.558 8.241,10.481 7.156,10.382C5.898,10.267 4.619,9.434 4.584,8.087C4.566,7.376 4.813,6.625 5.407,6.182C6.153,5.627 6.946,5.577 8.156,5.584ZM7.856,6.584C7.129,6.599 6.302,6.606 5.847,7.129C5.27,7.793 5.592,9.001 6.562,9.27C7.841,9.624 9.549,9.622 10.175,8.844C10.735,8.149 10.352,6.945 9.336,6.704C8.864,6.592 8.685,6.579 7.856,6.584Z" style="fill-rule:nonzero;"/>
    </g>
</svg>
