<!-- Generated by IcoMoon.io -->
<svg version="1.1" xmlns="http://www.w3.org/2000/svg" width="32" height="32" viewBox="0 0 32 32">
<title>indeterminate</title>
<path d="M16.282 8.244c5.35 0.070 11.208 1.8 13.632 7.748 0 0-1.468 3.49-3.916 5.206-3.44 2.41-7.934 2.752-11.946 2.48-4.868-0.328-9.842-2.472-11.966-7.686 0 0 1.498-3.594 4.122-5.346 2.782-1.856 6.242-2.36 9.51-2.402 0.284-0.002 0.282-0.002 0.564 0zM15.736 10.244c-0.516 0.006-1.034 0.022-1.55 0.056-3.87 0.262-8.132 1.794-9.91 5.632 0 0 0.65 1.658 1.934 2.864 3.482 3.272 8.962 3.302 13.086 2.738 3.422-0.468 6.91-2.204 8.428-5.482 0 0-0.65-1.658-1.934-2.864-2.526-2.372-6.212-2.9-9.526-2.944-0.264-0.002-0.262-0.002-0.528 0zM16.312 11.16c2.898 0.058 6.522 1.334 6.522 4.832 0 1.33-0.468 2.696-1.536 3.548-1.962 1.568-4.816 1.414-6.986 1.216-2.516-0.23-5.074-1.896-5.144-4.59-0.036-1.422 0.458-2.924 1.646-3.81 1.492-1.11 3.078-1.21 5.498-1.196zM15.712 13.16c-1.454 0.030-3.108 0.044-4.018 1.090-1.154 1.328-0.51 3.744 1.43 4.282 2.558 0.708 5.974 0.704 7.226-0.852 1.12-1.39 0.354-3.798-1.678-4.28-0.944-0.224-1.302-0.25-2.96-0.24z"></path>
</svg>
