<svg width="100%" height="100%" viewBox="0 0 16 16" version="1.1" xmlns="http://www.w3.org/2000/svg" xmlns:xlink="http://www.w3.org/1999/xlink" xml:space="preserve" xmlns:serif="http://www.serif.com/" style="fill-rule:evenodd;clip-rule:evenodd;stroke-linejoin:round;stroke-miterlimit:1.41421;">
    <path fill="#000000" d="M7.831,1.501C11.925,1.578 15.28,6.399 13.416,10.391C11.767,13.924 6.45,15.078 3.492,12.326C1.542,10.51 0.954,7.378 2.15,4.972C3.191,2.877 5.444,1.485 7.831,1.501ZM7.682,2.5C4.221,2.566 1.393,6.654 3.017,10.026C4.688,13.493 10.64,13.849 12.483,10.026C14.021,6.833 11.489,2.476 7.682,2.5ZM11.48,5.711C12.912,8.376 10.608,12.304 7.327,11.979C6.759,11.923 6.213,11.749 5.711,11.48L5.078,11.127L11.127,5.078C11.244,5.289 11.362,5.5 11.48,5.711ZM6.769,10.849C8.417,11.363 10.392,10.346 10.877,8.64C11.05,8.029 11.038,7.375 10.849,6.769C9.489,8.129 8.129,9.489 6.769,10.849ZM7.821,3.501C8.509,3.518 9.185,3.695 9.789,4.02L10.422,4.373L4.373,10.422C2.864,7.717 3.878,3.737 7.532,3.505C7.628,3.502 7.725,3.5 7.821,3.501ZM7.666,4.501C5.636,4.578 4.051,6.808 4.651,8.731L8.731,4.651C8.386,4.543 8.029,4.497 7.666,4.501Z" style="fill-rule:nonzero;"/>
</svg>
