<svg width="100%" height="100%" viewBox="0 0 16 16" version="1.1" xmlns="http://www.w3.org/2000/svg" xmlns:xlink="http://www.w3.org/1999/xlink" xml:space="preserve" xmlns:serif="http://www.serif.com/" style="fill-rule:evenodd;clip-rule:evenodd;stroke-linejoin:round;stroke-miterlimit:1.41421;">
    <g id="paste" transform="matrix(1,0,0,1,0,0.25)">
        <path fill="#000000" d="M10,3C10,2.5 9.5,1.5 8,1.5C6.5,1.5 6,2.5 6,3C5.333,3 4.667,3 4,3C2.895,3 2,3.895 2,5L2,12C2,13.105 2.895,14 4,14L12,14C13.105,14 14,13.105 14,12L14,5C14,3.895 13.105,3 12,3C11.333,3 10.667,3 10,3ZM8,3.273C8.367,3.273 8.667,3.559 8.667,3.909C8.667,4.259 8.367,4.545 8,4.545C7.633,4.545 7.333,4.259 7.333,3.909C7.333,3.559 7.633,3.273 8,3.273ZM12,13L4,13C3.448,13 3,12.552 3,12L3,5C3,4.448 3.448,4 4,4L5,4L5,6L11,6L11,4L12,4C12.552,4 13,4.448 13,5L13,12C13,12.552 12.552,13 12,13Z" style="fill-rule:nonzero;"/>
    </g>
</svg>
