<?xml version="1.0" encoding="UTF-8"?>
<svg width="16px" height="16px" viewBox="0 0 16 16" version="1.1" xmlns="http://www.w3.org/2000/svg" xmlns:xlink="http://www.w3.org/1999/xlink">
    <!-- Generator: Sketch 48.2 (47327) - http://www.bohemiancoding.com/sketch -->
    <title>paste</title>
    <desc>Created with Sketch.</desc>
    <defs></defs>
    <g id="Icons" stroke="none" stroke-width="1" fill="none" fill-rule="evenodd">
        <g id="paste" fill="#000000" fill-rule="nonzero">
            <path d="M10,3 C10,2.5 9.5,1.5 8,1.5 C6.5,1.5 6,2.5 6,3 C5.33333333,3 4.66666667,3 4,3 L4,3 C2.8954305,3 2,3.8954305 2,5 L2,12 C2,13.1045695 2.8954305,14 4,14 L12,14 C13.1045695,14 14,13.1045695 14,12 L14,5 C14,3.8954305 13.1045695,3 12,3 C11.3333333,3 10.6666667,3 10,3 Z M8,3.27272727 C8.36666667,3.27272727 8.66666667,3.55909091 8.66666667,3.90909091 C8.66666667,4.25909091 8.36666667,4.54545455 8,4.54545455 C7.63333333,4.54545455 7.33333333,4.25909091 7.33333333,3.90909091 C7.33333333,3.55909091 7.63333333,3.27272727 8,3.27272727 Z M12,13 L4,13 C3.44771525,13 3,12.5522847 3,12 L3,5 C3,4.44771525 3.44771525,4 4,4 L5,4 L5,6 L11,6 L11,4 L12,4 C12.5522847,4 13,4.44771525 13,5 L13,12 C13,12.5522847 12.5522847,13 12,13 Z" id="Shape"></path>
        </g>
    </g>
</svg>