<svg width="100%" height="100%" viewBox="0 0 16 16" version="1.1" xmlns="http://www.w3.org/2000/svg" xmlns:xlink="http://www.w3.org/1999/xlink" xml:space="preserve" xmlns:serif="http://www.serif.com/" style="fill-rule:evenodd;clip-rule:evenodd;stroke-linejoin:round;stroke-miterlimit:1.41421;">
    <g id="pin">
        <path fill="#000000" d="M5.793,9.5L3.459,7.167C3.459,7.167 3.475,6.667 3.794,6.232C4.477,5.302 5.82,5.252 6.822,5.446L8.401,3.892C8.051,2.721 10.077,1.369 10.077,1.369C11.604,2.897 13.132,4.425 14.66,5.953C14.549,6.102 14.437,6.251 14.325,6.4C13.788,7.113 13.056,7.715 12.189,7.569L10.529,9.178C10.552,9.35 10.55,9.193 10.588,9.754C10.66,10.819 10.268,11.916 9.272,12.424L8.899,12.606L6.5,10.207L2.854,13.854L2.146,13.146L5.793,9.5ZM9.913,2.664C9.569,2.948 9.205,3.389 9.401,3.7L9.646,4.061L7.153,6.555C6.159,6.302 4.98,6.237 4.575,6.862L9.085,11.378C9.132,11.345 9.177,11.31 9.221,11.273C9.834,10.733 9.603,9.753 9.47,8.823L11.865,6.428C11.865,6.428 12.6,6.897 13.333,6.04L9.938,2.645C9.929,2.651 9.921,2.658 9.913,2.664Z" style="fill-rule:nonzero;"/>
    </g>
</svg>
