<svg width="100%" height="100%" viewBox="0 0 16 16" version="1.1" xmlns="http://www.w3.org/2000/svg" xmlns:xlink="http://www.w3.org/1999/xlink" xml:space="preserve" xmlns:serif="http://www.serif.com/" style="fill-rule:evenodd;clip-rule:evenodd;stroke-linejoin:round;stroke-miterlimit:1.41421;">
    <path id="pivot" fill="#000000" d="M12.564,1.001C13.844,1.049 14.95,2.147 14.999,3.436C15.038,6.478 15.038,9.522 14.999,12.564C14.951,13.844 13.853,14.95 12.564,14.999C9.522,15.038 6.478,15.038 3.436,14.999C2.157,14.951 1.05,13.854 1.001,12.564C0.962,9.522 0.962,6.478 1.001,3.436C1.049,2.156 2.147,1.05 3.436,1.001C6.478,0.962 9.522,0.962 12.564,1.001ZM14.047,4.978L4.946,4.978L4.946,14.046C7.489,14.111 10.036,14.095 12.578,13.998C13.318,13.951 13.951,13.323 13.998,12.578C14.094,10.046 14.111,7.511 14.047,4.978ZM1.984,12.05C1.989,12.226 1.995,12.402 2.002,12.578C2.049,13.32 2.679,13.951 3.422,13.998C3.591,14.004 3.759,14.01 3.928,14.016L3.928,12.05L1.984,12.05ZM11,7.707L10.854,7.854L10.146,7.146L11.5,5.793C11.951,6.244 12.402,6.695 12.854,7.146L12.146,7.854L12,7.707L12,9.503C11.984,10.805 10.877,11.949 9.564,11.999L7.707,12L7.854,12.146L7.146,12.854L5.793,11.5L7.146,10.146C7.382,10.382 7.618,10.618 7.854,10.854L7.693,11.014C9.379,11.029 10.982,10.932 11,9.497L11,7.707ZM1.94,9.019C1.941,9.692 1.946,10.366 1.959,11.039L3.928,11.039L3.928,9.019L1.94,9.019ZM1.965,5.988C1.956,6.662 1.948,7.335 1.943,8.009L3.928,8.009L3.928,5.988L1.965,5.988ZM4.946,1.993C4.465,1.997 3.984,2 3.503,2C2.718,2.01 2.03,2.674 2.001,3.461C1.995,3.967 1.987,4.472 1.98,4.978L3.928,4.978L3.928,3.968L4.946,3.968L4.946,1.993ZM12.068,1.985L12.068,3.968L14.017,3.968C14.011,3.786 14.005,3.604 13.998,3.422C13.951,2.682 13.323,2.049 12.578,2.002C12.408,1.996 12.238,1.99 12.068,1.985ZM7.998,1.958C7.32,1.965 6.641,1.974 5.963,1.982L5.963,3.968L7.998,3.968L7.998,1.958ZM11.051,1.962C10.372,1.951 9.694,1.949 9.016,1.951L9.016,3.968L11.051,3.968L11.051,1.962Z"/>
</svg>
