<svg width="100%" height="100%" viewBox="0 0 16 16" version="1.1" xmlns="http://www.w3.org/2000/svg" xmlns:xlink="http://www.w3.org/1999/xlink" xml:space="preserve" xmlns:serif="http://www.serif.com/" style="fill-rule:evenodd;clip-rule:evenodd;stroke-linejoin:round;stroke-miterlimit:1.41421;">
    <g id="plus" transform="matrix(1,0,0,1,0.5,0.5)">
        <path fill="#000000" d="M9,6L13,6L13,9L9,9L9,13L6,13L6,9L2,9L2,6L6,6L6,2L9,2C9,3.333 9,4.667 9,6ZM7,3L7,7L3,7L3,8L7,8L7,12L8,12L8,8L12,8L12,7L8,7L8,3C7.667,3 7.333,3 7,3Z" style="fill-rule:nonzero;"/>
    </g>
</svg>
