<svg width="100%" height="100%" viewBox="0 0 16 16" version="1.1" xmlns="http://www.w3.org/2000/svg" xmlns:xlink="http://www.w3.org/1999/xlink" xml:space="preserve" xmlns:serif="http://www.serif.com/" style="fill-rule:evenodd;clip-rule:evenodd;stroke-linejoin:round;stroke-miterlimit:1.41421;">
    <path fill="#000000" d="M8,0C12.415,0 16,3.585 16,8C16,12.415 12.415,16 8,16C3.585,16 0,12.415 0,8C0,3.585 3.585,0 8,0ZM8,1C11.863,1 15,4.137 15,8C15,11.863 11.863,15 8,15C4.137,15 1,11.863 1,8C1,4.137 4.137,1 8,1ZM13,8C13,10.76 10.76,13 8,13C5.24,13 3,10.76 3,8C3,5.24 5.24,3 8,3C10.76,3 13,5.24 13,8Z"/>
</svg>
