<svg width="32" height="32" viewBox="0 0 32 32" fill="none" xmlns="http://www.w3.org/2000/svg">
<g clip-path="url(#clip0_328_15978)">
<path d="M27.9922 11.3542V8.6875C27.9922 7.62663 27.5708 6.60922 26.8206 5.85907C26.0705 5.10893 25.0531 4.6875 23.9922 4.6875H7.99219C6.93132 4.6875 5.91391 5.10893 5.16376 5.85907C4.41362 6.60922 3.99219 7.62663 3.99219 8.6875V11.3542H27.9922Z" fill="url(#paint0_linear_328_15978)"/>
<path d="M3.99219 14.02V24.6867C3.99219 25.7476 4.41361 26.765 5.16376 27.5151C5.91391 28.2653 6.93132 28.6867 7.99219 28.6867H14.6589V14.02H3.99219Z" fill="url(#paint1_linear_328_15978)"/>
<path d="M17.3281 14.02V28.6867H23.9948C25.0557 28.6867 26.0731 28.2653 26.8232 27.5151C27.5734 26.765 27.9948 25.7476 27.9948 24.6867V14.02H17.3281Z" fill="url(#paint2_linear_328_15978)"/>
</g>
<defs>
<linearGradient id="paint0_linear_328_15978" x1="1.99219" y1="3.35417" x2="15.9922" y2="11.3542" gradientUnits="userSpaceOnUse">
<stop stop-color="white" stop-opacity="0.69"/>
<stop offset="1" stop-color="white" stop-opacity="0.24"/>
</linearGradient>
<linearGradient id="paint1_linear_328_15978" x1="9.32552" y1="14.02" x2="9.32552" y2="28.6867" gradientUnits="userSpaceOnUse">
<stop stop-color="white" stop-opacity="0.69"/>
<stop offset="1" stop-color="white" stop-opacity="0.24"/>
</linearGradient>
<linearGradient id="paint2_linear_328_15978" x1="22.6615" y1="14.02" x2="22.6615" y2="28.6867" gradientUnits="userSpaceOnUse">
<stop stop-color="white" stop-opacity="0.69"/>
<stop offset="1" stop-color="white"/>
</linearGradient>
<clipPath id="clip0_328_15978">
<rect width="32" height="32" fill="white" transform="translate(0 0.6875)"/>
</clipPath>
</defs>
</svg>
