<svg xmlns="http://www.w3.org/2000/svg" width="16" height="16" fill="none"><g clip-path="url(#a)"><path fill="#000" fill-rule="evenodd" d="M8.53.803a.75.75 0 0 0-1.06 0l-2 2a.75.75 0 0 0 1.06 1.06l.72-.719V7.25H3.144l.72-.72a.75.75 0 0 0-1.061-1.06l-2 2a.75.75 0 0 0 0 1.06l2 2a.75.75 0 1 0 1.06-1.06l-.719-.72H7.25v4.106l-.72-.72a.75.75 0 1 0-1.06 1.061l2 2a.75.75 0 0 0 1.06 0l2-2a.75.75 0 0 0-1.06-1.06l-.72.719V8.75h4.106l-.72.72a.75.75 0 1 0 1.061 1.06l2-2a.75.75 0 0 0 0-1.06l-2-2a.75.75 0 0 0-1.06 1.06l.719.72H8.75V3.144l.72.72a.75.75 0 1 0 1.06-1.061l-2-2Z" clip-rule="evenodd"/></g><defs><clipPath id="a"><path fill="#fff" d="M0 0h16v16H0z"/></clipPath></defs></svg>