<svg xmlns="http://www.w3.org/2000/svg" xml:space="preserve" style="fill-rule:evenodd;clip-rule:evenodd;stroke-linejoin:round;stroke-miterlimit:2" viewBox="0 0 32 32"><path d="M384 131.9c-7.753-8.433-110.425-128.473-114.9-133L48-.1C21.5 0 0 21.5 0 48v416c0 26.5 21.5 48 48 48h288c26.5 0 48-21.5 48-48V131.9Zm-35.9 2.1H257V27.9L348.1 134ZM30 479V27h200l1 105c0 13.3-1.3 29 12 29h111l1 318H30Z" style="fill-rule:nonzero" transform="matrix(.06285 0 0 .06285 3.934 -.054)"/><path d="M.688-.226a.197.197 0 0 1-.017.074.277.277 0 0 1-.145.14.412.412 0 0 1-.234.013.283.283 0 0 1-.202-.168.468.468 0 0 1-.04-.19c0-.058.008-.109.025-.155a.319.319 0 0 1 .182-.191.355.355 0 0 1 .134-.025c.058 0 .11.012.155.035a.28.28 0 0 1 .104.085.17.17 0 0 1 .036.097.064.064 0 0 1-.018.044.055.055 0 0 1-.042.019.064.064 0 0 1-.042-.013.21.21 0 0 1-.031-.046.22.22 0 0 0-.066-.079.161.161 0 0 0-.095-.027.172.172 0 0 0-.142.068.304.304 0 0 0-.053.193.37.37 0 0 0 .023.139.18.18 0 0 0 .067.083.182.182 0 0 0 .1.027c.042 0 .077-.01.106-.031a.19.19 0 0 0 .065-.091.152.152 0 0 1 .023-.046C.59-.283.605-.289.625-.289a.06.06 0 0 1 .044.018.058.058 0 0 1 .019.045Z" style="fill-rule:nonzero" transform="matrix(8.39799 0 0 12.455 7.122 25.977)"/><path d="M.622-.215a.215.215 0 0 1-.033.117.233.233 0 0 1-.098.081.376.376 0 0 1-.153.029.34.34 0 0 1-.175-.04.233.233 0 0 1-.079-.077.169.169 0 0 1-.031-.093c0-.018.006-.033.019-.045a.059.059 0 0 1 .046-.019.06.06 0 0 1 .039.014.11.11 0 0 1 .027.044.251.251 0 0 0 .03.057c.01.015.025.028.044.038.02.01.045.015.076.015.043 0 .078-.01.105-.03a.09.09 0 0 0 .04-.075.078.078 0 0 0-.022-.058.136.136 0 0 0-.056-.034 1.007 1.007 0 0 0-.092-.025.698.698 0 0 1-.129-.042.21.21 0 0 1-.083-.066.173.173 0 0 1-.03-.104c0-.039.011-.074.032-.105a.209.209 0 0 1 .093-.07.374.374 0 0 1 .144-.025c.044 0 .082.005.114.016a.245.245 0 0 1 .08.044.183.183 0 0 1 .046.057c.01.02.015.039.015.058a.067.067 0 0 1-.018.046.06.06 0 0 1-.046.021C.51-.486.498-.49.489-.498a.169.169 0 0 1-.028-.041.186.186 0 0 0-.047-.063C.396-.617.367-.625.326-.625a.148.148 0 0 0-.09.025c-.023.016-.035.036-.035.059 0 .014.004.027.012.037a.096.096 0 0 0 .032.027.379.379 0 0 0 .111.036c.04.01.077.02.11.031.032.012.06.026.083.042a.17.17 0 0 1 .054.062.194.194 0 0 1 .019.091Z" style="fill-rule:nonzero" transform="matrix(8.39799 0 0 12.455 13.339 25.977)"/><path d="m.184-.633.162.48.163-.483c.008-.026.015-.043.019-.053a.062.062 0 0 1 .061-.039.067.067 0 0 1 .059.034c.006.01.009.02.009.031a.097.097 0 0 1-.003.023l-.007.025-.009.024-.173.468-.019.051a.206.206 0 0 1-.021.042.08.08 0 0 1-.033.03.094.094 0 0 1-.049.012.109.109 0 0 1-.05-.011A.108.108 0 0 1 .26-.03a.206.206 0 0 1-.021-.042L.22-.123.05-.587.041-.612a.198.198 0 0 1-.008-.026.13.13 0 0 1-.003-.024c0-.017.006-.032.02-.046a.069.069 0 0 1 .05-.02c.025 0 .042.008.053.023.01.015.02.039.031.072Z" style="fill-rule:nonzero" transform="matrix(8.39799 0 0 12.455 18.94 25.977)"/></svg>