<svg xmlns="http://www.w3.org/2000/svg" width="16" height="16" fill="none"><path fill="#000" fill-rule="evenodd" d="M10.947 2.89a.75.75 0 0 1 0 1.06l-.053.053h1.523A2.083 2.083 0 0 1 14.5 6.087v6.666a.75.75 0 0 1-1.5 0V6.087a.583.583 0 0 0-.583-.584h-1.523l.053.053a.75.75 0 1 1-1.06 1.061L8.552 5.284a.75.75 0 0 1 0-1.061L9.886 2.89a.75.75 0 0 1 1.061 0ZM1.75 4.003a.75.75 0 0 0 0 1.5h4.667a.75.75 0 1 0 0-1.5H1.75ZM1 8.753a.75.75 0 0 1 .75-.75h8.667a.75.75 0 0 1 0 1.5H1.75a.75.75 0 0 1-.75-.75Zm0 4a.75.75 0 0 1 .75-.75h8.667a.75.75 0 0 1 0 1.5H1.75a.75.75 0 0 1-.75-.75Z" clip-rule="evenodd"/></svg>