<svg xmlns="http://www.w3.org/2000/svg" width="16" height="16" fill="none"><g clip-path="url(#a)"><path fill="#000" fill-rule="evenodd" d="M8.997 1.58a.75.75 0 1 0-1.5 0v2.667a.75.75 0 0 0 1.5 0V1.58Zm0 10.667a.75.75 0 0 0-1.5 0v2.666a.75.75 0 1 0 1.5 0v-2.666ZM3.003 3.003a.75.75 0 0 1 1.06 0L5.95 4.89a.75.75 0 0 1-1.06 1.06L3.003 4.064a.75.75 0 0 1 0-1.061Zm8.6 7.54a.75.75 0 0 0-1.06 1.06l1.887 1.887a.75.75 0 1 0 1.06-1.06l-1.886-1.887ZM.83 8.247a.75.75 0 0 1 .75-.75h2.667a.75.75 0 0 1 0 1.5H1.58a.75.75 0 0 1-.75-.75Zm11.417-.75a.75.75 0 0 0 0 1.5h2.666a.75.75 0 1 0 0-1.5h-2.666ZM5.95 10.543a.75.75 0 0 1 0 1.06L4.064 13.49a.75.75 0 0 1-1.061-1.06l1.887-1.887a.75.75 0 0 1 1.06 0Zm7.54-6.48a.75.75 0 0 0-1.06-1.06L10.543 4.89a.75.75 0 1 0 1.06 1.06l1.887-1.886Z" clip-rule="evenodd"/></g><defs><clipPath id="a"><path fill="#fff" d="M0 0h16v16H0z"/></clipPath></defs></svg>