<svg xmlns="http://www.w3.org/2000/svg" width="16" height="16" fill="none"><path fill="#000" fill-rule="evenodd" d="M5.625.5a1.375 1.375 0 0 0-1.37 1.25h-.422A2.083 2.083 0 0 0 1.75 3.833v9.334a2.083 2.083 0 0 0 2.083 2.083h8a2.083 2.083 0 0 0 2.084-2.083.75.75 0 0 0-1.5 0 .583.583 0 0 1-.584.583h-8a.583.583 0 0 1-.583-.583V3.833a.583.583 0 0 1 .583-.583h.422c.026.315.149.62.387.858.268.27.625.392.983.392h3.75c.358 0 .714-.123.983-.392.238-.237.361-.543.387-.858h1.088a.583.583 0 0 1 .584.583v1.334a.75.75 0 0 0 1.5 0V3.833a2.083 2.083 0 0 0-2.084-2.083h-1.088a1.355 1.355 0 0 0-.386-.858A1.374 1.374 0 0 0 9.375.5h-3.75ZM9.25 3h-3.5V2h3.5v1ZM6.417 9.5a.75.75 0 0 1 .75-.75h4.687L10.47 7.365a.75.75 0 0 1 1.06-1.06l2.667 2.666a.75.75 0 0 1 0 1.061l-2.667 2.667a.75.75 0 1 1-1.06-1.061l1.388-1.388H7.167a.75.75 0 0 1-.75-.75Z" clip-rule="evenodd"/></svg>