<svg xmlns="http://www.w3.org/2000/svg" width="16" height="16" fill="black"><path d="M7.467.017a8.028 8.028 0 0 0-5.859 3.176C.799 4.26.296 5.477.073 6.906c-.082.523-.082 1.665 0 2.188.342 2.194 1.403 3.995 3.122 5.299 1.062.806 2.286 1.312 3.711 1.534.523.082 1.665.082 2.188 0 1.944-.303 3.596-1.179 4.836-2.565 1.1-1.229 1.735-2.587 1.997-4.268.082-.523.082-1.665 0-2.188-.222-1.425-.728-2.649-1.534-3.711A7.994 7.994 0 0 0 9 .066 12.585 12.585 0 0 0 7.467.017M9.04 1.078c2.791.433 5.064 2.493 5.741 5.203.161.643.192.923.192 1.719 0 .555-.011.775-.049 1.027a7.016 7.016 0 0 1-5.487 5.823c-.889.19-1.985.19-2.874 0-2.611-.556-4.687-2.542-5.336-5.103-.168-.664-.2-.94-.2-1.747 0-.807.032-1.083.2-1.747a7.006 7.006 0 0 1 5.026-5.026c.22-.056.544-.121.72-.144l.4-.054c.201-.027 1.401.008 1.667.049"/></svg>