<svg width="16" height="16" viewBox="0 0 16 16" fill="none" xmlns="http://www.w3.org/2000/svg">
<path fill-rule="evenodd" clip-rule="evenodd" d="M4.25 2.75C3.42157 2.75 2.75 3.42157 2.75 4.25C2.75 5.07843 3.42157 5.75 4.25 5.75C5.07843 5.75 5.75 5.07843 5.75 4.25C5.75 3.42157 5.07843 2.75 4.25 2.75ZM1.25 4.25C1.25 2.59315 2.59315 1.25 4.25 1.25C5.64994 1.25 6.82591 2.2089 7.15695 3.50572C7.18744 3.50194 7.21849 3.5 7.25 3.5H14C14.4142 3.5 14.75 3.83579 14.75 4.25C14.75 4.66421 14.4142 5 14 5H7.25C7.21849 5 7.18744 4.99806 7.15695 4.99428C6.82591 6.2911 5.64994 7.25 4.25 7.25C2.59315 7.25 1.25 5.90685 1.25 4.25ZM11.75 10.25C10.9216 10.25 10.25 10.9216 10.25 11.75C10.25 12.5784 10.9216 13.25 11.75 13.25C12.5784 13.25 13.25 12.5784 13.25 11.75C13.25 10.9216 12.5784 10.25 11.75 10.25ZM8.84451 11C9.17755 9.70608 10.3521 8.75 11.75 8.75C13.4069 8.75 14.75 10.0931 14.75 11.75C14.75 13.4069 13.4069 14.75 11.75 14.75C10.3521 14.75 9.17755 13.7939 8.84451 12.5H2.75C2.33579 12.5 2 12.1642 2 11.75C2 11.3358 2.33579 11 2.75 11H8.84451Z" fill="black"/>
</svg>
