<svg xmlns="http://www.w3.org/2000/svg" height="937.5pt" version="1.1" viewBox="0 0 937.5 937.5" width="937.5pt">
<g id="surface1">
<path d="M 875 125 L 875 156.25 C 892.261719 156.25 906.25 170.238281 906.25 187.5 L 906.25 656.25 L 31.25 656.25 L 31.25 187.5 C 31.25 170.238281 45.238281 156.25 62.5 156.25 L 62.5 125 C 27.984375 125 0 152.984375 0 187.5 L 0 718.75 C 0 753.265625 27.984375 781.25 62.5 781.25 L 369.625 781.25 L 332.125 906.25 L 296.875 906.25 L 296.875 937.5 L 640.625 937.5 L 640.625 906.25 L 605.375 906.25 L 567.875 781.25 L 875 781.25 C 909.515625 781.25 937.5 753.265625 937.5 718.75 L 937.5 187.5 C 937.5 152.984375 909.515625 125 875 125 Z M 572.75 906.25 L 364.75 906.25 L 402.25 781.25 L 535.25 781.25 Z M 906.25 718.75 C 906.25 736.011719 892.261719 750 875 750 L 62.5 750 C 45.238281 750 31.25 736.011719 31.25 718.75 L 31.25 687.5 L 906.25 687.5 Z M 906.25 718.75 " style=" stroke:none;fill-rule:nonzero;fill:rgb(0%,0%,0%);fill-opacity:1;" />
<path d="M 93.75 62.5 L 93.75 625 L 125 625 L 125 62.5 C 125 45.238281 138.988281 31.25 156.25 31.25 L 781.25 31.25 C 798.511719 31.25 812.5 45.238281 812.5 62.5 L 812.5 625 L 843.75 625 L 843.75 62.5 C 843.75 27.984375 815.765625 0 781.25 0 L 156.25 0 C 121.734375 0 93.75 27.984375 93.75 62.5 Z M 93.75 62.5 " style=" stroke:none;fill-rule:nonzero;fill:rgb(0%,0%,0%);fill-opacity:1;" />
<path d="M 156.25 62.5 L 187.5 62.5 L 187.5 93.75 L 156.25 93.75 Z M 156.25 62.5 " style=" stroke:none;fill-rule:nonzero;fill:rgb(0%,0%,0%);fill-opacity:1;" />
<path d="M 218.75 62.5 L 250 62.5 L 250 93.75 L 218.75 93.75 Z M 218.75 62.5 " style=" stroke:none;fill-rule:nonzero;fill:rgb(0%,0%,0%);fill-opacity:1;" />
<path d="M 281.25 62.5 L 312.5 62.5 L 312.5 93.75 L 281.25 93.75 Z M 281.25 62.5 " style=" stroke:none;fill-rule:nonzero;fill:rgb(0%,0%,0%);fill-opacity:1;" />
<path d="M 156.25 125 L 781.25 125 L 781.25 156.25 L 156.25 156.25 Z M 156.25 125 " style=" stroke:none;fill-rule:nonzero;fill:rgb(0%,0%,0%);fill-opacity:1;" />
<path d="M 343.75 218.75 C 343.75 201.488281 329.761719 187.5 312.5 187.5 L 187.5 187.5 C 170.238281 187.5 156.25 201.488281 156.25 218.75 L 156.25 312.5 C 156.25 329.761719 170.238281 343.75 187.5 343.75 L 312.5 343.75 C 329.761719 343.75 343.75 329.761719 343.75 312.5 Z M 187.5 312.5 L 187.5 218.75 L 312.5 218.75 L 312.5 312.5 Z M 187.5 312.5 " style=" stroke:none;fill-rule:nonzero;fill:rgb(0%,0%,0%);fill-opacity:1;" />
<path d="M 562.5 218.75 C 562.5 201.488281 548.511719 187.5 531.25 187.5 L 406.25 187.5 C 388.988281 187.5 375 201.488281 375 218.75 L 375 312.5 C 375 329.761719 388.988281 343.75 406.25 343.75 L 531.25 343.75 C 548.511719 343.75 562.5 329.761719 562.5 312.5 Z M 406.25 312.5 L 406.25 218.75 L 531.25 218.75 L 531.25 312.5 Z M 406.25 312.5 " style=" stroke:none;fill-rule:nonzero;fill:rgb(0%,0%,0%);fill-opacity:1;" />
<path d="M 781.25 218.75 C 781.25 201.488281 767.261719 187.5 750 187.5 L 625 187.5 C 607.738281 187.5 593.75 201.488281 593.75 218.75 L 593.75 312.5 C 593.75 329.761719 607.738281 343.75 625 343.75 L 750 343.75 C 767.261719 343.75 781.25 329.761719 781.25 312.5 Z M 625 312.5 L 625 218.75 L 750 218.75 L 750 312.5 Z M 625 312.5 " style=" stroke:none;fill-rule:nonzero;fill:rgb(0%,0%,0%);fill-opacity:1;" />
<path d="M 343.75 406.25 C 343.75 388.988281 329.761719 375 312.5 375 L 187.5 375 C 170.238281 375 156.25 388.988281 156.25 406.25 L 156.25 500 C 156.25 517.261719 170.238281 531.25 187.5 531.25 L 312.5 531.25 C 329.761719 531.25 343.75 517.261719 343.75 500 Z M 187.5 500 L 187.5 406.25 L 312.5 406.25 L 312.5 500 Z M 187.5 500 " style=" stroke:none;fill-rule:nonzero;fill:rgb(0%,0%,0%);fill-opacity:1;" />
<path d="M 562.5 406.25 C 562.5 388.988281 548.511719 375 531.25 375 L 406.25 375 C 388.988281 375 375 388.988281 375 406.25 L 375 500 C 375 517.261719 388.988281 531.25 406.25 531.25 L 531.25 531.25 C 548.511719 531.25 562.5 517.261719 562.5 500 Z M 406.25 500 L 406.25 406.25 L 531.25 406.25 L 531.25 500 Z M 406.25 500 " style=" stroke:none;fill-rule:nonzero;fill:rgb(0%,0%,0%);fill-opacity:1;" />
<path d="M 781.25 406.25 C 781.25 388.988281 767.261719 375 750 375 L 625 375 C 607.738281 375 593.75 388.988281 593.75 406.25 L 593.75 500 C 593.75 517.261719 607.738281 531.25 625 531.25 L 750 531.25 C 767.261719 531.25 781.25 517.261719 781.25 500 Z M 625 500 L 625 406.25 L 750 406.25 L 750 500 Z M 625 500 " style=" stroke:none;fill-rule:nonzero;fill:rgb(0%,0%,0%);fill-opacity:1;" />
<path d="M 343.75 625 L 343.75 593.75 C 343.75 576.488281 329.761719 562.5 312.5 562.5 L 187.5 562.5 C 170.238281 562.5 156.25 576.488281 156.25 593.75 L 156.25 625 L 187.5 625 L 187.5 593.75 L 312.5 593.75 L 312.5 625 Z M 343.75 625 " style=" stroke:none;fill-rule:nonzero;fill:rgb(0%,0%,0%);fill-opacity:1;" />
<path d="M 562.5 625 L 562.5 593.75 C 562.5 576.488281 548.511719 562.5 531.25 562.5 L 406.25 562.5 C 388.988281 562.5 375 576.488281 375 593.75 L 375 625 L 406.25 625 L 406.25 593.75 L 531.25 593.75 L 531.25 625 Z M 562.5 625 " style=" stroke:none;fill-rule:nonzero;fill:rgb(0%,0%,0%);fill-opacity:1;" />
<path d="M 781.25 625 L 781.25 593.75 C 781.25 576.488281 767.261719 562.5 750 562.5 L 625 562.5 C 607.738281 562.5 593.75 576.488281 593.75 593.75 L 593.75 625 L 625 625 L 625 593.75 L 750 593.75 L 750 625 Z M 781.25 625 " style=" stroke:none;fill-rule:nonzero;fill:rgb(0%,0%,0%);fill-opacity:1;" />
</g>
</svg>