<!-- Generated by IcoMoon.io -->
<svg version="1.1" xmlns="http://www.w3.org/2000/svg" width="32" height="32" viewBox="0 0 32 32">
<title>cut</title>
<path d="M12.696 9.896c0.322-0.7 0.504-1.47 0.504-2.296 0-3.094-2.506-5.6-5.6-5.6s-5.6 2.506-5.6 5.6c0 3.094 2.506 5.6 5.6 5.6 0.826 0 1.596-0.182 2.296-0.504l3.304 3.304-3.304 3.304c-0.7-0.322-1.47-0.504-2.296-0.504-3.094 0-5.6 2.506-5.6 5.6s2.506 5.6 5.6 5.6c3.094 0 5.6-2.506 5.6-5.6 0-0.826-0.182-1.596-0.504-2.296l3.304-3.304 9.8 9.8h4.2v-1.4l-17.304-17.304zM7.6 10.4c-1.54 0-2.8-1.246-2.8-2.8s1.26-2.8 2.8-2.8c1.54 0 2.8 1.246 2.8 2.8s-1.26 2.8-2.8 2.8zM7.6 27.2c-1.54 0-2.8-1.246-2.8-2.8s1.26-2.8 2.8-2.8c1.54 0 2.8 1.246 2.8 2.8s-1.26 2.8-2.8 2.8zM16 16.7c-0.392 0-0.7-0.308-0.7-0.7s0.308-0.7 0.7-0.7c0.392 0 0.7 0.308 0.7 0.7s-0.308 0.7-0.7 0.7zM25.8 3.4l-8.4 8.4 2.8 2.8 9.8-9.8v-1.4h-4.2z"></path>
</svg>
