<!-- Generated by IcoMoon.io -->
<svg version="1.1" xmlns="http://www.w3.org/2000/svg" width="32" height="32" viewBox="0 0 32 32">
<title>data</title>
<path d="M6.201 23.323c-1.104 0-2 0.896-2 2 0 1.103 0.896 2 2 2 1.103 0 2-0.897 2-2 0-1.104-0.897-2-2-2zM27.799 26.656v-2.667h-16.793v2.667h16.793zM6.201 14c-1.104 0-2 0.896-2 2s0.896 2 2 2c1.103 0 2-0.896 2-2s-0.897-2-2-2zM6.201 14.667c0.736 0 1.333 0.597 1.333 1.333s-0.597 1.333-1.333 1.333c-0.736 0-1.333-0.597-1.333-1.333s0.597-1.333 1.333-1.333zM22.466 17.333h-11.46v-2.667h11.46v2.667zM6.201 4.677c1.103 0 2 0.897 2 2 0 1.104-0.897 2-2 2-1.104 0-2-0.896-2-2 0-1.103 0.896-2 2-2zM27.799 8.011h-16.793v-2.667h16.793v2.667z"></path>
</svg>
