<?xml version="1.0" encoding="UTF-8" standalone="no"?>
<!DOCTYPE svg PUBLIC "-//W3C//DTD SVG 1.1//EN" "http://www.w3.org/Graphics/SVG/1.1/DTD/svg11.dtd">
<svg width="100%" height="100%" viewBox="0 0 32 32" version="1.1" xmlns="http://www.w3.org/2000/svg" xmlns:xlink="http://www.w3.org/1999/xlink" xml:space="preserve" xmlns:serif="http://www.serif.com/" style="fill-rule:evenodd;clip-rule:evenodd;stroke-linejoin:round;stroke-miterlimit:2;">
    <g id="Linked" transform="matrix(0.0254632,0,0,0.0254394,2.94857,2.98242)">
        <path d="M557.236,410.196C550.416,417.062 546.148,426.364 545.526,436.062C545.526,436.062 550.416,439.822 554.386,443.05C608.262,486.86 634.22,562.494 616.512,631.572C608.476,662.92 591.89,691.904 569.204,715.024C524.256,760.258 479.018,805.204 433.922,850.292C385.17,898.738 308.824,916.782 242.916,893.738C182.214,872.512 134.664,817.562 123.216,753.346C112.732,694.532 132.876,631.188 175.016,588.782L197.73,566.068C197.336,564.868 196.95,563.664 196.566,562.46C187.27,533.07 181.35,502.768 178.814,472.046L178.8,471.854C148.33,502.324 115.15,530.366 89.472,566.036C18.094,665.186 24.962,814.598 117.188,906.816C188.386,978.01 302.07,1003.58 398.818,966.466C433.116,953.31 464.482,932.796 490.562,906.796L625.136,772.206C701.27,695.414 724.604,570.724 675.936,470.536C657.254,432.08 628.906,398.308 594.606,373.002L594.504,372.928C582.082,385.35 569.658,397.774 557.236,410.196ZM719.346,40C650.582,40.306 582.662,68.134 533.436,117.204L398.858,251.798C321.83,329.5 299.908,451.97 347.012,551.278C365.668,590.604 394.426,625.2 429.39,650.996L429.492,651.072C442.064,638.498 454.762,626.048 467.206,613.348C473.756,606.576 477.794,597.568 478.452,588.186C478.452,588.186 473.9,584.4 470.44,581.618C407.504,531.022 383.456,436.946 418.742,360.848C427.648,341.644 440.006,324.042 454.79,308.974C499.738,263.738 544.978,218.794 590.074,173.706C638.726,125.362 714.876,107.112 781.08,130.262C852.932,155.386 905.162,228.476 903.618,306.874C902.68,354.512 882.694,401.292 848.98,435.216L826.266,457.93C826.66,459.13 827.046,460.334 827.43,461.536C836.662,490.728 842.648,521.228 845.18,551.95L845.196,552.144C873.932,523.406 904.92,496.89 930.084,463.948C976.9,402.664 994.592,320.426 977.366,244.784C958.782,163.174 899.268,92.128 821.064,59.91C789.69,46.984 755.926,40.258 721.726,40.004C720.932,40 720.14,40 719.346,40Z" style="fill-rule:nonzero;"/>
    </g>
</svg>
