<?xml version="1.0" encoding="UTF-8" standalone="no"?>
<!DOCTYPE svg PUBLIC "-//W3C//DTD SVG 1.1//EN" "http://www.w3.org/Graphics/SVG/1.1/DTD/svg11.dtd">
<svg width="100%" height="100%" viewBox="0 0 32 32" version="1.1" xmlns="http://www.w3.org/2000/svg" xmlns:xlink="http://www.w3.org/1999/xlink" xml:space="preserve" xmlns:serif="http://www.serif.com/" style="fill-rule:evenodd;clip-rule:evenodd;stroke-linejoin:round;stroke-miterlimit:2;">
    <g id="Unlinked" transform="matrix(0.0254291,0,0,0.0254291,2.98026,2.98155)">
        <path d="M93.204,39.998C91.162,40.018 89.15,40.836 87.68,42.26C72.442,57.216 57.484,72.456 42.388,87.554C39.374,90.566 39.334,95.848 42.3,98.87C335.634,394.03 630.796,687.366 925.044,981.612C928.084,984.654 933.352,984.65 936.362,981.698C951.49,966.66 966.528,951.532 981.61,936.448C984.646,933.412 984.654,928.144 981.698,925.132C688.352,629.986 393.204,336.636 98.956,42.386C97.424,40.854 95.356,39.992 93.204,39.998ZM117.202,533.446C41.182,609.71 17.414,734.742 66.498,835.766C102.66,910.19 175.792,965.926 258.828,980.17C341.6,994.368 430.208,966.954 490.556,906.798L568.568,828.784L512,772.216L433.92,850.296C375.488,908.356 276.884,921.478 204.5,875.03C164.96,849.658 135.76,808.552 124.914,762.832C110.5,702.062 129.118,634.95 173.704,590.08L251.786,512L195.218,455.432C169.212,481.436 143.208,507.44 117.202,533.446ZM719.352,40.002C650.41,40.308 582.664,68.142 533.446,117.202L455.434,195.216L512.002,251.784L590.08,173.706C619.334,144.632 658.336,125.752 699.236,121.106C776.874,112.286 858.314,157.512 889.772,232.56C917.78,299.382 902.73,381.15 850.298,433.92L772.216,512L828.786,568.568C854.998,542.354 881.254,516.182 907.426,489.926C986.552,410.044 1007.99,278.82 951.164,176.016C906.162,94.598 816.186,40.708 721.732,40.004C720.938,40.002 720.146,40 719.352,40.002Z" style="fill-rule:nonzero;"/>
    </g>
</svg>
