<!-- Generated by IcoMoon.io -->
<svg version="1.1" xmlns="http://www.w3.org/2000/svg" width="32" height="32" viewBox="0 0 32 32">
<title>unlinked</title>
<path d="M22.667 9.333h-5.333v2.533h5.333c2.28 0 4.133 1.853 4.133 4.133 0 1.907-1.307 3.507-3.080 3.973l1.947 1.947c2.173-1.107 3.667-3.32 3.667-5.92 0-3.68-2.987-6.667-6.667-6.667zM21.333 14.667h-2.92l2.667 2.667h0.253zM2.667 5.693l4.147 4.147c-2.427 0.987-4.147 3.373-4.147 6.16 0 3.68 2.987 6.667 6.667 6.667h5.333v-2.533h-5.333c-2.28 0-4.133-1.853-4.133-4.133 0-2.12 1.613-3.867 3.68-4.093l2.76 2.76h-0.973v2.667h3.64l3.027 3.027v2.307h2.307l5.347 5.333 1.68-1.68-22.307-22.32-1.693 1.693z"></path>
</svg>
