<svg width="100%" height="100%" viewBox="0 0 24 24" version="1.1" xmlns="http://www.w3.org/2000/svg" xmlns:xlink="http://www.w3.org/1999/xlink" xml:space="preserve" xmlns:serif="http://www.serif.com/" style="fill-rule:evenodd;clip-rule:evenodd;stroke-linejoin:round;stroke-miterlimit:1.41421;">
    <g id="arrows" transform="matrix(1.33333,0,0,1.33333,0,0)">
        <path fill="#000000" d="M7.5,6.5L10.5,6.5L10.5,4.5L12.5,4.5L9,1L5.5,4.5L7.5,4.5L7.5,6.5ZM6.5,7.5L4.5,7.5L4.5,5.5L1,9L4.5,12.5L4.5,10.5L6.5,10.5L6.5,7.5ZM17,9L13.5,5.5L13.5,7.5L11.5,7.5L11.5,10.5L13.5,10.5L13.5,12.5L17,9ZM10.5,11.5L7.5,11.5L7.5,13.5L5.5,13.5L9,17L12.5,13.5L10.5,13.5L10.5,11.5Z" style="fill-rule:nonzero;"/>
    </g>
</svg>
