<svg width="100%" height="100%" viewBox="0 0 24 24" version="1.1" xmlns="http://www.w3.org/2000/svg" xmlns:xlink="http://www.w3.org/1999/xlink" xml:space="preserve" xmlns:serif="http://www.serif.com/" style="fill-rule:evenodd;clip-rule:evenodd;stroke-linejoin:round;stroke-miterlimit:1.41421;">
    <path id="columns" fill="#000000" d="M4,8L8,8L8,4L4,4L4,8ZM10,20L14,20L14,16L10,16L10,20ZM4,20L8,20L8,16L4,16L4,20ZM4,14L8,14L8,10L4,10L4,14ZM10,14L14,14L14,10L10,10L10,14ZM16,4L16,8L20,8L20,4L16,4ZM10,8L14,8L14,4L10,4L10,8ZM16,14L20,14L20,10L16,10L16,14ZM16,20L20,20L20,16L16,16L16,20Z" style="fill-rule:nonzero;"/>
</svg>
