<svg width="100%" height="100%" viewBox="0 0 24 24" version="1.1" xmlns="http://www.w3.org/2000/svg" xmlns:xlink="http://www.w3.org/1999/xlink" xml:space="preserve" xmlns:serif="http://www.serif.com/" style="fill-rule:evenodd;clip-rule:evenodd;stroke-linejoin:round;stroke-miterlimit:1.41421;">
    <path id="cut" fill="#000000" d="M9.64,7.64C9.87,7.14 10,6.59 10,6C10,3.79 8.21,2 6,2C3.79,2 2,3.79 2,6C2,8.21 3.79,10 6,10C6.59,10 7.14,9.87 7.64,9.64L10,12L7.64,14.36C7.14,14.13 6.59,14 6,14C3.79,14 2,15.79 2,18C2,20.21 3.79,22 6,22C8.21,22 10,20.21 10,18C10,17.41 9.87,16.86 9.64,16.36L12,14L19,21L22,21L22,20L9.64,7.64ZM6,8C4.9,8 4,7.11 4,6C4,4.89 4.9,4 6,4C7.1,4 8,4.89 8,6C8,7.11 7.1,8 6,8ZM6,20C4.9,20 4,19.11 4,18C4,16.89 4.9,16 6,16C7.1,16 8,16.89 8,18C8,19.11 7.1,20 6,20ZM12,12.5C11.72,12.5 11.5,12.28 11.5,12C11.5,11.72 11.72,11.5 12,11.5C12.28,11.5 12.5,11.72 12.5,12C12.5,12.28 12.28,12.5 12,12.5ZM19,3L13,9L15,11L22,4L22,3L19,3Z" style="fill-rule:nonzero;"/>
</svg>
