<svg width="100%" height="100%" viewBox="0 0 24 24" version="1.1" xmlns="http://www.w3.org/2000/svg" xmlns:xlink="http://www.w3.org/1999/xlink" xml:space="preserve" xmlns:serif="http://www.serif.com/" style="fill-rule:evenodd;clip-rule:evenodd;stroke-linejoin:round;stroke-miterlimit:1.41421;">
    <g id="data" transform="matrix(1,0,0,1,-0.536,-0.007)">
        <path fill="#000000" d="M5.081,16.005C5.638,16.005 6.09,16.457 6.09,17.014C6.09,17.571 5.638,18.023 5.081,18.023C4.524,18.023 4.072,17.571 4.072,17.014C4.072,16.457 4.524,16.005 5.081,16.005ZM21,18L8.03,18L8.03,16L21,16L21,18ZM5.081,10.998C5.638,10.998 6.09,11.45 6.09,12.007C6.09,12.564 5.638,13.016 5.081,13.016C4.524,13.016 4.072,12.564 4.072,12.007C4.072,11.45 4.524,10.998 5.081,10.998ZM16,12.995L8.03,12.995L8.03,10.995L16,10.995L16,12.995ZM5.081,11.257C5.495,11.257 5.831,11.593 5.831,12.007C5.831,12.421 5.495,12.757 5.081,12.757C4.667,12.757 4.331,12.421 4.331,12.007C4.331,11.593 4.667,11.257 5.081,11.257ZM5.081,5.991C5.638,5.991 6.09,6.443 6.09,7C6.09,7.556 5.638,8.009 5.081,8.009C4.524,8.009 4.072,7.556 4.072,7C4.072,6.443 4.524,5.991 5.081,5.991ZM21,8L8.03,8L8.03,6L21,6L21,8Z"/>
    </g>
</svg>
