<svg width="100%" height="100%" viewBox="0 0 24 24" version="1.1" xmlns="http://www.w3.org/2000/svg" xmlns:xlink="http://www.w3.org/1999/xlink" xml:space="preserve" xmlns:serif="http://www.serif.com/" style="fill-rule:evenodd;clip-rule:evenodd;stroke-linejoin:round;stroke-miterlimit:1.41421;">
    <g id="eye-slash" transform="matrix(1.33333,0,0,1.33333,0,0)">
        <path fill="#000000" d="M11.872,8.487C11.629,7.121 10.435,6.083 9,6.083C8.195,6.083 7.465,6.41 6.937,6.939L5.55,5.551C6.564,4.962 7.743,4.625 9,4.625C11.917,4.625 14.408,6.439 15.417,9C14.842,10.457 13.788,11.673 12.449,12.45L11.061,11.063C11.481,10.644 11.773,10.097 11.876,9.487L10.682,9.487C10.599,9.773 10.446,10.029 10.242,10.235L9.494,9.487L8.08,9.487L9.315,10.722C9.213,10.74 9.108,10.75 9,10.75C8.201,10.75 7.529,10.217 7.318,9.487L6.124,9.487C6.356,10.865 7.556,11.917 9,11.917C9.439,11.917 9.856,11.819 10.23,11.645L11.494,12.909C10.721,13.21 9.88,13.375 9,13.375C6.083,13.375 3.592,11.561 2.583,9C3.031,7.864 3.771,6.874 4.71,6.125L6.355,7.77C6.25,7.995 6.173,8.235 6.128,8.487L8.494,8.487L7.765,7.758C8.082,7.444 8.518,7.25 9,7.25C9.79,7.25 10.455,7.77 10.674,8.487L11.872,8.487Z" style="fill-rule:nonzero;"/>
    </g>
</svg>
