<svg width="100%" height="100%" viewBox="0 0 24 24" version="1.1" xmlns="http://www.w3.org/2000/svg" xmlns:xlink="http://www.w3.org/1999/xlink" xml:space="preserve" xmlns:serif="http://www.serif.com/" style="fill-rule:evenodd;clip-rule:evenodd;stroke-linejoin:round;stroke-miterlimit:1.41421;">
    <g id="group" transform="matrix(1.33333,0,0,1.33333,-0.666667,0)">
        <path fill="#000000" d="M11,12L16,12C16,13.105 15.105,14 14,14L11,14L11,12ZM16,8L16,10L11,10L11,8L16,8ZM14,4C15.105,4 16,4.895 16,6L7,6L7,4L14,4ZM9,14L7,14L7,12L9,12L9,14ZM9,10L7,10L7,8L9,8L9,10ZM5,6L3,6C3,4.895 3.895,4 5,4L5,6Z" style="fill-rule:nonzero;"/>
    </g>
</svg>
