<svg width="100%" height="100%" viewBox="0 0 24 24" version="1.1" xmlns="http://www.w3.org/2000/svg" xmlns:xlink="http://www.w3.org/1999/xlink" xml:space="preserve" xmlns:serif="http://www.serif.com/" style="fill-rule:evenodd;clip-rule:evenodd;stroke-linejoin:round;stroke-miterlimit:1.41421;">
    <g id="paste" transform="matrix(1,0,0,1,0,1)">
        <path fill="#000000" d="M19,2L14.82,2C14.4,0.84 13.3,0 12,0C10.7,0 9.6,0.84 9.18,2L5,2C3.9,2 3,2.9 3,4L3,20C3,21.1 3.9,22 5,22L19,22C20.1,22 21,21.1 21,20L21,4C21,2.9 20.1,2 19,2ZM12,2C12.55,2 13,2.45 13,3C13,3.55 12.55,4 12,4C11.45,4 11,3.55 11,3C11,2.45 11.45,2 12,2ZM19,20L5,20L5,4L7,4L7,7L17,7L17,4L19,4L19,20Z" style="fill-rule:nonzero;"/>
    </g>
</svg>
