<svg width="100%" height="100%" viewBox="0 0 24 24" version="1.1" xmlns="http://www.w3.org/2000/svg" xmlns:xlink="http://www.w3.org/1999/xlink" xml:space="preserve" xmlns:serif="http://www.serif.com/" style="fill-rule:evenodd;clip-rule:evenodd;stroke-linejoin:round;stroke-miterlimit:1.41421;">
    <g id="pivot">
        <path fill="#000000" d="M20,22.667L4,22.667C2.527,22.667 1.333,21.473 1.333,20L1.333,4C1.333,2.527 2.527,1.333 4,1.333L20,1.333C21.473,1.333 22.667,2.527 22.667,4L22.667,20C22.667,21.473 21.473,22.667 20,22.667ZM8,16L4,16L4,20L8,20L8,16ZM20,10.667L9.333,10.667L9.333,20L20,20L20,10.667ZM13.138,15.805L11.609,17.333L13.138,18.862L12.195,19.805L9.724,17.333L12.195,14.862C12.51,15.176 12.824,15.49 13.138,15.805ZM8,10.667L4,10.667L4,14.667L8,14.667L8,10.667ZM19.805,13.529L18.862,14.471L17.333,12.943L15.805,14.471L14.862,13.529L17.333,11.057C18.157,11.881 18.981,12.705 19.805,13.529ZM8,4L4,4L4,8L8,8L8,4ZM14.667,4L9.333,4L9.333,8L14.667,8L14.667,4ZM20,4L16,4L16,8L20,8L20,4Z" style="fill-rule:nonzero;"/>
    </g>
</svg>
