<?xml version="1.0" encoding="iso-8859-1"?>
<!-- Generator: Adobe Illustrator 19.0.0, SVG Export Plug-In . SVG Version: 6.00 Build 0)  -->
<svg version="1.1" id="Layer_1" xmlns="http://www.w3.org/2000/svg" xmlns:xlink="http://www.w3.org/1999/xlink" x="0px" y="0px"
	 viewBox="0 0 512 512" style="enable-background:new 0 0 512 512;" xml:space="preserve">
<circle style="fill:#EDC55D;" cx="256" cy="256" r="256"/>
<path style="fill:#C79A38;" d="M358.364,90.06l-10.084,14.488l-131.068,134.14L109.184,371.552L93.86,386.176l124.208,123.008
	c12.38,1.84,25.04,2.816,37.932,2.816c141.388,0,256-114.612,256-256c0-4.768-0.152-9.496-0.412-14.2L358.364,90.06z"/>
<polygon style="fill:#9F1C37;" points="225.184,385.98 270.528,340.64 270.528,210.2 225.184,255.544 "/>
<rect x="94.752" y="255.544" style="fill:#ED2F41;" width="130.432" height="130.436"/>
<rect x="109.2" y="269.96" style="fill:#FFFFFF;" width="101.572" height="101.58"/>
<polygon style="fill:#D43D67;" points="146.104,210.2 94.752,255.544 225.184,255.544 270.528,210.2 "/>
<polygon style="fill:#3D3F98;" points="371.912,422.06 417.252,376.72 417.252,246.28 371.912,291.62 "/>
<rect x="241.48" y="291.62" style="fill:#6064AC;" width="130.432" height="130.436"/>
<rect x="255.908" y="306.04" style="fill:#FFFFFF;" width="101.572" height="101.58"/>
<polygon style="fill:#8083BF;" points="292.828,246.28 241.476,291.62 371.912,291.62 417.252,246.28 "/>
<polygon style="fill:#295C2E;" points="313.076,265.716 358.416,220.372 358.416,89.94 313.076,135.276 "/>
<rect x="182.636" y="135.276" style="fill:#389A46;" width="130.436" height="130.436"/>
<rect x="197.08" y="149.712" style="fill:#FFFFFF;" width="101.576" height="101.576"/>
<polygon style="fill:#5AB947;" points="233.996,89.94 182.636,135.276 313.076,135.276 358.416,89.94 "/>
<g>
	<path style="fill:#AEB4AD;" d="M232.088,220.432L225.3,235.86h-12.228l29.884-67.812h12.224l29.884,67.812h-12.228l-6.788-15.428
		H232.088z M261.392,209.864l-12.324-27.936l-12.32,27.936H261.392z"/>
	<path style="fill:#AEB4AD;" d="M163.796,356.128h-29.684v-67.812h26.38c4.592,0,8.556,0.556,11.884,1.648
		c3.336,1.1,5.804,2.584,7.42,4.46c3.108,3.5,4.656,7.444,4.656,11.836c0,5.304-1.68,9.252-5.04,11.836
		c-1.236,0.908-2.072,1.476-2.524,1.704s-1.256,0.592-2.42,1.108c4.196,0.916,7.548,2.804,10.04,5.68
		c2.484,2.876,3.736,6.452,3.736,10.72c0,4.72-1.616,8.892-4.852,12.516C179.572,354.028,173.04,356.128,163.796,356.128z
		 M145.556,316.448h14.556c8.272,0,12.416-2.812,12.416-8.436c0-3.236-1-5.564-3.008-6.984c-2-1.42-5.108-2.132-9.312-2.132H145.56
		v17.552H145.556z M145.556,345.56H163.5c4.204,0,7.42-0.664,9.656-1.992c2.228-1.328,3.344-3.828,3.344-7.516
		c0-6.016-4.82-9.024-14.452-9.024h-16.492V345.56z"/>
	<path style="fill:#AEB4AD;" d="M311.828,382.26c3.944,0,7.336-0.664,10.188-1.992c2.844-1.32,5.82-3.444,8.92-6.352l7.376,7.572
		c-7.18,7.952-15.9,11.928-26.148,11.928s-18.752-3.296-25.508-9.9c-6.764-6.592-10.14-14.936-10.14-25.024
		c0-10.092,3.444-18.5,10.328-25.228c6.892-6.728,15.584-10.084,26.1-10.084c10.508,0,19.288,3.876,26.336,11.64l-7.272,7.952
		c-3.236-3.1-6.288-5.272-9.172-6.5c-2.876-1.228-6.256-1.844-10.132-1.844c-6.86,0-12.616,2.22-17.272,6.648
		s-6.984,10.084-6.984,16.976c0,6.884,2.312,12.64,6.936,17.264S305.492,382.26,311.828,382.26z"/>
</g>
<path style="fill:#295C2E;" d="M230.884,218.972l-6.788,15.428h-12.228l29.884-67.812h12.22l29.884,67.812h-12.228l-6.788-15.428
	H230.884z M260.18,208.404l-12.32-27.936l-12.32,27.936H260.18z"/>
<path style="fill:#9F1C37;" d="M162.584,354.668H132.9v-67.812h26.384c4.592,0,8.556,0.556,11.884,1.648
	c3.336,1.1,5.804,2.584,7.42,4.46c3.108,3.5,4.656,7.444,4.656,11.836c0,5.304-1.68,9.252-5.04,11.836
	c-1.236,0.908-2.076,1.476-2.524,1.704c-0.452,0.228-1.26,0.592-2.424,1.108c4.2,0.916,7.552,2.804,10.04,5.68
	s3.74,6.452,3.74,10.72c0,4.72-1.616,8.892-4.852,12.516C178.364,352.568,171.832,354.668,162.584,354.668z M144.348,314.988H158.9
	c8.276,0,12.416-2.812,12.416-8.436c0-3.236-1.004-5.564-3.008-6.984s-5.108-2.132-9.312-2.132h-14.648L144.348,314.988
	L144.348,314.988z M144.348,344.096h17.944c4.204,0,7.42-0.664,9.656-1.992c2.228-1.328,3.344-3.828,3.344-7.516
	c0-6.016-4.82-9.024-14.452-9.024h-16.492V344.096z"/>
<path style="fill:#3D3F98;" d="M310.62,380.8c3.944,0,7.336-0.664,10.188-1.992c2.844-1.32,5.82-3.444,8.92-6.352l7.376,7.572
	c-7.18,7.952-15.9,11.928-26.148,11.928s-18.752-3.296-25.512-9.9c-6.76-6.592-10.136-14.936-10.136-25.024
	c0-10.092,3.444-18.5,10.328-25.228c6.892-6.728,15.584-10.084,26.1-10.084c10.508,0,19.288,3.876,26.336,11.64l-7.272,7.956
	c-3.236-3.1-6.292-5.272-9.172-6.5c-2.876-1.228-6.256-1.844-10.132-1.844c-6.86,0-12.616,2.22-17.272,6.648
	s-6.984,10.084-6.984,16.976c0,6.884,2.312,12.64,6.936,17.264S304.28,380.8,310.62,380.8z"/>
<g>
</g>
<g>
</g>
<g>
</g>
<g>
</g>
<g>
</g>
<g>
</g>
<g>
</g>
<g>
</g>
<g>
</g>
<g>
</g>
<g>
</g>
<g>
</g>
<g>
</g>
<g>
</g>
<g>
</g>
</svg>
