<?xml version="1.0" encoding="UTF-8"?>
<svg width="18px" height="18px" viewBox="0 0 18 18" version="1.1" xmlns="http://www.w3.org/2000/svg" xmlns:xlink="http://www.w3.org/1999/xlink">
    <!-- Generator: Sketch 46.1 (44463) - http://www.bohemiancoding.com/sketch -->
    <title>aggregation</title>
    <desc>Created with Sketch.</desc>
    <defs></defs>
    <g id="Material-Icons" stroke="none" stroke-width="1" fill="none" fill-rule="evenodd">
        <g id="aggregation" fill="#000000">
            <path d="M13,13 L13,14 L13,14 C13,14.5522847 12.5522847,15 12,15 L5,15 L5,15 C4.44771525,15 4,14.5522847 4,14 L4,13 L7,9 L4,5 L4,4 L4,4 C4,3.44771525 4.44771525,3 5,3 L12,3 L12,3 C12.5522847,3 13,3.44771525 13,4 L13,5 L6.5,5 L9.05,8.4 L9.05,8.4 C9.31666667,8.75555556 9.31666667,9.24444444 9.05,9.6 L6.5,13 L13,13 Z" id="Path-4"></path>
        </g>
    </g>
</svg>