<?xml version="1.0" encoding="UTF-8"?>
<svg width="18px" height="18px" viewBox="0 0 18 18" version="1.1" xmlns="http://www.w3.org/2000/svg" xmlns:xlink="http://www.w3.org/1999/xlink">
    <!-- Generator: Sketch 46.1 (44463) - http://www.bohemiancoding.com/sketch -->
    <title>arrows</title>
    <desc>Created with Sketch.</desc>
    <defs></defs>
    <g id="Material-Icons" stroke="none" stroke-width="1" fill="none" fill-rule="evenodd">
        <g id="arrows">
            <g id="ic_open_with_24px">
                <path d="M7.5,6.75 L10.5,6.75 L10.5,4.5 L12.75,4.5 L9,0.75 L5.25,4.5 L7.5,4.5 L7.5,6.75 Z M6.75,7.5 L4.5,7.5 L4.5,5.25 L0.75,9 L4.5,12.75 L4.5,10.5 L6.75,10.5 L6.75,7.5 Z M17.25,9 L13.5,5.25 L13.5,7.5 L11.25,7.5 L11.25,10.5 L13.5,10.5 L13.5,12.75 L17.25,9 Z M10.5,11.25 L7.5,11.25 L7.5,13.5 L5.25,13.5 L9,17.25 L12.75,13.5 L10.5,13.5 L10.5,11.25 Z" id="Shape" fill="#000000" fill-rule="nonzero"></path>
                <polygon id="Shape" points="0 0 18 0 18 18 0 18"></polygon>
            </g>
        </g>
    </g>
</svg>