<?xml version="1.0" encoding="UTF-8"?>
<svg width="18px" height="18px" viewBox="0 0 18 18" version="1.1" xmlns="http://www.w3.org/2000/svg" xmlns:xlink="http://www.w3.org/1999/xlink">
    <!-- Generator: Sketch 46.1 (44463) - http://www.bohemiancoding.com/sketch -->
    <title>arrows</title>
    <desc>Created with Sketch.</desc>
    <defs></defs>
    <g id="Material-Icons" stroke="none" stroke-width="1" fill="none" fill-rule="evenodd">
        <g id="arrows" fill-rule="nonzero" fill="#000000">
            <path d="M7.5,6.5 L10.5,6.5 L10.5,4.5 L12.5,4.5 L9,1 L5.5,4.5 L7.5,4.5 L7.5,6.5 Z M6.5,7.5 L4.5,7.5 L4.5,5.5 L1,9 L4.5,12.5 L4.5,10.5 L6.5,10.5 L6.5,7.5 Z M17,9 L13.5,5.5 L13.5,7.5 L11.5,7.5 L11.5,10.5 L13.5,10.5 L13.5,12.5 L17,9 Z M10.5,11.5 L7.5,11.5 L7.5,13.5 L5.5,13.5 L9,17 L12.5,13.5 L10.5,13.5 L10.5,11.5 Z" id="Shape"></path>
        </g>
    </g>
</svg>