<?xml version="1.0" encoding="UTF-8"?>
<svg width="18px" height="18px" viewBox="0 0 18 18" version="1.1" xmlns="http://www.w3.org/2000/svg" xmlns:xlink="http://www.w3.org/1999/xlink">
    <!-- Generator: Sketch 46.1 (44463) - http://www.bohemiancoding.com/sketch -->
    <title>checkbox-checked</title>
    <desc>Created with Sketch.</desc>
    <defs></defs>
    <g id="Material-Icons" stroke="none" stroke-width="1" fill="none" fill-rule="evenodd">
        <g id="checkbox-checked" fill-rule="nonzero" fill="#000000">
            <path d="M4,2 L14,2 L14,2 C15.1045695,2 16,2.8954305 16,4 L16,14 L16,14 C16,15.1045695 15.1045695,16 14,16 L4,16 L4,16 C2.8954305,16 2,15.1045695 2,14 L2,4 L2,4 C2,2.8954305 2.8954305,2 4,2 L4,2 Z M7.5,12.75 L14.25,6 L13.1925,4.935 L7.5,10.6275 L4.8075,7.9425 L3.75,9 L7.5,12.75 Z" id="Shape"></path>
        </g>
    </g>
</svg>