<?xml version="1.0" encoding="UTF-8"?>
<svg width="18px" height="18px" viewBox="0 0 18 18" version="1.1" xmlns="http://www.w3.org/2000/svg" xmlns:xlink="http://www.w3.org/1999/xlink">
    <!-- Generator: Sketch 46.1 (44463) - http://www.bohemiancoding.com/sketch -->
    <title>columns</title>
    <desc>Created with Sketch.</desc>
    <defs></defs>
    <g id="Material-Icons" stroke="none" stroke-width="1" fill="none" fill-rule="evenodd">
        <g id="columns">
            <g id="ic_apps_18px">
                <path d="M2,10 L5,10 L5,7 L2,7 L2,10 Z M2,5 L5,5 L5,2 L2,2 L2,5 Z M2,15 L5,15 L5,12 L2,12 L2,15 Z M7,15 L10,15 L10,12 L7,12 L7,15 Z M12,10 L15,10 L15,7 L12,7 L12,10 Z M7,10 L10,10 L10,7 L7,7 L7,10 Z M12,15 L15,15 L15,12 L12,12 L12,15 Z M12,2 L12,5 L15,5 L15,2 L12,2 Z M7,5 L10,5 L10,2 L7,2 L7,5 Z" id="Shape" fill="#000000" fill-rule="nonzero"></path>
                <polygon id="Shape" points="0 0 18 0 18 18 0 18"></polygon>
            </g>
        </g>
    </g>
</svg>