<?xml version="1.0" encoding="UTF-8"?>
<svg width="18px" height="18px" viewBox="0 0 18 18" version="1.1" xmlns="http://www.w3.org/2000/svg" xmlns:xlink="http://www.w3.org/1999/xlink">
    <!-- Generator: Sketch 46.1 (44463) - http://www.bohemiancoding.com/sketch -->
    <title>copy</title>
    <desc>Created with Sketch.</desc>
    <defs></defs>
    <g id="Material-Icons" stroke="none" stroke-width="1" fill="none" fill-rule="evenodd">
        <g id="copy" fill="#000000">
            <path d="M11,2 L4,2 L4,2 C3.44771525,2 3,2.44771525 3,3 L3,12 L4,12 L4,3 L11,3 L11,2 Z" id="Shape" fill-rule="nonzero"></path>
            <path d="M6,4 L12,4 C12.5522847,4 13,4.44771525 13,5 L13,14 C13,14.5522847 12.5522847,15 12,15 L6,15 C5.44771525,15 5,14.5522847 5,14 L5,5 L5,5 C5,4.44771525 5.44771525,4 6,4 L6,4 Z M6,5 L6,14 L12,14 L12,5 L6,5 Z" id="Combined-Shape"></path>
        </g>
    </g>
</svg>