<?xml version="1.0" encoding="UTF-8"?>
<svg width="18px" height="18px" viewBox="0 0 18 18" version="1.1" xmlns="http://www.w3.org/2000/svg" xmlns:xlink="http://www.w3.org/1999/xlink">
    <!-- Generator: Sketch 46.1 (44463) - http://www.bohemiancoding.com/sketch -->
    <title>copy</title>
    <desc>Created with Sketch.</desc>
    <defs></defs>
    <g id="Material-Icons" stroke="none" stroke-width="1" fill="none" fill-rule="evenodd">
        <g id="copy" fill-rule="nonzero" fill="#000000">
            <path d="M11.8421053,2 L4.26315789,2 C3.56842105,2 3,2.57272727 3,3.27272727 L3,12.1818182 L4.26315789,12.1818182 L4.26315789,3.27272727 L11.8421053,3.27272727 L11.8421053,2 Z M13.7368421,4.54545455 L6.78947368,4.54545455 C6.09473684,4.54545455 5.52631579,5.11818182 5.52631579,5.81818182 L5.52631579,14.7272727 C5.52631579,15.4272727 6.09473684,16 6.78947368,16 L13.7368421,16 C14.4315789,16 15,15.4272727 15,14.7272727 L15,5.81818182 C15,5.11818182 14.4315789,4.54545455 13.7368421,4.54545455 Z M13.7368421,14.7272727 L6.78947368,14.7272727 L6.78947368,5.81818182 L13.7368421,5.81818182 L13.7368421,14.7272727 Z" id="Shape"></path>
        </g>
    </g>
</svg>