<?xml version="1.0" encoding="UTF-8"?>
<svg width="18px" height="18px" viewBox="0 0 18 18" version="1.1" xmlns="http://www.w3.org/2000/svg" xmlns:xlink="http://www.w3.org/1999/xlink">
    <!-- Generator: Sketch 46.1 (44463) - http://www.bohemiancoding.com/sketch -->
    <title>cut</title>
    <desc>Created with Sketch.</desc>
    <defs></defs>
    <g id="Material-Icons" stroke="none" stroke-width="1" fill="none" fill-rule="evenodd">
        <g id="cut" fill-rule="nonzero" fill="#000000">
            <g id="ic_content_cut_24px" transform="translate(2.000000, 2.000000)">
                <path d="M5.348,3.948 C5.509,3.598 5.6,3.213 5.6,2.8 C5.6,1.253 4.347,0 2.8,0 C1.253,0 0,1.253 0,2.8 C0,4.347 1.253,5.6 2.8,5.6 C3.213,5.6 3.598,5.509 3.948,5.348 L5.6,7 L3.948,8.652 C3.598,8.491 3.213,8.4 2.8,8.4 C1.253,8.4 0,9.653 0,11.2 C0,12.747 1.253,14 2.8,14 C4.347,14 5.6,12.747 5.6,11.2 C5.6,10.787 5.509,10.402 5.348,10.052 L7,8.4 L11.9,13.3 L14,13.3 L14,12.6 L5.348,3.948 Z M2.8,4.2 C2.03,4.2 1.4,3.577 1.4,2.8 C1.4,2.023 2.03,1.4 2.8,1.4 C3.57,1.4 4.2,2.023 4.2,2.8 C4.2,3.577 3.57,4.2 2.8,4.2 Z M2.8,12.6 C2.03,12.6 1.4,11.977 1.4,11.2 C1.4,10.423 2.03,9.8 2.8,9.8 C3.57,9.8 4.2,10.423 4.2,11.2 C4.2,11.977 3.57,12.6 2.8,12.6 Z M7,7.35 C6.804,7.35 6.65,7.196 6.65,7 C6.65,6.804 6.804,6.65 7,6.65 C7.196,6.65 7.35,6.804 7.35,7 C7.35,7.196 7.196,7.35 7,7.35 Z M11.9,0.7 L7.7,4.9 L9.1,6.3 L14,1.4 L14,0.7 L11.9,0.7 Z" id="Shape"></path>
            </g>
        </g>
    </g>
</svg>