<?xml version="1.0" encoding="UTF-8"?>
<svg width="18px" height="18px" viewBox="0 0 18 18" version="1.1" xmlns="http://www.w3.org/2000/svg" xmlns:xlink="http://www.w3.org/1999/xlink">
    <!-- Generator: Sketch 46.1 (44463) - http://www.bohemiancoding.com/sketch -->
    <title>cut</title>
    <desc>Created with Sketch.</desc>
    <defs></defs>
    <g id="Material-Icons" stroke="none" stroke-width="1" fill="none" fill-rule="evenodd">
        <g id="cut" fill-rule="nonzero" fill="#000000">
            <path d="M7.348,5.948 C7.509,5.598 7.6,5.213 7.6,4.8 C7.6,3.253 6.347,2 4.8,2 C3.253,2 2,3.253 2,4.8 C2,6.347 3.253,7.6 4.8,7.6 C5.213,7.6 5.598,7.509 5.948,7.348 L7.6,9 L5.948,10.652 C5.598,10.491 5.213,10.4 4.8,10.4 C3.253,10.4 2,11.653 2,13.2 C2,14.747 3.253,16 4.8,16 C6.347,16 7.6,14.747 7.6,13.2 C7.6,12.787 7.509,12.402 7.348,12.052 L9,10.4 L13.9,15.3 L16,15.3 L16,14.6 L7.348,5.948 Z M4.8,6.2 C4.03,6.2 3.4,5.577 3.4,4.8 C3.4,4.023 4.03,3.4 4.8,3.4 C5.57,3.4 6.2,4.023 6.2,4.8 C6.2,5.577 5.57,6.2 4.8,6.2 Z M4.8,14.6 C4.03,14.6 3.4,13.977 3.4,13.2 C3.4,12.423 4.03,11.8 4.8,11.8 C5.57,11.8 6.2,12.423 6.2,13.2 C6.2,13.977 5.57,14.6 4.8,14.6 Z M9,9.35 C8.804,9.35 8.65,9.196 8.65,9 C8.65,8.804 8.804,8.65 9,8.65 C9.196,8.65 9.35,8.804 9.35,9 C9.35,9.196 9.196,9.35 9,9.35 Z M13.9,2.7 L9.7,6.9 L11.1,8.3 L16,3.4 L16,2.7 L13.9,2.7 Z" id="Shape"></path>
        </g>
    </g>
</svg>