<?xml version="1.0" encoding="UTF-8"?>
<svg width="18px" height="18px" viewBox="0 0 18 18" version="1.1" xmlns="http://www.w3.org/2000/svg" xmlns:xlink="http://www.w3.org/1999/xlink">
    <!-- Generator: Sketch 46.1 (44463) - http://www.bohemiancoding.com/sketch -->
    <title>eye-slash</title>
    <desc>Created with Sketch.</desc>
    <defs></defs>
    <g id="Material-Icons" stroke="none" stroke-width="1" fill="none" fill-rule="evenodd">
        <g id="eye-slash" fill="#000000">
            <path d="M12.4486663,12.4498928 L11.06147,11.0626965 C11.589747,10.5347314 11.9166667,9.80531172 11.9166667,9 C11.9166667,7.39 10.61,6.08333333 9,6.08333333 C8.19468828,6.08333333 7.46526863,6.41025304 6.93730348,6.93853003 L5.54978136,5.55100791 C6.56430827,4.96218118 7.74258142,4.625 9,4.625 C11.9166667,4.625 14.4075,6.43916667 15.4166667,9 C14.8423449,10.4573829 13.7881404,11.672935 12.4486663,12.4498928 Z M11.4937954,12.9092356 C10.7205739,13.2099836 9.87965384,13.375 9,13.375 C6.08333333,13.375 3.5925,11.5608333 2.58333333,9 C3.03115164,7.8636287 3.77073171,6.87428696 4.70981384,6.12525395 L6.35479703,7.77023714 C6.18061522,8.14398682 6.08333333,8.56070176 6.08333333,9 C6.08333333,10.61 7.39,11.9166667 9,11.9166667 C9.43929824,11.9166667 9.85601318,11.8193848 10.2297629,11.645203 L11.4937954,12.9092356 Z" id="Shape" fill-rule="nonzero"></path>
            <path d="M10.2416734,10.2345664 L7.76543357,7.7583266 C8.08160909,7.44395652 8.51764556,7.25 9,7.25 C9.96833333,7.25 10.75,8.03166667 10.75,9 C10.75,9.48235444 10.5560435,9.91839091 10.2416734,10.2345664 Z M9.31480324,10.7219098 C9.2127125,10.7403652 9.10750667,10.75 9,10.75 C8.03166667,10.75 7.25,9.96833333 7.25,9 C7.25,8.89249333 7.2596348,8.7872875 7.27809017,8.68519676 L9.31480324,10.7219098 Z" id="Combined-Shape"></path>
            <rect id="Path" x="3.07034931" y="8.48701598" width="12.4166667" height="1"></rect>
        </g>
    </g>
</svg>