<?xml version="1.0" encoding="UTF-8"?>
<svg width="18px" height="18px" viewBox="0 0 18 18" version="1.1" xmlns="http://www.w3.org/2000/svg" xmlns:xlink="http://www.w3.org/1999/xlink">
    <!-- Generator: Sketch 46.1 (44463) - http://www.bohemiancoding.com/sketch -->
    <title>paste</title>
    <desc>Created with Sketch.</desc>
    <defs></defs>
    <g id="Material-Icons" stroke="none" stroke-width="1" fill="none" fill-rule="evenodd">
        <g id="paste" fill-rule="nonzero" fill="#000000">
            <g id="ic_content_paste_24px" transform="translate(3.000000, 2.000000)">
                <path d="M10.6666667,1.27272727 L7.88,1.27272727 C7.6,0.534545455 6.86666667,0 6,0 C5.13333333,0 4.4,0.534545455 4.12,1.27272727 L1.33333333,1.27272727 C0.6,1.27272727 0,1.84545455 0,2.54545455 L0,12.7272727 C0,13.4272727 0.6,14 1.33333333,14 L10.6666667,14 C11.4,14 12,13.4272727 12,12.7272727 L12,2.54545455 C12,1.84545455 11.4,1.27272727 10.6666667,1.27272727 Z M6,1.27272727 C6.36666667,1.27272727 6.66666667,1.55909091 6.66666667,1.90909091 C6.66666667,2.25909091 6.36666667,2.54545455 6,2.54545455 C5.63333333,2.54545455 5.33333333,2.25909091 5.33333333,1.90909091 C5.33333333,1.55909091 5.63333333,1.27272727 6,1.27272727 Z M10.6666667,12.7272727 L1.33333333,12.7272727 L1.33333333,2.54545455 L2.66666667,2.54545455 L2.66666667,4.45454545 L9.33333333,4.45454545 L9.33333333,2.54545455 L10.6666667,2.54545455 L10.6666667,12.7272727 Z" id="Shape"></path>
            </g>
        </g>
    </g>
</svg>