<?xml version="1.0" encoding="UTF-8"?>
<svg width="18px" height="18px" viewBox="0 0 18 18" version="1.1" xmlns="http://www.w3.org/2000/svg" xmlns:xlink="http://www.w3.org/1999/xlink">
    <!-- Generator: Sketch 46.1 (44463) - http://www.bohemiancoding.com/sketch -->
    <title>paste</title>
    <desc>Created with Sketch.</desc>
    <defs></defs>
    <g id="Material-Icons" stroke="none" stroke-width="1" fill="none" fill-rule="evenodd">
        <g id="paste" fill-rule="nonzero" fill="#000000">
            <path d="M13.6666667,3.27272727 L10.88,3.27272727 C10.6,2.53454545 9.86666667,2 9,2 C8.13333333,2 7.4,2.53454545 7.12,3.27272727 L4.33333333,3.27272727 C3.6,3.27272727 3,3.84545455 3,4.54545455 L3,14.7272727 C3,15.4272727 3.6,16 4.33333333,16 L13.6666667,16 C14.4,16 15,15.4272727 15,14.7272727 L15,4.54545455 C15,3.84545455 14.4,3.27272727 13.6666667,3.27272727 Z M9,3.27272727 C9.36666667,3.27272727 9.66666667,3.55909091 9.66666667,3.90909091 C9.66666667,4.25909091 9.36666667,4.54545455 9,4.54545455 C8.63333333,4.54545455 8.33333333,4.25909091 8.33333333,3.90909091 C8.33333333,3.55909091 8.63333333,3.27272727 9,3.27272727 Z M13.6666667,14.7272727 L4.33333333,14.7272727 L4.33333333,4.54545455 L5.66666667,4.54545455 L5.66666667,6.45454545 L12.3333333,6.45454545 L12.3333333,4.54545455 L13.6666667,4.54545455 L13.6666667,14.7272727 Z" id="Shape"></path>
        </g>
    </g>
</svg>