<?xml version="1.0" encoding="UTF-8"?>
<svg width="18px" height="18px" viewBox="0 0 18 18" version="1.1" xmlns="http://www.w3.org/2000/svg" xmlns:xlink="http://www.w3.org/1999/xlink">
    <!-- Generator: Sketch 46.1 (44463) - http://www.bohemiancoding.com/sketch -->
    <title>pivot</title>
    <desc>Created with Sketch.</desc>
    <defs></defs>
    <g id="Material-Icons" stroke="none" stroke-width="1" fill="none" fill-rule="evenodd">
        <g id="pivot">
            <polyline id="Path-8" stroke="#000000" points="11.5 10.5 13 9 14.5 10.5"></polyline>
            <polyline id="Path-13" stroke="#000000" points="9.5 11.5 8 13 9.5 14.5"></polyline>
            <polygon id="Shape" points="0 0 18 0 18 18 0 18"></polygon>
            <path d="M15,1 L3,1 C2.175,1 1,2.175 1,3 L1,15 C1,15.825 2.175,17 3,17 L15,17 C15.825,17 17,15.825 17,15 L17,3 C17,2.175 15.825,1 15,1 Z M6,15 L3,15 L3,12 L6,12 L6,15 Z M6,11 L3,11 L3,8 L6,8 L6,11 Z M6,6 L3,6 L3,3 L6,3 L6,6 Z M11,6 L7,6 L7,3 L11,3 L11,6 Z M15,15 L7,15 L7,8 L15,8 L15,15 Z M15,6 L12,6 L12,3 L15,3 L15,6 Z" id="Shape" fill="#000000" fill-rule="nonzero"></path>
        </g>
    </g>
</svg>