<svg width="38" height="38" viewBox="0 0 38 38" fill="none" xmlns="http://www.w3.org/2000/svg">
<rect width="38" height="38" rx="8" fill="#DCE8F4"/>
<path fill-rule="evenodd" clip-rule="evenodd" d="M15 11C13.9391 11 12.9217 11.4214 12.1716 12.1716C11.4214 12.9217 11 13.9391 11 15C11 16.0609 11.4214 17.0783 12.1716 17.8284C12.9217 18.5786 13.9391 19 15 19C16.0609 19 17.0783 18.5786 17.8284 17.8284C18.5786 17.0783 19 16.0609 19 15C19 13.9391 18.5786 12.9217 17.8284 12.1716C17.0783 11.4214 16.0609 11 15 11ZM13 20C11.9391 20 10.9217 20.4214 10.1716 21.1716C9.42143 21.9217 9 22.9391 9 24V25C9 25.5304 9.21071 26.0391 9.58579 26.4142C9.96086 26.7893 10.4696 27 11 27H19C19.5304 27 20.0391 26.7893 20.4142 26.4142C20.7893 26.0391 21 25.5304 21 25V24C21 22.9391 20.5786 21.9217 19.8284 21.1716C19.0783 20.4214 18.0609 20 17 20H13ZM20.25 17.905C20.728 17.045 21 16.055 21 15C21.0014 13.9833 20.7433 12.983 20.25 12.094C20.8178 11.5567 21.5306 11.1976 22.3003 11.061C23.07 10.9244 23.8628 11.0164 24.5808 11.3255C25.2988 11.6346 25.9106 12.1473 26.3403 12.8002C26.7701 13.4532 26.9992 14.2178 26.9992 14.9995C26.9992 15.7812 26.7701 16.5458 26.3403 17.1987C25.9106 17.8517 25.2988 18.3644 24.5808 18.6735C23.8628 18.9826 23.07 19.0745 22.3003 18.938C21.5306 18.8014 20.8178 18.4423 20.25 17.905ZM22.466 27C22.806 26.412 23.001 25.729 23.001 25V24C23.003 22.5237 22.4588 21.0989 21.473 20H25C26.0609 20 27.0783 20.4214 27.8284 21.1716C28.5786 21.9217 29 22.9391 29 24V25C29 25.5304 28.7893 26.0391 28.4142 26.4142C28.0391 26.7893 27.5304 27 27 27H22.466Z" fill="url(#paint0_linear_44_1886)"/>
<defs>
<linearGradient id="paint0_linear_44_1886" x1="19" y1="10.9995" x2="19" y2="27" gradientUnits="userSpaceOnUse">
<stop stop-color="#044B93" stop-opacity="0.69"/>
<stop offset="1" stop-color="#044B93"/>
</linearGradient>
</defs>
</svg>
