<svg width="38" height="38" viewBox="0 0 38 38" fill="none" xmlns="http://www.w3.org/2000/svg">
<rect width="38" height="38" rx="8" fill="#DCE8F4"/>
<path d="M25.5073 10.1704L23.174 8.94543C21.1253 7.87093 20.101 7.3331 18.9997 7.3331C17.8983 7.3331 16.874 7.86977 14.8253 8.94543L12.492 10.1704C10.4235 11.2554 9.20667 11.8948 8.45301 12.7488L18.9997 18.0221L29.5463 12.7488C28.7927 11.8948 27.577 11.2554 25.5073 10.1704ZM30.3723 14.2911L19.8747 19.5411V30.5544C20.7123 30.3456 21.6655 29.8463 23.174 29.0541L25.5073 27.8291C28.0168 26.5119 29.2722 25.8539 29.9698 24.6698C30.6663 23.4868 30.6663 22.0133 30.6663 19.0698V18.9333C30.6663 16.7248 30.6663 15.3434 30.3723 14.2911ZM18.1247 30.5544V19.5411L7.62701 14.2911C7.33301 15.3434 7.33301 16.7248 7.33301 18.9309V19.0674C7.33301 22.0133 7.33301 23.4868 8.02951 24.6698C8.72717 25.8539 9.98251 26.5131 12.492 27.8303L14.8253 29.0541C16.3338 29.8463 17.287 30.3456 18.1247 30.5544Z" fill="url(#paint0_linear_44_1888)"/>
<defs>
<linearGradient id="paint0_linear_44_1888" x1="18.9997" y1="7.3331" x2="18.9997" y2="30.5544" gradientUnits="userSpaceOnUse">
<stop stop-color="#044B93" stop-opacity="0.69"/>
<stop offset="1" stop-color="#044B93"/>
</linearGradient>
</defs>
</svg>
