<!-- Generated by IcoMoon.io -->
<svg version="1.1" xmlns="http://www.w3.org/2000/svg" width="100%" height="100%" viewBox="0 0 32 32">
<title>checkbox-indeterminate</title>
<path d="M27.973-0.032c2.208 0 4 1.792 4 4v24.083c0 2.208-1.792 4-4 4h-23.957c-2.208 0-4-1.792-4-4v-24.083c0-2.208 1.792-4 4-4h23.957zM27.997 2.683h-24.048c-0.712 0-1.288 0.576-1.288 1.285v24.045c0 0.709 0.576 1.288 1.288 1.288h24.048c0.712 0 1.288-0.579 1.288-1.288v-24.045c0-0.709-0.576-1.285-1.288-1.285zM21.333 18.667h-10.667v-5.333h10.667v5.333z"></path>
</svg>
