<?xml version="1.0" encoding="UTF-8" standalone="no"?>
<!DOCTYPE svg PUBLIC "-//W3C//DTD SVG 1.1//EN" "http://www.w3.org/Graphics/SVG/1.1/DTD/svg11.dtd">
<svg width="100%" height="100%" viewBox="0 0 32 32" version="1.1" xmlns="http://www.w3.org/2000/svg" xmlns:xlink="http://www.w3.org/1999/xlink" xml:space="preserve" xmlns:serif="http://www.serif.com/" style="fill-rule:evenodd;clip-rule:evenodd;stroke-linejoin:round;stroke-miterlimit:2;">
    <g id="Cut">
        <path d="M13.775,15.198L3.835,2.945C3.314,2.302 3.412,1.357 4.055,0.835C4.698,0.314 5.643,0.412 6.165,1.055L21.162,19.543C21.922,19.194 22.767,19 23.657,19C26.969,19 29.657,21.689 29.657,25C29.657,28.311 26.969,31 23.657,31C20.346,31 17.657,28.311 17.657,25C17.657,23.665 18.094,22.431 18.833,21.434L15.706,17.579L12.705,21.279C13.516,22.301 14,23.595 14,25C14,28.311 11.311,31 8,31C4.689,31 2,28.311 2,25C2,21.689 4.689,19 8,19C8.82,19 9.602,19.165 10.315,19.464L13.775,15.198ZM23.657,21.9C21.946,21.9 20.557,23.289 20.557,25C20.557,26.711 21.946,28.1 23.657,28.1C25.368,28.1 26.757,26.711 26.757,25C26.757,23.289 25.368,21.9 23.657,21.9ZM8,21.95C6.316,21.95 4.95,23.316 4.95,25C4.95,26.684 6.316,28.05 8,28.05C9.684,28.05 11.05,26.684 11.05,25C11.05,23.316 9.684,21.95 8,21.95ZM17.63,10.445L19.562,12.826L27.577,2.945C28.099,2.302 28,1.357 27.357,0.835C26.714,0.314 25.769,0.412 25.248,1.055L17.63,10.445Z" style="fill-rule:nonzero;"/>
    </g>
</svg>
