<?xml version="1.0" encoding="UTF-8"?>
<svg width="35px" height="33px" viewBox="0 0 35 33" version="1.1" xmlns="http://www.w3.org/2000/svg" xmlns:xlink="http://www.w3.org/1999/xlink">
    <!-- Generator: Sketch 48.1 (47250) - http://www.bohemiancoding.com/sketch -->
    <title>enterprise</title>
    <desc>Created with Sketch.</desc>
    <defs>
        <path d="M31.0069891,21.6666667 L19.3403224,21.6666667 L19.3403224,18.8303204 C19.3403224,18.555842 19.5628311,18.3333333 19.8373095,18.3333333 L31.0069891,18.3333333 L31.0069891,15 L18.4919243,15 C17.1195325,15 16.0069891,16.1125434 16.0069891,17.4849352 L16.0069891,29.1817315 C16.0069891,30.5541233 17.1195325,31.6666667 18.4919243,31.6666667 L31.0069891,31.6666667 L31.0069891,28.3333333 L19.6716471,28.3333333 C19.4886615,28.3333333 19.3403224,28.1849942 19.3403224,28.0020086 L19.3403224,25 L31.0069891,25 L31.0069891,21.6666667 Z" id="path-1"></path>
    </defs>
    <g id="Desktop" stroke="none" stroke-width="1" fill="none" fill-rule="evenodd" transform="translate(-956.000000, -703.000000)">
        <g id="enterprise" transform="translate(950.000000, 696.000000)">
            <mask id="mask-2" fill="white">
                <use xlink:href="#path-1"></use>
            </mask>
            <use fill="#E11F22" xlink:href="#path-1"></use>
            <path d="M24.58,6.62353829 L37.5754446,14.1264617 C38.2437509,14.5123085 38.6554446,15.2253829 38.6554446,15.9970766 L38.6554446,31.0029234 C38.6554446,31.7746171 38.2437509,32.4876915 37.5754446,32.8735383 L24.58,40.3764617 C23.9116937,40.7623085 23.0883063,40.7623085 22.42,40.3764617 L9.42455543,32.8735383 C8.75624911,32.4876915 8.34455543,31.7746171 8.34455543,31.0029234 L8.34455543,15.9970766 C8.34455543,15.2253829 8.75624911,14.5123085 9.42455543,14.1264617 L22.42,6.62353829 C23.0883063,6.23769145 23.9116937,6.23769145 24.58,6.62353829 Z" id="Mask-Copy-2" stroke="#FFFFFF" stroke-width="0.5" stroke-linecap="square" transform="translate(23.500000, 23.500000) rotate(22.000000) translate(-23.500000, -23.500000) "></path>
        </g>
    </g>
</svg>