<?xml version="1.0" encoding="UTF-8"?>
<svg width="400px" height="150px" viewBox="0 0 400 150" version="1.1" xmlns="http://www.w3.org/2000/svg" xmlns:xlink="http://www.w3.org/1999/xlink">
    <!-- Generator: Sketch 47.1 (45422) - http://www.bohemiancoding.com/sketch -->
    <title>feature-placeholder</title>
    <desc>Created with Sketch.</desc>
    <defs></defs>
    <g id="Logo" stroke="none" stroke-width="1" fill="none" fill-rule="evenodd">
        <g id="feature-placeholder">
            <path d="M202.375,46.0825318 L225.038775,59.1674682 L225.038775,59.1674682 C226.199029,59.8373412 226.913775,61.0753175 226.913775,62.4150635 L226.913775,88.5849365 L226.913775,88.5849365 C226.913775,89.9246825 226.199029,91.1626588 225.038775,91.8325318 L202.375,104.917468 L202.375,104.917468 C201.214746,105.587341 199.785254,105.587341 198.625,104.917468 L175.961225,91.8325318 L175.961225,91.8325318 C174.800971,91.1626588 174.086225,89.9246825 174.086225,88.5849365 L174.086225,62.4150635 L174.086225,62.4150635 C174.086225,61.0753175 174.800971,59.8373412 175.961225,59.1674682 L198.625,46.0825318 L198.625,46.0825318 C199.785254,45.4126588 201.214746,45.4126588 202.375,46.0825318 Z" id="Mask" stroke-opacity="0.2" stroke="#9B9B9B" stroke-width="0.5" stroke-linecap="square"></path>
            <path d="M202.75,40.2990381 L229.859927,55.9509619 L229.859927,55.9509619 C231.252232,56.7548095 232.109927,58.2403811 232.109927,59.8480762 L232.109927,91.1519238 L232.109927,91.1519238 C232.109927,92.7596189 231.252232,94.2451905 229.859927,95.0490381 L202.75,110.700962 L202.75,110.700962 C201.357695,111.504809 199.642305,111.504809 198.25,110.700962 L171.140073,95.0490381 L171.140073,95.0490381 C169.747768,94.2451905 168.890073,92.7596189 168.890073,91.1519238 L168.890073,59.8480762 L168.890073,59.8480762 C168.890073,58.2403811 169.747768,56.7548095 171.140073,55.9509619 L198.25,40.2990381 L198.25,40.2990381 C199.642305,39.4951905 201.357695,39.4951905 202.75,40.2990381 Z" id="Mask-Copy" stroke-opacity="0.2" stroke="#9B9B9B" stroke-width="0.6" stroke-linecap="square" transform="translate(200.500000, 75.500000) rotate(5.000000) translate(-200.500000, -75.500000) "></path>
            <path d="M296.875,110.033149 L303.560072,113.892777 L303.560072,113.892777 C304.720326,114.56265 305.435072,115.800626 305.435072,117.140372 L305.435072,124.859628 L305.435072,124.859628 C305.435072,126.199374 304.720326,127.43735 303.560072,128.107223 L296.875,131.966851 L296.875,131.966851 C295.714746,132.636724 294.285254,132.636724 293.125,131.966851 L286.439928,128.107223 L286.439928,128.107223 C285.279674,127.43735 284.564928,126.199374 284.564928,124.859628 L284.564928,117.140372 L284.564928,117.140372 C284.564928,115.800626 285.279674,114.56265 286.439928,113.892777 L293.125,110.033149 L293.125,110.033149 C294.285254,109.363276 295.714746,109.363276 296.875,110.033149 Z" id="Mask" stroke-opacity="0.2" stroke="#9B9B9B" stroke-width="0.5" stroke-linecap="square"></path>
            <path d="M297.25,107.879285 L305.237872,112.491085 L305.237872,112.491085 C306.630177,113.294933 307.487872,114.780505 307.487872,116.3882 L307.487872,125.6118 L307.487872,125.6118 C307.487872,127.219495 306.630177,128.705067 305.237872,129.508915 L297.25,134.120715 L297.25,134.120715 C295.857695,134.924563 294.142305,134.924563 292.75,134.120715 L284.762128,129.508915 L284.762128,129.508915 C283.369823,128.705067 282.512128,127.219495 282.512128,125.6118 L282.512128,116.3882 L282.512128,116.3882 C282.512128,114.780505 283.369823,113.294933 284.762128,112.491085 L292.75,107.879285 L292.75,107.879285 C294.142305,107.075437 295.857695,107.075437 297.25,107.879285 Z" id="Mask-Copy" stroke-opacity="0.2" stroke="#9B9B9B" stroke-width="0.6" stroke-linecap="square" transform="translate(295.000000, 121.000000) rotate(5.000000) translate(-295.000000, -121.000000) "></path>
            <path d="M392.875,-16.6335176 L434.778438,7.55944355 L434.778438,7.55944355 C435.938692,8.22931653 436.653438,9.46729286 436.653438,10.8070388 L436.653438,59.1929612 L436.653438,59.1929612 C436.653438,60.5327071 435.938692,61.7706835 434.778438,62.4405564 L392.875,86.6335176 L392.875,86.6335176 C391.714746,87.3033906 390.285254,87.3033906 389.125,86.6335176 L347.221562,62.4405564 L347.221562,62.4405564 C346.061308,61.7706835 345.346562,60.5327071 345.346562,59.1929612 L345.346562,10.8070388 L345.346562,10.8070388 C345.346562,9.46729286 346.061308,8.22931653 347.221562,7.55944355 L389.125,-16.6335176 L389.125,-16.6335176 C390.285254,-17.3033906 391.714746,-17.3033906 392.875,-16.6335176 Z" id="Mask" stroke-opacity="0.2" stroke="#9B9B9B" stroke-width="0.5" stroke-linecap="square"></path>
            <path d="M393.25,-26.7873816 L443.384442,2.15775202 L443.384442,2.15775202 C444.776747,2.9615996 445.634442,4.44717118 445.634442,6.05486633 L445.634442,63.9451337 L445.634442,63.9451337 C445.634442,65.5528288 444.776747,67.0384004 443.384442,67.842248 L393.25,96.7873816 L393.25,96.7873816 C391.857695,97.5912292 390.142305,97.5912292 388.75,96.7873816 L338.615558,67.842248 L338.615558,67.842248 C337.223253,67.0384004 336.365558,65.5528288 336.365558,63.9451337 L336.365558,6.05486633 L336.365558,6.05486633 C336.365558,4.44717118 337.223253,2.9615996 338.615558,2.15775202 L388.75,-26.7873816 L388.75,-26.7873816 C390.142305,-27.5912292 391.857695,-27.5912292 393.25,-26.7873816 Z" id="Mask-Copy" stroke-opacity="0.2" stroke="#9B9B9B" stroke-width="0.6" stroke-linecap="square" transform="translate(391.000000, 35.000000) rotate(5.000000) translate(-391.000000, -35.000000) "></path>
            <path d="M-8.125,24.3664824 L33.778438,48.5594436 L33.778438,48.5594436 C34.938692,49.2293165 35.653438,50.4672929 35.653438,51.8070388 L35.653438,100.192961 L35.653438,100.192961 C35.653438,101.532707 34.938692,102.770683 33.778438,103.440556 L-8.125,127.633518 L-8.125,127.633518 C-9.28525404,128.303391 -10.714746,128.303391 -11.875,127.633518 L-53.778438,103.440556 L-53.778438,103.440556 C-54.938692,102.770683 -55.653438,101.532707 -55.653438,100.192961 L-55.653438,51.8070388 L-55.653438,51.8070388 C-55.653438,50.4672929 -54.938692,49.2293165 -53.778438,48.5594436 L-11.875,24.3664824 L-11.875,24.3664824 C-10.714746,23.6966094 -9.28525404,23.6966094 -8.125,24.3664824 Z" id="Mask" stroke-opacity="0.2" stroke="#9B9B9B" stroke-width="0.5" stroke-linecap="square"></path>
            <path d="M-7.75,14.2126184 L42.3844421,43.157752 L42.3844421,43.157752 C43.776747,43.9615996 44.6344421,45.4471712 44.6344421,47.0548663 L44.6344421,104.945134 L44.6344421,104.945134 C44.6344421,106.552829 43.776747,108.0384 42.3844421,108.842248 L-7.75,137.787382 L-7.75,137.787382 C-9.14230485,138.591229 -10.8576952,138.591229 -12.25,137.787382 L-62.3844421,108.842248 L-62.3844421,108.842248 C-63.776747,108.0384 -64.6344421,106.552829 -64.6344421,104.945134 L-64.6344421,47.0548663 L-64.6344421,47.0548663 C-64.6344421,45.4471712 -63.776747,43.9615996 -62.3844421,43.157752 L-12.25,14.2126184 L-12.25,14.2126184 C-10.8576952,13.4087708 -9.14230485,13.4087708 -7.75,14.2126184 Z" id="Mask-Copy" stroke-opacity="0.2" stroke="#9B9B9B" stroke-width="0.6" stroke-linecap="square" transform="translate(-10.000000, 76.000000) rotate(5.000000) translate(10.000000, -76.000000) "></path>
            <path d="M307.875,42.2553713 L320.429799,49.503888 L320.429799,49.503888 C321.590053,50.173761 322.304799,51.4117373 322.304799,52.7514833 L322.304799,67.2485167 L322.304799,67.2485167 C322.304799,68.5882627 321.590053,69.826239 320.429799,70.496112 L307.875,77.7446287 L307.875,77.7446287 C306.714746,78.4145017 305.285254,78.4145017 304.125,77.7446287 L291.570201,70.496112 L291.570201,70.496112 C290.409947,69.826239 289.695201,68.5882627 289.695201,67.2485167 L289.695201,52.7514833 L289.695201,52.7514833 C289.695201,51.4117373 290.409947,50.173761 291.570201,49.503888 L304.125,42.2553713 L304.125,42.2553713 C305.285254,41.5854983 306.714746,41.5854983 307.875,42.2553713 Z" id="Mask" stroke-opacity="0.2" stroke="#9B9B9B" stroke-width="0.5" stroke-linecap="square" transform="translate(306.000000, 60.000000) rotate(44.000000) translate(-306.000000, -60.000000) "></path>
            <path d="M308.25,38.7681739 L323.262301,47.4355298 L323.262301,47.4355298 C324.654606,48.2393774 325.512301,49.724949 325.512301,51.3326441 L325.512301,68.6673559 L325.512301,68.6673559 C325.512301,70.275051 324.654606,71.7606226 323.262301,72.5644702 L308.25,81.2318261 L308.25,81.2318261 C306.857695,82.0356737 305.142305,82.0356737 303.75,81.2318261 L288.737699,72.5644702 L288.737699,72.5644702 C287.345394,71.7606226 286.487699,70.275051 286.487699,68.6673559 L286.487699,51.3326441 L286.487699,51.3326441 C286.487699,49.724949 287.345394,48.2393774 288.737699,47.4355298 L303.75,38.7681739 L303.75,38.7681739 C305.142305,37.9643263 306.857695,37.9643263 308.25,38.7681739 Z" id="Mask-Copy" stroke-opacity="0.2" stroke="#9B9B9B" stroke-width="0.6" stroke-linecap="square" transform="translate(306.000000, 60.000000) rotate(49.000000) translate(-306.000000, -60.000000) "></path>
            <path d="M126.224954,87.6053255 L138.779754,94.8538423 L138.779754,94.8538423 C139.940008,95.5237152 140.654754,96.7616916 140.654754,98.1014375 L140.654754,112.598471 L140.654754,112.598471 C140.654754,113.938217 139.940008,115.176193 138.779754,115.846066 L126.224954,123.094583 L126.224954,123.094583 C125.0647,123.764456 123.635208,123.764456 122.474954,123.094583 L109.920155,115.846066 L109.920155,115.846066 C108.759901,115.176193 108.045155,113.938217 108.045155,112.598471 L108.045155,98.1014375 L108.045155,98.1014375 C108.045155,96.7616916 108.759901,95.5237152 109.920155,94.8538423 L122.474954,87.6053255 L122.474954,87.6053255 C123.635208,86.9354525 125.0647,86.9354525 126.224954,87.6053255 Z" id="Mask" stroke-opacity="0.2" stroke="#9B9B9B" stroke-width="0.5" stroke-linecap="square" transform="translate(124.349954, 105.349954) rotate(44.000000) translate(-124.349954, -105.349954) "></path>
            <path d="M126.599954,84.1181282 L141.612255,92.7854841 L141.612255,92.7854841 C143.00456,93.5893316 143.862255,95.0749032 143.862255,96.6825984 L143.862255,114.01731 L143.862255,114.01731 C143.862255,115.625005 143.00456,117.110577 141.612255,117.914424 L126.599954,126.58178 L126.599954,126.58178 C125.207649,127.385628 123.492259,127.385628 122.099954,126.58178 L107.087654,117.914424 L107.087654,117.914424 C105.695349,117.110577 104.837654,115.625005 104.837654,114.01731 L104.837654,96.6825984 L104.837654,96.6825984 C104.837654,95.0749032 105.695349,93.5893316 107.087654,92.7854841 L122.099954,84.1181282 L122.099954,84.1181282 C123.492259,83.3142806 125.207649,83.3142806 126.599954,84.1181282 Z" id="Mask-Copy" stroke-opacity="0.2" stroke="#9B9B9B" stroke-width="0.6" stroke-linecap="square" transform="translate(124.349954, 105.349954) rotate(49.000000) translate(-124.349954, -105.349954) "></path>
            <rect id="Rectangle" stroke="#0084E7" x="0.5" y="0.5" width="399" height="149" rx="8"></rect>
        </g>
    </g>
</svg>