<?xml version="1.0" encoding="UTF-8"?>
<svg width="283px" height="150px" viewBox="0 0 283 150" version="1.1" xmlns="http://www.w3.org/2000/svg" xmlns:xlink="http://www.w3.org/1999/xlink">
    <!-- Generator: Sketch 48.1 (47250) - http://www.bohemiancoding.com/sketch -->
    <title>default-blog-cover</title>
    <desc>Created with Sketch.</desc>
    <defs>
        <path d="M0.122569986,21.6 L0.122569986,13.4919275 C0.122569986,12.4201307 0.694366756,11.4297497 1.62256999,10.8938513 L19.661285,0.479194313 C20.5894882,-0.0567040717 21.7330818,-0.0567040717 22.661285,0.479194313 L40.7,10.8938513 C41.6282032,11.4297497 42.2,12.4201307 42.2,13.4919275 L42.2,27.6 L36.2,27.6 L36.1992064,18.8 C36.199095,17.1432245 34.8559819,15.8002017 33.1992064,15.8002017 L24.4,15.8 C22.7431458,15.8 21.4,17.1431457 21.4,18.8 L21.4,27.2031247 C21.4,28.8599789 22.7431458,30.2031247 24.4,30.2031247 L33.6,30.2031247 L33.6,32.6 C33.6,32.9313708 33.3313708,33.2 33,33.2 L24,33.2 L24,35.8 L33.1992064,35.7995754 C34.8558949,35.7995754 36.1989719,34.4566884 36.1992064,32.8 L36.2,30.1921107 L42.2,30.1921107 L42.2,34.3212414 C42.2,35.3930382 41.6282032,36.3834192 40.7,36.9193176 L22.661285,47.3339746 C21.7330818,47.869873 20.5894882,47.869873 19.661285,47.3339746 L1.62256999,36.9193176 C0.694366756,36.3834192 0.122569986,35.3930382 0.122569986,34.3212414 L0.122569986,24.2 L5.4,24.2 L5.4,27.2 C5.4,28.8568543 6.74314575,30.2 8.4,30.2 L20,30.2 L20,18.8 C20,17.1431458 18.6568542,15.8 17,15.8 L5.4,15.8 L5.4,18.4 L16.8,18.4 C17.1313708,18.4 17.4,18.6686292 17.4,19 L17.4,21.6 L0.122569986,21.6 Z" id="path-1"></path>
    </defs>
    <g id="Logo" stroke="none" stroke-width="1" fill="none" fill-rule="evenodd">
        <g id="default-blog-cover">
            <path d="M202.375,46.0825318 L225.038775,59.1674682 C226.199029,59.8373412 226.913775,61.0753175 226.913775,62.4150635 L226.913775,88.5849365 C226.913775,89.9246825 226.199029,91.1626588 225.038775,91.8325318 L202.375,104.917468 C201.214746,105.587341 199.785254,105.587341 198.625,104.917468 L175.961225,91.8325318 C174.800971,91.1626588 174.086225,89.9246825 174.086225,88.5849365 L174.086225,62.4150635 C174.086225,61.0753175 174.800971,59.8373412 175.961225,59.1674682 L198.625,46.0825318 C199.785254,45.4126588 201.214746,45.4126588 202.375,46.0825318 Z" id="Mask" stroke-opacity="0.2" stroke="#9B9B9B" stroke-width="0.5" stroke-linecap="square"></path>
            <path d="M202.75,40.2990381 L229.859927,55.9509619 C231.252232,56.7548095 232.109927,58.2403811 232.109927,59.8480762 L232.109927,91.1519238 C232.109927,92.7596189 231.252232,94.2451905 229.859927,95.0490381 L202.75,110.700962 C201.357695,111.504809 199.642305,111.504809 198.25,110.700962 L171.140073,95.0490381 C169.747768,94.2451905 168.890073,92.7596189 168.890073,91.1519238 L168.890073,59.8480762 C168.890073,58.2403811 169.747768,56.7548095 171.140073,55.9509619 L198.25,40.2990381 C199.642305,39.4951905 201.357695,39.4951905 202.75,40.2990381 Z" id="Mask-Copy" stroke-opacity="0.2" stroke="#9B9B9B" stroke-width="0.6" stroke-linecap="square" transform="translate(200.500000, 75.500000) rotate(5.000000) translate(-200.500000, -75.500000) "></path>
            <path d="M130.1,-1.92153903 L173.562486,23.171539 C175.790174,24.4576952 177.162486,26.8346097 177.162486,29.4069219 L177.162486,79.5930781 C177.162486,82.1653903 175.790174,84.5423048 173.562486,85.828461 L130.1,110.921539 C127.872312,112.207695 125.127688,112.207695 122.9,110.921539 L79.4375139,85.828461 C77.2098261,84.5423048 75.8375139,82.1653903 75.8375139,79.5930781 L75.8375139,29.4069219 C75.8375139,26.8346097 77.2098261,24.4576952 79.4375139,23.171539 L122.9,-1.92153903 C125.127688,-3.20769515 127.872312,-3.20769515 130.1,-1.92153903 Z" id="Mask-Copy-2" stroke-opacity="0.2" stroke="#9B9B9B" stroke-linecap="square" transform="translate(126.500000, 54.500000) rotate(-18.000000) translate(-126.500000, -54.500000) "></path>
            <path d="M276.875,110.082532 L283.517305,113.917468 C284.677559,114.587341 285.392305,115.825318 285.392305,117.165064 L285.392305,124.834936 C285.392305,126.174682 284.677559,127.412659 283.517305,128.082532 L276.875,131.917468 C275.714746,132.587341 274.285254,132.587341 273.125,131.917468 L266.482695,128.082532 C265.322441,127.412659 264.607695,126.174682 264.607695,124.834936 L264.607695,117.165064 C264.607695,115.825318 265.322441,114.587341 266.482695,113.917468 L273.125,110.082532 C274.285254,109.412659 275.714746,109.412659 276.875,110.082532 Z" id="Mask" stroke-opacity="0.2" stroke="#9B9B9B" stroke-width="0.5" stroke-linecap="square"></path>
            <path d="M277.75,108.299038 L285.807368,112.950962 C287.199673,113.754809 288.057368,115.240381 288.057368,116.848076 L288.057368,126.151924 C288.057368,127.759619 287.199673,129.245191 285.807368,130.049038 L277.75,134.700962 C276.357695,135.504809 274.642305,135.504809 273.25,134.700962 L265.192632,130.049038 C263.800327,129.245191 262.942632,127.759619 262.942632,126.151924 L262.942632,116.848076 C262.942632,115.240381 263.800327,113.754809 265.192632,112.950962 L273.25,108.299038 C274.642305,107.495191 276.357695,107.495191 277.75,108.299038 Z" id="Mask-Copy" stroke-opacity="0.2" stroke="#9B9B9B" stroke-width="0.6" stroke-linecap="square" transform="translate(275.500000, 121.500000) rotate(5.000000) translate(-275.500000, -121.500000) "></path>
            <path d="M-8.625,24.0825318 L33.0913337,48.1674682 C34.2515877,48.8373412 34.9663337,50.0753175 34.9663337,51.4150635 L34.9663337,99.5849365 C34.9663337,100.924682 34.2515877,102.162659 33.0913337,102.832532 L-8.625,126.917468 C-9.78525404,127.587341 -11.214746,127.587341 -12.375,126.917468 L-54.0913337,102.832532 C-55.2515877,102.162659 -55.9663337,100.924682 -55.9663337,99.5849365 L-55.9663337,51.4150635 C-55.9663337,50.0753175 -55.2515877,48.8373412 -54.0913337,48.1674682 L-12.375,24.0825318 C-11.214746,23.4126588 -9.78525404,23.4126588 -8.625,24.0825318 Z" id="Mask" stroke-opacity="0.2" stroke="#9B9B9B" stroke-width="0.5" stroke-linecap="square"></path>
            <path d="M-7.75,14.2990381 L42.3096004,43.2009619 C43.7019053,44.0048095 44.5596004,45.4903811 44.5596004,47.0980762 L44.5596004,104.901924 C44.5596004,106.509619 43.7019053,107.995191 42.3096004,108.799038 L-7.75,137.700962 C-9.14230485,138.504809 -10.8576952,138.504809 -12.25,137.700962 L-62.3096004,108.799038 C-63.7019053,107.995191 -64.5596004,106.509619 -64.5596004,104.901924 L-64.5596004,47.0980762 C-64.5596004,45.4903811 -63.7019053,44.0048095 -62.3096004,43.2009619 L-12.25,14.2990381 C-10.8576952,13.4951905 -9.14230485,13.4951905 -7.75,14.2990381 Z" id="Mask-Copy" stroke-opacity="0.2" stroke="#9B9B9B" stroke-width="0.6" stroke-linecap="square" transform="translate(-10.000000, 76.000000) rotate(5.000000) translate(10.000000, -76.000000) "></path>
            <path d="M286.875,42.0825318 L299.579483,49.4174682 C300.739737,50.0873412 301.454483,51.3253175 301.454483,52.6650635 L301.454483,67.3349365 C301.454483,68.6746825 300.739737,69.9126588 299.579483,70.5825318 L286.875,77.9174682 C285.714746,78.5873412 284.285254,78.5873412 283.125,77.9174682 L270.420517,70.5825318 C269.260263,69.9126588 268.545517,68.6746825 268.545517,67.3349365 L268.545517,52.6650635 C268.545517,51.3253175 269.260263,50.0873412 270.420517,49.4174682 L283.125,42.0825318 C284.285254,41.4126588 285.714746,41.4126588 286.875,42.0825318 Z" id="Mask" stroke-opacity="0.2" stroke="#9B9B9B" stroke-width="0.5" stroke-linecap="square" transform="translate(285.000000, 60.000000) rotate(44.000000) translate(-285.000000, -60.000000) "></path>
            <path d="M287.75,38.2990381 L302.735572,46.9509619 C304.127876,47.7548095 304.985572,49.2403811 304.985572,50.8480762 L304.985572,68.1519238 C304.985572,69.7596189 304.127876,71.2451905 302.735572,72.0490381 L287.75,80.7009619 C286.357695,81.5048095 284.642305,81.5048095 283.25,80.7009619 L268.264428,72.0490381 C266.872124,71.2451905 266.014428,69.7596189 266.014428,68.1519238 L266.014428,50.8480762 C266.014428,49.2403811 266.872124,47.7548095 268.264428,46.9509619 L283.25,38.2990381 C284.642305,37.4951905 286.357695,37.4951905 287.75,38.2990381 Z" id="Mask-Copy" stroke-opacity="0.2" stroke="#9B9B9B" stroke-width="0.6" stroke-linecap="square" transform="translate(285.500000, 59.500000) rotate(49.000000) translate(-285.500000, -59.500000) "></path>
            <path d="M133.081079,85.2337162 L146.530525,96.2040524 C147.771928,97.2166293 148.381406,98.8128282 148.130799,100.395101 L145.389047,117.705843 C145.138439,119.288116 144.065538,120.617852 142.571991,121.197256 L126.390787,127.474558 C124.881292,128.060148 123.173578,127.789673 121.918921,126.766284 L108.469475,115.795948 C107.228072,114.783371 106.618594,113.187172 106.869201,111.604899 L109.610953,94.2941567 C109.861561,92.711884 110.934462,91.3821479 112.428009,90.8027445 L128.609213,84.5254422 C130.118708,83.9398519 131.826422,84.2103272 133.081079,85.2337162 Z M129.495024,87.9208518 C128.328937,87.2420871 126.888103,87.2420871 125.722016,87.9208518 L113.177496,95.2228636 C112.023729,95.8944571 111.313999,97.1287934 111.313999,98.46379 L111.313999,113.121056 C111.313999,114.456052 112.023729,115.690388 113.177496,116.361982 L125.722016,123.663994 C126.888103,124.342759 128.328937,124.342759 129.495024,123.663994 L142.039544,116.361982 C143.193311,115.690388 143.903041,114.456052 143.903041,113.121056 L143.903041,98.46379 C143.903041,97.1287934 143.193311,95.8944571 142.039544,95.2228636 L129.495024,87.9208518 Z" id="Mask" stroke-opacity="0.2" stroke="#9B9B9B" fill="#FFFFFF" stroke-linecap="square" transform="translate(127.500000, 106.000000) rotate(44.000000) translate(-127.500000, -106.000000) "></path>
            <path d="M303.25,-26.7009619 L353.3096,2.20096189 C354.701905,3.00480947 355.5596,4.49038106 355.5596,6.09807621 L355.5596,63.9019238 C355.5596,65.5096189 354.701905,66.9951905 353.3096,67.7990381 L303.25,96.7009619 C301.857695,97.5048095 300.142305,97.5048095 298.75,96.7009619 L248.6904,67.7990381 C247.298095,66.9951905 246.4404,65.5096189 246.4404,63.9019238 L246.4404,6.09807621 C246.4404,4.49038106 247.298095,3.00480947 248.6904,2.20096189 L298.75,-26.7009619 C300.142305,-27.5048095 301.857695,-27.5048095 303.25,-26.7009619 Z" id="Mask-Copy" stroke-opacity="0.2" stroke="#9B9B9B" stroke-width="0.6" stroke-linecap="square" transform="translate(301.000000, 35.000000) rotate(5.000000) translate(-301.000000, -35.000000) "></path>
            <path d="M152.375,43.0825318 L194.091334,67.1674682 C195.251588,67.8373412 195.966334,69.0753175 195.966334,70.4150635 L195.966334,118.584936 C195.966334,119.924682 195.251588,121.162659 194.091334,121.832532 L152.375,145.917468 C151.214746,146.587341 149.785254,146.587341 148.625,145.917468 L106.908666,121.832532 C105.748412,121.162659 105.033666,119.924682 105.033666,118.584936 L105.033666,70.4150635 C105.033666,69.0753175 105.748412,67.8373412 106.908666,67.1674682 L148.625,43.0825318 C149.785254,42.4126588 151.214746,42.4126588 152.375,43.0825318 Z" id="Mask" stroke-opacity="0.2" stroke="#9B9B9B" stroke-width="0.5" stroke-linecap="square"></path>
            <g id="Logo" transform="translate(92.000000, 51.000000)">
                <path d="M95.4,11 L98.8,11 L98.8,30.2 L87,30.2 C85.3431458,30.2 84,28.8568542 84,27.2 L84,19.2 C84,17.5431458 85.3431458,16.2 87,16.2 L95.4,16.2 L95.4,11 Z M88,19.6 C87.6686292,19.6 87.4,19.8686292 87.4,20.2 L87.4,26.2 C87.4,26.5313708 87.6686292,26.8 88,26.8 L95.4,26.8 L95.4,19.6 L88,19.6 Z" id="d" fill="#000000"></path>
                <g id="i" stroke-width="1" transform="translate(79.200000, 11.000000)">
                    <polygon id="Path-6" fill="#000000" points="0 5.2 3.4 5.2 3.4 19.2 0 19.2"></polygon>
                    <polygon id="Path-7" fill="#E11F22" points="0 1.13686838e-13 3.4 1.13686838e-13 3.4 3.4 0 3.4"></polygon>
                </g>
                <path d="M66.2,30.2 L69.6,30.2 L69.6,20.2 C69.6,19.8686292 69.8686292,19.6 70.2,19.6 L77.8,19.6 L77.8,16.2 L69.2,16.2 C67.5431458,16.2 66.2,17.5431458 66.2,19.2 L66.2,30.2 Z" id="r" fill="#000000"></path>
                <path d="M64.8,17.2 L64.8,15.2 C64.8,13.5431458 63.4568542,12.2 61.8,12.2 L49.8,12.2 C48.1431458,12.2 46.8,13.5431458 46.8,15.2 L46.8,27.2 C46.8,28.8568542 48.1431458,30.2 49.8,30.2 L61.8,30.2 C63.4568542,30.2 64.8,28.8568542 64.8,27.2 L64.8,20 L57.4,20 L57.4,23.4 L61.4,23.4 L61.4,26.2 C61.4,26.5313708 61.1313708,26.8 60.8,26.8 L50.8,26.8 C50.4686292,26.8 50.2,26.5313708 50.2,26.2 L50.2,16.2 C50.2,15.8686292 50.4686292,15.6 50.8,15.6 L60.8,15.6 C61.1313708,15.6 61.4,15.8686292 61.4,16.2 L61.4,17.2 L64.8,17.2 Z" id="G" fill="#000000"></path>
                <g id="ag" stroke-width="1">
                    <g id="Combined-Shape">
                        <mask id="mask-2" fill="white">
                            <use xlink:href="#path-1"></use>
                        </mask>
                        <use fill="#E11F22" xlink:href="#path-1"></use>
                    </g>
                    <rect id="g" fill="#E11F22" x="24" y="18.4" width="9.6" height="9.2" rx="0.6"></rect>
                    <path d="M8,24.2 L17.4,24.2 L17.4,27.6 L8.6,27.6 C8.26862915,27.6 8,27.3313708 8,27 L8,24.2 Z" id="Combined-Shape" fill="#E11F22"></path>
                </g>
            </g>
        </g>
    </g>
</svg>