<?xml version="1.0" encoding="UTF-8"?>
<svg width="400px" height="400px" viewBox="0 0 400 400" version="1.1" xmlns="http://www.w3.org/2000/svg" xmlns:xlink="http://www.w3.org/1999/xlink">
    <!-- Generator: Sketch 47.1 (45422) - http://www.bohemiancoding.com/sketch -->
    <title>hexagons</title>
    <desc>Created with Sketch.</desc>
    <defs></defs>
    <g id="Logo" stroke="none" stroke-width="1" fill="none" fill-rule="evenodd" stroke-linecap="square" stroke-opacity="0.1">
        <g id="hexagons" stroke="#FFFFFF">
            <path d="M77.2624861,33.9646171 L120.724972,59.0576952 L120.724972,59.0576952 C122.95266,60.3438513 124.324972,62.7207658 124.324972,65.2930781 L124.324972,115.479234 L124.324972,115.479234 C124.324972,118.051546 122.95266,120.428461 120.724972,121.714617 L77.2624861,146.807695 L77.2624861,146.807695 C75.0347984,148.093851 72.2901739,148.093851 70.0624861,146.807695 L26.6,121.714617 L26.6,121.714617 C24.3723122,120.428461 23,118.051546 23,115.479234 L23,65.2930781 L23,65.2930781 C23,62.7207658 24.3723122,60.3438513 26.6,59.0576952 L70.0624861,33.9646171 L70.0624861,33.9646171 C72.2901739,32.678461 75.0347984,32.678461 77.2624861,33.9646171 L77.2624861,33.9646171 Z M81.5514399,45.8840286 L81.5514399,45.8840286 C79.8866045,44.6744548 77.7029331,44.4449417 75.8229938,45.2819446 L75.8229938,45.2819446 L38.9624167,61.6933309 C37.0824774,62.5303338 35.7918776,64.3066921 35.5767737,66.3532688 L31.3591626,106.481158 C31.1440587,108.527735 32.0371302,110.533606 33.7019656,111.74318 L66.3449316,135.459683 C68.009767,136.669257 70.1934384,136.89877 72.0733777,136.061767 L72.0733777,136.061767 L108.933955,119.650381 C110.813894,118.813378 112.104494,117.037019 112.319598,114.990443 L112.319598,114.990443 L116.537209,74.8625534 C116.752313,72.8159768 115.859241,70.8101054 114.194406,69.6005316 L81.5514399,45.8840286 Z" id="Combined-Shape"></path>
            <path d="M288.916282,211.052577 L338.61403,218.03714 L338.61403,218.03714 C341.161308,218.395136 343.324102,220.084896 344.287707,222.469902 L363.087772,269.001696 L363.087772,269.001696 C364.051377,271.386702 363.669399,274.104616 362.085726,276.131626 L331.188043,315.678857 C329.604369,317.705866 327.059598,318.734021 324.512319,318.376024 L274.814571,311.391461 L274.814571,311.391461 C272.267292,311.033465 270.104499,309.343705 269.140894,306.958699 L250.340829,260.426905 L250.340829,260.426905 C249.377224,258.041898 249.759201,255.323984 251.342875,253.296975 L282.240558,213.749744 L282.240558,213.749744 C283.824232,211.722734 286.369003,210.69458 288.916282,211.052577 L288.916282,211.052577 Z M323.352035,226.902438 L323.352035,226.902438 C322.136971,225.504667 320.268504,224.861302 318.450467,225.214693 L318.450467,225.214693 L282.6073,232.181899 C280.789263,232.535289 279.297859,233.831747 278.694885,235.582909 L278.694885,235.582909 L266.807079,270.107605 C266.204106,271.858766 266.581169,273.798589 267.796233,275.19636 L267.796233,275.19636 L291.751594,302.75385 C292.966657,304.151621 294.835125,304.794986 296.653162,304.441595 L296.653162,304.441595 L332.496329,297.47439 C334.314366,297.120999 335.80577,295.824541 336.408743,294.07338 L348.296549,259.548684 C348.899523,257.797522 348.522459,255.857699 347.307396,254.459928 L347.307396,254.459928 L323.352035,226.902438 Z" id="Combined-Shape-Copy"></path>
            <path d="M225.818016,26.4501585 L242.266342,38.400567 L242.266342,38.400567 C243.09876,39.0053539 243.545295,40.0082896 243.437743,41.0315779 L241.312549,61.2514504 L241.312549,61.2514504 C241.204997,62.2747388 240.559697,63.1629179 239.619728,63.5814194 L221.046207,71.8508834 L221.046207,71.8508834 C220.106238,72.2693849 219.014402,72.1546283 218.181984,71.5498415 L201.733658,59.599433 L201.733658,59.599433 C200.90124,58.9946461 200.454705,57.9917104 200.562257,56.9684221 L202.687451,36.7485496 L202.687451,36.7485496 C202.795003,35.7252612 203.440303,34.8370821 204.380272,34.4185806 L222.953793,26.1491166 L222.953793,26.1491166 C223.893762,25.7306151 224.985598,25.8453717 225.818016,26.4501585 Z" id="Mask-Copy-3"></path>
            <path d="M51.8180158,335.450159 L68.2663419,347.400567 L68.2663419,347.400567 C69.0987596,348.005354 69.5452954,349.00829 69.4377434,350.031578 L67.3125492,370.25145 L67.3125492,370.25145 C67.2049973,371.274739 66.5596973,372.162918 65.6197277,372.581419 L47.0462073,380.850883 L47.0462073,380.850883 C46.1062376,381.269385 45.014402,381.154628 44.1819842,380.549841 L27.7336581,368.599433 L27.7336581,368.599433 C26.9012404,367.994646 26.4547046,366.99171 26.5622566,365.968422 L28.6874508,345.74855 L28.6874508,345.74855 C28.7950027,344.725261 29.4403027,343.837082 30.3802723,343.418581 L48.9537927,335.149117 L48.9537927,335.149117 C49.8937624,334.730615 50.985598,334.845372 51.8180158,335.450159 Z" id="Mask-Copy-7"></path>
            <path d="M48.7812987,341.060584 L58.5766838,348.177348 L58.5766838,348.177348 C59.0761344,348.54022 59.3440559,349.141982 59.2795247,349.755955 L58.013919,361.797389 L58.013919,361.797389 C57.9493878,362.411362 57.5622079,362.94427 56.9982261,363.19537 L45.9372352,368.120041 L45.9372352,368.120041 C45.3732534,368.371142 44.718152,368.302288 44.2187013,367.939416 L34.4233162,360.822652 L34.4233162,360.822652 C33.9238656,360.45978 33.6559441,359.858018 33.7204753,359.244045 L34.986081,347.202611 L34.986081,347.202611 C35.0506122,346.588638 35.4377921,346.05573 36.0017739,345.80463 L47.0627648,340.879959 L47.0627648,340.879959 C47.6267466,340.628858 48.281848,340.697712 48.7812987,341.060584 Z" id="Mask-Copy-8" transform="translate(46.500000, 354.500000) rotate(8.000000) translate(-46.500000, -354.500000) "></path>
            <path d="M348.909008,116.725079 L357.133171,122.700283 L357.133171,122.700283 C357.54938,123.002677 357.772648,123.504145 357.718872,124.015789 L356.656275,134.125725 L356.656275,134.125725 C356.602499,134.637369 356.279849,135.081459 355.809864,135.29071 L346.523104,139.425442 L346.523104,139.425442 C346.053119,139.634692 345.507201,139.577314 345.090992,139.274921 L336.866829,133.299717 L336.866829,133.299717 C336.45062,132.997323 336.227352,132.495855 336.281128,131.984211 L337.343725,121.874275 L337.343725,121.874275 C337.397501,121.362631 337.720151,120.918541 338.190136,120.70929 L347.476896,116.574558 L347.476896,116.574558 C347.946881,116.365308 348.492799,116.422686 348.909008,116.725079 Z" id="Mask-Copy-4"></path>
            <path d="M378.909008,26.7250793 L387.133171,32.7002835 L387.133171,32.7002835 C387.54938,33.0026769 387.772648,33.5041448 387.718872,34.015789 L386.656275,44.1257252 L386.656275,44.1257252 C386.602499,44.6373694 386.279849,45.081459 385.809864,45.2907097 L376.523104,49.4254417 L376.523104,49.4254417 C376.053119,49.6346925 375.507201,49.5773142 375.090992,49.2749207 L366.866829,43.2997165 L366.866829,43.2997165 C366.45062,42.9973231 366.227352,42.4958552 366.281128,41.984211 L367.343725,31.8742748 L367.343725,31.8742748 C367.397501,31.3626306 367.720151,30.918541 368.190136,30.7092903 L377.476896,26.5745583 L377.476896,26.5745583 C377.946881,26.3653075 378.492799,26.4226858 378.909008,26.7250793 Z" id="Mask-Copy-12"></path>
            <path d="M311.818016,15.4501585 L328.266342,27.400567 L328.266342,27.400567 C329.09876,28.0053539 329.545295,29.0082896 329.437743,30.0315779 L327.312549,50.2514504 L327.312549,50.2514504 C327.204997,51.2747388 326.559697,52.1629179 325.619728,52.5814194 L307.046207,60.8508834 L307.046207,60.8508834 C306.106238,61.2693849 305.014402,61.1546283 304.181984,60.5498415 L287.733658,48.599433 L287.733658,48.599433 C286.90124,47.9946461 286.454705,46.9917104 286.562257,45.9684221 L288.687451,25.7485496 L288.687451,25.7485496 C288.795003,24.7252612 289.440303,23.8370821 290.380272,23.4185806 L308.953793,15.1491166 L308.953793,15.1491166 C309.893762,14.7306151 310.985598,14.8453717 311.818016,15.4501585 Z" id="Mask-Copy-5" transform="translate(308.000000, 38.000000) rotate(45.000000) translate(-308.000000, -38.000000) "></path>
            <path d="M261.818016,105.450159 L278.266342,117.400567 L278.266342,117.400567 C279.09876,118.005354 279.545295,119.00829 279.437743,120.031578 L277.312549,140.25145 L277.312549,140.25145 C277.204997,141.274739 276.559697,142.162918 275.619728,142.581419 L257.046207,150.850883 L257.046207,150.850883 C256.106238,151.269385 255.014402,151.154628 254.181984,150.549841 L237.733658,138.599433 L237.733658,138.599433 C236.90124,137.994646 236.454705,136.99171 236.562257,135.968422 L238.687451,115.74855 L238.687451,115.74855 C238.795003,114.725261 239.440303,113.837082 240.380272,113.418581 L258.953793,105.149117 L258.953793,105.149117 C259.893762,104.730615 260.985598,104.845372 261.818016,105.450159 Z" id="Mask-Copy-6" transform="translate(258.000000, 128.000000) rotate(-330.000000) translate(-258.000000, -128.000000) "></path>
            <path d="M262.123603,101.178496 L282.055522,115.659883 L282.055522,115.659883 C283.062748,116.391675 283.603056,117.605227 283.472918,118.843406 L280.897629,143.345648 L280.897629,143.345648 C280.767491,144.583826 279.986678,145.658523 278.849315,146.16491 L256.342107,156.185765 L256.342107,156.185765 C255.204743,156.692151 253.883622,156.553296 252.876397,155.821504 L232.944478,141.340117 L232.944478,141.340117 C231.937252,140.608325 231.396944,139.394773 231.527082,138.156594 L234.102371,113.654352 L234.102371,113.654352 C234.232509,112.416174 235.013322,111.341477 236.150685,110.83509 L258.657893,100.814235 L258.657893,100.814235 C259.795257,100.307849 261.116378,100.446704 262.123603,101.178496 Z" id="Mask-Copy-10" transform="translate(257.500000, 128.500000) rotate(-330.000000) translate(-257.500000, -128.500000) "></path>
            <path d="M264.01544,93.4368004 L289.96374,112.289344 L289.96374,112.289344 C291.273133,113.240673 291.975533,114.818291 291.806354,116.427924 L288.453723,148.326082 L288.453723,148.326082 C288.284543,149.935715 287.269487,151.332821 285.790914,151.991124 L256.489983,165.036739 L256.489983,165.036739 C255.011411,165.695041 253.293953,165.514529 251.98456,164.5632 L226.03626,145.710656 L226.03626,145.710656 C224.726867,144.759327 224.024467,143.181709 224.193646,141.572076 L227.546277,109.673918 L227.546277,109.673918 C227.715457,108.064285 228.730513,106.667179 230.209086,106.008876 L259.510017,92.9632614 L259.510017,92.9632614 C260.988589,92.3049586 262.706047,92.4854706 264.01544,93.4368004 Z" id="Mask-Copy-11" transform="translate(258.000000, 129.000000) rotate(-330.000000) translate(-258.000000, -129.000000) "></path>
            <path d="M147.272063,145.800634 L213.065368,193.602268 L213.065368,193.602268 C216.395039,196.021415 218.181182,200.033158 217.750974,204.126312 L209.250197,285.005802 L209.250197,285.005802 C208.819989,289.098955 206.238789,292.651672 202.478911,294.325678 L128.184829,327.403534 L128.184829,327.403534 C124.424951,329.07754 120.057608,328.618513 116.727937,326.199366 L50.9346323,278.397732 L50.9346323,278.397732 C47.6049614,275.978585 45.8188185,271.966842 46.2490262,267.873688 L54.7498032,186.994198 L54.7498032,186.994198 C55.1800109,182.901045 57.7612106,179.348328 61.5210893,177.674322 L135.815171,144.596466 L135.815171,144.596466 C139.575049,142.92246 143.942392,143.381487 147.272063,145.800634 Z" id="Mask-Copy-9" transform="translate(132.000000, 236.000000) rotate(-338.000000) translate(-132.000000, -236.000000) "></path>
        </g>
    </g>
</svg>