<?xml version="1.0" encoding="UTF-8"?>
<svg width="34px" height="30px" viewBox="0 0 34 30" version="1.1" xmlns="http://www.w3.org/2000/svg" xmlns:xlink="http://www.w3.org/1999/xlink">
    <!-- Generator: Sketch 48.1 (47250) - http://www.bohemiancoding.com/sketch -->
    <title>note</title>
    <desc>Created with Sketch.</desc>
    <defs>
        <path d="M15.0798773,8 L16.9201227,8 C17.4724075,8 17.9201227,8.44771525 17.9201227,9 C17.9201227,9.02559377 17.9191401,9.05117811 17.9171772,9.0766965 L17.0710233,20.0766965 C17.0309466,20.5976937 16.5965052,21 16.0739689,21 L15.9260311,21 C15.4034948,21 14.9690534,20.5976937 14.9289767,20.0766965 L14.0828228,9.0766965 C14.0404645,8.52603851 14.4525228,8.04530382 15.0031808,8.00294551 C15.0286992,8.00098256 15.0542835,8 15.0798773,8 Z" id="path-1"></path>
    </defs>
    <g id="Desktop" stroke="none" stroke-width="1" fill="none" fill-rule="evenodd" transform="translate(-849.000000, -722.000000)">
        <g id="note" transform="translate(850.000000, 722.000000)">
            <path d="M18.5980762,2.5 L31.5884573,25 C32.4168844,26.4348779 31.9252589,28.2696491 30.4903811,29.0980762 C30.0343234,29.3613812 29.516991,29.5 28.9903811,29.5 L3.00961894,29.5 C1.35276469,29.5 0.00961894323,28.1568542 0.00961894323,26.5 C0.00961894323,25.97339 0.148237737,25.4560576 0.411542732,25 L13.4019238,2.5 C14.2303509,1.06512213 16.0651221,0.573496664 17.5,1.40192379 C17.9560576,1.66522878 18.3347712,2.04394237 18.5980762,2.5 Z" id="Polygon-2" stroke="#E11F22"></path>
            <g id="Rectangle-3">
                <use fill="#E11F22" fill-rule="evenodd" xlink:href="#path-1"></use>
                <path stroke="#E11F22" stroke-width="1" d="M15.0798773,8.5 C15.0606843,8.50024564 15.0606843,8.50024564 15.041529,8.50147276 C14.7662001,8.52265191 14.5601709,8.76301926 14.5813501,9.03834825 L15.4275039,20.0383482 C15.4475422,20.2988468 15.664763,20.5 15.9260311,20.5 L16.0739689,20.5 C16.335237,20.5 16.5524578,20.2988468 16.5724961,20.0383482 L17.4186499,9.03834825 C17.4198771,9.01919297 17.4198771,9.01919297 17.4201227,9 C17.4201227,8.72385763 17.1962651,8.5 16.9201227,8.5 L15.0798773,8.5 Z"></path>
            </g>
            <rect id="Rectangle-3-Copy" stroke="#E11F22" x="15.5" y="24.5" width="1" height="1" rx="0.5"></rect>
        </g>
    </g>
</svg>