<?xml version="1.0" encoding="UTF-8" standalone="no"?><!DOCTYPE svg PUBLIC "-//W3C//DTD SVG 1.1//EN" "http://www.w3.org/Graphics/SVG/1.1/DTD/svg11.dtd"><svg width="100%" height="100%" viewBox="0 0 24 24" version="1.1" xmlns="http://www.w3.org/2000/svg" xmlns:xlink="http://www.w3.org/1999/xlink" xml:space="preserve" xmlns:serif="http://www.serif.com/" style="fill-rule:evenodd;clip-rule:evenodd;stroke-linejoin:round;stroke-miterlimit:2;"><path id="a_1_" d="M16.2,9.6c0.4,-0.2 0.9,-0.2 1.3,0c0.4,0.1 0.8,0.4 1.1,0.8c0.3,0.3 0.4,0.7 0.4,1.2l0,2.6c0,0.2 0,0.3 -0.1,0.5l-0.8,3.7c-0.1,0.5 -0.4,0.9 -0.7,1.2c-0.4,0.2 -0.9,0.4 -1.3,0.4l-5.6,0c-0.3,0 -0.6,-0.1 -0.9,-0.2c-0.3,-0.2 -0.5,-0.4 -0.8,-0.6l-3.4,-4.8c-0.3,-0.5 -0.5,-1.1 -0.4,-1.6c0.1,-0.5 0.4,-1 0.8,-1.4c0.3,-0.2 0.6,-0.3 1,-0.4c0.3,-0.1 0.7,0 1,0.1l0,-5c0,-0.6 0.2,-1.1 0.6,-1.5c0.4,-0.4 0.9,-0.6 1.5,-0.6c0.6,0 1.1,0.2 1.5,0.6c0.3,0.4 0.5,0.9 0.5,1.5l0,2.3c0.3,-0.1 0.6,0 0.9,0.1c0.4,0.1 0.7,0.3 0.9,0.5c0.4,-0.2 0.9,-0.2 1.3,-0.1c0.5,0.1 0.9,0.3 1.2,0.7Zm-8.7,3.2c-0.1,-0.3 -0.3,-0.3 -0.5,-0.3c-0.2,0 -0.4,0.2 -0.5,0.4c0,0.2 0,0.4 0.1,0.5l3.4,4.9c0.1,0.2 0.3,0.2 0.5,0.2l5.6,0c0.1,0 0.3,0 0.4,-0.1c0.1,-0.1 0.2,-0.2 0.2,-0.3l0.8,-3.7l0,-2.8c0,-0.2 -0.1,-0.4 -0.3,-0.5c-0.2,-0.1 -0.4,-0.1 -0.6,-0.1c-0.2,0.1 -0.3,0.3 -0.3,0.5c0,0.1 0,0.3 -0.1,0.4c-0.1,0.1 -0.2,0.2 -0.4,0.2l-0.2,0c-0.1,0 -0.3,0 -0.4,-0.1c-0.1,-0.1 -0.1,-0.2 -0.1,-0.4l0,-0.7c0,-0.2 -0.1,-0.4 -0.3,-0.5c-0.2,-0.1 -0.4,-0.1 -0.6,0c-0.1,0.1 -0.2,0.3 -0.2,0.5l0,0.7c0,0.1 0,0.3 -0.1,0.4c-0.1,0 -0.3,0.1 -0.4,0.1l-0.2,0c-0.1,0 -0.3,-0.1 -0.4,-0.2c-0.1,-0.1 -0.1,-0.2 -0.1,-0.3l0,-1.1c0,-0.3 -0.1,-0.5 -0.3,-0.5c-0.2,-0.1 -0.4,-0.1 -0.6,0c-0.2,0 -0.2,0.2 -0.2,0.5l0,1.1c0,0.1 -0.1,0.3 -0.2,0.4c-0.1,0 -0.2,0.1 -0.3,0.1l-0.3,0c-0.1,0 -0.3,0 -0.4,-0.1c0,-0.2 -0.1,-0.3 -0.1,-0.4l0,-5.5c0,-0.2 -0.1,-0.4 -0.3,-0.5c-0.1,-0.1 -0.4,-0.1 -0.5,0c-0.2,0.1 -0.3,0.2 -0.3,0.5l0,7.5c0,0.2 -0.1,0.4 -0.3,0.5c-0.2,0.1 -0.4,0 -0.6,-0.2l-0.9,-1.1Z" style="fill-rule:nonzero;"/></svg>