<?xml version="1.0" encoding="UTF-8" standalone="no"?><!DOCTYPE svg PUBLIC "-//W3C//DTD SVG 1.1//EN" "http://www.w3.org/Graphics/SVG/1.1/DTD/svg11.dtd"><svg width="100%" height="100%" viewBox="0 0 24 24" version="1.1" xmlns="http://www.w3.org/2000/svg" xmlns:xlink="http://www.w3.org/1999/xlink" xml:space="preserve" xmlns:serif="http://www.serif.com/" style="fill-rule:evenodd;clip-rule:evenodd;stroke-linejoin:round;stroke-miterlimit:2;"><path id="a_1_" d="M20.3,16.3c0.5,0.2 1,0.6 1.3,1c0.3,0.5 0.5,1 0.5,1.6c0,0.8 -0.3,1.5 -0.8,2c-0.6,0.6 -1.2,0.8 -2,0.8c-0.6,0 -1.1,-0.2 -1.6,-0.5c-0.5,-0.3 -0.8,-0.8 -1,-1.3l-9.2,0c-0.2,0.5 -0.6,1 -1,1.3c-0.5,0.3 -1,0.5 -1.6,0.5c-0.8,0 -1.5,-0.3 -2,-0.8c-0.6,-0.6 -0.8,-1.2 -0.8,-2c0,-0.6 0.2,-1.1 0.5,-1.6c0.3,-0.5 0.8,-0.8 1.3,-1l0,-9.1c-0.5,-0.2 -1,-0.6 -1.3,-1c-0.3,-0.5 -0.5,-1 -0.5,-1.6c0,-0.8 0.3,-1.5 0.8,-2c0.4,-0.6 1.1,-0.9 1.9,-0.9c0.6,-0 1.1,0.2 1.6,0.5c0.5,0.3 0.8,0.8 1,1.3l9.1,-0c0.2,-0.5 0.6,-1 1,-1.3c0.5,-0.3 1,-0.5 1.6,-0.5c0.8,-0 1.5,0.3 2,0.8c0.6,0.6 0.8,1.2 0.8,2c0,0.6 -0.2,1.1 -0.5,1.6c-0.3,0.5 -0.8,0.8 -1.3,1l0.2,9.2Zm-14.4,-0c0.7,0.3 1.3,0.8 1.6,1.6l9.1,-0c0.3,-0.7 0.8,-1.3 1.6,-1.6l-0,-9.1c-0.7,-0.3 -1.3,-0.8 -1.6,-1.6l-9.1,-0c-0.3,0.8 -0.9,1.4 -1.6,1.6l-0,9.1Zm13.3,-12.4c-0.2,-0 -0.4,0.1 -0.5,0.2c-0.1,0.1 -0.2,0.3 -0.2,0.5c-0,0.2 0.1,0.4 0.2,0.5c0.1,0.1 0.3,0.2 0.5,0.2c0.2,-0 0.4,-0.1 0.5,-0.2c0.1,-0.1 0.2,-0.3 0.2,-0.5c-0,-0.2 -0.1,-0.4 -0.2,-0.5c-0.1,-0.2 -0.3,-0.2 -0.5,-0.2Zm-14.4,-0c-0.2,-0 -0.4,0.1 -0.5,0.2c-0.1,0.1 -0.2,0.3 -0.2,0.5c-0,0.2 0.1,0.4 0.2,0.5c0.1,0.1 0.3,0.2 0.5,0.2c0.2,-0 0.4,-0.1 0.5,-0.2c0.2,-0.1 0.2,-0.3 0.2,-0.5c-0,-0.2 -0.1,-0.4 -0.2,-0.5c-0.1,-0.2 -0.3,-0.2 -0.5,-0.2Zm-0,15.8c0.2,-0 0.4,-0.1 0.5,-0.2c0.1,-0.1 0.2,-0.3 0.2,-0.5c-0,-0.2 -0.1,-0.4 -0.2,-0.5c-0.1,-0.1 -0.3,-0.2 -0.5,-0.2c-0.2,-0 -0.4,0.1 -0.5,0.2c-0.1,0.1 -0.2,0.3 -0.2,0.5c-0,0.2 0.1,0.4 0.2,0.5c0.1,0.1 0.3,0.2 0.5,0.2Zm14.4,-0c0.2,-0 0.4,-0.1 0.5,-0.2c0.1,-0.1 0.2,-0.3 0.2,-0.5c-0,-0.2 -0.1,-0.4 -0.2,-0.5c-0.1,-0.1 -0.3,-0.2 -0.5,-0.2c-0.2,-0 -0.4,0.1 -0.5,0.2c-0.1,0.1 -0.2,0.3 -0.2,0.5c-0,0.2 0.1,0.4 0.2,0.5c0.1,0.1 0.3,0.2 0.5,0.2Z" style="fill-rule:nonzero;"/></svg>