<svg xmlns="http://www.w3.org/2000/svg" xml:space="preserve" style="fill-rule:evenodd;clip-rule:evenodd;stroke-linejoin:round;stroke-miterlimit:2" viewBox="0 0 24 24"><path d="M18.5 3.6c.5 0 .9.2 1.3.5.3.3.5.8.5 1.3v13.1c0 .5-.2.9-.5 1.3-.3.3-.8.5-1.3.5h-13c-.5 0-.9-.2-1.3-.5-.3-.3-.5-.8-.5-1.3V5.3c0-.5.2-.9.5-1.3s.8-.4 1.3-.4h13Zm-.2 14.8s.1 0 .1-.1l.1-.1V5.6s0-.1-.1-.1-.1-.1-.1-.1H5.7s-.1 0-.1.1l-.1.1v12.6c0 .1 0 .1.1.1 0 .1.1.1.1.1h12.6Zm-2-11.3c.1 0 .2 0 .3.1.1.1.1.2.1.3v5c0 .2-.1.4-.3.4-.2.1-.3 0-.5-.1L14.1 11l-5.3 5.3c-.1.1-.2.2-.3.1-.1 0-.2-.1-.3-.1l-.8-.8c-.1-.1-.1-.2-.1-.3 0-.1.1-.2.1-.3l5.3-5.3L11 7.9c-.2-.2-.2-.3-.2-.5.1-.2.2-.3.4-.3h5.1Z" style="fill-rule:nonzero"/></svg>