<svg xmlns="http://www.w3.org/2000/svg" xml:space="preserve" style="fill-rule:evenodd;clip-rule:evenodd;stroke-linejoin:round;stroke-miterlimit:2" viewBox="0 0 24 24"><path d="M20.3 8.3h-.6v7.1h.6c.3 0 .6.1.8.4.2.3.4.5.4.8v3.6c0 .3-.1.6-.4.8-.2.2-.5.4-.8.4h-3.6c-.3 0-.6-.1-.8-.4-.2-.2-.4-.5-.4-.8v-.6H8.4v.6c0 .3-.1.6-.4.8-.2.2-.5.4-.8.4H3.7c-.3 0-.6-.1-.8-.4-.2-.2-.4-.5-.4-.8v-3.6c0-.3.1-.6.4-.8.3-.2.5-.4.8-.4h.6V8.3h-.6c-.3 0-.6-.1-.8-.3-.3-.3-.4-.6-.4-.9V3.6c0-.3.1-.6.4-.8.3-.2.5-.4.8-.4h3.6c.3 0 .6.1.8.4.2.3.4.5.4.8v.6h7.1v-.6c0-.3.1-.6.4-.8.3-.2.5-.4.8-.4h3.6c.3 0 .6.1.8.4.2.3.4.5.4.8v3.6c0 .3-.1.6-.4.8-.3.2-.6.3-.9.3Zm-3-4.1v2.4h2.4V4.2h-2.4Zm-13 0v2.4h2.4V4.2H4.3Zm2.4 15.4v-2.4H4.3v2.4h2.4Zm13 0v-2.4h-2.4v2.4h2.4Zm-1.8-4.2V8.3h-1.2c-.3 0-.6-.1-.8-.4-.2-.2-.4-.5-.4-.8V5.9H8.4v1.2c0 .3-.1.6-.4.8-.1.3-.4.4-.8.4H6.1v7.1h1.2c.3 0 .6.1.8.4.2.3.4.5.4.8v1.2h7.1v-1.2c0-.3.1-.6.4-.8.3-.2.5-.4.8-.4h1.1Z" style="fill-rule:nonzero"/></svg>