<svg xmlns="http://www.w3.org/2000/svg" xml:space="preserve" style="fill-rule:evenodd;clip-rule:evenodd;stroke-linejoin:round;stroke-miterlimit:2" viewBox="0 0 24 24"><path d="M19.5 5c.4 0 .8.1 1.1.4.3.3.4.7.4 1.1v11c0 .4-.1.8-.4 1.1-.3.3-.7.4-1.1.4h-15c-.4 0-.8-.1-1.1-.4-.2-.3-.4-.7-.4-1.1v-11c0-.4.1-.8.4-1.1.3-.2.7-.4 1.1-.4h15Zm-.2 12.5s.1 0 .1-.1l.1-.1V6.7s0-.1-.1-.1l-.1-.1H4.7s-.1 0-.1.1l-.1.1v10.6s0 .1.1.1l.1.1h14.6Zm-.3-3.2c0 .2-.1.4-.2.5-.1.1-.3.2-.5.2h-.8v.6c0 .1 0 .2-.1.3-.1.1-.2.1-.3.1h-.2c-.1 0-.2 0-.3-.1-.1-.1-.1-.2-.1-.3V15h-.8c-.2 0-.4-.1-.5-.2-.1-.2-.2-.4-.2-.5v-2.5c0-.2.1-.4.2-.5.2-.2.4-.3.6-.3h.8V8.4c0-.1 0-.2.1-.3 0-.1.1-.1.2-.1h.2c.1 0 .2 0 .3.1.1.1.1.2.1.3V11h.8c.2 0 .4.1.5.2.1.2.2.4.2.6v2.5Z" style="fill-rule:nonzero"/></svg>