<?xml version="1.0" encoding="UTF-8" standalone="no"?><!DOCTYPE svg PUBLIC "-//W3C//DTD SVG 1.1//EN" "http://www.w3.org/Graphics/SVG/1.1/DTD/svg11.dtd"><svg width="100%" height="100%" viewBox="0 0 24 24" version="1.1" xmlns="http://www.w3.org/2000/svg" xmlns:xlink="http://www.w3.org/1999/xlink" xml:space="preserve" xmlns:serif="http://www.serif.com/" style="fill-rule:evenodd;clip-rule:evenodd;stroke-linejoin:round;stroke-miterlimit:2;"><path id="a_1_" d="M16.85,5.05l-0,14.4c-0,0.3 -0.1,0.5 -0.3,0.7c-0.2,0.2 -0.4,0.3 -0.7,0.3l-3.4,0c-0.3,0 -0.5,-0.1 -0.7,-0.3c-0.2,-0.2 -0.3,-0.4 -0.3,-0.7l-0,-0.3c-1.1,0 -2.2,-0.3 -3.2,-0.8c-1,-0.5 -1.8,-1.2 -2.4,-2.1c-0.6,-0.9 -1,-1.9 -1.2,-3l-3.6,-0l0,-2l3.5,0c0.2,-1.1 0.6,-2.1 1.2,-3c0.6,-0.9 1.5,-1.6 2.4,-2.1c1,-0.5 2.1,-0.8 3.2,-0.8l0,-0.3c0,-0.3 0.1,-0.5 0.3,-0.7c0.2,-0.2 0.5,-0.3 0.7,-0.3l3.4,0c0.3,0 0.5,0.1 0.7,0.3c0.3,0.2 0.4,0.4 0.4,0.7Zm-3.4,12.1l0,1.4l1.4,0l0,-12.4l-1.4,0l0,1.4l-2.1,0c-0.9,0 -1.7,0.2 -2.4,0.6c-0.7,0.4 -1.3,1 -1.8,1.8c-0.4,0.7 -0.6,1.5 -0.6,2.4c-0,0.9 0.2,1.7 0.6,2.4c0.4,0.7 1,1.3 1.8,1.8c0.7,0.4 1.5,0.6 2.4,0.6l2.1,0Zm4.1,-1.8l4.5,0c0.3,0 0.5,0.1 0.7,0.3c0.2,0.2 0.3,0.4 0.3,0.7c0,0.3 -0.1,0.5 -0.3,0.7c-0.2,0.2 -0.4,0.3 -0.7,0.3l-4.5,0l0,-2Zm0,-8.2l4.5,0c0.3,0 0.5,0.1 0.7,0.3c0.2,0.2 0.3,0.4 0.3,0.7c0,0.3 -0.1,0.5 -0.3,0.7c-0.2,0.2 -0.4,0.3 -0.7,0.3l-4.5,0l0,-2Z" style="fill-rule:nonzero;"/></svg>