<svg xmlns="http://www.w3.org/2000/svg" xml:space="preserve" style="fill-rule:evenodd;clip-rule:evenodd;stroke-linejoin:round;stroke-miterlimit:2" viewBox="0 0 24 24"><path d="M20.3 16.3c.5.2 1 .6 1.3 1 .3.5.5 1 .5 1.6 0 .8-.3 1.5-.8 2-.6.6-1.2.8-2 .8-.6 0-1.1-.2-1.6-.5s-.8-.8-1-1.3H7.5c-.2.5-.6 1-1 1.3-.5.3-1 .5-1.6.5-.8 0-1.5-.3-2-.8-.6-.6-.8-1.2-.8-2 0-.6.2-1.1.5-1.6s.8-.8 1.3-1V7.2c-.5-.2-1-.6-1.3-1-.3-.5-.5-1-.5-1.6 0-.8.3-1.5.8-2 .4-.6 1.1-.9 1.9-.9.6 0 1.1.2 1.6.5s.8.8 1 1.3h9.1c.2-.5.6-1 1-1.3.5-.3 1-.5 1.6-.5.8 0 1.5.3 2 .8.6.6.8 1.2.8 2 0 .6-.2 1.1-.5 1.6s-.8.8-1.3 1l.2 9.2Zm-14.4 0c.7.3 1.3.8 1.6 1.6h9.1c.3-.7.8-1.3 1.6-1.6V7.2c-.7-.3-1.3-.8-1.6-1.6H7.5c-.3.8-.9 1.4-1.6 1.6v9.1ZM19.2 3.9c-.2 0-.4.1-.5.2-.1.1-.2.3-.2.5s.1.4.2.5c.1.1.3.2.5.2s.4-.1.5-.2c.1-.1.2-.3.2-.5s-.1-.4-.2-.5c-.1-.2-.3-.2-.5-.2Zm-14.4 0c-.2 0-.4.1-.5.2-.1.1-.2.3-.2.5s.1.4.2.5c.1.1.3.2.5.2s.4-.1.5-.2c.2-.1.2-.3.2-.5s-.1-.4-.2-.5c-.1-.2-.3-.2-.5-.2Zm0 15.8c.2 0 .4-.1.5-.2.1-.1.2-.3.2-.5s-.1-.4-.2-.5c-.1-.1-.3-.2-.5-.2s-.4.1-.5.2c-.1.1-.2.3-.2.5s.1.4.2.5c.1.1.3.2.5.2Zm14.4 0c.2 0 .4-.1.5-.2.1-.1.2-.3.2-.5s-.1-.4-.2-.5c-.1-.1-.3-.2-.5-.2s-.4.1-.5.2c-.1.1-.2.3-.2.5s.1.4.2.5c.1.1.3.2.5.2Z" style="fill-rule:nonzero"/></svg>