<svg xmlns="http://www.w3.org/2000/svg" xml:space="preserve" style="fill-rule:evenodd;clip-rule:evenodd;stroke-linejoin:round;stroke-miterlimit:2" viewBox="0 0 24 24"><path d="M16.2 9.6c.4-.2.9-.2 1.3 0 .4.1.8.4 1.1.8.3.3.4.7.4 1.2v2.6c0 .2 0 .3-.1.5l-.8 3.7c-.1.5-.4.9-.7 1.2-.4.2-.9.4-1.3.4h-5.6c-.3 0-.6-.1-.9-.2-.3-.2-.5-.4-.8-.6l-3.4-4.8c-.3-.5-.5-1.1-.4-1.6.1-.5.4-1 .8-1.4.3-.2.6-.3 1-.4.3-.1.7 0 1 .1v-5c0-.6.2-1.1.6-1.5.4-.4.9-.6 1.5-.6s1.1.2 1.5.6c.3.4.5.9.5 1.5v2.3c.3-.1.6 0 .9.1.4.1.7.3.9.5.4-.2.9-.2 1.3-.1.5.1.9.3 1.2.7Zm-8.7 3.2c-.1-.3-.3-.3-.5-.3s-.4.2-.5.4c0 .2 0 .4.1.5l3.4 4.9c.1.2.3.2.5.2h5.6c.1 0 .3 0 .4-.1.1-.1.2-.2.2-.3l.8-3.7v-2.8c0-.2-.1-.4-.3-.5-.2-.1-.4-.1-.6-.1-.2.1-.3.3-.3.5 0 .1 0 .3-.1.4-.1.1-.2.2-.4.2h-.2c-.1 0-.3 0-.4-.1-.1-.1-.1-.2-.1-.4v-.7c0-.2-.1-.4-.3-.5-.2-.1-.4-.1-.6 0-.1.1-.2.3-.2.5v.7c0 .1 0 .3-.1.4-.1 0-.3.1-.4.1h-.2c-.1 0-.3-.1-.4-.2-.1-.1-.1-.2-.1-.3v-1.1c0-.3-.1-.5-.3-.5-.2-.1-.4-.1-.6 0-.2 0-.2.2-.2.5v1.1c0 .1-.1.3-.2.4-.1 0-.2.1-.3.1h-.3c-.1 0-.3 0-.4-.1 0-.2-.1-.3-.1-.4V6.1c0-.2-.1-.4-.3-.5-.1-.1-.4-.1-.5 0-.2.1-.3.2-.3.5v7.5c0 .2-.1.4-.3.5-.2.1-.4 0-.6-.2l-.9-1.1Z" style="fill-rule:nonzero"/></svg>