<?xml version="1.0" encoding="UTF-8" standalone="no"?><!DOCTYPE svg PUBLIC "-//W3C//DTD SVG 1.1//EN" "http://www.w3.org/Graphics/SVG/1.1/DTD/svg11.dtd"><svg width="100%" height="100%" viewBox="0 0 40 40" version="1.1" xmlns="http://www.w3.org/2000/svg" xmlns:xlink="http://www.w3.org/1999/xlink" xml:space="preserve" xmlns:serif="http://www.serif.com/" style="fill-rule:evenodd;clip-rule:evenodd;stroke-linejoin:round;stroke-miterlimit:2;"><path d="M25.335,11.858c7.128,-0 12.915,5.787 12.915,12.915c0,7.128 -5.787,12.916 -12.915,12.916c-7.128,-0 -12.916,-5.788 -12.916,-12.916c0,-7.128 5.788,-12.915 12.916,-12.915Zm-0,4.987c4.375,0 7.928,3.553 7.928,7.928c-0,4.376 -3.553,7.928 -7.928,7.928c-4.376,-0 -7.928,-3.552 -7.928,-7.928c-0,-4.375 3.552,-7.928 7.928,-7.928Zm-3.41,-6.672c-0.273,-1.904 -1.911,-3.369 -3.89,-3.369l-7.862,-0c-2.17,-0 -3.931,1.761 -3.931,3.931l0,7.861c0,2.17 1.761,3.931 3.931,3.931l0.562,-0l-0,4.492l-2.808,0c-3.41,0 -6.177,-2.767 -6.177,-6.177l0,-12.354c0,-3.409 2.767,-6.176 6.177,-6.176l12.354,-0c3.41,-0 6.177,2.767 6.177,6.176l-0,1.685l-4.533,0Z"/></svg>