<?xml version="1.0" encoding="UTF-8" standalone="no"?><!DOCTYPE svg PUBLIC "-//W3C//DTD SVG 1.1//EN" "http://www.w3.org/Graphics/SVG/1.1/DTD/svg11.dtd"><svg width="100%" height="100%" viewBox="0 0 24 24" version="1.1" xmlns="http://www.w3.org/2000/svg" xmlns:xlink="http://www.w3.org/1999/xlink" xml:space="preserve" xmlns:serif="http://www.serif.com/" style="fill-rule:evenodd;clip-rule:evenodd;stroke-linejoin:round;stroke-miterlimit:2;"><path id="a_1_" d="M7.5,11.1c0.3,0 0.6,0.1 0.8,0.3c0.2,0.2 0.3,0.5 0.3,0.8c-0,0.3 -0.1,0.6 -0.3,0.8c-0.2,0.2 -0.5,0.3 -0.8,0.3c-0.3,-0 -0.6,-0.1 -0.8,-0.3c-0.2,-0.2 -0.3,-0.5 -0.3,-0.7c-0,-0.3 0.1,-0.6 0.3,-0.8c0.2,-0.3 0.5,-0.4 0.8,-0.4Zm10.2,-5.8c1,0.8 1.8,1.9 2.4,3.1c0.6,1.2 0.9,2.5 0.9,3.8c0,0.8 -0.3,1.5 -0.8,2c-0.6,0.6 -1.3,0.8 -2.1,0.8l-2.5,-0c-0.5,-0 -0.9,0.2 -1.1,0.6c-0.1,0.2 -0.2,0.4 -0.2,0.7c0,0.2 0,0.5 0.1,0.7c0.2,0.4 0.3,0.9 0.3,1.4c0,0.5 -0.1,0.9 -0.3,1.3c-0.2,0.4 -0.5,0.7 -0.8,1c-0.3,0.2 -0.7,0.4 -1.1,0.5c-0.3,-0 -0.6,0.1 -0.9,0.1c-1,-0 -2.1,-0.2 -3.1,-0.7c-1.1,-0.5 -2,-1.2 -2.8,-2c-1,-1 -1.8,-2.3 -2.2,-3.7c-0.5,-1.5 -0.6,-3 -0.3,-4.5c0.4,-1.8 1.2,-3.3 2.5,-4.6c1.3,-1.3 2.8,-2.1 4.6,-2.4c1.3,-0.3 2.7,-0.2 4,0.1c1.2,0.4 2.4,1 3.4,1.8Zm0.4,8.1c0.4,-0 0.6,-0.1 0.9,-0.3c0.3,-0.2 0.4,-0.5 0.4,-0.8c0,-1.1 -0.2,-2.1 -0.7,-3.1c-0.5,-1 -1.1,-1.8 -2,-2.5c-0.8,-0.7 -1.8,-1.2 -2.9,-1.4c-1.1,-0.4 -2.2,-0.4 -3.3,-0.2c-1.4,0.3 -2.7,1 -3.7,2c-1,1 -1.7,2.3 -2,3.7c-0.2,1.1 -0.2,2.3 0.2,3.5c0.3,1.2 1,2.2 1.8,3.1c0.7,0.8 1.6,1.4 2.6,1.8c1,0.4 1.9,0.5 2.8,0.4c0.3,-0 0.5,-0.2 0.7,-0.6c0.1,-0.2 0.1,-0.4 0.1,-0.6c0,-0.2 0,-0.4 -0.1,-0.6c-0.2,-0.5 -0.3,-1 -0.3,-1.5c0,-0.5 0.2,-1 0.5,-1.5c0.3,-0.5 0.6,-0.8 1.1,-1.1c0.4,-0.3 0.9,-0.4 1.5,-0.4c-0.1,0.1 2.4,0.1 2.4,0.1Zm-9.5,-5.6c0.3,0 0.6,0.1 0.8,0.3c0.2,0.2 0.3,0.5 0.3,0.8c0,0.3 -0.1,0.5 -0.3,0.8c-0.2,0.2 -0.5,0.3 -0.8,0.3c-0.3,-0 -0.5,-0.1 -0.8,-0.3c-0.2,-0.2 -0.3,-0.5 -0.3,-0.8c0,-0.3 0.1,-0.6 0.3,-0.8c0.2,-0.2 0.5,-0.3 0.8,-0.3Zm3.4,-1.2c0.3,0 0.6,0.1 0.8,0.3c0.2,0.2 0.3,0.5 0.3,0.8c0,0.3 -0.1,0.6 -0.3,0.8c-0.2,0.3 -0.5,0.4 -0.8,0.4c-0.3,0 -0.6,-0.1 -0.8,-0.3c-0.2,-0.3 -0.3,-0.6 -0.3,-0.8c0,-0.4 0.1,-0.6 0.3,-0.8c0.2,-0.3 0.5,-0.4 0.8,-0.4Zm3.4,1.2c0.3,0 0.6,0.1 0.8,0.3c0.2,0.2 0.3,0.5 0.3,0.8c0,0.3 -0.1,0.6 -0.3,0.8c-0.2,0.2 -0.5,0.3 -0.8,0.3c-0.3,-0 -0.6,-0.1 -0.8,-0.3c-0.2,-0.2 -0.3,-0.5 -0.3,-0.8c0,-0.3 0.1,-0.6 0.3,-0.8c0.2,-0.2 0.5,-0.3 0.8,-0.3Z" style="fill-rule:nonzero;"/></svg>