<svg xmlns="http://www.w3.org/2000/svg" xml:space="preserve" style="fill-rule:evenodd;clip-rule:evenodd;stroke-linejoin:round;stroke-miterlimit:2" viewBox="0 0 24 24"><path d="M8.8 19.6c-.6 0-1.2-.1-1.8-.2-.2 0-.3-.1-.4-.3-.1-.1-.2-.3-.2-.5v-1c-.3-.1-.6-.3-.8-.5l-.8.5c-.1.1-.3.1-.5.1s-.3-.1-.5-.2c-.5-.5-.9-1-1.2-1.5-.2-.4-.4-.9-.6-1.6v-.5c.1-.2.2-.3.3-.4l.8-.5v-1l-.7-.3c-.2-.1-.3-.2-.4-.4v-.5c.2-.7.4-1.2.6-1.6.3-.4.7-.9 1.2-1.5.1-.1.3-.2.5-.2s.3 0 .5.1l.8.4c.2-.2.5-.3.8-.5v-1c0-.2.1-.3.2-.5.1 0 .2-.1.4-.1.7-.2 1.3-.2 1.8-.2s1.1.1 1.8.2c.1 0 .3.1.4.3.1.1.2.3.2.5v1c.2 0 .5.2.8.3l.8-.5c.1-.1.3-.1.5-.1s.3.1.5.2c.5.5.8 1 1.1 1.4.3.6.6 1.1.7 1.8 0 .1 0 .3-.1.4-.1.1-.2.3-.3.3l-.8.5v1l.8.5.3.3c.1.1.1.3.1.4-.1.6-.4 1.2-.7 1.7-.3.5-.6.9-1.1 1.4-.1.1-.3.2-.5.2s-.3 0-.5-.1l-.8-.2c-.3.2-.6.4-.8.5v1c0 .2-.1.3-.2.5-.1.1-.2.2-.4.3-.6.1-1.2.1-1.8.1ZM7.9 18c.6.1 1.2.1 1.7 0v-1.4l.5-.2c.5-.2.9-.4 1.3-.8l.4-.3 1.2.7c.4-.4.6-.9.8-1.5l-1.2-.7.1-.5c.1-.5.1-1 0-1.5l-.1-.5 1.2-.7c-.2-.5-.5-1-.8-1.5l-1.2.7-.4-.3c-.4-.3-.8-.6-1.3-.8l-.4-.1V7.2c-.6-.1-1.2-.1-1.8 0v1.4l-.5.2c-.5.2-.9.4-1.3.7l-.4.4-1.2-.7c-.4.4-.7 1-.9 1.5l1.2.7v.5c-.1.5-.1 1 0 1.5l.1.5-1.2.7c.2.5.5 1 .8 1.5l1.2-.7.4.3c.4.3.8.6 1.3.8l.5.2V18Zm.9-2.6c-.8 0-1.4-.3-2-.8-.5-.5-.8-1.2-.8-1.9 0-.8.3-1.4.8-2 .5-.5 1.2-.8 2-.8s1.4.3 2 .8c.5.5.8 1.2.8 2s-.3 1.4-.8 2c-.6.4-1.3.7-2 .7Zm0-4c-.4 0-.7.1-.9.4-.3.2-.4.5-.4.8 0 .4.1.7.4.9.2.2.5.4.9.4.3 0 .6-.1.9-.4.3-.3.3-.5.3-.9 0-.3-.1-.6-.3-.9-.3-.2-.6-.3-.9-.3Zm13.2-4v1.1c0 .1-.1.2-.1.2-.1.1-.2.1-.2.1h-.5c-.1.3-.3.6-.5.8l.2.4c0 .1.1.2 0 .3 0 .1-.1.2-.1.2-.3.2-.6.4-1 .6h-.2c-.1 0-.2-.1-.2-.2l-.2-.4c-.3.1-.6.1-1 0l-.4.5c0 .1-.1.1-.2.2h-.2c-.4-.1-.7-.3-1-.6-.1 0-.1-.1-.1-.2s0-.2.1-.3l.2-.4c-.2-.2-.4-.5-.5-.8h-.5c-.1 0-.2 0-.2-.1-.1-.1-.1-.1-.1-.2-.1-.4-.1-.8 0-1.1 0-.1.1-.2.1-.2 0-.2.1-.3.2-.3h.5c.1-.3.3-.6.5-.8l-.2-.4c-.1-.1-.1-.2-.1-.2 0-.1.1-.2.1-.2.3-.2.6-.4 1-.6h.2c.1 0 .2.1.2.2l.2.4c.3-.1.7-.1 1 0l.2-.4c0-.1.1-.1.2-.2h.3c.4.1.7.3 1 .6.1.1.1.1.1.2v.2l-.2.4c.2.3.4.5.5.8h.5c.1 0 .2 0 .2.1.1.1.1.2.2.3Zm-3.4 1.5c.3 0 .5-.1.7-.3.2-.2.3-.4.3-.7 0-.3-.1-.5-.3-.7-.2-.2-.4-.3-.7-.3-.3 0-.5.1-.7.3-.2.2-.3.4-.3.7 0 .3.1.5.3.7.2.2.4.3.7.3Zm3.4 8c.1.4.1.7 0 1.1 0 .1-.1.2-.1.2-.1.1-.1.1-.2.1h-.5c-.1.3-.3.6-.5.8l.2.4c0 .1.1.2 0 .2 0 .1-.1.2-.1.2-.3.2-.6.4-1 .6h-.3c-.1 0-.2-.1-.2-.2l-.2-.4c-.3.1-.6.1-1 0l-.2.4c0 .1-.1.1-.2.2h-.2c-.4-.1-.7-.3-1-.6-.1-.1-.1-.1-.1-.2s0-.2.1-.2l.2-.4c-.2-.2-.4-.5-.5-.8h-.5c-.1 0-.2 0-.2-.1-.1-.1-.1-.1-.1-.2-.1-.4-.1-.8 0-1.1 0-.1.1-.2.1-.2.1-.1.2-.1.2-.1h.5c.1-.3.3-.6.5-.8l-.2-.4c-.1-.1-.1-.2-.1-.3 0-.1.1-.2.1-.2.3-.2.6-.4 1-.6h.2c.1 0 .2.1.2.2l.2.4c.3-.1.7-.1 1 0l.2-.4c0-.1.1-.1.2-.2h.3c.4.1.7.3 1 .6.1 0 .1.1.1.2v.3l-.2.4c.2.2.4.5.5.8h.5c.1 0 .2 0 .2.1s0 .1.1.2Zm-3.4 1.6c.3 0 .5-.1.7-.3.2-.2.3-.4.3-.7 0-.3-.1-.5-.3-.7-.2-.2-.4-.3-.7-.3-.3 0-.5.1-.7.3-.2.2-.3.4-.3.7 0 .3.1.5.3.7.2.2.4.3.7.3Z" style="fill-rule:nonzero"/></svg>