<?xml version="1.0" encoding="UTF-8" standalone="no"?><!DOCTYPE svg PUBLIC "-//W3C//DTD SVG 1.1//EN" "http://www.w3.org/Graphics/SVG/1.1/DTD/svg11.dtd"><svg width="100%" height="100%" viewBox="0 0 24 24" version="1.1" xmlns="http://www.w3.org/2000/svg" xmlns:xlink="http://www.w3.org/1999/xlink" xml:space="preserve" xmlns:serif="http://www.serif.com/" style="fill-rule:evenodd;clip-rule:evenodd;stroke-linejoin:round;stroke-miterlimit:2;"><path id="a_1_" d="M12,2.8c-1.4,-0 -2.6,0.1 -3.8,0.4c-1.2,0.2 -2.1,0.5 -2.8,0.9c-0.7,0.4 -1,0.8 -1,1.3l0,0.2c0,0.5 0.3,0.9 1,1.3c0.7,0.4 1.6,0.7 2.8,1c1.2,0.3 2.4,0.4 3.8,0.4c1.4,0 2.6,-0.1 3.8,-0.4c1.2,-0.2 2.1,-0.6 2.8,-1c0.7,-0.4 1,-0.8 1,-1.3l0,-0.1c0,-0.5 -0.3,-0.9 -1,-1.3c-0.7,-0.4 -1.6,-0.7 -2.8,-1c-1.2,-0.3 -2.4,-0.4 -3.8,-0.4Zm7.6,5.8c-0.8,0.6 -1.9,1 -3.3,1.3c-1.3,0.3 -2.8,0.4 -4.3,0.4c-1.5,-0 -3,-0.1 -4.3,-0.4c-1.4,-0.3 -2.5,-0.7 -3.3,-1.3l0,1.1c0,0.5 0.3,0.9 1,1.3c0.7,0.4 1.6,0.7 2.8,1c1.2,0.2 2.4,0.4 3.8,0.4c1.4,-0 2.6,-0.1 3.8,-0.4c1.2,-0.2 2.1,-0.6 2.8,-1c0.7,-0.4 1,-0.8 1,-1.3l0,-1.1Zm0,4.1c-0.8,0.6 -1.9,1 -3.3,1.3c-1.3,0.3 -2.8,0.4 -4.3,0.4c-1.5,-0 -3,-0.1 -4.3,-0.4c-1.4,-0.3 -2.5,-0.8 -3.3,-1.3l0,1.2c0,0.5 0.3,0.9 1,1.3c0.7,0.4 1.6,0.7 2.8,1c1.2,0.2 2.4,0.4 3.8,0.4c1.4,-0 2.6,-0.1 3.8,-0.4c1.2,-0.2 2.1,-0.6 2.8,-1c0.7,-0.4 1,-0.8 1,-1.3l0,-1.2Zm0,4.2c-0.8,0.6 -1.9,1 -3.3,1.3c-1.3,0.3 -2.8,0.4 -4.3,0.4c-1.5,-0 -3,-0.1 -4.3,-0.4c-1.4,-0.3 -2.5,-0.8 -3.3,-1.3l0,1.1c0,0.5 0.3,0.9 1,1.3c0.7,0.4 1.6,0.7 2.8,1c1.2,0.2 2.4,0.4 3.8,0.4c1.4,-0 2.6,-0.1 3.8,-0.4c1.2,-0.2 2.1,-0.6 2.8,-1c0.7,-0.4 1,-0.8 1,-1.3l0,-1.1Zm-7.6,-16.1c1.5,-0 2.9,0.1 4.2,0.4c1.6,0.3 2.9,0.8 3.8,1.5c1.1,0.8 1.7,1.7 1.7,2.9l0,12.4c0,1.1 -0.6,2.1 -1.7,2.9c-0.9,0.7 -2.2,1.1 -3.8,1.5c-1.4,0.3 -2.8,0.4 -4.2,0.4c-1.5,0 -2.8,-0.1 -4.2,-0.4c-1.6,-0.4 -2.8,-0.8 -3.7,-1.5c-1.1,-0.8 -1.7,-1.7 -1.7,-2.9l0,-12.5c0,-1.1 0.6,-2.1 1.7,-2.9c0.9,-0.7 2.1,-1.1 3.7,-1.5c1.4,-0.2 2.8,-0.4 4.2,-0.3Z" style="fill-rule:nonzero;"/></svg>