<svg xmlns="http://www.w3.org/2000/svg" xml:space="preserve" style="fill-rule:evenodd;clip-rule:evenodd;stroke-linejoin:round;stroke-miterlimit:2" viewBox="0 0 24 24"><path d="M7.5 11.1c.3 0 .6.1.8.3.2.2.3.5.3.8 0 .3-.1.6-.3.8-.2.2-.5.3-.8.3-.3 0-.6-.1-.8-.3-.2-.2-.3-.5-.3-.7 0-.3.1-.6.3-.8.2-.3.5-.4.8-.4Zm10.2-5.8c1 .8 1.8 1.9 2.4 3.1.6 1.2.9 2.5.9 3.8 0 .8-.3 1.5-.8 2-.6.6-1.3.8-2.1.8h-2.5c-.5 0-.9.2-1.1.6-.1.2-.2.4-.2.7 0 .2 0 .5.1.7.2.4.3.9.3 1.4 0 .5-.1.9-.3 1.3-.2.4-.5.7-.8 1-.3.2-.7.4-1.1.5-.3 0-.6.1-.9.1-1 0-2.1-.2-3.1-.7-1.1-.5-2-1.2-2.8-2-1-1-1.8-2.3-2.2-3.7-.5-1.5-.6-3-.3-4.5.4-1.8 1.2-3.3 2.5-4.6C7 4.5 8.5 3.7 10.3 3.4c1.3-.3 2.7-.2 4 .1 1.2.4 2.4 1 3.4 1.8Zm.4 8.1c.4 0 .6-.1.9-.3.3-.2.4-.5.4-.8 0-1.1-.2-2.1-.7-3.1-.5-1-1.1-1.8-2-2.5-.8-.7-1.8-1.2-2.9-1.4-1.1-.4-2.2-.4-3.3-.2-1.4.3-2.7 1-3.7 2s-1.7 2.3-2 3.7c-.2 1.1-.2 2.3.2 3.5.3 1.2 1 2.2 1.8 3.1.7.8 1.6 1.4 2.6 1.8 1 .4 1.9.5 2.8.4.3 0 .5-.2.7-.6.1-.2.1-.4.1-.6 0-.2 0-.4-.1-.6-.2-.5-.3-1-.3-1.5s.2-1 .5-1.5.6-.8 1.1-1.1c.4-.3.9-.4 1.5-.4-.1.1 2.4.1 2.4.1ZM8.6 7.8c.3 0 .6.1.8.3.2.2.3.5.3.8 0 .3-.1.5-.3.8-.2.2-.5.3-.8.3-.3 0-.5-.1-.8-.3-.2-.2-.3-.5-.3-.8 0-.3.1-.6.3-.8.2-.2.5-.3.8-.3ZM12 6.6c.3 0 .6.1.8.3.2.2.3.5.3.8 0 .3-.1.6-.3.8-.2.3-.5.4-.8.4-.3 0-.6-.1-.8-.3-.2-.3-.3-.6-.3-.8 0-.4.1-.6.3-.8.2-.3.5-.4.8-.4Zm3.4 1.2c.3 0 .6.1.8.3.2.2.3.5.3.8 0 .3-.1.6-.3.8-.2.2-.5.3-.8.3-.3 0-.6-.1-.8-.3-.2-.2-.3-.5-.3-.8 0-.3.1-.6.3-.8.2-.2.5-.3.8-.3Z" style="fill-rule:nonzero"/></svg>