<svg xmlns="http://www.w3.org/2000/svg" xml:space="preserve" style="fill-rule:evenodd;clip-rule:evenodd;stroke-linejoin:round;stroke-miterlimit:2" viewBox="0 0 40 40"><path d="M25.335 11.858c7.128 0 12.915 5.787 12.915 12.915 0 7.128-5.787 12.916-12.915 12.916-7.128 0-12.916-5.788-12.916-12.916s5.788-12.915 12.916-12.915Zm0 4.987a7.933 7.933 0 0 1 7.928 7.928 7.932 7.932 0 0 1-7.928 7.928 7.931 7.931 0 0 1-7.928-7.928 7.932 7.932 0 0 1 7.928-7.928Zm-3.41-6.672a3.933 3.933 0 0 0-3.89-3.369h-7.862a3.932 3.932 0 0 0-3.931 3.931v7.861a3.932 3.932 0 0 0 3.931 3.931h.562v4.492H7.927a6.179 6.179 0 0 1-6.177-6.177V8.488a6.179 6.179 0 0 1 6.177-6.176h12.354a6.179 6.179 0 0 1 6.177 6.176v1.685h-4.533Z"/></svg>