<svg xmlns="http://www.w3.org/2000/svg" xml:space="preserve" style="fill-rule:evenodd;clip-rule:evenodd;stroke-linejoin:round;stroke-miterlimit:2" viewBox="0 0 24 24"><path d="M12 2.8c-1.4 0-2.6.1-3.8.4-1.2.2-2.1.5-2.8.9-.7.4-1 .8-1 1.3v.2c0 .5.3.9 1 1.3s1.6.7 2.8 1c1.2.3 2.4.4 3.8.4s2.6-.1 3.8-.4c1.2-.2 2.1-.6 2.8-1 .7-.4 1-.8 1-1.3v-.1c0-.5-.3-.9-1-1.3s-1.6-.7-2.8-1c-1.2-.3-2.4-.4-3.8-.4Zm7.6 5.8c-.8.6-1.9 1-3.3 1.3-1.3.3-2.8.4-4.3.4s-3-.1-4.3-.4c-1.4-.3-2.5-.7-3.3-1.3v1.1c0 .5.3.9 1 1.3s1.6.7 2.8 1c1.2.2 2.4.4 3.8.4s2.6-.1 3.8-.4c1.2-.2 2.1-.6 2.8-1 .7-.4 1-.8 1-1.3V8.6Zm0 4.1c-.8.6-1.9 1-3.3 1.3-1.3.3-2.8.4-4.3.4s-3-.1-4.3-.4c-1.4-.3-2.5-.8-3.3-1.3v1.2c0 .5.3.9 1 1.3s1.6.7 2.8 1c1.2.2 2.4.4 3.8.4s2.6-.1 3.8-.4c1.2-.2 2.1-.6 2.8-1 .7-.4 1-.8 1-1.3v-1.2Zm0 4.2c-.8.6-1.9 1-3.3 1.3-1.3.3-2.8.4-4.3.4s-3-.1-4.3-.4c-1.4-.3-2.5-.8-3.3-1.3V18c0 .5.3.9 1 1.3s1.6.7 2.8 1c1.2.2 2.4.4 3.8.4s2.6-.1 3.8-.4c1.2-.2 2.1-.6 2.8-1 .7-.4 1-.8 1-1.3v-1.1ZM12 .8c1.5 0 2.9.1 4.2.4 1.6.3 2.9.8 3.8 1.5 1.1.8 1.7 1.7 1.7 2.9V18c0 1.1-.6 2.1-1.7 2.9-.9.7-2.2 1.1-3.8 1.5-1.4.3-2.8.4-4.2.4-1.5 0-2.8-.1-4.2-.4-1.6-.4-2.8-.8-3.7-1.5-1.1-.8-1.7-1.7-1.7-2.9V5.5c0-1.1.6-2.1 1.7-2.9.9-.7 2.1-1.1 3.7-1.5C9.2.9 10.6.7 12 .8Z" style="fill-rule:nonzero"/></svg>