<svg id="icon" xmlns="http://www.w3.org/2000/svg" width="32" height="32" viewBox="0 0 32 32"><defs><style>.cls-1{fill:none;}</style></defs><title>shrink-screen</title><path d="M28,28H17a2.0023,2.0023,0,0,1-2-2V20a2.0023,2.0023,0,0,1,2-2H28a2.0027,2.0027,0,0,1,2,2v6A2.0027,2.0027,0,0,1,28,28ZM17,20v6H28.002L28,20Z"/><polygon points="12 10 12 13.586 7.707 9.293 6.293 10.707 10.586 15 7 15 7 17 14 17 14 10 12 10"/><path d="M13,22H4a2.0023,2.0023,0,0,1-2-2V7A2.002,2.002,0,0,1,4,5H26a2.0023,2.0023,0,0,1,2,2v9H26V7H4V20h9Z"/><rect id="_Transparent_Rectangle_" data-name="&lt;Transparent Rectangle&gt;" class="cls-1" width="32" height="32"/></svg>