<?xml version="1.0" encoding="UTF-8" standalone="no"?><!DOCTYPE svg PUBLIC "-//W3C//DTD SVG 1.1//EN" "http://www.w3.org/Graphics/SVG/1.1/DTD/svg11.dtd"><svg width="100%" height="100%" viewBox="0 0 24 24" version="1.1" xmlns="http://www.w3.org/2000/svg" xmlns:xlink="http://www.w3.org/1999/xlink" xml:space="preserve" xmlns:serif="http://www.serif.com/" style="fill-rule:evenodd;clip-rule:evenodd;stroke-linejoin:round;stroke-miterlimit:2;"><path id="a_1_" d="M18.9,3.5c0.5,0 1,0.2 1.3,0.5c0.4,0.4 0.5,0.8 0.5,1.3l-0,13.8c-0,0.5 -0.2,1 -0.5,1.3c-0.3,0.4 -0.8,0.6 -1.3,0.5l-13.8,0c-0.5,0 -1,-0.2 -1.3,-0.5c-0.4,-0.3 -0.6,-0.8 -0.5,-1.3l-0,-13.8c-0,-0.5 0.2,-1 0.5,-1.3c0.3,-0.4 0.8,-0.6 1.3,-0.5l13.8,-0Zm-0,15.6l-0,-13.8l-13.8,-0l-0,13.8l13.8,0Z" style="fill-rule:nonzero;"/></svg>