<svg id="icon" xmlns="http://www.w3.org/2000/svg" width="32" height="32" viewBox="0 0 32 32"><defs><style>.cls-1{fill:none;}</style></defs><title>tree-view--alt</title><path d="M23,9h6a2,2,0,0,0,2-2V3a2,2,0,0,0-2-2H23a2,2,0,0,0-2,2V4H11V3A2,2,0,0,0,9,1H3A2,2,0,0,0,1,3V7A2,2,0,0,0,3,9H9a2,2,0,0,0,2-2V6h4V26a2.0023,2.0023,0,0,0,2,2h4v1a2,2,0,0,0,2,2h6a2,2,0,0,0,2-2V25a2,2,0,0,0-2-2H23a2,2,0,0,0-2,2v1H17V17h4v1a2,2,0,0,0,2,2h6a2,2,0,0,0,2-2V14a2,2,0,0,0-2-2H23a2,2,0,0,0-2,2v1H17V6h4V7A2,2,0,0,0,23,9Zm0-6h6V7H23ZM9,7H3V3H9ZM23,25h6v4H23Zm0-11h6v4H23Z" transform="translate(0 0.0049)"/><rect id="_Transparent_Rectangle_" data-name="&lt;Transparent Rectangle&gt;" class="cls-1" width="32" height="32"/></svg>