<?xml version="1.0" encoding="UTF-8" standalone="no"?><!DOCTYPE svg PUBLIC "-//W3C//DTD SVG 1.1//EN" "http://www.w3.org/Graphics/SVG/1.1/DTD/svg11.dtd"><svg width="100%" height="100%" viewBox="0 0 24 24" version="1.1" xmlns="http://www.w3.org/2000/svg" xmlns:xlink="http://www.w3.org/1999/xlink" xml:space="preserve" xmlns:serif="http://www.serif.com/" style="fill-rule:evenodd;clip-rule:evenodd;stroke-linejoin:round;stroke-miterlimit:2;"><path id="a_1_" d="M19.5,5c0.4,0 0.8,0.1 1.1,0.4c0.3,0.3 0.4,0.7 0.4,1.1l0,11c0,0.4 -0.1,0.8 -0.4,1.1c-0.3,0.3 -0.7,0.4 -1.1,0.4l-15,0c-0.4,0 -0.8,-0.1 -1.1,-0.4c-0.2,-0.3 -0.4,-0.7 -0.4,-1.1l0,-11c0,-0.4 0.1,-0.8 0.4,-1.1c0.3,-0.2 0.7,-0.4 1.1,-0.4l15,0Zm-0.2,12.5c0,0 0.1,0 0.1,-0.1l0.1,-0.1l0,-10.6c0,0 0,-0.1 -0.1,-0.1l-0.1,-0.1l-14.6,0c-0,0 -0.1,0 -0.1,0.1l-0.1,0.1l-0,10.6c-0,0 -0,0.1 0.1,0.1l0.1,0.1l14.6,0Zm-0.3,-3.2c0,0.2 -0.1,0.4 -0.2,0.5c-0.1,0.1 -0.3,0.2 -0.5,0.2l-0.8,0l0,0.6c0,0.1 0,0.2 -0.1,0.3c-0.1,0.1 -0.2,0.1 -0.3,0.1l-0.2,0c-0.1,0 -0.2,0 -0.3,-0.1c-0.1,-0.1 -0.1,-0.2 -0.1,-0.3l0,-0.6l-0.8,0c-0.2,0 -0.4,-0.1 -0.5,-0.2c-0.1,-0.2 -0.2,-0.4 -0.2,-0.5l0,-2.5c0,-0.2 0.1,-0.4 0.2,-0.5c0.2,-0.2 0.4,-0.3 0.6,-0.3l0.8,0l0,-2.6c0,-0.1 0,-0.2 0.1,-0.3c0,-0.1 0.1,-0.1 0.2,-0.1l0.2,0c0.1,0 0.2,0 0.3,0.1c0.1,0.1 0.1,0.2 0.1,0.3l0,2.6l0.8,0c0.2,0 0.4,0.1 0.5,0.2c0.1,0.2 0.2,0.4 0.2,0.6l0,2.5Z" style="fill-rule:nonzero;"/></svg>