<svg xmlns="http://www.w3.org/2000/svg" xml:space="preserve" style="fill-rule:evenodd;clip-rule:evenodd;stroke-linejoin:round;stroke-miterlimit:2" viewBox="0 0 24 24"><path d="M16.85 5.05v14.4c0 .3-.1.5-.3.7-.2.2-.4.3-.7.3h-3.4c-.3 0-.5-.1-.7-.3-.2-.2-.3-.4-.3-.7v-.3c-1.1 0-2.2-.3-3.2-.8s-1.8-1.2-2.4-2.1c-.6-.9-1-1.9-1.2-3h-3.6v-2h3.5c.2-1.1.6-2.1 1.2-3 .6-.9 1.5-1.6 2.4-2.1 1-.5 2.1-.8 3.2-.8v-.3c0-.3.1-.5.3-.7.2-.2.5-.3.7-.3h3.4c.3 0 .5.1.7.3.3.2.4.4.4.7Zm-3.4 12.1v1.4h1.4V6.15h-1.4v1.4h-2.1c-.9 0-1.7.2-2.4.6-.7.4-1.3 1-1.8 1.8-.4.7-.6 1.5-.6 2.4 0 .9.2 1.7.6 2.4.4.7 1 1.3 1.8 1.8.7.4 1.5.6 2.4.6h2.1Zm4.1-1.8h4.5c.3 0 .5.1.7.3.2.2.3.4.3.7 0 .3-.1.5-.3.7-.2.2-.4.3-.7.3h-4.5v-2Zm0-8.2h4.5c.3 0 .5.1.7.3.2.2.3.4.3.7 0 .3-.1.5-.3.7-.2.2-.4.3-.7.3h-4.5v-2Z" style="fill-rule:nonzero"/></svg>