<?xml version="1.0" encoding="UTF-8" standalone="no"?><!DOCTYPE svg PUBLIC "-//W3C//DTD SVG 1.1//EN" "http://www.w3.org/Graphics/SVG/1.1/DTD/svg11.dtd"><svg width="100%" height="100%" viewBox="0 0 24 24" version="1.1" xmlns="http://www.w3.org/2000/svg" xmlns:xlink="http://www.w3.org/1999/xlink" xml:space="preserve" xmlns:serif="http://www.serif.com/" style="fill-rule:evenodd;clip-rule:evenodd;stroke-linejoin:round;stroke-miterlimit:2;"><path id="a_1_" d="M18.5,3.6c0.5,0 0.9,0.2 1.3,0.5c0.3,0.3 0.5,0.8 0.5,1.3l0,13.1c0,0.5 -0.2,0.9 -0.5,1.3c-0.3,0.3 -0.8,0.5 -1.3,0.5l-13,0c-0.5,0 -0.9,-0.2 -1.3,-0.5c-0.3,-0.3 -0.5,-0.8 -0.5,-1.3l0,-13.2c0,-0.5 0.2,-0.9 0.5,-1.3c0.3,-0.4 0.8,-0.4 1.3,-0.4l13,0Zm-0.2,14.8c0,0 0.1,0 0.1,-0.1l0.1,-0.1l-0,-12.6c-0,0 -0,-0.1 -0.1,-0.1c-0.1,0 -0.1,-0.1 -0.1,-0.1l-12.6,0c-0,0 -0.1,0 -0.1,0.1l-0.1,0.1l-0,12.6c-0,0.1 -0,0.1 0.1,0.1c-0,0.1 0.1,0.1 0.1,0.1l12.6,0Zm-2,-11.3c0.1,0 0.2,0 0.3,0.1c0.1,0.1 0.1,0.2 0.1,0.3l0,5c0,0.2 -0.1,0.4 -0.3,0.4c-0.2,0.1 -0.3,0 -0.5,-0.1l-1.8,-1.8l-5.3,5.3c-0.1,0.1 -0.2,0.2 -0.3,0.1c-0.1,0 -0.2,-0.1 -0.3,-0.1l-0.8,-0.8c-0.1,-0.1 -0.1,-0.2 -0.1,-0.3c0,-0.1 0.1,-0.2 0.1,-0.3l5.3,-5.3l-1.7,-1.7c-0.2,-0.2 -0.2,-0.3 -0.2,-0.5c0.1,-0.2 0.2,-0.3 0.4,-0.3l5.1,0Z" style="fill-rule:nonzero;"/></svg>