<svg id="icon" xmlns="http://www.w3.org/2000/svg" width="32" height="32" viewBox="0 0 32 32">
  <defs>
    <style>
      .cls-1 {
        fill: none;
      }
    </style>
  </defs>
  <path d="M28,2H10A2.0023,2.0023,0,0,0,8,4V7H4A2.0023,2.0023,0,0,0,2,9V28a2.0023,2.0023,0,0,0,2,2H28a2.0023,2.0023,0,0,0,2-2V4A2.0023,2.0023,0,0,0,28,2ZM10,4H28V7H10ZM28,14H20V9h8ZM10,21V16h8v5Zm8,2v5H10V23ZM8,21H4V16H8ZM18,9v5H10V9Zm2,7h8v5H20ZM8,9v5H4V9ZM4,23H8v5H4Zm16,5V23h8v5Z"/>
  <rect id="_Transparent_Rectangle_" data-name="&lt;Transparent Rectangle&gt;" class="cls-1" width="32" height="32"/>
</svg>
