<svg xmlns="http://www.w3.org/2000/svg" xml:space="preserve" style="fill-rule:evenodd;clip-rule:evenodd;stroke-linejoin:round;stroke-miterlimit:2" viewBox="0 0 24 24"><path d="M18.9 3.5c.5 0 1 .2 1.3.5.4.4.5.8.5 1.3v13.8c0 .5-.2 1-.5 1.3-.3.4-.8.6-1.3.5H5.1c-.5 0-1-.2-1.3-.5-.4-.3-.6-.8-.5-1.3V5.3c0-.5.2-1 .5-1.3.3-.4.8-.6 1.3-.5h13.8Zm0 15.6V5.3H5.1v13.8h13.8Zm-8.1-2.8c-.1.1-.2.2-.4.2-.1 0-.2-.1-.3-.2l-3.6-3.6c-.1 0-.1-.2-.1-.3 0-.1.1-.2.2-.3l.9-.9c.1-.1.2-.1.3-.1.1 0 .2 0 .4.1l2.3 2.4L16 8.1c0-.1.1-.2.3-.2.1 0 .2.1.4.2l.8.9c.1.1.2.2.2.4 0 .1-.1.2-.2.3l-6.7 6.6Z" style="fill-rule:nonzero"/></svg>