<?xml version="1.0" encoding="UTF-8" standalone="no"?><!DOCTYPE svg PUBLIC "-//W3C//DTD SVG 1.1//EN" "http://www.w3.org/Graphics/SVG/1.1/DTD/svg11.dtd"><svg width="100%" height="100%" viewBox="0 0 24 24" version="1.1" xmlns="http://www.w3.org/2000/svg" xmlns:xlink="http://www.w3.org/1999/xlink" xml:space="preserve" xmlns:serif="http://www.serif.com/" style="fill-rule:evenodd;clip-rule:evenodd;stroke-linejoin:round;stroke-miterlimit:2;"><path id="a_1_" d="M20.3,8.3l-0.6,0l0,7.1l0.6,-0c0.3,-0 0.6,0.1 0.8,0.4c0.2,0.3 0.4,0.5 0.4,0.8l0,3.6c0,0.3 -0.1,0.6 -0.4,0.8c-0.2,0.2 -0.5,0.4 -0.8,0.4l-3.6,-0c-0.3,-0 -0.6,-0.1 -0.8,-0.4c-0.2,-0.2 -0.4,-0.5 -0.4,-0.8l0,-0.6l-7.1,-0l0,0.6c0,0.3 -0.1,0.6 -0.4,0.8c-0.2,0.2 -0.5,0.4 -0.8,0.4l-3.5,-0c-0.3,-0 -0.6,-0.1 -0.8,-0.4c-0.2,-0.2 -0.4,-0.5 -0.4,-0.8l0,-3.6c0,-0.3 0.1,-0.6 0.4,-0.8c0.3,-0.2 0.5,-0.4 0.8,-0.4l0.6,-0l0,-7.1l-0.6,0c-0.3,0 -0.6,-0.1 -0.8,-0.3c-0.3,-0.3 -0.4,-0.6 -0.4,-0.9l0,-3.5c0,-0.3 0.1,-0.6 0.4,-0.8c0.3,-0.2 0.5,-0.4 0.8,-0.4l3.6,0c0.3,0 0.6,0.1 0.8,0.4c0.2,0.3 0.4,0.5 0.4,0.8l0,0.6l7.1,0l0,-0.6c0,-0.3 0.1,-0.6 0.4,-0.8c0.3,-0.2 0.5,-0.4 0.8,-0.4l3.6,0c0.3,0 0.6,0.1 0.8,0.4c0.2,0.3 0.4,0.5 0.4,0.8l0,3.6c0,0.3 -0.1,0.6 -0.4,0.8c-0.3,0.2 -0.6,0.3 -0.9,0.3Zm-3,-4.1l0,2.4l2.4,0l0,-2.4l-2.4,0Zm-13,0l-0,2.4l2.4,0l-0,-2.4l-2.4,0Zm2.4,15.4l-0,-2.4l-2.4,0l-0,2.4l2.4,0Zm13,0l-0,-2.4l-2.4,0l-0,2.4l2.4,0Zm-1.8,-4.2l-0,-7.1l-1.2,0c-0.3,0 -0.6,-0.1 -0.8,-0.4c-0.2,-0.2 -0.4,-0.5 -0.4,-0.8l-0,-1.2l-7.1,0l-0,1.2c-0,0.3 -0.1,0.6 -0.4,0.8c-0.1,0.3 -0.4,0.4 -0.8,0.4l-1.1,0l-0,7.1l1.2,-0c0.3,-0 0.6,0.1 0.8,0.4c0.2,0.3 0.4,0.5 0.4,0.8l-0,1.2l7.1,-0l-0,-1.2c-0,-0.3 0.1,-0.6 0.4,-0.8c0.3,-0.2 0.5,-0.4 0.8,-0.4l1.1,-0Z" style="fill-rule:nonzero;"/></svg>