<?xml version="1.0" encoding="UTF-8" standalone="no"?><!DOCTYPE svg PUBLIC "-//W3C//DTD SVG 1.1//EN" "http://www.w3.org/Graphics/SVG/1.1/DTD/svg11.dtd"><svg width="100%" height="100%" viewBox="0 0 24 24" version="1.1" xmlns="http://www.w3.org/2000/svg" xmlns:xlink="http://www.w3.org/1999/xlink" xml:space="preserve" xmlns:serif="http://www.serif.com/" style="fill-rule:evenodd;clip-rule:evenodd;stroke-linejoin:round;stroke-miterlimit:2;"><path id="a_1_" d="M19.7,3.6c0.5,0 0.9,0.2 1.3,0.5c0.3,0.3 0.5,0.8 0.5,1.3l0,13.1c0,0.5 -0.2,0.9 -0.5,1.3c-0.3,0.3 -0.8,0.5 -1.3,0.5l-15.4,0c-0.5,0 -0.9,-0.2 -1.3,-0.5c-0.3,-0.3 -0.5,-0.8 -0.5,-1.3l0,-13.2c0,-0.5 0.2,-0.9 0.5,-1.3c0.3,-0.3 0.8,-0.5 1.3,-0.5l15.4,0.1Zm-8.6,14.8l0,-11.9l-6.8,0l0,11.7c0,0.1 0,0.1 0.1,0.1c0,0.1 0.1,0.1 0.1,0.1l6.6,-0Zm8.4,-0c0,-0 0.1,-0 0.1,-0.1c0,-0.1 0.1,-0.1 0.1,-0.1l0,-11.7l-6.8,0l0,11.9l6.6,0Z" style="fill-rule:nonzero;"/></svg>