<?xml version="1.0" encoding="UTF-8" standalone="no"?><!DOCTYPE svg PUBLIC "-//W3C//DTD SVG 1.1//EN" "http://www.w3.org/Graphics/SVG/1.1/DTD/svg11.dtd"><svg width="100%" height="100%" viewBox="0 0 24 24" version="1.1" xmlns="http://www.w3.org/2000/svg" xmlns:xlink="http://www.w3.org/1999/xlink" xml:space="preserve" xmlns:serif="http://www.serif.com/" style="fill-rule:evenodd;clip-rule:evenodd;stroke-linejoin:round;stroke-miterlimit:2;"><path id="a_1_" d="M8.8,19.6c-0.6,0 -1.2,-0.1 -1.8,-0.2c-0.2,-0 -0.3,-0.1 -0.4,-0.3c-0.1,-0.1 -0.2,-0.3 -0.2,-0.5l-0,-1c-0.3,-0.1 -0.6,-0.3 -0.8,-0.5l-0.8,0.5c-0.1,0.1 -0.3,0.1 -0.5,0.1c-0.2,-0 -0.3,-0.1 -0.5,-0.2c-0.5,-0.5 -0.9,-1 -1.2,-1.5c-0.2,-0.4 -0.4,-0.9 -0.6,-1.6l-0,-0.5c0.1,-0.2 0.2,-0.3 0.3,-0.4l0.8,-0.5l-0,-1l-0.7,-0.3c-0.2,-0.1 -0.3,-0.2 -0.4,-0.4l-0,-0.5c0.2,-0.7 0.4,-1.2 0.6,-1.6c0.3,-0.4 0.7,-0.9 1.2,-1.5c0.1,-0.1 0.3,-0.2 0.5,-0.2c0.2,-0 0.3,-0 0.5,0.1l0.8,0.4c0.2,-0.2 0.5,-0.3 0.8,-0.5l-0,-1c-0,-0.2 0.1,-0.3 0.2,-0.5c0.1,-0 0.2,-0.1 0.4,-0.1c0.7,-0.2 1.3,-0.2 1.8,-0.2c0.5,-0 1.1,0.1 1.8,0.2c0.1,-0 0.3,0.1 0.4,0.3c0.1,0.1 0.2,0.3 0.2,0.5l-0,1c0.2,-0 0.5,0.2 0.8,0.3l0.8,-0.5c0.1,-0.1 0.3,-0.1 0.5,-0.1c0.2,-0 0.3,0.1 0.5,0.2c0.5,0.5 0.8,1 1.1,1.4c0.3,0.6 0.6,1.1 0.7,1.8c-0,0.1 -0,0.3 -0.1,0.4c-0.1,0.1 -0.2,0.3 -0.3,0.3l-0.8,0.5l-0,1l0.8,0.5c0.1,0.1 0.2,0.2 0.3,0.3c0.1,0.1 0.1,0.3 0.1,0.4c-0.1,0.6 -0.4,1.2 -0.7,1.7c-0.3,0.5 -0.6,0.9 -1.1,1.4c-0.1,0.1 -0.3,0.2 -0.5,0.2c-0.2,-0 -0.3,-0 -0.5,-0.1l-0.8,-0.2c-0.3,0.2 -0.6,0.4 -0.8,0.5l-0,1c-0,0.2 -0.1,0.3 -0.2,0.5c-0.1,0.1 -0.2,0.2 -0.4,0.3c-0.6,0.1 -1.2,0.1 -1.8,0.1Zm-0.9,-1.6c0.6,0.1 1.2,0.1 1.7,-0l0,-1.4l0.5,-0.2c0.5,-0.2 0.9,-0.4 1.3,-0.8l0.4,-0.3l1.2,0.7c0.4,-0.4 0.6,-0.9 0.8,-1.5l-1.2,-0.7l0.1,-0.5c0.1,-0.5 0.1,-1 0,-1.5l-0.1,-0.5l1.2,-0.7c-0.2,-0.5 -0.5,-1 -0.8,-1.5l-1.2,0.7l-0.4,-0.3c-0.4,-0.3 -0.8,-0.6 -1.3,-0.8l-0.4,-0.1l0,-1.4c-0.6,-0.1 -1.2,-0.1 -1.8,-0l0,1.4l-0.5,0.2c-0.5,0.2 -0.9,0.4 -1.3,0.7l-0.4,0.4l-1.2,-0.7c-0.4,0.4 -0.7,1 -0.9,1.5l1.2,0.7l0,0.5c-0.1,0.5 -0.1,1 0,1.5l0.1,0.5l-1.2,0.7c0.2,0.5 0.5,1 0.8,1.5l1.2,-0.7l0.4,0.3c0.4,0.3 0.8,0.6 1.3,0.8l0.5,0.2l0,1.3Zm0.9,-2.6c-0.8,-0 -1.4,-0.3 -2,-0.8c-0.5,-0.5 -0.8,-1.2 -0.8,-1.9c0,-0.8 0.3,-1.4 0.8,-2c0.5,-0.5 1.2,-0.8 2,-0.8c0.8,-0 1.4,0.3 2,0.8c0.5,0.5 0.8,1.2 0.8,2c0,0.8 -0.3,1.4 -0.8,2c-0.6,0.4 -1.3,0.7 -2,0.7Zm0,-4c-0.4,-0 -0.7,0.1 -0.9,0.4c-0.3,0.2 -0.4,0.5 -0.4,0.8c0,0.4 0.1,0.7 0.4,0.9c0.2,0.2 0.5,0.4 0.9,0.4c0.3,-0 0.6,-0.1 0.9,-0.4c0.3,-0.3 0.3,-0.5 0.3,-0.9c0,-0.3 -0.1,-0.6 -0.3,-0.9c-0.3,-0.2 -0.6,-0.3 -0.9,-0.3Zm13.2,-4l0,1.1c0,0.1 -0.1,0.2 -0.1,0.2c-0.1,0.1 -0.2,0.1 -0.2,0.1l-0.5,0c-0.1,0.3 -0.3,0.6 -0.5,0.8l0.2,0.4c0,0.1 0.1,0.2 0,0.3c0,0.1 -0.1,0.2 -0.1,0.2c-0.3,0.2 -0.6,0.4 -1,0.6l-0.2,-0c-0.1,-0 -0.2,-0.1 -0.2,-0.2l-0.2,-0.4c-0.3,0.1 -0.6,0.1 -1,-0l-0.4,0.5c0,0.1 -0.1,0.1 -0.2,0.2l-0.2,-0c-0.4,-0.1 -0.7,-0.3 -1,-0.6c-0.1,0 -0.1,-0.1 -0.1,-0.2c0,-0.1 0,-0.2 0.1,-0.3l0.2,-0.4c-0.2,-0.2 -0.4,-0.5 -0.5,-0.8l-0.5,0c-0.1,0 -0.2,0 -0.2,-0.1c-0.1,-0.1 -0.1,-0.1 -0.1,-0.2c-0.1,-0.4 -0.1,-0.8 0,-1.1c0,-0.1 0.1,-0.2 0.1,-0.2c-0,-0.2 0.1,-0.3 0.2,-0.3l0.5,-0c0.1,-0.3 0.3,-0.6 0.5,-0.8l-0.2,-0.4c-0.1,-0.1 -0.1,-0.2 -0.1,-0.2c0,-0.1 0.1,-0.2 0.1,-0.2c0.3,-0.2 0.6,-0.4 1,-0.6l0.2,-0c0.1,-0 0.2,0.1 0.2,0.2l0.2,0.4c0.3,-0.1 0.7,-0.1 1,-0l0.2,-0.4c-0,-0.1 0.1,-0.1 0.2,-0.2l0.3,-0c0.4,0.1 0.7,0.3 1,0.6c0.1,0.1 0.1,0.1 0.1,0.2l-0,0.2l-0.2,0.4c0.2,0.3 0.4,0.5 0.5,0.8l0.5,-0c0.1,-0 0.2,-0 0.2,0.1c0.1,0.1 0.1,0.2 0.2,0.3Zm-3.4,1.5c0.3,-0 0.5,-0.1 0.7,-0.3c0.2,-0.2 0.3,-0.4 0.3,-0.7c0,-0.3 -0.1,-0.5 -0.3,-0.7c-0.2,-0.2 -0.4,-0.3 -0.7,-0.3c-0.3,-0 -0.5,0.1 -0.7,0.3c-0.2,0.2 -0.3,0.4 -0.3,0.7c0,0.3 0.1,0.5 0.3,0.7c0.2,0.2 0.4,0.3 0.7,0.3Zm3.4,8c0.1,0.4 0.1,0.7 0,1.1c0,0.1 -0.1,0.2 -0.1,0.2c-0.1,0.1 -0.1,0.1 -0.2,0.1l-0.5,-0c-0.1,0.3 -0.3,0.6 -0.5,0.8l0.2,0.4c0,0.1 0.1,0.2 0,0.2c0,0.1 -0.1,0.2 -0.1,0.2c-0.3,0.2 -0.6,0.4 -1,0.6l-0.3,-0c-0.1,-0 -0.2,-0.1 -0.2,-0.2l-0.2,-0.4c-0.3,0.1 -0.6,0.1 -1,-0l-0.2,0.4c0,0.1 -0.1,0.1 -0.2,0.2l-0.2,-0c-0.4,-0.1 -0.7,-0.3 -1,-0.6c-0.1,-0.1 -0.1,-0.1 -0.1,-0.2c0,-0.1 0,-0.2 0.1,-0.2l0.2,-0.4c-0.2,-0.2 -0.4,-0.5 -0.5,-0.8l-0.5,-0c-0.1,-0 -0.2,-0 -0.2,-0.1c-0.1,-0.1 -0.1,-0.1 -0.1,-0.2c-0.1,-0.4 -0.1,-0.8 0,-1.1c0,-0.1 0.1,-0.2 0.1,-0.2c0.1,-0.1 0.2,-0.1 0.2,-0.1l0.5,0c0.1,-0.3 0.3,-0.6 0.5,-0.8l-0.2,-0.4c-0.1,-0.1 -0.1,-0.2 -0.1,-0.3c0,-0.1 0.1,-0.2 0.1,-0.2c0.3,-0.2 0.6,-0.4 1,-0.6l0.2,0c0.1,0 0.2,0.1 0.2,0.2l0.2,0.4c0.3,-0.1 0.7,-0.1 1,0l0.2,-0.4c0,-0.1 0.1,-0.1 0.2,-0.2l0.3,0c0.4,0.1 0.7,0.3 1,0.6c0.1,0 0.1,0.1 0.1,0.2l0,0.3l-0.2,0.4c0.2,0.2 0.4,0.5 0.5,0.8l0.5,0c0.1,0 0.2,0 0.2,0.1c0,0.1 0,0.1 0.1,0.2Zm-3.4,1.6c0.3,-0 0.5,-0.1 0.7,-0.3c0.2,-0.2 0.3,-0.4 0.3,-0.7c0,-0.3 -0.1,-0.5 -0.3,-0.7c-0.2,-0.2 -0.4,-0.3 -0.7,-0.3c-0.3,-0 -0.5,0.1 -0.7,0.3c-0.2,0.2 -0.3,0.4 -0.3,0.7c0,0.3 0.1,0.5 0.3,0.7c0.2,0.2 0.4,0.3 0.7,0.3Z" style="fill-rule:nonzero;"/></svg>