<?xml version="1.0" encoding="UTF-8" standalone="no"?><!DOCTYPE svg PUBLIC "-//W3C//DTD SVG 1.1//EN" "http://www.w3.org/Graphics/SVG/1.1/DTD/svg11.dtd"><svg width="100%" height="100%" viewBox="0 0 24 24" version="1.1" xmlns="http://www.w3.org/2000/svg" xmlns:xlink="http://www.w3.org/1999/xlink" xml:space="preserve" xmlns:serif="http://www.serif.com/" style="fill-rule:evenodd;clip-rule:evenodd;stroke-linejoin:round;stroke-miterlimit:2;"><path id="a_1_" d="M21.7,17.5c0.1,0 0.1,0 0.2,0.1c0.1,0.1 0.1,0.1 0.1,0.2l0,0.6c0,0.1 0,0.1 -0.1,0.2c-0.1,0.1 -0.1,0.1 -0.2,0.1l-12.2,-0l0,1.6c0,0.3 -0.1,0.5 -0.3,0.7c-0.2,0.2 -0.4,0.3 -0.7,0.3l-1.8,-0c-0.2,-0 -0.5,-0.1 -0.7,-0.3c-0.2,-0.2 -0.3,-0.4 -0.3,-0.7l0,-1.6l-3.4,-0c-0.1,-0 -0.2,-0 -0.2,-0.1c-0.1,0 -0.1,-0.1 -0.1,-0.2l0,-0.6c0,-0.1 0,-0.1 0.1,-0.2c0.1,-0.1 0.1,-0.1 0.2,-0.1l3.4,0l0,-1.6c0,-0.3 0.1,-0.5 0.3,-0.7c0.2,-0.1 0.4,-0.2 0.7,-0.2l1.9,-0c0.3,-0 0.5,0.1 0.7,0.3c0.2,0.2 0.3,0.4 0.3,0.7l0,1.6l12.1,-0l0,-0.1Zm-13.5,2.5l0,-3.8l-1.2,-0l0,3.8l1.2,-0Zm13.5,-13.7c0.1,-0 0.1,-0 0.2,0.1c0.1,-0 0.1,0.1 0.1,0.2l0,0.6c0,0.1 0,0.2 -0.1,0.2c-0.1,0.1 -0.1,0.1 -0.2,0.1l-9.7,-0l0,1.6c0,0.3 -0.1,0.5 -0.3,0.7c-0.1,0.1 -0.4,0.2 -0.6,0.2l-1.9,0c-0.3,0 -0.5,-0.1 -0.7,-0.3c-0.2,-0.1 -0.3,-0.4 -0.3,-0.6l0,-1.6l-5.9,0c-0.1,0 -0.2,0 -0.2,-0.1c-0.1,-0.1 -0.1,-0.1 -0.1,-0.2l0,-0.6c0,-0.1 0,-0.2 0.1,-0.2c0.1,-0.1 0.1,-0.1 0.2,-0.1l5.9,-0l0,-1.6c0,-0.3 0.1,-0.5 0.3,-0.7c0.2,-0.2 0.4,-0.3 0.7,-0.3l1.9,-0c0.3,-0 0.5,0.1 0.7,0.3c0.1,0.2 0.2,0.4 0.2,0.7l0,1.6l9.7,-0Zm-10.9,2.5l0,-3.8l-1.3,0l0,3.8l1.3,0Zm10.9,3.1c0.1,0 0.1,0 0.2,0.1c0.1,0 0.1,0.1 0.1,0.2l0,0.6c0,0.1 0,0.1 -0.1,0.2c-0.1,0.1 -0.1,0.1 -0.2,0.1l-3.4,0l0,1.6c0,0.3 -0.1,0.5 -0.3,0.7c-0.2,0.2 -0.4,0.3 -0.7,0.3l-1.9,0c-0.2,0 -0.5,-0.1 -0.7,-0.3c-0.2,-0.2 -0.3,-0.4 -0.3,-0.7l0,-1.6l-12.1,0c-0.1,0 -0.2,0 -0.2,-0.1c-0.1,0 -0.1,-0.1 -0.1,-0.2l0,-0.6c0,-0.1 0,-0.2 0.1,-0.2c0.1,-0.1 0.1,-0.1 0.2,-0.1l12.2,0l0,-1.6c0,-0.3 0.1,-0.5 0.3,-0.7c0.2,-0.2 0.4,-0.3 0.7,-0.3l1.9,0c0.3,0 0.5,0.1 0.7,0.3c0.2,0.2 0.3,0.4 0.3,0.7l0,1.6l3.3,0Zm-4.7,2.5l0,-3.8l-1.2,0l0,3.8l1.2,-0Z" style="fill-rule:nonzero;"/></svg>