<?xml version="1.0" encoding="UTF-8"?>
<svg width="16px" height="16px" viewBox="0 0 16 16" version="1.1" xmlns="http://www.w3.org/2000/svg" xmlns:xlink="http://www.w3.org/1999/xlink">
    <!-- Generator: Sketch 47.1 (45422) - http://www.bohemiancoding.com/sketch -->
    <title>cut</title>
    <desc>Created with Sketch.</desc>
    <defs></defs>
    <g id="Page-1" stroke="none" stroke-width="1" fill="none" fill-rule="evenodd">
        <g id="cut" fill-rule="nonzero" fill="#000000">
            <path d="M6.348,4.948 C6.509,4.598 6.6,4.213 6.6,3.8 C6.6,2.253 5.347,1 3.8,1 C2.253,1 1,2.253 1,3.8 C1,5.347 2.253,6.6 3.8,6.6 C4.213,6.6 4.598,6.509 4.948,6.348 L6.6,8 L4.948,9.652 C4.598,9.491 4.213,9.4 3.8,9.4 C2.253,9.4 1,10.653 1,12.2 C1,13.747 2.253,15 3.8,15 C5.347,15 6.6,13.747 6.6,12.2 C6.6,11.787 6.509,11.402 6.348,11.052 L8,9.4 L12.9,14.3 L15,14.3 L15,13.6 L6.348,4.948 Z M3.8,5.2 C3.03,5.2 2.4,4.577 2.4,3.8 C2.4,3.023 3.03,2.4 3.8,2.4 C4.57,2.4 5.2,3.023 5.2,3.8 C5.2,4.577 4.57,5.2 3.8,5.2 Z M3.8,13.6 C3.03,13.6 2.4,12.977 2.4,12.2 C2.4,11.423 3.03,10.8 3.8,10.8 C4.57,10.8 5.2,11.423 5.2,12.2 C5.2,12.977 4.57,13.6 3.8,13.6 Z M8,8.35 C7.804,8.35 7.65,8.196 7.65,8 C7.65,7.804 7.804,7.65 8,7.65 C8.196,7.65 8.35,7.804 8.35,8 C8.35,8.196 8.196,8.35 8,8.35 Z M12.9,1.7 L8.7,5.9 L10.1,7.3 L15,2.4 L15,1.7 L12.9,1.7 Z" id="Shape"></path>
        </g>
    </g>
</svg>