<?xml version="1.0" encoding="UTF-8"?>
<svg width="16px" height="16px" viewBox="0 0 16 16" version="1.1" xmlns="http://www.w3.org/2000/svg" xmlns:xlink="http://www.w3.org/1999/xlink">
    <!-- Generator: Sketch 47.1 (45422) - http://www.bohemiancoding.com/sketch -->
    <title>not-allowed</title>
    <desc>Created with Sketch.</desc>
    <defs></defs>
    <g id="Page-1" stroke="none" stroke-width="1" fill="none" fill-rule="evenodd">
        <g id="not-allowed" stroke="#000000">
            <path d="M5.89943526,11.0123294 C6.4454528,11.3227267 7.0770242,11.5 7.75,11.5 C9.82106781,11.5 11.5,9.82106781 11.5,7.75 C11.5,7.0770242 11.3227267,6.4454528 11.0123294,5.89943526 L5.89943526,11.0123294 Z M4.48767056,9.60056474 L9.60056474,4.48767056 C9.0545472,4.17727333 8.4229758,4 7.75,4 C5.67893219,4 4,5.67893219 4,7.75 C4,8.4229758 4.17727333,9.0545472 4.48767056,9.60056474 Z M7.75,13.5 C4.57436269,13.5 2,10.9256373 2,7.75 C2,4.57436269 4.57436269,2 7.75,2 C10.9256373,2 13.5,4.57436269 13.5,7.75 C13.5,10.9256373 10.9256373,13.5 7.75,13.5 Z" id="Combined-Shape"></path>
        </g>
    </g>
</svg>