<?xml version="1.0" encoding="UTF-8"?>
<svg width="16px" height="16px" viewBox="0 0 16 16" version="1.1" xmlns="http://www.w3.org/2000/svg" xmlns:xlink="http://www.w3.org/1999/xlink">
    <!-- Generator: Sketch 48.2 (47327) - http://www.bohemiancoding.com/sketch -->
    <title>pivot</title>
    <desc>Created with Sketch.</desc>
    <defs></defs>
    <g id="Icons" stroke="none" stroke-width="1" fill="none" fill-rule="evenodd">
        <g id="pivot" stroke="#000000">
            <path d="M13.5,4.5 L4.5,4.5" id="Line" stroke-linecap="square"></path>
            <path d="M4.5,4.5 L4.5,13.5" id="Line-2" stroke-linecap="square"></path>
            <polyline id="Path-12" points="7.5 12.5 6.5 11.5 7.5 10.5"></polyline>
            <polyline id="Path-13" points="12.5 7.5 11.5 6.5 10.5 7.5"></polyline>
            <path d="M4.5,11.5 L2.5,11.5" id="Line-3-Copy" stroke-linecap="square"></path>
            <path d="M8.5,2.5 L8.5,4.5" id="Line-3" stroke-linecap="square"></path>
            <path d="M5.5,2.5 L5.5,4.5" id="Line-3-Copy-5" stroke-linecap="square"></path>
            <path d="M11.5,2.5 L11.5,4.5" id="Line-3-Copy-3" stroke-linecap="square"></path>
            <path d="M11.5,6.5 L11.5,9.5 C11.5,10.6045695 10.6045695,11.5 9.5,11.5 L6.5,11.5" id="Path-15"></path>
            <path d="M4.5,8.5 L2.5,8.5" id="Line-3" stroke-linecap="square"></path>
            <path d="M4.5,5.5 L2.5,5.5" id="Line-3-Copy-2" stroke-linecap="square"></path>
            <rect id="Rectangle" x="1.5" y="1.5" width="13" height="13" rx="2"></rect>
        </g>
    </g>
</svg>