<svg xmlns="http://www.w3.org/2000/svg" xml:space="preserve" style="fill:#fff;fill-rule:evenodd;clip-rule:evenodd;stroke-linejoin:round;stroke-miterlimit:2" viewBox="0 0 105 48"><path d="M11.51 10.237H0v27.527l11.51-27.527ZM19.609 10.237h11.494v27.527L19.61 10.237ZM15.558 20.382l7.328 17.382h-4.807l-2.19-5.534h-5.362l5.031-11.848ZM49.881 27.742l1.357 3.892c.046.096.113.143.233.143h2.61c.142 0 .165-.068.142-.212l-5.392-14.973c-.021-.12-.044-.144-.165-.144h-3.238c-.09 0-.142.07-.142.166-.047.789-.114 1.028-.212 1.26l-4.806 13.67c-.021.165.03.233.165.233h2.332c.142 0 .211-.047.263-.189l1.282-3.846h5.571ZM45.053 25.2c.705-2.129 1.634-4.859 2.01-6.42h.021c.465 1.636 1.56 4.875 2.056 6.42h-4.087ZM61.155 32.009c1.401 0 2.893-.255 4.41-.908.118-.044.141-.098.141-.21a15.244 15.244 0 0 1-.098-1.49V15.301c0-.09 0-.136-.113-.136h-2.541c-.098 0-.142.046-.142.165v4.778a8.145 8.145 0 0 0-1.004-.067c-4.103 0-6.623 2.707-6.623 6.087 0 3.922 2.588 5.88 5.97 5.88Zm1.657-2.609c-.42.134-.885.186-1.358.186-1.86 0-3.382-1.05-3.382-3.599 0-2.257 1.568-3.592 3.645-3.592.419 0 .787.046 1.095.165v6.84ZM73.815 20.042c-3.502 0-5.669 2.684-5.669 5.999 0 2.96 1.726 5.968 5.617 5.968 3.292 0 5.601-2.423 5.601-6.045 0-3.194-1.958-5.922-5.55-5.922Zm-.142 2.353c1.979 0 2.82 1.703 2.82 3.646 0 2.4-1.239 3.591-2.678 3.591-1.776 0-2.826-1.493-2.826-3.645 0-2.211 1.117-3.592 2.684-3.592ZM81.992 15.166c-.098 0-.165.046-.165.165V31.29c0 .067.067.188.165.21 1.118.345 2.287.51 3.494.51 3.457 0 6.817-2.144 6.817-6.464 0-3.127-2.145-5.503-5.504-5.503-.772 0-1.492.119-2.123.328l-.029-5.016c0-.165-.046-.188-.211-.188h-2.444Zm7.439 10.664c0 2.587-1.77 3.802-3.682 3.802-.397 0-.75-.023-1.073-.12v-6.81c.368-.142.81-.26 1.628-.26 1.844 0 3.127 1.169 3.127 3.388ZM101.79 26.67c1.14 0 2.076-.023 2.399-.098.12-.023.165-.067.188-.165.067-.255.096-.787.096-1.44 0-2.218-1.334-4.925-4.784-4.925-3.524 0-5.48 2.872-5.48 6.11 0 2.872 1.514 5.857 5.759 5.857 1.589 0 2.616-.255 3.5-.676.091-.044.135-.119.135-.253v-1.943c0-.113-.067-.136-.134-.09-.885.374-1.845.562-2.895.562-2.376 0-3.457-1.313-3.524-2.939h4.74Zm-4.74-2.01c.188-1.14.908-2.378 2.52-2.378 1.778 0 2.242 1.494 2.242 2.167v.189c-.098.023-.397.023-1.282.023h-3.48Z"/></svg>