<svg xmlns="http://www.w3.org/2000/svg" xml:space="preserve" style="fill:#fff;fill-rule:evenodd;clip-rule:evenodd;stroke-linejoin:round;stroke-miterlimit:2" viewBox="0 0 95 48"><path d="M58.828 38.417c-5.49 4.06-13.476 6.223-20.364 6.223-9.649 0-18.3-3.56-24.888-9.483-.5-.466-.067-1.099.565-.733 7.088 4.126 15.839 6.588 24.89 6.588 6.088 0 12.81-1.264 18.999-3.892.931-.367 1.696.632.798 1.297Z"/><path d="M61.124 35.788c-.7-.898-4.658-.432-6.422-.199-.532.066-.632-.4-.133-.732 3.16-2.23 8.318-1.564 8.917-.832.599.732-.166 5.923-3.127 8.385-.466.366-.9.166-.7-.333.666-1.663 2.164-5.357 1.465-6.289ZM54.802 19.218v-2.163c0-.332.233-.532.532-.532h9.65c.299 0 .565.233.565.532v1.83c0 .3-.266.7-.732 1.365l-4.991 7.12c1.864-.033 3.827.233 5.49 1.165.366.2.466.532.5.832v2.296c0 .332-.333.698-.7.499-2.96-1.564-6.92-1.73-10.181.033-.333.166-.699-.166-.699-.499V29.5c0-.333 0-.932.366-1.464l5.79-8.286h-5.025c-.3 0-.565-.232-.565-.532Zm-35.17 13.41h-2.929c-.266-.034-.499-.233-.532-.5v-15.04c0-.299.266-.532.566-.532h2.728c.3 0 .5.233.532.5v1.963h.067c.699-1.897 2.063-2.795 3.86-2.795 1.83 0 2.994.898 3.793 2.795.699-1.897 2.33-2.795 4.06-2.795 1.23 0 2.561.499 3.393 1.663.932 1.265.732 3.095.732 4.725v9.516c0 .3-.266.533-.565.533h-2.895c-.3-.033-.533-.266-.533-.533v-7.985c0-.632.067-2.23-.066-2.829-.233-.998-.865-1.297-1.73-1.297-.699 0-1.464.466-1.764 1.231-.3.765-.266 2.03-.266 2.895v7.985c0 .3-.266.533-.566.533H24.59c-.3-.033-.532-.266-.532-.533v-7.985c0-1.664.266-4.16-1.797-4.16-2.096 0-2.03 2.396-2.03 4.16v7.985a.584.584 0 0 1-.599.5Zm54.236-16.404c4.358 0 6.72 3.726 6.72 8.485 0 4.591-2.594 8.251-6.72 8.251-4.26 0-6.589-3.727-6.589-8.385-.033-4.691 2.33-8.351 6.589-8.351Zm0 3.094c-2.163 0-2.296 2.961-2.296 4.792 0 1.83-.033 5.756 2.262 5.756 2.263 0 2.396-3.161 2.396-5.091 0-1.264-.067-2.795-.432-3.993-.333-1.065-.999-1.464-1.93-1.464Zm12.344 13.31h-2.928c-.3-.034-.532-.267-.532-.533V17.022a.575.575 0 0 1 .565-.499h2.729c.266 0 .466.2.532.433v2.296h.067c.832-2.063 1.963-3.028 3.992-3.028 1.298 0 2.596.465 3.428 1.763.765 1.198.765 3.228.765 4.692v9.483c-.033.266-.266.466-.566.466h-2.928c-.266-.034-.499-.233-.532-.466v-8.186c0-1.663.2-4.059-1.83-4.059-.699 0-1.364.466-1.697 1.198-.4.931-.466 1.83-.466 2.861v8.119a.61.61 0 0 1-.599.533ZM47.116 25.44c0 1.132.033 2.097-.533 3.128-.466.832-1.198 1.331-2.03 1.331-1.13 0-1.796-.865-1.796-2.13 0-2.495 2.229-2.96 4.359-2.96v.631Zm2.96 7.154c-.199.167-.465.2-.698.067-.965-.799-1.165-1.198-1.697-1.963-1.597 1.63-2.762 2.13-4.824 2.13-2.463 0-4.393-1.531-4.393-4.56 0-2.395 1.298-3.992 3.128-4.79 1.597-.7 3.827-.833 5.524-1.032v-.366c0-.699.066-1.53-.366-2.13-.366-.532-1.032-.765-1.631-.765-1.131 0-2.13.565-2.362 1.763-.067.267-.233.533-.5.533l-2.828-.3c-.233-.066-.499-.233-.432-.598.665-3.46 3.76-4.493 6.555-4.493 1.43 0 3.294.366 4.425 1.465 1.43 1.33 1.298 3.127 1.298 5.057v4.559c0 1.364.566 1.963 1.098 2.728.2.266.233.6 0 .765-.632.5-1.697 1.431-2.296 1.93ZM8.685 25.44c0 1.132.034 2.097-.532 3.128-.466.832-1.198 1.331-2.03 1.331-1.13 0-1.796-.865-1.796-2.13 0-2.495 2.229-2.96 4.358-2.96v.631Zm2.929 7.154c-.2.167-.466.2-.7.067-.964-.799-1.164-1.198-1.696-1.963-1.597 1.63-2.762 2.13-4.825 2.13C1.93 32.827 0 31.296 0 28.267c0-2.395 1.298-3.992 3.128-4.79 1.597-.7 3.826-.833 5.523-1.032v-.366c0-.699.067-1.53-.366-2.13-.366-.532-1.031-.765-1.63-.765-1.132 0-2.13.565-2.363 1.763-.066.267-.233.533-.499.533l-2.828-.3c-.233-.066-.5-.233-.433-.598.666-3.46 3.76-4.493 6.555-4.493 1.431 0 3.294.366 4.426 1.465 1.43 1.33 1.297 3.127 1.297 5.057v4.559c0 1.364.566 1.963 1.098 2.728.2.266.233.6 0 .765-.632.5-1.697 1.431-2.295 1.93Z"/></svg>