<svg xmlns="http://www.w3.org/2000/svg" xml:space="preserve" style="fill:#fff;fill-rule:evenodd;clip-rule:evenodd;stroke-linejoin:round;stroke-miterlimit:2" viewBox="0 0 39 48"><path d="M38.17 29.626c0 .953-.604 1.398-1.685 1.398H34.42v-.954h2.065c.191 0 .35-.032.414-.095a.405.405 0 0 0 .127-.286.484.484 0 0 0-.127-.318c-.064-.064-.191-.095-.382-.095-.985-.032-2.224.031-2.224-1.367 0-.636.413-1.335 1.525-1.335h2.13v.954h-1.971c-.19 0-.318 0-.413.063a.456.456 0 0 0-.159.35c0 .159.095.254.222.318.128.031.255.063.414.063h.572c.604 0 .985.127 1.24.35.19.222.317.509.317.954Zm-4.481-.954c-.255-.223-.636-.35-1.24-.35h-.572c-.159 0-.286-.032-.413-.063-.127-.064-.222-.16-.222-.318 0-.16.031-.254.159-.35.095-.063.222-.063.412-.063h1.971v-.954h-2.13c-1.144 0-1.525.7-1.525 1.335 0 1.398 1.24 1.335 2.225 1.367.19 0 .318.031.381.095s.127.19.127.318a.405.405 0 0 1-.127.286c-.095.063-.222.095-.413.095h-2.066v.954h2.066c1.08 0 1.684-.445 1.684-1.398 0-.445-.127-.732-.317-.954Zm-4.069 1.43h-2.51v-.89h2.447v-.89H27.11v-.826h2.51v-.921h-3.559v4.449h3.56v-.922Zm-4.703-3.305c-.35-.19-.763-.223-1.303-.223h-2.447v4.45h1.08v-1.621h1.145c.38 0 .603.032.762.19.191.223.191.604.191.89v.54h1.049v-.858c0-.413-.032-.603-.16-.826a1.24 1.24 0 0 0-.54-.381c.286-.095.764-.477.764-1.176 0-.508-.191-.795-.541-.985Zm-6.039-.223h-3.4l-1.367 1.462-1.303-1.462h-4.29v4.45h4.227l1.366-1.462 1.303 1.462h2.066V29.53h1.335c.922 0 1.844-.254 1.844-1.494 0-1.207-.954-1.462-1.78-1.462Zm5.18 1.844c-.158.063-.317.063-.508.063l-1.303.032v-1.017h1.303c.191 0 .382 0 .509.095.127.064.222.191.222.382 0 .19-.095.35-.222.445Zm-5.18.222H17.48v-1.144h1.398c.382 0 .636.16.636.54 0 .382-.254.604-.636.604Zm-4.1.159 1.653-1.748v3.591L14.778 28.8Zm-2.574 1.303H9.566v-.89h2.352v-.89H9.566v-.826h2.67l1.176 1.303-1.208 1.303Zm23.01-6.738H33.69l-2.003-3.337v3.337h-2.16l-.414-.985h-2.225l-.413.985h-1.24c-.508 0-1.175-.127-1.556-.508-.35-.382-.54-.89-.54-1.685 0-.667.095-1.27.571-1.748.318-.35.89-.508 1.62-.508h1.018v.954H25.33c-.381 0-.604.063-.826.254-.191.19-.286.54-.286 1.017 0 .476.095.826.286 1.049.158.158.445.222.73.222h.477l1.526-3.496h1.589l1.78 4.195v-4.195h1.652l1.876 3.083v-3.083h1.08v4.45Zm-12.617-4.45h-1.08v4.45h1.08v-4.45Zm-2.257.192c-.35-.191-.73-.191-1.27-.191h-2.448v4.45h1.049v-1.622h1.144c.381 0 .636.032.794.191.191.223.159.604.159.858v.572h1.08v-.89c0-.381-.031-.572-.19-.794a1.331 1.331 0 0 0-.508-.382c.285-.127.762-.476.762-1.175 0-.509-.222-.795-.572-1.017Zm-4.481 3.337H13.38v-.89h2.447v-.922H13.38v-.794h2.479v-.922h-3.56v4.45h3.56v-.922Zm-4.354-3.528H9.757l-1.303 3.02-1.398-3.02H5.339v4.195l-1.811-4.195h-1.59l-1.906 4.45h1.144l.413-.986h2.225l.413.985h2.161V19.87l1.557 3.495h.922l1.557-3.495v3.495h1.08v-4.45h.001Zm17.226 2.51L28 19.679l-.731 1.748h1.462Zm-9.217-.698c-.159.095-.318.095-.54.095H17.67v-.985h1.303c.19 0 .412 0 .54.063.127.096.19.223.19.414 0 .19-.063.349-.19.413Zm-17.544.699.732-1.748.73 1.748H1.97ZM37.916 4.963H0V20.98l1.303-2.956h2.765l.381.731v-.73h3.242l.731 1.588.7-1.589H19.45c.476 0 .889.096 1.207.35v-.35h2.829v.35c.476-.255 1.08-.35 1.78-.35h4.1l.38.731v-.73h3.02l.445.73v-.73h2.955v6.228H33.18l-.572-.953v.953H28.89l-.413-1.016h-.922l-.413 1.016h-1.939c-.763 0-1.335-.19-1.716-.38v.38h-4.609v-1.43c0-.19-.031-.222-.158-.222h-.16v1.652H9.663v-.794l-.318.794H7.469l-.318-.763v.763H3.56l-.382-1.017h-.921l-.413 1.017H0v18.783h37.916v-11.41c-.413.191-.986.286-1.558.286h-2.765v-.38c-.317.254-.89.38-1.43.38h-8.708v-1.43c0-.19-.032-.19-.19-.19h-.16v1.62h-2.86V30.23c-.476.223-1.017.223-1.494.223h-.318v1.461h-3.496l-.826-.953-.921.953H7.564v-6.228h5.72l.827.953.89-.953h3.846c.444 0 1.176.063 1.493.38v-.38h3.433c.35 0 1.017.063 1.462.38v-.38h5.18v.381c.286-.254.827-.381 1.303-.381h2.892v.381c.318-.222.763-.381 1.335-.381h1.97V4.963Z"/></svg>