<svg xmlns="http://www.w3.org/2000/svg" xml:space="preserve" style="fill:#fff;fill-rule:evenodd;clip-rule:evenodd;stroke-linejoin:round;stroke-miterlimit:2" viewBox="0 0 32 48"><path d="M26.698 20.081c-.017-3.114 1.392-5.464 4.242-7.194-1.595-2.282-4.004-3.538-7.186-3.784-3.011-.238-6.303 1.756-7.508 1.756-1.272 0-4.19-1.671-6.481-1.671C5.03 9.264 0 12.963 0 20.488c0 2.223.407 4.52 1.222 6.889 1.086 3.113 5.005 10.749 9.094 10.622 2.138-.051 3.648-1.52 6.43-1.52 2.699 0 4.098 1.52 6.482 1.52 4.123-.06 7.67-7 8.705-10.122-5.532-2.604-5.235-7.635-5.235-7.796Zm-4.802-13.93C24.212 3.402 24 .899 23.932 0c-2.044.119-4.411 1.391-5.76 2.96-1.484 1.68-2.358 3.76-2.172 6.1 2.215.17 4.234-.967 5.896-2.91Z"/></svg>