<svg xmlns="http://www.w3.org/2000/svg" xml:space="preserve" style="fill:#fff;fill-rule:evenodd;clip-rule:evenodd;stroke-linejoin:round;stroke-miterlimit:2" viewBox="0 0 53 48"><path d="M25.234 13.678h-4.29v20.978h4.29V13.678Zm3.933.034v3.934h3.612V29.48c0 1.633.448 2.944 1.31 3.933.864 1.024 2.014 1.53 3.463 1.564 1.437.035 2.714-.288 3.796-.955l.068-.034v-.07l1.024-3.99-.253.16c-1.15.702-2.208 1.047-3.175 1.047-1.334 0-2.012-.793-2.012-2.357V17.646h4.382v-3.934H37V7.156L32.78 9.422v4.29h-3.612Zm20.76-.034h-4.324v20.978h4.325V13.678Zm-31.444 3.3-.092-.068c-1.979-2.404-4.452-3.577-7.419-3.577-3.105 0-5.659.954-7.706 2.84-2.174 1.99-3.267 4.67-3.267 8.028 0 3.359 1.093 6.016 3.267 8.029 2.013 1.886 4.6 2.818 7.706 2.818 2.967 0 5.463-1.185 7.419-3.554l.092-.07-2.427-2.932-.092.091c-1.576 1.564-3.267 2.37-5.084 2.37-1.898 0-3.462-.645-4.704-1.921-1.254-1.254-1.852-2.876-1.852-4.831 0-1.955.598-3.589 1.852-4.865 1.242-1.242 2.806-1.886 4.704-1.886 1.817 0 3.508.805 5.084 2.369l.092.092 2.427-2.932Z"/><path d="M23.06 10.227c1.69-1.725 3.577-3.036 5.728-3.968 2.07-.897 4.278-1.334 6.556-1.334 2.266 0 4.474.437 6.59 1.334 2.105.932 3.99 2.243 5.682 3.968l.07.058h4.922l-.184-.287c-1.955-2.75-4.486-4.923-7.522-6.51-3.037-1.576-6.2-2.347-9.558-2.347-3.324 0-6.533.77-9.57 2.347-3.036 1.587-5.566 3.76-7.51 6.51l-.195.287h4.957l.034-.058Z"/><path d="M25.234 13.678h-4.29v20.978h4.29V13.678Zm3.933.034v3.934h3.612V29.48c0 1.633.448 2.944 1.31 3.933.864 1.024 2.014 1.53 3.463 1.564 1.437.035 2.714-.288 3.796-.955l.068-.034v-.07l1.024-3.99-.253.16c-1.15.702-2.208 1.047-3.175 1.047-1.334 0-2.012-.793-2.012-2.357V17.646h4.382v-3.934H37V7.156L32.78 9.422v4.29h-3.612Zm20.76-.034h-4.324v20.978h4.325V13.678Zm-31.444 3.3-.092-.068c-1.979-2.404-4.452-3.577-7.419-3.577-3.105 0-5.659.954-7.706 2.84-2.174 1.99-3.267 4.67-3.267 8.028 0 3.359 1.093 6.016 3.267 8.029 2.013 1.886 4.6 2.818 7.706 2.818 2.967 0 5.463-1.185 7.419-3.554l.092-.07-2.427-2.932-.092.091c-1.576 1.564-3.267 2.37-5.084 2.37-1.898 0-3.462-.645-4.704-1.921-1.254-1.254-1.852-2.876-1.852-4.831 0-1.955.598-3.589 1.852-4.865 1.242-1.242 2.806-1.886 4.704-1.886 1.817 0 3.508.805 5.084 2.369l.092.092 2.427-2.932Z"/><path d="M23.06 10.227c1.69-1.725 3.577-3.036 5.728-3.968 2.07-.897 4.278-1.334 6.556-1.334 2.266 0 4.474.437 6.59 1.334 2.105.932 3.99 2.243 5.682 3.968l.07.058h4.922l-.184-.287c-1.955-2.75-4.486-4.923-7.522-6.51-3.037-1.576-6.2-2.347-9.558-2.347-3.324 0-6.533.77-9.57 2.347-3.036 1.587-5.566 3.76-7.51 6.51l-.195.287h4.957l.034-.058Z"/></svg>