<svg xmlns="http://www.w3.org/2000/svg" xml:space="preserve" style="fill:#fff;fill-rule:evenodd;clip-rule:evenodd;stroke-linejoin:round;stroke-miterlimit:2" viewBox="0 0 65 48"><path d="M64.436 29.668v3.873H52.27V14.459h4.421v15.209h7.745ZM27.651 13.353l-10.78 8.3c-1.108-4.149-4.704-7.194-9.126-7.194H0v19.082h7.745c4.422 0 8.294-3.042 9.125-7.19l10.781 8.296 10.787-8.297v7.19h12.167v-3.872h-8.013V14.459h-4.43v7.188L27.93 29.95l-2.21-1.938 4.979-3.873 5.255-4.148-3.042-2.484-10.232 8.012-2.21-1.934 10.229-7.746-3.042-2.486h-.006ZM4.146 18.332h3.317c.69 0 1.37.155 1.992.44a5.406 5.406 0 0 1 1.678 1.219 5.822 5.822 0 0 1 1.155 1.839c.276.698.428 1.481.428 2.31 0 .76-.135 1.5-.389 2.188a6.008 6.008 0 0 1-1.098 1.856 5.184 5.184 0 0 1-1.659 1.281 4.812 4.812 0 0 1-2.107.479H4.146V18.332Z"/></svg>