<svg xmlns="http://www.w3.org/2000/svg" xml:space="preserve" style="fill:#fff;fill-rule:evenodd;clip-rule:evenodd;stroke-linejoin:round;stroke-miterlimit:2" viewBox="0 0 90 48"><path d="M45.097 9.509c.61.028 1.193.261 1.654.661.629.595.794 1.587.496 2.381-1.157 2.381-3.908 3.972-5.787 4.498-1.125.264-2.547.264-3.572-.133-.496.298-.915 1.26-1.521.86-.878-.685-.118-1.757-.625-2.518-.104-.157-.367-.168-.5-.425-.694-1.521.166-2.976 1.125-4.134 1.598-1.783 6.184-3.77 8.73-1.19Zm-5.324 1.19c-.893.165-1.902.554-2.447 1.19-.546.637-.893 1.257-.562 1.919 1.158-.86 1.72-2.05 3.01-2.778-.001-.133.197-.232-.001-.331Zm5.39.331c-2.281-.199-4 1.521-5.621 3.174-.1.265-.695.562-.232.86 2.183.198 4.267-.43 5.854-1.885.464-.43.793-.992.563-1.587a1.168 1.168 0 0 0-.563-.562Zm19.776 9.855c1.059 2.58 1.951 6.646 0 9.127-.529.595-1.455 1.144-2.05.694-2.183-1.752-3.108-4.266-4.464-6.515-.198-.099-.198.166-.298.265-.495 2.282.43 5.258-1.124 7.044-.595.099-1.152-.207-1.356-.794-.76-2.347.033-4.795.231-7.143.463-1.19.662-2.58 1.687-3.472 1.653.66 2.447 2.514 3.405 3.87.696 1.024 1.257 2.182 2.05 3.108.695-.298.353-1.205.332-1.753-.266-2.15-.86-4.134-1.423-6.184-.033-.529-.33-1.422.23-1.753 1.491.662 2.119 2.216 2.78 3.506Zm-9.987-.794c0 .496-.397 1.116-.728 1.19-3.175.496-6.713.199-9.69 1.19-.098.365.331.43.563.53 2.546.396 5.225.496 7.706 1.124 1.311.333 1.786 1.886 1.885 3.175.061 1.017-.33 2.249-1.323 2.943-2.446 1.555-6.183 1.488-8.664.067-.949-.532-1.852-1.388-1.919-2.447.006-.84.365-1.502.96-1.819 2.381-.959 5.324-.43 7.375.794.131.661-.584.625-.927.86-2.282 1.323-4.002-1.487-6.118-.464-.298.199-.513.752-.165.927 2.612 1.157 5.522.33 8.102-.397.297-.1.661-.397.694-.694-.1-1.059-1.29-1.29-2.05-1.587-2.249-.562-4.73-.562-7.143-.794-.463-.099-1.053-.422-1.19-.793-.265-.794-.265-1.885.33-2.546 3.075-2.712 7.738-2.48 11.64-1.753.265.097.562.196.662.494Zm-14.451 1.257c.298 3.174.463 6.118.397 9.458-.067.43-.562.528-.893.694-.529.099-1.213-.013-1.422-.297-.76-1.225-.496-2.878-.562-4.366.1-2.347.066-4.894.728-7.077.126-.317.496-.595.793-.397.794.397.926 1.191.959 1.985Zm36.741-.463c.16.267.326.68 0 .86-1.488.66-3.505.363-5.225.561-.463.397-.827 1.058-.662 1.654.166.1.314.25.497.231 1.057.066 2.645-.496 3.34.496.17.295-.022 1.397-.496 1.422-1.29.166-3.411-.162-4.035.166-.793.53-.728 1.554-1.025 2.382.562.363 1.151-.01 1.818-.1 1.225-.198 2.58-.562 3.804-.298.231.43.562.894.33 1.423-2.085 1.653-4.774 3.348-7.638 2.149-1.076-.482-1.555-2.117-1.19-3.505.23-.992 1.255-1.95.627-3.009-.099-.463.166-.86.563-.959 1.091 0 .86-1.356 1.422-1.985-.628-.694-2.215-.66-2.05-2.05.76-.396 1.687-.264 2.546-.396 1.95-.398 4.133-.63 6.119-.398.395.08.925.86 1.255 1.356Zm-47.224-7.54c3.051 2.494 7.01 6.746 6.515 11.64-.596 3.87-4.697 6.78-8.169 7.706-3.373.992-7.606.893-11.046.1-.231.628-.463 1.388-1.19 1.653-.463.165-1.059.066-1.422-.232-1.025-.959-.199-2.81-1.687-3.405-2.91-1.224-6.052-3.639-7.54-6.615-.198-.595.033-1.19.397-1.653 2.282-1.819 5.159-2.546 8.036-3.109.166.067.1-.165.232-.23.165-1.985.231-4.003.86-5.789a.516.516 0 0 1 .727-.165c1.819 1.389.959 4.002 1.753 5.887 3.472.165 6.945.33 9.69 2.282.925.76 1.151 2.213.859 3.042-.292.829-1.256 1.422-2.15 1.488-.595 0-1.72.058-1.653-.397.066-.454 2.023-1.199 1.422-1.819-.864-.892-5.186-1.422-7.865-1.753-.33-.066-.634.033-.634.397-.066 2.513-.265 5.29.165 7.706.033.166.232.364.397.396 4.729.76 9.723.33 13.427-2.38 1.72-1.389 2.282-3.341 1.984-5.49-1.488-5.986-7.739-9.591-12.864-11.906a36.174 36.174 0 0 0-16.436-3.01c-.943.07-2.436.395-2.447.729-.011.333 1.691.228 1.487.86-.203.63-1.934.256-2.447.098-.512-.157-.463-.893-.33-1.356 1.29-2.281 4.889-2.466 6.515-2.546 8.994-.232 17.692 3.194 23.414 7.87Zm-16.205 8.863c-2.282.033-4.696.264-6.812 1.058-.43.165-.96.628-.63 1.19.86 1.158 2.09 2.108 3.242 2.778 1.152.67 2.679 1.521 4.068 1.72.33-2.15.33-4.266.297-6.482-.132-.066 0-.198-.165-.264Zm68.356-3.01c-.1 2.877-2.779 4.663-2.779 7.54.1.1.167.232.298.167 2.15-2.349 4.266-5.69 7.408-6.681.828-.066 1.576.653 1.885 1.19 1.092 2.183.828 5.259-.693 7.243-1.57 1.948-4.3 3.902-7.408 3.571a42.43 42.43 0 0 0-2.68 9.987c-.264.695-.892.067-1.288-.066-2.679-2.116-.48-7.719-.298-8.434.182-.713.899-2.394 1.423-3.803-1.257-2.248-.464-4.96.561-7.044.794-1.389 1.886-2.778 3.176-3.835.163 0 .296.033.395.165Zm5.325 3.572c-.396-.066-.562.463-.892.562-1.521 1.72-3.043 3.44-3.804 5.49 1.026.132 1.885-.53 2.779-.893 1.52-.96 2.48-2.545 2.38-4.365-.066-.298-.33-.53-.463-.794Z"/></svg>