<svg xmlns="http://www.w3.org/2000/svg" xml:space="preserve" style="fill:#fff;fill-rule:evenodd;clip-rule:evenodd;stroke-linejoin:round;stroke-miterlimit:2" viewBox="0 0 116 48"><path d="M7.31 31.353H2.962V20.514H0v-3.529h2.962v-2.511c0-2.976 1.31-5.11 5.646-5.11.917 0 2.357.185 2.357.185v3.277H9.453c-1.54 0-2.143.468-2.143 1.764v2.395h3.598l-.32 3.53H7.31v10.838Zm9.977-14.65c-.063 0-.128.002-.193.004-4.032 0-5.876 3.033-5.876 7.338 0 5.423 2.392 7.594 5.908 7.594 2.01 0 3.332-.847 4.135-2.427v2.143h4.136V16.986H21.26v2.21c-.656-1.422-2.014-2.476-3.974-2.493Zm1.052 3.395c1.693 0 2.71 1.181 2.71 3.19l.003 2.053c0 1.354-.84 2.938-2.713 2.938-2.882 0-2.805-3.111-2.805-4.148 0-3.485 1.535-4.033 2.805-4.033Zm8.728 4.073c0-1.746-.083-7.459 7.36-7.459 2.988 0 4.235.95 4.235.95l-1.002 3.11s-1.246-.686-2.87-.686c-2.08 0-3.406 1.206-3.406 3.327l.002 1.52c0 2.039 1.28 3.4 3.408 3.4 1.48 0 2.843-.693 2.843-.693l1 3.045s-1.14.956-4.19.956c-7.086 0-7.38-5.126-7.38-7.47Zm35.844-7.464c4.032 0 5.906 3.033 5.906 7.338 0 5.423-2.392 7.594-5.908 7.594-2.01 0-3.498-.847-4.3-2.427v2.143l-4.085-.002V9.801l4.336-.378V19c.626-1.675 2.682-2.294 4.051-2.294Zm-1.215 3.391c-1.693 0-2.836 1.181-2.836 3.19l-.004 2.053c-.002 1.354.791 2.938 2.84 2.938 2.881 0 2.804-3.111 2.804-4.148 0-3.485-1.535-4.033-2.804-4.033Zm-15.51-3.38c-4.574 0-6.988 2.494-6.988 6.925v.823c0 5.751 3.39 7.232 7.432 7.232 3.93 0 5.707-1.1 5.707-1.1l-.81-2.926s-2.093.89-4.377.89c-2.368 0-3.386-.603-3.647-2.879h9.18v-2.347c0-4.807-2.708-6.617-6.498-6.617Zm.11 2.931c1.583 0 2.608.97 2.552 3.222H43.51c.093-2.37 1.199-3.222 2.785-3.222Zm31.167-2.95c-4.696 0-7.17 2.646-7.17 7.389 0 6.507 4.263 7.554 7.177 7.554 4.267 0 7.106-2.297 7.106-7.495 0-5.41-3.192-7.448-7.113-7.448Zm-.06 3.411c2.066 0 2.883 1.545 2.883 3.305v1.512c0 2.131-1.144 3.364-2.89 3.364-1.633 0-2.78-1.153-2.78-3.364v-1.512c0-2.358 1.364-3.305 2.787-3.305Zm15.81-3.411c-4.696 0-7.168 2.646-7.168 7.389 0 6.507 4.262 7.554 7.176 7.554 4.267 0 7.106-2.297 7.106-7.495 0-5.41-3.192-7.448-7.113-7.448Zm-.059 3.411c2.065 0 2.884 1.545 2.884 3.305v1.512c0 2.131-1.146 3.364-2.891 3.364-1.634 0-2.781-1.153-2.781-3.364v-1.512c0-2.358 1.366-3.305 2.788-3.305Zm8.811 11.243V9.801l4.349-.378v14.446l4.314-6.884h4.592l-4.5 7.13 4.673 7.238h-4.605l-4.474-7.029v7.03h-4.349Z"/></svg>