<svg xmlns="http://www.w3.org/2000/svg" xml:space="preserve" style="fill:#fff;fill-rule:evenodd;clip-rule:evenodd;stroke-linejoin:round;stroke-miterlimit:2" viewBox="0 0 77 48"><path d="M6.285 15.24h4.651v7.612c-1.552.315-2.74.474-4.043.474C1.797 23.326 0 20.406 0 15.6c0-5.166 2.491-8.086 7.457-8.086.629 0 1.817.045 3.3.27v4.872H9.677l-.608-1.863c-.584-1.772-1.278-2.65-2.38-2.65-1.908 0-2.92 2.581-2.92 7.412 0 4.851.404 7.142 2.895 7.142.338 0 .739-.045 1.123-.155v-5.664l-1.503-1.033v-.604Zm4.561 20.435c0 3.055-2.087 4.807-5.77 4.807-1.009 0-2.491-.156-3.884-.384v-5.97h1.079l.449 1.412c1.008 3.255 1.727 4.333 3.01 4.333 1.347 0 2.31-1.188 2.31-2.76 0-1.279-.604-2.177-1.906-2.875l-2.246-1.213c-1.732-.919-2.675-2.356-2.675-4.108 0-2.65 2.176-4.243 5.75-4.243.808 0 1.752.07 3.254.27v4.871H9.14l-.604-1.862c-.609-1.977-1.258-2.695-2.446-2.695-1.327 0-2.112.853-2.112 2.087 0 1.098.609 1.886 1.797 2.56l2.267 1.278c1.907 1.078 2.805 2.516 2.805 4.492Zm9.928 3.528.449.674v.34h-3.435l-.159-1.303c-.36.988-1.302 1.572-2.515 1.572-1.797 0-2.92-1.123-2.92-2.965 0-1.797 1.009-2.985 4.108-4.198l1.323-.515v-1.682c0-1.482-.27-2.087-1.098-2.087-.674 0-1.054.36-1.707 1.997l-.74 1.834h-1.008v-3.663c1.323-.405 2.65-.674 3.794-.674 2.536 0 3.908 1.213 3.908 3.414v7.256Zm1.298-21.851c0 3.818-2.042 5.974-4.671 5.974-2.626 0-4.668-2.156-4.668-5.974s2.042-5.975 4.672-5.975c2.625 0 4.667 2.157 4.667 5.975ZM17.63 37.317v-3.884l-.424.18c-1.328.539-1.822 1.752-1.822 3.524 0 1.327.315 2.087 1.054 2.087.739 0 1.192-.719 1.192-1.907Zm1.144-19.965c0-4.313-.36-5.456-1.368-5.456-1.01 0-1.368 1.143-1.368 5.456 0 4.312.359 5.456 1.368 5.456 1.008 0 1.368-1.144 1.368-5.456Zm11.275 20.075.404.204c-.719 2.067-1.638 2.85-3.414 2.85-2.895 0-4.512-2.176-4.512-5.974 0-3.793 1.886-5.974 4.961-5.974.83 0 1.932.135 2.875.514v3.819h-1.054l-.424-1.438c-.564-1.907-.874-2.401-1.438-2.401-.898 0-1.617 1.168-1.617 5.615 0 3.57.54 4.872 1.907 4.872.92.004 1.703-.58 2.312-2.087Zm-2.495-14.37H23.51v-.335l.449-.674V9.515l-.45-.674v-.339l3.594-.27v13.812l.45.674v.339Zm5.525.27c-2.47 0-3.953-2.247-3.953-6.085 0-3.819 1.547-5.86 3.928-5.86 1.213 0 1.887.47 2.177 1.412V9.515l-.45-.674v-.339l3.594-.27v13.812l.45.674v.335h-3.19l-.245-1.707c-.355 1.462-1.029 1.98-2.311 1.98Zm7.881 15.876.45.674v.34h-4.043v-.34l.449-.674v-8.085c0-.964-.29-1.548-.988-1.548-.834 0-1.438.698-1.438 2.066v7.567l.45.674v.34h-4.044v-.34l.45-.674V26.671l-.45-.674v-.335l3.594-.27v4.648c.404-.964 1.323-1.503 2.626-1.503 1.842 0 2.94 1.168 2.94 3.434v7.232h.004Zm-8.53-21.92c0 4.042.359 5.275 1.347 5.275 1.233 0 1.458-1.772 1.458-5.32 0-3.435-.245-5.142-1.438-5.142-1.008 0-1.368 1.213-1.368 5.186Zm22.545 4.76.45.675v.335H51.38v-.335l.449-.674v-8.33c0-.81-.27-1.303-.898-1.303-.785 0-1.413.698-1.413 2.041v7.592l.449.674v.335h-4.043v-.335l.45-.674v-8.33c0-.81-.27-1.303-.9-1.303-.783 0-1.412.698-1.412 2.041v7.592l.449.674v.335h-4.043v-.335l.45-.674v-9.14l-.45-.538v-.335l3.234-.384h.27l.09 1.258c.38-.989 1.323-1.528 2.605-1.528 1.368 0 2.267.674 2.67 1.887.336-1.168 1.393-1.887 2.741-1.887 1.772 0 2.895 1.168 2.895 3.435v7.232Zm-4.198 14.87c0 1.952-1.257 3.569-4.288 3.569-.784 0-1.841-.09-3.479-.384v-4.174h.919l.29.899c.719 2.29 1.413 3.144 2.516 3.144 1.033 0 1.706-.743 1.706-1.887 0-.943-.473-1.592-1.592-2.2l-1.932-1.034c-1.233-.674-1.907-1.727-1.907-3.03 0-2.042 1.597-3.28 4.243-3.28.764 0 1.752.111 2.83.336v3.279h-.919l-.473-1.192c-.54-1.438-1.054-1.908-1.907-1.908-.92 0-1.458.54-1.458 1.438 0 .764.449 1.278 1.547 1.907l1.907 1.078c1.299.743 1.997 1.797 1.997 3.439Zm14.53-14.87.45.675v.335H62.32l-.155-1.303c-.36.988-1.303 1.572-2.516 1.572-1.797 0-2.92-1.123-2.92-2.965 0-1.796 1.009-2.985 4.109-4.198l1.323-.514v-1.683c0-1.482-.27-2.086-1.099-2.086-.674 0-1.053.359-1.707 1.996l-.739 1.842h-1.013v-3.659c1.327-.404 2.65-.674 3.794-.674 2.536 0 3.908 1.213 3.908 3.414v7.249Zm-3.144-1.886v-3.883l-.425.18c-1.323.538-1.817 1.751-1.817 3.524 0 1.327.314 2.09 1.053 2.09.74 0 1.189-.718 1.189-1.91Zm14.685 2.56v.336h-4.043v-.335l.449-.674v-8.086c0-.968-.29-1.547-.988-1.547-.833 0-1.438.698-1.438 2.066v7.567l.45.674v.335h-4.043v-.335l.449-.674v-9.14l-.45-.538v-.335l3.235-.384h.27l.09 1.258c.379-.989 1.302-1.528 2.625-1.528 1.842 0 2.94 1.168 2.94 3.435v7.232l.454.674Z"/></svg>