<svg xmlns="http://www.w3.org/2000/svg" xml:space="preserve" style="fill:#fff;fill-rule:evenodd;clip-rule:evenodd;stroke-linejoin:round;stroke-miterlimit:2" viewBox="0 0 99 48"><path d="M12.105 7.957h.874c3.035.066 6.02 1.287 8.164 3.447-.792.808-1.6 1.583-2.375 2.391-1.204-1.088-2.655-1.93-4.238-2.226-2.342-.495-4.865-.05-6.828 1.286-2.144 1.402-3.595 3.777-3.908 6.317-.347 2.506.362 5.145 1.995 7.091a8.827 8.827 0 0 0 6.432 3.166c2.309.132 4.716-.577 6.398-2.193 1.32-1.138 1.93-2.87 2.128-4.552-2.738 0-5.475.017-8.213 0v-3.397h11.528c.593 3.645-.264 7.751-3.035 10.357-1.847 1.847-4.403 2.935-7.009 3.15-2.523.247-5.129-.231-7.371-1.451-2.689-1.435-4.833-3.86-5.888-6.713-.99-2.622-1.006-5.59-.082-8.229.84-2.408 2.457-4.535 4.535-6.02 1.995-1.467 4.42-2.275 6.893-2.424ZM78.237 8.815h3.53v23.55c-1.172 0-2.36.017-3.53-.016.016-7.834 0-15.684 0-23.534ZM31.912 16.978c2.177-.412 4.535.05 6.333 1.353a7.747 7.747 0 0 1 3.116 4.947c.446 2.292-.115 4.8-1.599 6.613-1.6 2.029-4.222 3.117-6.778 2.952-2.342-.132-4.618-1.303-6.003-3.216-1.567-2.11-1.946-5.013-1.089-7.487.858-2.655 3.282-4.683 6.02-5.162m.495 3.134c-.891.23-1.716.742-2.31 1.467-1.599 1.913-1.5 5.03.265 6.812 1.006 1.022 2.523 1.5 3.925 1.22 1.302-.231 2.44-1.105 3.067-2.26 1.088-1.962.775-4.667-.89-6.2-1.072-.99-2.64-1.402-4.057-1.04ZM49.393 16.978c2.49-.478 5.211.215 7.075 1.963 3.034 2.72 3.364 7.817.775 10.95-1.567 1.98-4.106 3.068-6.613 2.952-2.391-.066-4.75-1.253-6.168-3.216-1.6-2.16-1.946-5.128-1.039-7.652.907-2.572 3.282-4.535 5.97-4.997m.495 3.134a4.51 4.51 0 0 0-2.31 1.451c-1.582 1.88-1.516 4.947.182 6.745 1.006 1.072 2.573 1.6 4.024 1.303 1.286-.247 2.44-1.105 3.067-2.26 1.073-1.978.76-4.683-.923-6.217-1.072-.99-2.639-1.385-4.04-1.022ZM64.219 17.935c1.897-1.188 4.42-1.517 6.465-.495.643.28 1.17.759 1.682 1.237.016-.445 0-.907.016-1.369 1.105.017 2.21 0 3.332.017V31.87c-.017 2.194-.578 4.519-2.16 6.119-1.733 1.764-4.388 2.308-6.779 1.946-2.556-.38-4.783-2.243-5.772-4.601.99-.479 2.029-.858 3.05-1.303.578 1.352 1.75 2.506 3.217 2.77 1.468.264 3.166-.099 4.123-1.32 1.022-1.252 1.022-2.968.973-4.501-.759.742-1.633 1.402-2.688 1.649-2.293.643-4.816-.149-6.58-1.699-1.782-1.55-2.837-3.941-2.738-6.316.05-2.688 1.566-5.277 3.859-6.68m3.414 2.112a4.339 4.339 0 0 0-2.59 1.5c-1.55 1.848-1.55 4.8.017 6.614.89 1.072 2.325 1.665 3.71 1.517 1.303-.132 2.507-.957 3.15-2.095 1.089-1.93.908-4.551-.56-6.233a4.059 4.059 0 0 0-3.727-1.303ZM86.004 18.776c1.98-1.847 5.03-2.474 7.57-1.5 2.408.906 3.941 3.199 4.717 5.557-3.579 1.484-7.141 2.952-10.72 4.436.495.94 1.254 1.798 2.276 2.144 1.435.511 3.15.33 4.354-.627.478-.362.857-.84 1.22-1.303.907.61 1.814 1.204 2.721 1.815-1.286 1.93-3.446 3.281-5.772 3.496-2.572.313-5.31-.676-6.976-2.688-2.737-3.167-2.474-8.477.61-11.33m1.765 3.05c-.56.809-.792 1.798-.775 2.771 2.391-.989 4.782-1.979 7.174-2.985-.396-.923-1.353-1.484-2.326-1.632-1.566-.28-3.2.56-4.073 1.847Z"/></svg>