<svg xmlns="http://www.w3.org/2000/svg" xml:space="preserve" style="fill:#fff;fill-rule:evenodd;clip-rule:evenodd;stroke-linejoin:round;stroke-miterlimit:2" viewBox="0 0 41 48"><path d="M20.162 44.162c-.2 0-.4-.004-.6-.01l4.12-11.324h5.671c.996 0 2.088-.765 2.429-1.7l4.47-12.278c.731-2.01-.42-3.655-2.56-3.655h-7.866l-6.6 18.138h-.003l-3.742 10.281C6.603 41.504 0 33.524 0 24 0 14.751 6.228 6.958 14.718 4.583l-3.86 10.612h-.002L4.437 32.828H8.71l5.459-14.983h3.211l-5.458 14.984h4.27l5.088-13.98c.732-2.01-.42-3.654-2.557-3.654h-3.592L19.255 3.86c.3-.014.603-.022.906-.022 11.135 0 20.162 9.027 20.162 20.162s-9.027 20.162-20.162 20.162ZM32.36 17.834h-3.21L24.653 30.17h3.21l4.497-12.336Z"/></svg>