<svg xmlns="http://www.w3.org/2000/svg" xml:space="preserve" style="fill:#fff;fill-rule:evenodd;clip-rule:evenodd;stroke-linejoin:round;stroke-miterlimit:2" viewBox="0 0 107 48"><path d="M57.165 24.017 42.882 9.7v28.6l14.283-14.283Zm-28.566 0L42.882 9.7H14.317l14.282 14.317ZM0 24.017l14.317 14.282V9.7L0 24.017Zm28.6 0L14.316 38.299h28.565L28.599 24.017ZM69.7 24.857h-5.176v5.108h-2.588V18h2.588v4.907H69.7V18h2.587v11.964H69.7v-5.108Zm8.838 5.343c-2.588 0-4.705-1.042-4.738-3.898h2.587c.034 1.277.773 2.05 2.185 2.05 1.041 0 2.251-.538 2.251-1.714 0-.941-.806-1.21-2.15-1.613l-.874-.235c-1.882-.538-3.764-1.277-3.764-3.428 0-2.655 2.487-3.563 4.738-3.563 2.32 0 4.336.807 4.37 3.462h-2.588c-.102-1.076-.74-1.714-1.95-1.714-.974 0-1.915.504-1.915 1.58 0 .873.806 1.142 2.487 1.68l1.008.302c2.05.639 3.36 1.344 3.36 3.36-.033 2.69-2.655 3.731-5.007 3.731Zm6.453-12.165h4.167c.773-.034 1.58 0 2.352.134 1.445.336 2.554 1.277 2.554 2.89 0 1.546-.974 2.32-2.386 2.689 1.613.302 2.823 1.109 2.823 2.89 0 2.722-2.688 3.327-4.772 3.327h-4.705l-.033-11.93Zm4.167 4.973c1.142 0 2.319-.235 2.319-1.613 0-1.243-1.076-1.58-2.151-1.58H87.51v3.193h1.647Zm.235 5.176c1.21 0 2.386-.27 2.386-1.748s-1.008-1.747-2.252-1.747h-2.05v3.495h1.916Zm11.83 2.016c-3.866 0-5.58-2.453-5.58-6.116s1.916-6.318 5.714-6.318c2.386 0 4.705 1.075 4.772 3.764h-2.689c-.134-1.21-.94-1.815-2.083-1.815-2.353 0-3.058 2.52-3.058 4.436s.705 4.134 2.957 4.134c1.176 0 2.05-.639 2.218-1.849h2.688c-.268 2.756-2.453 3.764-4.94 3.764Z"/></svg>