<svg xmlns="http://www.w3.org/2000/svg" xml:space="preserve" style="fill:#fff;fill-rule:evenodd;clip-rule:evenodd;stroke-linejoin:round;stroke-miterlimit:2" viewBox="0 0 60 48"><path d="M0 12v1.642h11.679V12H0Zm13.334 0v1.642h16.642S28.276 12 26.026 12H13.333Zm19.907 0v1.642h10.07L42.712 12H33.24Zm17.288 0-.598 1.642h9.978V12h-9.38ZM0 15.193v1.642h11.679v-1.642H0Zm13.334.003v1.64h18.574s-.217-1.264-.596-1.64H13.334Zm19.907 0v1.64h11.173l-.553-1.64h-10.62Zm16.093 0-.554 1.64H59.91v-1.64H49.334Zm-45.978 3.19v1.645h5.058v-1.644H3.356Zm13.334 0v1.645h5.058v-1.644H16.69Zm9.977 0v1.645h5.058s.321-.868.321-1.644h-5.379Zm9.93 0v1.645h8.968l-.598-1.644h-8.37Zm11.635 0-.6 1.645h9.012v-1.644h-8.412ZM3.356 21.583v1.642h5.058v-1.642H3.356Zm13.334 0v1.642h12.919s1.08-.842 1.425-1.642H16.69Zm19.908 0v1.642h5.057v-.914l.322.914h9.264l.345-.914v.914h5.058v-1.642h-9.495l-.504 1.391-.506-1.39h-9.541ZM3.356 24.776v1.642h5.058v-1.642H3.356Zm13.334 0v1.642h14.344c-.345-.797-1.425-1.642-1.425-1.642h-12.92Zm19.908 0v1.642h5.057v-1.642h-5.057Zm5.976 0 .612 1.642h6.947l.581-1.642h-8.14Zm9.012 0v1.642h5.058v-1.642h-5.058Zm-48.23 3.193v1.642h5.058v-1.642H3.356Zm13.334 0v1.642h5.058v-1.642H16.69Zm9.977 0v1.642h5.379c0-.775-.321-1.642-.321-1.642h-5.058Zm9.93 0v1.642h5.058v-1.642h-5.057Zm7.126 0 .593 1.642h4.657l.597-1.642h-5.847Zm7.863 0v1.642h5.058v-1.642h-5.058ZM.09 31.162v1.645h11.68v-1.645H.09Zm13.243 0v1.645h17.978c.379-.377.596-1.645.596-1.645H13.334Zm19.999 0v1.645h8.322v-1.645h-8.322Zm11.54 0 .61 1.645h2.37l.571-1.645h-3.55Zm6.713 0v1.645H60v-1.645h-8.414ZM.09 34.358V36h11.68v-1.642H.09Zm13.243 0v1.64h12.691c2.252 0 3.951-1.64 3.951-1.64H13.334Zm19.999 0V36h8.322v-1.642h-8.322Zm12.696 0 .586 1.637.1.003.596-1.64h-1.282Zm5.557 0V36H60v-1.642h-8.414Z"/></svg>