<svg xmlns="http://www.w3.org/2000/svg" xml:space="preserve" style="fill:#fff;fill-rule:evenodd;clip-rule:evenodd;stroke-linejoin:round;stroke-miterlimit:2" viewBox="0 0 57 48"><path d="M0 10.99h4.412v4.413H0zM4.302 33.98V18.087H.126V33.98h4.176Zm27.762.156v-3.894c-.612 0-1.13-.031-1.508-.094-.439-.063-.769-.22-.989-.44-.22-.22-.36-.534-.44-.942-.062-.393-.094-.91-.094-1.539v-5.559h3.031v-3.58h-3.03v-6.202H24.84v15.372c0 1.304.11 2.403.33 3.282.22.864.596 1.57 1.115 2.104.518.534 1.209.911 2.04 1.147.849.235 1.917.345 3.188.345h.55Zm23.993-.157V10.661h-4.192V33.98h4.192ZM20.805 19.643c-1.161-1.256-2.795-1.884-4.867-1.884-1.005 0-1.916.204-2.748.612a5.879 5.879 0 0 0-2.073 1.696l-.235.298v-2.277h-4.13V33.98h4.161v-8.463.298c.047-1.492.408-2.591 1.1-3.298.737-.753 1.632-1.13 2.653-1.13 1.209 0 2.135.377 2.748 1.099.596.722.91 1.743.91 3.046v8.432h4.224V24.95c.016-2.26-.58-4.05-1.743-5.307Zm28.893 6.36a8.752 8.752 0 0 0-.597-3.22 8.616 8.616 0 0 0-1.68-2.622 7.65 7.65 0 0 0-2.591-1.759c-1.005-.424-2.12-.628-3.329-.628a8.26 8.26 0 0 0-3.235.644c-1.005.44-1.884 1.02-2.622 1.759a8.184 8.184 0 0 0-1.758 2.622c-.44 1.005-.644 2.088-.644 3.235 0 1.146.204 2.23.612 3.234a8.07 8.07 0 0 0 1.712 2.623 7.842 7.842 0 0 0 2.653 1.758c1.037.44 2.183.66 3.408.66 3.548 0 5.747-1.618 7.066-3.125l-3.015-2.292c-.628.753-2.136 1.774-4.02 1.774-1.178 0-2.151-.267-2.889-.817-.738-.534-1.24-1.287-1.508-2.214l-.047-.141h12.484v-1.492Zm-12.452-1.461c0-1.162 1.334-3.188 4.208-3.203 2.873 0 4.224 2.025 4.224 3.187l-8.432.016Z"/></svg>