<svg xmlns="http://www.w3.org/2000/svg" xml:space="preserve" style="fill:#fff;fill-rule:evenodd;clip-rule:evenodd;stroke-linejoin:round;stroke-miterlimit:2" viewBox="0 0 248 48"><path d="M200.088 13.916c-.958 0-1.747.322-2.38.966-.633.644-.943 1.37-.943 2.192 0 1.042.463 2.2 1.39 3.487-1.539 1.027-2.59 1.894-3.134 2.569-.543.676-.801 1.503-.8 2.497 0 .87.223 1.623.66 2.286.434.664.978 1.188 1.672 1.555.694.368 1.43.566 2.192.566 1.552 0 3.035-.784 4.43-2.333 1.173 1.549 2.531 2.333 4.077 2.333.712 0 1.342-.213 1.885-.612a2.768 2.768 0 0 0 1.06-1.58h-.566c-.403.712-.976 1.084-1.72 1.084-.546 0-1.049-.169-1.531-.494-.483-.325-1.156-1.097-2.004-2.31.356-.472.753-1.206 1.179-2.215.506-1.221 1.006-2.056 1.485-2.497a3.913 3.913 0 0 1 1.672-.92v-.565h-5.09v.565c1.247.142 1.862.649 1.862 1.555 0 .378-.14.907-.4 1.58a8.862 8.862 0 0 1-1.06 1.955 296.956 296.956 0 0 0-3.984-5.514c2.275-1.144 3.394-2.318 3.394-3.534 0-.782-.325-1.428-1.013-1.909-.69-.482-1.479-.707-2.333-.707Zm21.632.07c-1.385 0-2.659.317-3.817.967-1.16.65-2.063 1.65-2.71 2.992a9.745 9.745 0 0 0-.966 4.289c0 2.313.693 4.179 2.097 5.585 1.402 1.406 3.231 2.097 5.443 2.097 2.094 0 3.814-.766 5.161-2.285.356.469.593 1.01.73 1.625h.519V23.86h-.519c-.09.892-.394 1.825-.895 2.78-.5.957-1.17 1.627-2.027 2.028-.859.4-1.7.588-2.52.588-1.537 0-2.833-.608-3.865-1.838-1.031-1.23-1.533-2.994-1.533-5.302 0-2.437.47-4.323 1.414-5.632.947-1.31 2.213-1.955 3.818-1.955 1.31 0 2.49.41 3.535 1.225 1.044.815 1.735 2.246 2.073 4.312h.519l-.142-5.82h-.518a5.551 5.551 0 0 1-.589 2.003c-.459-.572-1.169-1.085-2.098-1.556-.93-.47-1.967-.706-3.11-.706Zm-90.488.047c-1.385 0-2.66.317-3.818.967-1.16.65-2.062 1.65-2.71 2.992a9.725 9.725 0 0 0-.966 4.29c0 2.312.693 4.177 2.097 5.584 1.402 1.406 3.207 2.097 5.42 2.097 2.092 0 3.815-.741 5.16-2.262.359.471.62 1.011.755 1.626h.519v-5.42h-.52c-.09.892-.393 1.826-.894 2.781-.5.956-1.168 1.627-2.027 2.026-.86.4-1.7.613-2.521.613-1.536 0-2.833-.633-3.865-1.861-1.032-1.231-1.532-2.994-1.532-5.302 0-2.438.47-4.3 1.414-5.61.946-1.309 2.214-1.979 3.818-1.979 1.311 0 2.492.41 3.534 1.226 1.044.815 1.734 2.247 2.074 4.312h.519l-.142-5.797h-.518a5.45 5.45 0 0 1-.613 1.98c-.459-.572-1.143-1.086-2.074-1.555-.927-.47-1.967-.708-3.11-.708Zm-112.098.048c-.867 0-2.08.034-3.628.094l-1.933.071v.518h.283c.784 0 1.295.076 1.532.212.236.137.379.375.447.73.07.357.118 1.155.118 2.38v7.541c0 1.288-.049 2.122-.118 2.475-.068.352-.216.61-.47.777-.256.167-.729.236-1.391.236h-.4v.519h7.092v-.52h-.518c-.693 0-1.163-.075-1.414-.258-.252-.182-.415-.473-.471-.848-.058-.377-.071-1.165-.071-2.38v-3.252h1.697c1.766 0 2.998-.163 3.699-.495a3.58 3.58 0 0 0 1.602-1.461c.376-.644.566-1.399.566-2.24 0-.968-.274-1.767-.824-2.403-.551-.636-1.26-1.07-2.121-1.32-.862-.25-2.082-.376-3.677-.376Zm-14.586.165v.518H4.9c.782 0 1.278.076 1.509.212.231.136.4.376.47.73.072.356.095 1.157.095 2.38v5.232c0 1.715-.044 2.955-.165 3.7-.12.745-.495 1.384-1.084 1.932-.588.548-1.309.825-2.168.825-.422 0-.773-.077-1.06-.212-.286-.135-.424-.325-.424-.566 0-.09.034-.22.117-.4.092-.204.142-.4.142-.59 0-.317-.105-.582-.33-.8a1.174 1.174 0 0 0-.849-.33c-.327 0-.599.132-.824.377-.224.243-.33.537-.33.895 0 .592.317 1.101.943 1.531.627.43 1.5.637 2.662.637 1.035 0 1.952-.17 2.734-.518.78-.35 1.417-.84 1.885-1.485.467-.647.746-1.322.848-2.003.102-.68.142-1.667.142-2.97v-5.255c0-1.278.041-2.086.118-2.426.075-.341.236-.584.47-.707.235-.126.73-.189 1.486-.189h.377v-.518H4.548Zm23.282 0v.518h.424c.784 0 1.275.076 1.508.212.233.137.4.375.472.73.072.357.094 1.154.094 2.38v6.693c0 1.272-.026 2.146-.118 2.616-.091.469-.362.881-.778 1.202-.415.32-.939.48-1.602.518v.519h5.538v-.52c-.712-.045-1.257-.229-1.65-.565-.395-.336-.632-.73-.707-1.178-.076-.447-.118-1.288-.118-2.521v-9.002l6.127 13.786h.542l6.056-13.786v9.803c0 1.287-.022 2.098-.094 2.451-.072.352-.24.61-.495.777-.256.167-.71.236-1.367.236h-.542v.519h7.4v-.52h-.683c-.699 0-1.17-.076-1.414-.258-.248-.182-.412-.45-.472-.825-.06-.375-.094-1.192-.094-2.404v-7.54c0-1.28.037-2.086.118-2.427.078-.341.236-.583.471-.707.235-.125.75-.189 1.508-.189h.566v-.518h-4.76l-5.585 12.748-5.656-12.748h-4.69Zm172.305.259c.578 0 1.036.196 1.39.59.352.393.542.892.542 1.53 0 1.07-.802 2.072-2.38 2.994-.97-1.331-1.438-2.386-1.438-3.158 0-.56.172-1.013.52-1.39.345-.378.793-.566 1.366-.566Zm-180.764.118c1.403 0 2.414.299 3.04.895.624.596.942 1.53.942 2.804 0 .836-.179 1.552-.542 2.12-.365.57-.822.93-1.367 1.109-.546.178-1.258.282-2.144.282h-1.108V14.67c.273-.03.663-.047 1.179-.047Zm152.368 2.922c-.9 0-1.627.262-2.214.824-.588.562-.896 1.278-.896 2.121 0 .554.154 1.067.424 1.555.27.49.626.898 1.107 1.202.482.306 1.22.654 2.168 1.06 1.064.455 1.792.878 2.192 1.273.4.4.59.892.59 1.485 0 .587-.228 1.128-.684 1.603-.457.473-1.1.706-1.933.706-1.85 0-3.016-1.244-3.51-3.723h-.448v3.817h.448c.092-.495.23-.881.423-1.154.87.995 1.953 1.485 3.253 1.485 1.13 0 2.033-.31 2.71-.943.675-.636 1.012-1.462 1.012-2.475 0-.64-.145-1.207-.423-1.696a3.05 3.05 0 0 0-1.108-1.132c-.464-.276-1.219-.651-2.239-1.107-1.066-.48-1.783-.915-2.191-1.296-.416-.375-.637-.825-.637-1.367 0-.449.165-.87.496-1.249.33-.377.845-.565 1.555-.565a2.88 2.88 0 0 1 1.98.777c.565.515.955 1.204 1.178 2.098h.377v-3.087h-.377a1.85 1.85 0 0 1-.448 1.037c-.467-.511-.924-.852-1.367-1.014a4.163 4.163 0 0 0-1.438-.235Zm-115.961.023c-1.825 0-3.329.544-4.548 1.65-1.22 1.105-1.838 2.58-1.838 4.406 0 1.874.612 3.367 1.814 4.501 1.203 1.136 2.742 1.72 4.619 1.72 1.927 0 3.483-.584 4.666-1.72 1.181-1.134 1.767-2.597 1.767-4.43 0-1.891-.628-3.383-1.862-4.477-1.235-1.094-2.778-1.65-4.618-1.65Zm27.358 0c-1.842 0-3.286.635-4.36 1.909a6.722 6.722 0 0 0-1.625 4.453c0 1.711.575 3.128 1.697 4.242 1.12 1.115 2.526 1.673 4.217 1.673.843 0 1.745-.195 2.734-.565.726-.272 1.32-.4 1.767-.4.111 0 .24-.001.377.023v-1.249c0-1.022.03-1.667.095-1.933.063-.264.199-.475.4-.589.2-.113.59-.165 1.155-.165v-.4H84.48v.4h.283c.47 0 .791.045.967.119.175.071.291.212.377.424.084.212.14.636.14 1.272 0 .542-.101.988-.282 1.343-.179.356-.498.648-.99.895a3.62 3.62 0 0 1-1.65.377c-1.176 0-2.175-.42-2.968-1.295-.795-.874-1.179-2.38-1.179-4.478 0-2.104.423-3.557 1.25-4.382.825-.825 1.786-1.25 2.898-1.25 1.075 0 1.98.355 2.733 1.061.754.707 1.223 1.664 1.39 2.875h.401v-3.96h-.4c-.053.478-.183.93-.377 1.344-1.04-1.16-2.35-1.744-3.936-1.744Zm154.325 0c-1.824 0-3.328.544-4.548 1.65-1.22 1.105-1.837 2.58-1.837 4.406 0 1.874.588 3.367 1.79 4.501 1.203 1.136 2.742 1.72 4.62 1.72 1.928 0 3.482-.584 4.665-1.72 1.181-1.134 1.79-2.597 1.79-4.43 0-1.891-.627-3.383-1.861-4.477-1.235-1.094-2.779-1.65-4.619-1.65Zm-76.679.024-3.44 8.2c-.248.59-.412.927-.448 1.014-.366.927-.662 1.526-.92 1.814-.256.289-.65.484-1.178.566v.4h3.559v-.4c-.384 0-.7-.1-.943-.283-.24-.183-.354-.446-.354-.801 0-.333.23-1.032.684-2.121l.307-.754h4.476l.92 2.191c.267.635.4 1.004.4 1.131 0 .25-.106.435-.306.519-.201.084-.587.118-1.155.118v.4h4.642v-.4c-.414-.041-.712-.146-.919-.307a1.654 1.654 0 0 1-.494-.66l-.543-1.225-3.934-9.402h-.354Zm-92.562.047c-.663 0-1.56.021-2.687.07l-1.672.071v.4h.188c.61 0 1.017.061 1.201.166.183.105.301.292.354.565.054.273.07.873.07 1.815v5.82c0 .989-.017 1.614-.07 1.886a.857.857 0 0 1-.377.588c-.195.129-.553.189-1.06.189h-.377v.401h5.679v-.401h-.566c-.537 0-.918-.072-1.108-.212-.19-.139-.31-.35-.353-.636-.043-.285-.047-.89-.047-1.815v-2.591h.471c.318 0 .533.058.683.164.15.107.426.382.825.872.399.488.784 1 1.155 1.532 1.156 1.664 2.031 2.69 2.592 3.087h3.158v-.401c-.692-.023-1.283-.217-1.791-.589-.506-.373-1.205-1.159-2.097-2.356-1.095-1.48-1.91-2.332-2.404-2.569 1.095-.133 1.934-.466 2.498-1.013a2.701 2.701 0 0 0 .848-2.003 2.42 2.42 0 0 0-.66-1.697c-.435-.48-.992-.826-1.696-1.037-.706-.21-1.631-.306-2.757-.306Zm28.207 0-3.465 8.177c-.248.589-.385.926-.423 1.013-.363.928-.685 1.55-.943 1.839-.259.288-.629.46-1.154.541v.401h3.557v-.401c-.385 0-.701-.075-.942-.259-.242-.184-.353-.47-.353-.825 0-.332.228-1.031.683-2.12l.306-.755h4.478l.895 2.192c.267.635.424 1.026.424 1.155 0 .25-.105.41-.306.494-.201.085-.586.118-1.155.118v.401h4.642v-.401c-.413-.04-.712-.121-.918-.283a1.643 1.643 0 0 1-.496-.66l-.541-1.248-3.936-9.379h-.353Zm44.018.118v.4h.237c.603 0 .975.061 1.154.165.178.105.3.292.354.566.055.273.094.873.094 1.814V26.5c0 .989-.039 1.637-.094 1.908-.055.27-.182.462-.377.59-.197.127-.552.188-1.061.188h-.307v.4h5.373v-.4h-.306c-.536 0-.916-.073-1.108-.212-.191-.14-.307-.349-.353-.637-.047-.289-.07-.904-.07-1.837v-2.852h6.173V26.5c0 .99-.018 1.613-.07 1.885-.053.27-.185.483-.378.612-.194.128-.54.189-1.037.189h-.4v.4h5.35v-.4h-.26c-.528 0-.892-.073-1.084-.212-.191-.14-.31-.349-.353-.637-.045-.288-.071-.907-.071-1.837v-5.798c0-.981.034-1.6.094-1.861.062-.261.174-.448.354-.542.18-.096.574-.142 1.154-.142h.165v-.4h-5.349v.4h.306c.595 0 .978.061 1.155.165.177.105.301.292.353.566.053.273.071.873.071 1.814v2.357h-6.173v-2.357c0-.981.031-1.6.094-1.861.062-.261.194-.448.377-.542.182-.096.547-.142 1.131-.142h.235v-.4h-5.373Zm38.175 0v.4c.575 0 .952.052 1.131.165.18.113.304.305.354.59.051.284.07.89.07 1.79V26.5c0 .988-.024 1.62-.07 1.86-.047.242-.16.433-.33.59-.17.156-.525.236-1.107.236h-.26v.4h9.756l.26-3.676h-.401c-.21.886-.51 1.577-.872 2.074-.363.498-.733.822-1.131.966-.402.144-.91.212-1.532.212h-.872c-.79 0-1.28-.13-1.46-.377-.18-.246-.26-1.074-.26-2.474v-2.804h1.272c.503 0 .873.05 1.084.117.212.067.362.2.472.425.11.225.164.663.165 1.32h.4v-4.03h-.4c0 .58-.046.979-.119 1.178-.072.2-.22.349-.447.448-.227.098-.63.141-1.202.141h-1.225v-4.949h1.626c.82 0 1.397.052 1.767.142.37.09.697.291.966.636.267.346.499.943.683 1.767h.402l-.283-2.945h-8.437Zm-74.417.023v.4c.638 0 1.041.055 1.226.142.184.088.315.282.4.59.085.307.141.906.141 1.814v6.292c0 .715-.04 1.15-.094 1.343-.055.191-.223.375-.518.542-.295.166-.713.265-1.273.306v.401h4.383v-.401c-.625 0-1.077-.078-1.39-.259-.313-.18-.522-.373-.589-.59-.067-.214-.094-.662-.094-1.342v-8.224l8.412 11.099h.354V20.09c0-.507.04-.848.117-1.061.078-.212.26-.415.543-.566.285-.15.683-.24 1.177-.282v-.4h-4.265v.4c.466 0 .848.066 1.179.188.331.122.552.287.66.496.107.21.164.584.164 1.107v7.069l-6.998-9.26h-3.535Zm-48.402.212c1.441 0 2.541.505 3.3 1.485.757.98 1.13 2.378 1.13 4.218 0 1.892-.386 3.31-1.154 4.265-.77.956-1.81 1.437-3.134 1.437-1.512 0-2.639-.481-3.393-1.437-.756-.955-1.132-2.362-1.132-4.265 0-1.874.376-3.308 1.132-4.265.754-.957 1.832-1.438 3.251-1.438Zm181.684 0c1.44 0 2.54.505 3.3 1.485.759.98 1.13 2.378 1.13 4.218 0 1.892-.386 3.31-1.155 4.265-.77.956-1.809 1.437-3.134 1.437-1.512 0-2.66-.481-3.416-1.437-.756-.955-1.132-2.362-1.132-4.265 0-1.874.376-3.308 1.132-4.265.755-.957 1.855-1.438 3.275-1.438Zm-169.36.071c1.377 0 2.276.253 2.687.754.41.5.613 1.171.613 2.003 0 .479-.069.875-.189 1.202-.121.326-.286.6-.494.802-.21.2-.487.343-.825.447a4.974 4.974 0 0 1-1.202.188c-.46.024-.89.037-1.32.048v-5.42c.275-.024.518-.024.73-.024Zm92.162 1.72 2.074 4.996h-4.124l2.05-4.996Zm-64.355.024 2.074 5.02h-4.148l2.074-5.02Zm102.577 1.249c1.203 1.571 2.648 3.615 4.312 6.15-.938 1.091-1.96 1.65-3.063 1.65-.994 0-1.9-.43-2.686-1.296-.788-.867-1.179-1.807-1.179-2.781 0-.632.228-1.28.684-1.955.453-.678 1.102-1.262 1.932-1.768Zm47.718 6.292a1.25 1.25 0 0 0-.918.377 1.247 1.247 0 0 0-.377.918c0 .349.126.657.377.92.249.262.556.377.918.377.356 0 .662-.124.92-.377.257-.255.376-.556.376-.92 0-.354-.123-.665-.377-.918a1.243 1.243 0 0 0-.919-.377Z"/></svg>