<svg xmlns="http://www.w3.org/2000/svg" xml:space="preserve" style="fill:#fff;fill-rule:evenodd;clip-rule:evenodd;stroke-linejoin:round;stroke-miterlimit:2" viewBox="0 0 142 48"><path d="M141.512 20.56v-2.488h-3.09v-3.869l-.104.032-2.903.888-.057.018v2.931h-4.582V16.44c0-.76.17-1.342.505-1.73.333-.384.809-.579 1.416-.579.437 0 .889.103 1.343.306l.114.05v-2.62l-.053-.02c-.424-.152-1.002-.23-1.717-.23-.901 0-1.72.197-2.435.586a4.16 4.16 0 0 0-1.67 1.651c-.393.706-.592 1.522-.592 2.424v1.795h-2.152v2.489h2.152v10.484h3.09V20.561h4.58v6.663c0 2.744 1.295 4.134 3.848 4.134.42 0 .86-.049 1.312-.145.458-.1.77-.198.955-.303l.04-.024v-2.512l-.125.083a2.161 2.161 0 0 1-.621.271 2.36 2.36 0 0 1-.61.104c-.599 0-1.04-.161-1.315-.48-.278-.32-.419-.881-.419-1.666V20.56h3.09Zm-22.876 8.272c-1.121 0-2.005-.372-2.628-1.104-.627-.736-.945-1.786-.945-3.119 0-1.375.318-2.452.945-3.201.624-.744 1.499-1.122 2.603-1.122 1.071 0 1.924.36 2.534 1.073.615.715.926 1.783.926 3.175 0 1.409-.293 2.49-.87 3.215-.574.718-1.437 1.083-2.565 1.083m.138-11.072c-2.14 0-3.839.626-5.05 1.863-1.21 1.236-1.825 2.947-1.825 5.086 0 2.03.6 3.665 1.781 4.855 1.182 1.19 2.79 1.794 4.78 1.794 2.074 0 3.74-.636 4.95-1.89 1.212-1.251 1.825-2.946 1.825-5.035 0-2.063-.576-3.709-1.712-4.89-1.136-1.184-2.734-1.783-4.75-1.783m-11.855 0c-1.455 0-2.658.372-3.578 1.106-.925.738-1.394 1.706-1.394 2.878 0 .609.1 1.15.3 1.609.2.46.511.865.923 1.206.41.337 1.041.69 1.878 1.05.704.29 1.228.535 1.562.728.326.189.557.379.687.564.127.181.192.43.192.736 0 .871-.653 1.295-1.996 1.295-.498 0-1.067-.104-1.69-.309a6.342 6.342 0 0 1-1.728-.877l-.129-.092v2.974l.048.022c.437.202.987.372 1.637.506a8.786 8.786 0 0 0 1.75.202c1.579 0 2.85-.374 3.778-1.112.934-.743 1.407-1.734 1.407-2.946 0-.875-.255-1.625-.757-2.23-.499-.6-1.364-1.15-2.572-1.637-.961-.386-1.578-.707-1.832-.953-.245-.237-.37-.573-.37-.999 0-.377.155-.68.47-.924.317-.246.76-.371 1.314-.371.515 0 1.042.081 1.565.24.524.16.984.373 1.367.634l.127.086v-2.82l-.05-.022c-.353-.152-.82-.281-1.387-.387a8.47 8.47 0 0 0-1.522-.157M93.892 28.832c-1.12 0-2.005-.372-2.628-1.104-.627-.736-.944-1.785-.944-3.119 0-1.375.317-2.452.944-3.201.623-.744 1.499-1.122 2.604-1.122 1.07 0 1.923.36 2.534 1.073.613.715.925 1.783.925 3.175 0 1.409-.293 2.49-.87 3.215-.574.718-1.437 1.083-2.565 1.083m.137-11.072c-2.14 0-3.839.626-5.05 1.863-1.21 1.236-1.824 2.947-1.824 5.086 0 2.032.6 3.665 1.782 4.855 1.182 1.19 2.79 1.794 4.78 1.794 2.073 0 3.739-.636 4.95-1.89 1.21-1.251 1.824-2.946 1.824-5.035 0-2.063-.576-3.709-1.712-4.89-1.136-1.184-2.734-1.783-4.75-1.783m-11.563 2.559v-2.247h-3.052v12.973h3.052v-6.636c0-1.129.255-2.056.76-2.756.498-.692 1.163-1.042 1.974-1.042.275 0 .583.045.918.135.33.089.57.186.71.288l.13.092V18.05l-.05-.021c-.284-.121-.687-.182-1.195-.182-.767 0-1.453.246-2.041.732-.516.426-.889 1.01-1.174 1.74h-.032Zm-8.517-2.56c-1.4 0-2.649.3-3.71.893a6.007 6.007 0 0 0-2.448 2.516c-.558 1.075-.84 2.33-.84 3.729 0 1.225.274 2.35.816 3.342a5.742 5.742 0 0 0 2.283 2.308c.972.538 2.094.811 3.337.811 1.45 0 2.688-.29 3.68-.861l.04-.024v-2.795l-.128.093c-.449.328-.952.59-1.492.778-.54.188-1.031.283-1.462.283-1.198 0-2.16-.374-2.857-1.113-.7-.74-1.054-1.778-1.054-3.085 0-1.315.37-2.38 1.099-3.167.726-.783 1.69-1.181 2.862-1.181 1.003 0 1.98.34 2.905 1.01l.128.093v-2.945l-.041-.024c-.348-.195-.823-.355-1.412-.477a8.434 8.434 0 0 0-1.706-.183m-9.1.312h-3.052v12.973h3.051V18.072Zm-1.495-5.526c-.503 0-.94.17-1.3.51-.362.34-.545.767-.545 1.272 0 .497.18.917.539 1.248.356.33.795.497 1.306.497.51 0 .952-.168 1.312-.497.362-.331.545-.751.545-1.248 0-.487-.179-.91-.53-1.259-.353-.347-.799-.523-1.327-.523m-7.614 4.57v13.929h3.114V12.943h-4.31l-5.479 13.446-5.317-13.446h-4.486v18.102h2.927V17.114h.1l5.615 13.931h2.208l5.527-13.93h.1ZM0 6.894h14.356v14.355H0zM15.85 6.894h14.356v14.355H15.851zM0 22.75h14.355v14.355H0zM15.85 22.75h14.356v14.355H15.851z"/></svg>