<svg xmlns="http://www.w3.org/2000/svg" xml:space="preserve" style="fill:#fff;fill-rule:evenodd;clip-rule:evenodd;stroke-linejoin:round;stroke-miterlimit:2" viewBox="0 0 148 48"><path d="M121.421 13.068v15.184c0 .75.392 1.188.797 1.464.433.29 1.07.437 1.927.437.542 0 1.26-.18 1.26-.18v-1.361c-.215.013-.406.025-.617.025-1.277 0-1.465-.498-1.465-1.053V13.068h-1.902Zm-40.156.154c-1.434 0-2.73.45-3.649 1.26a4.042 4.042 0 0 0-1.387 3.057c0 1.297.525 2.31 1.618 3.108.965.705 2.24 1.16 3.47 1.594 2.134.76 4.136 1.452 4.136 3.391 0 .863-.294 1.601-.848 2.107-.61.556-1.487.822-2.647.822-2.032 0-3.511-1.125-4.342-3.315l-1.824.488c.393.888 1.061 2.17 2.03 3.032 1.062.952 2.38 1.413 4.034 1.413 1.957 0 3.444-.505 4.419-1.516 1.01-1.052 1.233-2.398 1.233-3.34 0-1.348-.57-2.39-1.722-3.211-1.005-.721-2.305-1.185-3.571-1.619-2.062-.705-4.03-1.376-4.008-3.108.008-.808.287-1.437.796-1.876.519-.446 1.259-.668 2.21-.668.999 0 1.89.28 2.57.822.623.495 1.077 1.228 1.283 2.056l1.773-.231c-.777-2.652-2.677-4.266-5.574-4.266ZM0 13.453v16.495h1.901V14.867l.052.05 4.521 15.03H7.94l4.547-15.03.026-.05v15.08h1.902V13.454h-3.16L7.218 26.711v.05l-.025-.05L3.16 13.453H0Zm90.514.334v3.957H88.69v1.516h1.824v8.993c0 .75.341 1.188.745 1.464.434.29 1.069.437 1.927.437.543 0 1.284-.18 1.284-.18v-1.361a10.54 10.54 0 0 1-.642.025c-1.278 0-1.413-.498-1.413-1.053V19.26h2.055v-1.516h-2.055v-3.957h-1.901ZM22.12 17.512c-1.601 0-2.958.646-3.905 1.85-.88 1.125-1.361 2.713-1.361 4.471 0 1.76.482 3.345 1.361 4.47.948 1.209 2.304 1.85 3.905 1.85 1.607 0 2.96-.64 3.905-1.85.88-1.125 1.362-2.71 1.362-4.47 0-1.757-.483-3.346-1.362-4.47-.945-1.205-2.298-1.85-3.905-1.85Zm109.68.026c-.812 0-1.568.15-2.21.437a4.308 4.308 0 0 0-1.618 1.26c-.862 1.079-1.36 2.682-1.36 4.624 0 2.162.62 3.81 1.746 4.907 1.188 1.16 2.701 1.387 3.751 1.387 2.728 0 4.066-1.476 4.625-2.826l-1.516-.745c-.369.822-1.216 2.081-3.109 2.081-1.082 0-1.968-.443-2.595-1.259-.606-.79-.947-1.882-.95-3.186h8.324v-1.156c0-1.997-.532-3.486-1.516-4.393-.838-.77-2.014-1.13-3.572-1.13Zm-90.205.026c-2.145 0-5.19 1.443-5.19 6.295 0 4.71 3.035 6.294 5.087 6.294 1.197 0 2.285-.663 3.032-1.618l.102-.052v2.313c0 1.621-1.403 2.62-2.903 2.62-1.458 0-2.749-.278-3.803-.77v1.644c.888.38 2.332.616 3.572.616 3.375 0 4.984-1.857 4.984-4.548V17.795h-1.413l-.411 1.285c-.697-.909-1.61-1.516-3.057-1.516Zm12.28 0c-2.7 0-3.978 1.618-4.521 2.62l1.516.797c.213-.573.979-1.901 3.032-1.901 1.619 0 2.44.714 2.44 2.132v.437s.013.133-.026.18c-.06.076-.23.138-.642.18-2.267.253-3.773.625-4.881 1.336-1.204.773-1.953 1.856-1.953 3.34 0 1.054.51 1.954 1.182 2.595.624.59 1.475.897 2.415.925 2.002.064 3.319-.77 3.957-1.748.05.673.29 1.057.822 1.337.5.266 1.318.213 1.67.128v-1.285c-.423-.02-.694-.223-.694-.745v-6.654c0-1.214-.476-2.21-1.387-2.852-.752-.532-1.8-.822-2.93-.822Zm13.078 0c-1.237 0-2.503.641-3.571 1.85v-1.618h-1.901v12.178h1.9V20.93c.647-.69 2.098-1.85 3.418-1.85 1.323 0 1.9.65 1.9 2.107v8.787h1.902v-8.839c0-2.63-1.87-3.57-3.648-3.57Zm34.402 0c-2.699 0-3.977 1.618-4.522 2.62l1.516.797c.214-.573.979-1.901 3.032-1.901 1.618 0 2.44.714 2.44 2.132v.437s-.013.133-.05.18c-.06.076-.204.138-.617.18-2.266.253-3.773.625-4.882 1.336-1.202.773-1.952 1.856-1.952 3.34 0 1.054.51 1.953 1.182 2.595.623.59 1.475.897 2.415.925 2 .064 3.319-.77 3.957-1.748.05.672.29 1.057.822 1.337.498.266 1.318.213 1.67.128v-1.285c-.423-.02-.694-.223-.694-.745v-6.654c0-1.214-.5-2.21-1.413-2.852-.753-.532-1.776-.822-2.904-.822Zm13.077 0c-1.24 0-2.504.641-3.571 1.85v-1.618h-1.901v12.178h1.9V20.93c.649-.691 2.096-1.85 3.418-1.85 1.321 0 1.9.65 1.9 2.107v8.787h1.902v-8.839c0-2.63-1.87-3.57-3.648-3.57Zm-78.746.051c-1.93 0-3.073.748-4.06 2.518v-2.338h-1.901v12.153h1.901v-6.886c.47-2.5 1.794-3.674 4.06-3.674v-1.773Zm102.486.154 4.239 12.076v.103c-.253 1.157-.986 2.585-1.644 3.031-.582.395-1.212.437-1.696.437-.234 0-.717-.079-.925-.128v1.464c.264.065.87.18 1.259.18.906 0 1.67-.226 2.312-.694.77-.558 1.62-2.016 2.03-3.262l4.239-13.206h-1.85l-2.775 9.352-.026.206-.051-.206-3.263-9.352h-1.85ZM22.12 19.03c2.047 0 3.263 1.796 3.263 4.804 0 3.009-1.216 4.805-3.263 4.805-2.044 0-3.263-1.796-3.263-4.805 0-3.008 1.22-4.804 3.263-4.804Zm19.603.025c1.073 0 2.015.464 2.903 1.568v5.806c-.491 1.4-1.9 2.21-2.903 2.21-1.96 0-3.314-1.222-3.314-4.882 0-3.078 1.215-4.702 3.314-4.702Zm90.129 0c2.178 0 3.151 1.152 3.16 3.649h-6.398c.166-2.495 1.212-3.649 3.238-3.649Zm-75.458 4.29v3.083c-.088 1.065-2.077 2.353-3.7 2.261-.896-.049-1.759-.77-1.85-1.952-.149-1.976 1.336-2.797 4.65-3.16.231-.02.677-.103.9-.231Zm47.479 0v3.083c-.088 1.065-2.076 2.353-3.7 2.261-.893-.05-1.76-.77-1.85-1.952-.15-1.976 1.336-2.797 4.65-3.16.23-.02.679-.103.9-.231Z"/></svg>