<svg xmlns="http://www.w3.org/2000/svg" xml:space="preserve" style="fill:#fff;fill-rule:evenodd;clip-rule:evenodd;stroke-linejoin:round;stroke-miterlimit:2" viewBox="0 0 55 48"><path d="M2192.2 1032.5c0 566.32-466.54 1032.41-1033.46 1032.41-566.903 0-1033.458-466.12-1033.458-1032.41C125.282 466.149 580.926.094 1158.74.094 1714.7.094 2192.2 466.175 2192.2 1032.5" style="fill-opacity:.25;fill-rule:nonzero" transform="matrix(.02164 0 0 .02164 0 1.658)"/><path d="M1391.85 1575.87c441.52 181.64 364.91-277.35 129.55-628.793-133.39-199.102-307.36-364.988-417.08-445.039-363.827-265.534-588.424-104.485-331.514 419.185 83.066 169.317 189.75 283.587 273.074 391.297 63.64 82.23 187.59 123.41 143.93 162.41-49.21 44-168.35-150.07-168.35-150.07-87.991-106.11-171.863-219.35-258.303-374.751-197.481-354.918-169.006-717.171 188.471-559.375C1255 524.719 1544.76 900.505 1661.28 1167.37c53.8 123.24 200.51 610.78-266.76 413.66" style="fill-rule:nonzero" transform="matrix(.02164 0 0 .02164 0 1.658)"/><g opacity=".5"><path d="M18.851 1338.54c194.238-129.36 378.397-212.88 691.791-316.4C1151.03 876.658 1482.47 778.868 1889.16 574.455c182.04-91.479 497.9-296.637 610.84-474.977-33.81 69.026-138.58 203.379-185.97 262.791C1762.24 1053.17 586.894 1013.99 26.608 1345.67" style="fill-rule:nonzero" transform="matrix(.02164 0 0 .02164 0 1.658)"/><path d="M2499.9 99.487c-157.49 467.23-788.41 828.02-1319.51 1172.433-320.408 207.85-638.517 447.09-857.513 650.64-57.72 53.68 11.761-20.08-10.359 2.59 305.62-351.88 657.181-561.48 851.452-693.42 328.56-223.22 515.43-279.474 1082.27-801.592" style="fill-rule:nonzero" transform="matrix(.02164 0 0 .02164 0 1.658)"/></g><path d="M300.633 833.582c177.771 1.394 160.33-.359 162.407 1.727 3.103 0 141.943 239.091 141.943 241.171 0 1.01-1.034-84.978-1.034-192.522 0-12.419-34.171-48.641-33.155-48.641 50.744 0 117.062 1.035 117.062 1.035-24.846 28.982-29.816 26.59-30.026 44.512-.701 57.58-1.35 164.026 0 283.566.193 17.93 13.471 24.85 35.232 55.9H530.383c-52.838-87.97-149.664-253.008-149.182-252.526.745.753-2.085 103.526 1.017 186.296 1.043 27.35 13.479 36.22 36.283 61.08 0 0 26.231-.7-127.447 1.02 46.625-24.84 40.429-55.88 40.411-56.92-1.674-114.39-.35-212.186-.35-275.322 0-10.35-.701-9.325-32.804-48.649m558.157 174.931c14.925-51.823 27.676-98.132 33.732-128.342 1.026-5.179-11.393-23.803-31.077-42.435l-1.393-2.892c94.923.306 194.09.841 194.09.841 25.9 63.119 84.95 240.098 129.51 348.788 11.77 28.71 32.11 34.15 32.11 34.15-80.81-1.03-230.779-.32-229.981-1.03 40.391-36.24 35.211-36.24 17.601-88.99H874.67c-25.906 60.02 8.072 88.19 12.419 87.97-28.763 1.49-126.386 0-126.386 0 52.838-37.28 49.718-48.66 49.718-48.66 14.513-51.64 31.332-108.21 46.055-159.41l51.857.01-22.278 71.41h100.524L930.62 938.812l-22.278 71.408-51.857-.01m868.235 5.2c14.9-51.804 27.66-98.131 33.72-128.341 1.01-5.171-11.42-23.794-31.1-42.444l-1.39-2.875c94.95.307 194.13.833 194.13.833 25.86 63.136 84.93 240.097 129.47 348.797 11.77 28.73 32.09 34.14 32.09 34.14-80.76-1.03-230.74-.33-229.96-1.03 40.4-36.22 35.24-36.22 17.62-88.99h-126.41c-25.91 60.03 8.05 88.19 12.4 87.99-28.74 1.47-126.39 0-126.39 0 52.84-37.27 49.75-48.66 49.75-48.66 14.51-51.66 31.32-108.2 46.07-159.42h51.85c-11.17 35.73-22.26 71.44-22.26 71.44h100.47l-55.96-142.858s-11.1 35.696-22.25 71.398l-51.85.02m-163.44-84.836c-2.06-73.53 0-97.316 0-97.316-32.13 25.889-15.9 22.585-96.33 9.316-231.76-38.237-249.42 178.126-123.3 226.646 105.87 40.75 143.38 48.75 127.43 86.93-5.18 12.47-101.53 57.98-200.98-34.14l2.02 128.35c12.45-12.81 46.65-36.23 46.65-36.23 1.01 0 107.8 47.04 204.08-2.06 148.18-75.54 74.23-197.83-83.9-246.326-131.6-40.367-7.26-134.563 123.26-34.153M1173.29 93.852c-.02 4.613-3.8 8.407-8.41 8.431-4.62-.029-8.4-3.82-8.42-8.431 0-4.575 3.81-8.396 8.42-8.396 4.6.014 8.38 3.792 8.41 8.396m58.37 127.447c0 5.679-4.72 10.368-10.36 10.368-5.68-.024-10.35-4.688-10.38-10.368 0-5.662 4.68-10.333 10.38-10.333 5.65 0 10.36 4.662 10.36 10.333m151.42 208.286c0 5.662-4.64 10.351-10.37 10.351-5.66-.038-10.31-4.685-10.35-10.351 0-5.679 4.33-10.376 10.04-10.376 5.71.017 10.68 4.697 10.68 10.376m-243.45-136.482c-.01 4.607-3.8 8.39-8.41 8.404-4.61-.014-8.4-3.795-8.43-8.404 0-4.601 3.81-8.414 8.43-8.414 4.61.015 8.4 3.804 8.41 8.414m90.71 47.878c-.03 4.596-3.81 8.367-8.4 8.396-4.6-.024-8.39-3.795-8.42-8.396 0-4.601 3.81-8.405 8.42-8.405 4.6 0 8.4 3.804 8.4 8.405m-117.87-133.924c0 5.679-4.68 10.368-10.36 10.368s-10.36-4.662-10.36-10.368c0-5.661 4.68-10.359 10.36-10.359s10.36 4.68 10.36 10.359m-137.249 83.46c0 4.619-3.795 8.414-8.423 8.414-4.606-.024-8.389-3.807-8.413-8.414 0-4.601 3.803-8.413 8.413-8.413 4.612.014 8.403 3.802 8.423 8.413m24.539 16.801c-.019 4.618-3.813 8.412-8.431 8.431-4.616-.024-8.407-3.815-8.431-8.431.204-4.48 3.946-8.055 8.431-8.055 4.485 0 8.227 3.575 8.431 8.055m24.63 16.827c-.02 4.613-3.8 8.407-8.42 8.431-4.61-.024-8.4-3.816-8.42-8.431 0-4.584 3.81-8.387 8.42-8.387 4.62 0 8.42 3.795 8.42 8.387m-37.513 32.357c-.048 4.604-3.827 8.376-8.431 8.413-4.61-.023-8.398-3.804-8.431-8.413 0-4.601 3.803-8.405 8.431-8.405 4.601 0 8.431 3.804 8.431 8.405M791.298 493.633c-.029 4.608-3.823 8.387-8.431 8.396-4.619 0-8.422-3.786-8.422-8.396 0-4.61 3.812-8.422 8.422-8.422 4.61 0 8.431 3.803 8.431 8.422m36.248 44.004c-.038 4.603-3.819 8.377-8.422 8.405-4.605-.028-8.388-3.8-8.431-8.405 0-4.627 3.812-8.413 8.431-8.413s8.422 3.786 8.422 8.413M798.73 1247.92c-.029 4.61-3.816 8.39-8.422 8.41-4.619 0-8.414-3.81-8.414-8.41s3.795-8.42 8.414-8.42c4.627 0 8.422 3.82 8.422 8.42m5.179 195.96c0 5.68-4.68 10.36-10.359 10.36s-10.359-4.66-10.359-10.36c0-5.67 4.68-10.34 10.359-10.34 5.666.02 10.321 4.67 10.359 10.34M692.51 1544.24c-.034 4.6-3.809 8.37-8.405 8.4-4.602-.03-8.384-3.8-8.422-8.4 0-4.63 3.812-8.42 8.422-8.42 4.601 0 8.405 3.78 8.405 8.42m-133.372 40.65c-.038 5.68-4.702 10.33-10.377 10.36-5.675-.02-10.34-4.68-10.359-10.36 0-5.67 4.68-10.36 10.359-10.36 5.674.03 10.334 4.69 10.377 10.36m-27.204-90.52c0 5.65-4.68 10.33-10.341 10.33-5.662-.03-10.316-4.67-10.359-10.33.023-5.68 4.681-10.35 10.359-10.39 5.661.03 10.341 4.7 10.341 10.39m-15.521 57.58c0 4.61-3.812 8.4-8.422 8.4-4.61 0-8.431-3.79-8.431-8.4 0-4.59 3.821-8.42 8.431-8.42 4.61 0 8.422 3.81 8.422 8.42m-99.743-47.85c-.029 4.6-3.8 8.37-8.396 8.41-4.608-.02-8.398-3.8-8.431-8.41 0-4.58 3.803-8.4 8.431-8.4 4.592 0 8.396 3.79 8.396 8.4m348.371 161.69c0 4.62-3.479 8.42-8.081 8.42-4.618 0-8.755-3.8-8.755-8.42 0-4.6 3.812-8.41 8.414-8.41 4.636 0 8.422 3.8 8.422 8.41m104.923-76.95c0 5.68-4.347 10.38-10.043 10.38-5.68 0-10.675-4.67-10.675-10.38 0-5.66 4.68-10.34 10.359-10.34 5.665.03 10.321 4.68 10.359 10.34m12.007 98.95c0 4.62-4.145 8.44-8.738 8.44-4.617-.03-8.407-3.82-8.431-8.44 0-4.59 3.804-8.39 8.431-8.39 4.593-.01 8.738 3.78 8.738 8.39m431.189-94.48c-.03 4.6-3.8 8.38-8.39 8.42-4.62-.02-8.41-3.8-8.45-8.42 0-4.62 3.8-8.4 8.45-8.4 4.59 0 8.39 3.78 8.39 8.4m-200.69 71.16c-.02 4.6-3.81 8.39-8.42 8.4-4.6-.02-8.38-3.8-8.41-8.4 0-4.59 3.81-8.41 8.41-8.41 4.63 0 8.42 3.81 8.42 8.41m540.05 102.27c-.04 4.61-3.82 8.38-8.43 8.41-4.61-.02-8.4-3.8-8.44-8.41 0-4.59 3.83-8.4 8.44-8.4 4.6 0 8.43 3.79 8.43 8.4m43.98-397.87c-.03 5.67-4.7 10.33-10.37 10.36-5.68-.03-10.34-4.69-10.37-10.36 0-5.69 4.67-10.37 10.37-10.37 5.68.02 10.34 4.68 10.37 10.37m-82.82 56.26c-.03 4.61-3.82 8.4-8.44 8.42-4.59 0-8.4-3.81-8.4-8.42 0-4.61 3.81-8.4 8.4-8.4 4.63 0 8.44 3.78 8.44 8.4m81.61 16.21c0 5.67-4.67 10.38-10.37 10.38-5.71 0-10.38-4.68-10.38-10.38 0-5.66 4.67-10.36 10.38-10.36 5.7 0 10.37 4.7 10.37 10.36m-81.61 100.26c-.03 4.62-3.83 8.4-8.44 8.41-4.6-.03-8.37-3.81-8.4-8.41 0-4.61 3.81-8.42 8.4-8.42 4.63 0 8.44 3.8 8.44 8.42m211.04-229c0 4.59-3.83 8.41-8.42 8.41-4.6-.03-8.37-3.81-8.41-8.41 0-4.61 3.81-8.4 8.41-8.4s8.42 3.79 8.42 8.4m20.42 51.09c0 5.67-4.32 10.37-10.02 10.37-5.69 0-10.7-4.67-10.7-10.37 0-5.67 4.67-10.35 10.35-10.35 5.7.02 10.37 4.68 10.37 10.35m145.4 60.83c0 5.67-4.63 10.36-10.37 10.36-5.68-.02-10.35-4.69-10.38-10.36.04-5.68 4.7-10.34 10.38-10.37 5.68.02 10.35 4.69 10.37 10.37m-147.69 108.07c-.04 4.6-3.83 8.38-8.44 8.4-4.6-.02-8.38-3.8-8.42-8.4 0-4.62 3.82-8.43 8.42-8.43 4.61 0 8.44 3.78 8.44 8.43m93.26-88c-.02 4.6-3.8 8.38-8.4 8.4-4.6-.03-8.38-3.8-8.42-8.4 0-4.6 3.83-8.42 8.42-8.42 4.6 0 8.4 3.8 8.4 8.42m-17.18 135.84c-.02 4.6-3.8 8.38-8.4 8.4-4.61-.01-8.41-3.79-8.44-8.4 0-4.58 3.8-8.41 8.44-8.41 4.6 0 8.4 3.8 8.4 8.41m39.53-225.76c0 7.1-5.85 12.93-12.96 12.93-7.1 0-12.95-5.83-12.95-12.93s5.85-12.93 12.95-12.93c7.11 0 12.96 5.83 12.96 12.93" style="fill-rule:nonzero" transform="matrix(.02164 0 0 .02164 0 1.658)"/><path d="m1945.47 1315.23-3.85 35.57-35.29 3.89 35.6 3.86 3.89 36.89 3.89-36.89 34.95-4.54-35.26-3.23-3.93-35.55m-77.72 264.49c0 7.12-5.84 12.96-12.95 12.96-7.1-.03-12.93-5.86-12.96-12.96 0-7.1 5.85-12.93 12.96-12.93 7.08.03 12.91 5.84 12.95 12.93" style="fill-rule:nonzero" transform="matrix(.02164 0 0 .02164 0 1.658)"/><path d="m1854.88 1540.28-3.89 35.59-35.28 3.87 35.6 3.89 3.9 36.85 3.89-36.85 34.94-4.54-35.3-3.24-3.86-35.57M901.69 511.082c0 7.099-5.846 12.936-12.944 12.936-7.094-.019-12.929-5.842-12.962-12.936 0-7.116 5.836-12.944 12.962-12.944 7.098.017 12.944 5.846 12.944 12.944" style="fill-rule:nonzero" transform="matrix(.02164 0 0 .02164 0 1.658)"/><path d="m888.719 471.627-3.891 35.573-35.302 3.891 35.618 3.848 3.891 36.905 3.873-36.905 34.969-4.505-35.302-3.252-3.856-35.555m494.721-273.614c0 7.099-5.85 12.944-12.96 12.944-7.11 0-12.94-5.845-12.94-12.944 0-7.117 5.82-12.962 12.94-12.962 7.12 0 12.96 5.863 12.96 12.962" style="fill-rule:nonzero" transform="matrix(.02164 0 0 .02164 0 1.658)"/><path d="m1370.48 158.522-3.86 35.599-35.28 3.892 35.61 3.865 3.85 36.879 3.89-36.879 34.96-4.54-35.3-3.234-3.87-35.582M797.748 1786.82c0 7.12-5.845 12.95-12.944 12.95-7.095-.03-12.929-5.85-12.962-12.95 0-7.09 5.845-12.95 12.962-12.95 7.099.01 12.944 5.87 12.944 12.95" style="fill-rule:nonzero" transform="matrix(.02164 0 0 .02164 0 1.658)"/><path d="m785.111 1747.31-3.874 35.59-35.293 3.88 35.608 3.86 3.883 36.88 3.874-36.88 34.968-4.52-35.284-3.24-3.882-35.57M1391.85 1575.87c441.52 181.64 364.91-277.35 129.55-628.793-133.4-199.102-297.9-357.048-417.09-445.039-139.177-102.759-152.761-111.277-152.761-111.277C1262.34 538.269 1544.68 900.522 1661.18 1167.4c53.82 123.24 200.52 610.78-266.76 413.66" style="fill-rule:nonzero" transform="matrix(.02164 0 0 .02164 0 1.658)"/></svg>