<svg xmlns="http://www.w3.org/2000/svg" xml:space="preserve" style="fill:#fff;fill-rule:evenodd;clip-rule:evenodd;stroke-linejoin:round;stroke-miterlimit:2" viewBox="0 0 85 48"><path d="m79.895 24.452 4.515 11.955c-1.33-.19-2.66-.428-4.015-.643l-2.544-6.605-2.613 6.06c-1.283-.214-2.543-.286-3.826-.452l4.586-10.457-4.16-10.717h3.85l2.329 5.988 2.496-5.988h3.897l-4.515 10.86ZM68.798 13.593h-3.493v20.723c1.14.071 2.328.118 3.493.26V13.593Zm-6.512 20.485c-3.184-.214-6.368-.403-9.624-.476V13.593h3.564v16.635c2.044.047 4.088.213 6.06.308v3.542ZM48.86 21.698v3.564h-4.871v8.103H40.47V13.593h9.981v3.564H43.99v4.54h4.871-.001Zm-14.377-4.54v16.397c-1.189 0-2.4 0-3.565.047V17.157h-3.684v-3.564H38.19v3.564h-3.707ZM23.384 25.45c-1.568 0-3.422 0-4.753.072v5.3c2.091-.144 4.183-.31 6.297-.381v3.422l-9.861.785V13.593h9.86v3.564h-6.296v4.801c1.379 0 3.494-.071 4.753-.071v3.565-.001ZM3.635 23.455v12.452a79.58 79.58 0 0 0-3.635.5V13.593h3.399l4.633 12.952V13.593h3.565v21.34c-1.26.215-2.543.286-3.897.475L3.635 23.455Z"/></svg>