<svg xmlns="http://www.w3.org/2000/svg" xml:space="preserve" style="fill:#fff;fill-rule:evenodd;clip-rule:evenodd;stroke-linejoin:round;stroke-miterlimit:2" viewBox="0 0 75 48"><path d="M9.554 11.685C4.701 17.385.047 24.454 0 29.737c-.018 1.988.617 3.723 2.139 5.038 2.19 1.893 4.605 2.56 7.007 2.564 3.51.005 6.995-1.41 9.724-2.503 4.597-1.838 55.403-23.901 55.403-23.901.49-.246.399-.552-.215-.4-.247.063-55.31 14.985-55.31 14.985-1.044.295-2.122.45-3.205.459-4.232.025-7.998-2.324-7.967-7.274.011-1.937.604-4.272 1.978-7.02Z"/></svg>