<svg xmlns="http://www.w3.org/2000/svg" xml:space="preserve" style="fill:#fff;fill-rule:evenodd;clip-rule:evenodd;stroke-linejoin:round;stroke-miterlimit:2" viewBox="0 0 127 48"><path d="M77.222 16.54V32.3h4.447V16.54h-4.447Zm-34.992-.026v15.773h4.488V20.04l3.499.013c1.149 0 1.95.28 2.497.869.709.747.989 1.963.989 4.167v7.198h4.354V23.58c0-6.223-3.967-7.065-7.84-7.065H42.23Zm42.164.027V32.3h7.212c3.846 0 5.102-.642 6.45-2.07.962-1.002 1.577-3.22 1.577-5.637 0-2.217-.521-4.193-1.443-5.422-1.63-2.204-4.006-2.631-7.56-2.631h-6.236ZM88.8 19.96h1.91c2.778 0 4.568 1.242 4.568 4.474s-1.79 4.488-4.568 4.488h-1.91V19.96Zm-17.99-3.42-3.713 12.488-3.552-12.487h-4.808l5.075 15.76h6.41l5.129-15.76h-4.54Zm30.905 15.76h4.448V16.54h-4.448V32.3Zm12.474-15.76-6.21 15.747h4.38l.989-2.791h7.345l.936 2.778h4.767l-6.263-15.733h-5.944Zm2.885 2.872 2.698 7.373h-5.476l2.778-7.373ZM13.53 19.159v-2.164c.213-.013.427-.027.64-.027 5.93-.187 9.817 5.102 9.817 5.102s-4.194 5.823-8.695 5.823a5.517 5.517 0 0 1-1.75-.28v-6.571c2.311.28 2.779 1.295 4.154 3.606l3.085-2.591s-2.257-2.952-6.05-2.952c-.4-.013-.801.014-1.202.054m0-7.159v3.232l.641-.04c8.24-.28 13.623 6.758 13.623 6.758s-6.17 7.506-12.594 7.506a9.79 9.79 0 0 1-1.656-.147v2.003c.454.054.921.094 1.375.094 5.984 0 10.31-3.059 14.504-6.665.695.561 3.54 1.91 4.127 2.498-3.98 3.339-13.262 6.023-18.524 6.023-.507 0-.988-.027-1.47-.08V36h22.732V12H13.53Zm0 15.613v1.71c-5.529-.99-7.065-6.745-7.065-6.745s2.658-2.939 7.065-3.42v1.87h-.013c-2.31-.28-4.127 1.884-4.127 1.884s1.028 3.646 4.14 4.7m-9.816-5.275s3.272-4.834 9.83-5.342v-1.763C6.277 15.82 0 21.963 0 21.963s3.553 10.284 13.53 11.219v-1.87c-7.32-.908-9.817-8.975-9.817-8.975Z"/></svg>