<svg xmlns="http://www.w3.org/2000/svg" xml:space="preserve" style="fill:#fff;fill-rule:evenodd;clip-rule:evenodd;stroke-linejoin:round;stroke-miterlimit:2" viewBox="0 0 31 48"><path d="M0 1.73h30.925v44.706H0V1.73Zm13.716 34.778v1.915h2.901v.671l-2.275.002a1.27 1.27 0 0 0-.81.655l.184-.003h3.525v-1.962h-2.9v-.64h2.232c.337-.098.619-.354.688-.638h-3.545Zm8.219 3.24a.899.899 0 0 0 .553-.638h-2.819l.002-2.603-.631.002v3.24h2.895Zm-13.101 0h2.415c.336-.066.586-.362.656-.65H8.178c.07.288.323.584.656.65Zm15.004-1.96v1.96h.628v-1.305h2.287v1.305h.628v-1.956l-3.543-.004ZM2.55 36.51c.072.283.317.573.654.645H4.22l.052.02v2.566h.635v-2.565l.058-.02h1.017a.914.914 0 0 0 .652-.646v-.006H2.55v.006Zm6.283 1.922h2.415c.336-.066.586-.362.656-.649H8.178c.07.287.323.583.656.65Zm15.562-1.277h2.416c.336-.067.585-.363.656-.65H23.74c.07.287.323.583.655.65Zm-15.562-.003h2.415c.336-.067.586-.363.656-.65H8.178c.07.287.323.583.656.65Zm6.645-24.585L13.141 9.72s-4.01.083-8.002 1.933c1.022 1.536 3.05 2.292 3.05 2.292.14-1.353 1.092-1.685 4.095-1.687l3.198 17.843 3.172-17.84c3.023 0 3.977.331 4.115 1.685 0 0 2.028-.757 3.05-2.292-3.991-1.85-8.002-1.934-8.002-1.934l-2.338 2.847.003.004h-.006l.003-.004Zm.001-3.67c3.227-.025 6.92.499 10.702 2.147.506-.91.635-1.312.635-1.312-4.133-1.635-8.004-2.195-11.337-2.209-3.333.014-7.204.574-11.336 2.21 0 0 .184.495.634 1.311 3.78-1.648 7.475-2.172 10.702-2.147Z"/></svg>