<svg xmlns="http://www.w3.org/2000/svg" xml:space="preserve" style="fill:#fff;fill-rule:evenodd;clip-rule:evenodd;stroke-linejoin:round;stroke-miterlimit:2" viewBox="0 0 54 48"><path d="M34.631 15.714c-3.775 0-7.149 1.957-7.149 5.572 0 4.146 5.984 4.432 5.984 6.515 0 .877-1.006 1.662-2.722 1.662-2.436 0-4.257-1.097-4.257-1.097l-.779 3.648s2.097.927 4.882.927c4.128 0 7.376-2.053 7.376-5.73 0-4.381-6.009-4.659-6.009-6.592 0-.687.825-1.44 2.537-1.44 1.931 0 3.507.798 3.507.798l.762-3.524s-1.714-.74-4.132-.74Zm-34.54.266L0 16.512s1.588.29 3.019.87c1.842.665 1.973 1.052 2.283 2.254l3.38 13.03h4.531l6.981-16.686h-4.52l-4.486 11.345-1.83-9.617c-.168-1.1-1.019-1.728-2.06-1.728H.092Zm21.92 0-3.546 16.687h4.311L26.31 15.98h-4.298Zm24.045 0c-1.04 0-1.59.556-1.995 1.529l-6.316 15.158h4.521l.875-2.527h5.507l.532 2.527h3.99L49.69 15.98h-3.634Zm.588 4.508 1.34 6.262h-3.59l2.25-6.262Z"/></svg>