<svg xmlns="http://www.w3.org/2000/svg" width="6" height="22" fill="none">
    <path d="M3 21.667a2.57 2.57 0 0 1-1.883-.784A2.57 2.57 0 0 1 .333 19q0-1.1.784-1.883A2.57 2.57 0 0 1 3 16.333q1.1 0 1.883.784.784.783.784 1.883t-.784 1.883A2.57 2.57 0 0 1 3 21.667m0-8a2.57 2.57 0 0 1-1.883-.784A2.57 2.57 0 0 1 .333 11q0-1.1.784-1.883A2.57 2.57 0 0 1 3 8.333q1.1 0 1.883.784.784.783.784 1.883t-.784 1.883A2.57 2.57 0 0 1 3 13.667m0-8a2.57 2.57 0 0 1-1.883-.784A2.57 2.57 0 0 1 .333 3q0-1.1.784-1.883A2.57 2.57 0 0 1 3 .333q1.1 0 1.883.784.784.783.784 1.883t-.784 1.883A2.57 2.57 0 0 1 3 5.667"/>
</svg>