<!-- Generated by IcoMoon.io -->
<svg version="1.1" xmlns="http://www.w3.org/2000/svg" width="32" height="32" viewBox="0 0 32 32">
<title>cut</title>
<path d="M12.853 10.187c0.307-0.667 0.48-1.4 0.48-2.187 0-2.947-2.387-5.333-5.333-5.333s-5.333 2.387-5.333 5.333c0 2.947 2.387 5.333 5.333 5.333 0.787 0 1.52-0.173 2.187-0.48l3.147 3.147-3.147 3.147c-0.667-0.307-1.4-0.48-2.187-0.48-2.947 0-5.333 2.387-5.333 5.333s2.387 5.333 5.333 5.333c2.947 0 5.333-2.387 5.333-5.333 0-0.787-0.173-1.52-0.48-2.187l3.147-3.147 9.333 9.333h4v-1.333l-16.48-16.48zM8 10.667c-1.467 0-2.667-1.187-2.667-2.667s1.2-2.667 2.667-2.667c1.467 0 2.667 1.187 2.667 2.667s-1.2 2.667-2.667 2.667zM8 26.667c-1.467 0-2.667-1.187-2.667-2.667s1.2-2.667 2.667-2.667c1.467 0 2.667 1.187 2.667 2.667s-1.2 2.667-2.667 2.667zM16 16.667c-0.373 0-0.667-0.293-0.667-0.667s0.293-0.667 0.667-0.667c0.373 0 0.667 0.293 0.667 0.667s-0.293 0.667-0.667 0.667zM25.333 4l-8 8 2.667 2.667 9.333-9.333v-1.333l-4 0z"></path>
</svg>
