<!-- Generated by IcoMoon.io -->
<svg version="1.1" xmlns="http://www.w3.org/2000/svg" width="32" height="32" viewBox="0 0 32 32">
<title>data</title>
<path d="M6.060 21.331c-0.743 0-1.345 0.603-1.345 1.345s0.603 1.345 1.345 1.345c0.743 0 1.345-0.603 1.345-1.345s-0.603-1.345-1.345-1.345zM27.285 23.991v-2.667h-17.293v2.667h17.293zM6.060 14.655c-0.743 0-1.345 0.603-1.345 1.345s0.603 1.345 1.345 1.345c0.743 0 1.345-0.603 1.345-1.345s-0.603-1.345-1.345-1.345zM20.619 17.317h-10.627v-2.667h10.627v2.667zM6.060 15c0.552 0 1 0.448 1 1s-0.448 1-1 1c-0.552 0-1-0.448-1-1s0.448-1 1-1zM6.060 7.979c0.743 0 1.345 0.603 1.345 1.345 0 0.741-0.603 1.345-1.345 1.345s-1.345-0.604-1.345-1.345c0-0.743 0.603-1.345 1.345-1.345zM27.285 10.657h-17.293v-2.667h17.293v2.667z"></path>
</svg>
