<!-- Generated by IcoMoon.io -->
<svg version="1.1" xmlns="http://www.w3.org/2000/svg" width="32" height="32" viewBox="0 0 32 32">
<title>eye</title>
<path d="M16 8.222c-5.186 0-9.614 3.225-11.408 7.778 1.794 4.553 6.222 7.778 11.408 7.778s9.614-3.225 11.408-7.778c-1.794-4.553-6.222-7.778-11.408-7.778zM16 21.186c-2.862 0-5.186-2.324-5.186-5.186s2.324-5.186 5.186-5.186c2.862 0 5.186 2.324 5.186 5.186s-2.324 5.186-5.186 5.186zM16 12.889c-1.721 0-3.111 1.39-3.111 3.111s1.39 3.111 3.111 3.111c1.721 0 3.111-1.39 3.111-3.111s-1.39-3.111-3.111-3.111z"></path>
</svg>
