<svg version="1.1" xmlns="http://www.w3.org/2000/svg" width="1024" height="1024" viewBox="0 0 1024 1024">
<title>Linked</title>
<path fill="#000" d="M166.4 512c0-72.96 59.307-132.267 132.267-132.267h170.667v-81.067h-170.667c-117.76 0-213.333 95.573-213.333 213.333s95.573 213.333 213.333 213.333h170.667v-81.067h-170.667c-72.96 0-132.267-59.307-132.267-132.267zM341.333 554.667h341.333v-85.333h-341.333v85.333zM725.333 298.667h-170.667v81.067h170.667c72.96 0 132.267 59.307 132.267 132.267s-59.307 132.267-132.267 132.267h-170.667v81.067h170.667c117.76 0 213.333-95.573 213.333-213.333s-95.573-213.333-213.333-213.333z"></path>
</svg>
