<svg version="1.1" xmlns="http://www.w3.org/2000/svg" width="1024" height="1024" viewBox="0 0 1024 1024">
<title>Unlinked</title>
<path fill="#000" d="M725.333 298.667h-170.667v81.067h170.667c72.96 0 132.267 59.307 132.267 132.267 0 61.013-41.813 112.213-98.56 127.147l62.293 62.293c69.547-35.413 117.333-106.24 117.333-189.44 0-117.76-95.573-213.333-213.333-213.333zM682.667 469.333h-93.44l85.333 85.333h8.107zM85.333 182.187l132.693 132.693c-77.653 31.573-132.693 107.947-132.693 197.12 0 117.76 95.573 213.333 213.333 213.333h170.667v-81.067h-170.667c-72.96 0-132.267-59.307-132.267-132.267 0-67.84 51.627-123.733 117.76-130.987l88.32 88.32h-31.147v85.333h116.48l96.853 96.853v73.813h73.813l171.093 170.667 53.76-53.76-713.813-714.24-54.187 54.187z"></path>
</svg>
