<?xml version="1.0" encoding="UTF-8"?>
<svg width="226px" height="250px" viewBox="0 0 226 250" version="1.1" xmlns="http://www.w3.org/2000/svg" xmlns:xlink="http://www.w3.org/1999/xlink">
    <!-- Generator: Sketch 47.1 (45422) - http://www.bohemiancoding.com/sketch -->
    <title>webpack</title>
    <desc>Created with Sketch.</desc>
    <defs></defs>
    <g id="Partner-Logos" stroke="none" stroke-width="1" fill="none" fill-rule="evenodd">
        <g id="Desktop" transform="translate(-471.000000, -372.000000)" fill-rule="nonzero">
            <g id="webpack" transform="translate(471.000000, 372.000000)">
                <path d="M218.153208,192.286792 L117.250566,249.427925 L117.250566,204.990189 L180.139623,170.357736 L218.153208,192.286792 Z M225.060377,186.055849 L225.060377,66.6535849 L188.157736,87.954717 L188.157736,164.754717 L225.060377,186.055849 Z M7.4603774,192.286792 L108.363019,249.379623 L108.363019,204.941887 L45.4739623,170.357736 L7.4603774,192.286792 L7.4603774,192.286792 Z M0.5532075,186.055849 L0.5532075,66.6535849 L37.4558491,87.954717 L37.4558491,164.754717 L0.5532075,186.055849 L0.5532075,186.055849 Z M4.8520755,58.925283 L108.363019,0.3833962 L108.363019,43.3720755 L42.0445283,79.84 L41.5132075,80.129811 L4.8520755,58.925283 L4.8520755,58.925283 Z M220.713208,58.925283 L117.250566,0.3833962 L117.250566,43.3720755 L183.520755,79.8883019 L184.052075,80.178113 L220.713208,58.925283 L220.713208,58.925283 Z" id="Shape" fill="#8ED6FB"></path>
                <path d="M108.363019,194.846792 L46.3433962,160.697358 L46.3433962,93.123019 L108.363019,128.914717 L108.363019,194.846792 L108.363019,194.846792 Z M117.250566,194.846792 L179.270189,160.74566 L179.270189,93.123019 L117.250566,128.914717 L117.250566,194.846792 Z M50.4973585,85.298113 L112.806792,51.0520755 L175.067925,85.298113 L112.806792,121.234717 L50.4973585,85.298113 L50.4973585,85.298113 Z" id="Shape" fill="#1C78C0"></path>
            </g>
        </g>
    </g>
</svg>