<!-- Generator: Adobe Illustrator 19.1.0, SVG Export Plug-In . SVG Version: 6.00 Build 0)  -->
<svg class="share-icon" version="1.1" id="Capa_1" xmlns="http://www.w3.org/2000/svg" xmlns:xlink="http://www.w3.org/1999/xlink" x="0px" y="0px"
	 viewBox="41 -24.8 97.8 97.8" style="enable-background:new 41 -24.8 97.8 97.8;" xml:space="preserve">
<style type="text/css">
	.sttw0{fill:#00ACED;}
	.sttw1{fill:#FFFFFF;}
</style>
<circle class="sttw0" cx="89.9" cy="24.1" r="48.9"/>
<path class="sttw1" d="M119.4,11.1c0,0.6,0,1.2,0,1.7c0,20.9-15.9,42.5-42.5,42.5c-8.1,0-16-2.3-22.9-6.7c-0.1-0.1-0.2-0.3-0.1-0.4
	c0.1-0.2,0.2-0.3,0.4-0.2c1.1,0.1,2.3,0.2,3.5,0.2c6.3,0,12.3-2,17.4-5.7C69.1,42,63.9,37.9,62,32c0-0.1,0-0.3,0.1-0.4
	c0.1-0.1,0.2-0.1,0.3-0.1c1.7,0.3,3.4,0.3,5,0.1c-6.3-1.9-10.7-7.8-10.7-14.5l0-0.2c0-0.1,0.1-0.2,0.2-0.3c0.1-0.1,0.2-0.1,0.4,0
	c1.6,0.9,3.4,1.5,5.3,1.7C59.1,15.5,57,11.1,57,6.5c0-2.7,0.7-5.3,2.1-7.6c0.1-0.1,0.2-0.2,0.3-0.2c0.1,0,0.2,0,0.3,0.1
	c7.4,9,18.2,14.6,29.8,15.3c-0.2-1-0.3-2-0.3-3c0-8.4,6.8-15.2,15.2-15.2c4.1,0,8.1,1.7,10.9,4.6c3.2-0.7,6.3-1.8,9.1-3.5
	c0.1-0.1,0.3-0.1,0.4,0c0.1,0.1,0.2,0.2,0.1,0.4c-1,3-2.8,5.6-5.3,7.5c2.4-0.4,4.7-1.1,6.8-2.1c0.1-0.1,0.3,0,0.4,0.1
	c0.1,0.1,0.1,0.3,0,0.4C124.8,6.4,122.3,9,119.4,11.1z"/>
</svg>
