<?xml version="1.0" encoding="utf-8"?>
<!-- Generator: Adobe Illustrator 25.0.0, SVG Export Plug-In . SVG Version: 6.00 Build 0)  -->
<svg version="1.1" id="Layer_1" xmlns="http://www.w3.org/2000/svg" xmlns:xlink="http://www.w3.org/1999/xlink" x="0px" y="0px"
	 viewBox="0 0 314.1 223.8" style="enable-background:new 0 0 314.1 223.8;" xml:space="preserve">
<style type="text/css">
	.st0{fill:#FFD98A;}
	.st1{font-family:'ArialMT';}
	.st2{font-size:12px;}
	.st3{fill:#F2D4FF;stroke:#000000;stroke-miterlimit:10;}
	.st4{fill:#BFE8FF;}
	.st5{font-size:7.5826px;}
	.st6{enable-background:new    ;}
</style>
<g>
	<g>
		<rect x="0.5" y="0.5" class="st0" width="134" height="222.9"/>
		<path d="M134,0.9v222H1V0.9H134 M135,0H0v223.8h135V0L135,0z"/>
	</g>
	<text transform="matrix(1 0 0 1 9.1789 17.0359)" class="st1 st2">Partial Store</text>
	<g>
		<rect x="16.7" y="41.2" class="st3" width="102.6" height="36.6"/>
		<g>
			<g>
				<rect x="44.5" y="44.2" class="st4" width="71.1" height="4.3"/>
				<path d="M115.1,44.3v4.1H45v-4.1H115.1 M116.1,44.1H44v4.5h72.1V44.1L116.1,44.1z"/>
			</g>
		</g>
		<text transform="matrix(1 0 0 1 21.422 50.8874)" class="st1 st5">Row</text>
		<text transform="matrix(1 0 0 1 21.422 59.9874)" class="st1 st5">Block</text>
		<g>
			<g>
				<rect x="44.5" y="50.8" class="st4" width="71.1" height="4.3"/>
				<path d="M115.1,50.9V55H45v-4.1H115.1 M116.1,50.7H44v4.5h72.1V50.7L116.1,50.7z"/>
			</g>
		</g>
		<g>
			<g>
				<rect x="44.5" y="56.5" class="st4" width="71.1" height="4.3"/>
				<path d="M115.1,56.6v4.1H45v-4.1H115.1 M116.1,56.4H44v4.5h72.1V56.4L116.1,56.4z"/>
			</g>
		</g>
		<g>
			<g>
				<rect x="44.5" y="63.4" class="st4" width="71.1" height="4.3"/>
				<path d="M115.1,63.5v4.1H45v-4.1H115.1 M116.1,63.3H44v4.5h72.1V63.3L116.1,63.3z"/>
			</g>
		</g>
		<g>
			<g>
				<rect x="44.5" y="70.2" class="st4" width="71.1" height="4.3"/>
				<path d="M115.1,70.3v4.1H45v-4.1H115.1 M116.1,70.1H44v4.5h72.1V70.1L116.1,70.1z"/>
			</g>
		</g>
	</g>
	<g>
		<rect x="16.2" y="84.3" class="st3" width="102.6" height="36.6"/>
		<g>
			<g>
				<rect x="44" y="87.3" class="st4" width="71.1" height="4.3"/>
				<path d="M114.6,87.4v4.1H44.5v-4.1H114.6 M115.6,87.2H43.5v4.5h72.1V87.2L115.6,87.2z"/>
			</g>
		</g>
		<text transform="matrix(1 0 0 1 20.9587 94.0342)" class="st1 st5">Row</text>
		<text transform="matrix(1 0 0 1 20.9587 103.1342)" class="st1 st5">Block</text>
		<g>
			<g>
				<rect x="44" y="93.9" class="st4" width="71.1" height="4.3"/>
				<path d="M114.6,94v4.1H44.5V94H114.6 M115.6,93.8H43.5v4.5h72.1V93.8L115.6,93.8z"/>
			</g>
		</g>
		<g>
			<g>
				<rect x="44" y="99.7" class="st4" width="71.1" height="4.3"/>
				<path d="M114.6,99.8v4.1H44.5v-4.1H114.6 M115.6,99.6H43.5v4.5h72.1V99.6L115.6,99.6z"/>
			</g>
		</g>
		<g>
			<g>
				<rect x="44" y="106.5" class="st4" width="71.1" height="4.3"/>
				<path d="M114.6,106.6v4.1H44.5v-4.1H114.6 M115.6,106.4H43.5v4.5h72.1V106.4L115.6,106.4z"/>
			</g>
		</g>
		<g>
			<g>
				<rect x="44" y="113.4" class="st4" width="71.1" height="4.3"/>
				<path d="M114.6,113.5v4.1H44.5v-4.1H114.6 M115.6,113.3H43.5v4.5h72.1V113.3L115.6,113.3z"/>
			</g>
		</g>
	</g>
	<g>
		<rect x="16.2" y="129.6" class="st3" width="102.6" height="36.6"/>
		<text transform="matrix(1 0 0 1 21.4221 147.484)" class="st1 st5">&lt; other blocks not loaded &gt;</text>
	</g>
</g>
<g>
	<rect x="179.6" y="0.5" class="st0" width="134" height="222.9"/>
	<path d="M313.1,0.9v222h-133V0.9H313.1 M314.1,0h-135v223.8h135V0L314.1,0z"/>
	<text transform="matrix(1 0 0 1 190.9805 16.6008)" class="st1 st2">Full Store</text>
	<g>
		<g>
			<g>
				<rect x="208.4" y="40" class="st4" width="71.1" height="4.3"/>
				<path d="M279,40.1v4.1h-70.1v-4.1H279 M280,39.9h-72.1v4.5H280V39.9L280,39.9z"/>
			</g>
		</g>
		<g>
			<g>
				<rect x="208.4" y="46.6" class="st4" width="71.1" height="4.3"/>
				<path d="M279,46.7v4.1h-70.1v-4.1H279 M280,46.5h-72.1V51H280V46.5L280,46.5z"/>
			</g>
		</g>
		<g>
			<g>
				<rect x="208.4" y="52.3" class="st4" width="71.1" height="4.3"/>
				<path d="M279,52.5v4.1h-70.1v-4.1H279 M280,52.2h-72.1v4.5H280V52.2L280,52.2z"/>
			</g>
		</g>
		<g>
			<g>
				<rect x="208.4" y="59.2" class="st4" width="71.1" height="4.3"/>
				<path d="M279,59.3v4.1h-70.1v-4.1H279 M280,59.1h-72.1v4.5H280V59.1L280,59.1z"/>
			</g>
		</g>
		<g>
			<g>
				<rect x="208.4" y="66.1" class="st4" width="71.1" height="4.3"/>
				<path d="M279,66.2v4.1h-70.1v-4.1H279 M280,66h-72.1v4.5H280V66L280,66z"/>
			</g>
		</g>
	</g>
	<g>
		<g>
			<g>
				<rect x="208.4" y="74.3" class="st4" width="71.1" height="4.3"/>
				<path d="M279,74.4v4.1h-70.1v-4.1H279 M280,74.2h-72.1v4.5H280V74.2L280,74.2z"/>
			</g>
		</g>
		<g>
			<g>
				<rect x="208.4" y="80.9" class="st4" width="71.1" height="4.3"/>
				<path d="M279,81v4.1h-70.1V81H279 M280,80.8h-72.1v4.5H280V80.8L280,80.8z"/>
			</g>
		</g>
		<g>
			<g>
				<rect x="208.4" y="86.6" class="st4" width="71.1" height="4.3"/>
				<path d="M279,86.7v4.1h-70.1v-4.1H279 M280,86.5h-72.1V91H280V86.5L280,86.5z"/>
			</g>
		</g>
		<g>
			<g>
				<rect x="208.4" y="93.5" class="st4" width="71.1" height="4.3"/>
				<path d="M279,93.6v4.1h-70.1v-4.1H279 M280,93.4h-72.1v4.5H280V93.4L280,93.4z"/>
			</g>
		</g>
		<g>
			<g>
				<rect x="208.4" y="100.4" class="st4" width="71.1" height="4.3"/>
				<path d="M279,100.5v4.1h-70.1v-4.1H279 M280,100.3h-72.1v4.5H280V100.3L280,100.3z"/>
			</g>
		</g>
	</g>
	<g>
		<g>
			<g>
				<rect x="208.4" y="108.8" class="st4" width="71.1" height="4.3"/>
				<path d="M279,108.9v4.1h-70.1v-4.1H279 M280,108.7h-72.1v4.5H280V108.7L280,108.7z"/>
			</g>
		</g>
		<g>
			<g>
				<rect x="208.4" y="115.4" class="st4" width="71.1" height="4.3"/>
				<path d="M279,115.5v4.1h-70.1v-4.1H279 M280,115.3h-72.1v4.5H280V115.3L280,115.3z"/>
			</g>
		</g>
		<g>
			<g>
				<rect x="208.4" y="121.1" class="st4" width="71.1" height="4.3"/>
				<path d="M279,121.2v4.1h-70.1v-4.1H279 M280,121h-72.1v4.5H280V121L280,121z"/>
			</g>
		</g>
		<g>
			<g>
				<rect x="208.4" y="127.9" class="st4" width="71.1" height="4.3"/>
				<path d="M279,128v4.1h-70.1V128H279 M280,127.8h-72.1v4.5H280V127.8L280,127.8z"/>
			</g>
		</g>
		<g>
			<g>
				<rect x="208.4" y="134.8" class="st4" width="71.1" height="4.3"/>
				<path d="M279,134.9v4.1h-70.1v-4.1H279 M280,134.7h-72.1v4.5H280V134.7L280,134.7z"/>
			</g>
		</g>
	</g>
	<g>
		<g>
			<g>
				<rect x="208.4" y="143.2" class="st4" width="71.1" height="4.3"/>
				<path d="M279,143.4v4.1h-70.1v-4.1H279 M280,143.1h-72.1v4.5H280V143.1L280,143.1z"/>
			</g>
		</g>
		<g>
			<g>
				<rect x="208.4" y="149.9" class="st4" width="71.1" height="4.3"/>
				<path d="M279,150v4.1h-70.1V150H279 M280,149.8h-72.1v4.5H280V149.8L280,149.8z"/>
			</g>
		</g>
		<g>
			<g>
				<rect x="208.4" y="155.6" class="st4" width="71.1" height="4.3"/>
				<path d="M279,155.7v4.1h-70.1v-4.1H279 M280,155.5h-72.1v4.5H280V155.5L280,155.5z"/>
			</g>
		</g>
		<g>
			<g>
				<rect x="208.4" y="162.4" class="st4" width="71.1" height="4.3"/>
				<path d="M279,162.5v4.1h-70.1v-4.1H279 M280,162.3h-72.1v4.5H280V162.3L280,162.3z"/>
			</g>
		</g>
		<g>
			<g>
				<rect x="208.4" y="169.3" class="st4" width="71.1" height="4.3"/>
				<path d="M279,169.4v4.1h-70.1v-4.1H279 M280,169.2h-72.1v4.5H280V169.2L280,169.2z"/>
			</g>
		</g>
	</g>
	<text transform="matrix(1 0 0 1 204.5405 196.0605)" class="st6"><tspan x="0" y="0" class="st1 st2">All rows loaded</tspan><tspan x="2.7" y="14.4" class="st1 st2">in one request</tspan></text>
</g>
<text transform="matrix(1 0 0 1 7.0962 185.5004)" class="st6"><tspan x="0" y="0" class="st1 st2">Rows loaded one block</tspan><tspan x="0.7" y="14.4" class="st1 st2">at a time using multiple</tspan><tspan x="26" y="28.8" class="st1 st2">load requests</tspan></text>
</svg>
