<svg xmlns="http://www.w3.org/2000/svg" xmlns:xlink="http://www.w3.org/1999/xlink" viewBox="0 0 78.82 89.27"><defs><style>.cls-1{fill:none;clip-rule:evenodd;}.cls-10,.cls-11,.cls-2,.cls-3,.cls-4,.cls-5,.cls-7,.cls-9{fill-rule:evenodd;}.cls-2{fill:url(#linear-gradient);}.cls-3{fill:url(#linear-gradient-2);}.cls-4{fill:url(#linear-gradient-3);}.cls-5{fill:#fff;stroke:#e8412a;stroke-miterlimit:10;stroke-width:2px;}.cls-6{clip-path:url(#clip-path);}.cls-7{fill:#3065af;}.cls-8{clip-path:url(#clip-path-2);}.cls-9{fill:#009d70;}.cls-10{fill:#fbad18;}.cls-11{fill:url(#linear-gradient-4);}.cls-12{fill:#ef4e35;}</style><linearGradient id="linear-gradient" x1="15.28" y1="16.09" x2="54.32" y2="83.69" gradientUnits="userSpaceOnUse"><stop offset="0" stop-color="#009ede"/><stop offset="0.17" stop-color="#0395d6"/><stop offset="0.44" stop-color="#0c7dc0"/><stop offset="0.79" stop-color="#1a559d"/><stop offset="1" stop-color="#243a85"/></linearGradient><linearGradient id="linear-gradient-2" x1="46.73" y1="88.72" x2="46.83" y2="88.89" xlink:href="#linear-gradient"/><linearGradient id="linear-gradient-3" x1="44.65" y1="44.64" x2="84.06" y2="44.64" gradientUnits="userSpaceOnUse"><stop offset="0" stop-color="#009d70"/><stop offset="0.21" stop-color="#009a6c"/><stop offset="0.43" stop-color="#01905f"/><stop offset="0.66" stop-color="#027f4b"/><stop offset="0.88" stop-color="#04682e"/><stop offset="1" stop-color="#055a1c"/></linearGradient><clipPath id="clip-path" transform="translate(-5.24)"><polygon class="cls-1" points="3.1 16.54 5.24 21.17 44.88 72.7 0 90.72 3.1 16.54"/></clipPath><clipPath id="clip-path-2" transform="translate(-5.24)"><polygon class="cls-1" points="86.2 16.54 86.31 19.22 44.88 72.7 89.3 90.72 86.2 16.54"/></clipPath><linearGradient id="linear-gradient-4" x1="44.88" y1="66.95" x2="5.24" y2="66.95" gradientUnits="userSpaceOnUse"><stop offset="0" stop-color="#f28b32"/><stop offset="0.23" stop-color="#f18732"/><stop offset="0.46" stop-color="#f07a30"/><stop offset="0.7" stop-color="#ed662e"/><stop offset="0.94" stop-color="#e9492b"/><stop offset="1" stop-color="#e8412a"/></linearGradient></defs><title>ag-Grid EnterpriseAsset 1</title><g id="Layer_2" data-name="Layer 2"><g id="Layer_1-2" data-name="Layer 1"><path class="cls-2" d="M41.84.75,8.05,20.26a5.63,5.63,0,0,0-2.81,4.87v39A5.61,5.61,0,0,0,8.05,69L41.84,88.52a5.64,5.64,0,0,0,2.81.75V0A5.64,5.64,0,0,0,41.84.75Z" transform="translate(-5.24)"/><path class="cls-3" d="M47.46,88.52a5.67,5.67,0,0,1-1.37.57A5.67,5.67,0,0,0,47.46,88.52Z" transform="translate(-5.24)"/><path class="cls-4" d="M47.46,88.52,81.25,69a5.61,5.61,0,0,0,2.81-4.86v-39a5.63,5.63,0,0,0-2.81-4.87L47.46.75A5.64,5.64,0,0,0,44.65,0V89.27A5.64,5.64,0,0,0,47.46,88.52Z" transform="translate(-5.24)"/><path class="cls-5" d="M22.29,32.28a3.18,3.18,0,0,1,1.6-2.76L43.06,18.45a3.19,3.19,0,0,1,3.19,0L65.42,29.52A3.2,3.2,0,0,1,67,32.28V54.41a3.2,3.2,0,0,1-1.59,2.76L46.25,68.24a3.19,3.19,0,0,1-3.19,0L23.89,57.17a3.18,3.18,0,0,1-1.6-2.76Z" transform="translate(-5.24)"/><g class="cls-6"><path class="cls-7" d="M5.24,25.13a5.63,5.63,0,0,1,2.81-4.87L41.84.75a5.64,5.64,0,0,1,5.62,0L81.25,20.26a5.63,5.63,0,0,1,2.81,4.87v39A5.61,5.61,0,0,1,81.25,69L47.46,88.52a5.64,5.64,0,0,1-5.62,0L8.05,69a5.61,5.61,0,0,1-2.81-4.86Z" transform="translate(-5.24)"/></g><g class="cls-8"><path class="cls-9" d="M84.06,25.13a5.63,5.63,0,0,0-2.81-4.87L47.46.75a5.64,5.64,0,0,0-5.62,0L8.05,20.26a5.63,5.63,0,0,0-2.81,4.87v39A5.61,5.61,0,0,0,8.05,69L41.84,88.52a5.64,5.64,0,0,0,5.62,0L81.25,69a5.61,5.61,0,0,0,2.81-4.86Z" transform="translate(-5.24)"/></g><path class="cls-10" d="M5.24,44.64V64.15A5.61,5.61,0,0,0,8.05,69L41.84,88.52a5.64,5.64,0,0,0,5.62,0L81.25,69a5.61,5.61,0,0,0,2.81-4.86V44.64S47,67.31,44.88,67.31,5.24,44.64,5.24,44.64Z" transform="translate(-5.24)"/><path class="cls-11" d="M5.24,64.15A5.61,5.61,0,0,0,8.05,69L41.84,88.52a5.65,5.65,0,0,0,3,.74v-22c-2.11,0-39.64-22.67-39.64-22.67Z" transform="translate(-5.24)"/><path class="cls-12" d="M56,37.27v8.12H37.48v4a.85.85,0,0,0,.85.83H56v4.1H38.33a5,5,0,0,1-5-4.93V37.27a5,5,0,0,1,5-4.93H51A4.94,4.94,0,0,1,56,37.27Zm-4.14,4v-4a.84.84,0,0,0-.84-.83H38.33a.85.85,0,0,0-.85.83v4Z" transform="translate(-5.24)"/></g></g></svg>