<!-- Generated by IcoMoon.io -->
<svg version="1.1" xmlns="http://www.w3.org/2000/svg" width="32" height="32" viewBox="0 0 32 32">
<title>eye</title>
<path d="M16.292 6.32c5.956 0.174 11.328 4.086 13.62 9.746 0 0-1.318 3.18-3.224 5.176-4.862 5.088-13.534 5.97-19.328 1.784-1.694-1.222-3.122-2.804-4.168-4.612-0.41-0.71-0.694-1.336-1.104-2.348 0 0 0.898-2.216 2.002-3.716 2.678-3.64 7.030-5.896 11.618-6.030 0.294-0.004 0.292-0.004 0.584 0zM15.746 8.32c-4.896 0.142-9.458 3.202-11.466 7.672l-0.032 0.074c2.46 5.762 9.622 9.066 15.63 7.152 3.458-1.102 6.342-3.738 7.842-7.076l0.032-0.076c-1.984-4.646-6.834-7.796-12.006-7.746zM16 9.266c3.754 0 6.8 3.048 6.8 6.8 0 3.754-3.046 6.8-6.8 6.8s-6.8-3.046-6.8-6.8c0-3.752 3.046-6.8 6.8-6.8zM21 16.034v-0.034c0-2.76-2.24-5-5-5s-5 2.24-5 5v0.066c0 2.76 2.24 5 5 5s5-2.24 5-5v-0.032z"></path>
</svg>
