<!-- Generated by IcoMoon.io -->
<svg version="1.1" xmlns="http://www.w3.org/2000/svg" width="32" height="32" viewBox="0 0 32 32">
<title>unlinked</title>
<path d="M5.35 3.999c-0.052 0.001-0.103 0.021-0.14 0.058-0.388 0.38-0.768 0.768-1.152 1.152-0.077 0.077-0.078 0.211-0.002 0.288 7.459 7.506 14.965 14.965 22.447 22.447 0.077 0.077 0.211 0.077 0.288 0.002 0.385-0.382 0.767-0.767 1.151-1.151 0.077-0.077 0.077-0.211 0.002-0.288-7.46-7.505-14.965-14.965-22.447-22.447-0.039-0.039-0.092-0.061-0.146-0.061zM5.961 16.547c-1.933 1.939-2.538 5.119-1.289 7.688 0.92 1.893 2.779 3.31 4.891 3.672 2.105 0.361 4.358-0.336 5.893-1.866l1.984-1.984-1.438-1.438-1.986 1.986c-1.486 1.476-3.993 1.81-5.834 0.629-1.005-0.645-1.748-1.69-2.024-2.853-0.367-1.545 0.107-3.252 1.241-4.393l1.986-1.986-1.438-1.438c-0.661 0.661-1.323 1.323-1.984 1.984zM21.273 3.999c-1.753 0.008-3.476 0.716-4.727 1.963l-1.984 1.984 1.438 1.438 1.985-1.985c0.744-0.739 1.736-1.219 2.776-1.338 1.974-0.224 4.045 0.926 4.845 2.834 0.712 1.699 0.329 3.778-1.004 5.12l-1.986 1.985 1.439 1.438c0.667-0.667 1.334-1.332 2-2 2.012-2.031 2.557-5.368 1.112-7.982-1.144-2.070-3.432-3.441-5.834-3.459-0.020-0-0.040-0-0.061-0z"></path>
</svg>
