<svg width="100%" height="100%" viewBox="0 0 18 18" version="1.1" xmlns="http://www.w3.org/2000/svg" xmlns:xlink="http://www.w3.org/1999/xlink" xml:space="preserve" xmlns:serif="http://www.serif.com/" style="fill-rule:evenodd;clip-rule:evenodd;stroke-linejoin:round;stroke-miterlimit:2;">
    <g id="arrows" transform="matrix(0.0175781,0,0,0.0175781,0,0)">
        <path fill="#03a9f4" d="M426.666,369.777L597.332,369.777L597.332,256L711.109,256L511.998,56.889L312.887,256L426.664,256L426.664,369.777L426.666,369.777ZM369.777,426.666L256,426.666L256,312.889L56.889,512L256,711.111L256,597.334L369.777,597.334L369.777,426.668L369.777,426.666ZM967.109,511.999L767.998,312.888L767.998,426.665L654.221,426.665L654.221,597.331L767.998,597.331L767.998,711.108L967.109,511.997L967.109,511.999ZM597.332,654.221L426.666,654.221L426.666,767.998L312.889,767.998L512,967.109L711.111,767.998L597.334,767.998L597.334,654.221L597.332,654.221Z" style="fill-rule:nonzero;"/>
    </g>
</svg>
