<svg width="100%" height="100%" viewBox="0 0 18 18" version="1.1" xmlns="http://www.w3.org/2000/svg" xmlns:xlink="http://www.w3.org/1999/xlink" xml:space="preserve" xmlns:serif="http://www.serif.com/" style="fill-rule:evenodd;clip-rule:evenodd;stroke-linejoin:round;stroke-miterlimit:2;">
    <g id="cancel" transform="matrix(0.0175781,0,0,0.0175781,0,0)">
        <path fill="#03a9f4" d="M512,85.333C276.053,85.333 85.333,276.053 85.333,512C85.333,747.947 276.053,938.667 512,938.667C747.947,938.667 938.667,747.947 938.667,512C938.667,276.053 747.947,85.333 512,85.333ZM725.333,665.173L665.173,725.333L512,572.16L358.827,725.333L298.667,665.173L451.84,512L298.667,358.827L358.827,298.667L512,451.84L665.173,298.667L725.333,358.827L572.16,512L725.333,665.173Z" style="fill-rule:nonzero;"/>
    </g>
</svg>
