<svg width="100%" height="100%" viewBox="0 0 18 18" version="1.1" xmlns="http://www.w3.org/2000/svg" xmlns:xlink="http://www.w3.org/1999/xlink" xml:space="preserve" xmlns:serif="http://www.serif.com/" style="fill-rule:evenodd;clip-rule:evenodd;stroke-linejoin:round;stroke-miterlimit:2;">
    <g id="data" transform="matrix(0.0175781,0,0,0.0175781,0,0)">
        <path fill="#03a9f4" d="M193.92,682.581C170.155,682.581 150.869,701.866 150.869,725.632C150.869,749.398 170.154,768.683 193.92,768.683C217.685,768.683 236.971,749.398 236.971,725.632C236.971,701.866 217.686,682.581 193.92,682.581ZM873.131,767.701L873.131,682.368L319.744,682.368L319.744,767.701L873.131,767.701ZM193.92,468.949C170.155,468.949 150.869,488.234 150.869,512C150.869,535.766 170.154,555.051 193.92,555.051C217.685,555.051 236.971,535.766 236.971,512C236.971,488.234 217.686,468.949 193.92,468.949ZM659.797,554.155L319.744,554.155L319.744,468.822L659.797,468.822L659.797,554.155ZM193.92,480C211.584,480 225.92,494.336 225.92,512C225.92,529.664 211.584,544 193.92,544C176.256,544 161.92,529.664 161.92,512C161.92,494.336 176.256,480 193.92,480ZM193.92,255.317C217.685,255.317 236.971,274.602 236.971,298.368C236.971,322.091 217.686,341.419 193.92,341.419C170.154,341.419 150.869,322.091 150.869,298.368C150.869,274.603 170.154,255.317 193.92,255.317ZM873.131,341.035L319.744,341.035L319.744,255.702L873.131,255.702L873.131,341.035Z" style="fill-rule:nonzero;"/>
    </g>
</svg>
