<svg width="100%" height="100%" viewBox="0 0 18 18" version="1.1" xmlns="http://www.w3.org/2000/svg" xmlns:xlink="http://www.w3.org/1999/xlink" xml:space="preserve" xmlns:serif="http://www.serif.com/" style="fill-rule:evenodd;clip-rule:evenodd;stroke-linejoin:round;stroke-miterlimit:2;">
    <g id="eye-slash" transform="matrix(0.0175781,0,0,0.0175781,0,0)">
        <path fill="#03a9f4" d="M675.383,482.815C661.559,405.105 593.634,346.054 511.999,346.054C466.204,346.054 424.675,364.657 394.638,394.751L315.733,315.789C373.418,282.282 440.49,263.11 511.999,263.11C677.943,263.11 819.653,366.306 877.054,511.998C844.343,594.885 784.382,664.062 708.208,708.264L629.246,629.359C653.139,605.523 669.751,574.404 675.61,539.702L607.685,539.702C602.963,555.972 594.259,570.536 582.654,582.255L540.101,539.702L459.66,539.702L529.918,609.96C524.115,610.984 518.142,611.553 511.998,611.553C466.544,611.553 428.315,581.231 416.311,539.703L348.386,539.703C361.584,618.096 429.851,677.943 511.998,677.943C536.972,677.943 560.695,672.368 581.971,662.469L653.878,734.376C609.903,751.5 562.06,760.886 511.997,760.886C346.053,760.886 204.343,657.69 146.942,511.998C172.428,447.372 214.526,391.053 267.944,348.443L361.526,442.025C355.553,454.825 351.172,468.478 348.612,482.814L483.211,482.814L441.739,441.342C459.773,423.479 484.576,412.443 511.997,412.443C556.939,412.443 594.77,442.025 607.229,482.814L675.382,482.814L675.383,482.815Z" style="fill-rule:nonzero;"/>
    </g>
</svg>
