<svg width="100%" height="100%" viewBox="0 0 18 18" version="1.1" xmlns="http://www.w3.org/2000/svg" xmlns:xlink="http://www.w3.org/1999/xlink" xml:space="preserve" xmlns:serif="http://www.serif.com/" style="fill-rule:evenodd;clip-rule:evenodd;stroke-linejoin:round;stroke-miterlimit:2;">
    <g id="group" transform="matrix(0.0175781,0,0,0.0175781,0,0)">
        <path fill="#03a9f4" d="M597.332,682.665L881.776,682.665C881.776,745.527 830.861,796.442 767.999,796.442L597.333,796.442L597.333,682.665L597.332,682.665ZM881.775,455.11L881.775,568.887L597.331,568.887L597.331,455.11L881.775,455.11ZM767.998,227.555C830.86,227.555 881.775,278.47 881.775,341.332L369.776,341.332L369.776,227.555L767.998,227.555ZM483.554,796.442L369.777,796.442L369.777,682.665L483.554,682.665L483.554,796.442ZM483.554,568.887L369.777,568.887L369.777,455.11L483.554,455.11L483.554,568.887ZM255.999,341.332L142.222,341.332C142.222,278.47 193.137,227.555 255.999,227.555L255.999,341.332Z" style="fill-rule:nonzero;"/>
    </g>
</svg>
