<svg width="100%" height="100%" viewBox="0 0 18 18" version="1.1" xmlns="http://www.w3.org/2000/svg" xmlns:xlink="http://www.w3.org/1999/xlink" xml:space="preserve" xmlns:serif="http://www.serif.com/" style="fill-rule:evenodd;clip-rule:evenodd;stroke-linejoin:round;stroke-miterlimit:2;">
    <g id="loading" transform="matrix(0.0175781,0,0,0.0175781,0,0)">
        <path fill="#03a9f4" d="M568.887,374.661L672.88,270.619L753.378,351.117L649.336,455.11L796.442,455.11L796.442,568.887L649.331,568.887C684.007,603.551 718.714,638.216 753.378,672.88L672.88,753.378L568.887,649.336L568.887,796.442L455.11,796.442L455.11,649.336L351.117,753.378L270.619,672.88L374.661,568.887L227.555,568.887L227.555,455.11L374.66,455.11L270.619,351.118L351.117,270.62C385.781,305.284 420.446,339.991 455.11,374.667L455.11,227.555L568.887,227.555L568.887,374.661ZM464.881,625.776L559.103,625.776L625.776,559.103L625.776,464.894L559.103,398.221L464.895,398.221L398.221,464.895L398.221,559.116C420.427,581.361 442.636,603.57 464.881,625.776Z" style="fill-rule:nonzero;"/>
    </g>
</svg>
