<svg width="100%" height="100%" viewBox="0 0 18 18" version="1.1" xmlns="http://www.w3.org/2000/svg" xmlns:xlink="http://www.w3.org/1999/xlink" xml:space="preserve" xmlns:serif="http://www.serif.com/" style="fill-rule:evenodd;clip-rule:evenodd;stroke-linejoin:round;stroke-miterlimit:2;">
    <g id="paste" transform="matrix(0.0175781,0,0,0.0175781,0,0)">
        <path fill="#03a9f4" d="M810.667,128L632.32,128C614.4,78.507 567.467,42.667 512,42.667C456.533,42.667 409.6,78.507 391.68,128L213.333,128C166.4,128 128,166.4 128,213.333L128,896C128,942.933 166.4,981.333 213.333,981.333L810.666,981.333C857.599,981.333 895.999,942.933 895.999,896L895.999,213.333C895.999,166.4 857.599,128 810.666,128L810.667,128ZM512,128C535.467,128 554.667,147.2 554.667,170.667C554.667,194.134 535.467,213.334 512,213.334C488.533,213.334 469.333,194.134 469.333,170.667C469.333,147.2 488.533,128 512,128ZM810.667,896L213.334,896L213.334,213.333L298.667,213.333L298.667,341.333L725.334,341.333L725.334,213.333L810.667,213.333L810.667,896Z" style="fill-rule:nonzero;"/>
    </g>
</svg>
