<svg width="100%" height="100%" viewBox="0 0 18 18" version="1.1" xmlns="http://www.w3.org/2000/svg" xmlns:xlink="http://www.w3.org/1999/xlink" xml:space="preserve" xmlns:serif="http://www.serif.com/" style="fill-rule:evenodd;clip-rule:evenodd;stroke-linejoin:round;stroke-miterlimit:2;">
    <g id="pivot" transform="matrix(0.0175781,0,0,0.0175781,0,0)">
        <path fill="#03a9f4" d="M853.333,967.125L170.666,967.125C107.818,967.125 56.874,916.181 56.874,853.333L56.874,170.666C56.874,107.818 107.818,56.874 170.666,56.874L853.333,56.874C916.181,56.874 967.125,107.818 967.125,170.666L967.125,853.333C967.125,916.181 916.181,967.125 853.333,967.125ZM341.333,682.667L170.666,682.667L170.666,853.334L341.333,853.334L341.333,682.667ZM853.333,455.125L398.208,455.125L398.208,853.333L853.333,853.333L853.333,455.125ZM560.555,674.347L495.318,739.542L560.555,804.779L520.32,845.014L414.891,739.542L520.32,634.113C533.76,647.51 547.157,660.908 560.555,674.348L560.555,674.347ZM341.333,455.125L170.666,455.125L170.666,625.792L341.333,625.792L341.333,455.125ZM845.013,577.237L804.778,617.429L739.541,552.234L674.346,617.429L634.111,577.237L739.54,471.765C774.697,506.922 809.855,542.08 845.012,577.237L845.013,577.237ZM341.333,170.667L170.666,170.667L170.666,341.334L341.333,341.334L341.333,170.667ZM625.792,170.667L398.208,170.667L398.208,341.334L625.792,341.334L625.792,170.667ZM853.333,170.667L682.666,170.667L682.666,341.334L853.333,341.334L853.333,170.667Z" style="fill-rule:nonzero;"/>
    </g>
</svg>
