<svg width="100%" height="100%" viewBox="0 0 18 18" version="1.1" xmlns="http://www.w3.org/2000/svg" xmlns:xlink="http://www.w3.org/1999/xlink" xml:space="preserve" xmlns:serif="http://www.serif.com/" style="fill-rule:evenodd;clip-rule:evenodd;stroke-linejoin:round;stroke-miterlimit:2;">
    <g id="radio-button-on" transform="matrix(0.0175781,0,0,0.0175781,0,0)">
        <path fill="#03a9f4" d="M512,298.667C394.24,298.667 298.667,394.24 298.667,512C298.667,629.76 394.24,725.333 512,725.333C629.76,725.333 725.333,629.76 725.333,512C725.333,394.24 629.76,298.667 512,298.667ZM512,85.333C276.48,85.333 85.333,276.48 85.333,512C85.333,747.52 276.48,938.667 512,938.667C747.52,938.667 938.667,747.52 938.667,512C938.667,276.48 747.52,85.333 512,85.333ZM512,853.333C323.413,853.333 170.667,700.586 170.667,512C170.667,323.414 323.414,170.667 512,170.667C700.587,170.667 853.333,323.414 853.333,512C853.333,700.586 700.586,853.333 512,853.333Z" style="fill-rule:nonzero;"/>
    </g>
</svg>
