<svg width="100%" height="100%" viewBox="0 0 18 18" version="1.1" xmlns="http://www.w3.org/2000/svg" xmlns:xlink="http://www.w3.org/1999/xlink" xml:space="preserve" xmlns:serif="http://www.serif.com/" style="fill-rule:evenodd;clip-rule:evenodd;stroke-linejoin:round;stroke-miterlimit:2;">
    <g id="save" transform="matrix(0.0175781,0,0,0.0175781,0,0)">
        <path fill="#03a9f4" d="M810.667,512L810.667,810.667L213.334,810.667L213.334,512L128.001,512L128.001,810.667C128.001,857.6 166.401,896 213.334,896L810.667,896C857.6,896 896,857.6 896,810.667L896,512L810.667,512ZM554.667,540.587L665.174,430.507L725.334,490.667L512.001,704L298.668,490.667L358.828,430.507L469.335,540.587L469.335,128L554.668,128L554.668,540.587L554.667,540.587Z" style="fill-rule:nonzero;"/>
    </g>
</svg>
