<svg xmlns="http://www.w3.org/2000/svg" width="16" height="16" fill="black"><path d="M3.467.04c-.471.065-.842.18-1.254.387C1.094.989.328 2.001.063 3.267.016 3.496.013 3.705.013 8s.003 4.504.05 4.733c.345 1.648 1.525 2.838 3.169 3.194l.275.06h8.986l.275-.06c1.635-.354 2.805-1.524 3.159-3.159l.06-.275V3.507l-.06-.275c-.358-1.655-1.549-2.827-3.22-3.171-.193-.04-.644-.045-4.6-.05C4.595.006 3.669.012 3.467.04M12.43 7.1c.178.088.403.316.485.493.048.105.058.175.058.407 0 .251-.007.295-.072.428a1.043 1.043 0 0 1-.756.559c-.214.035-8.076.035-8.29 0a1.038 1.038 0 0 1-.754-.557 1.157 1.157 0 0 1-.051-.729c.08-.275.337-.543.612-.639.131-.045.363-.047 4.378-.041l4.24.006.15.073"/></svg>