<svg xmlns="http://www.w3.org/2000/svg" width="16" height="16" fill="black"><path d="M3.467.04c-.471.065-.842.18-1.254.387C1.094.989.328 2.001.063 3.267.016 3.496.013 3.705.013 8s.003 4.504.05 4.733c.345 1.648 1.525 2.838 3.169 3.194l.275.06h8.986l.275-.06c1.635-.354 2.805-1.524 3.159-3.159l.06-.275V3.507l-.06-.275c-.358-1.655-1.549-2.827-3.22-3.171-.193-.04-.644-.045-4.6-.05C4.595.006 3.669.012 3.467.04m9.07 1.012a3.023 3.023 0 0 1 2.411 2.411c.058.335.058 8.739 0 9.074-.216 1.229-1.198 2.196-2.468 2.427-.296.053-8.664.053-8.96 0-1.27-.231-2.252-1.198-2.468-2.427-.058-.335-.058-8.739 0-9.074a3.062 3.062 0 0 1 .829-1.582 3.11 3.11 0 0 1 1.568-.828c.302-.055 8.775-.055 9.088-.001"/></svg>