<svg xmlns="http://www.w3.org/2000/svg" width="16" height="16" fill="none"><path fill="#000" fill-rule="evenodd" d="M2.5 3.083c0-.319.264-.583.583-.583H9.75c.32 0 .583.264.583.583a.75.75 0 0 0 1.5 0A2.087 2.087 0 0 0 9.75 1H3.083A2.087 2.087 0 0 0 1 3.083V9.75c0 1.148.936 2.083 2.083 2.083a.75.75 0 0 0 0-1.5.587.587 0 0 1-.583-.583V3.083Zm4 3.953c0-.296.24-.536.536-.536h6.428c.296 0 .536.24.536.536v6.428c0 .296-.24.536-.536.536H7.036a.536.536 0 0 1-.536-.536V7.036ZM7.036 5A2.036 2.036 0 0 0 5 7.036v6.428c0 1.125.911 2.036 2.036 2.036h6.428a2.036 2.036 0 0 0 2.036-2.036V7.036A2.036 2.036 0 0 0 13.464 5H7.036Z" clip-rule="evenodd"/></svg>