<svg xmlns="http://www.w3.org/2000/svg" width="16" height="16" fill="none"><path fill="#000" fill-rule="evenodd" d="M3.5 2.25a1.25 1.25 0 1 0 0 2.5 1.25 1.25 0 0 0 0-2.5ZM.75 3.5a2.75 2.75 0 1 1 5.152 1.34L8 6.94l4.803-4.804a.75.75 0 0 1 1.06 1.061L8.53 8.53l-2.628 2.63a2.75 2.75 0 1 1-1.06-1.06l2.097-2.1-2.098-2.098A2.75 2.75 0 0 1 .75 3.5Zm2.75 7.75a1.25 1.25 0 1 0 0 2.5 1.25 1.25 0 0 0 0-2.5Zm6.897-1.914a.75.75 0 0 0-1.06 1.061l3.466 3.467a.75.75 0 0 0 1.06-1.061l-3.466-3.467Z" clip-rule="evenodd"/></svg>