<svg xmlns="http://www.w3.org/2000/svg" width="16" height="16" fill="none"><path fill="#000" fill-rule="evenodd" d="M3.777 1.61c.39-.39.92-.61 1.473-.61h5.333a2.083 2.083 0 0 1 .084 4.165V7.59a.584.584 0 0 0 .323.522l.005.002 1.185.599a2.083 2.083 0 0 1 1.153 1.863v1.174a.75.75 0 0 1-.75.75H3.25a.75.75 0 0 1-.75-.75v-1.173a2.083 2.083 0 0 1 1.154-1.864l1.184-.599.005-.002a.583.583 0 0 0 .324-.522V5.165a2.083 2.083 0 0 1-1.39-3.555Zm1.473.89a.583.583 0 0 0 0 1.167h.667a.75.75 0 0 1 .75.75V7.59a2.083 2.083 0 0 1-1.154 1.864l-1.185.599-.004.002a.583.583 0 0 0-.324.522V11h7.833v-.423a.583.583 0 0 0-.323-.522l-.005-.002-1.185-.6A2.083 2.083 0 0 1 9.167 7.59V4.417a.75.75 0 0 1 .75-.75h.666a.583.583 0 0 0 0-1.167H5.25Z" clip-rule="evenodd"/><path fill="#000" fill-rule="evenodd" d="M8 10.75a.75.75 0 0 1 .75.75v3.333a.75.75 0 0 1-1.5 0V11.5a.75.75 0 0 1 .75-.75Z" clip-rule="evenodd"/></svg>