<svg xmlns="http://www.w3.org/2000/svg" width="16" height="16" fill="black"><path d="M7.467.017a8.028 8.028 0 0 0-5.859 3.176C.799 4.26.296 5.477.073 6.906c-.082.523-.082 1.665 0 2.188.342 2.194 1.403 3.995 3.122 5.299 1.062.806 2.286 1.312 3.711 1.534.523.082 1.665.082 2.188 0 1.944-.303 3.596-1.179 4.836-2.565 1.1-1.229 1.735-2.587 1.997-4.268.082-.523.082-1.665 0-2.188-.222-1.425-.728-2.649-1.534-3.711A7.994 7.994 0 0 0 9 .066 12.585 12.585 0 0 0 7.467.017m1.07 5.035a3.023 3.023 0 0 1 2.411 2.411c.08.459.037 1.072-.103 1.484a3 3 0 0 1-5.69 0c-.191-.56-.19-1.335.002-1.898.143-.419.417-.862.724-1.168a3.11 3.11 0 0 1 1.568-.828 4.17 4.17 0 0 1 1.088-.001"/></svg>