<svg focusable="false" preserveAspectRatio="xMidYMid meet" fill="white" width="32" height="32" viewBox="0 0 32 32" aria-hidden="true" class="P_fX icon" xmlns="http://www.w3.org/2000/svg"><path d="M13.5025,5.4136A15.0755,15.0755,0,0,0,25.096,23.6082a11.1134,11.1134,0,0,1-7.9749,3.3893c-.1385,0-.2782.0051-.4178,0A11.0944,11.0944,0,0,1,13.5025,5.4136M14.98,3a1.0024,1.0024,0,0,0-.1746.0156A13.0959,13.0959,0,0,0,16.63,28.9973c.1641.006.3282,0,.4909,0a13.0724,13.0724,0,0,0,10.702-5.5556,1.0094,1.0094,0,0,0-.7833-1.5644A13.08,13.08,0,0,1,15.8892,4.38,1.0149,1.0149,0,0,0,14.98,3Z"></path></svg>