<?xml version="1.0" encoding="UTF-8"?>
<svg width="18px" height="18px" viewBox="0 0 18 18" version="1.1" xmlns="http://www.w3.org/2000/svg" xmlns:xlink="http://www.w3.org/1999/xlink">
    <!-- Generator: Sketch 48.2 (47327) - http://www.bohemiancoding.com/sketch -->
    <title>enterprise</title>
    <desc>Created with Sketch.</desc>
    <defs></defs>
    <g id="Desktop" stroke="none" stroke-width="1" fill="none" fill-rule="evenodd" transform="translate(-1063.000000, -806.000000)">
        <g id="enterprise" transform="translate(1064.000000, 807.000000)">
            <path d="M10.984,7.28 C10.984,6.47599598 10.7440024,5.82500249 10.264,5.327 C9.7839976,4.82899751 9.11200432,4.58 8.248,4.58 C7.86399808,4.58 7.4920018,4.65499925 7.132,4.805 C6.7719982,4.95500075 6.45700135,5.15599874 6.187,5.408 C5.91699865,5.66000126 5.70100081,5.94799838 5.539,6.272 C5.37699919,6.59600162 5.296,6.93199826 5.296,7.28 L10.984,7.28 Z M5.26,8.252 C5.29600018,8.6720021 5.39799916,9.06799814 5.566,9.44 C5.73400084,9.81200186 5.95599862,10.1329986 6.232,10.403 C6.50800138,10.6730013 6.8259982,10.8859992 7.186,11.042 C7.5460018,11.1980008 7.9359979,11.276 8.356,11.276 C8.99200318,11.276 9.54099769,11.1290015 10.003,10.835 C10.4650023,10.5409985 10.8159988,10.2020019 11.056,9.818 L11.974,10.574 C11.4699975,11.2100032 10.915003,11.6659986 10.309,11.942 C9.70299697,12.2180014 9.05200348,12.356 8.356,12.356 C7.73199688,12.356 7.15300267,12.2450011 6.619,12.023 C6.08499733,11.8009989 5.62600192,11.492002 5.242,11.096 C4.85799808,10.699998 4.55500111,10.2320027 4.333,9.692 C4.11099889,9.1519973 4,8.56400318 4,7.928 C4,7.29199682 4.10799892,6.7040027 4.324,6.164 C4.54000108,5.6239973 4.83999808,5.15600198 5.224,4.76 C5.60800192,4.36399802 6.05799742,4.05500111 6.574,3.833 C7.09000258,3.61099889 7.647997,3.5 8.248,3.5 C8.88400318,3.5 9.45399748,3.61399886 9.958,3.842 C10.4620025,4.07000114 10.8849983,4.37299811 11.227,4.751 C11.5690017,5.12900189 11.8299991,5.57299745 12.01,6.083 C12.1900009,6.59300255 12.28,7.13599712 12.28,7.712 L12.28,8.252 L5.26,8.252 Z" id="e-copy" fill="#E11F22"></path>
            <circle id="Oval-Copy" stroke="#E11F22" stroke-linecap="square" cx="8" cy="8" r="8.5"></circle>
        </g>
    </g>
</svg>