<?xml version="1.0" encoding="UTF-8"?>
<svg width="20px" height="20px" viewBox="0 0 20 20" version="1.1" xmlns="http://www.w3.org/2000/svg" xmlns:xlink="http://www.w3.org/1999/xlink">
    <!-- Generator: Sketch 48.2 (47327) - http://www.bohemiancoding.com/sketch -->
    <title>enterprise</title>
    <desc>Created with Sketch.</desc>
    <defs></defs>
    <g id="Desktop" stroke="none" stroke-width="1" fill="none" fill-rule="evenodd" transform="translate(-1032.000000, -805.000000)">
        <g id="enterprise" transform="translate(1034.000000, 801.000000)">
            <circle id="Oval-Copy" stroke="#E11F22" stroke-width="2" stroke-linecap="square" cx="8" cy="14" r="9"></circle>
            <path d="M5.448,14.328 C5.448,14.7000019 5.52899919,15.0389985 5.691,15.345 C5.85300081,15.6510015 6.06599868,15.9119989 6.33,16.128 C6.59400132,16.3440011 6.89999826,16.5119994 7.248,16.632 C7.59600174,16.7520006 7.95599814,16.812 8.328,16.812 C8.83200252,16.812 9.26999814,16.6950012 9.642,16.461 C10.0140019,16.2269988 10.3559984,15.9180019 10.668,15.534 L11.892,16.47 C10.9919955,17.6340058 9.7320081,18.216 8.112,18.216 C7.43999664,18.216 6.83100273,18.1020011 6.285,17.874 C5.73899727,17.6459989 5.27700189,17.331002 4.899,16.929 C4.52099811,16.526998 4.23000102,16.0530027 4.026,15.507 C3.82199898,14.9609973 3.72,14.3700032 3.72,13.734 C3.72,13.0979968 3.83099889,12.5070027 4.053,11.961 C4.27500111,11.4149973 4.58099805,10.941002 4.971,10.539 C5.36100195,10.136998 5.8259973,9.82200114 6.366,9.594 C6.9060027,9.36599886 7.49399682,9.252 8.13,9.252 C8.88600378,9.252 9.52499739,9.38399868 10.047,9.648 C10.5690026,9.91200132 10.9979983,10.2569979 11.334,10.683 C11.6700017,11.1090021 11.9129993,11.5889973 12.063,12.123 C12.2130008,12.6570027 12.288,13.1999972 12.288,13.752 L12.288,14.328 L5.448,14.328 Z M10.56,13.032 C10.5479999,12.6719982 10.4910005,12.3420015 10.389,12.042 C10.2869995,11.7419985 10.134001,11.4810011 9.93,11.259 C9.72599898,11.0369989 9.47100153,10.8630006 9.165,10.737 C8.85899847,10.6109994 8.50200204,10.548 8.094,10.548 C7.69799802,10.548 7.33500165,10.6229992 7.005,10.773 C6.67499835,10.9230007 6.39600114,11.1179988 6.168,11.358 C5.93999886,11.5980012 5.76300063,11.8649985 5.637,12.159 C5.51099937,12.4530015 5.448,12.7439986 5.448,13.032 L10.56,13.032 Z" id="e" fill="#E11F22"></path>
        </g>
    </g>
</svg>