<?xml version="1.0" encoding="UTF-8"?>
<svg width="16px" height="16px" viewBox="0 0 16 16" version="1.1" xmlns="http://www.w3.org/2000/svg" xmlns:xlink="http://www.w3.org/1999/xlink">
    <!-- Generator: Sketch 48.2 (47327) - http://www.bohemiancoding.com/sketch -->
    <title>medium</title>
    <desc>Created with Sketch.</desc>
    <defs></defs>
    <g id="Desktop-HD" stroke="none" stroke-width="1" fill="none" fill-rule="evenodd" transform="translate(-1088.000000, -65.000000)" fill-opacity="0.8">
        <g id="medium" transform="translate(1088.000000, 65.000000)" fill="#FFFFFF" fill-rule="nonzero">
            <path d="M0,0 L16,0 L16,16 L0,16 L0,0 Z M3.81818095,5.35103634 L3.81818095,10.1018104 C3.84741611,10.2731885 3.79339176,10.4482524 3.67265676,10.5733762 L2.54358974,11.9429235 L2.54358974,12.1235231 L5.74512198,12.1235231 L5.74512198,11.9429235 L4.61605497,10.5733762 C4.49443446,10.4484595 4.43706484,10.2745492 4.46049462,10.1018104 L4.46049462,5.99316843 L7.27061694,12.1235231 L7.59679188,12.1235231 L10.0104863,5.99316843 L10.0104863,10.8793923 C10.0104863,11.0098253 10.0104863,11.0349086 9.925179,11.1201918 L9.05705188,11.9629901 L9.05705188,12.1435898 L13.2722354,12.1435898 L13.2722354,11.9629901 L12.4342168,11.1402584 C12.3602399,11.0838689 12.3235436,10.9911888 12.3388734,10.8994589 L12.3388734,4.85438731 C12.3235436,4.76265733 12.3602399,4.66997725 12.4342168,4.61358778 L13.2923077,3.79085606 L13.2923077,3.61025641 L10.321607,3.61025641 L8.203979,8.89279606 L5.79530274,3.61025641 L2.67907779,3.61025641 L2.67907779,3.79085606 L3.68269291,4.99987036 C3.78121846,5.08867536 3.83153541,5.21908982 3.81818095,5.35103634 Z" id="Combined-Shape"></path>
        </g>
    </g>
</svg>