<!-- Generated by IcoMoon.io -->
<svg version="1.1" xmlns="http://www.w3.org/2000/svg" width="32" height="32" viewBox="0 0 32 32">
<title>grip</title>
<path d="M5.333 25.333h5.333v5.333h-5.333v-5.333zM13.333 25.333h5.333v5.333h-5.333v-5.333zM21.333 25.333h5.333v5.333h-5.333v-5.333zM5.333 17.333h5.333v5.333h-5.333v-5.333zM13.333 17.333h5.333v5.333h-5.333v-5.333zM21.333 17.333h5.333v5.333h-5.333v-5.333zM5.333 9.333h5.333v5.333h-5.333v-5.333zM13.333 9.333h5.333v5.333h-5.333v-5.333zM21.333 9.333h5.333v5.333h-5.333v-5.333zM5.333 1.333h5.333v5.333h-5.333v-5.333zM13.333 1.333h5.333v5.333h-5.333v-5.333zM26.667 6.667h-5.333v-5.333h5.333v5.333z"></path>
</svg>
