<!-- Generated by IcoMoon.io -->
<svg version="1.1" xmlns="http://www.w3.org/2000/svg" width="100%" height="100%" viewBox="0 0 32 32">
<title>linked</title>
<path d="M20.413 11.587c3.734 3.738 3.683 9.731 0.023 13.412-0.007 0.008-0.015 0.016-0.023 0.023l-4.2 4.2c-3.704 3.704-9.731 3.704-13.435 0s-3.704-9.731 0-13.435l2.319-2.319c0.615-0.615 1.674-0.206 1.706 0.663 0.040 1.108 0.239 2.22 0.606 3.295 0.124 0.364 0.035 0.766-0.236 1.038l-0.818 0.818c-1.752 1.752-1.807 4.604-0.072 6.372 1.751 1.786 4.63 1.797 6.395 0.032l4.2-4.199c1.762-1.762 1.755-4.61 0-6.364-0.231-0.231-0.464-0.41-0.646-0.536-0.254-0.176-0.421-0.461-0.434-0.786l-0-0.002c-0.025-0.66 0.209-1.341 0.731-1.863l1.316-1.316c0.345-0.345 0.886-0.387 1.287-0.108 0.477 0.336 0.897 0.689 1.283 1.075v0zM29.222 2.778c-3.704-3.704-9.731-3.704-13.435 0l-4.2 4.2c-0.008 0.008-0.016 0.016-0.023 0.023-3.66 3.681-3.712 9.674 0.023 13.412 0.386 0.386 0.805 0.739 1.252 1.055l0.030 0.020c0.4 0.279 0.941 0.237 1.287-0.108l1.316-1.316c0.522-0.522 0.756-1.202 0.731-1.863-0.013-0.327-0.18-0.612-0.431-0.786l-0.003-0.002c-0.182-0.125-0.415-0.305-0.646-0.536-1.755-1.755-1.762-4.602 0-6.364l4.2-4.199c1.765-1.765 4.644-1.754 6.395 0.032 1.734 1.769 1.68 4.621-0.072 6.372l-0.818 0.818c-0.272 0.272-0.361 0.674-0.236 1.038 0.366 1.075 0.565 2.187 0.606 3.295 0.032 0.869 1.091 1.278 1.706 0.663l2.319-2.319c3.704-3.704 3.704-9.731 0-13.435z"></path>
</svg>
