<?xml version="1.0" encoding="UTF-8" standalone="no"?>
<!DOCTYPE svg PUBLIC "-//W3C//DTD SVG 1.1//EN" "http://www.w3.org/Graphics/SVG/1.1/DTD/svg11.dtd">
<svg width="100%" height="100%" viewBox="0 0 32 32" version="1.1" xmlns="http://www.w3.org/2000/svg" xmlns:xlink="http://www.w3.org/1999/xlink" xml:space="preserve" xmlns:serif="http://www.serif.com/" style="fill-rule:evenodd;clip-rule:evenodd;stroke-linejoin:round;stroke-miterlimit:2;">
    <g id="Cut">
        <path d="M14.703,15.096L6.215,4.719C5.865,4.291 5.928,3.661 6.356,3.311C6.783,2.962 7.413,3.025 7.763,3.452L20.821,19.417C21.48,19.096 22.22,18.917 23.001,18.917C25.76,18.917 28,21.157 28,23.916C28,26.675 25.76,28.915 23.001,28.915C20.242,28.915 18.002,26.675 18.002,23.916C18.002,22.66 18.466,21.512 19.232,20.633L15.994,16.675L12.722,20.676C13.509,21.56 13.987,22.724 13.987,23.999C13.987,26.758 11.747,28.998 8.988,28.998C6.229,28.998 3.989,26.758 3.989,23.999C3.989,21.24 6.229,19 8.988,19C9.75,19 10.473,19.171 11.119,19.477L14.703,15.096ZM8.991,20.8C7.28,20.8 5.891,22.189 5.891,23.9C5.891,25.611 7.28,27 8.991,27C10.702,27 12.091,25.611 12.091,23.9C12.091,22.189 10.702,20.8 8.991,20.8ZM23,20.8C21.289,20.8 19.9,22.189 19.9,23.9C19.9,25.611 21.289,27 23,27C24.711,27 26.1,25.611 26.1,23.9C26.1,22.189 24.711,20.8 23,20.8ZM17.277,11.948L18.569,13.527L25.774,4.719C26.123,4.291 26.06,3.661 25.633,3.311C25.206,2.962 24.575,3.025 24.226,3.452L17.277,11.948Z" style="fill-rule:nonzero;"/>
    </g>
</svg>
