<!-- Generated by IcoMoon.io -->
<svg version="1.1" xmlns="http://www.w3.org/2000/svg" width="32" height="32" viewBox="0 0 32 32">
<title>loading</title>
<path d="M17 29h-2v-8h2v8zM13.414 20l-6.414 6.414-1.414-1.414 6.414-6.414c0.472 0.472 0.942 0.942 1.414 1.414zM26.414 25l-1.414 1.414-6.414-6.414 1.414-1.414c2.138 2.138 4.276 4.276 6.414 6.414zM29 17h-8v-2h8v2zM11 17h-8v-2h8v2zM13.414 12l-1.414 1.414-6.414-6.414 1.414-1.414c2.138 2.138 4.276 4.276 6.414 6.414zM26.414 7l-6.414 6.414-1.414-1.414 6.414-6.414c0.472 0.472 0.942 0.942 1.414 1.414zM17 11h-2v-8h2v8z"></path>
</svg>
