<svg width="400" height="150" xmlns="http://www.w3.org/2000/svg"><g fill="none" fill-rule="evenodd"><path d="M202.375 46.083l22.664 13.084a3.75 3.75 0 0 1 1.875 3.248v26.17a3.75 3.75 0 0 1-1.875 3.248l-22.664 13.084a3.75 3.75 0 0 1-3.75 0l-22.664-13.084a3.75 3.75 0 0 1-1.875-3.248v-26.17a3.75 3.75 0 0 1 1.875-3.248l22.664-13.084a3.75 3.75 0 0 1 3.75 0z" stroke-opacity=".2" stroke="#9B9B9B" stroke-width=".5" stroke-linecap="square"/><path d="M205.81 40.63l25.642 17.954a4.5 4.5 0 0 1 1.902 4.079l-2.729 31.184a4.5 4.5 0 0 1-2.58 3.687l-28.372 13.23a4.5 4.5 0 0 1-4.482-.393l-25.643-17.955a4.5 4.5 0 0 1-1.902-4.079l2.729-31.184a4.5 4.5 0 0 1 2.58-3.687l28.372-13.23a4.5 4.5 0 0 1 4.482.393z" stroke-opacity=".2" stroke="#9B9B9B" stroke-width=".6" stroke-linecap="square"/><path d="M296.875 110.033l6.685 3.86a3.75 3.75 0 0 1 1.875 3.247v7.72a3.75 3.75 0 0 1-1.875 3.247l-6.685 3.86a3.75 3.75 0 0 1-3.75 0l-6.685-3.86a3.75 3.75 0 0 1-1.875-3.247v-7.72a3.75 3.75 0 0 1 1.875-3.247l6.685-3.86a3.75 3.75 0 0 1 3.75 0z" stroke-opacity=".2" stroke="#9B9B9B" stroke-width=".5" stroke-linecap="square"/><path d="M298.385 108.125l7.556 5.29a4.5 4.5 0 0 1 1.901 4.08l-.804 9.188a4.5 4.5 0 0 1-2.58 3.686l-8.36 3.898a4.5 4.5 0 0 1-4.483-.392l-7.556-5.29a4.5 4.5 0 0 1-1.901-4.08l.804-9.188a4.5 4.5 0 0 1 2.58-3.686l8.36-3.898a4.5 4.5 0 0 1 4.483.392z" stroke-opacity=".2" stroke="#9B9B9B" stroke-width=".6" stroke-linecap="square"/><path d="M392.875-16.634L434.778 7.56a3.75 3.75 0 0 1 1.875 3.248v48.386a3.75 3.75 0 0 1-1.875 3.248l-41.903 24.193a3.75 3.75 0 0 1-3.75 0L347.222 62.44a3.75 3.75 0 0 1-1.875-3.248V10.807a3.75 3.75 0 0 1 1.875-3.248l41.903-24.193a3.75 3.75 0 0 1 3.75 0z" stroke-opacity=".2" stroke="#9B9B9B" stroke-width=".5" stroke-linecap="square"/><path d="M398.627-26.356l47.42 33.204a4.5 4.5 0 0 1 1.902 4.079l-5.045 57.67a4.5 4.5 0 0 1-2.581 3.686l-52.467 24.465a4.5 4.5 0 0 1-4.483-.392l-47.42-33.204a4.5 4.5 0 0 1-1.902-4.079l5.045-57.67a4.5 4.5 0 0 1 2.581-3.686l52.467-24.465a4.5 4.5 0 0 1 4.483.392z" stroke-opacity=".2" stroke="#9B9B9B" stroke-width=".6" stroke-linecap="square"/><path d="M-8.125 24.366L33.778 48.56a3.75 3.75 0 0 1 1.875 3.248v48.386a3.75 3.75 0 0 1-1.875 3.248l-41.903 24.193a3.75 3.75 0 0 1-3.75 0l-41.903-24.193a3.75 3.75 0 0 1-1.875-3.248V51.807a3.75 3.75 0 0 1 1.875-3.248l41.903-24.193a3.75 3.75 0 0 1 3.75 0z" stroke-opacity=".2" stroke="#9B9B9B" stroke-width=".5" stroke-linecap="square"/><path d="M-2.373 14.644l47.42 33.204a4.5 4.5 0 0 1 1.902 4.079l-5.045 57.67a4.5 4.5 0 0 1-2.581 3.686l-52.467 24.465a4.5 4.5 0 0 1-4.483-.392l-47.42-33.204a4.5 4.5 0 0 1-1.902-4.079l5.045-57.67a4.5 4.5 0 0 1 2.581-3.686l52.467-24.465a4.5 4.5 0 0 1 4.483.392z" stroke-opacity=".2" stroke="#9B9B9B" stroke-width=".6" stroke-linecap="square"/><path d="M319.675 48.538l3.996 13.936a3.75 3.75 0 0 1-.907 3.638l-10.07 10.428a3.75 3.75 0 0 1-3.605 1.034l-14.067-3.507a3.75 3.75 0 0 1-2.697-2.605l-3.996-13.936a3.75 3.75 0 0 1 .907-3.638l10.07-10.428a3.75 3.75 0 0 1 3.605-1.034l14.067 3.507a3.75 3.75 0 0 1 2.697 2.605z" stroke-opacity=".2" stroke="#9B9B9B" stroke-width=".5" stroke-linecap="square"/><path d="M323.5 47.769l3.308 17.016a4.5 4.5 0 0 1-1.465 4.255L312.26 80.412a4.5 4.5 0 0 1-4.417.86l-16.39-5.645a4.5 4.5 0 0 1-2.953-3.396l-3.308-17.016a4.5 4.5 0 0 1 1.465-4.255l13.083-11.372a4.5 4.5 0 0 1 4.417-.86l16.39 5.645a4.5 4.5 0 0 1 2.953 3.396z" stroke-opacity=".2" stroke="#9B9B9B" stroke-width=".6" stroke-linecap="square"/><path d="M138.025 93.888l3.996 13.935a3.75 3.75 0 0 1-.907 3.64l-10.07 10.427a3.75 3.75 0 0 1-3.605 1.034l-14.067-3.507a3.75 3.75 0 0 1-2.697-2.605l-3.996-13.936a3.75 3.75 0 0 1 .907-3.638l10.07-10.428a3.75 3.75 0 0 1 3.605-1.034l14.067 3.507a3.75 3.75 0 0 1 2.697 2.605z" stroke-opacity=".2" stroke="#9B9B9B" stroke-width=".5" stroke-linecap="square"/><path d="M141.85 93.119l3.308 17.016a4.5 4.5 0 0 1-1.465 4.255l-13.083 11.372a4.5 4.5 0 0 1-4.417.859l-16.39-5.644a4.5 4.5 0 0 1-2.953-3.396l-3.308-17.016a4.5 4.5 0 0 1 1.465-4.255l13.083-11.372a4.5 4.5 0 0 1 4.417-.86l16.39 5.645a4.5 4.5 0 0 1 2.953 3.396z" stroke-opacity=".2" stroke="#9B9B9B" stroke-width=".6" stroke-linecap="square"/><rect stroke="#0084E7" x=".5" y=".5" width="399" height="149" rx="8"/></g></svg>