<?xml version="1.0" encoding="UTF-8"?>
<svg width="1007px" height="251px" viewBox="0 0 1007 251" version="1.1" xmlns="http://www.w3.org/2000/svg" xmlns:xlink="http://www.w3.org/1999/xlink">
    <!-- Generator: Sketch 48.2 (47327) - http://www.bohemiancoding.com/sketch -->
    <title>full</title>
    <desc>Created with Sketch.</desc>
    <defs></defs>
    <g id="Page-1" stroke="none" stroke-width="1" fill="none" fill-rule="evenodd">
        <g id="cover">
            <g id="cover-react-grid">
                <rect id="Rectangle" fill="#1B4DAA" fill-rule="nonzero" x="0" y="0" width="1007" height="251"></rect>
                <g id="The-Best-React-Grid" transform="translate(607.000000, 90.000000)" fill="#FFFFFF" font-family="Roboto-Regular, Roboto" font-size="36" font-weight="normal">
                    <text>
                        <tspan x="0" y="33">The Best React Grid</tspan>
                    </text>
                </g>
                <g id="react" transform="translate(75.000000, 11.000000)" fill="#FBFBFB" fill-opacity="0.897843071" fill-rule="nonzero">
                    <path d="M212.127782,72.6025881 C209.451352,71.7036202 206.678022,70.8530511 203.82249,70.0486406 C204.29183,68.1794501 204.722593,66.3344592 205.105597,64.5208381 C211.392545,34.7406155 207.281919,10.7494605 193.245354,2.85055151 C179.786049,-4.7234563 157.774384,3.17366022 135.543662,22.0528864 C133.405915,23.8683 131.262198,25.7903709 129.119403,27.8047584 C127.691635,26.4719912 126.266165,25.184038 124.844369,23.9521022 C101.545923,3.76520444 78.1928262,-4.74183004 64.1700388,3.17993418 C50.723593,10.7759009 46.7415532,33.329872 52.400725,61.5528094 C52.9472165,64.2788428 53.5860143,67.0626862 54.3083935,69.8931361 C51.0032683,70.8086852 47.8124929,71.7847333 44.7594884,72.8230729 C17.4445589,82.1161445 0,96.6806821 0,111.787917 C0,127.390796 18.7267471,143.040726 47.1773686,152.530082 C49.422576,153.278925 51.752283,153.986985 54.1531716,154.659194 C53.3738472,157.720437 52.6960141,160.720282 52.1270199,163.646187 C46.7309908,191.379308 50.9449452,213.40044 64.3555703,220.948456 C78.2075218,228.743398 101.454993,220.731109 124.09214,201.421669 C125.881325,199.895305 127.67694,198.276625 129.475769,196.579969 C131.807314,198.770923 134.135183,200.844464 136.450654,202.78939 C158.377361,221.202103 180.033578,228.637189 193.431804,221.068111 C207.269978,213.250761 211.767282,189.594815 205.928548,160.813497 C205.482629,158.615372 204.963691,156.369743 204.380921,154.084232 C206.013507,153.613236 207.616242,153.127006 209.179025,152.621504 C238.756154,143.058653 258,127.599179 258,111.787917 C258,96.6260094 239.992876,81.9633289 212.127782,72.6025881 Z M205.712708,142.412435 C204.301933,142.868192 202.854419,143.308714 201.379351,143.735791 C198.11418,133.648617 193.707347,122.922395 188.314532,111.840349 C193.460737,101.022258 197.697192,90.4331678 200.870977,80.4114211 C203.510209,81.1566773 206.07183,81.9427144 208.540227,82.7722209 C232.415015,90.7925756 246.978323,102.650799 246.978323,111.787917 C246.978323,121.520614 231.250391,134.155014 205.712708,142.412435 Z M195.116284,162.902275 C197.69811,175.628992 198.066878,187.135425 196.356681,196.130484 C194.820076,204.21313 191.729873,209.602008 187.909025,211.76025 C179.778242,216.352784 162.39063,210.383117 143.638624,194.636386 C141.488937,192.83128 139.323638,190.903831 137.151448,188.863899 C144.421163,181.105257 151.686744,172.085552 158.777816,162.068287 C171.25022,160.988271 183.033772,159.2226 193.719745,156.812057 C194.24603,158.883807 194.713533,160.915672 195.116284,162.902275 Z M87.9580318,210.966595 C80.0141582,213.70428 73.6872566,213.782703 69.8627347,211.630738 C61.7246042,207.050302 58.3414087,189.369401 62.9562765,165.65206 C63.4848579,162.935885 64.114012,160.145768 64.8391463,157.293808 C75.4080157,159.57439 87.1052295,161.215477 99.6074844,162.204521 C106.746317,172.006681 114.221769,181.016527 121.755085,188.905576 C120.109181,190.456139 118.469705,191.932313 116.839417,193.323337 C106.829438,201.861742 96.7983352,207.919693 87.9580318,210.966595 Z M50.7419626,142.352832 C38.1616372,138.156901 27.7723292,132.703491 20.6509482,126.752644 C14.2519466,121.404994 11.0212175,116.095884 11.0212175,111.787917 C11.0212175,102.620324 25.0274726,90.9270175 48.387457,82.9792613 C51.2218648,82.0148648 54.188992,81.1060377 57.268173,80.2523317 C60.4966058,90.5003886 64.731685,101.214959 69.8425284,112.04963 C64.665555,123.045184 60.3703157,133.930497 57.1101956,144.298653 C54.915045,143.68291 52.7883207,143.0349 50.7419626,142.352832 Z M63.2171231,59.4873338 C58.3685036,35.3066159 61.5886702,17.0655405 69.6918988,12.4882424 C78.3232494,7.61203505 97.4095783,14.5644731 117.525976,31.994864 C118.811838,33.1089391 120.102752,34.2749983 121.397339,35.4813903 C113.901222,43.3359336 106.494196,52.2781117 99.4187393,62.0224596 C87.2847909,63.1199537 75.6697806,64.882935 64.9906945,67.2437345 C64.3192905,64.6082253 63.7245793,62.0188746 63.2171231,59.4873338 Z M174.506666,86.3035609 C171.953771,82.0005242 169.332908,77.7992153 166.66107,73.7126301 C174.892885,74.7281144 182.779812,76.0761184 190.186379,77.7257205 C187.962755,84.6799511 185.191264,91.9510167 181.928847,99.4049232 C179.588578,95.0691721 177.113293,90.6975701 174.506666,86.3035609 Z M129.123075,43.1678812 C134.206824,48.5424199 139.29792,54.5430093 144.305436,61.0535818 C139.259344,60.8209973 134.150796,60.6999996 129.000001,60.6999996 C123.897882,60.6999996 118.826993,60.8183086 113.81213,61.0468598 C118.824697,54.596786 123.95988,48.6042629 129.123075,43.1678812 Z M83.4487882,86.3779521 C80.8986478,90.6930887 78.4692866,95.0409394 76.1657562,99.3968568 C72.956152,91.9689422 70.2103768,84.6647144 67.9674656,77.6118929 C75.3285679,76.0044161 83.1782979,74.6900227 91.3577598,73.6938082 C88.6482643,77.8180371 86.0058172,82.0502678 83.4487882,86.3770559 L83.4487882,86.3779521 Z M91.593348,150.64924 C83.1424775,149.72921 75.1747237,148.482487 67.8154582,146.919374 C70.0941901,139.740625 72.9005844,132.280446 76.1781555,124.692545 C78.487656,129.045326 80.9266613,133.394969 83.4924157,137.719517 L83.4928749,137.719517 C86.1063901,142.125178 88.8140486,146.440761 91.593348,150.64924 Z M129.428009,181.166205 C124.204193,175.666187 118.993696,169.582245 113.904896,163.038062 C118.844902,163.227176 123.88135,163.323975 129.000001,163.323975 C134.258718,163.323975 139.457276,163.208355 144.57409,162.986077 C139.55004,169.648122 134.477314,175.741475 129.428009,181.166205 Z M182.034012,124.305802 C185.482419,131.975711 188.389387,139.396903 190.697509,146.45331 C183.217006,148.118596 175.140414,149.459879 166.630761,150.456542 C169.309028,146.314834 171.952851,142.041374 174.550752,137.645573 C177.178964,133.198236 179.674455,128.744177 182.034012,124.305802 Z M165.003684,132.27238 C160.970669,139.096201 156.830193,145.610358 152.626801,151.759284 C144.970868,152.293465 137.061438,152.568623 129.000001,152.568623 C120.971168,152.568623 113.161391,152.325283 105.640935,151.848911 C101.268084,145.619322 97.0375974,139.085895 93.0302992,132.331085 L93.0312177,132.331085 C89.034482,125.594651 85.3559976,118.801302 82.0228589,112.046047 C85.3550791,105.275104 89.0239196,98.4741373 92.9976933,91.7498019 L92.9967749,91.7511463 C96.9811108,85.0088856 101.1744,78.5072759 105.506837,72.316675 C113.179761,71.7506749 121.04786,71.4553509 128.999542,71.4553509 L129.000001,71.4553509 C136.987501,71.4553509 144.865704,71.7529154 152.536332,72.3238454 C156.802638,78.4691841 160.967455,84.9497311 164.967405,91.6928882 C169.012821,98.5117812 172.728962,105.267485 176.089654,111.893231 C172.739066,118.632802 169.031191,125.456625 165.003684,132.27238 Z M187.740026,12.1682707 C196.379644,17.0301375 199.739416,36.6380387 194.311241,62.3500498 C193.964977,63.990689 193.575086,65.6618017 193.151669,67.3553212 C182.447784,64.9452264 170.824507,63.1517717 158.6552,62.0376964 C151.565965,52.186243 144.219558,43.2301726 136.845597,35.4764606 C138.828121,33.615337 140.80789,31.8407039 142.779392,30.1660063 C161.826687,13.9904064 179.628991,7.60396853 187.740026,12.1682707 Z M129.000001,89.3060964 C141.723607,89.3060964 152.038519,99.3713124 152.038519,111.787917 C152.038519,124.204072 141.723607,134.269738 129.000001,134.269738 C116.276394,134.269738 105.961482,124.204072 105.961482,111.787917 C105.961482,99.3713124 116.276394,89.3060964 129.000001,89.3060964 Z" id="Shape"></path>
                </g>
                <ellipse id="Oval-2" fill="#1B4DAA" fill-rule="nonzero" cx="204" cy="122.5" rx="27" ry="25.5"></ellipse>
                <g id="misc" opacity="0.351958786" transform="translate(0.000000, 17.000000)">
                    <g id="Group" transform="translate(23.500000, 47.000000) scale(-1, 1) rotate(7.000000) translate(-23.500000, -47.000000) translate(6.000000, 2.000000)">
                        <path d="M1.00961538,0.391304348 L27.2596154,0.391304348 L27.2596154,15.2608696 L1.00961538,15.2608696 L1.00961538,0.391304348 Z M1.00961538,15.2608696 L27.2596154,15.2608696 L27.2596154,30.1304348 L1.00961538,30.1304348 L1.00961538,15.2608696 Z M0.435480769,39.5624348 L26.6854808,39.5624348 L26.6854808,54.432 L0.435480769,54.432 L0.435480769,39.5624348 Z M1.24048077,59.3413043 L27.475,60.4064348 L27.02875,75.2673913 L0.794230769,74.2022609 L1.24048077,59.3413043 Z" id="Shape" stroke="#0084E7"></path>
                        <polygon id="Shape" stroke="#0084E7" points="1.00961538 74.7391304 27.2596154 74.7391304 27.2596154 89.6086957 1.00961538 89.6086957"></polygon>
                        <path d="M17.8365385,15.2608696 L30.6425,15.2608696 M15.1442308,0.391304348 L27.9501923,0.391304348 M15.1442308,59.8695652 L27.9501923,59.8695652" id="Shape" stroke="#0084E7" stroke-linecap="square"></path>
                        <ellipse id="Oval" stroke="#087FFF" cx="32.6442308" cy="14.4782609" rx="2.01923077" ry="2.34782609"></ellipse>
                    </g>
                </g>
                <g id="tree-data" opacity="0.272418478" transform="translate(327.000000, 64.000000)">
                    <path d="M0,34 L170,34 M4.28211587,60.6666667 L168.287154,60.6666667" id="Shape" stroke="#0084E7" stroke-linecap="square"></path>
                    <ellipse id="Oval" stroke="#0084E7" cx="173.5" cy="139" rx="2.5" ry="4"></ellipse>
                    <ellipse id="Oval" stroke="#0084E7" cx="174.5" cy="86" rx="2.5" ry="4"></ellipse>
                    <path d="M2,8 L142.025189,8 M31.9748111,113.123967 L143.309824,113.123967 M31.9748111,114.438017 L143.309824,113.123967 M4.56926952,139.404959 L170.287154,139.404959 M4.56926952,165.68595 L170.287154,165.68595 M30.2619647,86.8429752 L172,86.8429752" id="Shape" stroke="#0084E7" stroke-linecap="square"></path>
                    <path d="M12,151.5 L9,151.5 M10.5,149 L10.5,154" id="Shape" stroke="#8ABDE3" stroke-linecap="square"></path>
                    <g id="Group" stroke-linecap="square" transform="translate(43.000000, 122.000000)" stroke="#8ABDE3">
                        <path d="M3.6,3.5 L0.4,3.5 M2,0.7 L2,6.3" id="Shape"></path>
                    </g>
                    <g id="Group" stroke-linecap="square" transform="translate(43.000000, 96.000000)" stroke="#8ABDE3">
                        <path d="M3.6,3.5 L0.4,3.5 M2,0.7 L2,6.3" id="Shape"></path>
                    </g>
                    <g id="Group" stroke-linecap="square" transform="translate(43.000000, 70.000000)" stroke="#8ABDE3">
                        <path d="M3.6,3.5 L0.4,3.5 M2,0.7 L2,6.3" id="Shape"></path>
                    </g>
                    <path d="M12,47 L9,47" id="Shape" stroke="#8ABDE3" stroke-linecap="square"></path>
                    <path d="M128,2.62670885 L128,176 M127,0 L128,173.373291" id="Shape" stroke="#0084E7" stroke-linecap="square"></path>
                </g>
                <g id="range-selection" opacity="0.132472826" transform="translate(942.000000, 4.000000)">
                    <path d="M32,1 L47,1 L47,8.5 L32,8.5 L32,1 Z M32,8.5 L47,8.5 L47,16 L32,16 L32,8.5 Z" id="Shape" stroke="#0084E7"></path>
                    <polygon id="Shape" stroke="#0084E7" points="31.5269699 15 47 16.1294639 46.4730301 24 31 22.8705361"></polygon>
                    <polygon id="Shape" stroke="#0084E7" points="32 24 47 24 47 32 32 32"></polygon>
                    <polygon id="Shape" stroke="#0084E7" points="31 31.8744766 46.6018027 31 47 39.1255234 31.3981973 40"></polygon>
                    <path d="M31.8910256,39.3269231 L47.1410256,39.3269231 L47.1410256,47 L31.8910256,47 L31.8910256,39.3269231 Z M46.75,5 L62,5 L62,12.6730769 L46.75,12.6730769 L46.75,5 Z M46.75,12.6730769 L62,12.6730769 L62,20.3461538 L46.75,20.3461538 L46.75,12.6730769 Z M46.75,20.3461538 L62,20.3461538 L62,28.0192308 L46.75,28.0192308 L46.75,20.3461538 Z M46.75,28.0192308 L62,28.0192308 L62,35.6923077 L46.75,35.6923077 L46.75,28.0192308 Z M1,5.40384615 L16.25,5.40384615 L16.25,13.0769231 L1,13.0769231 L1,5.40384615 Z M1,13.0769231 L16.25,13.0769231 L16.25,20.75 L1,20.75 L1,13.0769231 Z M1,20.75 L16.25,20.75 L16.25,28.4230769 L1,28.4230769 L1,20.75 Z M1,28.4230769 L16.25,28.4230769 L16.25,36.0961538 L1,36.0961538 L1,28.4230769 Z M1,36.5 L16.25,36.5 L16.25,44.1730769 L1,44.1730769 L1,36.5 Z" id="Shape" stroke="#0084E7"></path>
                    <polygon id="Shape" stroke="#0084E7" points="46.2508829 35 61 35.5350369 60.7491171 43 46 42.4649631"></polygon>
                    <path d="M46.8706897,43.248 L62,43.248 L62,51 L46.8706897,51 L46.8706897,43.248 Z M17,0 L32.1293103,0 L32.1293103,7.752 L17,7.752 L17,0 Z M17,7.752 L32.1293103,7.752 L32.1293103,15.504 L17,15.504 L17,7.752 Z M17,15.504 L32.1293103,15.504 L32.1293103,23.256 L17,23.256 L17,15.504 Z" id="Shape" stroke="#0084E7"></path>
                    <circle id="Oval" stroke="#8ABDE3" cx="46.5" cy="31.5" r="1.5"></circle>
                    <polygon id="Shape" stroke="#0084E7" points="17 23 32 23 32 31 17 31"></polygon>
                    <polygon id="Shape" stroke="#0084E7" points="16.1266338 31 31 31.2764509 30.8733662 39 16 38.7235491"></polygon>
                    <polygon id="Shape" stroke="#0084E7" points="17 39 32 39 32 47 17 47"></polygon>
                    <polygon id="Shape" stroke="#8ABDE3" points="17 8 47 8 47 31 17 31"></polygon>
                    <polygon id="Shape" stroke="#8ABDE3" points="1 22 31 22 31 45 1 45"></polygon>
                    <path d="M55.6475654,12.6493506 L63,12.6493506 M54.1017997,5 L61.4542343,5 M0,5.4025974 L7.35243458,5.4025974 M54.1017997,35.5974026 L61.4542343,35.5974026" id="Shape" stroke="#0084E7" stroke-linecap="square"></path>
                    <circle id="Oval" stroke="#087FFF" cx="64" cy="12" r="1"></circle>
                </g>
                <g id="editing" opacity="0.252151268" transform="translate(666.000000, 148.000000)">
                    <path d="M10,46.4864865 L334.429799,46.4864865 M10,62.972973 L334.429799,62.972973 M28.1833811,79.4594595 L344,77.8108108 M264.567335,30 L264.567335,91" id="Shape" stroke="#0084E7" stroke-linecap="square"></path>
                    <path d="M131,5 L131,78" id="Shape" stroke="#087FFF" stroke-linecap="square"></path>
                    <path d="M30,15 L30,80" id="Shape" stroke="#0084E7" stroke-linecap="square"></path>
                    <polygon id="Shape" stroke="#8ABDE3" points="131 46 262 46 262 61 131 61"></polygon>
                    <path d="M261.129496,46.2 L262.086331,60.2 L264,59.4 M131.956835,45 L131,61" id="Shape" stroke="#8ABDE3" stroke-linecap="square"></path>
                    <g id="Group" stroke-linecap="square" transform="translate(137.000000, 48.000000)" stroke="#8ABDE3">
                        <path d="M1.5,1.25 L1.5,8.75 M2.5,0.416666667 L0.5,0.416666667 M2.5,8.75 L0.5,8.75" id="Shape"></path>
                    </g>
                    <polygon id="Shape" stroke="#8ABDE3" points="119.5 74 124 67 115 67"></polygon>
                    <path d="M120,74 L124,66 M123,66.8 L114,66.8" id="Shape" stroke="#8ABDE3" stroke-linecap="square"></path>
                    <path d="M5,67 C7.76142375,67 10,65.209139 10,63 C10,60.790861 7.76142375,59 5,59 C2.23857625,59 3.33066907e-16,60.790861 0,63 C-3.33066907e-16,65.209139 2.23857625,67 5,67 Z" id="Shape" stroke="#0084E7"></path>
                    <ellipse id="Oval" stroke="#087FFF" cx="131" cy="2.5" rx="3" ry="2.5"></ellipse>
                    <ellipse id="Oval" stroke="#0084E7" cx="265" cy="93.5" rx="3" ry="2.5"></ellipse>
                    <path d="M10,30 L335,30" id="Shape" stroke="#0084E7" stroke-linecap="square"></path>
                </g>
            </g>
        </g>
        <g id="full-logo" transform="translate(498.000000, 15.000000)" fill-rule="nonzero">
            <path d="M219.189189,25 L227,25 L227,69 L199.891892,69 C196.085605,69 193,65.9219578 193,62.1249999 L193,43.7916667 C193,39.994709 196.085605,36.9166667 199.891892,36.9166667 L219.189189,36.9166667 L219.189189,25 Z M202.189189,44.7083333 C201.427932,44.7083333 200.810811,45.3239418 200.810811,46.0833333 L200.810811,59.8333333 C200.810811,60.5927247 201.427932,61.208333 202.189189,61.208333 L219.189189,61.208333 L219.189189,44.7083333 L202.189189,44.7083333 Z" id="d" fill="#FFFFFF"></path>
            <g id="i" transform="translate(181.000000, 25.000000)">
                <polygon id="Path-6" fill="#FFFFFF" points="0 11.9005848 7.83556523 11.9005848 7.83556523 43.9406208 0 43.9406208"></polygon>
                <polygon id="Path-7" fill="#E11F22" points="0 1.13686838e-13 7.83556523 1.13686838e-13 7.83556523 7.78115158 0 7.78115158"></polygon>
            </g>
            <path d="M153,69 L160.913793,69 L160.913793,46.1428572 C160.913793,45.3854381 161.53905,44.7714286 162.310345,44.7714286 L180,44.7714286 L180,37 L159.982759,37 C156.126287,37 153,40.0700474 153,43.8571428 L153,69 Z" id="r" fill="#FFFFFF"></path>
            <path d="M149,39.6666667 L149,35 C149,31.1340068 145.865993,28 142,28 L114,28 C110.134007,28 107,31.1340068 107,35 L107,62.9999999 C107,66.8659934 110.134007,70 114,70 L142,70 C145.865993,70 149,66.8659934 149,62.9999999 L149,46.2 L131.733333,46.2 L131.733333,54.1333333 L141.066666,54.1333333 L141.066666,60.6666667 C141.066666,61.4398652 140.439865,62.0666664 139.666667,62.0666664 L116.333333,62.0666664 C115.560134,62.0666664 114.933333,61.4398652 114.933333,60.6666667 L114.933333,37.3333333 C114.933333,36.5601347 115.560134,35.9333333 116.333333,35.9333333 L139.666667,35.9333333 C140.439865,35.9333333 141.066666,36.5601347 141.066666,37.3333333 L141.066666,39.6666667 L149,39.6666667 Z" id="G" fill="#FFFFFF"></path>
            <g id="ag" fill="#E11F22">
                <g id="Combined-Shape">
                    <g id="path-1-link">
                        <path d="M0.282916234,49.7093615 L0.282916234,31.0497732 C0.282916234,28.5831837 1.60273843,26.303961 3.74521858,25.0706663 L45.3822088,1.10279831 C47.5246888,-0.130496444 50.1643334,-0.130496444 52.3068134,1.10279831 L93.9438034,25.0706663 C96.0862837,26.303961 97.4061058,28.5831837 97.4061058,31.0497732 L97.4061058,63.5175175 L83.5568968,63.5175175 L83.5555304,43.2655553 L83.555065,43.2655553 C83.5548074,39.4527196 80.4546316,36.3619417 76.6304602,36.3619417 L56.3201181,36.3614773 C52.4957647,36.3614773 49.3955135,39.4525383 49.3955135,43.2655553 L49.3955135,62.6041648 C49.3955135,66.4171821 52.4957647,69.5082423 56.3201181,69.5082423 L77.5555728,69.5082423 L77.5555728,75.024314 C77.5555728,75.7869175 76.9355219,76.4051298 76.1706516,76.4051298 L55.3968375,76.4051298 L55.3968375,82.388664 L76.6304602,82.388664 L76.6304602,82.3876869 C80.4544307,82.3876869 83.5545239,79.2972216 83.555065,75.4845859 L83.5568968,69.4828956 L97.4061058,69.4828956 L97.4061058,78.9855092 C97.4061058,81.4520988 96.0862837,83.7313209 93.9438034,84.9646158 L52.3068134,108.932484 C50.1643334,110.165779 47.5246888,110.165779 45.3822088,108.932484 L3.74521858,84.9646158 C1.60273843,83.7313209 0.282916234,81.4520988 0.282916234,78.9855092 L0.282916234,55.6928958 L12.4642885,55.6928958 L12.4642885,62.5969736 C12.4642885,66.4099909 15.5645395,69.5010517 19.3888931,69.5010517 L46.1640313,69.5010517 L46.1640313,43.2655554 C46.1640313,39.4525384 43.0637801,36.3614774 39.2394266,36.3614774 L12.4642885,36.3614774 L12.4642885,42.3450117 L38.7777863,42.3450117 C39.5426569,42.3450117 40.1627072,42.9632239 40.1627072,43.7258273 L40.1627072,49.7093615 L0.282916234,49.7093615 Z" id="path-1"></path>
                    </g>
                </g>
                <rect id="g" x="55.3968375" y="42.3450117" width="22.158735" height="21.1725058" rx="3"></rect>
                <path d="M18.4656125,55.6928958 L40.1627072,55.6928958 L40.1627072,63.5175175 L19.8505334,63.5175175 C19.0856628,63.5175175 18.4656125,62.8993053 18.4656125,62.1367017 L18.4656125,55.6928958 Z" id="Combined-Shape"></path>
            </g>
        </g>
        <g id="simple-logo" transform="translate(174.000000, 91.000000)" fill="#E11F22" fill-rule="nonzero">
            <g id="Combined-Shape">
                <g id="path-1-link">
                    <path d="M0.174270123,30.7109005 L0.174270123,19.1828353 C0.174270123,17.6589536 0.987251312,16.2508289 2.30697154,15.4888881 L27.9544336,0.68131893 C29.2741538,-0.0806219027 30.9001163,-0.0806219027 32.2198365,0.68131893 L57.8672986,15.4888881 C59.1870188,16.2508289 60,17.6589536 60,19.1828353 L60,39.2417062 L51.4691943,39.2417062 L51.4683529,26.7298578 L51.468066,26.7298578 C51.4679076,24.3742529 49.558268,22.4647418 47.2026631,22.4647418 L34.6919431,22.4644549 C32.3362263,22.4644549 30.4265403,24.3741408 30.4265403,26.7298578 L30.4265403,38.6774283 C30.4265403,41.0331455 32.3362263,42.9428312 34.6919431,42.9428312 L47.7725118,42.9428312 L47.7725118,46.3507109 C47.7725118,46.8218542 47.3905746,47.2037915 46.9194313,47.2037915 L34.1232227,47.2037915 L34.1232227,50.9004739 L47.2026631,50.9004739 L47.2026631,50.8998702 C49.5581443,50.8998702 51.4677327,48.9905522 51.468066,46.6350711 L51.4691943,42.9271718 L60,42.9271718 L60,48.7979736 C60,50.3218553 59.1870188,51.7299799 57.8672986,52.4919208 L32.2198365,67.29949 C30.9001163,68.0614308 29.2741538,68.0614308 27.9544336,67.29949 L2.30697154,52.4919208 C0.987251312,51.7299799 0.174270123,50.3218553 0.174270123,48.7979736 L0.174270123,34.4075829 L7.67772512,34.4075829 L7.67772512,38.6729858 C7.67772512,41.0287027 9.587411,42.9383886 11.943128,42.9383886 L28.436019,42.9383886 L28.436019,26.7298578 C28.436019,24.3741409 26.526333,22.464455 24.1706161,22.464455 L7.67772512,22.464455 L7.67772512,26.1611374 L23.8862559,26.1611374 C24.3573993,26.1611374 24.7393365,26.5430746 24.7393365,27.014218 L24.7393365,30.7109005 L0.174270123,30.7109005 Z" id="path-1"></path>
                </g>
            </g>
            <rect id="g" x="34.1232227" y="26.1611374" width="13.6492891" height="13.0805687" rx="3"></rect>
            <path d="M11.3744076,34.4075829 L24.7393365,34.4075829 L24.7393365,39.2417062 L12.2274882,39.2417062 C11.7563448,39.2417062 11.3744076,38.8597689 11.3744076,38.3886256 L11.3744076,34.4075829 Z" id="Combined-Shape"></path>
        </g>
    </g>
</svg>