<?xml version="1.0" encoding="UTF-8"?>
<svg width="1007px" height="251px" viewBox="0 0 1007 251" version="1.1" xmlns="http://www.w3.org/2000/svg" xmlns:xlink="http://www.w3.org/1999/xlink">
    <!-- Generator: Sketch 48.2 (47327) - http://www.bohemiancoding.com/sketch -->
    <title>cover-react-grid</title>
    <desc>Created with Sketch.</desc>
    <defs></defs>
    <g id="Page-1" stroke="none" stroke-width="1" fill="none" fill-rule="evenodd">
        <g id="cover-react-grid" transform="translate(-1.000000, 0.000000)">
            <rect id="Rectangle" fill="#1B4DAA" fill-rule="nonzero" x="0" y="0" width="1007" height="251"></rect>
            <text id="The-Best-React-Grid" fill="#FFFFFF" font-family="Roboto-Light, Roboto" font-size="36" font-weight="300">
                <tspan x="608" y="154">The Best React Grid</tspan>
            </text>
            <g id="react" transform="translate(75.000000, 11.000000)" fill="#FBFBFB" fill-opacity="0.897843071" fill-rule="nonzero">
                <path d="M206.372377,70.9819946 C203.768563,70.1030929 201.070479,69.2715097 198.292422,68.4850548 C198.749028,66.6575873 199.168104,64.8537793 199.540716,63.0806408 C205.657088,33.9651553 201.657991,10.5095172 188.002263,2.78692313 C174.908133,-4.618022 153.493684,3.10281959 131.866121,21.5606345 C129.786375,23.3355254 127.700821,25.214693 125.616163,27.1841165 C124.227133,25.8810985 122.840339,24.6218943 121.457119,23.417457 C98.7908008,3.6811597 76.0713154,-4.63598562 62.4289912,3.10895351 C49.3473715,10.5353674 45.4733715,32.5859016 50.9789999,60.1788627 C51.5106641,62.8440472 52.1321302,65.5657512 52.83491,68.3330214 C49.6194587,69.2281341 46.5152547,70.1823955 43.5450837,71.1975578 C16.9712569,80.2831948 0,94.5226311 0,109.292651 C0,124.547251 18.2186571,139.847853 45.8973625,149.125393 C48.0816534,149.85752 50.3481513,150.549775 52.6838995,151.20698 C51.9257196,154.199891 51.2662773,157.132776 50.7127209,159.99337 C45.4630957,187.107448 49.562718,208.637037 62.6094889,216.016571 C76.0856123,223.637518 98.702338,215.804075 120.725299,196.925649 C122.46594,195.433356 124.212837,193.850807 125.962861,192.192023 C128.231147,194.334072 130.495856,196.361329 132.748504,198.262841 C154.080301,216.264556 175.148946,223.53368 188.183654,216.133555 C201.646374,208.490699 206.021658,185.362788 200.341339,157.22391 C199.907519,155.07485 199.402661,152.879347 198.835702,150.644852 C200.423993,150.184369 201.983243,149.708992 203.503625,149.214774 C232.278274,139.865379 251,124.750983 251,109.292651 C251,94.4691788 233.481441,80.1337903 206.372377,70.9819946 Z M200.131355,139.233586 C198.758857,139.67917 197.350617,140.109859 195.91557,140.527403 C192.738989,130.665389 188.451721,120.178591 183.205223,109.343913 C188.211802,98.7672972 192.333315,88.4145702 195.420989,78.6165233 C197.988614,79.3451443 200.480734,80.1136359 202.882159,80.9246266 C226.109181,88.7659556 240.277361,100.359486 240.277361,109.292651 C240.277361,118.8081 224.976156,131.160482 200.131355,139.233586 Z M189.822431,159.266063 C192.334208,171.708702 192.69297,182.958295 191.029174,191.752571 C189.53426,199.654801 186.5279,204.923392 182.810718,207.033459 C174.900538,211.523481 157.984683,205.687065 139.741452,190.291824 C137.65009,188.52701 135.543539,186.642585 133.430285,184.648187 C140.502759,177.062729 147.571212,168.244357 154.469891,158.450691 C166.603896,157.394783 178.067739,155.668524 188.463783,153.311788 C188.975789,155.337293 189.430608,157.323804 189.822431,159.266063 Z M85.5715736,206.257519 C77.8432314,208.934095 71.6879899,209.010768 67.9672341,206.906837 C60.0499056,202.428643 56.7585023,185.142405 61.2481605,161.954469 C61.7624005,159.298923 62.3744845,156.571086 63.0799447,153.782785 C73.3620618,156.012462 84.7419093,157.616917 96.9049558,158.583884 C103.850099,168.167246 111.122729,176.975979 118.451652,184.688934 C116.850405,186.204886 115.255411,187.648109 113.669355,189.008084 C103.930965,197.355899 94.1720238,203.278628 85.5715736,206.257519 Z M49.3652427,139.175313 C37.1262439,135.073042 27.0188164,129.741359 20.0906512,123.923344 C13.8652659,118.695061 10.7221922,113.504458 10.7221922,109.292651 C10.7221922,100.329692 24.3484326,88.8973965 47.074619,81.1270456 C49.8321243,80.1841758 52.718748,79.295635 55.7143854,78.460985 C58.855225,88.4802906 62.975399,98.955696 67.9475761,109.548522 C62.9110632,120.29864 58.7323614,130.940977 55.5606942,141.077701 C53.4251019,140.475702 51.3560794,139.842157 49.3652427,139.175313 Z M61.5019298,58.1594915 C56.784862,34.5185218 59.9176598,16.6846132 67.8010333,12.209487 C76.1982,7.44212355 94.7666828,14.2393732 114.337287,31.2806929 C115.588261,32.3699003 116.84415,33.5099314 118.103613,34.689395 C110.810879,42.3686136 103.604819,51.1111895 96.7213316,60.6380297 C84.9165989,61.7110261 73.6167245,63.4346552 63.2273811,65.7427582 C62.5741935,63.1660774 61.9956178,60.6345247 61.5019298,58.1594915 Z M169.771989,84.3771421 C167.288359,80.1701553 164.738604,76.0626256 162.139258,72.0672588 C170.147729,73.0600761 177.82067,74.3779907 185.026283,75.9907713 C182.86299,82.7897736 180.166695,89.8985386 176.992793,97.1860632 C174.71602,92.9470923 172.307894,88.6730707 169.771989,84.3771421 Z M125.619736,42.2043124 C130.565554,47.4588837 135.518519,53.3255314 140.390172,59.6907786 C135.48099,59.4633857 130.511046,59.3450889 125.500001,59.3450889 C120.536312,59.3450889 115.603005,59.460757 110.724204,59.6842066 C115.600771,53.3781077 120.596627,47.5193463 125.619736,42.2043124 Z M81.1846738,84.4498728 C78.7037232,88.6686893 76.3402749,92.9194898 74.0992434,97.1781769 C70.9767215,89.916064 68.3054441,82.774877 66.1233871,75.8794845 C73.2847695,74.3078889 80.9215224,73.0228346 88.8790609,72.0488571 C86.2430788,76.0810273 83.672326,80.2187886 81.1846738,84.4489966 L81.1846738,84.4498728 Z M89.1082572,147.286534 C80.8866738,146.38704 73.1350994,145.168146 65.9755039,143.639924 C68.1924097,136.621415 70.9226616,129.327757 74.1113063,121.909229 C76.358146,126.16485 78.7309767,130.417403 81.2271176,134.645421 L81.2275643,134.645421 C83.7701702,138.952741 86.4043651,143.171994 89.1082572,147.286534 Z M125.916396,177.122316 C120.834312,171.745067 115.765185,165.796927 110.814453,159.398819 C115.620428,159.583712 120.520228,159.67835 125.500001,159.67835 C130.61604,159.67835 135.673551,159.565311 140.651537,159.347995 C135.763799,165.861333 130.828705,171.818674 125.916396,177.122316 Z M177.095105,121.531119 C180.44995,129.029825 183.278047,136.285365 185.523546,143.184263 C178.246002,144.812377 170.388542,146.123721 162.109771,147.098137 C164.715372,143.048878 167.287464,138.870808 169.814879,134.573127 C172.371783,130.225061 174.799567,125.870423 177.095105,121.531119 Z M160.52684,129.319871 C156.603248,135.991375 152.57511,142.360127 148.485764,148.3718 C141.03755,148.894057 133.342717,149.163073 125.500001,149.163073 C117.689005,149.163073 110.091121,148.925165 102.774708,148.459426 C98.5205002,142.368891 94.4047944,135.981299 90.5062213,129.377266 L90.5071149,129.377266 C86.6188178,122.791199 83.0401372,116.149487 79.7974325,109.545019 C83.0392436,102.925213 86.6085419,96.2760538 90.4745001,89.7018152 L90.4736066,89.7031296 C94.3498404,83.1113658 98.4293578,76.7548813 102.644248,70.7024635 C110.108992,70.1490973 117.763616,69.8603653 125.499554,69.8603653 L125.500001,69.8603653 C133.270786,69.8603653 140.935239,70.1512878 148.397749,70.7094738 C152.548303,76.7176398 156.600121,83.0535317 160.491545,89.6461719 C164.427202,96.3128575 168.042517,102.917764 171.312028,109.395614 C168.052347,115.984748 164.445073,122.656254 160.52684,129.319871 Z M182.646304,11.8966575 C191.051514,16.6500005 194.32013,35.8202253 189.039231,60.9583076 C188.702361,62.5623254 188.323049,64.1961364 187.91112,65.8518542 C177.49765,63.4955561 166.189734,61.7421339 154.350602,60.6529264 C147.45371,51.0213715 140.306624,42.2652134 133.132732,34.6845753 C135.061467,32.8649946 136.987521,31.1299739 138.905533,29.4926579 C157.43604,13.6781205 174.755336,7.43423709 182.646304,11.8966575 Z M125.500001,87.3126567 C137.878393,87.3126567 147.913443,97.1532027 147.913443,109.292651 C147.913443,121.43166 137.878393,131.272646 125.500001,131.272646 C113.121608,131.272646 103.086558,121.43166 103.086558,109.292651 C103.086558,97.1532027 113.121608,87.3126567 125.500001,87.3126567 Z" id="Shape"></path>
            </g>
            <ellipse id="Oval" fill="#FFFFFF" fill-rule="nonzero" cx="562" cy="72" rx="67" ry="61"></ellipse>
            <ellipse id="Oval-2" fill="#E3E8F2" cx="200.5" cy="120" rx="23.5" ry="21"></ellipse>
            <g id="simple-logo" transform="translate(490.000000, 0.000000)" fill="#1B4DAA" fill-rule="nonzero">
                <g id="Combined-Shape">
                    <g id="path-1-link">
                        <path d="M0.403725784,66.8786611 L0.403725784,41.7741688 C0.403725784,38.4556349 2.28713221,35.389183 5.34448408,33.7299161 L64.7611046,1.48369788 C67.8184564,-0.175569092 71.5852694,-0.175569092 74.6426212,1.48369788 L134.059242,33.7299161 C137.116593,35.389183 139,38.4556349 139,41.7741688 L139,85.4560669 L119.236967,85.4560669 L119.235018,58.2092049 L119.234353,58.209205 C119.233986,53.0794399 114.809987,48.9211267 109.352836,48.9211267 L80.3696682,48.920502 C74.9122575,48.920502 70.4881517,53.079196 70.4881517,58.209205 L70.4881517,84.2272477 C70.4881517,89.3572572 74.9122575,93.5159506 80.3696682,93.5159506 L110.672986,93.5159506 L110.672986,100.937238 C110.672986,101.96324 109.788164,102.794979 108.696682,102.794979 L79.0521327,102.794979 L79.0521327,110.845188 L109.352836,110.845188 L109.352836,110.843874 C114.809701,110.843874 119.233581,106.685981 119.234353,101.556485 L119.236967,93.4818493 L139,93.4818493 L139,106.266605 C139,109.585139 137.116593,112.651591 134.059242,114.310858 L74.6426212,146.557076 C71.5852694,148.216343 67.8184564,148.216343 64.7611046,146.557076 L5.34448408,114.310858 C2.28713221,112.651591 0.403725784,109.585139 0.403725784,106.266605 L0.403725784,74.9288703 L17.7867299,74.9288703 L17.7867299,84.2175732 C17.7867299,89.347582 22.2108355,93.5062762 27.6682464,93.5062762 L65.8767773,93.5062762 L65.8767773,58.209205 C65.8767773,53.0791961 61.4526715,48.9205021 55.9952607,48.9205021 L17.7867299,48.9205021 L17.7867299,56.9707113 L55.3364929,56.9707113 C56.427975,56.9707113 57.3127962,57.8024501 57.3127962,58.8284519 L57.3127962,66.8786611 L0.403725784,66.8786611 Z" id="path-1"></path>
                    </g>
                </g>
                <rect id="g" x="80.359375" y="56.7518797" width="31.4921875" height="28.9323308" rx="3"></rect>
                <path d="M28.234375,74.556391 L59.7265625,74.556391 L59.7265625,85.6842105 L30.2445146,85.6842105 C29.1343452,85.6842105 28.234375,84.8050172 28.234375,83.7204777 L28.234375,74.556391 Z" id="Combined-Shape"></path>
            </g>
            <g id="full-logo" transform="translate(643.000000, 27.000000)" fill-rule="nonzero">
                <path d="M182.267206,0.194332 L195,0.194332 L195,72.097166 L150.809717,72.097166 C144.604898,72.097166 139.574899,67.067167 139.574899,60.862348 L139.574899,30.902834 C139.574899,24.6980155 144.604898,19.6680162 150.809717,19.6680162 L182.267206,19.6680162 L182.267206,0.194332 Z M154.554656,32.4008097 C153.313692,32.4008097 152.307692,33.4068096 152.307692,34.6477733 L152.307692,57.1174089 C152.307692,58.3583724 153.313692,59.364372 154.554656,59.364372 L182.267206,59.364372 L182.267206,32.4008097 L154.554656,32.4008097 Z" id="d" fill="#FFFFFF"></path>
                <g id="i" transform="translate(121.599190, 0.194332)">
                    <polygon id="Path-6" fill="#FFFFFF" points="0 19.4736842 12.7327935 19.4736842 12.7327935 71.902834 0 71.902834"></polygon>
                    <polygon id="Path-7" fill="#E11F22" points="0 1.13686838e-13 12.7327935 1.13686838e-13 12.7327935 12.7327935 0 12.7327935"></polygon>
                </g>
                <path d="M72.91498,72.097166 L85.647773,72.097166 L85.647773,34.6477733 C85.647773,33.4068096 86.653773,32.4008097 87.894737,32.4008097 L116.356275,32.4008097 L116.356275,19.6680162 L84.149798,19.6680162 C77.944979,19.6680162 72.91498,24.6980155 72.91498,30.902834 L72.91498,72.097166 Z" id="r" fill="#FFFFFF"></path>
                <path d="M67.672065,23.4129555 L67.672065,15.9230769 C67.672065,9.7182584 62.642065,4.6882591 56.437247,4.6882591 L11.497976,4.6882591 C5.293157,4.6882591 0.263158,9.7182584 0.263158,15.9230769 L0.263158,60.862348 C0.263158,67.067167 5.293157,72.097166 11.497976,72.097166 L56.437247,72.097166 C62.642065,72.097166 67.672065,67.067167 67.672065,60.862348 L67.672065,33.8987854 L39.959514,33.8987854 L39.959514,46.6315789 L54.939271,46.6315789 L54.939271,57.1174089 C54.939271,58.3583724 53.933271,59.364372 52.692308,59.364372 L15.242915,59.364372 C14.001951,59.364372 12.995951,58.3583724 12.995951,57.1174089 L12.995951,19.6680162 C12.995951,18.4270525 14.001951,17.4210526 15.242915,17.4210526 L52.692308,17.4210526 C53.933271,17.4210526 54.939271,18.4270525 54.939271,19.6680162 L54.939271,23.4129555 L67.672065,23.4129555 Z" id="G" fill="#FFFFFF"></path>
            </g>
            <g id="misc" opacity="0.351958786" transform="translate(0.000000, 17.000000)">
                <g id="Group" transform="translate(23.500000, 47.000000) scale(-1, 1) rotate(7.000000) translate(-23.500000, -47.000000) translate(6.000000, 2.000000)">
                    <path d="M1.00961538,0.391304348 L27.2596154,0.391304348 L27.2596154,15.2608696 L1.00961538,15.2608696 L1.00961538,0.391304348 Z M1.00961538,15.2608696 L27.2596154,15.2608696 L27.2596154,30.1304348 L1.00961538,30.1304348 L1.00961538,15.2608696 Z M0.435480769,39.5624348 L26.6854808,39.5624348 L26.6854808,54.432 L0.435480769,54.432 L0.435480769,39.5624348 Z M1.24048077,59.3413043 L27.475,60.4064348 L27.02875,75.2673913 L0.794230769,74.2022609 L1.24048077,59.3413043 Z" id="Shape" stroke="#0084E7"></path>
                    <polygon id="Shape" stroke="#0084E7" points="1.00961538 74.7391304 27.2596154 74.7391304 27.2596154 89.6086957 1.00961538 89.6086957"></polygon>
                    <path d="M17.8365385,15.2608696 L30.6425,15.2608696 M15.1442308,0.391304348 L27.9501923,0.391304348 M15.1442308,59.8695652 L27.9501923,59.8695652" id="Shape" stroke="#0084E7" stroke-linecap="square"></path>
                    <ellipse id="Oval" stroke="#087FFF" cx="32.6442308" cy="14.4782609" rx="2.01923077" ry="2.34782609"></ellipse>
                </g>
            </g>
            <g id="tree-data" opacity="0.272418478" transform="translate(327.000000, 64.000000)">
                <path d="M0,34 L170,34 M4.28211587,60.6666667 L168.287154,60.6666667" id="Shape" stroke="#0084E7" stroke-linecap="square"></path>
                <ellipse id="Oval" stroke="#0084E7" cx="173.5" cy="139" rx="2.5" ry="4"></ellipse>
                <ellipse id="Oval" stroke="#0084E7" cx="174.5" cy="86" rx="2.5" ry="4"></ellipse>
                <path d="M2,8 L142.025189,8 M31.9748111,113.123967 L143.309824,113.123967 M31.9748111,114.438017 L143.309824,113.123967 M4.56926952,139.404959 L170.287154,139.404959 M4.56926952,165.68595 L170.287154,165.68595 M30.2619647,86.8429752 L172,86.8429752" id="Shape" stroke="#0084E7" stroke-linecap="square"></path>
                <path d="M12,151.5 L9,151.5 M10.5,149 L10.5,154" id="Shape" stroke="#8ABDE3" stroke-linecap="square"></path>
                <g id="Group" stroke-linecap="square" transform="translate(43.000000, 122.000000)" stroke="#8ABDE3">
                    <path d="M3.6,3.5 L0.4,3.5 M2,0.7 L2,6.3" id="Shape"></path>
                </g>
                <g id="Group" stroke-linecap="square" transform="translate(43.000000, 96.000000)" stroke="#8ABDE3">
                    <path d="M3.6,3.5 L0.4,3.5 M2,0.7 L2,6.3" id="Shape"></path>
                </g>
                <g id="Group" stroke-linecap="square" transform="translate(43.000000, 70.000000)" stroke="#8ABDE3">
                    <path d="M3.6,3.5 L0.4,3.5 M2,0.7 L2,6.3" id="Shape"></path>
                </g>
                <path d="M12,47 L9,47" id="Shape" stroke="#8ABDE3" stroke-linecap="square"></path>
                <path d="M128,2.62670885 L128,176 M127,0 L128,173.373291" id="Shape" stroke="#0084E7" stroke-linecap="square"></path>
            </g>
            <g id="range-selection" opacity="0.132472826" transform="translate(942.000000, 4.000000)">
                <path d="M32,1 L47,1 L47,8.5 L32,8.5 L32,1 Z M32,8.5 L47,8.5 L47,16 L32,16 L32,8.5 Z" id="Shape" stroke="#0084E7"></path>
                <polygon id="Shape" stroke="#0084E7" points="31.5269699 15 47 16.1294639 46.4730301 24 31 22.8705361"></polygon>
                <polygon id="Shape" stroke="#0084E7" points="32 24 47 24 47 32 32 32"></polygon>
                <polygon id="Shape" stroke="#0084E7" points="31 31.8744766 46.6018027 31 47 39.1255234 31.3981973 40"></polygon>
                <path d="M31.8910256,39.3269231 L47.1410256,39.3269231 L47.1410256,47 L31.8910256,47 L31.8910256,39.3269231 Z M46.75,5 L62,5 L62,12.6730769 L46.75,12.6730769 L46.75,5 Z M46.75,12.6730769 L62,12.6730769 L62,20.3461538 L46.75,20.3461538 L46.75,12.6730769 Z M46.75,20.3461538 L62,20.3461538 L62,28.0192308 L46.75,28.0192308 L46.75,20.3461538 Z M46.75,28.0192308 L62,28.0192308 L62,35.6923077 L46.75,35.6923077 L46.75,28.0192308 Z M1,5.40384615 L16.25,5.40384615 L16.25,13.0769231 L1,13.0769231 L1,5.40384615 Z M1,13.0769231 L16.25,13.0769231 L16.25,20.75 L1,20.75 L1,13.0769231 Z M1,20.75 L16.25,20.75 L16.25,28.4230769 L1,28.4230769 L1,20.75 Z M1,28.4230769 L16.25,28.4230769 L16.25,36.0961538 L1,36.0961538 L1,28.4230769 Z M1,36.5 L16.25,36.5 L16.25,44.1730769 L1,44.1730769 L1,36.5 Z" id="Shape" stroke="#0084E7"></path>
                <polygon id="Shape" stroke="#0084E7" points="46.2508829 35 61 35.5350369 60.7491171 43 46 42.4649631"></polygon>
                <path d="M46.8706897,43.248 L62,43.248 L62,51 L46.8706897,51 L46.8706897,43.248 Z M17,0 L32.1293103,0 L32.1293103,7.752 L17,7.752 L17,0 Z M17,7.752 L32.1293103,7.752 L32.1293103,15.504 L17,15.504 L17,7.752 Z M17,15.504 L32.1293103,15.504 L32.1293103,23.256 L17,23.256 L17,15.504 Z" id="Shape" stroke="#0084E7"></path>
                <circle id="Oval" stroke="#8ABDE3" cx="46.5" cy="31.5" r="1.5"></circle>
                <polygon id="Shape" stroke="#0084E7" points="17 23 32 23 32 31 17 31"></polygon>
                <polygon id="Shape" stroke="#0084E7" points="16.1266338 31 31 31.2764509 30.8733662 39 16 38.7235491"></polygon>
                <polygon id="Shape" stroke="#0084E7" points="17 39 32 39 32 47 17 47"></polygon>
                <polygon id="Shape" stroke="#8ABDE3" points="17 8 47 8 47 31 17 31"></polygon>
                <polygon id="Shape" stroke="#8ABDE3" points="1 22 31 22 31 45 1 45"></polygon>
                <path d="M55.6475654,12.6493506 L63,12.6493506 M54.1017997,5 L61.4542343,5 M0,5.4025974 L7.35243458,5.4025974 M54.1017997,35.5974026 L61.4542343,35.5974026" id="Shape" stroke="#0084E7" stroke-linecap="square"></path>
                <circle id="Oval" stroke="#087FFF" cx="64" cy="12" r="1"></circle>
            </g>
            <g id="editing" opacity="0.252151268" transform="translate(666.000000, 148.000000)">
                <path d="M10,46.4864865 L334.429799,46.4864865 M10,62.972973 L334.429799,62.972973 M28.1833811,79.4594595 L344,77.8108108 M264.567335,30 L264.567335,91" id="Shape" stroke="#0084E7" stroke-linecap="square"></path>
                <path d="M131,5 L131,78" id="Shape" stroke="#087FFF" stroke-linecap="square"></path>
                <path d="M30,15 L30,80" id="Shape" stroke="#0084E7" stroke-linecap="square"></path>
                <polygon id="Shape" stroke="#8ABDE3" points="131 46 262 46 262 61 131 61"></polygon>
                <path d="M261.129496,46.2 L262.086331,60.2 L264,59.4 M131.956835,45 L131,61" id="Shape" stroke="#8ABDE3" stroke-linecap="square"></path>
                <g id="Group" stroke-linecap="square" transform="translate(137.000000, 48.000000)" stroke="#8ABDE3">
                    <path d="M1.5,1.25 L1.5,8.75 M2.5,0.416666667 L0.5,0.416666667 M2.5,8.75 L0.5,8.75" id="Shape"></path>
                </g>
                <polygon id="Shape" stroke="#8ABDE3" points="119.5 74 124 67 115 67"></polygon>
                <path d="M120,74 L124,66 M123,66.8 L114,66.8" id="Shape" stroke="#8ABDE3" stroke-linecap="square"></path>
                <path d="M5,67 C7.76142375,67 10,65.209139 10,63 C10,60.790861 7.76142375,59 5,59 C2.23857625,59 3.33066907e-16,60.790861 0,63 C-3.33066907e-16,65.209139 2.23857625,67 5,67 Z" id="Shape" stroke="#0084E7"></path>
                <ellipse id="Oval" stroke="#087FFF" cx="131" cy="2.5" rx="3" ry="2.5"></ellipse>
                <ellipse id="Oval" stroke="#0084E7" cx="265" cy="93.5" rx="3" ry="2.5"></ellipse>
                <path d="M10,30 L335,30" id="Shape" stroke="#0084E7" stroke-linecap="square"></path>
            </g>
        </g>
        <g id="simple-logo" transform="translate(175.000000, 89.000000)" fill="#E11F22" fill-rule="nonzero">
            <g id="Combined-Shape">
                <g id="path-1-link">
                    <path d="M0.142485006,25.7573222 L0.142485006,16.0887001 C0.142485006,14.8106161 0.807186607,13.6296178 1.88620315,12.9905758 L22.8558263,0.571424182 C23.9348428,-0.067617826 25.264246,-0.067617826 26.3432625,0.571424182 L47.3128856,12.9905758 C48.3919021,13.6296178 49.0566038,14.8106161 49.0566038,16.0887001 L49.0566038,32.9121339 L42.0817312,32.9121339 L42.0810432,22.41841 L42.0808087,22.41841 C42.0806792,20.4427573 40.5193386,18.8412448 38.5933724,18.8412448 L28.3644818,18.8410042 C26.438424,18.8410042 24.8770455,20.4426633 24.8770455,22.41841 L24.8770455,32.4388724 C24.8770455,34.4146193 26.438424,36.0162783 28.3644818,36.0162783 L39.0592864,36.0162783 L39.0592864,38.874477 C39.0592864,39.2696263 38.7470107,39.5899582 38.3617992,39.5899582 L27.8994903,39.5899582 L27.8994903,42.6903766 L38.5933724,42.6903766 L38.5933724,42.6898702 C40.5192374,42.6898702 42.0805362,41.0885196 42.0808087,39.1129707 L42.0817312,36.0031447 L49.0566038,36.0031447 L49.0566038,40.9270033 C49.0566038,42.2050874 48.3919021,43.3860857 47.3128856,44.0251277 L26.3432625,56.4442793 C25.264246,57.0833214 23.9348428,57.0833214 22.8558263,56.4442793 L1.88620315,44.0251277 C0.807186607,43.3860857 0.142485006,42.2050874 0.142485006,40.9270033 L0.142485006,28.8577406 L6.27738532,28.8577406 L6.27738532,32.4351464 C6.27738532,34.4108931 7.83876371,36.0125523 9.7648216,36.0125523 L23.2495752,36.0125523 L23.2495752,22.41841 C23.2495752,20.4426634 21.6881968,18.8410042 19.762139,18.8410042 L6.27738532,18.8410042 L6.27738532,21.9414226 L19.5296432,21.9414226 C19.9148548,21.9414226 20.2271305,22.2617544 20.2271305,22.6569038 L20.2271305,25.7573222 L0.142485006,25.7573222 Z" id="path-1"></path>
                </g>
            </g>
            <rect id="g" x="28" y="22" width="12" height="11" rx="3"></rect>
            <path d="M9,29 L19,29 L19,33 L9.63829787,33 C9.2857757,33 9,32.6839656 9,32.2941176 L9,29 Z" id="Combined-Shape"></path>
        </g>
    </g>
</svg>