<?xml version="1.0" encoding="UTF-8"?>
<svg width="416px" height="299px" viewBox="0 0 416 299" version="1.1" xmlns="http://www.w3.org/2000/svg" xmlns:xlink="http://www.w3.org/1999/xlink">
    <!-- Generator: Sketch 48.2 (47327) - http://www.bohemiancoding.com/sketch -->
    <title>Slice</title>
    <desc>Created with Sketch.</desc>
    <defs></defs>
    <g id="Page-1" stroke="none" stroke-width="1" fill="none" fill-rule="evenodd">
        <g id="react-grid" fill-rule="nonzero">
            <rect id="Rectangle" fill="#1B4DAA" x="0" y="0" width="417" height="300"></rect>
            <g id="react" transform="translate(83.000000, 41.000000)" fill="#FBFBFB" fill-opacity="0.897843071">
                <path d="M206.372377,70.9819946 C203.768563,70.1030929 201.070479,69.2715097 198.292422,68.4850548 C198.749028,66.6575873 199.168104,64.8537793 199.540716,63.0806408 C205.657088,33.9651553 201.657991,10.5095172 188.002263,2.78692313 C174.908133,-4.618022 153.493684,3.10281959 131.866121,21.5606345 C129.786375,23.3355254 127.700821,25.214693 125.616163,27.1841165 C124.227133,25.8810985 122.840339,24.6218943 121.457119,23.417457 C98.7908008,3.6811597 76.0713154,-4.63598562 62.4289912,3.10895351 C49.3473715,10.5353674 45.4733715,32.5859016 50.9789999,60.1788627 C51.5106641,62.8440472 52.1321302,65.5657512 52.83491,68.3330214 C49.6194587,69.2281341 46.5152547,70.1823955 43.5450837,71.1975578 C16.9712569,80.2831947 0,94.522631 0,109.292651 C0,124.547251 18.2186571,139.847853 45.8973625,149.125393 C48.0816534,149.85752 50.3481513,150.549775 52.6838995,151.20698 C51.9257196,154.199891 51.2662773,157.132776 50.7127209,159.99337 C45.4630957,187.107448 49.562718,208.637037 62.6094889,216.016571 C76.0856123,223.637518 98.702338,215.804075 120.725299,196.925649 C122.46594,195.433356 124.212837,193.850807 125.962861,192.192023 C128.231147,194.334072 130.495856,196.361329 132.748504,198.262841 C154.080301,216.264556 175.148946,223.53368 188.183654,216.133555 C201.646374,208.490699 206.021658,185.362788 200.341339,157.22391 C199.907519,155.07485 199.402661,152.879347 198.835702,150.644852 C200.423993,150.184369 201.983243,149.708992 203.503625,149.214774 C232.278274,139.865379 251,124.750983 251,109.292651 C251,94.4691787 233.481441,80.1337902 206.372377,70.9819946 Z M200.131355,139.233586 C198.758857,139.67917 197.350617,140.109859 195.91557,140.527403 C192.738989,130.665389 188.451721,120.178591 183.205223,109.343913 C188.211802,98.7672972 192.333315,88.4145702 195.420989,78.6165233 C197.988614,79.3451443 200.480734,80.1136359 202.882159,80.9246266 C226.109181,88.7659556 240.277361,100.359486 240.277361,109.292651 C240.277361,118.8081 224.976156,131.160482 200.131355,139.233586 Z M189.822431,159.266063 C192.334208,171.708702 192.69297,182.958295 191.029174,191.752571 C189.53426,199.654801 186.5279,204.923392 182.810718,207.033459 C174.900538,211.523481 157.984683,205.687065 139.741452,190.291824 C137.65009,188.52701 135.543539,186.642585 133.430285,184.648187 C140.502759,177.062729 147.571212,168.244357 154.469891,158.450691 C166.603896,157.394783 178.067739,155.668524 188.463783,153.311788 C188.975789,155.337293 189.430608,157.323804 189.822431,159.266063 Z M85.5715736,206.257519 C77.8432314,208.934095 71.6879899,209.010768 67.9672341,206.906837 C60.0499056,202.428643 56.7585023,185.142405 61.2481605,161.954469 C61.7624005,159.298923 62.3744845,156.571086 63.0799447,153.782785 C73.3620618,156.012462 84.7419093,157.616917 96.9049558,158.583884 C103.850099,168.167246 111.122729,176.975979 118.451652,184.688934 C116.850405,186.204886 115.255411,187.648109 113.669355,189.008084 C103.930965,197.355899 94.1720238,203.278628 85.5715736,206.257519 Z M49.3652427,139.175313 C37.1262439,135.073042 27.0188164,129.741359 20.0906512,123.923344 C13.8652659,118.695061 10.7221922,113.504458 10.7221922,109.292651 C10.7221922,100.329692 24.3484326,88.8973965 47.074619,81.1270456 C49.8321243,80.1841758 52.718748,79.295635 55.7143854,78.460985 C58.855225,88.4802906 62.975399,98.955696 67.9475761,109.548522 C62.9110632,120.29864 58.7323614,130.940977 55.5606942,141.077701 C53.4251019,140.475702 51.3560794,139.842157 49.3652427,139.175313 Z M61.5019298,58.1594915 C56.784862,34.5185218 59.9176598,16.6846132 67.8010333,12.209487 C76.1982,7.44212355 94.7666828,14.2393732 114.337287,31.2806929 C115.588261,32.3699003 116.84415,33.5099314 118.103613,34.689395 C110.810879,42.3686136 103.604819,51.1111895 96.7213316,60.6380297 C84.9165989,61.7110261 73.6167245,63.4346552 63.2273811,65.7427582 C62.5741935,63.1660774 61.9956178,60.6345247 61.5019298,58.1594915 Z M169.771989,84.3771421 C167.288359,80.1701553 164.738604,76.0626256 162.139258,72.0672588 C170.147729,73.0600761 177.82067,74.3779907 185.026283,75.9907713 C182.86299,82.7897736 180.166695,89.8985386 176.992793,97.1860632 C174.71602,92.9470923 172.307894,88.6730707 169.771989,84.3771421 Z M125.619736,42.2043124 C130.565554,47.4588837 135.518519,53.3255314 140.390172,59.6907786 C135.48099,59.4633857 130.511046,59.3450889 125.500001,59.3450889 C120.536312,59.3450889 115.603005,59.460757 110.724204,59.6842066 C115.600771,53.3781077 120.596627,47.5193463 125.619736,42.2043124 Z M81.1846738,84.4498728 C78.7037232,88.6686893 76.3402749,92.9194898 74.0992434,97.1781769 C70.9767215,89.916064 68.3054441,82.774877 66.1233871,75.8794845 C73.2847695,74.3078889 80.9215224,73.0228346 88.8790609,72.0488571 C86.2430788,76.0810273 83.672326,80.2187886 81.1846738,84.4489966 L81.1846738,84.4498728 Z M89.1082572,147.286534 C80.8866738,146.38704 73.1350994,145.168146 65.9755039,143.639924 C68.1924097,136.621415 70.9226616,129.327757 74.1113063,121.909229 C76.358146,126.16485 78.7309767,130.417403 81.2271176,134.645421 L81.2275643,134.645421 C83.7701702,138.952741 86.4043651,143.171994 89.1082572,147.286534 Z M125.916396,177.122316 C120.834312,171.745067 115.765185,165.796927 110.814453,159.398819 C115.620428,159.583712 120.520228,159.67835 125.500001,159.67835 C130.61604,159.67835 135.673551,159.565311 140.651537,159.347995 C135.763799,165.861333 130.828705,171.818674 125.916396,177.122316 Z M177.095105,121.531119 C180.44995,129.029825 183.278047,136.285365 185.523546,143.184263 C178.246002,144.812377 170.388542,146.123721 162.109771,147.098137 C164.715372,143.048878 167.287464,138.870808 169.814879,134.573127 C172.371783,130.225061 174.799567,125.870423 177.095105,121.531119 Z M160.52684,129.319871 C156.603248,135.991375 152.57511,142.360127 148.485764,148.3718 C141.03755,148.894057 133.342717,149.163073 125.500001,149.163073 C117.689005,149.163073 110.091121,148.925165 102.774708,148.459426 C98.5205002,142.368891 94.4047944,135.981299 90.5062213,129.377266 L90.5071149,129.377266 C86.6188178,122.791199 83.0401372,116.149487 79.7974325,109.545019 C83.0392436,102.925213 86.6085419,96.2760538 90.4745001,89.7018152 L90.4736066,89.7031296 C94.3498404,83.1113658 98.4293578,76.7548813 102.644248,70.7024635 C110.108992,70.1490973 117.763616,69.8603653 125.499554,69.8603653 L125.500001,69.8603653 C133.270786,69.8603653 140.935239,70.1512878 148.397749,70.7094738 C152.548303,76.7176398 156.600121,83.0535317 160.491545,89.6461719 C164.427202,96.3128575 168.042517,102.917764 171.312028,109.395614 C168.052347,115.984748 164.445073,122.656254 160.52684,129.319871 Z M182.646304,11.8966575 C191.051514,16.6500005 194.32013,35.8202253 189.039231,60.9583076 C188.702361,62.5623254 188.323049,64.1961364 187.91112,65.8518542 C177.49765,63.4955561 166.189734,61.7421339 154.350602,60.6529264 C147.45371,51.0213715 140.306624,42.2652134 133.132732,34.6845753 C135.061467,32.8649946 136.987521,31.1299739 138.905533,29.4926579 C157.43604,13.6781205 174.755336,7.43423709 182.646304,11.8966575 Z M125.500001,87.3126567 C137.878393,87.3126567 147.913443,97.1532027 147.913443,109.292651 C147.913443,121.43166 137.878393,131.272646 125.500001,131.272646 C113.121608,131.272646 103.086558,121.43166 103.086558,109.292651 C103.086558,97.1532027 113.121608,87.3126567 125.500001,87.3126567 Z" id="Shape"></path>
            </g>
        </g>
        <g id="misc" opacity="0.248980978" transform="translate(11.000000, 191.000000)">
            <g id="Group" transform="translate(24.000000, 47.500000) scale(-1, 1) rotate(7.000000) translate(-24.000000, -47.500000) translate(6.000000, 2.000000)">
                <path d="M1.03846154,0.395652174 L28.0384615,0.395652174 L28.0384615,15.4304348 L1.03846154,15.4304348 L1.03846154,0.395652174 Z M1.03846154,15.4304348 L28.0384615,15.4304348 L28.0384615,30.4652174 L1.03846154,30.4652174 L1.03846154,15.4304348 Z M0.447923077,40.0020174 L27.4479231,40.0020174 L27.4479231,55.0368 L0.447923077,55.0368 L0.447923077,40.0020174 Z M1.27592308,60.0006522 L28.26,61.0776174 L27.801,76.1036957 L0.816923077,75.0267304 L1.27592308,60.0006522 Z" id="Shape" stroke="#0084E7"></path>
                <polygon id="Shape" stroke="#0084E7" points="1.03846154 75.5695652 28.0384615 75.5695652 28.0384615 90.6043478 1.03846154 90.6043478"></polygon>
                <path d="M18.3461538,15.4304348 L31.518,15.4304348 M15.5769231,0.395652174 L28.7487692,0.395652174 M15.5769231,60.5347826 L28.7487692,60.5347826" id="Shape" stroke="#0084E7" stroke-linecap="square"></path>
                <ellipse id="Oval" stroke="#087FFF" cx="33.5769231" cy="14.6391304" rx="2.07692308" ry="2.37391304"></ellipse>
            </g>
        </g>
        <g id="misc" opacity="0.248980978" transform="translate(382.003906, 135.355469) rotate(201.000000) translate(-382.003906, -135.355469) translate(358.003906, 87.855469)">
            <g id="Group" transform="translate(24.000000, 47.500000) scale(-1, 1) rotate(7.000000) translate(-24.000000, -47.500000) translate(6.000000, 2.000000)">
                <path d="M1.03846154,0.395652174 L28.0384615,0.395652174 L28.0384615,15.4304348 L1.03846154,15.4304348 L1.03846154,0.395652174 Z M1.03846154,15.4304348 L28.0384615,15.4304348 L28.0384615,30.4652174 L1.03846154,30.4652174 L1.03846154,15.4304348 Z M0.447923077,40.0020174 L27.4479231,40.0020174 L27.4479231,55.0368 L0.447923077,55.0368 L0.447923077,40.0020174 Z M1.27592308,60.0006522 L28.26,61.0776174 L27.801,76.1036957 L0.816923077,75.0267304 L1.27592308,60.0006522 Z" id="Shape" stroke="#0084E7"></path>
                <polygon id="Shape" stroke="#0084E7" points="1.03846154 75.5695652 28.0384615 75.5695652 28.0384615 90.6043478 1.03846154 90.6043478"></polygon>
                <path d="M18.3461538,15.4304348 L31.518,15.4304348 M15.5769231,0.395652174 L28.7487692,0.395652174 M15.5769231,60.5347826 L28.7487692,60.5347826" id="Shape" stroke="#0084E7" stroke-linecap="square"></path>
                <ellipse id="Oval" stroke="#087FFF" cx="33.5769231" cy="14.6391304" rx="2.07692308" ry="2.37391304"></ellipse>
            </g>
        </g>
        <ellipse id="Oval" fill="#E3E8F2" cx="207" cy="150" rx="20" ry="21"></ellipse>
        <g id="simple-logo" transform="translate(186.000000, 124.000000)" fill="#E11F22" fill-rule="nonzero">
            <g id="Combined-Shape">
                <g id="path-1-link">
                    <path d="M0.131086205,23.4979079 L0.131086205,14.6774106 C0.131086205,13.5114393 0.742611679,12.4340373 1.7353069,11.8510516 L21.0273602,0.521299254 C22.0200553,-0.0616864377 23.2431064,-0.0616864377 24.2358015,0.521299254 L43.5278548,11.8510516 C44.52055,12.4340373 45.1320755,13.5114393 45.1320755,14.6774106 L45.1320755,30.0251046 L38.7151927,30.0251046 L38.7145598,20.4518828 L38.714344,20.4518828 C38.7142248,18.649533 37.2777915,17.188504 35.5059026,17.188504 L26.0953233,17.1882845 C24.3233501,17.1882845 22.8868819,18.6494472 22.8868819,20.4518828 L22.8868819,29.5933573 C22.8868819,31.3957931 24.3233501,32.8569556 26.0953233,32.8569556 L35.9345435,32.8569556 L35.9345435,35.4644351 C35.9345435,35.8249222 35.6472498,36.1171548 35.2928552,36.1171548 L25.6675311,36.1171548 L25.6675311,38.9456067 L35.5059026,38.9456067 L35.5059026,38.9451448 C37.2776985,38.9451448 38.7140933,37.4842635 38.714344,35.6820084 L38.7151927,32.8449741 L45.1320755,32.8449741 L45.1320755,37.3369153 C45.1320755,38.5028867 44.52055,39.5802887 43.5278548,40.1632744 L24.2358015,51.4930268 C23.2431064,52.0760125 22.0200553,52.0760125 21.0273602,51.4930268 L1.7353069,40.1632744 C0.742611679,39.5802887 0.131086205,38.5028867 0.131086205,37.3369153 L0.131086205,26.3263598 L5.77519449,26.3263598 L5.77519449,29.5899582 C5.77519449,31.3923937 7.21166262,32.8535565 8.98363588,32.8535565 L21.3896092,32.8535565 L21.3896092,20.4518828 C21.3896092,18.6494473 19.9531411,17.1882845 18.1811678,17.1882845 L5.77519449,17.1882845 L5.77519449,20.0167364 L17.9672718,20.0167364 C18.3216664,20.0167364 18.60896,20.308969 18.60896,20.6694561 L18.60896,23.4979079 L0.131086205,23.4979079 Z" id="path-1"></path>
                </g>
            </g>
            <rect id="g" x="25" y="20" width="11" height="10" rx="3"></rect>
            <path d="M9,26 L20,26 L20,30 L9.70212766,30 C9.31435327,30 9,29.6839656 9,29.2941176 L9,26 Z" id="Combined-Shape"></path>
        </g>
        <g id="quick-filter" opacity="0.185178895" transform="translate(303.000000, 0.000000)">
            <polygon id="Shape" stroke="#8ABDE3" points="5 6 77 6 77 15 5 15"></polygon>
            <path d="M76.175,6 L76.4357143,16 L78,15.0243902 M5.52142857,6.24390244 L5,16" id="Shape" stroke="#8ABDE3" stroke-linecap="square"></path>
            <g id="Group" stroke-linecap="square" transform="translate(10.000000, 8.000000)" stroke="#8ABDE3">
                <path d="M1,0.75 L1,5.25 M1.66666667,0.25 L0.333333333,0.25 M1.66666667,5.25 L0.333333333,5.25" id="Shape"></path>
            </g>
            <circle id="Oval" stroke="#0084E7" cx="112.5" cy="1.5" r="1.5"></circle>
            <polygon id="Shape" stroke="#0084E7" points="3 2 109 2 109 22 3 22"></polygon>
            <path d="M107.843602,0 L107.843602,7.85714286 M104.161137,1.57142857 L111,1.57142857 M0,1.57142857 L6.83886256,1.57142857 M0.526066351,21.4761905 L7.36492891,21.4761905" id="Shape" stroke="#0084E7" stroke-linecap="square"></path>
            <path d="M93,8 L93,8.50143266 C93.0000141,8.5695002 93.0262655,8.63478519 93.073,8.682977 L96.086,11.782088 C96.2266925,11.9266213 96.3058249,12.122707 96.306,12.3272353 L96.306,15 L97.6945,13.9287341 L97.6945,12.3272353 C97.6945,12.1225479 97.7735,11.9260892 97.9145,11.782088 L100.927,8.682977 C100.973734,8.63478519 100.999986,8.5695002 101,8.50143266 L101,8 L93,8 Z" id="Shape" stroke="#8ABDE3"></path>
        </g>
    </g>
</svg>