<svg xmlns="http://www.w3.org/2000/svg" xml:space="preserve" style="fill-rule:evenodd;clip-rule:evenodd;stroke-linejoin:round;stroke-miterlimit:2" viewBox="0 0 32 32"><path d="M5 15a1.443 1.443 0 0 0 1.444-1.444V7.444A3.444 3.444 0 0 1 9.889 4h1.222a1 1 0 0 1 0 2H9.889a1.444 1.444 0 0 0-1.445 1.444v6.112c0 .913-.362 1.789-1.008 2.435l-.01.009.01.009a3.44 3.44 0 0 1 1.008 2.435v6.112c0 .794.65 1.444 1.445 1.444h1.222a1 1 0 0 1 0 2H9.889a3.455 3.455 0 0 1-3.445-3.444v-6.112A1.443 1.443 0 0 0 5 17a1 1 0 0 1 0-2m22 2c-.794 0-1.444.65-1.444 1.444v6.112A3.444 3.444 0 0 1 22.111 28h-1.222a1 1 0 0 1 0-2h1.222a1.444 1.444 0 0 0 1.445-1.444v-6.112c0-.951.391-1.816 1.02-2.441l-.012-.012a3.44 3.44 0 0 1-1.008-2.435V7.444A1.444 1.444 0 0 0 22.111 6h-1.222a1 1 0 0 1 0-2h1.222a3.445 3.445 0 0 1 3.445 3.444v6.112A1.443 1.443 0 0 0 27 15a1 1 0 0 1 0 2"/></svg>