<svg width="51" height="51" viewBox="0 0 51 51" fill="none" xmlns="http://www.w3.org/2000/svg">
<path d="M43.1378 25.5849L45.284 31.9599C45.4104 32.3339 45.4301 32.7356 45.341 33.1201C45.2518 33.5046 45.0574 33.8567 44.7794 34.1368C44.5014 34.417 44.1509 34.6143 43.7671 34.7064C43.3833 34.7986 42.9815 34.7821 42.6065 34.6587L36.2103 32.5337C33.0451 34.0578 29.4426 34.4125 26.041 33.5349C22.6393 32.6573 19.658 30.6041 17.6252 27.739C15.5924 24.8738 14.6392 21.3817 14.9345 17.8811C15.2298 14.3805 16.7546 11.0974 19.2386 8.61328C21.7227 6.12919 25.0058 4.60445 28.5064 4.30914C32.007 4.01383 35.4992 4.96701 38.3643 6.99984C41.2295 9.03267 43.2827 12.0139 44.1603 15.4156C45.0378 18.8173 44.6832 22.4197 43.159 25.5849H43.1378ZM23.3753 21.2499C23.9389 21.2499 24.4794 21.026 24.8779 20.6275C25.2764 20.229 25.5003 19.6885 25.5003 19.1249C25.5003 18.5613 25.2764 18.0208 24.8779 17.6223C24.4794 17.2238 23.9389 16.9999 23.3753 16.9999C22.8117 16.9999 22.2712 17.2238 21.8727 17.6223C21.4742 18.0208 21.2503 18.5613 21.2503 19.1249C21.2503 19.6885 21.4742 20.229 21.8727 20.6275C22.2712 21.026 22.8117 21.2499 23.3753 21.2499ZM29.7503 21.2499C30.3139 21.2499 30.8544 21.026 31.2529 20.6275C31.6514 20.229 31.8753 19.6885 31.8753 19.1249C31.8753 18.5613 31.6514 18.0208 31.2529 17.6223C30.8544 17.2238 30.3139 16.9999 29.7503 16.9999C29.1867 16.9999 28.6462 17.2238 28.2477 17.6223C27.8492 18.0208 27.6253 18.5613 27.6253 19.1249C27.6253 19.6885 27.8492 20.229 28.2477 20.6275C28.6462 21.026 29.1867 21.2499 29.7503 21.2499ZM36.1253 21.2499C36.6889 21.2499 37.2294 21.026 37.6279 20.6275C38.0264 20.229 38.2503 19.6885 38.2503 19.1249C38.2503 18.5613 38.0264 18.0208 37.6279 17.6223C37.2294 17.2238 36.6889 16.9999 36.1253 16.9999C35.5617 16.9999 35.0212 17.2238 34.6227 17.6223C34.2242 18.0208 34.0003 18.5613 34.0003 19.1249C34.0003 19.6885 34.2242 20.229 34.6227 20.6275C35.0212 21.026 35.5617 21.2499 36.1253 21.2499Z" fill="url(#paint0_linear_5_175)"/>
<path d="M33.7446 37.8249C31.775 40.8679 28.7619 43.0869 25.2716 44.0652C21.7813 45.0434 18.0539 44.7135 14.7896 43.1374L8.41464 45.2837C8.04071 45.41 7.63899 45.4297 7.25449 45.3406C6.86999 45.2515 6.51792 45.057 6.23772 44.779C5.95753 44.501 5.7603 44.1505 5.66813 43.7667C5.57596 43.3829 5.5925 42.9811 5.71589 42.6061L7.84089 36.2099C6.50362 33.4548 6.05325 30.353 6.55178 27.3313C7.05031 24.3097 8.47323 21.5169 10.6246 19.3374C10.6565 22.1698 11.3172 24.9597 12.5589 27.5056C13.8005 30.0516 15.5922 32.2899 17.8045 34.0589C20.0167 35.8279 22.5943 37.0834 25.351 37.7347C28.1077 38.3859 30.9746 38.4168 33.7446 37.8249Z" fill="#0E4491" fill-opacity="0.3"/>
<defs>
<linearGradient id="paint0_linear_5_175" x1="30.1389" y1="4.25647" x2="30.1389" y2="34.7652" gradientUnits="userSpaceOnUse">
<stop stop-color="#1E62C2"/>
<stop offset="1" stop-color="#0F4592"/>
</linearGradient>
</defs>
</svg>
