<svg xmlns="http://www.w3.org/2000/svg" xml:space="preserve" style="fill-rule:evenodd;clip-rule:evenodd;stroke-linejoin:round;stroke-miterlimit:2" viewBox="0 0 32 32"><path d="M28.732 18.405c-.171.576-1.145 1.487-2.43 1.487-.502 0-1.008-.252-1.448-.65-.761-.692-1.308-1.824-1.308-3.144v-1.247c0-2.181 1.257-3.742 2.756-3.742 1.38 0 2.21.714 2.412 1.664a.875.875 0 0 0 1.712-.367c-.356-1.662-1.708-3.046-4.124-3.046-2.293 0-4.506 2.156-4.506 5.491v1.247c0 1.868.804 3.46 1.882 4.439.787.715 1.723 1.105 2.624 1.105 2.228 0 3.811-1.74 4.108-2.738a.875.875 0 0 0-1.678-.5m-8.461-6.44c-.383-1.337-2.076-2.674-4.08-2.605-2.033.07-3.797 1.693-3.797 3.547 0 .613.137 1.104.384 1.507.502.823 1.557 1.323 3.35 1.516 1.484.16 2.376.908 2.428 1.816.049.888-.757 2.146-2.333 2.146-.722 0-1.341-.388-1.8-.861-.45-.465-.762-1.015-.792-1.43a.876.876 0 0 0-1.746.127c.05.716.502 1.716 1.281 2.52.772.798 1.842 1.394 3.057 1.394 2.842 0 4.17-2.394 4.079-3.995-.089-1.58-1.404-3.18-3.985-3.457-.54-.057-.99-.135-1.356-.255-.289-.094-.514-.2-.653-.38-.127-.164-.163-.38-.163-.648 0-.989 1.023-1.761 2.107-1.8 1.114-.037 2.124.596 2.335 1.339a.877.877 0 0 0 1.082.6.877.877 0 0 0 .602-1.081M3.25 16.049h6.266c.457 0 .837-.35.873-.804.262-3.246-1.637-5.887-4.265-5.887-1.099 0-2.087.471-2.868 1.24-1.083 1.063-1.757 2.71-1.757 4.317v1.012c0 4.165 2.69 5.715 4.625 5.715 2.008 0 3.473-.82 4.193-2.443a.875.875 0 0 0-1.6-.71c-.438.987-1.372 1.403-2.593 1.403-1.27 0-2.827-1.156-2.873-3.843m.043-1.75h5.36c-.106-1.761-1.041-3.19-2.53-3.19-.632 0-1.19.295-1.642.737-.629.62-1.054 1.52-1.188 2.453"/></svg>