<svg width="24" height="24" viewBox="0 0 24 24" fill="none" xmlns="http://www.w3.org/2000/svg">
<path fill-rule="evenodd" clip-rule="evenodd" d="M10.1104 2.0062C10.6593 2.06719 11.0549 2.56161 10.9939 3.11052L10.4506 8.00009H14.4383L15.0061 2.88966C15.0671 2.34075 15.5615 1.94521 16.1104 2.0062C16.6593 2.06719 17.0549 2.56161 16.9939 3.11052L16.4506 8.00009H20C20.5523 8.00009 21 8.4478 21 9.00009C21 9.55237 20.5523 10.0001 20 10.0001H16.2284L15.7839 14.0001H20C20.5523 14.0001 21 14.4478 21 15.0001C21 15.5524 20.5523 16.0001 20 16.0001H15.5617L14.9939 21.1105C14.9329 21.6594 14.4385 22.055 13.8896 21.994C13.3407 21.933 12.9451 21.4386 13.0061 20.8897L13.5494 16.0001H9.56171L8.99388 21.1105C8.93289 21.6594 8.43847 22.055 7.88957 21.994C7.34066 21.933 6.94513 21.4386 7.00612 20.8897L7.5494 16.0001H4C3.44772 16.0001 3 15.5524 3 15.0001C3 14.4478 3.44772 14.0001 4 14.0001H7.77162L8.21607 10.0001H4C3.44772 10.0001 3 9.55237 3 9.00009C3 8.4478 3.44772 8.00009 4 8.00009H8.43829L9.00612 2.88966C9.06711 2.34075 9.56152 1.94521 10.1104 2.0062ZM10.2284 10.0001L9.78393 14.0001H13.7716L14.2161 10.0001H10.2284Z"/>
</svg>
