<svg width="2500" height="2432" viewBox="0 0 256 249" xmlns="http://www.w3.org/2000/svg" preserveAspectRatio="xMidYMid"><defs><linearGradient x1="-388.148%" y1="-113.678%" x2="237.684%" y2="370.655%" id="a"><stop stop-color="#C06FBB" offset="0%"/><stop stop-color="#6E4D9B" offset="100%"/></linearGradient><linearGradient x1="72.945%" y1="79.515%" x2="-97.052%" y2="-119.502%" id="b"><stop stop-color="#6E4D9B" offset="0%"/><stop stop-color="#77327A" offset="14%"/><stop stop-color="#B31777" offset="29%"/><stop stop-color="#CD0F7E" offset="84%"/><stop stop-color="#ED2C89" offset="100%"/></linearGradient><linearGradient x1="-232.212%" y1="-693.6%" x2="250.776%" y2="101.71%" id="c"><stop stop-color="#C06FBB" offset="0%"/><stop stop-color="#6E4D9B" offset="100%"/></linearGradient><linearGradient x1="-821.186%" y1="-466.93%" x2="101.985%" y2="287.264%" id="d"><stop stop-color="#C06FBB" offset="0%"/><stop stop-color="#6E4D9B" offset="100%"/></linearGradient><linearGradient x1="-140.095%" y1="-230.926%" x2="418.499%" y2="261.977%" id="e"><stop stop-color="#C06FBB" offset="0%"/><stop stop-color="#6E4D9B" offset="100%"/></linearGradient><linearGradient x1="191.084%" y1="225.067%" x2="20.358%" y2="24.595%" id="f"><stop stop-color="#6E4D9B" offset="0%"/><stop stop-color="#77327A" offset="14%"/><stop stop-color="#B31777" offset="29%"/><stop stop-color="#CD0F7E" offset="84%"/><stop stop-color="#ED2C89" offset="100%"/></linearGradient><linearGradient x1="-388.094%" y1="-138.728%" x2="237.675%" y2="445.405%" id="g"><stop stop-color="#C06FBB" offset="0%"/><stop stop-color="#6E4D9B" offset="100%"/></linearGradient><linearGradient x1="11.503%" y1="89.653%" x2="89.819%" y2="11.577%" id="h"><stop stop-color="#6E4D9B" offset="0%"/><stop stop-color="#77327A" offset="14%"/><stop stop-color="#B31777" offset="53%"/><stop stop-color="#CD0F7E" offset="79%"/><stop stop-color="#ED2C89" offset="100%"/></linearGradient></defs><path d="M167.876 46.369l-23.68 15.804L119.8 25.615 143.48 9.81l24.395 36.559z" fill="url(#a)"/><path d="M187.129 156.2l40.46 60.63-48.198 32.165-40.46-60.632-7.06-10.576 48.2-32.165 7.058 10.577z" fill="url(#b)"/><path d="M126.422 196.71l8.908 13.349-36.686 24.482-15.967-23.926 8.015-5.348 28.672-19.134 7.058 10.577z" fill="url(#c)"/><path d="M207.172 127.537l10.29-6.867 15.966 23.926-23.683 15.805-8.908-13.35 13.393-8.937-7.058-10.577zm-6.335 19.515l-7.058-10.577 13.393-8.938 7.058 10.577-13.393 8.938z" fill="url(#d)"/><path d="M41.11 130.967l-8.015 5.348L8.698 99.756l36.687-24.482 17.1 25.627-28.671 19.134L62.486 100.9l7.296 10.933-28.673 19.133z" fill="url(#e)"/><path d="M130.489 71.322l-48.2 32.165-7.295-10.933L34.912 32.49 83.112.326l40.081 60.063 7.296 10.933z" fill="url(#f)"/><path d="M157.59 53.238l-13.393 8.937-7.297-10.933-17.1-25.626L143.483 9.81 167.88 46.37l-10.29 6.868z" fill="url(#g)"/><path d="M97.75 215.844l-7.058-10.577 28.672-19.134 7.058 10.577-28.672 19.134z" fill="#714896"/><path d="M200.837 147.052l-7.058-10.577 13.393-8.938 7.058 10.577-13.393 8.938z" fill="#6F4795"/><path d="M41.11 130.967l-7.296-10.932L62.485 100.9l7.297 10.933-28.673 19.133z" fill="#88519F"/><path d="M144.197 62.175L136.9 51.242l13.395-8.938 7.295 10.934-13.393 8.937z" fill="#85509E"/><path d="M187.129 156.2l-48.199 32.163-7.058-10.576 48.199-32.165 7.058 10.577z" fill="#8D166A"/><path d="M123.193 60.39l7.296 10.932-48.2 32.165-7.295-10.933 48.2-32.165z" fill="#A70D6F"/><path d="M27.439 51.653l9.097 13.633-13.633 9.097-9.097-13.633 13.633-9.097z" fill="#9E61AD"/><path d="M76.568 215.084l9.097 13.633-13.632 9.097-9.098-13.632 13.633-9.098z" fill="#8053A3"/><path d="M40.704 228.814L.792 168.518 214.089 25.856l41.852 59.333L40.704 228.814z" fill="url(#h)"/></svg>