<?xml version="1.0" encoding="UTF-8" standalone="no"?><!DOCTYPE svg PUBLIC "-//W3C//DTD SVG 1.1//EN" "http://www.w3.org/Graphics/SVG/1.1/DTD/svg11.dtd"><svg width="100%" height="100%" viewBox="0 0 1000 1000" version="1.1" xmlns="http://www.w3.org/2000/svg" xmlns:xlink="http://www.w3.org/1999/xlink" xml:space="preserve" xmlns:serif="http://www.serif.com/" style="fill-rule:evenodd;clip-rule:evenodd;stroke-linejoin:round;stroke-miterlimit:2;"><g><g><path d="M813.822,358.764c-10.102,-3.222 -20.572,-6.272 -31.355,-9.156c1.773,-6.702 3.402,-13.316 4.848,-19.818c23.733,-106.761 8.214,-192.77 -44.778,-221.088c-50.812,-27.151 -133.91,1.16 -217.834,68.842c-8.07,6.509 -16.162,13.398 -24.255,20.619c-5.387,-4.778 -10.771,-9.393 -16.135,-13.81c-87.957,-72.369 -176.12,-102.869 -229.058,-74.47c-50.766,27.232 -65.799,108.087 -44.431,209.267c2.062,9.773 4.474,19.754 7.198,29.901c-12.475,3.282 -24.521,6.78 -36.046,10.503c-103.122,33.314 -168.977,85.529 -168.977,139.687c-0,55.935 70.698,112.039 178.105,146.059c8.473,2.686 17.269,5.225 26.332,7.633c-2.941,10.975 -5.498,21.729 -7.647,32.217c-20.371,99.425 -4.463,178.368 46.166,205.428c52.292,27.944 140.058,-0.78 225.515,-70.003c6.758,-5.472 13.534,-11.275 20.325,-17.357c8.804,7.856 17.589,15.288 26.332,22.261c82.779,66.008 164.534,92.662 215.114,65.529c52.242,-28.026 69.223,-112.833 47.178,-216.012c-1.682,-7.879 -3.641,-15.929 -5.84,-24.122c6.164,-1.689 12.213,-3.434 18.11,-5.246c111.66,-34.281 184.311,-89.704 184.311,-146.387c-0,-54.355 -67.982,-106.919 -173.178,-140.477Zm-24.217,250.267c-5.327,1.632 -10.79,3.212 -16.36,4.742c-12.327,-36.163 -28.962,-74.614 -49.32,-114.345c19.426,-38.782 35.421,-76.743 47.402,-112.67c9.965,2.673 19.632,5.49 28.954,8.462c90.129,28.755 145.111,71.264 145.111,104.021c-0,34.891 -59.376,80.185 -155.787,109.79Zm-40.003,73.454c9.748,45.626 11.137,86.876 4.684,119.122c-5.802,28.978 -17.467,48.295 -31.895,56.034c-30.692,16.461 -96.335,-4.94 -167.129,-61.389c-8.115,-6.474 -16.287,-13.38 -24.49,-20.696c27.447,-27.814 54.875,-60.148 81.645,-96.061c47.086,-3.871 91.571,-10.203 131.912,-18.845c1.986,7.429 3.752,14.713 5.273,21.835Zm-404.545,172.31c-29.989,9.812 -53.874,10.094 -68.313,2.38c-30.723,-16.419 -43.495,-79.807 -26.074,-164.832c1.998,-9.738 4.372,-19.74 7.111,-29.965c39.896,8.176 84.057,14.06 131.254,17.607c26.953,35.141 55.172,67.439 83.612,95.722c-6.213,5.557 -12.403,10.849 -18.555,15.838c-37.792,30.61 -75.66,52.328 -109.035,63.25Zm-140.496,-245.979c-47.494,-15.044 -86.716,-34.594 -113.6,-55.928c-24.16,-19.169 -36.354,-38.204 -36.354,-53.647c-0,-32.866 52.874,-74.786 141.063,-103.277c10.702,-3.459 21.903,-6.717 33.527,-9.777c12.19,36.738 28.177,75.15 47.471,113.992c-19.545,39.421 -35.761,78.443 -48.069,115.614c-8.286,-2.21 -16.314,-4.534 -24.038,-6.977Zm47.095,-297.07c-18.305,-86.69 -6.149,-152.08 24.445,-168.492c32.583,-17.481 104.636,7.442 180.582,69.932c4.855,3.994 9.728,8.172 14.614,12.498c-28.3,28.16 -56.26,60.215 -82.973,95.151c-45.809,3.935 -89.658,10.253 -129.972,18.718c-2.534,-9.449 -4.779,-18.732 -6.696,-27.807Zm420.14,96.135c-9.637,-15.425 -19.533,-30.487 -29.619,-45.14c31.077,3.642 60.852,8.476 88.813,14.389c-8.393,24.93 -18.856,50.995 -31.172,77.72c-8.838,-15.545 -18.183,-31.217 -28.022,-46.969Zm-171.333,-154.64c19.191,19.268 38.413,40.778 57.318,64.118c-19.05,-0.832 -38.336,-1.266 -57.782,-1.266c-19.263,0 -38.404,0.423 -57.336,1.245c18.924,-23.125 38.309,-44.607 57.8,-64.097Zm-172.428,154.907c-9.626,15.468 -18.799,31.055 -27.497,46.673c-12.114,-26.629 -22.482,-52.814 -30.947,-78.1c27.789,-5.761 57.424,-10.475 88.303,-14.047c-10.231,14.787 -20.207,29.958 -29.859,45.471l-0,0.003Zm30.746,230.411c-31.903,-3.3 -61.983,-7.767 -89.765,-13.373c8.603,-25.734 19.195,-52.48 31.572,-79.681c8.716,15.605 17.924,31.196 27.61,46.701l0.004,0c9.866,15.792 20.089,31.266 30.579,46.353Zm142.835,109.401c-19.723,-19.715 -39.393,-41.529 -58.603,-64.988c18.65,0.676 37.662,1.026 56.986,1.026c19.853,-0 39.478,-0.417 58.794,-1.213c-18.966,23.883 -38.115,45.728 -57.177,65.175Zm198.598,-203.844c13.019,27.497 23.992,54.102 32.705,79.399c-28.239,5.972 -58.729,10.781 -90.856,14.353c10.113,-14.847 20.092,-30.17 29.901,-45.926c9.919,-15.947 19.343,-31.914 28.25,-47.826Zm-64.292,28.562c-15.226,24.464 -30.86,47.815 -46.725,69.861c-28.905,1.915 -58.764,2.902 -89.198,2.902c-30.312,-0 -59.794,-0.875 -88.185,-2.581c-16.508,-22.335 -32.481,-45.756 -47.608,-69.971l0.004,0c-15.09,-24.151 -28.977,-48.506 -41.559,-72.724c12.578,-24.271 26.431,-48.654 41.433,-72.759l-0.004,0.003c15.04,-24.168 30.872,-47.477 47.228,-69.671c28.965,-2.03 58.672,-3.088 88.691,-3.088c30.156,-0 59.898,1.068 88.855,3.113c16.105,22.032 31.83,45.263 46.931,69.438c15.272,24.447 29.3,48.665 41.989,72.418c-12.651,24.161 -26.648,48.626 -41.852,73.059Zm85.834,-430.57c32.614,17.431 45.299,87.722 24.806,179.901c-1.308,5.881 -2.777,11.871 -4.379,17.942c-40.409,-8.641 -84.289,-15.068 -130.231,-19.063c-26.762,-35.317 -54.494,-67.425 -82.333,-95.222c7.484,-6.67 14.956,-13.034 22.402,-19.038c71.905,-57.987 139.115,-80.883 169.735,-64.52Zm-221.757,276.536c48.035,0 86.976,36.086 86.976,80.597c-0,44.512 -38.941,80.597 -86.976,80.597c-48.034,0 -86.975,-36.085 -86.975,-80.597c0,-44.511 38.941,-80.597 86.975,-80.597Z" style="fill:#00d8ff;fill-rule:nonzero;"/></g></g></svg>