<!-- Generated by IcoMoon.io -->
<svg version="1.1" xmlns="http://www.w3.org/2000/svg" width="32" height="32" viewBox="0 0 32 32">
<title>group</title>
<path d="M25.128 2.002c2.56 0.096 4.772 2.292 4.87 4.87 0.078 6.084 0.078 12.172 0 18.256-0.096 2.56-2.292 4.772-4.87 4.87-6.084 0.078-12.172 0.078-18.256 0-2.558-0.096-4.772-2.29-4.87-4.87-0.078-6.084-0.078-12.172 0-18.256 0.096-2.56 2.292-4.772 4.87-4.87 6.084-0.078 12.172-0.078 18.256 0zM7.006 4c-1.57 0.020-2.946 1.348-3.004 2.922-0.078 6.078-0.23 12.16 0.002 18.234 0.094 1.484 1.354 2.746 2.84 2.84 6.1 0.232 12.212 0.232 18.312 0 1.48-0.094 2.746-1.35 2.84-2.84 0.232-6.1 0.232-12.212 0-18.312-0.094-1.48-1.35-2.746-2.84-2.84-6.046-0.23-12.1-0.004-18.15-0.004zM14 21h-4v-2h4v2zM26 21h-10v-2h10v2zM14 17h-4v-2h4v2zM26 17h-10v-2h10v2zM10 13h-4v-2h4v2zM26 13h-14v-2h14v2z"></path>
</svg>
