<svg width="128" height="96" viewBox="0 0 128 96" fill="none" xmlns="http://www.w3.org/2000/svg">
<g clip-path="url(#clip0_1_2)">
<path d="M120.101 94.9029H7.86286C3.98629 94.9029 0.73143 91.7211 0.73143 87.7714V8.00914C0.73143 4.13257 3.91314 0.877716 7.86286 0.877716H120.174C124.05 0.877716 127.305 4.05943 127.305 8.00914V87.7714C127.232 91.7211 124.087 94.9029 120.101 94.9029Z" fill="white"/>
<path d="M120.101 95.232H7.86286C3.76686 95.232 0.402287 91.8674 0.402287 87.7714V8.00914C0.402287 3.91314 3.69372 0.548573 7.86286 0.548573H120.174C124.27 0.548573 127.634 3.91314 127.634 8.00914V87.7714C127.561 91.8674 124.27 95.232 120.101 95.232ZM7.86286 1.20686C4.096 1.20686 1.06057 4.24229 1.06057 8.00914V87.7714C1.06057 91.5383 4.096 94.5737 7.86286 94.5737H120.174C123.941 94.5737 126.976 91.5383 126.976 87.7714V8.00914C126.976 4.24229 123.941 1.20686 120.174 1.20686H7.86286Z" fill="#CFD3D7"/>
<path d="M34.7063 19.7851C34.7063 20.7726 34.56 21.6137 34.2309 22.3451C33.9017 23.04 33.4629 23.6251 32.9143 24.0274L34.7429 25.4537L33.8286 26.2949L31.6709 24.576C31.3417 24.6491 30.976 24.6857 30.6103 24.6857C29.8057 24.6857 29.1109 24.5029 28.4891 24.1006C27.8674 23.6983 27.392 23.1497 27.0629 22.4183C26.7337 21.6869 26.5509 20.8457 26.5509 19.8949V19.1634C26.5509 18.176 26.7337 17.3349 27.0629 16.5669C27.392 15.7989 27.8674 15.2503 28.4891 14.848C29.1109 14.4457 29.8057 14.2629 30.6103 14.2629C31.4149 14.2629 32.1463 14.4457 32.768 14.848C33.3897 15.2503 33.8651 15.7989 34.1943 16.5669C34.5234 17.2983 34.7063 18.176 34.7063 19.1634V19.7851ZM33.3897 19.1269C33.3897 17.92 33.1337 17.0057 32.6583 16.3474C32.1829 15.6891 31.488 15.36 30.6103 15.36C29.7691 15.36 29.1109 15.6891 28.5989 16.3109C28.1234 16.9691 27.8674 17.8469 27.8309 19.0171V19.7486C27.8309 20.9189 28.0869 21.8331 28.5623 22.4914C29.0377 23.1497 29.7326 23.5154 30.6103 23.5154C31.488 23.5154 32.1463 23.1863 32.6217 22.5646C33.0971 21.9429 33.3531 21.0286 33.3531 19.8583V19.1269H33.3897ZM41.2526 23.808C40.7406 24.3931 40.0091 24.6857 39.0217 24.6857C38.2171 24.6857 37.5954 24.4663 37.1931 23.9909C36.7909 23.5154 36.5714 22.8206 36.5714 21.9063V17.0057H37.8514V21.9063C37.8514 23.04 38.3269 23.6251 39.2411 23.6251C40.2286 23.6251 40.8869 23.2594 41.216 22.528V17.0423H42.496V24.6126H41.2526V23.808ZM49.152 24.5394C49.0789 24.3931 49.0057 24.1371 48.9691 23.7349C48.384 24.3566 47.6526 24.6857 46.8114 24.6857C46.08 24.6857 45.4583 24.4663 44.9829 24.064C44.5074 23.6617 44.2514 23.1131 44.2514 22.4549C44.2514 21.6503 44.544 21.0651 45.1657 20.6263C45.7874 20.1874 46.592 19.968 47.6891 19.968H48.9326V19.3829C48.9326 18.944 48.7863 18.5783 48.5303 18.2857C48.2743 18.0297 47.872 17.8834 47.3234 17.8834C46.848 17.8834 46.4823 17.9931 46.1531 18.2491C45.824 18.4686 45.6777 18.7611 45.6777 19.0903H44.3611C44.3611 18.7246 44.5074 18.3589 44.7634 17.9931C45.0194 17.6274 45.3851 17.3714 45.8606 17.152C46.336 16.9326 46.8114 16.8594 47.36 16.8594C48.2377 16.8594 48.9326 17.0789 49.408 17.5177C49.92 17.9566 50.176 18.5417 50.176 19.3097V22.784C50.176 23.4789 50.2491 24.0274 50.432 24.4297V24.5394H49.152ZM46.9943 23.552C47.3966 23.552 47.7989 23.4423 48.1646 23.2229C48.5303 23.0034 48.7863 22.7474 48.9691 22.4183V20.8823H47.9451C46.3726 20.8823 45.568 21.3577 45.568 22.272C45.568 22.6743 45.7143 23.0034 45.9703 23.2229C46.2263 23.4423 46.592 23.552 46.9943 23.552ZM53.6869 24.5394H52.4069V13.824H53.6869V24.5394ZM55.7714 14.9943C55.7714 14.7749 55.8446 14.592 55.9543 14.4457C56.064 14.2994 56.2834 14.2263 56.5394 14.2263C56.7954 14.2263 56.9783 14.2994 57.1246 14.4457C57.2709 14.592 57.3074 14.7749 57.3074 14.9943C57.3074 15.2137 57.2343 15.3966 57.1246 15.5063C57.0149 15.616 56.7954 15.7257 56.5394 15.7257C56.2834 15.7257 56.1006 15.6526 55.9543 15.5063C55.808 15.36 55.7714 15.1771 55.7714 14.9943ZM57.1611 24.5394H55.8811V17.0057H57.1611V24.5394ZM60.9646 15.1406V16.9691H62.3909V17.9566H60.9646V22.6743C60.9646 22.9669 61.0377 23.2229 61.1474 23.3691C61.2571 23.5154 61.4766 23.5886 61.8057 23.5886C61.952 23.5886 62.1714 23.552 62.4274 23.5154V24.576C62.0983 24.6857 61.7691 24.7223 61.44 24.7223C60.8549 24.7223 60.416 24.5394 60.1234 24.2103C59.8309 23.8446 59.6846 23.3691 59.6846 22.7109V17.9931H58.2949V17.0057H59.6846V15.1771H60.9646V15.1406ZM66.3771 22.6743L68.1326 17.0057H69.5223L66.4869 25.7463C66.0114 26.9897 65.28 27.648 64.256 27.648L64 27.6114L63.5246 27.5383V26.4777L63.8903 26.5143C64.3291 26.5143 64.6583 26.4411 64.9143 26.2583C65.1703 26.0754 65.3531 25.7463 65.536 25.2709L65.8286 24.5029L63.1223 17.0057H64.5486L66.3771 22.6743ZM81.9566 23.2229C81.6274 23.7349 81.1154 24.1006 80.5303 24.32C79.9086 24.576 79.1771 24.6857 78.3726 24.6857C77.5314 24.6857 76.8 24.5029 76.1783 24.1006C75.5566 23.6983 75.0446 23.1497 74.6789 22.4549C74.3131 21.7234 74.1303 20.9189 74.1303 19.968V19.0903C74.1303 17.5543 74.496 16.384 75.1909 15.5063C75.9223 14.6651 76.9097 14.2263 78.1897 14.2263C79.2503 14.2263 80.0914 14.4823 80.7497 15.0309C81.408 15.5794 81.8103 16.3474 81.92 17.3349H80.5669C80.3109 15.9817 79.5063 15.3234 78.1531 15.3234C77.2389 15.3234 76.5806 15.6526 76.1051 16.2743C75.6297 16.896 75.4103 17.8103 75.4103 19.0171V19.8583C75.4103 20.992 75.6663 21.9063 76.1783 22.6011C76.6903 23.2594 77.4217 23.6251 78.2994 23.6251C78.8114 23.6251 79.2503 23.552 79.616 23.4423C79.9817 23.3326 80.3109 23.1497 80.5669 22.8937V20.6263H78.2629V19.5291H81.9566V23.2229ZM88.6491 24.5394C88.576 24.3931 88.5029 24.1371 88.4663 23.7349C87.8811 24.3566 87.1497 24.6857 86.3086 24.6857C85.5771 24.6857 84.9554 24.4663 84.48 24.064C84.0046 23.6617 83.7486 23.1131 83.7486 22.4549C83.7486 21.6503 84.0411 21.0651 84.6629 20.6263C85.2846 20.1874 86.0891 19.968 87.1863 19.968H88.4297V19.3829C88.4297 18.944 88.2834 18.5783 88.0274 18.2857C87.7714 18.0297 87.3691 17.8834 86.8206 17.8834C86.3451 17.8834 85.9794 17.9931 85.6503 18.2491C85.3211 18.4686 85.1749 18.7611 85.1749 19.0903H83.8583C83.8583 18.7246 84.0046 18.3589 84.2606 17.9931C84.5166 17.6274 84.8823 17.3714 85.3577 17.152C85.8331 16.9326 86.3086 16.8594 86.8571 16.8594C87.7349 16.8594 88.4297 17.0789 88.9051 17.5177C89.4171 17.9566 89.6731 18.5417 89.6731 19.3097V22.784C89.6731 23.4789 89.7463 24.0274 89.9291 24.4297V24.5394H88.6491ZM86.4914 23.552C86.8937 23.552 87.296 23.4423 87.6617 23.2229C88.0274 23.0034 88.2834 22.7474 88.4663 22.4183V20.8823H87.4423C85.8697 20.8823 85.0651 21.3577 85.0651 22.272C85.0651 22.6743 85.2114 23.0034 85.4674 23.2229C85.7234 23.4423 86.0891 23.552 86.4914 23.552ZM93.5131 15.1406V16.9691H94.9394V17.9566H93.5131V22.6743C93.5131 22.9669 93.5863 23.2229 93.696 23.3691C93.8057 23.5154 94.0251 23.5886 94.3543 23.5886C94.5006 23.5886 94.72 23.552 94.976 23.5154V24.576C94.6469 24.6857 94.3177 24.7223 93.9886 24.7223C93.4034 24.7223 92.9646 24.5394 92.672 24.2103C92.3794 23.8446 92.2331 23.3691 92.2331 22.7109V17.9931H90.8434V17.0057H92.2331V15.1771H93.5131V15.1406ZM99.584 24.6857C98.56 24.6857 97.7189 24.3566 97.0971 23.6617C96.4389 23.0034 96.1463 22.0891 96.1463 20.9554V20.6994C96.1463 19.9314 96.2926 19.2731 96.5851 18.688C96.8777 18.1029 97.28 17.6274 97.792 17.2983C98.304 16.9691 98.8526 16.7863 99.4743 16.7863C100.462 16.7863 101.23 17.1154 101.778 17.7737C102.327 18.432 102.583 19.3463 102.583 20.5531V21.1017H97.4629C97.4994 21.8331 97.6823 22.4549 98.1211 22.8937C98.5234 23.3691 99.072 23.5886 99.6937 23.5886C100.133 23.5886 100.535 23.4789 100.864 23.296C101.193 23.1131 101.449 22.8571 101.705 22.5646L102.51 23.1863C101.815 24.2103 100.864 24.6857 99.584 24.6857ZM99.4377 17.92C98.9257 17.92 98.4869 18.1029 98.1211 18.5051C97.7554 18.8709 97.536 19.4194 97.4629 20.1143H101.266V20.0046C101.23 19.3463 101.047 18.8343 100.718 18.4686C100.389 18.1029 99.9497 17.92 99.4377 17.92Z" fill="#434447"/>
<path d="M85.6869 59.5749H42.24C35.8034 59.5749 30.5737 54.3086 30.5737 47.9086C30.5737 41.472 35.84 36.2423 42.24 36.2423H85.6869C92.1234 36.2423 97.3531 41.5086 97.3531 47.9086C97.3531 54.3086 92.0869 59.5749 85.6869 59.5749Z" fill="#29BE4C"/>
<path d="M48.0914 48.9326V52.8457H45.824V41.7646H50.1029C50.944 41.7646 51.6754 41.9109 52.2971 42.2034C52.9189 42.496 53.4309 42.9349 53.76 43.52C54.0891 44.1051 54.272 44.7269 54.272 45.4217C54.272 46.5189 53.9063 47.36 53.1383 47.9817C52.4069 48.6034 51.3829 48.9326 50.0663 48.9326H48.0914ZM48.0914 47.104H50.1394C50.7611 47.104 51.2 46.9577 51.5291 46.6651C51.8583 46.3726 52.0046 45.9703 52.0046 45.4583C52.0046 44.9097 51.8583 44.4709 51.5291 44.1417C51.2 43.8126 50.7611 43.6297 50.2126 43.6297H48.128V47.104H48.0914ZM60.7451 50.5783H56.7223L55.9543 52.8457H53.5406L57.6731 41.7646H59.7943L63.9269 52.8457H61.5131L60.7451 50.5783ZM57.3806 48.7131H60.16L58.7703 44.5806L57.3806 48.7131ZM70.7291 49.9566C70.7291 49.5177 70.5829 49.1886 70.2903 48.9691C69.9977 48.7497 69.4491 48.4937 68.6446 48.2377C67.84 47.9817 67.2183 47.7257 66.7794 47.4697C65.536 46.7749 64.8777 45.8606 64.8777 44.7269C64.8777 44.1417 65.0606 43.5931 65.3897 43.1177C65.7189 42.6423 66.1943 42.2766 66.8526 42.0206C67.5109 41.7646 68.2057 41.6183 68.9737 41.6183C69.7783 41.6183 70.4731 41.7646 71.0949 42.0571C71.7166 42.3497 72.192 42.752 72.5211 43.264C72.8503 43.776 73.0331 44.3977 73.0331 45.056H70.7657C70.7657 44.544 70.6194 44.1417 70.2903 43.8857C69.9611 43.5931 69.5223 43.4469 68.9371 43.4469C68.3886 43.4469 67.9497 43.5566 67.6206 43.8126C67.328 44.032 67.1451 44.3611 67.1451 44.7634C67.1451 45.1291 67.328 45.4217 67.6937 45.6777C68.0594 45.9337 68.608 46.1531 69.3029 46.3726C70.6194 46.7749 71.5337 47.2503 72.1554 47.8354C72.7406 48.4206 73.0331 49.152 73.0331 49.9931C73.0331 50.944 72.6674 51.712 71.936 52.2606C71.2046 52.8091 70.2171 53.0651 69.0103 53.0651C68.1691 53.0651 67.3646 52.9189 66.6697 52.5897C65.9749 52.2606 65.4263 51.8583 65.0606 51.3097C64.6949 50.7611 64.512 50.1394 64.512 49.408H66.816C66.816 50.6149 67.5474 51.2366 69.0103 51.2366C69.5589 51.2366 69.9611 51.1269 70.2903 50.9074C70.5829 50.6514 70.7291 50.3589 70.7291 49.9566ZM80.3474 49.9566C80.3474 49.5177 80.2011 49.1886 79.9086 48.9691C79.616 48.7497 79.0674 48.4937 78.2629 48.2377C77.4583 47.9817 76.8366 47.7257 76.3977 47.4697C75.1543 46.7749 74.496 45.8606 74.496 44.7269C74.496 44.1417 74.6789 43.5931 75.008 43.1177C75.3371 42.6423 75.8126 42.2766 76.4709 42.0206C77.1291 41.7646 77.824 41.6183 78.592 41.6183C79.3966 41.6183 80.0914 41.7646 80.7131 42.0571C81.3349 42.3497 81.8103 42.752 82.1394 43.264C82.4686 43.776 82.6514 44.3977 82.6514 45.056H80.384C80.384 44.544 80.2377 44.1417 79.9086 43.8857C79.5794 43.5931 79.1406 43.4469 78.5554 43.4469C78.0069 43.4469 77.568 43.5566 77.2389 43.8126C76.9463 44.032 76.7634 44.3611 76.7634 44.7634C76.7634 45.1291 76.9463 45.4217 77.312 45.6777C77.6777 45.9337 78.2263 46.1531 78.9211 46.3726C80.2377 46.7749 81.152 47.2503 81.7737 47.8354C82.3589 48.4206 82.6514 49.152 82.6514 49.9931C82.6514 50.944 82.2857 51.712 81.5543 52.2606C80.8229 52.8091 79.8354 53.0651 78.6286 53.0651C77.7874 53.0651 76.9829 52.9189 76.288 52.5897C75.5931 52.2606 75.0446 51.8583 74.6789 51.3097C74.3131 50.7611 74.1303 50.1394 74.1303 49.408H76.4343C76.4343 50.6149 77.1657 51.2366 78.6286 51.2366C79.1771 51.2366 79.5794 51.1269 79.9086 50.9074C80.1646 50.6514 80.3474 50.3589 80.3474 49.9566Z" fill="white"/>
<path d="M110.629 74.7154C110.043 74.0206 109.275 73.5086 108.434 73.2526V73.216C108.434 70.6926 106.386 68.6446 103.863 68.6446C101.339 68.6446 99.2914 70.6926 99.2914 73.216V73.2891C97.4263 73.8743 96.0732 75.5931 96.0732 77.6411C96.0732 80.1646 98.1212 82.2126 100.645 82.2126C101.851 82.2126 103.022 81.7371 103.863 80.896C104.704 81.7006 105.838 82.2126 107.081 82.2126C109.605 82.2126 111.653 80.1646 111.653 77.6411C111.653 76.5806 111.287 75.52 110.629 74.7154ZM107.081 81.0423C105.179 81.0423 103.643 79.5063 103.643 77.6046C103.643 77.2754 103.387 77.0194 103.058 77.0194C102.729 77.0194 102.473 77.2754 102.473 77.6046C102.473 78.4457 102.693 79.2503 103.131 79.9451C102.473 80.64 101.595 81.0423 100.645 81.0423C98.7429 81.0423 97.2069 79.5063 97.2069 77.6046C97.2069 75.7029 98.7429 74.1669 100.645 74.1669C101.047 74.1669 101.449 74.24 101.815 74.3863C101.961 74.4229 102.144 74.5326 102.181 74.5691C102.437 74.7886 102.802 74.752 102.985 74.496C103.205 74.24 103.168 73.8743 102.912 73.6914C102.656 73.472 102.254 73.3257 102.181 73.2891C101.669 73.1063 101.157 72.9966 100.608 72.9966H100.389C100.462 71.168 101.961 69.7051 103.79 69.7051C105.691 69.7051 107.227 71.2411 107.227 73.1429C107.227 74.24 106.679 75.3006 105.801 75.9223C105.545 76.1051 105.472 76.4709 105.655 76.7269C105.765 76.8731 105.947 76.9829 106.13 76.9829C106.24 76.9829 106.35 76.9463 106.459 76.8731C107.337 76.2514 107.922 75.3737 108.215 74.3497C109.531 74.8251 110.446 76.1051 110.446 77.568C110.519 79.5063 108.983 81.0423 107.081 81.0423Z" fill="#F3702A"/>
<path d="M16.4937 78.9943C16.9691 79.2869 17.9566 79.616 18.688 79.616C19.456 79.616 19.7851 79.36 19.7851 78.9211C19.7851 78.4823 19.5291 78.2994 18.5783 77.9703C16.8594 77.3851 16.2011 76.4709 16.2377 75.4834C16.2377 73.9474 17.5543 72.7771 19.6023 72.7771C20.5531 72.7771 21.4309 72.9966 21.9429 73.2526L21.504 75.008C21.1383 74.7886 20.4069 74.5326 19.712 74.5326C19.0903 74.5326 18.7246 74.7886 18.7246 75.1909C18.7246 75.5931 19.0537 75.776 20.0411 76.1417C21.6137 76.6903 22.272 77.4583 22.272 78.7017C22.272 80.2377 21.0651 81.3714 18.688 81.3714C17.5909 81.3714 16.64 81.152 16.0183 80.7863L16.4937 78.9943ZM31.3051 77.0194C31.3051 80.0549 29.1474 81.408 26.9531 81.408C24.5394 81.408 22.6743 79.8354 22.6743 77.1657C22.6743 74.496 24.4297 72.8137 27.0629 72.8137C29.6229 72.8137 31.3051 74.5326 31.3051 77.0194ZM25.344 77.0926C25.344 78.5189 25.9291 79.5794 27.0263 79.5794C28.0137 79.5794 28.672 78.592 28.672 77.0926C28.672 75.8491 28.1966 74.6057 27.0263 74.6057C25.7829 74.6423 25.344 75.8857 25.344 77.0926ZM32.2194 75.6297C32.2194 74.6057 32.1829 73.728 32.1463 72.9966H34.3771L34.4869 74.1303H34.5234C34.8526 73.6183 35.6937 72.8137 37.0834 72.8137C38.7657 72.8137 40.0457 73.9109 40.0457 76.3611V81.2617H37.4857V76.6903C37.4857 75.6297 37.12 74.8983 36.1691 74.8983C35.4743 74.8983 35.0354 75.3737 34.8891 75.8491C34.816 75.9954 34.7794 76.2514 34.7794 76.5074V81.2617H32.2194V75.6297ZM46.1166 81.2251L45.9703 80.384H45.9337C45.3851 81.0423 44.544 81.408 43.5566 81.408C41.8743 81.408 40.8869 80.2011 40.8869 78.8846C40.8869 76.7269 42.8251 75.7029 45.7143 75.7394V75.6297C45.7143 75.1909 45.4949 74.5691 44.2149 74.5691C43.3737 74.5691 42.496 74.8617 41.9474 75.1909L41.472 73.5451C42.0571 73.216 43.1909 72.8137 44.6903 72.8137C47.4331 72.8137 48.3109 74.4229 48.3109 76.3611V79.2137C48.3109 80.0183 48.3474 80.7497 48.4206 81.2251H46.1166ZM45.824 77.3486C44.4709 77.3486 43.4103 77.6411 43.4103 78.6651C43.4103 79.3234 43.8491 79.6526 44.4343 79.6526C45.0926 79.6526 45.6046 79.2137 45.7509 78.7017C45.7874 78.5554 45.7874 78.4091 45.7874 78.2629L45.824 77.3486ZM49.664 75.7029C49.664 74.496 49.6274 73.6914 49.5909 72.9966H51.7851L51.8583 74.496H51.9314C52.3703 73.2891 53.3577 72.7771 54.1623 72.7771C54.3817 72.7771 54.528 72.7771 54.7109 72.8137V75.2274C54.528 75.1909 54.3086 75.1543 54.016 75.1543C53.0651 75.1543 52.4434 75.6663 52.2606 76.4709C52.224 76.6537 52.224 76.8366 52.224 77.056V81.2251H49.664V75.7029ZM61.4034 80.9326C61.0011 81.152 60.16 81.408 59.0629 81.408C56.6126 81.408 55.0034 79.7257 55.0034 77.2389C55.0034 74.7154 56.7223 72.8869 59.392 72.8869C60.2697 72.8869 61.0377 73.1063 61.44 73.3257L61.1109 74.4594C60.7451 74.24 60.1966 74.0571 59.392 74.0571C57.5269 74.0571 56.5029 75.4469 56.5029 77.1291C56.5029 79.0309 57.7097 80.1646 59.3189 80.1646C60.16 80.1646 60.7086 79.9451 61.1474 79.7623L61.4034 80.9326ZM62.5006 69.2663H64V81.2251H62.5006V69.2663ZM73.1794 77.0926C73.1794 80.128 71.0949 81.4446 69.12 81.4446C66.9257 81.4446 65.2069 79.8354 65.2069 77.2389C65.2069 74.496 66.9989 72.8869 69.2663 72.8869C71.6069 72.8869 73.1794 74.6057 73.1794 77.0926ZM66.7063 77.1657C66.7063 78.9577 67.7303 80.3109 69.1931 80.3109C70.6194 80.3109 71.68 78.9943 71.68 77.1291C71.68 75.7394 70.9851 73.984 69.2297 73.984C67.4743 74.0206 66.7063 75.6297 66.7063 77.1657ZM81.2251 78.9943C81.2251 79.8354 81.2251 80.5669 81.2983 81.2251H79.9817L79.9086 79.9086H79.872C79.4697 80.5669 78.6286 81.4446 77.1657 81.4446C75.8857 81.4446 74.3497 80.7497 74.3497 77.8606V73.0697H75.8491V77.6046C75.8491 79.1406 76.3246 80.2011 77.6777 80.2011C78.6651 80.2011 79.36 79.5063 79.616 78.848C79.6891 78.6286 79.7623 78.3726 79.7623 78.08V73.0697H81.2617V78.9943H81.2251ZM90.0389 69.2663V79.1406C90.0389 79.872 90.0389 80.6766 90.112 81.2617H88.7954L88.7223 79.8354H88.6857C88.2469 80.7497 87.2229 81.4446 85.9063 81.4446C83.9314 81.4446 82.432 79.7623 82.432 77.312C82.432 74.6057 84.1143 72.9234 86.0891 72.9234C87.3326 72.9234 88.1737 73.5086 88.5394 74.1669H88.576V69.3029L90.0389 69.2663ZM88.576 76.3977C88.576 76.2149 88.576 75.9589 88.5029 75.776C88.2834 74.8251 87.4789 74.0571 86.3451 74.0571C84.8091 74.0571 83.8949 75.4103 83.8949 77.2023C83.8949 78.848 84.6994 80.2377 86.3086 80.2377C87.296 80.2377 88.2103 79.5794 88.4663 78.4823C88.5029 78.2629 88.5394 78.08 88.5394 77.824L88.576 76.3977Z" fill="#1B171B"/>
</g>
<defs>
<clipPath id="clip0_1_2">
<rect width="128" height="96" fill="white"/>
</clipPath>
</defs>
</svg>
