<?xml version="1.0" encoding="utf-8"?>
<!-- Generator: Adobe Illustrator 23.1.0, SVG Export Plug-In . SVG Version: 6.00 Build 0)  -->
<svg version="1.1" id="Layer_1" xmlns="http://www.w3.org/2000/svg" xmlns:xlink="http://www.w3.org/1999/xlink" x="0px" y="0px"
	 viewBox="0 0 219 243.7" style="enable-background:new 0 0 219 243.7;" xml:space="preserve">
<style type="text/css">
	.st0{fill:#FFF2C9;stroke:#000000;stroke-miterlimit:10;}
	.st1{fill:#BFE8FF;}
	.st2{font-family:'ArialMT';}
	.st3{font-size:12px;}
	.st4{fill:#FFD98A;}
</style>
<g>
	<rect x="1" y="0.9" class="st0" width="217" height="241.9"/>
	<path class="st0" d="M217.5,1.3v241.1H1.5V1.3H217.5 M218.5,0.5H0.5v242.7h218V0.5L218.5,0.5z"/>
</g>
<g>
	<g>
		<rect x="58.9" y="127" class="st1" width="71.1" height="21.5"/>
		<path d="M129.5,127.5V148H59.4v-20.5H129.5 M130.5,126.5H58.4V149h72.1V126.5L130.5,126.5z"/>
	</g>
	<text transform="matrix(1 0 0 1 68.0364 141.5357)" class="st2 st3">Row Node</text>
</g>
<g>
	<g>
		<rect x="58.9" y="127" class="st1" width="71.1" height="21.5"/>
		<path d="M129.5,127.5V148H59.4v-20.5H129.5 M130.5,126.5H58.4V149h72.1V126.5L130.5,126.5z"/>
	</g>
	<text transform="matrix(1 0 0 1 68.0364 141.5357)" class="st2 st3">Row Node</text>
</g>
<text transform="matrix(1 0 0 1 8.1455 16.3647)" class="st2 st3">Server Side Row Model</text>
<g>
	<rect x="25" y="39" class="st4" width="134" height="179.3"/>
	<path d="M158.5,39.4v178.5h-133V39.4H158.5 M159.5,38.5h-135v180.2h135V38.5L159.5,38.5z"/>
</g>
<text transform="matrix(1 0 0 1 33.6972 55.5716)" class="st2 st3">Row Store</text>
<g>
	<g>
		<rect x="56.9" y="76" class="st1" width="71.1" height="21.5"/>
		<path d="M127.5,76.5V97H57.4V76.5H127.5 M128.5,75.5H56.4V98h72.1V75.5L128.5,75.5z"/>
	</g>
	<text transform="matrix(1 0 0 1 66.0547 90.5714)" class="st2 st3">Row Node</text>
</g>
<g>
	<g>
		<rect x="56.9" y="110.3" class="st1" width="71.1" height="21.5"/>
		<path d="M127.5,110.8v20.5H57.4v-20.5H127.5 M128.5,109.8H56.4v22.5h72.1V109.8L128.5,109.8z"/>
	</g>
	<text transform="matrix(1 0 0 1 66.0547 124.826)" class="st2 st3">Row Node</text>
</g>
<g>
	<g>
		<rect x="56.9" y="144.5" class="st1" width="71.1" height="21.5"/>
		<path d="M127.5,145v20.5H57.4V145H127.5 M128.5,144H56.4v22.5h72.1V144L128.5,144z"/>
	</g>
	<text transform="matrix(1 0 0 1 66.0547 159.0806)" class="st2 st3">Row Node</text>
</g>
<g>
	<g>
		<rect x="56.5" y="178.8" class="st1" width="71.1" height="21.5"/>
		<path d="M127.1,179.3v20.5H57v-20.5H127.1 M128.1,178.3H56v22.5h72.1V178.3L128.1,178.3z"/>
	</g>
	<text transform="matrix(1 0 0 1 65.6048 193.3352)" class="st2 st3">Row Node</text>
</g>
</svg>
