<svg width="32" height="32" viewBox="0 0 32 32" fill="none" xmlns="http://www.w3.org/2000/svg">
<path d="M26.667 5.33301H5.33366C3.86699 5.33301 2.68033 6.53301 2.68033 7.99967L2.66699 23.9997C2.66699 25.4663 3.86699 26.6663 5.33366 26.6663H26.667C28.1337 26.6663 29.3337 25.4663 29.3337 23.9997V7.99967C29.3337 6.53301 28.1337 5.33301 26.667 5.33301ZM25.3337 23.9997H6.66699C5.93366 23.9997 5.33366 23.3997 5.33366 22.6663V10.6663L14.587 16.453C15.4537 16.9997 16.547 16.9997 17.4137 16.453L26.667 10.6663V22.6663C26.667 23.3997 26.067 23.9997 25.3337 23.9997ZM16.0003 14.6663L5.33366 7.99967H26.667L16.0003 14.6663Z" fill="#858585"/>
</svg>
