<svg width="66" height="54" viewBox="0 0 66 54" fill="none" xmlns="http://www.w3.org/2000/svg">
<g filter="url(#filter0_d_1666_1580)">
<g clip-path="url(#clip0_1666_1580)">
<g clip-path="url(#clip1_1666_1580)">
<rect width="47.9531" height="35.9648" transform="translate(9 3)" fill="white"/>
<path fill-rule="evenodd" clip-rule="evenodd" d="M9 3V38.9648H56.9531V3H9Z" fill="#FFB400"/>
<mask id="mask0_1666_1580" style="mask-type:luminance" maskUnits="userSpaceOnUse" x="9" y="3" width="48" height="36">
<path fill-rule="evenodd" clip-rule="evenodd" d="M9 3V38.9648H56.9531V3H9Z" fill="white"/>
</mask>
<g mask="url(#mask0_1666_1580)">
<path fill-rule="evenodd" clip-rule="evenodd" d="M9 3V11.9912H56.9531V3H9Z" fill="#C51918"/>
<path fill-rule="evenodd" clip-rule="evenodd" d="M9 29.9736V38.9648H56.9531V29.9736H9Z" fill="#C51918"/>
<rect x="16.5048" y="18.3929" width="1.67836" height="8.72747" fill="#F1F9FF"/>
<path fill-rule="evenodd" clip-rule="evenodd" d="M18.8544 16.8827H15.8334V17.7219H16.3368V18.3932H18.3509V17.7219H18.8544V16.8827Z" fill="#C88A02"/>
<path fill-rule="evenodd" clip-rule="evenodd" d="M18.3509 27.6241H18.8544V28.4633H15.8334V27.6241H16.3369V26.9528H18.3509V27.6241Z" fill="#C88A02"/>
<path fill-rule="evenodd" clip-rule="evenodd" d="M17.3438 17.0503C17.709 17.0503 17.7462 16.9128 17.9616 16.7074C18.129 16.5479 18.5186 16.35 18.5186 16.1272C18.5186 15.6174 17.9926 15.2041 17.3438 15.2041C16.6949 15.2041 16.1689 15.6174 16.1689 16.1272C16.1689 16.3755 16.4373 16.5415 16.6402 16.7074C16.854 16.8821 17.0109 17.0503 17.3438 17.0503Z" fill="#AD1619"/>
<path fill-rule="evenodd" clip-rule="evenodd" d="M15.8334 28.463H18.8544V29.8057C18.8544 29.8057 18.4768 29.6379 18.0992 29.6379C17.7215 29.6379 17.3439 29.8057 17.3439 29.8057C17.3439 29.8057 16.9663 29.6379 16.5886 29.6379C16.211 29.6379 15.8334 29.8057 15.8334 29.8057V28.463Z" fill="#005BBF"/>
<mask id="mask1_1666_1580" style="mask-type:luminance" maskUnits="userSpaceOnUse" x="15" y="28" width="4" height="2">
<path fill-rule="evenodd" clip-rule="evenodd" d="M15.8334 28.463H18.8544V29.8057C18.8544 29.8057 18.4768 29.6379 18.0992 29.6379C17.7215 29.6379 17.3439 29.8057 17.3439 29.8057C17.3439 29.8057 16.9663 29.6379 16.5886 29.6379C16.211 29.6379 15.8334 29.8057 15.8334 29.8057V28.463Z" fill="white"/>
</mask>
<g mask="url(#mask1_1666_1580)">
</g>
<rect x="32.9528" y="18.3929" width="1.67836" height="8.72747" fill="#F1F9FF"/>
<path fill-rule="evenodd" clip-rule="evenodd" d="M35.3025 16.8827H32.2815V17.7219H32.7849V18.3932H34.7989V17.7219H35.3025V16.8827Z" fill="#C88A02"/>
<path fill-rule="evenodd" clip-rule="evenodd" d="M34.799 27.6241H35.3025V28.4633H32.2815V27.6241H32.785V26.9528H34.799V27.6241Z" fill="#C88A02"/>
<path fill-rule="evenodd" clip-rule="evenodd" d="M33.7918 17.0503C34.157 17.0503 34.1942 16.9128 34.4096 16.7074C34.577 16.5479 34.9666 16.35 34.9666 16.1272C34.9666 15.6174 34.4406 15.2041 33.7918 15.2041C33.1429 15.2041 32.6169 15.6174 32.6169 16.1272C32.6169 16.3755 32.8853 16.5415 33.0882 16.7074C33.302 16.8821 33.4589 17.0503 33.7918 17.0503Z" fill="#AD1619"/>
<path fill-rule="evenodd" clip-rule="evenodd" d="M32.2815 28.463H35.3025V29.8057C35.3025 29.8057 34.9249 29.6379 34.5473 29.6379C34.1696 29.6379 33.792 29.8057 33.792 29.8057C33.792 29.8057 33.4144 29.6379 33.0368 29.6379C32.6591 29.6379 32.2815 29.8057 32.2815 29.8057V28.463Z" fill="#005BBF"/>
<mask id="mask2_1666_1580" style="mask-type:luminance" maskUnits="userSpaceOnUse" x="32" y="28" width="4" height="2">
<path fill-rule="evenodd" clip-rule="evenodd" d="M32.2815 28.463H35.3025V29.8057C35.3025 29.8057 34.9249 29.6379 34.5473 29.6379C34.1696 29.6379 33.792 29.8057 33.792 29.8057C33.792 29.8057 33.4144 29.6379 33.0368 29.6379C32.6591 29.6379 32.2815 29.8057 32.2815 29.8057V28.463Z" fill="white"/>
</mask>
<g mask="url(#mask2_1666_1580)">
</g>
<path fill-rule="evenodd" clip-rule="evenodd" d="M34.0344 25.4418C34.0344 25.7963 34.2037 26.13 34.5062 26.4969L35.5368 25.6469L35.6352 25.6166L35.6901 25.1872C35.7914 24.3937 35.4523 23.9542 34.7536 23.6365L34.7055 23.6153C34.6097 23.5733 34.4007 23.4815 34.3301 23.4477C34.1826 23.3769 34.061 23.3068 33.9475 23.2242C33.8355 23.1428 33.7154 23.066 33.5705 22.982C34.4352 22.843 34.9025 22.7406 35.2609 22.5861C36.1188 22.2165 36.2294 21.3582 35.4049 20.7904C34.2808 20.0163 31.2716 19.9467 29.9509 20.6286L30.5668 21.8216C31.2149 21.487 32.6884 21.4239 33.7202 21.5956C33.5633 21.623 33.3873 21.6519 33.1901 21.6829C33.0973 21.6974 32.8275 21.7392 32.6865 21.7609L32.6863 21.761L32.6006 21.7742C32.1885 21.8383 31.9073 21.9197 31.699 22.0616C31.2737 22.3511 31.2107 22.8728 31.5142 23.2576C31.6423 23.4201 31.8098 23.5416 32.0633 23.6887C32.1447 23.7359 32.2323 23.784 32.3499 23.8467L32.4111 23.8792L32.4122 23.8798C32.4845 23.9182 32.597 23.9779 32.6386 24.0002C32.8806 24.1302 33.0393 24.224 33.1578 24.3101C33.3433 24.4451 33.5336 24.5548 33.7496 24.6584C33.8658 24.7141 34.1996 24.8596 34.1978 24.8587L34.2175 24.8676C34.101 25.0253 34.0344 25.2183 34.0344 25.4418ZM16.4747 26.497C16.7773 26.1301 16.9465 25.7964 16.9465 25.4419C16.9465 25.2184 16.88 25.0254 16.7635 24.8677L16.7832 24.8588C16.7814 24.8596 17.1151 24.7141 17.2313 24.6584C17.4473 24.5548 17.6377 24.4451 17.8232 24.3102C17.9417 24.224 18.1004 24.1302 18.3424 24.0003C18.3842 23.9778 18.4975 23.9177 18.5697 23.8793L18.5698 23.8793L18.6311 23.8468C18.7487 23.784 18.8363 23.7359 18.9176 23.6887C19.1711 23.5417 19.3387 23.4201 19.4668 23.2577C19.7703 22.8728 19.7073 22.3512 19.282 22.0616C19.0736 21.9198 18.7925 21.8384 18.3803 21.7743L18.2949 21.7611L18.2947 21.761C18.1538 21.7392 17.8837 21.6975 17.7909 21.6829C17.5936 21.652 17.4177 21.623 17.2608 21.5956C18.2926 21.4239 19.766 21.487 20.4141 21.8217L21.0301 20.6286C19.7094 19.9467 16.7001 20.0163 15.576 20.7905C14.7515 21.3583 14.8622 22.2166 15.72 22.5862C16.0785 22.7406 16.5458 22.8431 17.4105 22.982C17.2656 23.0661 17.1454 23.1429 17.0335 23.2243C16.92 23.3069 16.7983 23.377 16.6508 23.4477C16.5803 23.4815 16.3713 23.5733 16.2755 23.6153L16.2755 23.6153L16.2274 23.6365C15.5287 23.9543 15.1895 24.3938 15.2909 25.1872L15.3457 25.6167L15.4441 25.6469L16.4747 26.497ZM15.6109 25.387L15.6088 25.3931L15.6104 25.3888L15.6109 25.387Z" fill="#AD1619"/>
<path d="M17.8765 21.582L18.3718 21.6845V22.4229C17.8442 22.8439 16.5048 23.5535 16.5048 23.5535V21.582H17.8765Z" fill="#F1F9FF"/>
<path d="M33.448 21.582L32.9526 21.6845V22.4229C33.4802 22.8439 34.8197 23.5535 34.8197 23.5535V21.582H33.448Z" fill="#F1F9FF"/>
<path fill-rule="evenodd" clip-rule="evenodd" d="M31.1423 13.7985V13.5528C30.279 12.9332 29.3749 12.6234 28.4302 12.6234C27.5244 12.2226 26.6076 12.067 25.6798 12.1567C25.68 12.1538 25.6802 12.1524 25.6802 12.1524C24.2851 12.0159 22.8791 12.6234 22.8791 12.6234C21.4619 12.6234 20.167 13.5528 20.167 13.5528V13.7985L21.8598 15.4987C21.8598 15.4987 22.3361 17.1345 25.6715 16.7507C25.6727 16.7533 25.6733 16.7546 25.6733 16.7546C25.6733 16.7546 27.8826 16.6943 28.0379 16.6426C28.0995 16.6222 28.1634 16.6035 28.2286 16.5844C28.6614 16.4581 29.1554 16.3139 29.4495 15.4986L31.1423 13.7985ZM25.6722 12.2446C25.6652 12.327 25.6541 12.4613 25.6411 12.6329C25.6577 12.5099 25.6688 12.3809 25.6722 12.2446Z" fill="#AD1619"/>
<path fill-rule="evenodd" clip-rule="evenodd" d="M20.2687 14.0868L20.3837 13.9646L21.9208 15.4108C22.2126 15.3324 23.7963 14.9288 25.5653 14.9089V14.9082L25.6326 14.9084L25.6999 14.9082V14.9089C27.6598 14.9309 29.3923 15.4239 29.3923 15.4239C29.3923 15.4239 29.3737 15.5829 29.3287 15.7699C29.3764 15.672 29.4329 15.5632 29.4983 15.4432L29.5145 15.4222L31.0638 13.9646L31.1788 14.0869L29.6393 15.5352C29.4147 15.9489 29.3016 16.2219 29.3016 16.3353C29.3016 16.5083 28.8515 16.611 27.9729 16.7165C27.2846 16.7991 26.4723 16.8546 25.8079 16.8629V16.8639L25.7256 16.8637L25.6396 16.864V16.8629C24.9751 16.8546 24.1628 16.7991 23.4745 16.7165C22.596 16.611 22.1458 16.5083 22.1458 16.3353C22.1458 16.3138 22.1418 16.2866 22.1337 16.2538C22.0452 16.141 21.983 15.9567 21.9416 15.7904C21.9026 15.7125 21.8581 15.6273 21.8081 15.5352L20.2687 14.0868ZM28.8603 16.3387C28.9779 16.3937 29.0722 16.3388 29.1467 16.2335C29.1402 16.2625 29.1362 16.2888 29.1346 16.3123C29.1248 16.3188 29.1097 16.3265 29.0899 16.3348C29.0346 16.3581 28.9501 16.3828 28.8403 16.4079C28.6244 16.4572 28.3171 16.5061 27.9529 16.5498C27.2424 16.6352 26.3976 16.6913 25.7256 16.6958C25.053 16.6915 24.2064 16.6353 23.4945 16.5498C23.1303 16.5061 22.823 16.4571 22.6071 16.4079C22.5152 16.3869 22.4411 16.3661 22.3869 16.3463C22.3928 16.344 22.3988 16.3415 22.4049 16.3387C22.7715 16.1671 25.196 16.0061 25.6326 15.9783C26.0692 16.0061 28.4937 16.1671 28.8603 16.3387ZM29.3224 16.3079C29.3218 16.3084 29.3211 16.3092 29.3202 16.3104L29.3214 16.3087L29.3224 16.3079Z" fill="#C88A02"/>
<path fill-rule="evenodd" clip-rule="evenodd" d="M25.6519 11.0128C25.93 11.0128 26.1555 10.7873 26.1555 10.5092C26.1555 10.2312 25.93 10.0057 25.6519 10.0057C25.3739 10.0057 25.1484 10.2312 25.1484 10.5092C25.1484 10.7873 25.3739 11.0128 25.6519 11.0128Z" fill="#005BBF"/>
<path fill-rule="evenodd" clip-rule="evenodd" d="M25.4641 9.10901H25.8138V9.32998H26.0423V9.67964H25.8138V10.3789H26.0423V10.7285H25.2322V10.3789H25.4641V9.67964H25.2322V9.32998H25.4641V9.10901Z" fill="#C88A02"/>
<rect x="25.4001" y="11.0082" width="0.671344" height="2.18187" fill="#C88A02"/>
<path d="M20.5504 13.9346L19.6284 13.9C20.0634 11.386 22.2057 10.1543 25.6289 10.1543C29.0567 10.1543 31.1914 11.3914 31.5936 13.9147L30.3467 14.0454C30.151 12.8175 28.0943 11.7063 25.647 11.7063C23.1952 11.7063 20.7644 12.6974 20.5504 13.9346Z" fill="#C88A02"/>
<path opacity="0.3" fill-rule="evenodd" clip-rule="evenodd" d="M20.1969 16.8827H31.1062V26.6844C31.1062 26.6844 30.2959 29.9739 25.6516 29.9739C21.0073 29.9739 20.1969 26.5976 20.1969 26.5976V16.8827Z" fill="#E1E5E8"/>
<mask id="mask3_1666_1580" style="mask-type:luminance" maskUnits="userSpaceOnUse" x="20" y="16" width="12" height="14">
<path fill-rule="evenodd" clip-rule="evenodd" d="M20.1969 16.8827H31.1062V26.6844C31.1062 26.6844 30.2959 29.9739 25.6516 29.9739C21.0073 29.9739 20.1969 26.5976 20.1969 26.5976V16.8827Z" fill="white"/>
</mask>
<g mask="url(#mask3_1666_1580)">
<rect x="20.1969" y="22.9247" width="5.53859" height="6.5456" fill="#FFC034"/>
<rect x="20.1969" y="16.7147" width="5.53859" height="6.37777" fill="#AD1619"/>
<rect x="25.5676" y="22.7568" width="5.53859" height="6.37777" fill="#AD1619"/>
<rect x="25.5676" y="16.8827" width="5.87426" height="6.20993" fill="#F1F9FF"/>
<path fill-rule="evenodd" clip-rule="evenodd" d="M29.2043 29.1387C29.2043 29.1387 25.6495 29.4182 25.6495 27.1255C25.6495 27.1255 25.6156 29.1387 21.9037 29.1387V30.9487H29.2043V29.1387Z" fill="#F1F9FF"/>
<path fill-rule="evenodd" clip-rule="evenodd" d="M25.6517 24.2674C26.3469 24.2674 26.9105 23.6663 26.9105 22.9247C26.9105 22.1832 26.3469 21.582 25.6517 21.582C24.9565 21.582 24.3929 22.1832 24.3929 22.9247C24.3929 23.6663 24.9565 24.2674 25.6517 24.2674Z" fill="#005BBF" stroke="#AD1619" stroke-width="1.74829"/>
</g>
<path fill-rule="evenodd" clip-rule="evenodd" d="M22.4868 20.9824C23.3144 20.9824 23.9854 20.3115 23.9854 19.4839C23.9854 18.6563 23.3144 17.9854 22.4868 17.9854C21.6592 17.9854 20.9883 18.6563 20.9883 19.4839C20.9883 20.3115 21.6592 20.9824 22.4868 20.9824Z" fill="#C88A02"/>
<path fill-rule="evenodd" clip-rule="evenodd" d="M28.481 20.9824C29.3086 20.9824 29.9795 20.3115 29.9795 19.4839C29.9795 18.6563 29.3086 17.9854 28.481 17.9854C27.6533 17.9854 26.9824 18.6563 26.9824 19.4839C26.9824 20.3115 27.6533 20.9824 28.481 20.9824Z" fill="#C37C9C"/>
<path fill-rule="evenodd" clip-rule="evenodd" d="M28.481 26.9766C29.3086 26.9766 29.9795 26.3056 29.9795 25.478C29.9795 24.6504 29.3086 23.9795 28.481 23.9795C27.6533 23.9795 26.9824 24.6504 26.9824 25.478C26.9824 26.3056 27.6533 26.9766 28.481 26.9766Z" fill="#FFC034"/>
<path d="M22.4868 26.9766C23.3144 26.9766 23.9854 26.3056 23.9854 25.478C23.9854 24.6504 23.3144 23.9795 22.4868 23.9795C21.6592 23.9795 20.9883 24.6504 20.9883 25.478C20.9883 26.3056 21.6592 26.9766 22.4868 26.9766Z" fill="#AD1619"/>
</g>
</g>
<rect x="9" y="3" width="47.9531" height="35.9648" fill="url(#paint0_linear_1666_1580)" style="mix-blend-mode:overlay"/>
</g>
<rect x="10.4985" y="4.49854" width="44.9561" height="32.9678" rx="1.49854" stroke="black" stroke-opacity="0.1" stroke-width="2.99707" style="mix-blend-mode:multiply"/>
</g>
<defs>
<filter id="filter0_d_1666_1580" x="0.00878906" y="0.00292969" width="65.9355" height="53.9473" filterUnits="userSpaceOnUse" color-interpolation-filters="sRGB">
<feFlood flood-opacity="0" result="BackgroundImageFix"/>
<feColorMatrix in="SourceAlpha" type="matrix" values="0 0 0 0 0 0 0 0 0 0 0 0 0 0 0 0 0 0 127 0" result="hardAlpha"/>
<feOffset dy="5.99414"/>
<feGaussianBlur stdDeviation="4.49561"/>
<feColorMatrix type="matrix" values="0 0 0 0 0 0 0 0 0 0 0 0 0 0 0 0 0 0 0.1 0"/>
<feBlend mode="normal" in2="BackgroundImageFix" result="effect1_dropShadow_1666_1580"/>
<feBlend mode="normal" in="SourceGraphic" in2="effect1_dropShadow_1666_1580" result="shape"/>
</filter>
<linearGradient id="paint0_linear_1666_1580" x1="32.9766" y1="3" x2="32.9766" y2="38.9648" gradientUnits="userSpaceOnUse">
<stop stop-color="white" stop-opacity="0.7"/>
<stop offset="1" stop-opacity="0.3"/>
</linearGradient>
<clipPath id="clip0_1666_1580">
<rect x="9" y="3" width="47.9531" height="35.9648" rx="2.99707" fill="white"/>
</clipPath>
<clipPath id="clip1_1666_1580">
<rect width="47.9531" height="35.9648" fill="white" transform="translate(9 3)"/>
</clipPath>
</defs>
</svg>
