<svg width="32" height="32" viewBox="0 0 32 32" fill="none" xmlns="http://www.w3.org/2000/svg">
<path fill-rule="evenodd" clip-rule="evenodd" d="M12.5723 11.959H17.5243V14.4257C18.2377 13.007 20.067 11.7323 22.815 11.7323C28.083 11.7323 29.3337 14.5563 29.3337 19.7377V29.3337H24.0003V20.9177C24.0003 17.967 23.287 16.303 21.471 16.303C18.9523 16.303 17.9057 18.0963 17.9057 20.9163V29.3337H12.5723V11.959ZM3.42699 29.107H8.76033V11.7323H3.42699V29.107ZM9.52433 6.06699C9.52452 6.51403 9.43587 6.95664 9.26351 7.36911C9.09115 7.78158 8.83853 8.15568 8.52033 8.46966C7.87553 9.11049 7.00274 9.4692 6.09366 9.46699C5.18618 9.46638 4.31541 9.10859 3.66966 8.47099C3.35261 8.15594 3.10084 7.78142 2.92878 7.3689C2.75673 6.95638 2.66776 6.51396 2.66699 6.06699C2.66699 5.16433 3.02699 4.30033 3.67099 3.66299C4.31617 3.02454 5.18731 2.66659 6.09499 2.66699C7.00433 2.66699 7.87633 3.02566 8.52033 3.66299C9.16299 4.30033 9.52433 5.16433 9.52433 6.06699Z" fill="#808080"/>
</svg>
