<svg width="66" height="54" viewBox="0 0 66 54" fill="none" xmlns="http://www.w3.org/2000/svg">
<g filter="url(#filter0_d_1666_1759)">
<g clip-path="url(#clip0_1666_1759)">
<g clip-path="url(#clip1_1666_1759)">
<rect width="47.9531" height="35.9648" transform="translate(9 3)" fill="white"/>
<path fill-rule="evenodd" clip-rule="evenodd" d="M20.9883 3H56.9531V38.9648H20.9883V3Z" fill="#EF0000"/>
<path fill-rule="evenodd" clip-rule="evenodd" d="M9 3H26.9824V38.9648H9V3Z" fill="#2F8D00"/>
<mask id="mask0_1666_1759" style="mask-type:luminance" maskUnits="userSpaceOnUse" x="15" y="9" width="24" height="24">
<path fill-rule="evenodd" clip-rule="evenodd" d="M26.8397 32.682C20.4552 32.682 15.2795 27.444 15.2795 20.9826C15.2795 14.5212 20.4552 9.2832 26.8397 9.2832C33.2242 9.2832 38.3998 14.5212 38.3998 20.9826C38.3998 27.444 33.2242 32.682 26.8397 32.682Z" fill="white"/>
</mask>
<g mask="url(#mask0_1666_1759)">
<path fill-rule="evenodd" clip-rule="evenodd" d="M26.126 8.99414H27.6245V13.0384H26.126V8.99414Z" fill="#FFE017"/>
<path fill-rule="evenodd" clip-rule="evenodd" d="M26.126 29.2156H27.6245V32.9709H26.126V29.2156Z" fill="#FFE017"/>
<path d="M15.4655 21.5875L15.0465 20.5126C19.6698 18.6669 23.1592 17.4766 25.5269 16.9401C29.0007 16.1531 32.8175 15.5708 36.9778 15.1927L37.0799 16.3436C32.9674 16.7173 29.1994 17.2921 25.7763 18.0677C23.4791 18.5882 20.0381 19.7619 15.4655 21.5875Z" fill="#FFE017"/>
<path d="M37.6832 14.4849L37.3432 15.588C33.8491 14.4849 31.0027 14.0107 28.8148 14.1576L28.7393 13.0046C31.0883 12.8469 34.0661 13.343 37.6832 14.4849Z" fill="#FFE017"/>
<path d="M38.8922 20.6525L38.2463 21.6053C36.4651 20.3686 34.2706 19.7474 31.6478 19.7474V18.5919C34.4911 18.5919 36.9109 19.2769 38.8922 20.6525Z" fill="#FFE017"/>
<path d="M37.9248 20.9985L38.22 22.1147C34.3798 23.1549 30.7744 23.7451 27.4035 23.8841C24.0094 24.024 20.0535 23.4317 15.5323 22.1118L15.8488 21.0015C20.2601 22.2894 24.0973 22.8639 27.357 22.7295C30.6401 22.5942 34.1627 22.0176 37.9248 20.9985Z" fill="#FFE017"/>
<path d="M37.4895 26.431L35.6847 28.2812C32.255 24.8547 29.2356 22.4047 26.645 20.9325C24.0101 19.4353 20.574 17.9149 16.3419 16.3776L17.2098 13.9305C21.5666 15.5132 25.1292 17.0895 27.9027 18.6656C30.7205 20.2668 33.9099 22.8548 37.4895 26.431Z" fill="#FFE017"/>
<path d="M17.1795 27.4793L16.4963 26.5534C16.5917 26.4813 16.7619 26.3611 16.9965 26.2087C17.3837 25.9572 17.8137 25.706 18.2763 25.4713C19.5505 24.825 20.8287 24.4214 22.0478 24.3843C22.1074 24.3825 22.1668 24.3816 22.2259 24.3816V25.5371C22.1782 25.5371 22.1303 25.5378 22.0821 25.5393C21.0547 25.5705 19.9265 25.9268 18.7879 26.5043C18.3635 26.7196 17.9681 26.9506 17.6132 27.1811C17.4897 27.2614 17.3804 27.3356 17.2868 27.4017C17.2322 27.4403 17.1959 27.4668 17.1795 27.4793Z" fill="#FFE017"/>
<path d="M17.7095 27.8799L17.997 26.7616C21.8035 27.7641 24.738 28.2636 26.786 28.2636C28.8264 28.2636 31.8633 27.6744 35.8771 26.4918L36.1962 27.6013C32.0875 28.8118 28.9574 29.4191 26.786 29.4191C24.6223 29.4191 21.6017 28.9049 17.7095 27.8799Z" fill="#FFE017"/>
<path d="M16.2267 17.5276L18.0355 15.6815L20.6839 18.3394L18.8751 20.1855L16.2267 17.5276Z" fill="#FFE017"/>
<path d="M31.2322 26.7486L32.5776 24.5338L36.779 27.1479L35.4335 29.3627L31.2322 26.7486Z" fill="#FFE017"/>
</g>
<path fill-rule="evenodd" clip-rule="evenodd" d="M15.2795 20.9826C15.2795 27.444 20.4552 32.682 26.8397 32.682C33.2242 32.682 38.3998 27.444 38.3998 20.9826C38.3998 14.5212 33.2242 9.2832 26.8397 9.2832C20.4552 9.2832 15.2795 14.5212 15.2795 20.9826ZM36.9725 21.1272C36.9725 26.7111 32.4998 31.2378 26.9823 31.2378C21.4648 31.2378 16.9921 26.7111 16.9921 21.1272C16.9921 15.5432 21.4648 11.0166 26.9823 11.0166C32.4998 11.0166 36.9725 15.5432 36.9725 21.1272Z" fill="#F9E813"/>
<path d="M20.4739 13.7675V23.1494C21.0915 26.8628 23.1721 28.7196 26.7159 28.7196C30.2596 28.7196 32.3402 26.8628 32.9578 23.1494V13.7675H20.4739Z" fill="white"/>
<path d="M18.1189 11.9912H34.7131V23.1145L34.6992 23.1914C33.8976 27.6355 31.0559 29.9736 26.416 29.9736C21.7762 29.9736 18.9344 27.6355 18.1328 23.1914L18.1189 23.1145V11.9912Z" fill="#C51918"/>
<path fill-rule="evenodd" clip-rule="evenodd" d="M22.5581 14.8474H19.8607V17.5448H22.5581V14.8474ZM33.0478 14.8474H30.3505V17.5448H33.0478V14.8474Z" fill="#F9E813"/>
<path fill-rule="evenodd" clip-rule="evenodd" d="M19.8607 20.8416H22.5581V23.5389H19.8607V20.8416ZM30.4997 20.884H33.1971V23.5814H30.4997V20.884ZM30.5406 25.2523H27.8433V27.9497H30.5406V25.2523Z" fill="#F9E813"/>
<path fill-rule="evenodd" clip-rule="evenodd" d="M21.96 25.2402H24.6573V27.9376H21.96V25.2402Z" fill="#F9E813"/>
<path d="M22.2651 16.0532H31.166V22.7081C31.166 22.7081 30.5055 26.1447 26.7156 26.1447C22.9256 26.1447 22.2651 22.7081 22.2651 22.7081V16.0532Z" fill="#F7FCFF"/>
<path d="M25.8406 16.7938H27.8191V18.2346C27.8191 18.2346 27.6723 18.9787 26.8299 18.9787C25.9874 18.9787 25.8406 18.2346 25.8406 18.2346V16.7938Z" fill="#013399"/>
<path d="M25.8406 19.9712H27.8191V21.412C27.8191 21.412 27.6723 22.156 26.8299 22.156C25.9874 22.156 25.8406 21.412 25.8406 21.412V19.9712Z" fill="#013399"/>
<path d="M28.4097 19.9712H30.3882V21.412C30.3882 21.412 30.2414 22.156 29.399 22.156C28.5565 22.156 28.4097 21.412 28.4097 21.412V19.9712Z" fill="#013399"/>
<path d="M23.2716 19.9712H25.2502V21.412C25.2502 21.412 25.1033 22.156 24.2609 22.156C23.4184 22.156 23.2716 21.412 23.2716 21.412V19.9712Z" fill="#013399"/>
<path d="M25.8406 23.149H27.8191V24.5898C27.8191 24.5898 27.6723 25.3339 26.8299 25.3339C25.9874 25.3339 25.8406 24.5898 25.8406 24.5898V23.149Z" fill="#013399"/>
</g>
<rect x="9" y="3" width="47.9531" height="35.9648" fill="url(#paint0_linear_1666_1759)" style="mix-blend-mode:overlay"/>
</g>
<rect x="10.4985" y="4.49854" width="44.9561" height="32.9678" rx="1.49854" stroke="black" stroke-opacity="0.1" stroke-width="2.99707" style="mix-blend-mode:multiply"/>
</g>
<defs>
<filter id="filter0_d_1666_1759" x="0.00878906" y="0.00292969" width="65.9355" height="53.9473" filterUnits="userSpaceOnUse" color-interpolation-filters="sRGB">
<feFlood flood-opacity="0" result="BackgroundImageFix"/>
<feColorMatrix in="SourceAlpha" type="matrix" values="0 0 0 0 0 0 0 0 0 0 0 0 0 0 0 0 0 0 127 0" result="hardAlpha"/>
<feOffset dy="5.99414"/>
<feGaussianBlur stdDeviation="4.49561"/>
<feColorMatrix type="matrix" values="0 0 0 0 0 0 0 0 0 0 0 0 0 0 0 0 0 0 0.1 0"/>
<feBlend mode="normal" in2="BackgroundImageFix" result="effect1_dropShadow_1666_1759"/>
<feBlend mode="normal" in="SourceGraphic" in2="effect1_dropShadow_1666_1759" result="shape"/>
</filter>
<linearGradient id="paint0_linear_1666_1759" x1="32.9766" y1="3" x2="32.9766" y2="38.9648" gradientUnits="userSpaceOnUse">
<stop stop-color="white" stop-opacity="0.7"/>
<stop offset="1" stop-opacity="0.3"/>
</linearGradient>
<clipPath id="clip0_1666_1759">
<rect x="9" y="3" width="47.9531" height="35.9648" rx="2.99707" fill="white"/>
</clipPath>
<clipPath id="clip1_1666_1759">
<rect width="47.9531" height="35.9648" fill="white" transform="translate(9 3)"/>
</clipPath>
</defs>
</svg>
