<?xml version="1.0" encoding="UTF-8"?>
<svg width="32px" height="32px" viewBox="0 0 32 32" version="1.1" xmlns="http://www.w3.org/2000/svg" xmlns:xlink="http://www.w3.org/1999/xlink">
    <!-- Generator: Sketch 51.3 (57544) - http://www.bohemiancoding.com/sketch -->
    <title>eye</title>
    <desc>Created with Sketch.</desc>
    <defs></defs>
    <g id="eye" stroke="none" stroke-width="1" fill="none" fill-rule="evenodd">
        <path d="M16.5,23 C21.1238514,23 25.2058952,20.1767324 26.851666,16 C25.2058952,11.8232676 21.1238514,9 16.5,9 C11.8761486,9 7.79410482,11.8232676 6.14833404,16 C7.79410482,20.1767324 11.8761486,23 16.5,23 Z M4.1189484,15.6667539 C5.95798188,10.5145141 10.8915731,7 16.5,7 C22.1084269,7 27.0420181,10.5145141 28.8810516,15.6667539 L29,16 L28.8810516,16.3332461 C27.0420181,21.4854859 22.1084269,25 16.5,25 C10.8915731,25 5.95798188,21.4854859 4.1189484,16.3332461 L4,16 L4.1189484,15.6667539 Z M16.5,21 C19.2886853,21 21.5493615,18.7614237 21.5493615,16 C21.5493615,13.2385763 19.2886853,11 16.5,11 C13.7113147,11 11.4506385,13.2385763 11.4506385,16 C11.4506385,18.7614237 13.7113147,21 16.5,21 Z" id="Combined-Shape" fill="#000000" fill-rule="nonzero"></path>
    </g>
</svg>