<!-- Generated by IcoMoon.io -->
<svg version="1.1" xmlns="http://www.w3.org/2000/svg" width="32" height="32" viewBox="0 0 32 32">
<title>linked</title>
<path d="M5.2 16c0-2.28 1.853-4.133 4.133-4.133h5.333v-2.533h-5.333c-3.68 0-6.667 2.987-6.667 6.667s2.987 6.667 6.667 6.667h5.333v-2.533h-5.333c-2.28 0-4.133-1.853-4.133-4.133zM10.667 17.333h10.667v-2.667h-10.667v2.667zM22.667 9.333h-5.333v2.533h5.333c2.28 0 4.133 1.853 4.133 4.133s-1.853 4.133-4.133 4.133h-5.333v2.533h5.333c3.68 0 6.667-2.987 6.667-6.667s-2.987-6.667-6.667-6.667z"></path>
</svg>
