<?xml version="1.0" encoding="UTF-8" standalone="no"?>
<!DOCTYPE svg PUBLIC "-//W3C//DTD SVG 1.1//EN" "http://www.w3.org/Graphics/SVG/1.1/DTD/svg11.dtd">
<svg width="100%" height="100%" viewBox="0 0 32 32" version="1.1" xmlns="http://www.w3.org/2000/svg" xmlns:xlink="http://www.w3.org/1999/xlink" xml:space="preserve" xmlns:serif="http://www.serif.com/" style="fill-rule:evenodd;clip-rule:evenodd;stroke-linejoin:round;stroke-miterlimit:2;">
    <path id="pin" d="M10.78,19.777L6.112,15.111C6.112,15.111 6.144,14.111 6.782,13.241C8.148,11.381 10.834,11.281 12.838,11.669L15.996,8.561C15.296,6.219 19.348,3.515 19.348,3.515C22.402,6.571 25.458,9.627 28.514,12.683C28.292,12.981 28.068,13.279 27.844,13.577C26.77,15.003 25.306,16.207 23.572,15.915L20.252,19.133C20.298,19.477 20.294,19.163 20.37,20.285C20.514,22.415 19.73,24.609 17.738,25.625L16.992,25.989L12.194,21.191L4.902,28.485L3.486,27.069L10.78,19.777ZM19.02,6.105C18.332,6.673 17.604,7.555 17.996,8.177L18.486,8.899L13.5,13.887C11.512,13.381 9.154,13.251 8.344,14.501L17.364,23.533C17.458,23.467 17.548,23.397 17.636,23.323C18.862,22.243 18.4,20.283 18.134,18.423L22.924,13.633C22.924,13.633 24.394,14.571 25.86,12.857L19.07,6.067C19.052,6.079 19.036,6.093 19.02,6.105Z" style="fill-rule:nonzero;"/>
</svg>
