<!-- Generated by IcoMoon.io -->
<svg version="1.1" xmlns="http://www.w3.org/2000/svg" width="100%" height="100%" viewBox="0 0 32 32">
<title>arrows</title>
<path d="M14.4 6.4v-0.272l-2.544 2.528-2.256-2.256 6.4-6.4 6.4 6.4-2.256 2.256-2.544-2.528v8.272h8.272l-2.528-2.544 2.256-2.256 6.4 6.4-6.4 6.4-2.256-2.256 2.528-2.544h-8.272v8.272l2.544-2.528 2.256 2.256-6.4 6.4-6.4-6.4 2.256-2.256 2.544 2.528v-8.272h-8.272l2.528 2.544-2.256 2.256-6.4-6.4 6.4-6.4 2.256 2.256-2.528 2.544h8.272v-8z"></path>
</svg>
