<!-- Generated by IcoMoon.io -->
<svg version="1.1" xmlns="http://www.w3.org/2000/svg" width="32" height="32" viewBox="0 0 32 32">
<title>checkbox-checked</title>
<path d="M27.973-0.032c2.208 0 4 1.792 4 4v24.083c0 2.208-1.792 4-4 4h-23.957c-2.208 0-4-1.792-4-4v-24.083c0-2.208 1.792-4 4-4h23.957zM27.997 2.683h-24.048c-0.712 0-1.288 0.576-1.288 1.285v24.045c0 0.709 0.576 1.288 1.288 1.288h24.048c0.712 0 1.288-0.579 1.288-1.288v-24.045c0-0.709-0.576-1.285-1.288-1.285zM25.171 8.637l-8.763 16.064-7.907-6.328 1.664-2.080 5.427 4.339 7.237-13.269c0.781 0.424 1.56 0.851 2.341 1.275l-0 0z"></path>
</svg>
