<!-- Generated by IcoMoon.io -->
<svg version="1.1" xmlns="http://www.w3.org/2000/svg" width="32" height="32" viewBox="0 0 32 32">
<title>contracted</title>
<path d="M28.011-0.032c2.211 0 4.005 1.787 4.005 3.99v24.021c0 2.202-1.794 3.99-4.005 3.99h-23.989c-2.211 0-4.005-1.787-4.005-3.99v-24.021c0-2.202 1.794-3.99 4.005-3.99h23.989zM28.035 2.676h-24.080c-0.713 0-1.29 0.575-1.29 1.282v23.983c0 0.708 0.577 1.285 1.29 1.285h24.080c0.713 0 1.29-0.577 1.29-1.285v-23.983c0-0.708-0.577-1.282-1.29-1.282zM18.692 13.299h5.34v5.32h-5.34v5.32h-5.34v-5.32h-5.34v-5.32h5.34v-5.32h5.34v5.32z"></path>
</svg>
