<!-- Generated by IcoMoon.io -->
<svg version="1.1" xmlns="http://www.w3.org/2000/svg" width="32" height="32" viewBox="0 0 32 32">
<title>minimize</title>
<path opacity="0.98" fill="#000" d="M27.973 32.051h-23.957c-2.208 0-4-1.792-4-4v-24.083c0-2.208 1.792-4 4-4h23.957c2.208 0 4 1.792 4 4v24.083c0 2.208-1.792 4-4 4zM27.997 2.683h-24.048c-0.712 0-1.288 0.576-1.288 1.285v24.045c0 0.709 0.576 1.288 1.288 1.288h24.048c0.712 0 1.288-0.579 1.288-1.288v-24.045c0-0.709-0.576-1.285-1.288-1.285zM7.893 19.256l7.128-2.277-2.28 7.125-1.541-1.541-4.984 4.987-1.784-1.781 4.987-4.987-1.525-1.525zM19.275 7.872l-2.28 7.131 7.131-2.28-1.544-1.544 4.989-4.987-1.784-1.784-4.987 4.989-1.525-1.525z"></path>
</svg>
