<?xml version="1.0" encoding="utf-8"?>
<svg viewBox="0 0 166 155.3" xmlns="http://www.w3.org/2000/svg">
  <defs>
    <linearGradient id="a" gradientUnits="userSpaceOnUse" x1="27.5" y1="3" x2="152" y2="63.5">
      <stop offset="0.1" stop-color="#76b3e1"/>
      <stop offset="0.3" stop-color="#dcf2fd"/>
      <stop offset="1" stop-color="#76b3e1"/>
    </linearGradient>
    <linearGradient id="b" gradientUnits="userSpaceOnUse" x1="95.8" y1="32.6" x2="74" y2="105.2">
      <stop offset="0" stop-color="#76b3e1"/>
      <stop offset="0.5" stop-color="#4377bb"/>
      <stop offset="1" stop-color="#1f3b77"/>
    </linearGradient>
    <linearGradient id="c" gradientUnits="userSpaceOnUse" x1="18.4" y1="64.2" x2="144.3" y2="149.8">
      <stop offset="0" stop-color="#315aa9"/>
      <stop offset="0.5" stop-color="#518ac8"/>
      <stop offset="1" stop-color="#315aa9"/>
    </linearGradient>
    <linearGradient id="d" gradientUnits="userSpaceOnUse" x1="75.2" y1="74.5" x2="24.4" y2="260.8">
      <stop offset="0" stop-color="#4377bb"/>
      <stop offset="0.5" stop-color="#1a336b"/>
      <stop offset="1" stop-color="#1a336b"/>
    </linearGradient>
    <filter id="gaussian-blur-filter-0" color-interpolation-filters="sRGB" x="-500%" y="-500%" width="1000%" height="1000%">
      <title>Gaussian blur</title>
      <feGaussianBlur stdDeviation="1.4 1.4" edgeMode="none"/>
    </filter>
  </defs>
  <path d="M163 35S110-4 69 5l-3 1c-6 2-11 5-14 9l-2 3-15 26 26 5c11 7 25 10 38 7l46 9 18-30z" fill="#76b3e1"/>
  <path d="M163 35S110-4 69 5l-3 1c-6 2-11 5-14 9l-2 3-15 26 26 5c11 7 25 10 38 7l46 9 18-30z" opacity=".3" fill="url(#a)"/>
  <path d="M52 35l-4 1c-17 5-22 21-13 35 10 13 31 20 48 15l62-21S92 26 52 35z" fill="#518ac8"/>
  <path d="M52 35l-4 1c-17 5-22 21-13 35 10 13 31 20 48 15l62-21S92 26 52 35z" opacity=".3" fill="url(#b)"/>
  <path d="M134 80a45 45 0 00-48-15L24 85 4 120l112 19 20-36c4-7 3-15-2-23z" fill="url(#c)"/>
  <path d="M114 115a45 45 0 00-48-15L4 120s53 40 94 30l3-1c17-5 23-21 13-34z" fill="url(#d)"/>
  <g transform="matrix(1.955032, 0.136367, -0.126963, 1.820212, -11.340272, -20.230267)" style="">
    <text style="fill: rgb(248, 255, 36); font-family: Arial, sans-serif; font-size: 24.4px; font-weight: 700; white-space: pre; filter: url(#gaussian-blur-filter-0);" transform="matrix(1.455798, -0.258065, 0.265037, 1.495124, -8.313663, 4.912528)" x="7.454" y="30.834">NEW</text>
    <text style="fill: rgb(209, 23, 23); font-family: Arial, sans-serif; font-size: 24.4px; font-weight: 700; white-space: pre;" x="7.454" y="30.834" transform="matrix(1.455798, -0.258065, 0.265037, 1.495124, -8.401809, 4.903058)">NEW</text>
  </g>
</svg>