<?xml version="1.0" encoding="UTF-8"?>
<svg width="1017px" height="279px" viewBox="0 0 1017 279" version="1.1" xmlns="http://www.w3.org/2000/svg" xmlns:xlink="http://www.w3.org/1999/xlink">
    <!-- Generator: Sketch 48.2 (47327) - http://www.bohemiancoding.com/sketch -->
    <title>full</title>
    <desc>Created with Sketch.</desc>
    <defs>
        <filter x="-1.6%" y="-2.8%" width="103.8%" height="107.9%" filterUnits="objectBoundingBox" id="filter-1">
            <feOffset dx="1" dy="2" in="SourceAlpha" result="shadowOffsetOuter1"></feOffset>
            <feGaussianBlur stdDeviation="2" in="shadowOffsetOuter1" result="shadowBlurOuter1"></feGaussianBlur>
            <feColorMatrix values="0 0 0 0 0   0 0 0 0 0   0 0 0 0 0  0 0 0 0.5 0" type="matrix" in="shadowBlurOuter1" result="shadowMatrixOuter1"></feColorMatrix>
            <feMerge>
                <feMergeNode in="shadowMatrixOuter1"></feMergeNode>
                <feMergeNode in="SourceGraphic"></feMergeNode>
            </feMerge>
        </filter>
        <text id="text-2" font-family="Roboto-Regular, Roboto" font-size="40" font-weight="normal" fill="#FFFFFF">
            <tspan x="354" y="219">v16 Phoenix</tspan>
        </text>
        <filter x="-0.4%" y="-1.5%" width="101.8%" height="105.9%" filterUnits="objectBoundingBox" id="filter-3">
            <feOffset dx="2" dy="2" in="SourceAlpha" result="shadowOffsetOuter1"></feOffset>
            <feColorMatrix values="0 0 0 0 0   0 0 0 0 0   0 0 0 0 0  0 0 0 0.5 0" type="matrix" in="shadowOffsetOuter1"></feColorMatrix>
        </filter>
    </defs>
    <g id="Page-1" stroke="none" stroke-width="1" fill="none" fill-rule="evenodd">
        <rect id="Rectangle" fill="#1F56BD" x="0" y="0" width="1017" height="279"></rect>
        <g id="checkbox-selection" opacity="0.677819293" transform="translate(550.000000, 6.000000)">
            <circle id="Oval-Copy-16" stroke="#0084E7" cx="308.5" cy="39.5" r="3"></circle>
            <circle id="Oval-Copy-17" stroke="#0084E7" cx="234.5" cy="3.5" r="3"></circle>
            <path d="M0.5,59.5 L305.6049,59.5" id="Line-18-Copy" stroke="#0084E7" stroke-linecap="square"></path>
            <path d="M0.5,79.5 L305.6049,79.5" id="Line-18-Copy-2" stroke="#0084E7" stroke-linecap="square"></path>
            <path d="M0.5,99.5 L305.6049,99.5" id="Line-18-Copy-3" stroke="#0084E7" stroke-linecap="square"></path>
            <g id="Group" transform="translate(6.000000, 44.000000)" stroke="#0084E7">
                <rect id="Rectangle-9" x="0.5" y="0.5" width="10" height="10"></rect>
            </g>
            <g id="Group-Copy-3" transform="translate(6.000000, 64.000000)" stroke="#0084E7">
                <rect id="Rectangle-9" x="0.5" y="0.5" width="10" height="10"></rect>
            </g>
            <g id="Group-Copy-2" transform="translate(5.000000, 62.000000)" stroke="#8ABDE3">
                <rect id="Rectangle-9" x="1.5" y="1.5" width="10" height="10"></rect>
                <rect id="Rectangle-9-Copy" transform="translate(6.500000, 6.500000) rotate(8.000000) translate(-6.500000, -6.500000) " x="1.5" y="1.5" width="10" height="10"></rect>
            </g>
            <g id="Group-Copy" transform="translate(6.000000, 84.000000)" stroke="#0084E7">
                <rect id="Rectangle-9" x="0.5" y="0.5" width="10" height="10"></rect>
                <rect id="Rectangle-9-Copy" transform="translate(5.500000, 5.500000) rotate(-4.000000) translate(-5.500000, -5.500000) " x="0.5" y="0.5" width="10" height="10"></rect>
            </g>
            <polyline id="Path-4" stroke="#8ABDE3" stroke-linecap="square" points="10 68.5 12.7613403 71.2613403 20.07844 63.9442405"></polyline>
            <path d="M114.5,36.5 L114.5,101.507692" id="Line-18" stroke="#0084E7" stroke-linecap="square"></path>
            <path d="M234.5,6.5 L234.5,101.507692" id="Line-18-Copy-4" stroke="#0084E7" stroke-linecap="square"></path>
            <path d="M0.5,39.5 L305.6049,39.5" id="Line-18" stroke="#0084E7" stroke-linecap="square"></path>
            <rect id="Rectangle-10" stroke="#8ABDE3" x="0.5" y="58.5" width="305" height="19"></rect>
        </g>
        <g id="column-menu" opacity="0.71727808" transform="translate(0.000000, 6.000000)">
            <path d="M17.5,35.5 L187.5,35.5" id="Line-Copy-12" stroke="#0084E7" stroke-linecap="square"></path>
            <path d="M17.5,55.5 L187.5,53.5" id="Line-Copy-13" stroke="#0084E7" stroke-linecap="square"></path>
            <path d="M6.5,75.5 L176.5,73.5" id="Line-Copy-14" stroke="#0084E7" stroke-linecap="square"></path>
            <path d="M16.5,95.5 L186.5,93.5" id="Line-Copy-15" stroke="#0084E7" stroke-linecap="square"></path>
            <path d="M16.5,115.5 L166.5,113.5" id="Line-Copy-16" stroke="#0084E7" stroke-linecap="square"></path>
            <path d="M16.5,135.5 L186.5,134.5" id="Line-Copy-17" stroke="#0084E7" stroke-linecap="square"></path>
            <rect id="Rectangle-2" stroke="#8ABDE3" x="23.5" y="3.5" width="137" height="30"></rect>
            <polyline id="Line-5" stroke="#8ABDE3" stroke-linecap="square" points="162 1 159.571429 34 163 30.7804878"></polyline>
            <path d="M22.5,1.80952381 L24.5,34.1904762" id="Line-2" stroke="#8ABDE3" stroke-linecap="square"></path>
            <path d="M154.5,14.5 L144.5,14.5" id="Line-9" stroke="#8ABDE3" stroke-linecap="square"></path>
            <path d="M154.5,17.5 L144.5,17.5" id="Line-9-Copy" stroke="#8ABDE3" stroke-linecap="square"></path>
            <path d="M154.5,20.5 L144.5,20.5" id="Line-9-Copy-2" stroke="#8ABDE3" stroke-linecap="square"></path>
            <circle id="Oval-Copy-5" stroke="#0084E7" cx="190.5" cy="35.5" r="3"></circle>
            <circle id="Oval-Copy-6" stroke="#0084E7" cx="3.5" cy="75.5" r="3"></circle>
            <circle id="Oval-Copy-11" stroke="#0084E7" cx="179.5" cy="73.5" r="3"></circle>
            <path d="M162.5,0.5 L162.5,172.508333" id="Line-8-Copy" stroke="#0084E7" stroke-linecap="square"></path>
            <path d="M22.5,0.5 L22.5,152.508333" id="Line-8-Copy-2" stroke="#0084E7" stroke-linecap="square"></path>
            <polyline id="Path-2" stroke="#8ABDE3" stroke-linecap="square" points="36 19.5 38.5 17 41 19.5"></polyline>
            <polyline id="Path-2-Copy" stroke="#8ABDE3" stroke-linecap="square" transform="translate(47.000000, 18.000000) rotate(180.000000) translate(-47.000000, -18.000000) " points="45 19 47 17 49 19"></polyline>
        </g>
        <g id="logo" filter="url(#filter-1)" transform="translate(180.000000, 57.000000)" fill-rule="nonzero">
            <path d="M357.267206,41.194332 L370,41.194332 L370,113.097166 L325.809717,113.097166 C319.604898,113.097166 314.574899,108.067167 314.574899,101.862348 L314.574899,71.902834 C314.574899,65.6980155 319.604898,60.6680162 325.809717,60.6680162 L357.267206,60.6680162 L357.267206,41.194332 Z M329.554656,73.4008097 C328.313692,73.4008097 327.307692,74.4068096 327.307692,75.6477733 L327.307692,98.1174089 C327.307692,99.3583724 328.313692,100.364372 329.554656,100.364372 L357.267206,100.364372 L357.267206,73.4008097 L329.554656,73.4008097 Z" id="d" fill="#FFFFFF"></path>
            <g id="i" transform="translate(296.599190, 41.194332)">
                <polygon id="Path-6" fill="#FFFFFF" points="0 19.4736842 12.7327935 19.4736842 12.7327935 71.902834 0 71.902834"></polygon>
                <polygon id="Path-7" fill="#E11F22" points="0 1.13686838e-13 12.7327935 1.13686838e-13 12.7327935 12.7327935 0 12.7327935"></polygon>
            </g>
            <path d="M247.91498,113.097166 L260.647773,113.097166 L260.647773,75.6477733 C260.647773,74.4068096 261.653773,73.4008097 262.894737,73.4008097 L291.356275,73.4008097 L291.356275,60.6680162 L259.149798,60.6680162 C252.944979,60.6680162 247.91498,65.6980155 247.91498,71.902834 L247.91498,113.097166 Z" id="r" fill="#FFFFFF"></path>
            <path d="M242.672065,64.4129555 L242.672065,56.9230769 C242.672065,50.7182584 237.642065,45.6882591 231.437247,45.6882591 L186.497976,45.6882591 C180.293157,45.6882591 175.263158,50.7182584 175.263158,56.9230769 L175.263158,101.862348 C175.263158,108.067167 180.293157,113.097166 186.497976,113.097166 L231.437247,113.097166 C237.642065,113.097166 242.672065,108.067167 242.672065,101.862348 L242.672065,74.8987854 L214.959514,74.8987854 L214.959514,87.6315789 L229.939271,87.6315789 L229.939271,98.1174089 C229.939271,99.3583724 228.933271,100.364372 227.692308,100.364372 L190.242915,100.364372 C189.001951,100.364372 187.995951,99.3583724 187.995951,98.1174089 L187.995951,60.6680162 C187.995951,59.4270525 189.001951,58.4210526 190.242915,58.4210526 L227.692308,58.4210526 C228.933271,58.4210526 229.939271,59.4270525 229.939271,60.6680162 L229.939271,64.4129555 L242.672065,64.4129555 Z" id="G" fill="#FFFFFF"></path>
            <g id="ag" fill="#E11F22">
                <g id="Combined-Shape">
                    <g id="path-1-link">
                        <path d="M0.459017155,80.8906883 L0.459017155,50.5264491 C0.459017155,46.5126353 2.60036133,42.8037184 6.07642606,40.7968115 L73.6303183,1.79455361 C77.1063829,-0.212353305 81.3890715,-0.212353305 84.8651361,1.79455361 L152.419028,40.7968115 C155.895093,42.8037184 158.036437,46.5126353 158.036437,50.5264491 L158.036437,103.360324 L135.566802,103.360324 L135.564585,70.4048581 L135.56383,70.4048582 C135.563412,64.2003347 130.533535,59.170796 124.329012,59.170796 L91.3765182,59.1700404 C85.1716999,59.1700404 80.1417004,64.2000396 80.1417004,70.4048582 L80.1417004,101.87405 C80.1417004,108.078869 85.1716999,113.108867 91.3765182,113.108867 L125.82996,113.108867 L125.82996,122.08502 C125.82996,123.325984 124.823959,124.331984 123.582996,124.331984 L89.8785425,124.331984 L89.8785425,134.068826 L124.329012,134.068826 L124.329012,134.067236 C130.533209,134.067236 135.562952,129.038206 135.56383,122.834008 L135.566802,113.067621 L158.036437,113.067621 L158.036437,128.530965 C158.036437,132.544779 155.895093,136.253695 152.419028,138.260602 L84.8651361,177.26286 C81.3890715,179.269767 77.1063829,179.269767 73.6303183,177.26286 L6.07642606,138.260602 C2.60036133,136.253695 0.459017155,132.544779 0.459017155,128.530965 L0.459017155,90.6275304 L20.2226721,90.6275304 L20.2226721,101.862348 C20.2226721,108.067167 25.2526713,113.097166 31.4574899,113.097166 L74.8987854,113.097166 L74.8987854,70.4048583 C74.8987854,64.2000398 69.8687861,59.1700405 63.6639676,59.1700405 L20.2226721,59.1700405 L20.2226721,68.9068826 L62.9149798,68.9068826 C64.1559434,68.9068826 65.1619433,69.9128825 65.1619433,71.1538462 L65.1619433,80.8906883 L0.459017155,80.8906883 Z" id="path-1"></path>
                    </g>
                </g>
                <rect id="g" x="89.8785425" y="68.9068826" width="35.951417" height="34.4534413" rx="3"></rect>
                <path d="M29.9595142,90.6275304 L65.1619433,90.6275304 L65.1619433,103.360324 L32.2064777,103.360324 C30.9655141,103.360324 29.9595142,102.354324 29.9595142,101.11336 L29.9595142,90.6275304 Z" id="Combined-Shape"></path>
            </g>
        </g>
        <g id="range-selection" opacity="0.680027174" transform="translate(832.000000, 146.000000)">
            <rect id="Rectangle-4" stroke="#0084E7" x="81.5" y="1.5" width="39" height="19"></rect>
            <rect id="Rectangle-4-Copy" stroke="#0084E7" x="81.5" y="20.5" width="39" height="19"></rect>
            <rect id="Rectangle-4-Copy-2" stroke="#0084E7" transform="translate(101.000000, 49.000000) rotate(4.000000) translate(-101.000000, -49.000000) " x="81.5" y="39.5" width="39" height="19"></rect>
            <rect id="Rectangle-4-Copy-3" stroke="#0084E7" x="81.5" y="58.5" width="39" height="19"></rect>
            <rect id="Rectangle-4-Copy-4" stroke="#0084E7" transform="translate(101.000000, 87.000000) rotate(-3.000000) translate(-101.000000, -87.000000) " x="81.5" y="77.5" width="39" height="19"></rect>
            <rect id="Rectangle-4-Copy-5" stroke="#0084E7" x="81.5" y="96.5" width="39" height="19"></rect>
            <rect id="Rectangle-4" stroke="#0084E7" x="119.5" y="11.5" width="39" height="19"></rect>
            <rect id="Rectangle-4-Copy" stroke="#0084E7" x="119.5" y="30.5" width="39" height="19"></rect>
            <rect id="Rectangle-4-Copy-2" stroke="#0084E7" x="119.5" y="49.5" width="39" height="19"></rect>
            <rect id="Rectangle-4-Copy-3" stroke="#0084E7" x="119.5" y="68.5" width="39" height="19"></rect>
            <rect id="Rectangle-4-Copy-9" stroke="#0084E7" x="2.5" y="12.5" width="39" height="19"></rect>
            <rect id="Rectangle-4-Copy-8" stroke="#0084E7" x="2.5" y="31.5" width="39" height="19"></rect>
            <rect id="Rectangle-4-Copy-7" stroke="#0084E7" x="2.5" y="50.5" width="39" height="19"></rect>
            <rect id="Rectangle-4-Copy-6" stroke="#0084E7" x="2.5" y="69.5" width="39" height="19"></rect>
            <rect id="Rectangle-4-Copy-10" stroke="#0084E7" x="2.5" y="89.5" width="39" height="19"></rect>
            <rect id="Rectangle-4-Copy-4" stroke="#0084E7" transform="translate(139.000000, 97.000000) rotate(2.000000) translate(-139.000000, -97.000000) " x="119.5" y="87.5" width="39" height="19"></rect>
            <rect id="Rectangle-4-Copy-5" stroke="#0084E7" x="119.5" y="106.5" width="39" height="19"></rect>
            <rect id="Rectangle-4" stroke="#0084E7" x="42.5" y="0.5" width="39" height="19"></rect>
            <rect id="Rectangle-4-Copy" stroke="#0084E7" x="42.5" y="19.5" width="39" height="19"></rect>
            <rect id="Rectangle-4-Copy-2" stroke="#0084E7" x="42.5" y="38.5" width="39" height="19"></rect>
            <circle id="Oval-Copy-10" stroke="#8ABDE3" cx="120.5" cy="77.5" r="4"></circle>
            <rect id="Rectangle-4-Copy-3" stroke="#0084E7" x="42.5" y="57.5" width="39" height="19"></rect>
            <rect id="Rectangle-4-Copy-4" stroke="#0084E7" transform="translate(62.000000, 86.000000) rotate(1.000000) translate(-62.000000, -86.000000) " x="42.5" y="76.5" width="39" height="19"></rect>
            <rect id="Rectangle-4-Copy-5" stroke="#0084E7" x="42.5" y="95.5" width="39" height="19"></rect>
            <rect id="Rectangle-5" stroke="#8ABDE3" x="42.5" y="19.5" width="78" height="58"></rect>
            <rect id="Rectangle-5-Copy" stroke="#8ABDE3" x="2.5" y="54.5" width="78" height="58"></rect>
            <path d="M144.5,30.5 L163.526298,30.5" id="Line-3" stroke="#0084E7" stroke-linecap="square"></path>
            <path d="M140.5,11.5 L159.526298,11.5" id="Line-3-Copy" stroke="#0084E7" stroke-linecap="square"></path>
            <path d="M0.5,12.5 L19.5262976,12.5" id="Line-3-Copy-3" stroke="#0084E7" stroke-linecap="square"></path>
            <path d="M140.5,87.5 L159.526298,87.5" id="Line-3-Copy-2" stroke="#0084E7" stroke-linecap="square"></path>
            <circle id="Oval-Copy-12" stroke="#087FFF" cx="166.5" cy="29.5" r="3"></circle>
        </g>
        <g id="misc" opacity="0.691859149" transform="translate(936.000000, 6.000000)">
            <g transform="translate(32.935557, 61.232553) scale(-1, 1) rotate(7.000000) translate(-32.935557, -61.232553) translate(6.935557, 3.732553)">
                <rect id="Rectangle-4-Copy-16" stroke="#0084E7" x="1.5" y="0.5" width="39" height="19"></rect>
                <rect id="Rectangle-4-Copy-15" stroke="#0084E7" x="1.5" y="19.5" width="39" height="19"></rect>
                <rect id="Rectangle-4-Copy-13" stroke="#0084E7" x="0.646914596" y="50.5521769" width="39" height="19"></rect>
                <rect id="Rectangle-4-Copy-12" stroke="#0084E7" transform="translate(21.000000, 86.000000) rotate(2.000000) translate(-21.000000, -86.000000) " x="1.5" y="76.5" width="39" height="19"></rect>
                <rect id="Rectangle-4-Copy-11" stroke="#0084E7" x="1.5" y="95.5" width="39" height="19"></rect>
                <path d="M26.5,19.5 L45.5262976,19.5" id="Line-3-Copy-6" stroke="#0084E7" stroke-linecap="square"></path>
                <path d="M22.5,0.5 L41.5262976,0.5" id="Line-3-Copy-5" stroke="#0084E7" stroke-linecap="square"></path>
                <path d="M22.5,76.5 L41.5262976,76.5" id="Line-3-Copy-4" stroke="#0084E7" stroke-linecap="square"></path>
                <circle id="Oval-Copy-18" stroke="#087FFF" cx="48.5" cy="18.5" r="3"></circle>
            </g>
        </g>
        <g id="quick-filter" opacity="0.85399683" transform="translate(365.000000, 237.000000)">
            <rect id="Rectangle-2" stroke="#8ABDE3" x="11" y="11" width="162" height="18"></rect>
            <polyline id="Line-5" stroke="#8ABDE3" stroke-linecap="square" points="173 10 173.571429 31 177 28.9512195"></polyline>
            <path d="M12,11 L11,31" id="Line-2" stroke="#8ABDE3" stroke-linecap="square"></path>
            <g id="carret" stroke-linecap="square" transform="translate(21.000000, 15.000000)" stroke="#8ABDE3">
                <path d="M2,1.5 L2,10.5" id="Line-3"></path>
                <path d="M3.33333333,0.5 L0.666666667,0.5" id="Line-4"></path>
                <path d="M3.33333333,10.5 L0.666666667,10.5" id="Line-4-Copy"></path>
            </g>
            <ellipse id="Oval-Copy-7" stroke="#0084E7" cx="252.5" cy="3" rx="3.5" ry="3"></ellipse>
            <rect id="Rectangle-3" stroke="#0084E7" x="4" y="2" width="238" height="38"></rect>
            <path d="M242,0 L242,15" id="Line-10" stroke="#0084E7" stroke-linecap="square"></path>
            <path d="M234,2 L249,2" id="Line-11" stroke="#0084E7" stroke-linecap="square"></path>
            <path d="M0,2 L15,2" id="Line-11-Copy" stroke="#0084E7" stroke-linecap="square"></path>
            <path d="M1,41 L16,41" id="Line-11-Copy-2" stroke="#0084E7" stroke-linecap="square"></path>
            <path d="M210,14 L210,15.0025232 C210,15.1389203 210.062555,15.2697308 210.173906,15.3661781 L217.328978,21.5636549 C217.663028,21.8529968 217.850694,22.2454285 217.850694,22.6546197 L217.850694,28 L221.149306,25.8571429 L221.149306,22.6546197 C221.149306,22.2454285 221.336972,21.8529968 221.671022,21.5636549 L228.826094,15.3661781 C228.937445,15.2697308 229,15.1389203 229,15.0025232 L229,14 L210,14 Z" id="Path-19" stroke="#8ABDE3"></path>
        </g>
        <g id="v16-Phoenix" fill="#FFFFFF" fill-opacity="1">
            <use filter="url(#filter-3)" xlink:href="#text-2"></use>
            <use xlink:href="#text-2"></use>
        </g>
    </g>
</svg>