<?xml version="1.0" encoding="utf-8"?>
<!-- Generator: Adobe Illustrator 18.0.0, SVG Export Plug-In . SVG Version: 6.00 Build 0)  -->
<!DOCTYPE svg PUBLIC "-//W3C//DTD SVG 1.1//EN" "http://www.w3.org/Graphics/SVG/1.1/DTD/svg11.dtd">
<svg version="1.1" id="dark-bg" xmlns="http://www.w3.org/2000/svg" xmlns:xlink="http://www.w3.org/1999/xlink" x="0px" y="0px"
	 viewBox="0 0 500 247.5" style="enable-background:new 0 0 500 247.5;" xml:space="preserve">
<style type="text/css">
	.st0{fill:#F2F2F2;}
	.st1{fill:#E11F22;}
	.st2{fill:url(#SVGID_1_);}
	.st3{fill:url(#SVGID_2_);}
	.st4{fill:url(#SVGID_3_);}
	.st5{fill:url(#SVGID_4_);}
	.st6{fill:url(#SVGID_5_);}
	.st7{fill:url(#SVGID_6_);}
	.st8{fill:url(#SVGID_7_);}
	.st9{fill:url(#SVGID_8_);}
	.st10{fill:url(#SVGID_9_);}
	.st11{fill:url(#SVGID_10_);}
	.st12{fill:url(#SVGID_11_);}
	.st13{fill:url(#SVGID_12_);}
	.st14{fill:url(#SVGID_13_);}
	.st15{fill:url(#SVGID_14_);}
	.st16{fill:url(#SVGID_15_);}
	.st17{fill:url(#SVGID_16_);}
	.st18{fill:url(#SVGID_17_);}
	.st19{fill:url(#SVGID_18_);}
	.st20{fill:url(#SVGID_19_);}
	.st21{fill:url(#SVGID_20_);}
	.st22{fill:url(#SVGID_21_);}
	.st23{fill:url(#SVGID_22_);}
	.st24{fill:url(#SVGID_23_);}
	.st25{fill:url(#SVGID_24_);}
	.st26{fill:url(#SVGID_25_);}
	.st27{fill:url(#SVGID_26_);}
	.st28{fill:url(#SVGID_27_);}
</style>
<g>
	<path class="st0" d="M331.2,75.5v7h-16.6v-7c0-0.6-0.3-0.9-0.9-0.9h-54.9c-0.6,0-0.9,0.3-0.9,0.9v55c0,0.6,0.3,0.9,0.9,0.9h54.9
		c0.6,0,0.9-0.3,0.9-0.9v-16.9h-20.3V97.1h36.9v33.4c0,4.8-1.7,8.9-5.1,12.3c-3.4,3.4-7.5,5-12.3,5h-54.9c-4.8,0-8.9-1.7-12.3-5
		c-3.4-3.4-5-7.5-5-12.3v-55c0-4.8,1.7-8.9,5-12.3c3.4-3.4,7.4-5,12.3-5h54.9c4.8,0,8.9,1.7,12.3,5
		C329.5,66.6,331.2,70.6,331.2,75.5z"/>
	<path class="st0" d="M355.8,75.6h40.1v16.3h-40.1c-0.6,0-0.9,0.3-0.9,0.9v55h-16.3v-55c0-4.7,1.7-8.8,5-12.1
		C347,77.3,351.1,75.6,355.8,75.6z"/>
	<rect x="401.9" y="51.9" class="st1" width="16.3" height="16.4"/>
	<rect x="401.9" y="75.6" class="st0" width="16.3" height="72.2"/>
	<path class="st0" d="M483.7,51.9H500v95.9h-56.3c-4.7,0-8.8-1.7-12.1-5c-3.4-3.4-5-7.4-5-12.1V92.8c0-4.7,1.7-8.8,5-12.1
		c3.4-3.4,7.4-5,12.1-5h40V51.9z M443.7,131.5h39.1c0.6,0,0.9-0.3,0.9-0.9V92.8c0-0.6-0.3-0.9-0.9-0.9h-39.1c-0.5,0-0.7,0.3-0.7,0.9
		v37.9C443,131.2,443.2,131.5,443.7,131.5z"/>
	<g>
		<radialGradient id="SVGID_1_" cx="104.9277" cy="119.5688" r="191.1294" gradientUnits="userSpaceOnUse">
			<stop  offset="0" style="stop-color:#FF080B"/>
			<stop  offset="1" style="stop-color:#AE1F22"/>
		</radialGradient>
		<path class="st2" d="M92.2,134.3v-16H77.6h-32v13.2c0,0.7,0.3,1.4,0.8,1.9c0.5,0.5,1.2,0.8,1.9,0.8H92.2z"/>
		<g>
			<radialGradient id="SVGID_2_" cx="104.9277" cy="119.5688" r="191.1294" gradientUnits="userSpaceOnUse">
				<stop  offset="0" style="stop-color:#FF080B"/>
				<stop  offset="1" style="stop-color:#AE1F22"/>
			</radialGradient>
			<path class="st3" d="M130.7,111.8v19.8c0,0.7,0.3,1.4,0.8,1.9c0.5,0.5,1.2,0.8,1.9,0.8h16.6h24.5c0.7,0,1.4-0.3,1.9-0.8
				c0.5-0.5,0.8-1.2,0.8-1.9v-19.7L130.7,111.8z"/>
			<radialGradient id="SVGID_3_" cx="104.9277" cy="119.5688" r="191.1294" gradientUnits="userSpaceOnUse">
				<stop  offset="0" style="stop-color:#FF080B"/>
				<stop  offset="1" style="stop-color:#AE1F22"/>
			</radialGradient>
			<path class="st4" d="M174.6,89h-41.1c-0.7,0-1.4,0.3-1.9,0.8c-0.5,0.5-0.8,1.2-0.8,1.9v19.1l46.6,0V91.7c0-0.7-0.3-1.4-0.8-1.9
				C176,89.3,175.3,89,174.6,89z"/>
		</g>
		<g>
			<radialGradient id="SVGID_4_" cx="104.9277" cy="119.5688" r="191.1294" gradientUnits="userSpaceOnUse">
				<stop  offset="0" style="stop-color:#FF080B"/>
				<stop  offset="1" style="stop-color:#AE1F22"/>
			</radialGradient>
			<path class="st5" d="M110.7,110.8V82.6l-7.4,0.7c1.6,2.5,2.3,5.3,2.3,8.5v19.1L110.7,110.8z"/>
			<radialGradient id="SVGID_5_" cx="104.9277" cy="119.5688" r="191.1294" gradientUnits="userSpaceOnUse">
				<stop  offset="0" style="stop-color:#FF080B"/>
				<stop  offset="1" style="stop-color:#AE1F22"/>
			</radialGradient>
			<path class="st6" d="M32.1,89V75.5h57.3c4.5,0,8.3,1.6,11.5,4.7c0.7,0.7,1.2,1.4,1.8,2.1l8.1-0.8v-28L0.1,74.8
				C0,75.5,0,76.2,0,76.9v15.3L33.6,89H32.1z"/>
			<radialGradient id="SVGID_6_" cx="104.9277" cy="119.5688" r="191.1294" gradientUnits="userSpaceOnUse">
				<stop  offset="0" style="stop-color:#FF080B"/>
				<stop  offset="1" style="stop-color:#AE1F22"/>
			</radialGradient>
			<path class="st7" d="M0,104.9h32.1h45.5h14.6V91.7c0-0.7-0.3-1.4-0.8-1.9c-0.5-0.5-1.2-0.8-1.9-0.8H43.9L0,93.2V104.9z"/>
			<radialGradient id="SVGID_7_" cx="104.9277" cy="119.5688" r="191.1294" gradientUnits="userSpaceOnUse">
				<stop  offset="0" style="stop-color:#FF080B"/>
				<stop  offset="1" style="stop-color:#AE1F22"/>
			</radialGradient>
			<polygon class="st8" points="110.7,140.4 110.7,111.8 105.7,111.8 105.7,139.9 			"/>
			<radialGradient id="SVGID_8_" cx="104.9277" cy="119.5688" r="191.1294" gradientUnits="userSpaceOnUse">
				<stop  offset="0" style="stop-color:#FF080B"/>
				<stop  offset="1" style="stop-color:#AE1F22"/>
			</radialGradient>
			<path class="st9" d="M176.5,162.2c0.5-0.5,0.8-1.2,0.8-1.9v-12.3l-1.4-0.1h-25.8h-16.6c-4.5,0-8.3-1.6-11.5-4.7
				c-0.2-0.2-0.4-0.4-0.6-0.6l-9.7-1v28.9L130,174v-11h44.6C175.3,163,176,162.7,176.5,162.2z"/>
			<radialGradient id="SVGID_9_" cx="104.9277" cy="119.5688" r="191.1294" gradientUnits="userSpaceOnUse">
				<stop  offset="0" style="stop-color:#FF080B"/>
				<stop  offset="1" style="stop-color:#AE1F22"/>
			</radialGradient>
			<path class="st10" d="M111.7,82.5v28.4l5.5,0V91.7c0-3.9,1.2-7.2,3.5-10.1L111.7,82.5z"/>
			<radialGradient id="SVGID_10_" cx="104.9277" cy="119.5688" r="191.1294" gradientUnits="userSpaceOnUse">
				<stop  offset="0" style="stop-color:#FF080B"/>
				<stop  offset="1" style="stop-color:#AE1F22"/>
			</radialGradient>
			<path class="st11" d="M186,80.3c3.2,3.2,4.7,7,4.7,11.5v19.2l31.7,0v-34c0-1.7-0.2-3.4-0.4-5.1L178.7,76
				C181.4,76.7,183.9,78.1,186,80.3z"/>
			<radialGradient id="SVGID_11_" cx="104.9277" cy="119.5688" r="191.1294" gradientUnits="userSpaceOnUse">
				<stop  offset="0" style="stop-color:#FF080B"/>
				<stop  offset="1" style="stop-color:#AE1F22"/>
			</radialGradient>
			<path class="st12" d="M190.8,149.3v11c0,4.5-1.6,8.3-4.7,11.5c-3.2,3.2-7,4.7-11.5,4.7h-32.2l72.4,14.3
				c4.9-5.5,7.7-12.6,7.7-20.1v-18.2L190.8,149.3z"/>
			<radialGradient id="SVGID_12_" cx="104.9277" cy="119.5688" r="191.1294" gradientUnits="userSpaceOnUse">
				<stop  offset="0" style="stop-color:#FF080B"/>
				<stop  offset="1" style="stop-color:#AE1F22"/>
			</radialGradient>
			<path class="st13" d="M110.7,24.9L11.4,53.4C5.1,58.4,1,65.7,0.2,73.8l110.6-21.2V24.9z"/>
			<radialGradient id="SVGID_13_" cx="104.9277" cy="119.5688" r="191.1294" gradientUnits="userSpaceOnUse">
				<stop  offset="0" style="stop-color:#FF080B"/>
				<stop  offset="1" style="stop-color:#AE1F22"/>
			</radialGradient>
			<path class="st14" d="M110.7,201.4L0,168.5v2.1c0,6.9,2.4,13.5,6.6,18.8l104.2,41.4V201.4z"/>
			<radialGradient id="SVGID_14_" cx="104.9277" cy="119.5688" r="191.1294" gradientUnits="userSpaceOnUse">
				<stop  offset="0" style="stop-color:#FF080B"/>
				<stop  offset="1" style="stop-color:#AE1F22"/>
			</radialGradient>
			<path class="st15" d="M137.2,176.5H130V175l-18.2-3.6v29.2l58.6,17.4l37-21.4c2.4-1.4,4.6-3.1,6.5-5.1L137.2,176.5z"/>
			<radialGradient id="SVGID_15_" cx="104.9277" cy="119.5688" r="191.1294" gradientUnits="userSpaceOnUse">
				<stop  offset="0" style="stop-color:#FF080B"/>
				<stop  offset="1" style="stop-color:#AE1F22"/>
			</radialGradient>
			<path class="st16" d="M117.2,111.8l-5.5,0v28.7l8.8,0.9c-2.2-2.8-3.3-6-3.3-9.8V111.8z"/>
			<radialGradient id="SVGID_16_" cx="104.9277" cy="119.5688" r="191.1294" gradientUnits="userSpaceOnUse">
				<stop  offset="0" style="stop-color:#FF080B"/>
				<stop  offset="1" style="stop-color:#AE1F22"/>
			</radialGradient>
			<path class="st17" d="M111.7,23.6l32.3-9.3L126.3,4c-4.5-2.6-9.5-3.9-14.6-4V23.6z"/>
			<radialGradient id="SVGID_17_" cx="104.9277" cy="119.5688" r="191.1294" gradientUnits="userSpaceOnUse">
				<stop  offset="0" style="stop-color:#FF080B"/>
				<stop  offset="1" style="stop-color:#AE1F22"/>
			</radialGradient>
			<polygon class="st18" points="111.7,52.4 185.5,38.2 145.2,15 111.7,24.6 			"/>
			<radialGradient id="SVGID_18_" cx="104.9277" cy="119.5688" r="191.1294" gradientUnits="userSpaceOnUse">
				<stop  offset="0" style="stop-color:#FF080B"/>
				<stop  offset="1" style="stop-color:#AE1F22"/>
			</radialGradient>
			<path class="st19" d="M32.2,132.7c0-0.4,0-0.7,0-1.1v-13.2H0v11.1L32.2,132.7z"/>
			<radialGradient id="SVGID_19_" cx="104.9277" cy="119.5688" r="191.1294" gradientUnits="userSpaceOnUse">
				<stop  offset="0" style="stop-color:#FF080B"/>
				<stop  offset="1" style="stop-color:#AE1F22"/>
			</radialGradient>
			<path class="st20" d="M110.7,231.8L8,191c2,2.2,4.4,4.1,7.1,5.7l81.1,46.8c4.5,2.6,9.5,3.9,14.6,4V231.8z"/>
			<radialGradient id="SVGID_20_" cx="104.9277" cy="119.5688" r="191.1294" gradientUnits="userSpaceOnUse">
				<stop  offset="0" style="stop-color:#FF080B"/>
				<stop  offset="1" style="stop-color:#AE1F22"/>
			</radialGradient>
			<path class="st21" d="M111.7,232.2v15.3c5-0.1,10.1-1.4,14.6-4l5.6-3.3L111.7,232.2z"/>
			<radialGradient id="SVGID_21_" cx="104.9277" cy="119.5688" r="191.1294" gradientUnits="userSpaceOnUse">
				<stop  offset="0" style="stop-color:#FF080B"/>
				<stop  offset="1" style="stop-color:#AE1F22"/>
			</radialGradient>
			<path class="st22" d="M111.7,81.5l10-1c0.1-0.1,0.1-0.2,0.2-0.3c3.2-3.2,7-4.7,11.5-4.7h40.2l48.2-4.6c-1.7-8.3-6.9-15.7-14.4-20
				L186.8,39l-75.1,14.4V81.5z"/>
			<radialGradient id="SVGID_22_" cx="104.9277" cy="119.5688" r="191.1294" gradientUnits="userSpaceOnUse">
				<stop  offset="0" style="stop-color:#FF080B"/>
				<stop  offset="1" style="stop-color:#AE1F22"/>
			</radialGradient>
			<path class="st23" d="M110.7,23.8V0c-5,0.1-10.1,1.4-14.6,4L15.1,50.8c-0.5,0.3-0.9,0.5-1.3,0.8L110.7,23.8z"/>
			<radialGradient id="SVGID_23_" cx="104.9277" cy="119.5688" r="191.1294" gradientUnits="userSpaceOnUse">
				<stop  offset="0" style="stop-color:#FF080B"/>
				<stop  offset="1" style="stop-color:#AE1F22"/>
			</radialGradient>
			<polygon class="st24" points="190.8,111.9 190.8,120.3 190.8,120.4 190.8,134.3 222.5,134.3 222.5,111.9 			"/>
			<radialGradient id="SVGID_24_" cx="104.9277" cy="119.5688" r="191.1294" gradientUnits="userSpaceOnUse">
				<stop  offset="0" style="stop-color:#FF080B"/>
				<stop  offset="1" style="stop-color:#AE1F22"/>
			</radialGradient>
			<path class="st25" d="M110.7,170.2v-28.8l-5.1-0.5v6.9H48.3c-4.5,0-8.3-1.6-11.5-4.7c-2.7-2.7-4.2-5.8-4.6-9.4L0,130.5v17.9
				L110.7,170.2z"/>
			<radialGradient id="SVGID_25_" cx="104.9277" cy="119.5688" r="191.1294" gradientUnits="userSpaceOnUse">
				<stop  offset="0" style="stop-color:#FF080B"/>
				<stop  offset="1" style="stop-color:#AE1F22"/>
			</radialGradient>
			<polygon class="st26" points="110.7,200.4 110.7,171.2 0,149.4 0,167.5 			"/>
			<radialGradient id="SVGID_26_" cx="104.9277" cy="119.5688" r="191.1294" gradientUnits="userSpaceOnUse">
				<stop  offset="0" style="stop-color:#FF080B"/>
				<stop  offset="1" style="stop-color:#AE1F22"/>
			</radialGradient>
			<polygon class="st27" points="169.2,218.7 111.7,201.7 111.7,231.2 133,239.6 			"/>
			<radialGradient id="SVGID_27_" cx="104.9277" cy="119.5688" r="191.1294" gradientUnits="userSpaceOnUse">
				<stop  offset="0" style="stop-color:#FF080B"/>
				<stop  offset="1" style="stop-color:#AE1F22"/>
			</radialGradient>
			<polygon class="st28" points="190.8,147.8 190.8,148.3 222.5,151.4 222.5,147.8 			"/>
		</g>
	</g>
</g>
</svg>
