<?xml version="1.0" encoding="UTF-8"?>
<svg width="18px" height="18px" viewBox="0 0 18 18" version="1.1" xmlns="http://www.w3.org/2000/svg" xmlns:xlink="http://www.w3.org/1999/xlink">
    <!-- Generator: Sketch 46.1 (44463) - http://www.bohemiancoding.com/sketch -->
    <title>paste</title>
    <desc>Created with Sketch.</desc>
    <defs></defs>
    <g id="Material-Icons" stroke="none" stroke-width="1" fill="none" fill-rule="evenodd">
        <g id="paste" fill-rule="nonzero" fill="#000000">
            <path d="M11,3 C11,2.5 10.5,1.5 9,1.5 C7.5,1.5 7,2.5 7,3 C6,3 5,3 4,3 L4,3 C3.44771525,3 3,3.44771525 3,4 L3,15 L3,15 C3,15.5522847 3.44771525,16 4,16 L14,16 L14,16 C14.5522847,16 15,15.5522847 15,15 L15,4 L15,4 C15,3.44771525 14.5522847,3 14,3 C13,3 12,3 11,3 Z M9,3.27272727 C9.36666667,3.27272727 9.66666667,3.55909091 9.66666667,3.90909091 C9.66666667,4.25909091 9.36666667,4.54545455 9,4.54545455 C8.63333333,4.54545455 8.33333333,4.25909091 8.33333333,3.90909091 C8.33333333,3.55909091 8.63333333,3.27272727 9,3.27272727 Z M14,15 L4,15 L4,4 L6,4 L6,6 L12,6 L12,4 L14,4 L14,15 Z" id="Shape"></path>
        </g>
    </g>
</svg>