<?xml version="1.0" encoding="utf-8"?>
<!-- Generator: Adobe Illustrator 22.0.0, SVG Export Plug-In . SVG Version: 6.00 Build 0)  -->
<svg version="1.1" id="Capa_1" xmlns="http://www.w3.org/2000/svg" xmlns:xlink="http://www.w3.org/1999/xlink" x="0px" y="0px"
	 viewBox="0 0 24 24" style="enable-background:new 0 0 24 24;" xml:space="preserve">
<style type="text/css">
	.st0{fill:#686868;}
</style>
<g>
	<g transform="translate(1 4)">
		<g transform="rotate(90 11 8.25)">
			<path id="a_1_" class="st0" d="M3.8,3.4h14.4c0.3,0,0.5,0.1,0.7,0.3s0.3,0.4,0.3,0.7v3.4c0,0.3-0.1,0.5-0.3,0.7s-0.4,0.3-0.7,0.3
				h-0.3c0,1.1-0.3,2.2-0.8,3.2s-1.2,1.8-2.1,2.4c-0.9,0.6-1.9,1-3,1.2v3.6h-2v-3.5c-1.1-0.2-2.1-0.6-3-1.2S5.4,13,4.9,12.1
				c-0.5-1-0.8-2.1-0.8-3.2H3.8c-0.3,0-0.5-0.1-0.7-0.3C2.9,8.4,2.8,8.1,2.8,7.9V4.5c0-0.3,0.1-0.5,0.3-0.7C3.3,3.5,3.5,3.4,3.8,3.4
				L3.8,3.4z M15.9,6.8h1.4V5.4H4.9v1.4h1.4v2.1c0,0.9,0.2,1.7,0.6,2.4c0.4,0.7,1,1.3,1.8,1.8c0.7,0.4,1.5,0.6,2.4,0.6
				s1.7-0.2,2.4-0.6c0.7-0.4,1.3-1,1.8-1.8c0.4-0.7,0.6-1.5,0.6-2.4C15.9,8.9,15.9,6.8,15.9,6.8z M14.1,2.7v-4.5
				c0-0.3,0.1-0.5,0.3-0.7s0.4-0.3,0.7-0.3s0.5,0.1,0.7,0.3c0.2,0.2,0.3,0.4,0.3,0.7v4.5H14.1z M5.9,2.7v-4.5c0-0.3,0.1-0.5,0.3-0.7
				c0.2-0.2,0.4-0.3,0.7-0.3s0.5,0.1,0.7,0.3c0.2,0.2,0.3,0.4,0.3,0.7v4.5H5.9z"/>
		</g>
	</g>
</g>
</svg>
