<?xml version="1.0" encoding="utf-8"?>
<!-- Generator: Adobe Illustrator 22.0.0, SVG Export Plug-In . SVG Version: 6.00 Build 0)  -->
<svg version="1.1" id="Capa_1" xmlns="http://www.w3.org/2000/svg" xmlns:xlink="http://www.w3.org/1999/xlink" x="0px" y="0px"
	 viewBox="0 0 24 24" style="enable-background:new 0 0 24 24;" xml:space="preserve">
<style type="text/css">
	.st0{fill:#686868;}
	.st1{filter:url(#Adobe_OpacityMaskFilter);}
	.st2{fill:#FFFFFF;}
	.st3{mask:url(#b_1_);}
</style>
<g>
	<g transform="translate(2 3)">
		<g>
			<path id="a_1_" class="st0" d="M19.7,14.5c0.1,0,0.1,0,0.2,0.1c0.1,0.1,0.1,0.1,0.1,0.2v0.6c0,0.1,0,0.1-0.1,0.2
				c-0.1,0.1-0.1,0.1-0.2,0.1H7.5v1.6c0,0.3-0.1,0.5-0.3,0.7c-0.2,0.2-0.4,0.3-0.7,0.3H4.7c-0.2,0-0.5-0.1-0.7-0.3
				c-0.2-0.2-0.3-0.4-0.3-0.7v-1.6H0.3c-0.1,0-0.2,0-0.2-0.1C0,15.6,0,15.5,0,15.4v-0.6c0-0.1,0-0.1,0.1-0.2
				c0.1-0.1,0.1-0.1,0.2-0.1h3.4v-1.6c0-0.3,0.1-0.5,0.3-0.7C4.2,12.1,4.4,12,4.7,12h1.9c0.3,0,0.5,0.1,0.7,0.3
				c0.2,0.2,0.3,0.4,0.3,0.7v1.6H19.7z M6.2,17v-3.8H5V17H6.2z M19.7,3.3c0.1,0,0.1,0,0.2,0.1C20,3.4,20,3.5,20,3.6v0.6
				c0,0.1,0,0.2-0.1,0.2c-0.1,0.1-0.1,0.1-0.2,0.1H10v1.6c0,0.3-0.1,0.5-0.3,0.7C9.6,6.9,9.3,7,9.1,7H7.2C6.9,7,6.7,6.9,6.5,6.7
				C6.3,6.6,6.2,6.3,6.2,6.1V4.5H0.3c-0.1,0-0.2,0-0.2-0.1C0,4.3,0,4.3,0,4.2V3.6c0-0.1,0-0.2,0.1-0.2c0.1-0.1,0.1-0.1,0.2-0.1h5.9
				V1.7c0-0.3,0.1-0.5,0.3-0.7c0.2-0.2,0.4-0.3,0.7-0.3h1.9c0.3,0,0.5,0.1,0.7,0.3C9.9,1.2,10,1.4,10,1.7v1.6H19.7z M8.8,5.8V2H7.5
				v3.8H8.8z M19.7,8.9c0.1,0,0.1,0,0.2,0.1C20,9,20,9.1,20,9.2v0.6c0,0.1,0,0.1-0.1,0.2c-0.1,0.1-0.1,0.1-0.2,0.1h-3.4v1.6
				c0,0.3-0.1,0.5-0.3,0.7c-0.2,0.2-0.4,0.3-0.7,0.3h-1.9c-0.2,0-0.5-0.1-0.7-0.3c-0.2-0.2-0.3-0.4-0.3-0.7v-1.6H0.3
				c-0.1,0-0.2,0-0.2-0.1C0,10,0,9.9,0,9.8V9.2C0,9.1,0,9,0.1,9c0.1-0.1,0.1-0.1,0.2-0.1h12.2V7.3c0-0.3,0.1-0.5,0.3-0.7
				c0.2-0.2,0.4-0.3,0.7-0.3h1.9c0.3,0,0.5,0.1,0.7,0.3c0.2,0.2,0.3,0.4,0.3,0.7v1.6H19.7z M15,11.4V7.6h-1.2v3.8H15z"/>
		</g>
		<defs>
			<filter id="Adobe_OpacityMaskFilter" filterUnits="userSpaceOnUse" x="-2" y="-3" width="24" height="24">
				<feColorMatrix  type="matrix" values="1 0 0 0 0  0 1 0 0 0  0 0 1 0 0  0 0 0 1 0"/>
			</filter>
		</defs>
		<mask maskUnits="userSpaceOnUse" x="-2" y="-3" width="24" height="24" id="b_1_">
			<g class="st1">
				<path id="a_2_" class="st2" d="M19.7,14.5c0.1,0,0.1,0,0.2,0.1c0.1,0.1,0.1,0.1,0.1,0.2v0.6c0,0.1,0,0.1-0.1,0.2
					c-0.1,0.1-0.1,0.1-0.2,0.1H7.5v1.6c0,0.3-0.1,0.5-0.3,0.7c-0.2,0.2-0.4,0.3-0.7,0.3H4.7c-0.2,0-0.5-0.1-0.7-0.3
					c-0.2-0.2-0.3-0.4-0.3-0.7v-1.6H0.3c-0.1,0-0.2,0-0.2-0.1C0,15.6,0,15.5,0,15.4v-0.6c0-0.1,0-0.1,0.1-0.2
					c0.1-0.1,0.1-0.1,0.2-0.1h3.4v-1.6c0-0.3,0.1-0.5,0.3-0.7C4.2,12.1,4.4,12,4.7,12h1.9c0.3,0,0.5,0.1,0.7,0.3
					c0.2,0.2,0.3,0.4,0.3,0.7v1.6H19.7z M6.2,17v-3.8H5V17H6.2z M19.7,3.3c0.1,0,0.1,0,0.2,0.1C20,3.4,20,3.5,20,3.6v0.6
					c0,0.1,0,0.2-0.1,0.2c-0.1,0.1-0.1,0.1-0.2,0.1H10v1.6c0,0.3-0.1,0.5-0.3,0.7C9.6,6.9,9.3,7,9.1,7H7.2C6.9,7,6.7,6.9,6.5,6.7
					C6.3,6.6,6.2,6.3,6.2,6.1V4.5H0.3c-0.1,0-0.2,0-0.2-0.1C0,4.3,0,4.3,0,4.2V3.6c0-0.1,0-0.2,0.1-0.2c0.1-0.1,0.1-0.1,0.2-0.1h5.9
					V1.7c0-0.3,0.1-0.5,0.3-0.7c0.2-0.2,0.4-0.3,0.7-0.3h1.9c0.3,0,0.5,0.1,0.7,0.3C9.9,1.2,10,1.4,10,1.7v1.6H19.7z M8.8,5.8V2H7.5
					v3.8H8.8z M19.7,8.9c0.1,0,0.1,0,0.2,0.1C20,9,20,9.1,20,9.2v0.6c0,0.1,0,0.1-0.1,0.2c-0.1,0.1-0.1,0.1-0.2,0.1h-3.4v1.6
					c0,0.3-0.1,0.5-0.3,0.7c-0.2,0.2-0.4,0.3-0.7,0.3h-1.9c-0.2,0-0.5-0.1-0.7-0.3c-0.2-0.2-0.3-0.4-0.3-0.7v-1.6H0.3
					c-0.1,0-0.2,0-0.2-0.1C0,10,0,9.9,0,9.8V9.2C0,9.1,0,9,0.1,9c0.1-0.1,0.1-0.1,0.2-0.1h12.2V7.3c0-0.3,0.1-0.5,0.3-0.7
					c0.2-0.2,0.4-0.3,0.7-0.3h1.9c0.3,0,0.5,0.1,0.7,0.3c0.2,0.2,0.3,0.4,0.3,0.7v1.6H19.7z M15,11.4V7.6h-1.2v3.8H15z"/>
			</g>
		</mask>
		<g class="st3">
			<path class="st0" d="M-2-3h24v24H-2V-3z"/>
		</g>
	</g>
</g>
</svg>
