<?xml version="1.0" encoding="utf-8"?>
<!-- Generator: Adobe Illustrator 22.0.0, SVG Export Plug-In . SVG Version: 6.00 Build 0)  -->
<svg version="1.1" id="Capa_1" xmlns="http://www.w3.org/2000/svg" xmlns:xlink="http://www.w3.org/1999/xlink" x="0px" y="0px"
	 viewBox="0 0 24 24" style="enable-background:new 0 0 24 24;" xml:space="preserve">
<style type="text/css">
	.st0{fill:#686868;}
	.st1{filter:url(#Adobe_OpacityMaskFilter);}
	.st2{fill:#FFFFFF;}
	.st3{mask:url(#b_1_);}
</style>
<g>
	<g transform="translate(1 1)">
		<g>
			<path id="a_1_" class="st0" d="M19.3,15.3c0.5,0.2,1,0.6,1.3,1c0.3,0.5,0.5,1,0.5,1.6c0,0.8-0.3,1.5-0.8,2
				c-0.6,0.6-1.2,0.8-2,0.8c-0.6,0-1.1-0.2-1.6-0.5c-0.5-0.3-0.8-0.8-1-1.3H6.5c-0.2,0.5-0.6,1-1,1.3c-0.5,0.3-1,0.5-1.6,0.5
				c-0.8,0-1.5-0.3-2-0.8c-0.6-0.6-0.8-1.2-0.8-2c0-0.6,0.2-1.1,0.5-1.6c0.3-0.5,0.8-0.8,1.3-1V6.2c-0.5-0.2-1-0.6-1.3-1
				c-0.3-0.5-0.5-1-0.5-1.6c0-0.8,0.3-1.5,0.8-2C2.3,1,3,0.7,3.8,0.7c0.6,0,1.1,0.2,1.6,0.5s0.8,0.8,1,1.3h9.1c0.2-0.5,0.6-1,1-1.3
				c0.5-0.3,1-0.5,1.6-0.5c0.8,0,1.5,0.3,2,0.8c0.6,0.6,0.8,1.2,0.8,2c0,0.6-0.2,1.1-0.5,1.6s-0.8,0.8-1.3,1L19.3,15.3L19.3,15.3z
				 M4.9,15.3c0.7,0.3,1.3,0.8,1.6,1.6h9.1c0.3-0.7,0.8-1.3,1.6-1.6V6.2c-0.7-0.3-1.3-0.8-1.6-1.6H6.5C6.2,5.4,5.6,6,4.9,6.2
				L4.9,15.3L4.9,15.3z M18.2,2.9c-0.2,0-0.4,0.1-0.5,0.2c-0.1,0.1-0.2,0.3-0.2,0.5c0,0.2,0.1,0.4,0.2,0.5c0.1,0.1,0.3,0.2,0.5,0.2
				c0.2,0,0.4-0.1,0.5-0.2c0.1-0.1,0.2-0.3,0.2-0.5c0-0.2-0.1-0.4-0.2-0.5C18.6,2.9,18.4,2.9,18.2,2.9z M3.8,2.9
				c-0.2,0-0.4,0.1-0.5,0.2C3.2,3.2,3.1,3.4,3.1,3.6c0,0.2,0.1,0.4,0.2,0.5c0.1,0.1,0.3,0.2,0.5,0.2c0.2,0,0.4-0.1,0.5-0.2
				C4.5,4,4.5,3.8,4.5,3.6c0-0.2-0.1-0.4-0.2-0.5C4.2,2.9,4,2.9,3.8,2.9z M3.8,18.7c0.2,0,0.4-0.1,0.5-0.2c0.1-0.1,0.2-0.3,0.2-0.5
				c0-0.2-0.1-0.4-0.2-0.5c-0.1-0.1-0.3-0.2-0.5-0.2c-0.2,0-0.4,0.1-0.5,0.2c-0.1,0.1-0.2,0.3-0.2,0.5c0,0.2,0.1,0.4,0.2,0.5
				C3.4,18.6,3.6,18.7,3.8,18.7z M18.2,18.7c0.2,0,0.4-0.1,0.5-0.2c0.1-0.1,0.2-0.3,0.2-0.5c0-0.2-0.1-0.4-0.2-0.5
				c-0.1-0.1-0.3-0.2-0.5-0.2c-0.2,0-0.4,0.1-0.5,0.2c-0.1,0.1-0.2,0.3-0.2,0.5c0,0.2,0.1,0.4,0.2,0.5C17.8,18.6,18,18.7,18.2,18.7z
				"/>
		</g>
		<defs>
			<filter id="Adobe_OpacityMaskFilter" filterUnits="userSpaceOnUse" x="-1" y="-1" width="24" height="24">
				<feColorMatrix  type="matrix" values="1 0 0 0 0  0 1 0 0 0  0 0 1 0 0  0 0 0 1 0"/>
			</filter>
		</defs>
		<mask maskUnits="userSpaceOnUse" x="-1" y="-1" width="24" height="24" id="b_1_">
			<g class="st1">
				<path id="a_2_" class="st2" d="M19.3,15.3c0.5,0.2,1,0.6,1.3,1c0.3,0.5,0.5,1,0.5,1.6c0,0.8-0.3,1.5-0.8,2
					c-0.6,0.6-1.2,0.8-2,0.8c-0.6,0-1.1-0.2-1.6-0.5c-0.5-0.3-0.8-0.8-1-1.3H6.5c-0.2,0.5-0.6,1-1,1.3c-0.5,0.3-1,0.5-1.6,0.5
					c-0.8,0-1.5-0.3-2-0.8c-0.6-0.6-0.8-1.2-0.8-2c0-0.6,0.2-1.1,0.5-1.6c0.3-0.5,0.8-0.8,1.3-1V6.2c-0.5-0.2-1-0.6-1.3-1
					c-0.3-0.5-0.5-1-0.5-1.6c0-0.8,0.3-1.5,0.8-2C2.3,1,3,0.7,3.8,0.7c0.6,0,1.1,0.2,1.6,0.5s0.8,0.8,1,1.3h9.1c0.2-0.5,0.6-1,1-1.3
					c0.5-0.3,1-0.5,1.6-0.5c0.8,0,1.5,0.3,2,0.8c0.6,0.6,0.8,1.2,0.8,2c0,0.6-0.2,1.1-0.5,1.6s-0.8,0.8-1.3,1L19.3,15.3L19.3,15.3z
					 M4.9,15.3c0.7,0.3,1.3,0.8,1.6,1.6h9.1c0.3-0.7,0.8-1.3,1.6-1.6V6.2c-0.7-0.3-1.3-0.8-1.6-1.6H6.5C6.2,5.4,5.6,6,4.9,6.2
					L4.9,15.3L4.9,15.3z M18.2,2.9c-0.2,0-0.4,0.1-0.5,0.2c-0.1,0.1-0.2,0.3-0.2,0.5c0,0.2,0.1,0.4,0.2,0.5c0.1,0.1,0.3,0.2,0.5,0.2
					c0.2,0,0.4-0.1,0.5-0.2c0.1-0.1,0.2-0.3,0.2-0.5c0-0.2-0.1-0.4-0.2-0.5C18.6,2.9,18.4,2.9,18.2,2.9z M3.8,2.9
					c-0.2,0-0.4,0.1-0.5,0.2C3.2,3.2,3.1,3.4,3.1,3.6c0,0.2,0.1,0.4,0.2,0.5c0.1,0.1,0.3,0.2,0.5,0.2c0.2,0,0.4-0.1,0.5-0.2
					C4.5,4,4.5,3.8,4.5,3.6c0-0.2-0.1-0.4-0.2-0.5C4.2,2.9,4,2.9,3.8,2.9z M3.8,18.7c0.2,0,0.4-0.1,0.5-0.2c0.1-0.1,0.2-0.3,0.2-0.5
					c0-0.2-0.1-0.4-0.2-0.5c-0.1-0.1-0.3-0.2-0.5-0.2c-0.2,0-0.4,0.1-0.5,0.2c-0.1,0.1-0.2,0.3-0.2,0.5c0,0.2,0.1,0.4,0.2,0.5
					C3.4,18.6,3.6,18.7,3.8,18.7z M18.2,18.7c0.2,0,0.4-0.1,0.5-0.2c0.1-0.1,0.2-0.3,0.2-0.5c0-0.2-0.1-0.4-0.2-0.5
					c-0.1-0.1-0.3-0.2-0.5-0.2c-0.2,0-0.4,0.1-0.5,0.2c-0.1,0.1-0.2,0.3-0.2,0.5c0,0.2,0.1,0.4,0.2,0.5C17.8,18.6,18,18.7,18.2,18.7
					z"/>
			</g>
		</mask>
		<g class="st3">
			<path class="st0" d="M-1-1h24v24H-1V-1z"/>
		</g>
	</g>
</g>
</svg>
