<svg xmlns="http://www.w3.org/2000/svg" xml:space="preserve" style="fill-rule:evenodd;clip-rule:evenodd;stroke-linejoin:round;stroke-miterlimit:2" viewBox="0 0 238 70"><path d="m169.996 47.988 7 .012h4v-4l3.992-4-14.992-.047v8.035ZM179.996 36h9l4 .002V32l4-4h-17v8ZM174.996 16h30v8h-30z" style="fill:#b4bbbf;fill-rule:nonzero"/><path d="m176.996 48.01 4-4.01h14v8h-18v-3.99Z" style="fill:red;fill-rule:nonzero"/><path d="M206.996 40v-7.995h-14L184.988 40h22.008Z" style="fill:#ff8b00;fill-rule:nonzero"/><path d="M221.996 20h-17l-8 8h25v-8Z" style="fill:#55b2c6;fill-rule:nonzero"/><path d="M157.979 23.6v28.417h-4.768l-.127-2.988a8.318 8.318 0 0 1-2.67 2.479c-1.081.572-2.416.89-3.942.89-1.335 0-2.606-.254-3.687-.699-1.144-.509-2.162-1.144-2.988-2.034a9.581 9.581 0 0 1-1.971-3.179c-.508-1.208-.699-2.606-.699-4.132 0-1.526.254-2.924.699-4.196.509-1.271 1.145-2.352 1.971-3.242.826-.89 1.844-1.589 2.988-2.098 1.144-.509 2.352-.763 3.687-.763 1.526 0 2.797.254 3.878.827 1.081.572 1.971 1.335 2.67 2.415V23.664h4.959V23.6Zm-10.426 24.539c1.653 0 2.924-.572 3.941-1.653s1.526-2.543 1.526-4.323c0-1.78-.509-3.179-1.526-4.323-1.017-1.081-2.288-1.653-3.941-1.653-1.59 0-2.925.572-3.878 1.653-1.017 1.081-1.526 2.543-1.526 4.323 0 1.78.509 3.179 1.526 4.259 1.017 1.145 2.288 1.717 3.878 1.717" style="fill:#003264;fill-rule:nonzero"/><path d="M129.067 23.6h4.959v5.849h-4.959zM129.067 32.373h4.959v19.644h-4.959z" style="fill:#003264"/><path d="M118.831 34.979c1.59-2.352 5.595-2.606 7.248-2.606v4.577c-2.035 0-4.069.064-5.277.954-1.208.89-1.843 2.098-1.843 3.56v10.553H114V32.373h4.768l.063 2.606ZM36.489 46.677h-12.46l-2.162 5.34H16.4l11.507-26.955h4.768l11.506 26.955H38.65l-2.161-5.34Zm-1.717-4.26-4.513-10.998-4.514 10.998h9.027ZM72.024 36.654H59.738v4.267h6.963c-.219 2.139-1.021 3.846-2.406 5.123-1.385 1.276-3.208 1.914-5.469 1.914-1.288 0-2.461-.231-3.518-.693a7.817 7.817 0 0 1-2.717-1.95c-.753-.839-1.337-1.848-1.749-3.027-.414-1.179-.62-2.486-.62-3.92 0-1.433.206-2.739.62-3.919.412-1.178.996-2.187 1.749-3.026a7.769 7.769 0 0 1 2.734-1.95c1.07-.462 2.248-.693 3.538-.693 2.669 0 4.696.642 6.081 1.927l3.284-3.286c-2.486-1.934-5.63-2.907-9.439-2.907-2.114 0-4.023.334-5.723 1.002-1.703.669-3.161 1.605-4.376 2.807-1.216 1.204-2.151 2.657-2.807 4.357-.657 1.702-.985 3.599-.985 5.688 0 2.066.334 3.957 1.003 5.67.668 1.714 1.61 3.173 2.825 4.375 1.216 1.204 2.673 2.139 4.375 2.808 1.702.668 3.597 1.002 5.688 1.002 2.042 0 3.883-.334 5.524-1.002 1.64-.669 3.038-1.604 4.193-2.808 1.154-1.202 2.042-2.661 2.661-4.375.621-1.713.93-3.604.93-5.67 0-.291-.007-.577-.017-.856-.014-.28-.032-.565-.056-.858M110.792 36.654H98.506v4.267h6.963c-.219 2.139-1.021 3.846-2.406 5.123-1.385 1.276-3.208 1.914-5.469 1.914-1.288 0-2.461-.231-3.518-.693a7.817 7.817 0 0 1-2.717-1.95c-.753-.839-1.337-1.848-1.749-3.027-.414-1.179-.62-2.486-.62-3.92 0-1.433.206-2.739.62-3.919.412-1.178.996-2.187 1.749-3.026a7.764 7.764 0 0 1 2.735-1.95c1.069-.462 2.247-.693 3.537-.693 2.669 0 4.697.642 6.081 1.927l3.284-3.286c-2.486-1.934-5.63-2.907-9.438-2.907-2.115 0-4.024.334-5.724 1.002-1.703.669-3.161 1.605-4.376 2.807-1.216 1.204-2.151 2.657-2.807 4.357-.657 1.702-.985 3.599-.985 5.688 0 2.066.334 3.957 1.003 5.67.668 1.714 1.61 3.173 2.825 4.375 1.216 1.204 2.673 2.139 4.375 2.808 1.702.668 3.597 1.002 5.689 1.002 2.041 0 3.883-.334 5.523-1.002 1.64-.669 3.038-1.604 4.193-2.808 1.154-1.202 2.042-2.661 2.661-4.375.621-1.713.93-3.604.93-5.67 0-.291-.007-.577-.017-.856-.014-.28-.032-.565-.056-.858" style="fill:#003264;fill-rule:nonzero"/></svg>