<?xml version="1.0" encoding="UTF-8" standalone="no"?>
<!DOCTYPE svg PUBLIC "-//W3C//DTD SVG 1.1//EN" "http://www.w3.org/Graphics/SVG/1.1/DTD/svg11.dtd">
<svg width="100%" height="100%" viewBox="0 0 20 20" version="1.1" xmlns="http://www.w3.org/2000/svg" xmlns:xlink="http://www.w3.org/1999/xlink" xml:space="preserve" xmlns:serif="http://www.serif.com/" style="fill-rule:evenodd;clip-rule:evenodd;stroke-linejoin:round;stroke-miterlimit:1.41421;">
    <g id="enterprise" transform="matrix(1,0,0,1,2,-4)">
        <g transform="matrix(1,0,0,1,-2,4)">
            <path d="M10,0C15.519,0 20,4.481 20,10C20,15.519 15.519,20 10,20C4.481,20 0,15.519 0,10C0,4.481 4.481,0 10,0ZM10,2C14.415,2 18,5.585 18,10C18,14.415 14.415,18 10,18C5.585,18 2,14.415 2,10C2,5.585 5.585,2 10,2Z" style="fill:rgb(225,31,34);"/>
        </g>
        <path id="e" d="M5.448,14.328C5.448,14.7 5.529,15.039 5.691,15.345C5.853,15.651 6.066,15.912 6.33,16.128C6.594,16.344 6.9,16.512 7.248,16.632C7.596,16.752 7.956,16.812 8.328,16.812C8.832,16.812 9.27,16.695 9.642,16.461C10.014,16.227 10.356,15.918 10.668,15.534L11.892,16.47C10.992,17.634 9.732,18.216 8.112,18.216C7.44,18.216 6.831,18.102 6.285,17.874C5.739,17.646 5.277,17.331 4.899,16.929C4.521,16.527 4.23,16.053 4.026,15.507C3.822,14.961 3.72,14.37 3.72,13.734C3.72,13.098 3.831,12.507 4.053,11.961C4.275,11.415 4.581,10.941 4.971,10.539C5.361,10.137 5.826,9.822 6.366,9.594C6.906,9.366 7.494,9.252 8.13,9.252C8.886,9.252 9.525,9.384 10.047,9.648C10.569,9.912 10.998,10.257 11.334,10.683C11.67,11.109 11.913,11.589 12.063,12.123C12.213,12.657 12.288,13.2 12.288,13.752L12.288,14.328L5.448,14.328ZM10.56,13.032C10.548,12.672 10.491,12.342 10.389,12.042C10.287,11.742 10.134,11.481 9.93,11.259C9.726,11.037 9.471,10.863 9.165,10.737C8.859,10.611 8.502,10.548 8.094,10.548C7.698,10.548 7.335,10.623 7.005,10.773C6.675,10.923 6.396,11.118 6.168,11.358C5.94,11.598 5.763,11.865 5.637,12.159C5.511,12.453 5.448,12.744 5.448,13.032L10.56,13.032Z" style="fill:rgb(225,31,34);"/>
    </g>
</svg>
