<?xml version="1.0" encoding="UTF-8" standalone="no"?>
<!DOCTYPE svg PUBLIC "-//W3C//DTD SVG 1.1//EN" "http://www.w3.org/Graphics/SVG/1.1/DTD/svg11.dtd">
<svg width="100%" height="100%" viewBox="0 0 16 16" version="1.1" xmlns="http://www.w3.org/2000/svg" xmlns:xlink="http://www.w3.org/1999/xlink" xml:space="preserve" xmlns:serif="http://www.serif.com/" style="fill-rule:evenodd;clip-rule:evenodd;stroke-linejoin:round;stroke-miterlimit:1.41421;">
    <path id="Combined-Shape" d="M0,0L16,0L16,16L0,16L0,0ZM3.818,5.351L3.818,10.102C3.847,10.273 3.793,10.448 3.673,10.573L2.544,11.943L2.544,12.124L5.745,12.124L5.745,11.943L4.616,10.573C4.494,10.448 4.437,10.275 4.46,10.102L4.46,5.993L7.271,12.124L7.597,12.124L10.01,5.993L10.01,10.879C10.01,11.01 10.01,11.035 9.925,11.12L9.057,11.963L9.057,12.144L13.272,12.144L13.272,11.963L12.434,11.14C12.36,11.084 12.324,10.991 12.339,10.899L12.339,4.854C12.324,4.763 12.36,4.67 12.434,4.614L13.292,3.791L13.292,3.61L10.322,3.61L8.204,8.893L5.795,3.61L2.679,3.61L2.679,3.791L3.683,5C3.781,5.089 3.832,5.219 3.818,5.351Z" style="fill:white;fill-opacity:0.8;fill-rule:nonzero;"/>
</svg>
