<svg width="208" height="136" xmlns="http://www.w3.org/2000/svg"><g fill="none" fill-rule="evenodd"><path d="M.5 26.5H199M5.5 46.5H197" stroke="#0084E7" stroke-linecap="square"/><circle stroke="#0084E7" cx="202.5" cy="106.5" r="3"/><circle stroke="#0084E7" cx="204.5" cy="66.5" r="3"/><path d="M2.5 6.5H166M37.5 86.5h130M37.5 87.5l130-1M5.5 106.5H199M5.5 126.5H199M35.5 66.5H201" stroke="#0084E7" stroke-linecap="square"/><path d="M14.5 116.5h-4M12.5 114.5v4" stroke="#8ABDE3" stroke-linecap="square"/><g stroke="#8ABDE3" stroke-linecap="square"><path d="M54.5 96.5h-4M52.5 94.5v4"/></g><g stroke="#8ABDE3" stroke-linecap="square"><path d="M54.5 76.5h-4M52.5 74.5v4"/></g><g stroke="#8ABDE3" stroke-linecap="square"><path d="M54.5 56.5h-4M52.5 54.5v4"/></g><path d="M14.5 36.5h-4" stroke="#8ABDE3" stroke-linecap="square"/><path d="M149.5 2.5v132.008M148.5.5l1 132.008" stroke="#0084E7" stroke-linecap="square"/></g></svg>