<?xml version="1.0" encoding="utf-8"?>
<!-- Generator: Adobe Illustrator 21.1.0, SVG Export Plug-In . SVG Version: 6.00 Build 0)  -->
<svg version="1.1" id="Layer_1" xmlns="http://www.w3.org/2000/svg" xmlns:xlink="http://www.w3.org/1999/xlink" x="0px" y="0px"
	 viewBox="0 0 163.2 43" style="enable-background:new 0 0 163.2 43;" xml:space="preserve">
<style type="text/css">
	.st0{fill:#A100FF;}
</style>
<g>
	<polygon class="st0" points="95.1,12 104.5,8.5 95.1,4.9 95.1,0 111.2,6.5 111.2,10.5 95.1,17 	"/>
	<path d="M6.2,43C2.8,43,0,41.3,0,37.5v-0.2c0-4.6,4-6.2,8.9-6.2h2.3v-0.9c0-1.9-0.8-3-2.8-3c-1.8,0-2.7,1-2.8,2.4h-5
		c0.4-4.2,3.7-6.2,8.1-6.2c4.5,0,7.8,1.9,7.8,6.6v12.6h-5.1v-2.2C10.4,41.8,8.7,43,6.2,43z M11.2,36.4v-1.8H9.1
		c-2.6,0-3.9,0.7-3.9,2.4v0.2c0,1.3,0.8,2.2,2.6,2.2C9.6,39.3,11.2,38.3,11.2,36.4z M28.4,43c-5.2,0-9-3.2-9-9.6v-0.3
		c0-6.4,4-9.8,9-9.8c4.3,0,7.8,2.2,8.2,7.1h-5c-0.3-1.8-1.3-3-3.1-3c-2.2,0-3.8,1.8-3.8,5.5v0.6c0,3.8,1.4,5.5,3.8,5.5
		c1.8,0,3.1-1.3,3.4-3.4h4.8C36.4,40,33.5,43,28.4,43z M48,43c-5.2,0-9-3.2-9-9.6v-0.3c0-6.4,4-9.8,9-9.8c4.3,0,7.8,2.2,8.2,7.1h-5
		c-0.3-1.8-1.3-3-3.1-3c-2.2,0-3.8,1.8-3.8,5.5v0.6c0,3.8,1.4,5.5,3.8,5.5c1.8,0,3.1-1.3,3.4-3.4h4.8C56,40,53.1,43,48,43z M67.7,43
		c-5.4,0-9.1-3.2-9.1-9.5v-0.4c0-6.3,3.9-9.8,9-9.8c4.7,0,8.6,2.6,8.6,8.9v2.3H63.9c0.2,3.4,1.7,4.7,3.9,4.7c2,0,3.1-1.1,3.5-2.4
		h4.9C75.6,40.3,72.6,43,67.7,43z M64,31H71c-0.1-2.8-1.4-4-3.5-4C65.9,27.1,64.4,28,64,31z M79.4,23.8h5.3v2.8
		c0.9-1.8,2.8-3.2,5.7-3.2c3.4,0,5.7,2.1,5.7,6.6v12.6h-5.3V30.8c0-2.2-0.9-3.2-2.8-3.2c-1.8,0-3.3,1.1-3.3,3.5v11.5h-5.3V23.8z
		 M105.8,18.1v5.7h3.6v3.9h-3.6v8.9c0,1.4,0.6,2.1,1.9,2.1c0.8,0,1.3-0.1,1.8-0.3v4.1c-0.6,0.2-1.7,0.4-3,0.4c-4.1,0-6-1.9-6-5.7
		v-9.5h-2.2v-3.9h2.2v-3.5L105.8,18.1z M129.2,42.6H124v-2.8c-0.9,1.8-2.7,3.2-5.5,3.2c-3.4,0-5.9-2.1-5.9-6.5V23.8h5.3v12
		c0,2.2,0.9,3.2,2.7,3.2c1.8,0,3.3-1.2,3.3-3.5V23.8h5.3V42.6z M133.1,23.8h5.3v3.5c1.1-2.5,2.9-3.7,5.7-3.7v5.2
		c-3.6,0-5.7,1.1-5.7,4.2v9.7h-5.3V23.8z M154.8,43c-5.4,0-9.1-3.2-9.1-9.5v-0.4c0-6.3,3.9-9.8,9-9.8c4.7,0,8.6,2.6,8.6,8.9v2.3
		h-12.2c0.2,3.4,1.7,4.7,3.9,4.7c2,0,3.1-1.1,3.5-2.4h4.9C162.6,40.3,159.7,43,154.8,43z M151,31h7.1c-0.1-2.8-1.4-4-3.5-4
		C153,27.1,151.5,28,151,31z"/>
</g>
</svg>
