<?xml version="1.0" encoding="UTF-8" standalone="no"?>
<svg
   xmlns:dc="http://purl.org/dc/elements/1.1/"
   xmlns:cc="http://creativecommons.org/ns#"
   xmlns:rdf="http://www.w3.org/1999/02/22-rdf-syntax-ns#"
   xmlns:svg="http://www.w3.org/2000/svg"
   xmlns="http://www.w3.org/2000/svg"
   viewBox="0 0 133.33333 53.373333"
   height="53.373333"
   width="133.33333"
   xml:space="preserve"
   id="svg2"
   version="1.1"><metadata
     id="metadata8"><rdf:RDF><cc:Work
         rdf:about=""><dc:format>image/svg+xml</dc:format><dc:type
           rdf:resource="http://purl.org/dc/dcmitype/StillImage" /></cc:Work></rdf:RDF></metadata><defs
     id="defs6" /><g
     transform="matrix(1.3333333,0,0,-1.3333333,0,53.373333)"
     id="g10"><g
       transform="scale(0.1)"
       id="g12"><path
         id="path14"
         style="fill:#f49813;fill-opacity:1;fill-rule:nonzero;stroke:none"
         d="m 511.617,400.082 c 35.762,1.231 71.758,-4.148 105.488,-16.117 50.743,-17.813 96.094,-50.457 129.278,-92.742 14.597,-18.551 26.824,-38.942 36.406,-60.516 1.699,-3.59 3.008,-7.625 2.098,-11.625 -1.114,-6.715 -7,-12.266 -13.77,-12.937 -7.031,-1.028 -14.297,3.359 -16.804,9.984 -19.055,44.84 -51.575,83.789 -92.141,110.75 -25.078,16.758 -53.203,28.961 -82.586,35.793 -37.891,8.863 -77.785,8.863 -115.684,0.027 -54.113,-12.461 -103.66,-43.5 -138.605,-86.629 -14.817,-18.172 -27.051,-38.429 -36.274,-59.98 -1.996,-5.008 -6.582,-8.934 -11.933,-9.813 -5.16,-0.996 -10.777,0.786 -14.375,4.629 -4.242,4.25 -5.629,11.043 -3.442,16.621 25.383,60.012 72.383,110.426 130.168,140.434 37.637,19.699 79.739,30.687 122.176,32.121 v 0" /><path
         id="path16"
         style="fill:#3069b5;fill-opacity:1;fill-rule:nonzero;stroke:none"
         d="m 464.359,215.305 c -0.214,3.117 2.735,5.449 5.657,5.523 3.797,0.102 7.605,0.07 11.41,0.016 2.644,-0.09 5.73,-1.852 5.719,-4.821 0.136,-34.871 -0.082,-69.753 0.117,-104.644 14.129,15.711 28.379,31.336 42.558,47 2.793,2.754 5,6.926 9.344,7.285 5.852,0.242 11.719,0.098 17.578,0.09 2.258,0.203 4.778,-1.867 3.985,-4.277 -0.926,-1.86 -2.625,-3.137 -4.012,-4.614 -15.332,-15.32 -30.723,-30.586 -45.977,-45.972 14.735,-16.8207 29.266,-33.8129 43.934,-50.6957 1.887,-2.4023 4.25,-4.4414 5.832,-7.0898 1.16,-2.0703 -0.762,-4.5899 -2.981,-4.6875 -4.871,-0.2735 -9.753,0 -14.636,-0.1172 -2.539,0.0586 -5.285,-0.3125 -7.59,0.9961 -2.43,1.3945 -3.906,3.8867 -5.645,5.9844 -14.148,17.8164 -28.203,35.7031 -42.402,53.4887 -0.145,-17.5395 -0.043,-35.0708 -0.055,-52.5981 -0.054,-2.0235 0.36,-4.461 -1.402,-5.9375 -2.805,-2.7071 -6.98,-1.7578 -10.48,-1.9336 -3.106,0.1055 -6.739,-0.5742 -9.262,1.7187 -1.406,1.0938 -1.774,2.961 -1.719,4.6211 0.039,53.5624 -0.016,107.1174 0.027,160.6644 v 0" /><path
         id="path18"
         style="fill:#3069b5;fill-opacity:1;fill-rule:nonzero;stroke:none"
         d="m 399.91,166.047 c 7.094,2.281 15.09,2.715 22.039,-0.293 2.438,-1.145 5.27,-3.586 4.168,-6.594 -1.113,-3.777 -2.062,-7.597 -3.39,-11.308 -0.981,-2.664 -4.071,-3.653 -6.672,-3.133 -5.852,1.004 -11.598,2.937 -17.598,2.742 -4.187,0.098 -8.051,-2.148 -10.914,-5.059 -4.621,-4.519 -7.012,-10.839 -8.086,-17.109 -0.852,-4.531 -0.609,-9.16 -0.648,-13.738 0,-19.2386 0.007,-38.4886 -0.004,-57.7269 0.273,-3.164 -3,-5.3125 -5.856,-5.4218 -3.922,-0.0547 -7.836,-0.1055 -11.754,0.0312 -2.832,0.1484 -6.019,2.2148 -5.652,5.4023 -0.016,35.625 -0.039,71.2382 0.008,106.8632 -0.242,3.543 3.683,5.469 6.762,5.137 3.863,-0.254 9.136,1.199 11.648,-2.688 1.906,-4.507 2.812,-9.375 4.602,-13.922 5.386,7.391 12.527,13.907 21.347,16.817 v 0" /><path
         id="path20"
         style="fill:#3069b5;fill-opacity:1;fill-rule:nonzero;stroke:none"
         d="m 0,163.328 c 1.08984,1.25 2.36328,2.602 4.17969,2.473 5.32031,0.051 10.65621,0.168 15.97261,-0.078 2.6993,-0.078 4.5586,-2.45 4.9532,-4.961 5.2304,-21.27 10.3672,-42.571 15.5742,-63.8479 1.5273,-6.5703 3.3867,-13.0743 4.3828,-19.7578 1.0273,-6.004 1.2305,-12.0977 2.207,-18.1133 1.3438,8.5859 2.5469,17.2265 4.8633,25.6133 6.8086,25.3947 13.6133,50.7847 20.4297,76.1717 0.5313,2.895 3.2539,4.953 6.1484,4.953 5.9219,0.149 11.8555,0.047 17.7774,0.047 3.1758,0.149 6.5747,-1.707 7.3397,-4.961 5.086,-18.512 10.11,-37.058 15.176,-55.586 3.074,-11.9997 7.101,-23.7966 8.84,-36.1091 0.48,-3.3906 0.949,-6.7891 1.648,-10.1563 1.91,19.3438 6.887,38.1641 10.981,57.1054 3.379,15.07 6.683,30.156 10.101,45.227 0.504,3.027 3.707,4.55 6.528,4.465 4.789,0.027 9.586,0.164 14.367,-0.079 2.84,-0.082 4.472,-3.222 3.472,-5.754 -9.609,-35.457 -19.183,-70.937 -28.796,-106.3941 -0.516,-2.8437 -2.993,-5.0625 -5.895,-5.1093 -7.422,-0.2422 -14.859,-0.0586 -22.281,-0.0977 -2.66,-0.1641 -5.473,1.2617 -5.942,4.0625 -6.644,24.3828 -13.1559,48.8086 -19.7379,73.2106 -2.3828,8.489 -3.3477,17.289 -4.3477,26.02 -1.2226,-7.774 -1.8281,-15.676 -3.8984,-23.313 -6.7383,-25.125 -13.5157,-50.2613 -20.2696,-75.3902 -0.7617,-4.0704 -5.414,-4.8829 -8.875,-4.6172 -6.9023,0.125 -13.8046,-0.1602 -20.6992,0.125 -2.457,-0.0078 -4.3515,1.9062 -4.7929,4.2265 C 19.7188,88.0195 10.0625,123.352 0.367188,158.66 0.03125,160.203 0.0742188,161.777 0,163.328 v 0" /><path
         id="path22"
         style="fill:#3069b5;fill-opacity:1;fill-rule:nonzero;stroke:none"
         d="m 870.453,165.734 c 5.039,0.086 10.098,0.106 15.137,0 3.066,-0.043 5.949,-2.14 6.914,-5.07 8.703,-22.742 17.344,-45.527 26.035,-68.2812 1.816,-4.6172 3.086,-9.4336 3.899,-14.3242 3.593,13.4961 8.378,26.6294 12.578,39.9494 4.675,14.402 9.355,28.808 14.05,43.215 0.696,2.507 3.086,4.218 5.625,4.429 4.114,0.305 8.254,0.039 12.375,0.149 2.411,-0.028 5.282,0.254 7.118,-1.68 1.191,-1.008 0.937,-2.683 0.441,-3.992 C 960.719,120.461 946.852,80.7734 932.965,41.0938 930.551,34.4844 928.695,27.5664 924.809,21.6211 919.234,12.5664 910.199,6.04688 900.27,2.51953 896.801,1.44531 893.219,-0.9375 889.488,0.398438 886.84,1.07422 885.824,3.82813 884.41,5.85156 c -1.015,1.83594 -2.89,3.53516 -2.5,5.82034 0.184,2.2656 2,4.1094 4.141,4.7148 4.187,1.4453 8.445,3.0391 11.836,5.9961 8.242,6.9727 13.34,17.2852 15.281,27.7813 -1.316,4.6601 -3.75,8.9453 -5.516,13.457 -13.261,30.8203 -26.523,61.6519 -39.816,92.4609 -0.801,2.016 -1.981,3.938 -2.207,6.125 0.031,2.402 2.785,3.457 4.824,3.527 v 0" /><path
         id="path24"
         style="fill:#3069b5;fill-opacity:1;fill-rule:nonzero;stroke:none"
         d="m 252.117,150.828 c -7.234,-1.344 -13.832,-5.848 -17.504,-12.262 -6.136,-10.402 -6.843,-22.953 -6.566,-34.75 0.437,-10.6793 2.152,-22.0699 8.965,-30.7027 5.082,-6.4922 13.433,-9.7539 21.551,-9.6289 7.808,-0.25 15.988,2.3945 21.281,8.332 6.761,7.3945 8.933,17.6563 9.863,27.332 0.41,9.5036 0.602,19.1796 -1.863,28.4606 -1.961,7.84 -6.102,15.68 -13.266,19.903 -6.668,4.09 -14.906,4.472 -22.461,3.316 z m 3.055,16.914 c 13.09,0.805 26.805,-1.914 37.609,-9.668 9.664,-6.875 16.227,-17.469 19.293,-28.828 3.645,-13.562 3.629,-28.035 0.324,-41.6679 -3.113,-12.5664 -10.394,-24.414 -21.378,-31.5547 -11.739,-7.789 -26.485,-9.8125 -40.262,-8.1523 -11.738,1.4453 -23.176,6.5937 -31.348,15.2422 -9.605,10.0625 -14.375,23.9258 -15.367,37.6287 -1.207,15.196 1.121,31.281 9.574,44.258 6.254,9.766 16.196,16.941 27.285,20.215 4.625,1.445 9.45,2.117 14.27,2.527 v 0" /><path
         id="path26"
         style="fill:#3069b5;fill-opacity:1;fill-rule:nonzero;stroke:none"
         d="m 641.293,151.445 c -7.176,-0.461 -14.102,-4.59 -17.305,-11.14 -6.258,-12.114 -6.386,-26.211 -6.074,-39.532 0.5,-8.7027 1.445,-17.6871 5.5,-25.5464 2.742,-5.293 7.723,-9.4727 13.613,-10.7539 9.012,-2.168 19.618,-0.3321 26.024,6.789 6.172,7.0274 8.203,16.5821 9.152,25.625 0.652,10.3083 0.692,20.8283 -1.867,30.9183 -1.758,6.746 -4.734,13.484 -10.078,18.172 -5.125,4.511 -12.266,6.25 -18.965,5.468 z m 30.879,65.352 c -0.164,2.734 2.629,4.48 5.058,4.691 3.887,0.211 7.786,0.11 11.68,0.067 2.969,0.027 6.289,-2.18 5.86,-5.477 0,-53.805 0.011,-107.601 -0.008,-161.3983 0.203,-2.7774 -2.532,-4.9336 -5.098,-5.1016 -3.098,-0.164 -6.203,-0.164 -9.289,0.0508 -2.176,0.1367 -4.285,1.5313 -5.027,3.6133 -1.164,3.4961 -1.77,7.1289 -2.657,10.6836 -4.296,-5.8281 -9.836,-10.9844 -16.718,-13.543 -9.817,-3.6133 -20.743,-3.6719 -30.832,-1.2109 -10.137,2.4375 -18.965,9.4023 -23.856,18.5703 -7.676,13.9961 -8.586,30.4609 -8.105,46.0738 0.273,13.34 2.82,27.414 11.511,38 6.555,8.973 17.297,14.122 28.145,15.469 10.098,1.477 21.047,-0.222 29.406,-6.34 3.953,-2.781 7.117,-6.511 9.942,-10.41 -0.079,22.082 -0.059,44.172 -0.012,66.262 v 0" /><path
         id="path28"
         style="fill:#3069b5;fill-opacity:1;fill-rule:nonzero;stroke:none"
         d="m 780.824,150.773 c -3.601,-0.734 -7.09,-2.179 -10,-4.433 -5.82,-4.531 -8.711,-11.731 -10.254,-18.723 -2.246,-11.094 -2.215,-22.551 -1.054,-33.7693 1.086,-8.2422 3.156,-17.0391 9.199,-23.1329 4.922,-5.1679 12.344,-7.0625 19.289,-6.7226 7.469,-0.2695 15.242,2.5117 20.059,8.3789 6.023,7.2852 7.722,16.9766 8.601,26.1055 0.559,10.7344 0.566,21.7264 -2.449,32.1484 -1.906,6.492 -5.391,12.949 -11.27,16.648 -6.476,4.25 -14.668,4.641 -22.121,3.5 z m -10,14.735 c 10.364,2.871 21.457,3.039 31.926,0.644 9.727,-2.254 18.836,-7.714 24.813,-15.8 6.32,-8.289 9.511,-18.567 10.839,-28.809 1.153,-7.898 0.821,-15.898 0.832,-23.8555 0,-14.3594 0,-28.7227 -0.039,-43.0781 0.157,-1.75 -0.949,-3.3008 -2.375,-4.211 -2.41,-1.4843 -5.398,-0.8281 -8.086,-0.9961 -3.015,0.0235 -6.98,-0.2421 -8.621,2.8946 -1.601,3.6875 -1.933,7.8008 -2.961,11.6797 -4.043,-4.9141 -8.23,-9.9844 -14.082,-12.8243 -8.914,-4.4062 -19.336,-4.1484 -28.875,-2.2851 -11.672,2.3047 -22.422,9.207 -29.023,19.1523 -7.863,11.5821 -10.715,25.8789 -10.606,39.6955 -0.097,13.469 2.539,27.394 10.028,38.789 5.988,9.316 15.597,16.062 26.23,19.004 v 0" /><path
         id="path30"
         style="fill:#3069b5;fill-opacity:1;fill-rule:nonzero;stroke:none"
         d="m 979.574,77.2852 c -5.926,-2.1758 -9.656,-9.0118 -8.144,-15.1836 1.543,-7.2461 9.972,-12.1914 17.004,-9.5118 6.484,1.9805 10.574,9.375 8.562,15.8946 -1.766,7.3359 -10.469,11.6719 -17.422,8.8008 z m 0.821,3.0976 c 3.515,0.5547 7.335,0.5938 10.597,-1.0351 5.555,-2.5235 9.548,-8.4883 8.946,-14.6914 0.462,-7.3985 -5.762,-14.0118 -12.864,-15.2032 -7.996,-1.6992 -16.601,4.0938 -18.23,12.0703 -2.102,8.0274 3.476,17.0625 11.551,18.8594 v 0" /><path
         id="path32"
         style="fill:#3069b5;fill-opacity:1;fill-rule:nonzero;stroke:none"
         d="m 982.047,71.3672 c -0.012,-1.6797 -0.02,-3.3594 0,-5.0508 1.473,0.0899 2.988,0 4.441,0.4024 1.367,0.5664 1.231,2.3046 0.86,3.4687 -1.414,1.3828 -3.516,1.0234 -5.301,1.1797 z m -4.445,2.7344 c 4.25,-0.2422 9.015,0.957 12.843,-1.4141 3.086,-2.3164 1.59,-7.3555 -1.894,-8.4297 1.004,-2.6562 2.402,-5.125 3.679,-7.6562 -1.609,-0.0313 -3.191,-0.0586 -4.773,-0.086 -1.144,2.3438 -2.266,4.7149 -3.359,7.0782 -0.696,0.0195 -1.379,0.0273 -2.051,0.039 -0.012,-2.3633 -0.012,-4.7265 -0.012,-7.0898 -1.504,0.0195 -2.976,0.039 -4.453,0.0508 0.012,5.8398 -0.008,11.6796 0.02,17.5078 v 0" /></g></g></svg>