<?xml version="1.0" encoding="UTF-8"?>
<svg width="494px" height="239px" viewBox="0 0 494 239" version="1.1" xmlns="http://www.w3.org/2000/svg" xmlns:xlink="http://www.w3.org/1999/xlink">
    <!-- Generator: Sketch 47.1 (45422) - http://www.bohemiancoding.com/sketch -->
    <title>Logo</title>
    <desc>Created with Sketch.</desc>
    <defs>
        <path d="M0.612849931,108 L0.612849931,67.4596374 L0.612849931,67.4596374 C0.612849931,62.1006536 3.47183378,57.1487483 8.11284993,54.4692564 L98.306425,2.39597157 L98.306425,2.39597157 C102.947441,-0.283520358 108.665409,-0.283520358 113.306425,2.39597157 L113.306425,2.39597157 L203.5,54.4692564 L203.5,54.4692564 C208.141016,57.1487483 211,62.1006536 211,67.4596374 L211,138 L181,138 L180.997041,93.9999998 L180.996032,93.9999999 C180.995475,85.7161226 174.279909,79.0010087 165.996032,79.0010087 L122,78.9999999 C113.715729,78.9999999 107,85.7157286 107,93.9999999 L107,136.015623 L107,136.015623 C107,144.299895 113.715729,151.015623 122,151.015623 L168,151.015623 L168,163 C168,164.656854 166.656854,166 165,166 L120,166 L120,179 L165.996032,179 L165.996032,178.997877 C174.279474,178.997877 180.99486,172.283442 180.996032,164 L181,150.960554 L211,150.960554 L211,171.606207 L211,171.606207 C211,176.965191 208.141016,181.917096 203.5,184.596588 L113.306425,236.669873 L113.306425,236.669873 C108.665409,239.349365 102.947441,239.349365 98.306425,236.669873 L8.11284993,184.596588 L8.11284993,184.596588 C3.47183378,181.917096 0.612849931,176.965191 0.612849931,171.606207 L0.612849931,121 L27,121 L27,136 C27,144.284271 33.7157287,151 42,151 L42,151 L100,151 L100,94 C100,85.7157288 93.2842712,79 85,79 L27,79 L27,92 L84,92 C85.6568542,92 87,93.3431458 87,95 L87,95 L87,108 L0.612849931,108 Z" id="path-1"></path>
    </defs>
    <g id="Symbols" stroke="none" stroke-width="1" fill="none" fill-rule="evenodd">
        <g id="Logo">
            <path d="M477,55 L494,55 L494,151 L435,151 C426.715729,151 420,144.284271 420,136 L420,96 C420,87.7157288 426.715729,81 435,81 L435,81 L477,81 L477,55 Z M440,98 C438.343146,98 437,99.3431458 437,101 L437,131 C437,132.656854 438.343146,134 440,134 L477,134 L477,98 L440,98 Z" id="d" fill="#FFFFFF"></path>
            <g id="i" transform="translate(396.000000, 55.000000)">
                <polygon id="Path-6" fill="#FFFFFF" points="0 26 17 26 17 96 0 96"></polygon>
                <polygon id="Path-7" fill="#E11F22" points="0 1.13686838e-13 17 1.13686838e-13 17 17 0 17"></polygon>
            </g>
            <path d="M331,151 L348,151 L348,101 L348,101 C348,99.3431458 349.343146,98 351,98 L389,98 L389,81 L346,81 L346,81 C337.715729,81 331,87.7157288 331,96 L331,151 Z" id="r" fill="#FFFFFF"></path>
            <path d="M324,86 L324,76 L324,76 C324,67.7157288 317.284271,61 309,61 L249,61 L249,61 C240.715729,61 234,67.7157288 234,76 L234,136 L234,136 C234,144.284271 240.715729,151 249,151 L309,151 L309,151 C317.284271,151 324,144.284271 324,136 L324,100 L287,100 L287,117 L307,117 L307,131 L307,131 C307,132.656854 305.656854,134 304,134 L254,134 L254,134 C252.343146,134 251,132.656854 251,131 L251,81 L251,81 C251,79.3431458 252.343146,78 254,78 L304,78 L304,78 C305.656854,78 307,79.3431458 307,81 L307,86 L324,86 Z" id="G" fill="#FFFFFF"></path>
            <g id="ag">
                <g id="Combined-Shape">
                    <mask id="mask-2" fill="white">
                        <use xlink:href="#path-1"></use>
                    </mask>
                    <use fill="#E11F22" xlink:href="#path-1"></use>
                </g>
                <rect id="g" fill="#E11F22" x="120" y="92" width="48" height="46" rx="3"></rect>
                <path d="M40,121 L87,121 L87,138 L43,138 L43,138 C41.3431458,138 40,136.656854 40,135 L40,121 Z" id="Combined-Shape" fill="#E11F22"></path>
            </g>
        </g>
    </g>
</svg>