<?xml version="1.0" encoding="UTF-8" standalone="no"?>
<!DOCTYPE svg PUBLIC "-//W3C//DTD SVG 1.1//EN" "http://www.w3.org/Graphics/SVG/1.1/DTD/svg11.dtd">
<svg width="100%" height="100%" viewBox="0 0 32 32" version="1.1" xmlns="http://www.w3.org/2000/svg" xmlns:xlink="http://www.w3.org/1999/xlink" xml:space="preserve" xmlns:serif="http://www.serif.com/" style="fill-rule:evenodd;clip-rule:evenodd;stroke-linejoin:round;stroke-miterlimit:2;">
    <path id="copy" d="M22,1.333L6,1.333C4.533,1.333 3.333,2.533 3.333,4L3.333,22.667L6,22.667L6,4L22,4L22,1.333ZM26,6.667L11.333,6.667C9.866,6.667 8.666,7.867 8.666,9.334L8.666,28.001C8.666,29.468 9.866,30.668 11.333,30.668L26,30.668C27.467,30.668 28.667,29.468 28.667,28.001L28.667,9.334C28.667,7.867 27.467,6.667 26,6.667ZM26,28L11.333,28L11.333,9.333L26,9.333L26,28Z" style="fill-rule:nonzero;"/>
</svg>
