<?xml version="1.0" encoding="UTF-8" standalone="no"?>
<!DOCTYPE svg PUBLIC "-//W3C//DTD SVG 1.1//EN" "http://www.w3.org/Graphics/SVG/1.1/DTD/svg11.dtd">
<svg width="100%" height="100%" viewBox="0 0 32 32" version="1.1" xmlns="http://www.w3.org/2000/svg" xmlns:xlink="http://www.w3.org/1999/xlink" xml:space="preserve" xmlns:serif="http://www.serif.com/" style="fill-rule:evenodd;clip-rule:evenodd;stroke-linejoin:round;stroke-miterlimit:2;">
    <path id="not-allowed" d="M16,2.667C8.64,2.667 2.667,8.64 2.667,16C2.667,23.36 8.64,29.333 16,29.333C23.36,29.333 29.333,23.36 29.333,16C29.333,8.64 23.36,2.667 16,2.667ZM5.333,16C5.333,10.107 10.106,5.333 16,5.333C18.467,5.333 20.733,6.173 22.533,7.586L7.586,22.533C6.173,20.733 5.333,18.466 5.333,16ZM16,26.667C13.533,26.667 11.267,25.827 9.467,24.414L24.414,9.467C25.827,11.267 26.667,13.534 26.667,16C26.667,21.893 21.894,26.667 16,26.667Z" style="fill-rule:nonzero;"/>
</svg>
