<svg width="70" height="70" viewBox="0 0 70 70" fill="none" xmlns="http://www.w3.org/2000/svg">
<path d="M51.2698 12.9261L45.4365 9.8636C40.3148 7.17735 37.754 5.83276 35.0007 5.83276C32.2473 5.83276 29.6865 7.17443 24.5648 9.8636L18.7315 12.9261C13.5602 15.6386 10.5182 17.2369 8.63398 19.3719L35.0007 32.5553L61.3673 19.3719C59.4832 17.2369 56.444 15.6386 51.2698 12.9261ZM63.4323 23.2278L37.1882 36.3528V63.8861C39.2823 63.364 41.6652 62.1157 45.4365 60.1353L51.2698 57.0728C57.5436 53.7798 60.6819 52.1348 62.4261 49.1744C64.1673 46.2169 64.1673 42.5332 64.1673 35.1744V34.8332C64.1673 29.3119 64.1673 25.8586 63.4323 23.2278ZM32.8132 63.8861V36.3528L6.56898 23.2278C5.83398 25.8586 5.83398 29.3119 5.83398 34.8273V35.1686C5.83398 42.5332 5.83398 46.2169 7.57523 49.1744C9.3194 52.1348 12.4577 53.7828 18.7315 57.0757L24.5648 60.1353C28.3361 62.1157 30.719 63.364 32.8132 63.8861Z" fill="#C2C2C2"/>
</svg>
