<svg width="109" height="196" viewBox="0 0 109 196" fill="none" xmlns="http://www.w3.org/2000/svg">
<path fill-rule="evenodd" clip-rule="evenodd" d="M31.7441 25.8297C31.7441 25.8297 37.4666 24.8031 42.4416 24.8031C50 24.8031 53.7799 25.8297 55.077 25.8297H77.4066C70.5586 22.2298 62.7815 20.1914 54.5073 20.1914C46.2533 20.1914 38.5813 22.2453 31.7441 25.8297ZM88.9452 34.2855H72.2786C65.8171 34.2855 51.9904 33.1584 46.319 33.1584H30.7029C27.1216 33.1584 20.0046 34.2855 20.0046 34.2855C22.1094 32.2247 23.8386 30.7707 25.0329 29.9752C25.0329 29.9752 29.4096 30.8773 33.2909 30.8773C35.776 30.8773 47.1159 30.8704 47.1159 30.8704C52.2888 30.8704 63.8266 28.6751 67.7055 28.6751L82.1706 28.6681C84.6256 30.3324 86.8341 32.2185 88.9452 34.2855ZM95.9593 42.7413H74.9647C70.5926 42.7413 56.9639 41.3151 51.8892 41.3151H24.0365C20.4575 41.3151 13.0746 42.7413 13.0746 42.7413C14.3532 40.7647 15.0365 39.9005 16.5779 38.1319C16.5779 38.1319 20.7559 38.8284 24.6371 38.8284H51.89C58.4573 38.8284 69.2986 37.1262 73.3762 37.1262H91.7156C93.2626 38.894 94.6808 40.7705 95.9593 42.7413ZM8.69483 51.0951C9.47015 49.1587 10.3614 48.1917 11.3663 46.3852C11.3663 46.3852 16.7773 47.3832 20.262 47.3832L57.3612 47.3847C61.7395 47.3847 73.4782 45.4808 76.4643 45.4808L97.6739 45.4824C98.6791 47.296 99.5681 49.1717 100.335 51.0982L77.654 51.0974C73.578 51.0974 63.2314 49.7717 57.5638 49.7717L19.8608 49.7702C15.4833 49.7709 8.69483 51.0951 8.69483 51.0951ZM6.15244 59.6537C6.15244 59.6537 14.6879 58.0266 17.8726 58.0266H57.464C61.0438 58.0266 75.8653 59.6537 80.443 59.6537H102.857C102.472 57.7553 101.975 55.8814 101.368 54.0418L79.4481 54.041C74.4731 54.041 61.6406 55.3427 57.2607 55.3427L18.171 55.3419C14.1916 55.3419 7.65438 54.0387 7.65438 54.0387C7.04228 55.8788 6.54074 57.7538 6.15244 59.6537ZM5.17383 68.1095C5.17383 68.1095 15.3844 66.283 18.566 66.283H55.1744C60.7439 66.283 75.9642 68.1095 80.5373 68.1095H103.8C103.749 66.2304 103.591 64.3556 103.326 62.4945H79.5486C74.8696 62.4945 61.4403 63.6973 55.1737 63.6973L19.4619 63.6965C14.3895 63.6965 5.64845 62.4922 5.64845 62.4922C5.3839 64.3541 5.22544 66.2296 5.17383 68.1095ZM5.17383 70.9503C5.17383 70.9503 20.0594 72.252 24.4362 72.252H50.4012C56.5666 72.252 72.8799 70.9503 77.1631 70.9503H103.827C103.773 72.8314 103.612 74.7079 103.345 76.5708L77.1554 76.5692C71.9848 76.5692 56.4669 74.6391 50.1955 74.6391L24.9355 74.6383C20.3578 74.6383 5.6755 76.5661 5.6755 76.5661C5.41268 74.7241 5.22716 72.8527 5.17383 70.9503ZM7.65979 85.0227C7.04886 83.1784 6.54862 81.2993 6.16172 79.3953C6.16172 79.3953 24.1919 80.8385 36.672 80.8385C50.2396 80.8385 62.4715 79.403 68.0039 79.403L102.86 79.4069C102.471 81.3071 101.969 83.1824 101.356 85.0227H67.8369C58.0569 85.0227 48.0659 83.5579 35.5828 83.5579C23.6864 83.5579 7.65979 85.0227 7.65979 85.0227ZM100.327 87.8666C99.5545 89.7889 98.6615 91.6605 97.653 93.4701L11.3841 93.4786C10.3838 91.6798 9.45624 89.7914 8.68246 87.8627L100.327 87.8666ZM95.9578 96.3186H13.0808C14.3602 98.2888 15.7781 100.165 17.3238 101.934H91.7079C93.2544 100.164 94.6746 98.2878 95.9578 96.3186ZM82.2069 110.39H26.8595C24.4069 108.727 22.1081 106.848 19.9907 104.774L89.0333 104.772C86.9199 106.841 84.6612 108.725 82.2069 110.39ZM77.4437 113.219C70.5926 116.822 62.7869 118.862 54.5089 118.862C46.538 118.868 38.6851 116.936 31.6274 113.232L77.4437 113.219Z" fill="#109BD6"/>
<path fill-rule="evenodd" clip-rule="evenodd" d="M30.5005 126.825H60.1356V134.815H50.4021V164.393H40.234V134.815H30.5005V126.825ZM17.1315 150.034L20.7669 138.573L23.9678 150.034H17.1315ZM2.4043 164.393L15.5275 126.825H26.0634L38.4492 164.393H28.159L26.0634 157.737H14.913L12.4486 164.393H2.4043ZM76.9607 126.825H106.597V134.815H96.8623V164.393H86.6951V134.815H76.9607V126.825Z" fill="black"/>
<path fill-rule="evenodd" clip-rule="evenodd" d="M64.3643 152.955C64.3643 152.955 69.851 157.251 70.5799 158.013C69.1561 158.013 65.717 158.385 64.876 157.287C63.5217 155.714 63.851 153.519 64.3643 152.955ZM67.1432 139.947C68.0584 139.947 68.9628 140.826 68.9628 141.453V146.019L76.1285 146.001V152.2C76.1285 152.496 75.9971 152.496 75.7041 152.496C75.2287 152.496 67.4199 145.805 66.1561 144.265C65.5369 143.501 65.2756 142.666 65.2756 141.665C65.2756 140.782 66.1561 139.947 67.1432 139.947ZM67.4725 134.095C70.1973 134.095 72.4112 134.523 74.1303 135.922C75.7034 137.203 76.1641 139.215 76.1641 141.575V146L83.4333 145.983V155.275C83.4333 156.065 82.9062 157.539 82.9062 157.539C82.9062 157.539 84.1971 157.565 85.0141 157.539V164.111C84.5009 164.111 84.211 164.124 83.6977 164.124C82.0389 164.124 80.8654 164.242 79.5351 163.281C79.1277 162.991 78.8131 162.702 78.3741 162.702C77.9721 162.702 77.717 163.057 77.2177 163.281C75.4784 164.084 74.3854 164.479 72.4753 164.65C70.3558 164.848 69.1313 164.834 66.9963 164.756C61.6364 164.546 56.9079 161.99 55.8288 156.749C55.5134 155.182 55.4864 154.207 55.8288 152.64C56.1581 151.112 56.4086 150.138 57.4096 148.952C57.9754 148.281 58.8845 147.849 58.8845 147.214C58.8845 146.898 58.2653 146.45 58.0419 145.897C57.4622 144.514 57.3037 143.605 57.3037 142.103C57.3037 139.983 57.4877 138.443 58.9904 136.941C61.4671 134.464 63.9824 134.095 67.4725 134.095Z" fill="black"/>
</svg>
