<svg width="497" height="196" viewBox="0 0 497 196" fill="none" xmlns="http://www.w3.org/2000/svg">
<path d="M135.705 82.4439C127.172 82.4439 122.929 88.6689 122.929 97.0713C122.929 105.817 127.005 111.929 135.705 111.929C144.412 111.929 148.477 105.817 148.477 97.0713C148.477 88.6689 144.238 82.4439 135.705 82.4439ZM135.705 106.21C133.437 106.21 132.429 104.191 132.429 97.0689C132.429 90.5657 133.101 88.1581 135.705 88.1581C138.305 88.1581 138.979 90.5657 138.979 97.0689C138.979 104.198 137.964 106.21 135.705 106.21ZM154.377 80.0435V83.1872H150.644V89.5825H154.377V111.32H163.534V89.5825H168.517V83.1872H163.534V80.3337C163.534 78.624 164.404 77.6888 166.815 77.6888C167.323 77.6888 168 77.7991 168.515 77.9166V70.9674C167.037 70.7995 165.679 70.6269 163.877 70.6269C157.83 70.6293 154.377 73.1495 154.377 80.0435ZM56.7557 91.0908C56.7557 84.8706 51.0516 82.523 45.5604 82.523C40.3666 82.523 35.2743 84.7579 34.2612 90.3067L42.226 91.9349C42.3251 90.2899 43.0288 88.2397 45.2267 88.2397C46.8081 88.2397 47.5963 89.3547 47.5963 91.0333V93.4528C41.5465 94.1482 33.2093 96.3111 33.0086 103.634C32.8684 108.807 36.3479 111.867 40.913 111.867C43.6139 111.867 46.3172 110.387 47.8792 108.754C47.9349 109.222 47.9953 110.55 48.167 111.327H57.6068C57.261 110.943 56.7532 109.982 56.7532 106.788L56.7557 91.0908ZM47.5988 104.155C46.8202 105.171 45.7031 105.903 44.6609 105.903C43.0191 105.903 42.0035 104.881 42.0035 102.92C42.0035 99.3301 44.3973 98.124 47.5963 97.8194L47.5988 104.155ZM79.2115 82.5182C75.6401 82.5182 73.1182 84.1584 71.2321 86.0648H71.1136L71.0677 83.1872H62.1067V111.322H71.2636V91.2011C72.1002 90.1388 73.2124 89.453 74.2425 89.453C75.7731 89.453 76.3534 90.3427 76.3534 91.9469V111.317H85.5103V89.0646C85.5127 85.2063 83.2205 82.5182 79.2115 82.5182ZM116.313 83.1848H107.207L100.47 91.6879H100.359V71.4158H91.1974V111.32H100.359V101.244L102.284 99.0472H102.395L106.859 111.32H116.357L108.653 91.8462L116.313 83.1848ZM23.2497 90.5657V90.2539C26.1657 89.1245 29.8169 86.3789 29.8169 81.1634C29.8169 75.6529 25.1309 71.4134 18.0026 71.4134H2.09473V111.322H17.5964C25.2372 111.322 30.772 107.476 30.772 100.647C30.772 95.5318 27.6093 91.99 23.2497 90.5657ZM11.9794 78.4777H15.5411C17.8527 78.4777 20.4424 79.094 20.4424 82.9019C20.4424 85.2614 18.9892 87.2206 15.3114 87.2206H11.9794V78.4777ZM15.7104 103.927H11.9794V93.9468H15.7104C18.9892 93.9468 20.8414 95.9107 20.8414 98.8817C20.8414 102.97 17.9108 103.927 15.7104 103.927ZM363.257 106.788V91.0908C363.257 84.8706 357.558 82.523 352.069 82.523C346.87 82.523 341.778 84.7579 340.762 90.3067L348.734 91.9349C348.829 90.2899 349.527 88.2397 351.733 88.2397C353.304 88.2397 354.105 89.3547 354.105 91.0333V93.4528C348.048 94.1482 339.703 96.3111 339.507 103.634C339.367 108.807 342.844 111.867 347.417 111.867C350.117 111.867 352.814 110.387 354.388 108.754C354.436 109.222 354.499 110.55 354.666 111.327H364.101C363.769 110.939 363.257 109.982 363.257 106.788ZM354.11 104.155C353.319 105.171 352.207 105.903 351.167 105.903C349.523 105.903 348.507 104.881 348.507 102.92C348.507 99.3301 350.901 98.124 354.105 97.8194L354.11 104.155ZM263.426 82.4439C255.001 82.4439 250.813 89.1701 250.813 97.1312C250.813 104.922 254.772 111.931 263.532 111.931C266.002 112.006 268.433 111.302 270.476 109.922C272.518 108.542 274.067 106.556 274.901 104.248L268.728 102.004C268.274 104.27 266.409 105.867 264.199 105.867C260.514 105.867 259.844 101.709 259.968 99.203H275.293V97.2967C275.293 89.9566 272.244 82.4439 263.426 82.4439ZM266.813 93.8173H259.97C259.83 91.17 260.763 88.1605 263.365 88.1605C266.528 88.1605 266.903 91.2107 266.813 93.8173ZM299.988 83.1872H309.14V111.322H299.988V83.1872ZM299.988 71.4134H309.14V79.4848H299.988V71.4134ZM326.351 88.1605C327.826 88.1605 328.556 88.9471 329.006 90.0621C329.407 91.1292 329.461 92.4744 329.461 93.5991H337.268C337.268 90.7959 335.796 82.4487 326.08 82.4487C317.431 82.4487 313.139 90.1293 313.139 97.805C313.139 104.752 317.426 111.934 325.684 111.934C332.355 111.934 336.311 108.349 336.993 101.51L329.869 100.498C329.869 102.63 329.586 105.869 326.361 105.869C323.994 105.869 322.976 103.805 322.976 97.4645C322.959 91.8606 323.304 88.1605 326.351 88.1605ZM184.432 71.4158L174.995 111.322H183.811L185.566 103.256H194.893L196.476 111.322H206.368L197.77 71.4158H184.432ZM186.981 96.1912L190.381 79.9332H190.584L193.478 96.1912H186.981ZM288.169 86.9952H288.016L287.925 83.1848H279.063V111.32H288.229V93.1003C289.303 91.8318 290.913 90.923 293.251 90.923C294.828 90.923 295.943 91.3018 296.985 91.6999V82.5158C293.452 82.5182 290.035 84.0241 288.169 86.9952ZM240.447 82.5182C236.613 82.5182 233.878 84.566 232.277 86.2806H232.159C231.293 84.1104 229.436 82.5182 226.653 82.5182C223.241 82.5182 220.371 84.2663 218.456 86.0552H218.34L218.291 83.1896H209.355V111.325H218.34V91.2587C219.111 90.2228 220.487 89.525 221.447 89.525C223.147 89.525 223.597 90.5321 223.597 92.0476V111.325H232.587V91.2587C233.181 90.4817 234.49 89.525 235.718 89.525C237.384 89.525 237.848 90.5321 237.848 92.0476V111.325H246.831V88.8943C246.831 85.0097 244.253 82.5182 240.447 82.5182ZM419.55 65.0948C423.182 66.5183 426.773 68.044 430.317 69.6701C419.056 74.2025 408.16 79.5815 397.725 85.7602C394.204 83.9301 390.631 82.2021 387.009 80.5783C397.421 74.5633 408.303 69.3856 419.55 65.0948ZM406.113 60.3877C394.434 64.0573 383.148 68.8596 372.419 74.7249C375.828 75.9479 379.208 77.25 382.538 78.6432C392.932 72.579 403.879 67.4985 415.234 63.469C412.218 62.3714 409.177 61.344 406.113 60.3877Z" fill="#0067B1"/>
<path d="M444.019 64.6418C434.791 60.214 425.23 56.5013 415.424 53.5369C411.966 54.5249 408.538 55.6016 405.143 56.7742C415.239 59.7398 425.083 63.4964 434.579 68.0085C437.701 66.8183 440.848 65.6958 444.019 64.6418ZM459.042 60.2008C449.593 56.1162 439.862 52.7072 429.922 50C426.754 50.6502 423.602 51.3746 420.468 52.1725C430.327 55.0304 439.947 58.6438 449.242 62.98C452.488 61.9834 455.755 61.0568 459.042 60.2008ZM483.161 68.2363C459.709 76.0798 437.537 87.2789 417.349 101.479C422.353 104.531 427.241 107.765 432.004 111.176C451.027 96.2065 472.023 83.8847 494.41 74.5524C490.723 72.3392 486.972 70.2329 483.161 68.2363ZM466.908 60.5773C442.543 66.9781 419.401 77.2957 398.401 91.1197C403.09 93.406 407.697 95.8526 412.215 98.455C432.789 84.3216 455.475 73.4826 479.443 66.3347C475.326 64.2854 471.146 62.3653 466.908 60.5773ZM439.715 108.665C439.715 107.263 440.905 106.121 442.368 106.121C443.83 106.121 445.02 107.263 445.02 108.665C445.02 110.095 443.83 111.236 442.368 111.236C440.905 111.236 439.715 110.095 439.715 108.665ZM440.216 108.665C440.216 109.833 441.173 110.732 442.368 110.732C443.55 110.732 444.51 109.833 444.51 108.665C444.51 107.536 443.552 106.627 442.368 106.627C441.175 106.627 440.216 107.536 440.216 108.665Z" fill="#E31836"/>
<path d="M443.688 110.102H443.192L442.341 108.785H441.816V110.102H441.381V107.246H442.672C442.924 107.229 443.175 107.278 443.402 107.387C443.505 107.454 443.589 107.547 443.646 107.655C443.703 107.763 443.732 107.884 443.729 108.006C443.729 108.562 443.318 108.773 442.793 108.788L443.688 110.102ZM442.309 108.435C442.72 108.435 443.289 108.505 443.289 107.994C443.289 107.622 442.96 107.572 442.587 107.572H441.823V108.43L442.309 108.435Z" fill="#E31836"/>
</svg>
