<svg width="346" height="196" viewBox="0 0 346 196" fill="none" xmlns="http://www.w3.org/2000/svg">
<path d="M92.0436 57.4595C93.4551 56.4755 94.9097 55.5968 96.4125 54.6535C97.5282 55.8003 98.5813 56.9112 99.5719 58.1035C98.1028 58.8864 96.6842 59.7746 95.3281 60.5886C94.2767 59.5013 93.181 58.4574 92.0436 57.4595ZM86.2009 52.6856C87.5473 51.5843 89.0285 50.4853 90.6491 49.4008C91.8609 50.4327 93.0343 51.4382 94.1427 52.4653C92.6185 53.3858 91.1382 54.3765 89.7065 55.434C88.5957 54.4692 87.4223 53.6073 86.2009 52.6856ZM192.994 41.39L192.722 41.1721C157.019 42.6158 123.523 53.7342 100.998 67.5676C100.016 66.09 98.9483 64.6711 97.7999 63.318C118.016 50.8923 146.223 40.5185 170.243 37.3894L169.919 37.2098C144.208 39.7787 119.058 47.5597 101.171 57.2105C100.413 55.8777 99.5492 54.6072 98.5885 53.411C114.237 44.4425 134.376 37.2242 153.605 33.7144L153.328 33.5204C130.885 36.9034 110.591 43.1473 96.576 51.0623C95.5613 49.9371 94.4529 48.8765 93.2362 47.7823C94.7417 46.8781 96.2732 46.0174 97.8287 45.2015C98.5236 45.9125 99.2041 46.6427 99.8485 47.3873L100.64 46.6379C100.195 45.8997 99.7197 45.1808 99.2137 44.4832C110.741 38.6583 125.035 34.0232 136.158 31.8493L135.857 31.6626C124.482 33.676 109.344 37.1116 97.7566 42.6278C88.2374 31.3896 68.9057 23.7164 40.8146 18.2793L40.5694 18.4421C65.9699 24.1785 84.5827 32.783 96.0374 43.4681C94.3711 44.3156 92.7986 45.211 91.3271 46.1639C77.8478 35.1269 54.015 25.2247 22.589 20.6064L22.3221 20.7572C50.0236 25.7682 73.2 35.723 88.8025 47.926C87.2516 49.1015 85.8739 50.3082 84.7125 51.6154C67.3909 39.3981 39.9538 29.1176 3.25487 24.3868L3 24.5567C33.3513 29.3833 64.9648 40.0349 86.4221 58.003C83.5944 60.4139 81.3078 62.9469 79.7137 65.5278L80.6177 66.4758C82.9428 64.2229 85.6118 62.0251 88.5692 59.868C89.6873 60.8161 90.7693 61.848 91.8272 62.8774C84.448 67.9147 79.1582 73.3518 76.7851 78.5878L77.7565 79.3875C81.856 74.6662 87.5786 69.9809 94.3759 65.4918C95.6094 66.8469 96.7828 68.135 97.8985 69.5403C84.0489 78.6237 74.912 88.6528 72.8682 97.8727L73.943 98.6053C79.781 88.7988 89.1511 80.223 100.363 72.703C102.122 75.125 103.713 77.6639 105.124 80.302L106.107 79.67C105.6 76.8066 104.566 73.9216 103.046 71.0534C131.224 53.2578 169.628 42.8049 192.994 41.39Z" fill="#F04E44"/>
<path d="M172.337 106.628H177.966V129.837H172.337V106.628ZM172.251 96.7877H178.055V102.242H172.251V96.7877ZM230.111 96.0527H235.752V129.837H230.111V96.0527ZM241.886 96.0527H244.728V110.494H257.161V96.0527H260.013V129.839H257.161V112.97H244.728V129.839H241.886V96.0527ZM278.553 116.657C278.553 111.67 276.519 108.754 273.369 108.754C269.806 108.754 268.142 112.098 268.142 116.657H278.553ZM268.142 119.118C268.142 127.706 273.797 127.799 274.834 127.799C276.356 127.799 278.544 127.055 279.878 125.884L280.025 128.833C278.909 129.451 277.373 130.155 274.559 130.155C265.396 130.155 265.11 120.569 265.11 118.239C265.11 110.312 268.125 106.316 273.328 106.316C279.089 106.316 281.59 110.868 281.59 119.118H268.142ZM307.029 96.0527H309.787V129.837H307.029V96.0527ZM319.768 101.207V106.62H324.548V108.909H319.768V124.21C319.768 126.078 320.003 127.849 322.461 127.849C323.572 127.849 324.115 127.6 324.548 127.473V129.832C324.274 129.971 323.543 130.16 321.86 130.16C317.832 130.16 316.998 127.531 316.998 124.931V108.912H313.483V106.623H316.998V101.981L319.768 101.207ZM122.337 118.503H120.286C117.612 118.503 114.171 119.297 114.171 122.867C114.171 124.981 115.566 126.427 117.756 126.427C120.757 126.427 122.337 123.983 122.337 121.016V118.503ZM111.271 108.014C112.863 107.284 115.042 106.292 118.302 106.292C125.297 106.292 127.602 109.728 127.602 115.045V125.762C127.602 127.43 127.785 128.948 127.908 129.839H122.842C122.565 128.948 122.515 127.835 122.515 127.21H122.435C121.683 128.036 119.675 130.22 115.951 130.22C111.841 130.22 108.913 127.744 108.913 123.42C108.913 117.148 114.486 115.534 120.18 115.534H122.337V114.662C122.337 112.369 121.204 110.264 117.985 110.264C115.171 110.264 112.673 111.605 111.586 112.512L111.271 108.014ZM219.305 118.503H217.25C214.571 118.503 211.164 119.297 211.164 122.867C211.164 124.981 212.559 126.427 214.72 126.427C217.745 126.427 219.308 123.983 219.308 121.016L219.305 118.503ZM208.243 108.014C209.815 107.284 212.022 106.292 215.273 106.292C222.282 106.292 224.54 109.728 224.54 115.045V125.762C224.54 127.43 224.732 128.948 224.879 129.839H219.83C219.548 128.948 219.5 127.835 219.5 127.21H219.406C218.661 128.036 216.653 130.22 212.936 130.22C208.827 130.22 205.874 127.744 205.874 123.42C205.874 117.148 211.484 115.534 217.139 115.534H219.308V114.662C219.308 112.369 218.18 110.264 214.949 110.264C212.147 110.264 209.649 111.605 208.567 112.512L208.243 108.014ZM133.142 110.494C133.142 109.031 133.087 107.693 132.952 106.63H138.033C138.071 108.057 138.192 108.442 138.192 109.848H138.281C138.723 108.847 139.807 106.295 144.246 106.295C144.602 106.295 144.878 106.367 145.201 106.419V111.608C144.678 111.486 144.143 111.425 143.606 111.426C141.301 111.426 138.759 112.84 138.759 117.169V129.841H133.142V110.494ZM156.581 126.116C159.896 126.116 161.036 122.549 161.036 118.172C161.036 113.678 159.747 110.398 156.677 110.398C153.534 110.398 152.44 113.398 152.44 118.038C152.443 123.42 153.32 126.116 156.581 126.116ZM166.641 96.0527V125.884C166.641 127.557 166.691 128.994 166.836 129.837H161.556C161.442 128.839 161.385 127.836 161.385 126.832H161.255C160.933 127.478 159.454 130.217 155.03 130.217C149.218 130.217 146.819 124.706 146.819 118.273C146.819 110.7 149.685 106.29 155.477 106.29C159.247 106.29 160.587 108.538 160.928 109.003H161.036V96.0527H166.641ZM105.883 129.19C105.282 129.42 103.503 130.318 99.0329 130.318C89.4127 130.318 84.4668 123.322 84.4668 114.121C84.4668 104.923 89.4127 97.9297 98.8526 97.9297C102.988 97.9297 105.162 98.818 105.888 99.1053L105.578 104.341C105.032 104.004 103.31 102.711 99.5763 102.711C94.7794 102.711 90.6486 105.988 90.6486 114.121C90.6486 122.288 94.7794 125.537 99.5763 125.537C102.392 125.537 104.255 124.852 105.566 123.913L105.883 129.19ZM183.679 110.494C183.679 109.031 183.631 107.693 183.496 106.63H188.779C188.82 107.365 188.937 108.993 188.937 109.572H189.021C189.498 108.859 190.976 106.295 195.134 106.295C199.993 106.295 202.159 109.381 202.159 113.932V129.841H196.528V114.823C196.528 111.967 194.831 110.882 192.917 110.882C191.048 110.882 189.308 111.907 189.308 114.823V129.841H183.679V110.494ZM328.368 96.0527H331.146V108.754H331.194C331.85 107.937 333.276 106.324 336.827 106.324C341.203 106.324 343.622 109.881 343.622 113.118V129.837H340.814V113.75C340.814 110.671 339.001 108.591 336.041 108.591C333.076 108.591 331.148 110.568 331.148 113.75V129.837H328.371V96.0527M295.901 118.158C290.999 118.158 288 119.606 288 123.253C288 125.561 289.453 127.713 292.537 127.713C293.781 127.713 298.116 127.215 298.116 120.887V118.155L295.901 118.158ZM298.116 113.99C298.116 110.791 296.966 108.761 293.035 108.761C289.885 108.761 287.666 110.952 287.392 111.186L286.974 108.383C288.294 107.564 290.229 106.326 293.271 106.326C299.784 106.326 300.902 111.033 300.902 113.48V124.658C300.902 126.401 301.03 128.122 301.169 129.839H298.479L298.335 127.038H298.243C297.644 127.811 296.37 130.157 291.924 130.157C287.541 130.157 285.074 127.435 285.074 123.31C285.074 117.399 290.123 115.874 296.127 115.874H298.113L298.116 113.99Z" fill="black"/>
</svg>
