<svg width="196" height="196" viewBox="0 0 196 196" fill="none" xmlns="http://www.w3.org/2000/svg">
<path d="M192.512 109.181C192.512 106.231 190.418 104.071 187.533 104.071C184.653 104.071 182.556 106.231 182.556 109.181C182.556 112.127 184.653 114.284 187.533 114.284C190.418 114.284 192.512 112.123 192.512 109.181ZM186.225 109.443V112.782H185.145V105.421H187.828C189.4 105.421 190.121 106.107 190.121 107.444C190.121 108.267 189.564 108.919 188.846 109.014V109.045C189.469 109.144 189.698 109.7 189.826 110.716C189.924 111.374 190.055 112.516 190.29 112.784H189.013C188.716 112.092 188.746 111.113 188.517 110.293C188.327 109.67 187.994 109.442 187.279 109.442H186.231V109.446L186.225 109.443ZM187.563 108.492C188.611 108.492 188.911 107.934 188.911 107.442C188.911 106.861 188.611 106.401 187.563 106.401H186.225V108.494H187.563V108.492ZM181.369 109.181C181.369 105.547 184.258 103.089 187.528 103.089C190.809 103.089 193.694 105.547 193.694 109.181C193.694 112.809 190.81 115.269 187.528 115.269C184.258 115.269 181.369 112.809 181.369 109.181Z" fill="#FF5A00"/>
<path d="M160.023 114.207L152.922 106.251L145.884 114.207H131.073L145.548 97.9607L131.073 81.7098H146.346L153.519 89.6043L160.421 81.7098H175.159L160.756 97.8925L175.359 114.207H160.023ZM102.634 114.207V63.0137H131.073V74.4245H114.68V81.7098H131.073V92.6898H114.68V102.767H131.073V114.207H102.634Z" fill="#FF5A00"/>
<path d="M90.6321 63.0151V83.9661H90.4991C87.843 80.9165 84.5232 79.8537 80.6739 79.8537C72.7859 79.8537 66.8435 85.2145 64.7577 92.2963C62.3784 84.4916 56.2431 79.7077 47.1475 79.7077C39.7591 79.7077 33.927 83.0194 30.8803 88.4173V81.7101H15.6111V74.4272H32.276V63.0175H2V114.208H15.6111V92.6912H29.1779C28.76 94.3459 28.5511 96.0463 28.5561 97.7528C28.5561 108.426 36.7208 115.927 47.1451 115.927C55.9077 115.927 61.6871 111.813 64.7409 104.325H53.0755C51.4988 106.578 50.3008 107.244 47.1463 107.244C43.4898 107.244 40.3342 104.055 40.3342 100.281H64.0868C65.1171 108.76 71.7304 116.072 80.8069 116.072C84.7221 116.072 88.3067 114.149 90.4979 110.899H90.6297V114.216H102.631V63.0175H90.6321V63.0151ZM40.7127 92.8444C41.4711 89.5914 43.9954 87.4658 47.1463 87.4658C50.6159 87.4658 53.012 89.5256 53.641 92.8444H40.7127ZM83.3491 106.418C78.9271 106.418 76.1788 102.302 76.1788 98.0029C76.1788 93.407 78.5701 88.9918 83.3491 88.9918C88.3079 88.9918 90.2835 93.4094 90.2835 98.0029C90.2835 102.357 88.1917 106.418 83.3491 106.418Z" fill="#29007C"/>
</svg>
