<svg xmlns="http://www.w3.org/2000/svg" width="181" height="196" fill="none"><path fill="#1F70C1" d="M3 62v4.79h34.063V62H3Zm38.89 0v4.79h48.542S85.473 62 78.906 62H41.89Zm58.064 0v4.79h29.367L127.578 62H99.954Zm50.422 0-1.743 4.79h29.1V62h-27.357ZM3 71.314v4.79h34.063v-4.79H3Zm38.89.007v4.782h54.174s-.632-3.686-1.736-4.782H41.889Zm58.064 0v4.782h32.587l-1.613-4.782H99.954Zm46.936 0-1.614 4.782h32.457v-4.782H146.89ZM12.789 80.628v4.796h14.752v-4.796H12.789Zm38.89 0v4.796H66.43v-4.796H51.679Zm29.1 0v4.796h14.752s.937-2.533.937-4.796H80.779Zm28.964 0v4.796h26.154l-1.743-4.796h-24.411Zm33.934 0-1.75 4.796h26.284v-4.796h-24.534Zm-130.888 9.32v4.79h14.752v-4.79H12.789Zm38.89 0v4.79h37.68s3.151-2.458 4.156-4.79H51.679Zm58.064 0v4.79h14.752v-2.666l.937 2.666h27.022l1.005-2.666v2.666h14.752v-4.79h-27.693l-1.469 4.057-1.477-4.056h-27.829Zm-96.954 9.314v4.79h14.752v-4.79H12.789Zm38.89 0v4.79h41.836c-1.005-2.325-4.157-4.79-4.157-4.79h-37.68Zm58.064 0v4.79h14.752v-4.79h-14.752Zm17.432 0 1.784 4.79h20.262l1.695-4.79h-23.741Zm26.284 0v4.79h14.752v-4.79h-14.752Zm-140.67 9.314v4.789h14.752v-4.789H12.789Zm38.89 0v4.789H66.43v-4.789H51.679Zm29.1 0v4.789h15.689c0-2.26-.937-4.789-.937-4.789H80.78Zm28.964 0v4.789h14.752v-4.789h-14.752Zm20.781 0 1.73 4.789h13.583l1.743-4.789h-17.056Zm22.935 0v4.789h14.752v-4.789h-14.752ZM3.267 117.89v4.796H37.33v-4.796H3.267Zm38.622 0v4.796h52.439c1.104-1.098 1.736-4.796 1.736-4.796H41.89Zm58.332 0v4.796h24.274v-4.796h-24.274Zm33.66 0 1.777 4.796h6.911l1.668-4.796h-10.356Zm19.578 0v4.796H178v-4.796h-24.541ZM3.267 127.211V132H37.33v-4.789H3.267Zm38.622 0v4.782h37.017c6.567 0 11.526-4.782 11.526-4.782H41.889Zm58.332 0V132h24.274v-4.789h-24.274Zm37.03 0 1.709 4.776.294.006 1.736-4.782h-3.739Zm16.208 0V132H178v-4.789h-24.541Z"/></svg>