<svg width="193" height="197" viewBox="0 0 193 197" fill="none" xmlns="http://www.w3.org/2000/svg">
<g clip-path="url(#clip0_0_3)">
<path d="M35.3996 111.152C35.9889 113.381 36.9399 114.243 38.6204 114.243C40.3626 114.243 41.2761 113.196 41.2761 111.152V73.1966H52.1894V111.152C52.1894 116.502 51.4953 118.82 48.7827 121.533C46.8277 123.489 43.2218 125 38.6686 125C34.9901 125 31.4702 123.782 29.2254 121.534C27.2573 119.562 26.1762 117.536 24.4868 111.151L17.7901 85.8483C17.2004 83.6192 16.2499 82.7577 14.5693 82.7577C12.8268 82.7577 11.9132 83.804 11.9132 85.8483V123.804H1V85.8483C1 80.4987 1.69442 78.1802 4.40701 75.4668C6.36125 73.5122 9.96758 72 14.5211 72C18.1996 72 21.7196 73.2179 23.9643 75.4665C25.9324 77.4383 27.0135 79.4636 28.703 85.8487L35.3996 111.152Z" fill="#DB362D"/>
<path d="M179.76 123.804L167.157 84.3761C167.017 83.9408 166.886 83.5714 166.684 83.3249C166.338 82.9035 165.859 82.6821 165.214 82.6821C164.57 82.6821 164.091 82.9035 163.744 83.3249C163.543 83.571 163.411 83.9404 163.272 84.3761L150.669 123.804H139.389L153.155 80.7339C153.873 78.4902 154.898 76.5853 156.199 75.3161C158.432 73.1394 161.063 72 165.215 72C169.367 72 171.998 73.1394 174.23 75.3158C175.531 76.5853 176.556 78.4898 177.274 80.7335L191.04 123.803H179.76V123.804Z" fill="#DB362D"/>
<path d="M123.982 123.804C131.132 123.804 134.62 122.285 137.375 119.545C140.424 116.514 141.882 113.198 141.882 108.247C141.882 103.872 140.28 99.82 137.842 97.3954C134.654 94.2247 130.694 93.2255 124.236 93.2255L115.192 93.2251C111.736 93.2251 110.358 92.8074 109.269 91.7368C108.52 91.0024 108.17 89.9101 108.17 88.6226C108.17 87.2917 108.49 85.9773 109.405 85.0795C110.217 84.2826 111.323 83.9169 113.449 83.9169H139.589V73.1966H115.446C108.296 73.1966 104.809 74.716 102.053 77.4555C99.0051 80.4863 97.5463 83.8021 97.5463 88.7531C97.5463 93.1287 99.1479 97.1803 101.586 99.6046C104.775 102.775 108.735 103.775 115.192 103.775L124.237 103.776C127.693 103.776 129.07 104.193 130.16 105.264C130.908 105.998 131.259 107.09 131.259 108.378C131.259 109.709 130.938 111.023 130.024 111.921C129.212 112.718 128.105 113.083 125.979 113.083H99.02L88.6801 80.7339C87.9628 78.4902 86.9375 76.5853 85.6365 75.3161C83.4037 73.1394 80.7726 72 76.6207 72C72.4688 72 69.8373 73.1394 67.6056 75.3158C66.3043 76.5853 65.2793 78.4898 64.5621 80.7335L50.7953 123.803H62.0757L74.6792 84.3757C74.8183 83.9404 74.9495 83.571 75.1515 83.3246C75.4977 82.9031 75.9771 82.6817 76.6214 82.6817C77.2657 82.6817 77.7448 82.9031 78.0914 83.3246C78.2934 83.5706 78.4246 83.9401 78.5633 84.3757L91.1668 123.803H123.982V123.804Z" fill="#DB362D"/>
</g>
<defs>
<clipPath id="clip0_0_3">
<rect width="190.04" height="53" fill="white" transform="translate(1 72)"/>
</clipPath>
</defs>
</svg>
