<svg xmlns="http://www.w3.org/2000/svg" width="193" height="197" fill="none"><path fill="#0F3A97" d="M166.934 97.204c0 42.349-34.888 77.204-77.282 77.204s-77.283-34.857-77.283-77.204C12.37 54.852 46.442 20 89.652 20c41.575 0 77.282 34.854 77.282 77.204Z"/><path fill="#fff" d="M107.082 137.838c33.018 13.583 27.289-20.74 9.689-47.022-9.976-14.889-22.985-27.294-31.19-33.28-27.207-19.857-44.003-7.814-24.79 31.347 6.211 12.661 14.189 21.207 20.42 29.261 4.759 6.15 14.028 9.229 10.763 12.145-3.68 3.291-12.59-11.222-12.59-11.222-6.58-7.935-12.851-16.403-19.315-28.024C45.3 64.502 47.43 37.413 74.163 49.213c22.686 10.019 44.355 38.12 53.068 58.077 4.023 9.216 14.994 45.675-19.949 30.934"/><path fill="#F7410A" d="M4.41 120.09c14.524-9.673 28.296-15.919 51.732-23.66 32.932-10.88 57.717-18.193 88.13-33.479 13.613-6.84 37.233-22.182 45.679-35.519-2.529 5.162-10.363 15.209-13.907 19.652C134.781 98.749 46.888 95.82 4.989 120.623"/><path fill="#fff" d="M25.482 82.329c13.294.104 11.99-.027 12.145.129.232 0 10.614 17.879 10.614 18.035 0 .075-.077-6.355-.077-14.397 0-.929-2.555-3.638-2.48-3.638 3.795 0 8.755.078 8.755.078-1.858 2.167-2.23 1.988-2.246 3.328-.052 4.306-.1 12.266 0 21.206.015 1.34 1.008 1.858 2.635 4.18H42.663c-3.951-6.579-11.192-18.92-11.156-18.884.056.056-.156 7.741.076 13.931.078 2.046 1.008 2.709 2.713 4.568 0 0 1.962-.053-9.53.076 3.486-1.858 3.023-4.179 3.022-4.256-.126-8.555-.027-15.868-.027-20.59 0-.773-.052-.697-2.453-3.637m41.74 13.081c1.116-3.875 2.07-7.338 2.522-9.597.077-.388-.852-1.78-2.324-3.174l-.104-.216c7.098.023 14.514.063 14.514.063 1.937 4.72 6.353 17.955 9.685 26.083.88 2.146 2.402 2.553 2.402 2.553-6.044-.076-17.259-.024-17.199-.076 3.02-2.711 2.633-2.711 1.316-6.655h-9.451c-1.938 4.488.603 6.594.928 6.578-2.15.111-9.45 0-9.45 0 3.95-2.788 3.717-3.639 3.717-3.639 1.085-3.861 2.343-8.092 3.444-11.92h3.878l-1.666 5.34h7.517l-4.184-10.681-1.666 5.34h-3.878m64.927.388c1.114-3.874 2.069-7.338 2.521-9.598.076-.386-.854-1.779-2.325-3.174l-.104-.215c7.1.023 14.517.063 14.517.063 1.934 4.721 6.351 17.955 9.682 26.083.88 2.149 2.4 2.553 2.4 2.553-6.04-.077-17.255-.024-17.197-.077 3.021-2.708 2.635-2.708 1.318-6.654h-9.453c-1.938 4.488.602 6.594.927 6.579-2.149.11-9.451 0-9.451 0 3.951-2.787 3.72-3.639 3.72-3.639 1.085-3.863 2.342-8.091 3.445-11.921h3.877c-.835 2.672-1.664 5.342-1.664 5.342h7.513l-4.185-10.683s-.83 2.67-1.664 5.34h-3.877Zm-12.222-6.344c-.154-5.499 0-7.278 0-7.278-2.403 1.936-1.19 1.69-7.204.697-17.33-2.86-18.651 13.32-9.22 16.949 7.917 3.047 10.722 3.645 9.529 6.501-.388.932-7.592 4.336-15.03-2.554l.152 9.598c.93-.957 3.488-2.708 3.488-2.708.076 0 8.062 3.517 15.262-.155 11.08-5.649 5.55-14.793-6.275-18.42-9.84-3.019-.543-10.063 9.218-2.554M90.74 27.01a.632.632 0 0 1-.63.63.633.633 0 0 1-.629-.63c0-.342.285-.628.63-.628a.631.631 0 0 1 .629.628Zm4.364 9.53a.781.781 0 0 1-.774.776.779.779 0 0 1-.776-.775c0-.424.35-.773.776-.773.422 0 .774.349.774.773Zm11.324 15.577a.777.777 0 0 1-.775.773.78.78 0 0 1-.775-.773c0-.425.325-.776.751-.776.428 0 .799.35.799.776ZM88.223 41.91a.63.63 0 0 1-1.26 0c0-.344.285-.629.63-.629a.631.631 0 0 1 .63.63Zm6.783 3.58a.633.633 0 0 1-.628.629.633.633 0 0 1-.63-.628c0-.344.285-.629.63-.629.344 0 .628.285.628.629Zm-8.815-10.014a.78.78 0 0 1-.774.775.778.778 0 0 1-.775-.775.78.78 0 0 1 .775-.775c.424 0 .774.35.774.775Zm-10.263 6.24c0 .346-.284.63-.63.63a.633.633 0 0 1-.629-.63c0-.343.284-.628.63-.628a.632.632 0 0 1 .629.629Zm1.835 1.257a.632.632 0 0 1-.63.63.634.634 0 0 1-.63-.63.63.63 0 0 1 1.26 0Zm1.842 1.259a.633.633 0 0 1-.63.63.633.633 0 0 1-.63-.63c0-.343.286-.628.63-.628.346 0 .63.284.63.628Zm-2.805 2.42a.636.636 0 0 1-.63.629.634.634 0 0 1-.631-.63c0-.344.284-.628.63-.628.344 0 .63.284.63.628ZM62.174 56.906a.632.632 0 0 1-.63.628.632.632 0 0 1-.63-.628c0-.345.285-.63.63-.63.344 0 .63.285.63.63Zm2.71 3.29a.634.634 0 0 1-.629.63.634.634 0 0 1-.63-.63c0-.345.285-.629.63-.629.345 0 .63.284.63.63Zm-2.154 53.116a.633.633 0 0 1-.63.629.633.633 0 0 1-.63-.629c0-.344.285-.63.63-.63.346 0 .63.286.63.63Zm.387 14.654c0 .424-.35.774-.774.774a.777.777 0 0 1-.775-.774c0-.424.35-.774.775-.774a.778.778 0 0 1 .774.774Zm-8.33 7.505a.632.632 0 0 1-.629.628.632.632 0 0 1-.63-.628c0-.346.285-.63.63-.63.344 0 .629.283.629.63Zm-9.974 3.04a.781.781 0 0 1-.776.775.78.78 0 0 1-.774-.775.78.78 0 0 1 .774-.775.78.78 0 0 1 .776.775Zm-2.034-6.77c0 .423-.35.773-.774.773a.78.78 0 0 1-.774-.773.779.779 0 0 1 .774-.776.78.78 0 0 1 .774.776Zm-1.16 4.306a.632.632 0 0 1-.63.629.633.633 0 0 1-.631-.629c0-.342.286-.629.63-.629.345 0 .63.285.63.629Zm-7.46-3.577a.633.633 0 0 1-.628.628.633.633 0 0 1-.63-.628c0-.343.284-.629.63-.629.344 0 .628.284.628.629Zm26.052 12.091c0 .345-.26.63-.605.63s-.654-.285-.654-.63c0-.344.285-.629.629-.629.346 0 .63.284.63.629Zm7.846-5.755c0 .425-.325.776-.751.776-.425 0-.799-.349-.799-.776 0-.423.35-.773.775-.773a.778.778 0 0 1 .775.773Zm.898 7.4c0 .345-.31.631-.654.631a.635.635 0 0 1-.63-.631c0-.343.284-.627.63-.627.344-.001.654.282.654.627Zm32.244-7.065a.631.631 0 0 1-.627.63.64.64 0 0 1-.632-.63c0-.346.284-.629.632-.629.343 0 .627.283.627.629Zm-15.008 5.321a.633.633 0 0 1-.629.628.632.632 0 0 1-.63-.628c0-.343.286-.629.63-.629.346 0 .63.285.63.629Zm40.386 7.648a.634.634 0 0 1-.63.629.634.634 0 0 1-.631-.629c0-.343.285-.628.631-.628.344 0 .63.283.63.628Zm3.289-29.754a.783.783 0 0 1-.776.776.778.778 0 0 1-.775-.776c0-.424.349-.775.775-.775a.78.78 0 0 1 .776.775Zm-6.193 4.208a.636.636 0 0 1-.632.63.633.633 0 0 1-.628-.63c0-.345.285-.628.628-.628.346 0 .632.283.632.628Zm6.102 1.212a.78.78 0 0 1-.776.776.78.78 0 0 1-.776-.776.78.78 0 0 1 .776-.774c.427 0 .776.351.776.774Zm-6.102 7.498a.638.638 0 0 1-.187.444.629.629 0 1 1-.445-1.074c.346 0 .632.284.632.63Zm15.781-17.125a.635.635 0 0 1-.63.629.632.632 0 0 1-.628-.629c0-.345.284-.628.628-.628.344 0 .63.283.63.628Zm1.527 3.821c0 .424-.323.775-.75.775-.425 0-.799-.349-.799-.775 0-.425.349-.774.774-.774a.778.778 0 0 1 .775.774Zm10.873 4.548a.777.777 0 0 1-.775.775.78.78 0 0 1-.776-.775.78.78 0 0 1 .776-.775.78.78 0 0 1 .775.775Zm-11.044 8.082a.631.631 0 0 1-1.261 0c0-.346.286-.63.63-.63.344 0 .631.282.631.63Zm6.974-6.581a.63.63 0 0 1-1.258 0c0-.344.287-.629.629-.629.345 0 .629.283.629.629Zm-1.285 10.158a.628.628 0 0 1-1.073.444.631.631 0 0 1-.186-.444c0-.342.284-.629.631-.629.344 0 .628.285.628.629Zm2.956-16.882a.973.973 0 0 1-.969.967.972.972 0 0 1-.968-.967c0-.531.437-.967.968-.967.531 0 .969.436.969.967Z"/><path fill="#fff" d="m148.483 118.347-.287 2.66-2.64.291 2.663.288.29 2.759.291-2.759 2.614-.339-2.637-.242-.294-2.658Zm-5.812 19.778c0 .533-.437.97-.968.97a.978.978 0 0 1-.685-.285.978.978 0 0 1-.285-.685c0-.53.438-.966.97-.966a.974.974 0 0 1 .968.966Z"/><path fill="#fff" d="m141.709 135.176-.291 2.662-2.637.289 2.662.291.291 2.756.291-2.756 2.613-.34-2.64-.242-.289-2.66Zm-71.28-76.964c0 .531-.437.967-.968.967a.972.972 0 0 1-.969-.967c0-.532.437-.968.97-.968.53.002.968.437.968.968Z"/><path fill="#fff" d="m69.46 55.261-.292 2.66-2.64.292 2.664.287.29 2.76.29-2.76 2.615-.337-2.64-.243-.288-2.659Zm36.995-20.46c0 .53-.438.967-.969.967a.972.972 0 0 1-.968-.968c0-.532.435-.969.968-.969.532 0 .969.438.969.97Z"/><path fill="#fff" d="m105.485 31.848-.288 2.662-2.639.29 2.663.29.288 2.758.291-2.758 2.614-.34-2.639-.242-.29-2.66ZM62.656 153.613a.972.972 0 0 1-.968.968.974.974 0 0 1-.97-.968c0-.53.438-.969.97-.969.53.001.968.439.968.969Z"/><path fill="#fff" d="m61.712 150.658-.29 2.662-2.639.29 2.663.289.29 2.757.29-2.757 2.615-.339-2.639-.242-.29-2.66Z"/><path fill="#F7410A" d="M189.944 27.433c-11.777 34.94-58.958 61.92-98.674 87.675-23.96 15.543-47.748 33.433-64.125 48.655-4.316 4.014.88-1.501-.775.194 22.855-26.314 49.145-41.988 63.673-51.855 24.569-16.692 38.544-20.899 80.933-59.943"/><path fill="#EE293D" d="M14.233 113.995c-4.23 2.067-8.018 4.111-11.233 6.107l1.956.712a85.69 85.69 0 0 1 9.742-5.127m21.865 37.407a425.035 425.035 0 0 0-11.87 10.752l-.178 2.668c3.67-3.782 8.179-7.863 13.382-12.195"/><path fill="#fff" d="M107.084 137.838c33.017 13.582 27.289-20.741 9.688-47.022-9.976-14.889-22.277-26.7-31.19-33.28-10.408-7.685-11.424-8.322-11.424-8.322 23.241 11.031 44.355 38.12 53.067 58.078 4.025 9.216 14.995 45.674-19.948 30.934"/></svg>