<svg width="193" height="197" viewBox="0 0 193 197" fill="none" xmlns="http://www.w3.org/2000/svg">
<path d="M107.082 137.838C140.1 151.421 134.371 117.098 116.771 90.816C106.795 75.927 93.786 63.522 85.581 57.536C58.374 37.679 41.578 49.722 60.791 88.883C67.002 101.544 74.98 110.09 81.211 118.144C85.97 124.294 95.239 127.373 91.974 130.289C88.294 133.58 79.384 119.067 79.384 119.067C72.804 111.132 66.533 102.664 60.069 91.043C45.3 64.502 47.43 37.413 74.163 49.213C96.849 59.232 118.518 87.333 127.231 107.29C131.254 116.506 142.225 152.965 107.282 138.224" fill="white"/>
<path d="M4.41 120.09C18.934 110.417 32.706 104.171 56.142 96.43C89.074 85.55 113.859 78.237 144.272 62.951C157.885 56.111 181.505 40.769 189.951 27.432C187.422 32.594 179.588 42.641 176.044 47.084C134.781 98.749 46.888 95.82 4.989 120.623" fill="#F7410A"/>
<path fill-rule="evenodd" clip-rule="evenodd" d="M89.652 174.408C132.046 174.408 166.934 139.553 166.934 97.204C166.934 54.854 131.227 20 89.652 20C46.442 20 12.37 54.852 12.369 97.204C12.369 139.551 47.258 174.408 89.652 174.408ZM37.6061 82.4124C37.5714 82.3308 37.1342 82.4202 25.482 82.329L25.308 82.458C25.6742 82.9064 25.9858 83.2847 26.2509 83.6065C27.7237 85.3946 27.761 85.4399 27.761 86.095C27.761 87.3772 27.7537 88.8504 27.7456 90.4877C27.7238 94.88 27.6962 100.453 27.788 106.685C27.788 106.689 27.789 106.697 27.7906 106.709C27.823 106.973 28.0931 109.168 24.766 110.941C31.8235 110.862 33.8069 110.851 34.2867 110.855C34.2898 110.858 34.2929 110.862 34.296 110.865C34.296 110.865 34.5881 110.857 34.2867 110.855C34.0498 110.597 33.828 110.362 33.6214 110.143C32.3457 108.792 31.65 108.055 31.583 106.297C31.4214 101.986 31.4752 96.9488 31.5038 94.2699C31.5159 93.1363 31.5235 92.4249 31.5084 92.3692C31.6281 92.5977 38.755 104.743 42.663 111.25H54.828C54.2735 110.459 53.7926 109.877 53.399 109.4C52.6377 108.479 52.2029 107.953 52.193 107.07C52.093 98.13 52.141 90.17 52.193 85.864C52.2042 84.9247 52.3903 84.7318 53.1405 83.9541C53.4606 83.6223 53.8833 83.1841 54.439 82.536C54.439 82.536 49.479 82.458 45.684 82.458C45.6664 82.458 45.7943 82.6079 46.0002 82.8493C46.6697 83.6341 48.164 85.3856 48.164 86.096C48.164 94.138 48.241 100.568 48.241 100.493C48.241 100.337 37.859 82.458 37.627 82.458C37.6079 82.4387 37.611 82.4239 37.6061 82.4124ZM69.57 85.942C69.118 88.201 68.164 91.664 67.048 95.539C66.6323 96.9843 66.1942 98.4871 65.7515 100.006C65.0217 102.509 64.2793 105.056 63.604 107.459C63.604 107.459 63.837 108.31 59.887 111.098C59.887 111.098 67.187 111.209 69.337 111.098C69.012 111.114 66.471 109.008 68.409 104.52H77.86C77.9775 104.872 78.0876 105.192 78.1885 105.486C79.2189 108.486 79.2946 108.706 76.544 111.175C76.5163 111.199 78.8839 111.201 82.0363 111.203C85.7236 111.206 90.4847 111.21 93.743 111.251C93.743 111.251 92.221 110.844 91.341 108.698C89.4535 104.094 87.2181 97.8504 85.2826 92.4446C83.8013 88.3077 82.4957 84.6612 81.656 82.615C81.656 82.615 74.24 82.575 67.142 82.552L67.246 82.768C68.718 84.162 69.647 85.554 69.57 85.942ZM67.048 95.539L67.049 95.538H70.927L72.593 90.198L76.777 100.879H69.26L70.926 95.539H67.048ZM131.976 95.925C131.976 95.9253 131.976 95.9257 131.976 95.926V95.925H131.976ZM131.976 95.925C133.09 92.0514 134.045 88.5878 134.497 86.328C134.573 85.942 133.643 84.549 132.172 83.154L132.068 82.939C139.168 82.962 146.585 83.002 146.585 83.002C147.421 85.0421 148.72 88.6718 150.195 92.7923C152.134 98.2071 154.375 104.469 156.267 109.085C157.147 111.234 158.667 111.638 158.667 111.638C155.415 111.597 150.661 111.593 146.976 111.59C143.818 111.587 141.443 111.585 141.47 111.561C144.222 109.094 144.147 108.874 143.116 105.872C143.015 105.578 142.905 105.258 142.788 104.907H133.335C131.397 109.395 133.937 111.501 134.262 111.486C132.113 111.596 124.811 111.486 124.811 111.486C128.762 108.699 128.531 107.847 128.531 107.847C129.218 105.4 129.975 102.807 130.717 100.261C131.147 98.7873 131.572 97.3299 131.976 95.926H135.853C135.018 98.598 134.189 101.268 134.189 101.268H141.702L137.517 90.585C137.517 90.585 136.687 93.255 135.853 95.925H131.976ZM119.754 82.304C119.754 82.304 119.6 84.083 119.754 89.582L119.674 89.658C109.913 82.149 100.616 89.193 110.456 92.212C122.281 95.839 127.811 104.983 116.731 110.632C109.986 114.072 102.551 111.203 101.576 110.826C101.51 110.801 101.474 110.787 101.469 110.787C101.469 110.787 98.911 112.538 97.981 113.495L97.829 103.897C105.267 110.787 112.471 107.383 112.859 106.451C113.907 103.943 111.872 103.176 106 100.964C105.184 100.657 104.295 100.321 103.33 99.95C93.899 96.321 95.22 80.141 112.55 83.001C116.225 83.6078 117.201 83.9356 117.953 83.6572C118.432 83.4799 118.819 83.057 119.754 82.304ZM90.5549 27.4549C90.6729 27.3369 90.7395 27.1769 90.74 27.01C90.7392 26.8435 90.6727 26.6841 90.5548 26.5665C90.437 26.4488 90.2775 26.3825 90.111 26.382C89.766 26.382 89.481 26.668 89.481 27.01C89.4818 27.1767 89.5483 27.3363 89.666 27.4543C89.7838 27.5722 89.9433 27.639 90.11 27.64C90.2769 27.6395 90.4369 27.5729 90.5549 27.4549ZM94.876 37.0866C95.0208 36.9414 95.1027 36.7451 95.104 36.54C95.104 36.116 94.752 35.768 94.33 35.768C93.904 35.768 93.554 36.117 93.554 36.541C93.5551 36.7464 93.6372 36.9431 93.7825 37.0882C93.9278 37.2333 94.1246 37.3152 94.33 37.316C94.5351 37.3142 94.7312 37.2318 94.876 37.0866ZM106.2 52.6631C106.345 52.5183 106.427 52.322 106.428 52.117C106.428 51.691 106.057 51.341 105.629 51.341C105.203 51.341 104.878 51.692 104.878 52.117C104.88 52.3218 104.962 52.5176 105.107 52.6623C105.252 52.8069 105.448 52.8887 105.653 52.89C105.858 52.8895 106.055 52.8079 106.2 52.6631ZM88.0385 42.3555C88.1566 42.2373 88.223 42.0771 88.223 41.91C88.2227 41.743 88.1563 41.5839 88.0382 41.4658C87.9201 41.3477 87.76 41.2813 87.593 41.281C87.248 41.281 86.963 41.566 86.963 41.91C86.963 42.0771 87.0294 42.2373 87.1475 42.3555C87.2657 42.4736 87.4259 42.54 87.593 42.54C87.7601 42.54 87.9203 42.4736 88.0385 42.3555ZM94.821 45.9333C94.9385 45.8156 95.005 45.6563 95.006 45.49C95.006 45.146 94.722 44.862 94.378 44.862C94.033 44.862 93.748 45.147 93.748 45.491C93.7493 45.6575 93.8162 45.8168 93.9341 45.9343C94.052 46.0519 94.2115 46.1182 94.378 46.119C94.5443 46.1177 94.7035 46.051 94.821 45.9333ZM85.9629 36.0222C86.1078 35.8772 86.1897 35.681 86.191 35.476C86.191 35.051 85.841 34.701 85.417 34.701C85.2119 34.7023 85.0155 34.7844 84.8704 34.9294C84.7254 35.0745 84.6433 35.2709 84.642 35.476C84.6428 35.6813 84.7247 35.878 84.8699 36.0231C85.015 36.1683 85.2117 36.2502 85.417 36.251C85.622 36.2494 85.8181 36.1672 85.9629 36.0222ZM75.298 42.346C75.644 42.346 75.928 42.062 75.928 41.716C75.9272 41.5494 75.8607 41.3909 75.7429 41.2731C75.6251 41.1553 75.4656 41.0888 75.299 41.088C74.953 41.088 74.669 41.373 74.669 41.716C74.6698 41.8827 74.7363 42.0423 74.854 42.1603C74.9718 42.2782 75.1313 42.345 75.298 42.346ZM77.5779 43.4179C77.6959 43.2999 77.7625 43.1399 77.763 42.973C77.763 42.8059 77.6966 42.6457 77.5785 42.5275C77.4603 42.4094 77.3001 42.343 77.133 42.343C76.9659 42.343 76.8057 42.4094 76.6875 42.5275C76.5694 42.6457 76.503 42.8059 76.503 42.973C76.504 43.1398 76.5708 43.2994 76.6887 43.4173C76.8066 43.5352 76.9662 43.602 77.133 43.603C77.2999 43.6025 77.4599 43.5359 77.5779 43.4179ZM79.4196 44.6766C79.5376 44.5586 79.6042 44.3988 79.605 44.232C79.605 43.888 79.321 43.604 78.975 43.604C78.631 43.604 78.345 43.889 78.345 44.232C78.3458 44.3988 78.4124 44.5586 78.5304 44.6766C78.6484 44.7946 78.8082 44.8612 78.975 44.862C79.1418 44.8612 79.3016 44.7946 79.4196 44.6766ZM76.6134 47.0951C76.7312 46.9775 76.7982 46.8184 76.8 46.652L76.799 46.651C76.799 46.307 76.513 46.023 76.169 46.023C75.823 46.023 75.539 46.307 75.539 46.651C75.5401 46.8179 75.6069 46.9777 75.725 47.0957C75.8432 47.2136 76.0031 47.2802 76.17 47.281C76.3364 47.2794 76.4956 47.2127 76.6134 47.0951ZM61.9882 57.3496C62.1062 57.232 62.1729 57.0726 62.174 56.906C62.174 56.561 61.888 56.276 61.544 56.276C61.199 56.276 60.914 56.561 60.914 56.906C60.9151 57.0726 60.9818 57.232 61.0998 57.3496C61.2178 57.4672 61.3774 57.5335 61.544 57.534C61.7106 57.5335 61.8702 57.4672 61.9882 57.3496ZM64.6987 60.64C64.8164 60.5221 64.883 60.3626 64.884 60.196L64.885 60.197C64.885 59.851 64.6 59.567 64.255 59.567C63.91 59.567 63.625 59.851 63.625 60.196C63.626 60.3628 63.6928 60.5224 63.8107 60.6403C63.9286 60.7582 64.0882 60.825 64.255 60.826C64.4216 60.8247 64.581 60.7579 64.6987 60.64ZM62.5443 113.756C62.6622 113.638 62.7289 113.479 62.73 113.312C62.73 112.968 62.446 112.682 62.1 112.682C61.755 112.682 61.47 112.968 61.47 113.312C61.4711 113.479 61.5378 113.638 61.6557 113.756C61.7737 113.874 61.9333 113.94 62.1 113.941C62.2667 113.94 62.4263 113.874 62.5443 113.756ZM62.343 128.74C62.767 128.74 63.117 128.39 63.117 127.966C63.1159 127.761 63.0341 127.565 62.8891 127.42C62.7442 127.275 62.5479 127.193 62.343 127.192C61.918 127.192 61.568 127.542 61.568 127.966C61.5688 128.171 61.6507 128.368 61.7959 128.513C61.9411 128.658 62.1378 128.739 62.343 128.74ZM54.6015 135.914C54.7193 135.797 54.7859 135.637 54.787 135.471C54.787 135.124 54.502 134.841 54.158 134.841C53.813 134.841 53.528 135.125 53.528 135.471C53.5291 135.638 53.5958 135.797 53.7138 135.915C53.8318 136.032 53.9914 136.098 54.158 136.099C54.3244 136.098 54.4838 136.032 54.6015 135.914ZM44.5839 139.058C44.7291 138.913 44.8114 138.716 44.813 138.511C44.8117 138.306 44.7295 138.109 44.5842 137.964C44.4389 137.819 44.2423 137.737 44.037 137.736C43.832 137.738 43.6359 137.82 43.4911 137.965C43.3462 138.11 43.2643 138.306 43.263 138.511C43.2643 138.716 43.3462 138.912 43.4911 139.057C43.6359 139.202 43.832 139.284 44.037 139.286C44.2422 139.285 44.4387 139.203 44.5839 139.058ZM42.005 132.514C42.429 132.514 42.779 132.164 42.779 131.741C42.778 131.536 42.6961 131.339 42.5513 131.194C42.4064 131.049 42.2101 130.967 42.005 130.965C41.7998 130.966 41.6034 131.049 41.4584 131.194C41.3135 131.339 41.2318 131.536 41.231 131.741C41.2328 131.946 41.315 132.141 41.4598 132.286C41.6046 132.431 41.8004 132.512 42.005 132.514ZM41.4335 136.491C41.5515 136.373 41.6182 136.214 41.619 136.047C41.619 135.703 41.333 135.418 40.988 135.418C40.644 135.418 40.358 135.705 40.358 136.047C40.3591 136.214 40.4259 136.374 40.5441 136.491C40.6623 136.609 40.8222 136.675 40.989 136.676C41.1557 136.675 41.3155 136.609 41.4335 136.491ZM33.9736 132.913C34.0911 132.795 34.1577 132.636 34.159 132.47C34.159 132.125 33.875 131.841 33.531 131.841C33.185 131.841 32.901 132.127 32.901 132.47C32.9023 132.637 32.9692 132.796 33.0871 132.913C33.205 133.031 33.3645 133.097 33.531 133.098C33.6971 133.097 33.8561 133.03 33.9736 132.913ZM59.606 145.191C59.951 145.191 60.211 144.906 60.211 144.561C60.211 144.216 59.927 143.932 59.581 143.932C59.237 143.932 58.952 144.217 58.952 144.561C58.952 144.906 59.261 145.191 59.606 145.191ZM67.306 139.582C67.732 139.582 68.057 139.231 68.057 138.806C68.0557 138.601 67.9735 138.405 67.8284 138.26C67.6833 138.115 67.487 138.034 67.282 138.033C66.857 138.033 66.507 138.383 66.507 138.806C66.507 139.233 66.881 139.582 67.306 139.582ZM68.301 146.837C68.645 146.837 68.955 146.551 68.955 146.206C68.955 145.861 68.645 145.578 68.301 145.579C67.955 145.579 67.671 145.863 67.671 146.206C67.672 146.373 67.7387 146.533 67.8566 146.651C67.9745 146.769 68.1341 146.836 68.301 146.837ZM101.015 139.585C101.133 139.467 101.199 139.307 101.199 139.141C101.199 138.795 100.915 138.512 100.572 138.512C100.224 138.512 99.94 138.795 99.94 139.141C99.9426 139.308 100.01 139.467 100.128 139.584C100.246 139.702 100.405 139.769 100.572 139.771C100.738 139.77 100.898 139.703 101.015 139.585ZM86.0053 144.905C86.123 144.787 86.1897 144.628 86.191 144.462C86.191 144.118 85.908 143.833 85.562 143.833C85.218 143.833 84.932 144.119 84.932 144.462C84.9331 144.629 84.9998 144.788 85.1178 144.906C85.2358 145.023 85.3954 145.089 85.562 145.09C85.7283 145.089 85.8876 145.022 86.0053 144.905ZM126.391 152.554C126.509 152.436 126.576 152.277 126.577 152.11C126.577 151.765 126.291 151.482 125.947 151.482C125.601 151.482 125.316 151.767 125.316 152.11C125.317 152.277 125.384 152.436 125.502 152.554C125.62 152.672 125.78 152.738 125.947 152.739C126.114 152.738 126.273 152.671 126.391 152.554ZM129.637 122.903C129.782 122.758 129.864 122.561 129.866 122.356C129.865 122.151 129.782 121.954 129.637 121.809C129.492 121.664 129.295 121.582 129.09 121.581C128.664 121.581 128.315 121.932 128.315 122.356C128.316 122.561 128.397 122.758 128.543 122.904C128.688 123.049 128.885 123.131 129.09 123.132C129.295 123.13 129.492 123.048 129.637 122.903ZM123.486 127.008C123.604 126.891 123.671 126.731 123.673 126.564C123.673 126.219 123.387 125.936 123.041 125.936C122.698 125.936 122.413 126.219 122.413 126.564C122.414 126.731 122.48 126.89 122.598 127.008C122.715 127.126 122.875 127.193 123.041 127.194C123.208 127.193 123.368 127.126 123.486 127.008ZM129.547 128.324C129.692 128.178 129.774 127.981 129.775 127.776C129.775 127.353 129.426 127.002 128.999 127.002C128.794 127.003 128.597 127.085 128.452 127.23C128.307 127.375 128.225 127.571 128.223 127.776C128.224 127.981 128.306 128.178 128.451 128.324C128.597 128.469 128.794 128.551 128.999 128.552C129.204 128.551 129.401 128.469 129.547 128.324ZM123.486 135.718C123.604 135.6 123.671 135.441 123.673 135.274C123.673 134.928 123.387 134.644 123.041 134.644C122.938 134.644 122.836 134.67 122.745 134.718C122.653 134.767 122.576 134.838 122.518 134.924C122.461 135.01 122.426 135.109 122.415 135.212C122.405 135.314 122.421 135.418 122.46 135.514C122.5 135.609 122.562 135.694 122.642 135.759C122.722 135.825 122.817 135.87 122.919 135.89C123.02 135.91 123.125 135.905 123.224 135.875C123.323 135.845 123.413 135.791 123.486 135.718ZM139.268 118.592C139.386 118.475 139.452 118.316 139.454 118.149C139.454 117.804 139.168 117.521 138.824 117.521C138.48 117.521 138.196 117.804 138.196 118.149C138.197 118.315 138.263 118.475 138.381 118.593C138.498 118.71 138.658 118.777 138.824 118.778C138.991 118.777 139.15 118.71 139.268 118.592ZM140.231 122.745C140.658 122.745 140.981 122.394 140.981 121.97C140.98 121.765 140.898 121.568 140.753 121.424C140.608 121.279 140.411 121.197 140.206 121.196C139.781 121.196 139.432 121.545 139.432 121.97C139.432 122.396 139.806 122.745 140.231 122.745ZM151.626 127.065C151.772 126.92 151.853 126.723 151.854 126.518C151.853 126.313 151.771 126.117 151.626 125.971C151.48 125.826 151.284 125.744 151.079 125.743C150.874 125.744 150.677 125.826 150.532 125.971C150.387 126.116 150.304 126.313 150.303 126.518C150.304 126.723 150.387 126.92 150.532 127.065C150.677 127.21 150.874 127.292 151.079 127.293C151.284 127.292 151.481 127.211 151.626 127.065ZM140.617 135.03C140.734 134.917 140.804 134.763 140.81 134.6C140.81 134.252 140.523 133.97 140.179 133.97C139.835 133.97 139.549 134.254 139.549 134.6C139.555 134.763 139.625 134.917 139.742 135.03C139.86 135.143 140.017 135.206 140.18 135.206C140.342 135.206 140.499 135.143 140.617 135.03ZM147.588 128.441C147.705 128.331 147.775 128.18 147.784 128.019C147.784 127.673 147.5 127.39 147.155 127.39C146.813 127.39 146.526 127.675 146.526 128.019C146.535 128.18 146.605 128.331 146.722 128.441C146.839 128.552 146.994 128.614 147.155 128.614C147.316 128.614 147.471 128.552 147.588 128.441ZM146.393 138.527C146.462 138.423 146.499 138.301 146.499 138.177C146.499 137.833 146.215 137.548 145.871 137.548C145.524 137.548 145.24 137.835 145.24 138.177C145.241 138.344 145.308 138.503 145.426 138.621C145.514 138.709 145.626 138.769 145.748 138.794C145.87 138.818 145.996 138.806 146.111 138.758C146.226 138.711 146.324 138.63 146.393 138.527ZM149.169 121.978C149.351 121.797 149.453 121.551 149.455 121.295C149.455 120.764 149.017 120.328 148.486 120.328C147.955 120.328 147.518 120.764 147.518 121.295C147.519 121.551 147.622 121.797 147.803 121.978C147.984 122.159 148.23 122.261 148.486 122.262C148.742 122.261 148.988 122.159 149.169 121.978Z" fill="#0F3A97"/>
<path d="M148.483 118.347L148.196 121.007L145.556 121.298L148.219 121.586L148.509 124.345L148.8 121.586L151.414 121.247L148.777 121.005L148.483 118.347ZM142.671 138.125C142.671 138.658 142.234 139.095 141.703 139.095C141.446 139.094 141.2 138.991 141.018 138.81C140.837 138.628 140.734 138.382 140.733 138.125C140.733 137.595 141.171 137.159 141.703 137.159C141.959 137.161 142.204 137.263 142.385 137.444C142.566 137.624 142.669 137.869 142.671 138.125Z" fill="white"/>
<path d="M141.709 135.176L141.418 137.838L138.781 138.127L141.443 138.418L141.734 141.174L142.025 138.418L144.638 138.078L141.998 137.836L141.709 135.176ZM70.429 58.212C70.429 58.743 69.992 59.179 69.461 59.179C69.2046 59.1782 68.9589 59.0761 68.7774 58.895C68.5959 58.7139 68.4933 58.4684 68.492 58.212C68.492 57.68 68.929 57.244 69.462 57.244C69.992 57.246 70.429 57.681 70.429 58.212Z" fill="white"/>
<path d="M69.46 55.261L69.168 57.921L66.528 58.213L69.192 58.5L69.482 61.26L69.772 58.5L72.387 58.163L69.747 57.92L69.46 55.261ZM106.455 34.801C106.455 35.331 106.017 35.768 105.486 35.768C105.23 35.7669 104.984 35.6646 104.803 35.4833C104.621 35.302 104.519 35.0564 104.518 34.8C104.518 34.268 104.953 33.831 105.486 33.831C106.018 33.831 106.455 34.269 106.455 34.801Z" fill="white"/>
<path d="M105.485 31.848L105.197 34.51L102.558 34.8L105.221 35.09L105.509 37.848L105.8 35.09L108.414 34.75L105.775 34.508L105.485 31.848ZM62.656 153.613C62.6549 153.869 62.5526 154.115 62.3713 154.296C62.19 154.478 61.9444 154.58 61.688 154.581C61.4314 154.58 61.1856 154.478 61.004 154.296C60.8223 154.115 60.7196 153.87 60.718 153.613C60.718 153.083 61.156 152.644 61.688 152.644C62.218 152.645 62.656 153.083 62.656 153.613Z" fill="white"/>
<path d="M61.712 150.658L61.422 153.32L58.783 153.61L61.446 153.899L61.736 156.656L62.026 153.899L64.641 153.56L62.002 153.318L61.712 150.658Z" fill="white"/>
<path d="M189.944 27.433C178.167 62.373 130.986 89.353 91.27 115.108C67.31 130.651 43.522 148.541 27.145 163.763C22.829 167.777 28.025 162.262 26.37 163.957C49.225 137.643 75.515 121.969 90.043 112.102C114.612 95.41 128.587 91.203 170.976 52.159" fill="#F7410A"/>
<path d="M14.233 113.995C10.003 116.062 6.215 118.106 3 120.102L4.956 120.814C8.09008 118.898 11.3441 117.185 14.698 115.687M36.563 153.094C32.5392 156.603 28.5818 160.188 24.693 163.846L24.515 166.514C28.185 162.732 32.694 158.651 37.897 154.319" fill="#EE293D"/>
<path d="M107.084 137.838C140.101 151.42 134.373 117.097 116.772 90.816C106.796 75.927 94.495 64.116 85.582 57.536C75.174 49.851 74.158 49.214 74.158 49.214C97.399 60.245 118.513 87.334 127.225 107.292C131.25 116.508 142.22 152.966 107.277 138.226" fill="white"/>
</svg>
