<svg xmlns="http://www.w3.org/2000/svg" width="233" height="196" fill="none"><path fill="#E50914" d="M217.857 97.988 230 131c-3.579-.525-7.156-1.182-10.798-1.774l-6.84-18.241-7.029 16.735c-3.45-.592-6.839-.79-10.289-1.25l12.334-28.874L196.191 68h10.354l6.262 16.535L219.519 68h10.479l-12.141 29.988ZM188.015 68h-9.395v57.225c3.068.198 6.262.328 9.395.72V68Zm-17.511 56.568c-8.563-.59-17.128-1.113-25.882-1.313V68h9.585v45.937c5.497.131 10.992.589 16.297.851v9.78Zm-36.11-34.188v9.842h-13.1V122.6h-9.456V68h26.841v9.843h-17.383V90.38h13.1-.002ZM95.731 77.843v45.282c-3.197 0-6.454 0-9.587.13V77.843h-9.907V68h29.461v9.843h-9.967Zm-29.845 22.902c-4.217 0-9.203 0-12.782.2v14.633c5.624-.395 11.248-.853 16.935-1.05v9.45l-26.52 2.167V68h26.518v9.843H53.104V91.1c3.707 0 9.395-.197 12.781-.197v9.844-.002Zm-53.11-5.512v34.387c-3.448.395-6.518.855-9.776 1.38V68h9.14l12.46 35.767V68h9.587v58.93c-3.386.593-6.838.79-10.48 1.313l-10.932-33.01Z"/></svg>