<svg width="132" height="196" viewBox="0 0 132 196" fill="none" xmlns="http://www.w3.org/2000/svg">
<path d="M66.1432 157.286C101.569 157.286 130.286 128.569 130.286 93.1432C130.286 57.7179 101.569 29 66.1432 29C30.7179 29 2 57.7179 2 93.1432C2 128.569 30.7179 157.286 66.1432 157.286Z" fill="url(#paint0_radial_22_62)"/>
<path d="M19.0336 93.1261C19.0336 63.745 37.5817 38.6935 63.6131 29.0542C29.3678 30.3905 2 58.5601 2 93.144C2 127.763 29.4212 155.969 63.72 157.234C37.6529 147.612 19.0336 122.543 19.0336 93.1261Z" fill="url(#paint1_radial_22_62)"/>
<mask id="mask0_22_62" style="mask-type:luminance" maskUnits="userSpaceOnUse" x="2" y="29" width="62" height="129">
<path d="M19.0336 93.1261C19.0336 63.745 37.5817 38.6935 63.6131 29.0542C29.3678 30.3905 2 58.5601 2 93.144C2 127.763 29.4212 155.969 63.72 157.234C37.6529 147.612 19.0336 122.543 19.0336 93.1261Z" fill="url(#paint2_radial_22_62)"/>
</mask>
<g mask="url(#mask0_22_62)">
<path d="M19.0336 93.1261C19.0336 63.745 37.5817 38.6935 63.6131 29.0542C29.3678 30.3905 2 58.5601 2 93.144C2 127.763 29.4212 155.969 63.72 157.234C37.6529 147.612 19.0336 122.543 19.0336 93.1261Z" fill="url(#paint3_radial_22_62)"/>
</g>
<path d="M65.0567 87.0324C69.3151 76.5378 61.3506 73.687 56.1657 73.687H38.9896C40.415 74.667 40.1833 75.9677 39.8983 76.7694L29.8848 108.752C29.4928 110.017 27.9961 111.353 27.1943 111.549H41.092C40.3259 111.407 39.239 110.32 39.631 108.841L43.2658 97.2775C43.2836 97.2775 59.9965 99.5403 65.0567 87.0324ZM51.5509 76.6269C53.3683 76.6269 58.4107 76.8764 55.1501 86.4088C51.7469 96.4222 44.1923 94.3554 44.1923 94.3554L49.7514 76.6269H51.5509Z" fill="white"/>
<path d="M76.1749 111.567H85.5291C82.5358 110.605 78.117 107.772 76.3531 105.758C77.7785 104.208 79.5424 102.248 79.8631 98.275H75.0168C75.0168 98.275 75.9433 98.8095 75.9433 99.9498C75.9433 101.001 75.5156 102.462 74.696 103.478C73.2706 101.375 71.7561 98.9698 71.2216 95.442C73.1281 94.4976 75.8007 93.4642 77.921 91.6112C79.9344 89.8472 80.3977 88.1724 80.4333 87.0855V86.943C80.4333 85.8027 79.9879 84.7336 79.1682 83.9318C77.7607 82.542 75.5513 81.9719 73.2172 82.3995C71.3463 82.7559 69.7606 83.7536 68.9588 84.4842C66.1436 87.139 65.7873 91.5043 65.7873 93.482C65.7873 93.9631 65.8051 94.3195 65.8229 94.5333C65.6625 94.6045 65.3775 94.7114 65.3775 94.7114C63.3106 95.4776 57.805 96.9386 55.8451 101.464C55.5956 102.034 55.2393 103.282 55.2393 104.725C55.2393 105.972 55.5065 107.362 56.3083 108.627C57.6981 110.801 60.05 112.173 63.8273 112.101C67.9254 112.03 71.97 109.233 72.6827 108.716C73.3775 109.375 75.2127 111.104 76.1749 111.567ZM76.1749 86.2659C75.6938 89.3127 71.7383 92.3952 70.7762 92.805C70.598 91.0945 70.6871 88.3862 72.1125 86.1768C73.0568 84.7158 74.3219 84.0744 75.3375 84.4307C76.1571 84.7158 76.2462 85.4641 76.1749 86.2659ZM70.6871 106.649C70.1347 106.988 67.961 108.092 65.9298 108.288C64.0411 108.467 60.9052 107.736 60.9231 103.959C60.9231 100.734 64.4331 98.364 66.3396 97.5444C67.1058 100.663 68.8341 104.19 70.6871 106.649Z" fill="white"/>
<path d="M104.593 76.6621C110.152 75.3258 114.732 79.6733 115.141 79.9762L116.727 74.9338C114.536 74.2746 98.5888 68.8758 87.3103 81.7401C80.3793 89.6511 78.6866 105.865 87.4707 110.213C96.8783 114.863 107.266 109.5 108.032 109.126L112.326 95.4418C112.789 93.7848 113.841 92.7157 115.694 92.0209H100.763C102.936 92.9295 102.776 94.5688 102.616 95.2458L98.3216 108.93C97.7514 109.037 85.7424 112.03 92.4596 91.0231C93.9384 86.5152 97.983 78.2479 104.593 76.6621Z" fill="white"/>
<defs>
<radialGradient id="paint0_radial_22_62" cx="0" cy="0" r="1" gradientUnits="userSpaceOnUse" gradientTransform="translate(29.2069 53.9642) scale(119.79)">
<stop stop-color="#00A1DF"/>
<stop offset="0.13" stop-color="#0092D7"/>
<stop offset="0.37" stop-color="#006CC1"/>
<stop offset="0.62" stop-color="#003DA6"/>
<stop offset="0.73" stop-color="#043799"/>
<stop offset="0.93" stop-color="#102777"/>
<stop offset="1" stop-color="#152169"/>
</radialGradient>
<radialGradient id="paint1_radial_22_62" cx="0" cy="0" r="1" gradientUnits="userSpaceOnUse" gradientTransform="translate(20.4863 38.8913) scale(198.619 198.619)">
<stop offset="0.02" stop-color="white"/>
<stop offset="0.03" stop-color="#FBFEFF"/>
<stop offset="0.09" stop-color="#BAE7F9"/>
<stop offset="0.14" stop-color="#87D5F4"/>
<stop offset="0.19" stop-color="#63C9F1"/>
<stop offset="0.23" stop-color="#4CC1EF"/>
<stop offset="0.26" stop-color="#44BEEE"/>
<stop offset="0.28" stop-color="#37B8EB"/>
<stop offset="0.35" stop-color="#19ACE5"/>
<stop offset="0.41" stop-color="#07A4E0"/>
<stop offset="0.45" stop-color="#00A1DF"/>
<stop offset="0.79" stop-color="#0045AB"/>
<stop offset="0.82" stop-color="#003DA6"/>
<stop offset="0.96" stop-color="#0059B6"/>
</radialGradient>
<radialGradient id="paint2_radial_22_62" cx="0" cy="0" r="1" gradientUnits="userSpaceOnUse" gradientTransform="translate(55.807 91.1892) rotate(-88.2324) scale(69.0845 70.3014)">
<stop offset="0.1" stop-color="white"/>
<stop offset="0.35" stop-color="#FDFDFD"/>
<stop offset="0.45" stop-color="#F6F6F6"/>
<stop offset="0.51" stop-color="#EAEAEA"/>
<stop offset="0.57" stop-color="#D9D9D9"/>
<stop offset="0.62" stop-color="#C3C3C3"/>
<stop offset="0.66" stop-color="#A7A7A7"/>
<stop offset="0.7" stop-color="#868686"/>
<stop offset="0.73" stop-color="#606060"/>
<stop offset="0.77" stop-color="#353535"/>
<stop offset="0.8"/>
</radialGradient>
<radialGradient id="paint3_radial_22_62" cx="0" cy="0" r="1" gradientUnits="userSpaceOnUse" gradientTransform="translate(51.8997 80.6286) scale(80.7011 80.7011)">
<stop offset="0.32" stop-color="#44BEEE" stop-opacity="0"/>
<stop offset="0.48" stop-color="#2B99D9" stop-opacity="0.27"/>
<stop offset="0.67" stop-color="#1476C6" stop-opacity="0.58"/>
<stop offset="0.82" stop-color="#0561BA" stop-opacity="0.84"/>
<stop offset="0.92" stop-color="#0059B6"/>
</radialGradient>
</defs>
</svg>
