<svg xmlns="http://www.w3.org/2000/svg" width="173" height="196" fill="none"><path fill="#1434CB" d="M110.47 70c-11.715 0-22.185 6.134-22.185 17.466 0 12.996 18.569 13.894 18.569 20.422 0 2.749-3.119 5.21-8.447 5.21-7.56 0-13.21-3.438-13.21-3.438l-2.418 11.435S89.29 124 97.93 124c12.809 0 22.888-6.435 22.888-17.961 0-13.733-18.645-14.604-18.645-20.663 0-2.154 2.56-4.514 7.872-4.514 5.993 0 10.883 2.501 10.883 2.501l2.366-11.045S117.974 70 110.47 70Zm-107.186.834L3 72.5s4.929.91 9.368 2.728c5.716 2.085 6.123 3.298 7.086 7.066l10.49 40.845h14.061l21.663-52.306h-14.03l-13.92 35.563-5.68-30.145c-.52-3.45-3.159-5.418-6.389-5.418H3.284Zm68.025 0L60.304 123.14h13.378L84.65 70.834H71.31Zm74.615 0c-3.226 0-4.935 1.744-6.189 4.793l-19.6 47.513h14.029l2.715-7.919h17.092l1.65 7.919H168l-10.799-52.306h-11.277Zm1.825 14.131 4.158 19.628h-11.141l6.983-19.628Z"/></svg>