<svg width="124" height="196" viewBox="0 0 124 196" fill="none" xmlns="http://www.w3.org/2000/svg">
<path fill-rule="evenodd" clip-rule="evenodd" d="M99.3845 68.9434C95.618 69.526 93.6098 71.6434 93.7735 74.8591C93.9378 78.0825 95.476 79.3616 100.526 80.4735C104.515 81.3516 105.284 81.8809 105.274 83.7426C105.264 85.5041 103.983 86.3452 101.308 86.3455C98.1975 86.3461 96.8316 85.4732 95.9894 82.9475L95.6412 81.9043L94.6929 81.8682L93.7443 81.8322V84.4776V87.123L94.8293 87.5758C101.745 90.4615 108.955 88.3688 109.216 83.3996C109.399 79.9189 107.717 78.106 103.352 77.078C98.3206 75.8933 97.6373 75.4791 97.7362 73.6763C97.8249 72.0628 98.8581 71.334 101.17 71.2538C104.082 71.153 105.306 71.9139 106.087 74.3092L106.351 75.1188H107.271H108.19L108.224 72.7577L108.258 70.397L107.155 69.9578C104.508 68.9036 101.868 68.559 99.3845 68.9434ZM12.2351 69.3409C12.1895 69.386 12.1523 69.9112 12.1523 70.508V71.5931L13.2346 71.6286L14.3171 71.6644L15.3404 75.1188C15.9033 77.0188 16.9865 80.7523 17.7472 83.4157L19.1304 88.2581H21.027C22.7255 88.2581 22.9304 88.2355 22.9893 88.0422C23.0256 87.9234 23.618 85.8554 24.3056 83.4465C26.4303 76.0052 26.8219 74.687 26.9068 74.687C26.9517 74.687 27.3067 75.839 27.6954 77.247C28.0842 78.655 28.941 81.7085 29.5998 84.0325L30.797 88.2581H32.6722H34.5471L35.5518 84.7728C36.1045 82.8559 37.1852 79.1068 37.9533 76.442L39.3499 71.5965L41.2201 71.6304L43.0903 71.6644V78.82V85.9757L41.9433 86.0111L40.7963 86.0466V87.1523V88.2581H48.9803H57.1643V85.0451V81.8322L56.2151 81.8682L55.2659 81.9043L54.9782 82.9839C54.242 85.7474 53.8669 85.9713 49.9723 85.9738L47.1823 85.9757V83.0147V80.0537L49.9302 80.0204L52.6777 79.9874L52.8132 79.6013C52.9828 79.1167 52.9849 78.4622 52.8185 77.8663L52.6901 77.4058L49.9361 77.3728L47.1823 77.3395V74.5019V71.6644L49.6003 71.6289C53.4558 71.5718 54.0461 71.9111 54.7622 74.5945L54.9841 75.4272H55.9504H56.9164V72.3429V69.2586H45.3843H33.8523V70.4306V71.6027H35.1543C35.8704 71.6027 36.4563 71.6468 36.4563 71.7004C36.4563 71.8599 33.3833 82.9672 33.3226 83.0277C33.3021 83.048 32.9022 81.7208 32.4332 80.0787C31.5115 76.8494 29.7086 70.4732 29.5037 69.7181L29.3772 69.2524L27.4415 69.2863L25.5059 69.3203L25.1537 70.554C24.9597 71.2325 24.1214 74.286 23.291 77.3395C21.7056 83.1664 21.7441 83.0378 21.6247 82.9188C21.5639 82.8583 18.4763 71.8047 18.4763 71.6474C18.4763 71.6227 19.0343 71.6027 19.7163 71.6027H20.9563V70.4306V69.2586H16.6371C14.2613 69.2586 12.2804 69.2956 12.2351 69.3409ZM59.2723 70.4306V71.6027H60.3893H61.5062L61.4743 78.7892L61.4423 85.9757L60.3573 86.0114L59.2723 86.0469V87.1526V88.2581H66.9625H74.6527L74.6195 85.0812L74.5864 81.9043L73.6418 81.8686L72.6972 81.8328L72.4281 82.9003C71.7375 85.6407 71.3106 85.9356 67.9214 86.0136L65.5964 86.067V78.8348V71.6027H66.8364H68.0764V70.4306V69.2586H63.6743H59.2723V70.4306ZM76.3843 70.426V71.5934L77.5314 71.6289L78.6784 71.6644V78.82V85.9757L77.5314 86.0111L76.3843 86.0466V87.1523V88.2581H84.0724H91.7603V85.0504V81.8427H90.835H89.91L89.7794 82.367C88.9731 85.6114 88.5763 85.938 85.3474 86.017C84.2413 86.0441 83.1947 86.0309 83.0215 85.9874L82.7065 85.9087L82.7384 78.7867L82.7704 71.6644L84.0414 71.6292L85.3124 71.594V70.4263V69.2586H80.8483H76.3843V70.426ZM77.4384 97.6394C72.2818 98.4391 69.2906 102.074 69.2692 107.566C69.2358 116.2 77.0012 120.115 86.0142 116.008L86.8004 115.65V111.392V107.134H83.2242H79.648L79.5042 107.448C79.329 107.831 79.3157 108.975 79.4813 109.409L79.6022 109.725H81.2172H82.8324V112.181V114.637L82.2526 114.833C76.4981 116.784 72.3866 111.968 73.8368 104.975C75.0616 99.0708 82.2372 97.9361 84.2153 103.334L84.4775 104.05H85.4531H86.4283V101.605V99.1603L85.7774 98.8928C83.0472 97.7717 79.7652 97.2782 77.4384 97.6394ZM98.1464 97.6394C92.0694 98.5816 88.5326 104.098 90.0234 110.308C92.2976 119.781 106.597 120.158 109.471 110.82C111.773 103.341 105.848 96.4448 98.1464 97.6394ZM15.1547 99.2691L15.1903 100.41L16.3373 100.446L17.4843 100.481V107.632V114.783H16.3063H15.1283V115.955V117.127H19.7163H24.3043V115.955V114.783H22.9403H21.5763V112.01V109.236L24.3973 109.203L27.2183 109.17L27.3737 108.553C27.4899 108.091 27.4955 107.774 27.3963 107.291L27.2636 106.645L24.451 106.612L21.6383 106.579L21.6052 103.526L21.572 100.472L24.4572 100.472C28.2063 100.472 28.5876 100.66 29.247 102.825C29.7321 104.417 29.6298 104.313 30.659 104.271L31.5583 104.235L31.5915 101.181L31.6247 98.1279H23.3719H15.119L15.1547 99.2691ZM34.2987 106.182C30.4718 115.771 30.9858 114.783 29.8196 114.783H28.8923V115.955V117.127H32.4883H36.0843V115.955V114.783H35.0378C33.7373 114.783 33.7748 114.904 34.477 112.994L35.0666 111.391L38.6508 111.358L42.2351 111.325L42.8206 112.962C43.1424 113.862 43.4047 114.64 43.4031 114.691C43.4016 114.742 42.926 114.783 42.3463 114.783H41.2923V115.955V117.127H49.8483H58.4043V115.955V114.783H57.1023H55.8003V111.884V108.985H57.2037C60.3143 108.985 61.1389 109.756 61.571 113.068C62.0097 116.429 62.9232 117.253 66.208 117.249C68.015 117.247 68.0822 117.22 68.1672 116.472C68.2958 115.336 68.1504 115.03 67.4818 115.028C66.2588 115.025 65.9153 114.558 65.6528 112.543C65.2612 109.536 64.6242 108.69 62.2484 108.022L61.8143 107.9L62.2214 107.887C66.2607 107.762 68.298 102.592 65.4088 99.7984C63.8408 98.2821 62.9186 98.1279 55.4175 98.1279H49.4764V99.3V100.472H50.5923H51.7083V107.631V114.79L49.8288 114.756L47.9493 114.722L47.0295 112.501C46.5236 111.28 45.3862 108.504 44.5021 106.332C43.6177 104.161 42.4982 101.427 42.014 100.256L41.1339 98.1279L39.3223 98.1316L37.5103 98.135L34.2987 106.182ZM101.959 100.338C105.968 101.887 106.861 110.69 103.338 113.921C101.682 115.441 98.7347 115.621 96.7548 114.324C93.0651 111.908 93.2719 102.842 97.0669 100.629C98.3038 99.9079 100.508 99.7765 101.959 100.338ZM61.1971 100.849C62.8783 101.71 63.2487 104.288 61.8863 105.644C61.11 106.416 60.4445 106.575 57.9703 106.577L55.8623 106.579L55.8292 103.516L55.796 100.453L58.1892 100.493C60.4717 100.532 60.6106 100.548 61.1971 100.849ZM40.0523 105.506C40.7495 107.359 41.2942 108.901 41.2626 108.932C41.2307 108.964 40.0341 108.975 38.6037 108.956L36.0028 108.923L37.3092 105.439C38.028 103.522 38.6536 101.996 38.7001 102.046C38.7463 102.096 39.3548 103.654 40.0523 105.506Z" fill="#FBFAFA"/>
<path fill-rule="evenodd" clip-rule="evenodd" d="M1.86035 158.396V163.146H62.0003H122.14V158.396V153.646H62.0003H1.86035V158.396Z" fill="#FCCC44"/>
<path fill-rule="evenodd" clip-rule="evenodd" d="M1.86035 93.6867V153.523H62.0003H122.14V93.6867V33.8506H62.0003H1.86035V93.6867ZM104.47 68.999C105.659 69.2942 106.634 69.6245 107.635 70.0718L108.376 70.4027V72.7918V75.1807H107.26C106.389 75.1807 106.144 75.143 106.144 75.0085C106.144 72.8313 104.336 71.4193 101.548 71.4184C98.9849 71.4175 97.8363 72.15 97.8363 73.7853C97.8363 75.3842 98.5115 75.821 102.3 76.671C105.026 77.2826 105.823 77.5451 106.726 78.129C110.39 80.4977 110.231 85.9613 106.443 87.8622C103.446 89.3658 97.8732 89.1891 94.3643 87.4791L93.5583 87.0862L93.5249 84.4059L93.4914 81.7253L93.7769 81.6541C93.9338 81.6149 94.4229 81.5998 94.8641 81.6204L95.6663 81.6578L95.9301 82.4757C96.835 85.2818 98.1082 86.1985 101.122 86.2142C103.803 86.2281 104.976 85.602 105.123 84.0796C105.317 82.0711 104.647 81.5606 100.576 80.6106C96.3533 79.6258 94.9468 78.8202 94.0509 76.8736C92.3528 73.1829 94.8867 69.4833 99.6343 68.7214C100.494 68.5836 103.49 68.7557 104.47 68.999ZM21.0543 69.2402C21.1709 69.3136 21.2044 69.6566 21.1783 70.5026L21.1423 71.6645L19.8713 71.6997C19.1723 71.7191 18.6004 71.7614 18.6004 71.7934C18.6004 71.8619 19.4116 74.7411 20.3717 78.0799C20.7424 79.3692 21.1737 80.9104 21.3302 81.5051C21.4868 82.0994 21.6343 82.5664 21.6585 82.5423C21.7239 82.4776 24.0619 74.2248 24.7405 71.6645C25.0642 70.4431 25.3844 69.3744 25.452 69.2896C25.6705 69.0151 29.3477 69.0761 29.4987 69.3568C29.6038 69.5524 31.7673 77.2055 32.8786 81.3123C33.1025 82.1405 33.3002 82.8033 33.3179 82.786C33.3836 82.7206 36.2083 72.0972 36.2083 71.9156C36.2083 71.758 35.9997 71.7262 34.964 71.7262H33.7197L33.755 70.4616L33.7903 69.197L45.1363 69.1631C51.3766 69.1446 56.6088 69.1597 56.7635 69.1967L57.0447 69.2646L57.0115 72.3767L56.9783 75.4891H55.9364H54.8945L54.5064 74.2902C53.7339 71.9023 53.4214 71.7404 49.5693 71.7314L47.2443 71.7262V74.5021V77.278H49.9754H52.7065L52.8274 77.5945C52.9837 78.0031 52.9837 79.3905 52.8274 79.7991L52.7065 80.1156H49.9754H47.2443V82.9532V85.7908H50.0393C53.8278 85.7908 54.0665 85.6594 54.7504 83.1999C54.9296 82.5553 55.0988 81.9563 55.1264 81.8687C55.1633 81.7515 55.4473 81.7188 56.2015 81.7453L57.2263 81.7811V85.0505V88.3199L48.945 88.3517L40.6637 88.3835L40.699 87.118L40.7343 85.8525L41.8813 85.817L43.0283 85.7815V78.7539V71.7262H41.2471H39.4655L39.0836 72.9291C38.8734 73.5907 37.8334 77.2132 36.7729 80.9792C35.712 84.7452 34.7895 87.9513 34.7228 88.104C34.6047 88.3748 34.5545 88.3816 32.674 88.3816H30.7461L30.6314 88.0815C30.5685 87.9165 30.0641 86.126 29.5108 84.1027C28.6397 80.9169 27.1542 75.7408 26.9505 75.1807C26.9136 75.0789 26.5801 76.0504 26.2093 77.3397C25.8385 78.6289 25.1221 81.0717 24.6171 82.7681C24.1121 84.4645 23.5396 86.4076 23.3446 87.0862L22.9906 88.3199H21.0304H19.0706L18.2194 85.4823C17.751 83.9217 16.6756 80.202 15.8296 77.2163L14.2913 71.7879L13.1599 71.7524L12.0284 71.717V70.498C12.0284 69.6384 12.0739 69.2609 12.1834 69.2171C12.4472 69.111 20.8847 69.1329 21.0543 69.2402ZM68.1743 69.2402C68.2909 69.3136 68.3243 69.6566 68.2983 70.5026L68.2623 71.6645L66.9293 71.6997L65.5963 71.7345V78.7628V85.7908L67.9213 85.788C71.2755 85.7843 71.6395 85.5548 72.2979 83.0321L72.6244 81.7811L73.6982 81.7453L74.7723 81.7099V85.0465V88.3835L66.9293 88.3517L59.0863 88.3199L59.0504 87.2281C59.0036 85.8093 59.0209 85.7908 60.4045 85.7908H61.5065L61.4743 78.7893L61.4423 71.7879L60.2643 71.7262L59.0863 71.6645L59.0504 70.5727C59.0271 69.8741 59.0662 69.4188 59.1586 69.3081C59.3216 69.1125 67.8699 69.0481 68.1743 69.2402ZM85.2401 69.2103C85.4007 69.2714 85.4363 69.5061 85.4363 70.5014V71.7176L84.1653 71.7527L82.8943 71.7879L82.8624 78.7893L82.8302 85.7908H85.1174C88.4564 85.7908 88.8476 85.5246 89.5392 82.7808L89.8067 81.7194H90.843C92.1246 81.7194 92.026 81.4098 91.9814 85.2973L91.9463 88.3199H84.1343H76.3223V87.0862V85.8525L77.4693 85.817L78.6163 85.7815V78.7539V71.7262H77.4383H76.2603V70.5131C76.2603 69.8457 76.2975 69.2627 76.3431 69.2177C76.4463 69.1147 84.972 69.1079 85.2401 69.2103ZM82.2743 97.6944C83.4669 97.9498 84.9915 98.4458 85.8083 98.8443L86.4903 99.1768V101.644V104.112L85.4686 104.147L84.4468 104.183L83.9607 103.136C82.9343 100.926 81.7672 100.162 79.4223 100.167C75.5728 100.174 73.8439 102.467 73.8439 107.566C73.8439 111.768 74.9562 113.887 77.6346 114.788C78.6238 115.121 81.1208 115.086 82.1193 114.726L82.7083 114.514V112.181V109.849H81.0932H79.4781L79.3572 109.532C79.1474 108.982 79.2072 107.567 79.4533 107.268C79.6672 107.009 79.7237 107.005 83.2663 107.039L86.8623 107.073L86.8949 111.4L86.9274 115.728L85.9029 116.168C76.6956 120.125 69.1217 116.24 69.1328 107.566C69.1424 100.371 74.8275 96.0998 82.2743 97.6944ZM102.568 97.7518C112.352 100.332 112.568 114.865 102.858 117.314C96.8195 118.837 91.3319 115.873 89.9093 110.319C87.8934 102.448 94.7103 95.6801 102.568 97.7518ZM31.6823 101.212V104.358L30.6575 104.394C29.9026 104.421 29.6196 104.388 29.5843 104.271C29.5576 104.183 29.3924 103.636 29.2172 103.055C28.5219 100.749 28.2252 100.596 24.464 100.596H21.7003V103.495V106.394H24.4132C27.6452 106.394 27.4663 106.307 27.4663 107.875C27.4663 109.442 27.6452 109.355 24.4132 109.355H21.7003V112.008V114.66H23.0023H24.3044V115.894V117.128H19.7163H15.1284V115.894V114.66H16.2444H17.3604V107.628V100.596H16.2444H15.1284V99.2992V98.0029L23.4053 98.0346L31.6823 98.0664V101.212ZM41.9533 99.8553C42.351 100.839 43.038 102.505 43.48 103.557C43.9218 104.608 44.9246 107.051 45.708 108.985C46.4917 110.919 47.3327 112.987 47.5776 113.581L48.0224 114.66H49.8034H51.5843V107.628V100.596H50.4683H49.3523V99.2903V97.9853L55.7073 98.0374C62.6259 98.0945 62.6842 98.0997 64.2134 98.8443C66.0018 99.7144 66.7743 101.005 66.7743 103.122C66.7743 105.616 65.5657 107.156 63.1024 107.798C62.735 107.894 62.518 108 62.6203 108.033C64.7931 108.742 65.3431 109.461 65.6652 112.016C65.9705 114.44 66.2684 114.907 67.5078 114.907C68.1969 114.907 68.3243 115.095 68.3243 116.109C68.3243 117.295 68.2924 117.313 66.1333 117.313C63.0302 117.313 61.9914 116.514 61.6181 113.842C61.0713 109.927 60.4386 109.212 57.4433 109.127L55.9243 109.083V111.867V114.651L57.1953 114.687L58.4663 114.722L58.5017 115.925L58.5373 117.128H49.8527H41.1683V115.894V114.66H42.2223C43.472 114.66 43.4338 114.791 42.7289 112.933L42.1904 111.514H38.6859H35.181L34.596 113.056L34.0111 114.598L35.1097 114.634L36.2083 114.669V115.898V117.128H32.5503H28.8923V115.899V114.671L29.8279 114.635L30.7632 114.598L31.6954 112.316C32.2081 111.061 33.5687 107.674 34.7191 104.79C35.8692 101.906 36.9049 99.3248 37.0202 99.0534C37.1356 98.782 37.2782 98.4334 37.3374 98.2792C37.4434 98.0016 37.4679 97.9986 39.3375 98.0325L41.2303 98.0664L41.9533 99.8553ZM98.3323 100.264C95.5117 101.075 94.311 103.253 94.3061 107.566C94.3033 109.889 94.3767 110.367 94.9847 111.981C96.451 115.875 102.544 116.099 104.464 112.328C105.658 109.985 105.688 105.41 104.525 102.986C103.464 100.774 100.732 99.5734 98.3323 100.264ZM55.9243 103.493V106.413L58.2493 106.373C61.4994 106.316 62.408 105.784 62.5838 103.834C62.7958 101.488 61.7024 100.688 58.1873 100.617L55.9243 100.572V103.493ZM37.3619 105.587L36.1203 108.985H38.6577C41.0233 108.985 41.1891 108.97 41.111 108.769C41.0648 108.65 40.5226 107.165 39.906 105.469C39.2894 103.772 38.7438 102.34 38.6942 102.287C38.6443 102.233 38.0448 103.718 37.3619 105.587Z" fill="#D41C2C"/>
<path fill-rule="evenodd" clip-rule="evenodd" d="M20.9817 70.4002L20.9563 71.603H19.7163C18.6142 71.603 18.4775 71.6271 18.4862 71.819C18.4918 71.9479 18.5209 71.9729 18.5584 71.8806C18.6021 71.7727 18.9713 71.7264 19.7925 71.7264C21.1686 71.7264 21.1057 71.798 21.0489 70.2978L21.0074 69.1973L20.9817 70.4002ZM33.7831 70.4615L33.7903 71.6647L35.0259 71.7005C35.8226 71.7233 36.2954 71.789 36.3571 71.8856C36.4225 71.988 36.4532 71.9673 36.4544 71.819C36.456 71.6271 36.3124 71.603 35.1586 71.603H33.8612L33.8188 70.4307L33.776 69.2583L33.7831 70.4615ZM59.2031 70.4615L59.2103 71.6647L60.3883 71.6724L61.5663 71.6802L60.4236 71.637L59.2812 71.5938L59.2385 70.4261L59.196 69.2583L59.2031 70.4615ZM68.1017 70.3958L68.0763 71.5944L66.8053 71.6345L65.5343 71.6743L66.8093 71.7005C68.3044 71.731 68.2263 71.8115 68.1689 70.2978L68.1274 69.1973L68.1017 70.3958ZM85.3374 70.4575L85.3123 71.5944L84.0413 71.6296L82.7703 71.6647L82.7687 78.7895L82.7672 85.9144L82.8006 78.8204L82.8341 71.7264H84.0772C85.5296 71.7264 85.4629 71.7949 85.4049 70.3591L85.3628 69.3206L85.3374 70.4575ZM12.683 71.694C13.0091 71.7193 13.5113 71.719 13.799 71.6931C14.0867 71.6672 13.8201 71.6465 13.2063 71.6468C12.5925 71.6472 12.3569 71.6684 12.683 71.694ZM41.1683 71.6937L43.0283 71.7329V78.8188V85.9051L41.8813 85.9483L40.7343 85.9915L41.9123 85.9837L43.0903 85.976V78.8204V71.6647L41.1993 71.6598L39.308 71.6549L41.1683 71.6937ZM47.1758 71.76C47.1426 71.8467 47.1314 73.1375 47.1513 74.6285L47.1872 77.3399L47.2157 74.5356L47.2443 71.7314L49.8173 71.6956L52.3903 71.6595L49.8132 71.6311C47.8199 71.6095 47.2229 71.6385 47.1758 71.76ZM77.5313 71.6934L78.6163 71.7357V78.8204V85.9051L77.5313 85.9474L76.4463 85.9899L77.5623 85.9828L78.6783 85.976V78.8204V71.6647L77.5623 71.6579L76.4463 71.6509L77.5313 71.6934ZM103.922 71.6404C103.951 71.661 104.142 71.7752 104.346 71.8945L104.718 72.111L104.426 71.8572C104.264 71.7175 104.074 71.603 104.002 71.603C103.93 71.603 103.894 71.6197 103.922 71.6404ZM93.6599 74.564C93.6599 75.0051 93.6826 75.1855 93.7099 74.965C93.7374 74.7444 93.7374 74.3836 93.7099 74.163C93.6826 73.9425 93.6599 74.1229 93.6599 74.564ZM35.5352 74.758C35.4894 74.9388 35.476 75.1105 35.5052 75.1395C35.5346 75.1685 35.5957 75.0445 35.6413 74.8635C35.6871 74.6828 35.7005 74.511 35.6713 74.482C35.6419 74.453 35.5808 74.577 35.5352 74.758ZM54.7016 74.6874C54.7016 74.7892 54.7497 74.9835 54.8083 75.1192C54.8755 75.2746 54.9149 75.2975 54.9149 75.1809C54.9149 75.0791 54.8668 74.8848 54.8083 74.7491C54.741 74.5936 54.7016 74.5708 54.7016 74.6874ZM31.3896 76.4146C31.3896 76.5164 31.4377 76.7107 31.4963 76.8464C31.5635 77.0019 31.6029 77.0247 31.6029 76.9081C31.6029 76.8063 31.5548 76.612 31.4963 76.4763C31.429 76.3208 31.3896 76.298 31.3896 76.4146ZM95.1083 78.3269C95.3395 78.5644 95.5568 78.7587 95.5909 78.7587C95.625 78.7587 95.4635 78.5644 95.2323 78.3269C95.001 78.0894 94.7837 77.8951 94.7496 77.8951C94.7155 77.8951 94.877 78.0894 95.1083 78.3269ZM16.2616 78.512C16.2616 78.6137 16.3097 78.808 16.3683 78.9438C16.4355 79.0992 16.4749 79.122 16.4749 79.0054C16.4749 78.9037 16.4268 78.7094 16.3683 78.5736C16.301 78.4182 16.2616 78.3954 16.2616 78.512ZM47.1761 80.1494C47.1426 80.2355 47.1305 81.5818 47.1488 83.1412L47.1823 85.976L49.6623 85.9797L52.1423 85.9837L49.6933 85.9464L47.2443 85.9091V83.0148V80.1204L50.0033 80.085L52.7623 80.0492L49.9992 80.0208C47.8574 79.9989 47.2229 80.0276 47.1761 80.1494ZM55.2612 81.8122C55.2292 81.8631 55.5191 81.889 55.9047 81.8699C57.1159 81.8097 57.2619 81.7573 56.2727 81.7382C55.7482 81.728 55.2928 81.7613 55.2612 81.8122ZM73.0363 81.7955C73.7765 81.8881 74.6204 81.8973 74.5673 81.8122C74.5354 81.7613 74.1082 81.728 73.6178 81.7382C73.1274 81.7483 72.8658 81.7739 73.0363 81.7955ZM89.8364 81.8461C89.7896 81.9214 89.7849 82.0161 89.8259 82.0568C89.8668 82.0975 89.9003 82.066 89.9003 81.9871C89.9003 81.8902 90.2044 81.843 90.8303 81.843H91.7603V85.0498V88.2566L84.0413 88.2899L76.3223 88.3229L84.0723 88.3217L91.8223 88.3201V85.0507V81.7813L90.8718 81.7456C90.2732 81.7231 89.8897 81.7604 89.8364 81.8461ZM93.6488 84.4647L93.6773 87.2098L93.7133 84.5172L93.7492 81.8245L94.7273 81.8646C95.2651 81.8865 95.6793 81.8631 95.6477 81.8122C95.6157 81.7613 95.1464 81.7197 94.6048 81.7197H93.6203L93.6488 84.4647ZM21.4665 82.4189C21.4445 82.6397 21.5896 82.9534 21.7136 82.9534C21.7743 82.9534 21.8243 82.8667 21.8243 82.7609C21.8243 82.6551 21.7728 82.6005 21.7096 82.6391C21.6466 82.678 21.5694 82.612 21.5381 82.4923C21.5068 82.3726 21.4746 82.3396 21.4665 82.4189ZM109.283 83.0151C109.283 83.4222 109.307 83.574 109.334 83.3522C109.362 83.1304 109.361 82.7973 109.333 82.612C109.305 82.4266 109.282 82.6079 109.283 83.0151ZM53.9483 85.0837C53.5952 85.5168 53.5813 85.5532 53.8668 85.2975C54.1635 85.0316 54.5156 84.5529 54.4096 84.5594C54.3901 84.5606 54.1827 84.7966 53.9483 85.0837ZM97.0923 84.9891C97.3235 85.2265 97.5408 85.4209 97.5749 85.4209C97.609 85.4209 97.4475 85.2265 97.2163 84.9891C96.985 84.7516 96.7677 84.5572 96.7336 84.5572C96.6995 84.5572 96.861 84.7516 97.0923 84.9891ZM104.463 85.4517L104.098 85.8527L104.501 85.4903C104.723 85.291 104.904 85.1106 104.904 85.0893C104.904 84.994 104.802 85.0779 104.463 85.4517ZM59.1749 87.1172L59.2103 88.3201L66.8363 88.3217L74.4623 88.3229L66.8673 88.2899L59.2723 88.2566V87.1521V86.0473L60.3573 86.0063L61.4423 85.9652L60.2909 85.9396L59.1393 85.9144L59.1749 87.1172ZM66.5573 86.0063C67.1199 86.0291 68.0406 86.0291 68.6033 86.0063C69.1659 85.9831 68.7056 85.9646 67.5803 85.9646C66.455 85.9646 65.9946 85.9831 66.5573 86.0063ZM83.9231 86.0063C84.4889 86.0291 85.3817 86.0291 85.9071 86.006C86.4326 85.9828 85.9695 85.964 84.8783 85.9643C83.7871 85.9643 83.3574 85.9834 83.9231 86.0063ZM107.69 86.8088L107.074 87.4565L107.725 86.8443C108.33 86.2755 108.433 86.1611 108.341 86.1611C108.321 86.1611 108.028 86.4526 107.69 86.8088ZM100.223 86.373C100.411 86.4011 100.718 86.4011 100.905 86.373C101.093 86.3446 100.939 86.3215 100.564 86.3215C100.189 86.3215 100.036 86.3446 100.223 86.373ZM101.587 86.373C101.775 86.4011 102.082 86.4011 102.269 86.373C102.457 86.3446 102.303 86.3215 101.928 86.3215C101.553 86.3215 101.4 86.3446 101.587 86.373ZM19.9953 88.3501C20.5238 88.3732 21.3887 88.3732 21.9173 88.3501C22.4458 88.3269 22.0134 88.3081 20.9563 88.3081C19.8992 88.3081 19.4667 88.3269 19.9953 88.3501ZM31.7808 88.3504C32.3125 88.3735 33.1495 88.3732 33.6408 88.3501C34.1322 88.3266 33.6973 88.3075 32.6743 88.3078C31.6513 88.3081 31.2492 88.3269 31.7808 88.3504ZM44.9902 88.351C47.2629 88.3698 50.9457 88.3698 53.1742 88.351C55.4028 88.3322 53.5435 88.3167 49.0423 88.3167C44.5411 88.3167 42.7176 88.3322 44.9902 88.351ZM100.163 88.8414C100.386 88.8688 100.721 88.8682 100.907 88.8402C101.094 88.8121 100.911 88.7896 100.502 88.7902C100.093 88.7908 99.9405 88.8139 100.163 88.8414ZM102.395 88.8392C102.549 88.8688 102.772 88.8676 102.891 88.8368C103.009 88.8059 102.883 88.7815 102.61 88.7831C102.337 88.7843 102.24 88.8096 102.395 88.8392ZM49.3975 99.3004C49.3978 99.9789 49.4186 100.241 49.4437 99.8824C49.4688 99.5237 49.4688 98.9685 49.4431 98.6486C49.4177 98.3285 49.3972 98.6218 49.3975 99.3004ZM92.4376 100.38L91.8223 101.028L92.4733 100.415C93.0781 99.8466 93.181 99.7322 93.0886 99.7322C93.0691 99.7322 92.7761 100.024 92.4376 100.38ZM107.074 100.349C107.341 100.62 107.586 100.843 107.62 100.843C107.655 100.843 107.465 100.62 107.198 100.349C106.932 100.078 106.686 99.8555 106.652 99.8555C106.618 99.8555 106.808 100.078 107.074 100.349ZM102.424 100.667C102.731 100.84 103.233 101.214 103.54 101.498L104.097 102.015L103.664 101.536C103.224 101.051 102.236 100.348 101.997 100.351C101.925 100.351 102.117 100.494 102.424 100.667ZM27.7143 100.74C27.8507 100.814 28.1042 100.993 28.2781 101.137C28.4517 101.28 28.4105 101.217 28.1867 100.997C27.9629 100.776 27.7093 100.597 27.6231 100.599C27.5369 100.602 27.5779 100.665 27.7143 100.74ZM82.8323 101.274C83.0635 101.512 83.2808 101.706 83.3149 101.706C83.349 101.706 83.1875 101.512 82.9563 101.274C82.725 101.037 82.5077 100.843 82.4736 100.843C82.4395 100.843 82.601 101.037 82.8323 101.274ZM62.654 103.557C62.654 103.862 62.6782 103.987 62.7077 103.834C62.7374 103.682 62.7374 103.432 62.7077 103.279C62.6782 103.126 62.654 103.251 62.654 103.557ZM74.1665 103.692C74.0906 103.909 74.0323 104.148 74.0369 104.223C74.0419 104.298 74.1256 104.142 74.2236 103.876C74.3212 103.61 74.3795 103.372 74.3531 103.345C74.3265 103.319 74.2428 103.475 74.1665 103.692ZM69.2211 106.024C69.2211 106.262 69.2465 106.359 69.2778 106.24C69.3088 106.121 69.3088 105.927 69.2778 105.808C69.2465 105.69 69.2211 105.787 69.2211 106.024ZM73.6876 106.086C73.6888 106.357 73.7142 106.454 73.744 106.3C73.7737 106.147 73.7725 105.925 73.7415 105.807C73.7105 105.689 73.686 105.814 73.6876 106.086ZM94.1631 107.628C94.1631 108.408 94.1832 108.728 94.208 108.337C94.2325 107.947 94.2325 107.309 94.208 106.919C94.1832 106.528 94.1631 106.848 94.1631 107.628ZM21.6838 106.551C21.7365 106.603 23.0311 106.631 24.5609 106.612L27.3423 106.579L24.4651 106.517C22.8829 106.484 21.6311 106.499 21.6838 106.551ZM55.9088 106.552C55.9621 106.605 56.8381 106.632 57.8559 106.613L59.7063 106.578L57.7591 106.517C56.6881 106.483 55.8554 106.499 55.9088 106.552ZM105.444 107.628C105.444 108.205 105.465 108.441 105.491 108.152C105.517 107.864 105.517 107.392 105.491 107.104C105.465 106.815 105.444 107.051 105.444 107.628ZM69.1089 107.566C69.1095 108.041 69.1318 108.221 69.1588 107.965C69.1857 107.709 69.1851 107.32 69.1578 107.101C69.1303 106.882 69.1082 107.091 69.1089 107.566ZM73.5636 107.566C73.5648 107.838 73.5902 107.934 73.62 107.781C73.6497 107.627 73.6485 107.405 73.6175 107.287C73.5865 107.169 73.562 107.295 73.5636 107.566ZM86.8561 111.391C86.8561 113.698 86.8728 114.624 86.893 113.449C86.9134 112.275 86.9134 110.387 86.893 109.255C86.8725 108.122 86.8557 109.084 86.8561 111.391ZM79.2716 108.43C79.2725 108.769 79.2967 108.894 79.3252 108.706C79.3537 108.518 79.3531 108.241 79.3237 108.089C79.2942 107.937 79.2707 108.091 79.2716 108.43ZM64.4747 109.17C64.7738 109.51 65.0445 109.815 65.0761 109.849C65.108 109.883 65.0751 109.799 65.0032 109.664C64.9313 109.528 64.6607 109.223 64.4018 108.985C63.9542 108.575 63.9579 108.584 64.4747 109.17ZM73.6876 109.047C73.6888 109.318 73.7142 109.415 73.744 109.261C73.7737 109.108 73.7725 108.886 73.7415 108.768C73.7105 108.65 73.686 108.775 73.6876 109.047ZM69.2211 109.232C69.2211 109.469 69.2465 109.567 69.2778 109.448C69.3088 109.329 69.3088 109.135 69.2778 109.016C69.2465 108.897 69.2211 108.994 69.2211 109.232ZM60.0163 109.517C60.0163 109.538 60.1976 109.719 60.4193 109.918L60.8223 110.281L60.458 109.88C60.1186 109.506 60.0163 109.422 60.0163 109.517ZM79.5831 109.749C79.6985 109.862 82.8329 109.935 82.8326 109.825C82.8323 109.778 82.0814 109.722 81.1641 109.701C80.2465 109.681 79.5351 109.702 79.5831 109.749ZM74.0431 110.959C74.0413 111.061 74.116 111.311 74.2099 111.514C74.4291 111.991 74.4322 111.769 74.2143 111.206C74.1222 110.968 74.0453 110.857 74.0431 110.959ZM75.5783 113.673C75.914 114.013 76.2169 114.29 76.251 114.29C76.2851 114.29 76.038 114.013 75.7023 113.673C75.3665 113.334 75.0637 113.056 75.0296 113.056C74.9955 113.056 75.2425 113.334 75.5783 113.673ZM92.5043 114.845C92.9435 115.286 93.331 115.647 93.3651 115.647C93.3992 115.647 93.0675 115.286 92.6283 114.845C92.189 114.404 91.8015 114.043 91.7674 114.043C91.7333 114.043 92.065 114.404 92.5043 114.845ZM107.008 114.876L106.33 115.586L107.043 114.911C107.706 114.285 107.813 114.167 107.721 114.167C107.702 114.167 107.381 114.486 107.008 114.876ZM76.3843 114.354C76.3843 114.46 77.6568 115.029 77.8723 115.021C77.9746 115.017 77.8577 114.939 77.6125 114.85C77.3676 114.76 76.9909 114.596 76.7755 114.485C76.5603 114.374 76.3843 114.316 76.3843 114.354ZM33.9332 114.691C33.9648 114.742 34.4599 114.784 35.0331 114.784H36.0753L36.1177 115.956L36.1605 117.128L36.1534 115.925L36.1463 114.722L35.0107 114.66C34.3861 114.626 33.9012 114.64 33.9332 114.691ZM47.9728 114.695C48.0261 114.747 48.9021 114.775 49.9199 114.756L51.7703 114.721L49.8231 114.66C48.7521 114.626 47.9194 114.642 47.9728 114.695ZM15.7213 114.751C16.0818 114.776 16.6398 114.776 16.9613 114.751C17.2831 114.725 16.9883 114.705 16.3063 114.705C15.6243 114.706 15.3611 114.726 15.7213 114.751ZM22.2273 114.752C22.6194 114.776 23.2611 114.776 23.6533 114.752C24.0454 114.727 23.7246 114.707 22.9403 114.707C22.156 114.707 21.8351 114.727 22.2273 114.752ZM29.3607 114.751C29.6521 114.777 30.0985 114.777 30.3527 114.75C30.6066 114.724 30.3679 114.702 29.8223 114.703C29.2767 114.703 29.069 114.725 29.3607 114.751ZM41.2213 114.824C41.1865 114.914 41.1766 115.484 41.1996 116.089L41.2411 117.189L41.2668 115.992L41.2923 114.793L42.3773 114.752L43.4623 114.711L42.3732 114.686C41.5635 114.667 41.2684 114.702 41.2213 114.824ZM56.4559 114.752C56.8505 114.776 57.4643 114.776 57.8199 114.751C58.1755 114.726 57.8525 114.706 57.1023 114.707C56.3521 114.707 56.0613 114.727 56.4559 114.752ZM81.5923 114.907C81.343 114.986 81.3309 115.007 81.5303 115.009C81.6667 115.011 81.8899 114.965 82.0263 114.907C82.3421 114.772 82.0163 114.772 81.5923 114.907ZM67.1153 114.996C67.3028 115.024 67.6097 115.024 67.7973 114.996C67.9848 114.967 67.8314 114.944 67.4563 114.944C67.0812 114.944 66.9277 114.967 67.1153 114.996ZM98.6113 115.116C98.7306 115.146 98.9259 115.146 99.0453 115.116C99.1646 115.084 99.067 115.059 98.8283 115.059C98.5896 115.059 98.4919 115.084 98.6113 115.116ZM100.471 115.116C100.591 115.146 100.786 115.146 100.905 115.116C101.025 115.084 100.927 115.059 100.688 115.059C100.45 115.059 100.352 115.084 100.471 115.116ZM79.2673 115.242C79.4548 115.27 79.7617 115.27 79.9493 115.242C80.1368 115.214 79.9834 115.191 79.6083 115.191C79.2332 115.191 79.0797 115.214 79.2673 115.242ZM65.507 117.342C65.8331 117.367 66.3353 117.367 66.623 117.341C66.9107 117.315 66.6441 117.295 66.0303 117.295C65.4165 117.295 65.1809 117.317 65.507 117.342Z" fill="#EC8C94"/>
<path fill-rule="evenodd" clip-rule="evenodd" d="M100.595 68.7332C100.987 68.7576 101.629 68.7576 102.021 68.7332C102.414 68.7085 102.093 68.6885 101.308 68.6885C100.524 68.6885 100.203 68.7085 100.595 68.7332ZM14.4153 69.2276C15.6259 69.248 17.6068 69.248 18.8173 69.2276C20.0279 69.2076 19.0374 69.1909 16.6163 69.1909C14.1952 69.1909 13.2048 69.2076 14.4153 69.2276ZM26.1643 69.2187C27.825 69.3081 29.4848 69.3127 29.4314 69.2279C29.3998 69.177 28.498 69.1459 27.4279 69.1588C26.3578 69.1715 25.7892 69.1986 26.1643 69.2187ZM39.516 69.2279C42.665 69.2461 47.8544 69.2461 51.048 69.2279C54.2414 69.2097 51.6649 69.1946 45.3223 69.1946C38.9797 69.1946 36.3668 69.2094 39.516 69.2279ZM61.4814 69.2279C62.7304 69.248 64.7392 69.248 65.9454 69.2276C67.1516 69.2076 66.1295 69.1909 63.6743 69.1912C61.2191 69.1912 60.2324 69.2076 61.4814 69.2279ZM76.3137 69.2989C76.2789 69.3889 76.269 69.9857 76.2917 70.6251L76.3329 71.7879L76.3586 70.5249L76.3843 69.2619L80.8174 69.2279L85.2503 69.194L80.8133 69.1647C77.2235 69.141 76.3645 69.1665 76.3137 69.2989ZM12.0742 70.4925C12.0742 71.205 12.0947 71.4965 12.1198 71.1402C12.1449 70.784 12.1449 70.201 12.1198 69.8448C12.0947 69.4886 12.0742 69.78 12.0742 70.4925ZM21.0794 70.4561C21.0459 71.1485 21.0624 71.671 21.1163 71.6171C21.1702 71.5631 21.1975 70.9965 21.1774 70.358L21.1408 69.1971L21.0794 70.4561ZM56.9452 72.3212L56.9163 75.4456L55.8738 75.4055C55.3003 75.3836 54.8573 75.4074 54.8889 75.4583C54.9937 75.6251 56.9182 75.5665 56.9845 75.3941C57.0177 75.3081 57.0289 73.8785 57.0093 72.2173L56.9737 69.1971L56.9452 72.3212ZM68.1994 70.4561C68.1659 71.1485 68.1824 71.671 68.2363 71.6171C68.2902 71.5631 68.3175 70.9965 68.2974 70.358L68.2608 69.1971L68.1994 70.4561ZM59.0442 70.4543C59.0333 71.0779 59.0662 71.6143 59.1173 71.6457C59.1685 71.6775 59.1948 71.3339 59.1762 70.8821C59.1164 69.4509 59.0646 69.2831 59.0442 70.4543ZM108.304 72.7749C108.304 74.132 108.322 74.7042 108.345 74.046C108.367 73.3881 108.367 72.2777 108.345 71.5785C108.323 70.8796 108.304 71.4178 108.304 72.7749ZM100.971 71.3237C101.297 71.349 101.799 71.3487 102.087 71.3228C102.375 71.2969 102.108 71.2762 101.494 71.2765C100.881 71.2769 100.645 71.2981 100.971 71.3237ZM104.656 72.1349C104.656 72.1562 104.838 72.3366 105.059 72.5359L105.462 72.8983L105.098 72.4973C104.759 72.1235 104.656 72.0396 104.656 72.1349ZM48.1123 77.3635C50.3905 77.4517 52.7961 77.4551 52.7434 77.3706C52.7118 77.3197 51.4473 77.2891 49.9339 77.3027C48.4205 77.3166 47.6008 77.3437 48.1123 77.3635ZM105.535 77.5714C105.661 77.6855 106.64 78.1401 106.64 78.0849C106.64 78.0149 105.704 77.5248 105.571 77.5248C105.522 77.5248 105.506 77.5458 105.535 77.5714ZM93.9924 81.6723C94.7205 81.7642 95.7008 81.7741 95.6474 81.6886C95.6158 81.6377 95.1604 81.6044 94.6359 81.6146C94.1114 81.6248 93.8219 81.6507 93.9924 81.6723ZM74.5863 85.0506C74.5863 86.8827 74.6282 88.3816 74.6793 88.3816C74.7305 88.3816 74.7723 86.8827 74.7723 85.0506C74.7723 83.2185 74.7305 81.7195 74.6793 81.7195C74.6282 81.7195 74.5863 83.2185 74.5863 85.0506ZM93.549 84.372C93.5494 85.8648 93.5673 86.4586 93.589 85.6915C93.6107 84.9244 93.6107 83.703 93.5887 82.9773C93.567 82.2515 93.549 82.8792 93.549 84.372ZM57.2186 85.0506C57.2186 86.8487 57.236 87.5843 57.257 86.6853C57.2781 85.7862 57.2781 84.3149 57.257 83.4159C57.236 82.5168 57.2186 83.2524 57.2186 85.0506ZM91.884 85.1372C91.8502 86.915 91.8651 88.327 91.9175 88.2749C91.9699 88.2225 91.9978 86.7679 91.9795 85.0422L91.946 81.9045L91.884 85.1372ZM96.2243 83.4939C96.2243 83.6262 96.5933 84.3103 96.6649 84.3103C96.699 84.3103 96.6345 84.1299 96.5216 83.9094C96.2916 83.459 96.2243 83.3653 96.2243 83.4939ZM40.7551 85.8732C40.6404 85.987 40.6503 88.3816 40.7653 88.3819C40.8165 88.3819 40.8407 87.8289 40.8193 87.1528L40.7802 85.9237L41.9353 85.8827L43.0903 85.842L41.9641 85.8164C41.3444 85.8022 40.8004 85.8278 40.7551 85.8732ZM48.5153 85.8827C49.2485 85.9046 50.4482 85.9046 51.1813 85.8827C51.9145 85.8611 51.3146 85.8432 49.8483 85.8432C48.382 85.8432 47.7822 85.8611 48.5153 85.8827ZM59.7993 85.8815C60.1233 85.9068 60.6534 85.9068 60.9773 85.8815C61.3013 85.8562 61.0362 85.8352 60.3883 85.8352C59.7404 85.8352 59.4754 85.8562 59.7993 85.8815ZM66.6131 85.8827C67.2065 85.9052 68.2109 85.9052 68.8451 85.8827C69.4794 85.8605 68.9939 85.842 67.7663 85.8417C66.5387 85.8417 66.0198 85.8599 66.6131 85.8827ZM76.3134 85.9549C76.2786 86.0449 76.2687 86.614 76.2917 87.2195L76.3332 88.32L76.3589 87.1217L76.3843 85.9234L77.5313 85.8827L78.6783 85.842L77.5273 85.8164C76.6658 85.7973 76.3608 85.8321 76.3134 85.9549ZM83.8492 85.8827C84.4425 85.9052 85.4469 85.9052 86.0811 85.8827C86.7154 85.8605 86.23 85.842 85.0024 85.8417C83.7748 85.8417 83.2558 85.8599 83.8492 85.8827ZM59.0442 87.1097C59.0333 87.7333 59.0662 88.2697 59.1173 88.3011C59.1685 88.3329 59.1948 87.9893 59.1762 87.5375C59.1164 86.1063 59.0646 85.9385 59.0442 87.1097ZM107.75 86.8703L107.322 87.333L107.787 86.9079C108.22 86.5119 108.309 86.4077 108.215 86.4077C108.194 86.4077 107.985 86.6159 107.75 86.8703ZM78.7134 97.4789C79.0739 97.5039 79.6319 97.5039 79.9534 97.4783C80.2752 97.453 79.9803 97.4326 79.2983 97.4329C78.6163 97.4332 78.3532 97.4539 78.7134 97.4789ZM99.2351 97.4789C99.5612 97.5042 100.063 97.5039 100.351 97.478C100.639 97.452 100.372 97.4314 99.7583 97.4317C99.1445 97.432 98.9089 97.4533 99.2351 97.4789ZM23.3433 98.097L31.6203 98.13V101.222V104.315L30.5719 104.275C29.9953 104.253 29.5681 104.279 29.6227 104.333C29.6773 104.387 30.163 104.415 30.7021 104.395L31.6823 104.358V101.212V98.0664L23.3743 98.0652L15.0663 98.0637L23.3433 98.097ZM37.4071 98.0871C37.3615 98.1321 37.3253 98.2293 37.3262 98.303C37.3274 98.3847 37.3656 98.378 37.4245 98.2857C37.4914 98.1809 38.0857 98.1235 39.3756 98.0973L41.2303 98.0594L39.3601 98.0319C38.3312 98.0171 37.4524 98.0418 37.4071 98.0871ZM52.2353 98.0973C53.8551 98.1167 56.5056 98.1167 58.1253 98.0973C59.7451 98.0776 58.4198 98.0618 55.1803 98.0618C51.9408 98.0618 50.6156 98.0776 52.2353 98.0973ZM86.4566 101.622L86.4283 104.068L85.3858 104.028C84.8123 104.006 84.3693 104.03 84.4009 104.081C84.5063 104.249 86.4302 104.189 86.4972 104.016C86.5306 103.929 86.5415 102.804 86.5213 101.517L86.4845 99.1768L86.4566 101.622ZM65.4723 99.7937C65.7036 100.031 65.9209 100.225 65.955 100.225C65.9891 100.225 65.8276 100.031 65.5963 99.7937C65.3651 99.5562 65.1478 99.3619 65.1137 99.3619C65.0796 99.3619 65.2411 99.5562 65.4723 99.7937ZM92.3735 100.318L91.9463 100.781L92.4113 100.356C92.6671 100.122 92.8763 99.9133 92.8763 99.893C92.8763 99.7986 92.7716 99.8874 92.3735 100.318ZM78.9608 100.069C79.2522 100.095 79.6986 100.095 79.9528 100.068C80.2066 100.042 79.968 100.021 79.4224 100.021C78.8768 100.022 78.669 100.043 78.9608 100.069ZM99.4174 100.068C99.639 100.095 100.002 100.095 100.223 100.068C100.445 100.041 100.264 100.018 99.8203 100.018C99.377 100.018 99.1957 100.041 99.4174 100.068ZM16.2744 100.562L17.3582 100.605L17.392 107.633L17.4254 114.66L17.4239 107.597L17.4223 100.534L16.3063 100.527L15.1903 100.52L16.2744 100.562ZM21.6321 100.629C21.5987 100.715 21.5866 102.062 21.6049 103.621L21.6383 106.456L24.3973 106.46L27.1563 106.463L24.4283 106.426L21.7003 106.39V103.495V100.601L24.3353 100.565L26.9703 100.529L24.3313 100.501C22.2896 100.479 21.6789 100.508 21.6321 100.629ZM50.4984 100.562L51.5822 100.605L51.616 107.633L51.6494 114.66L51.6479 107.597L51.6463 100.534L50.5303 100.527L49.4143 100.52L50.4984 100.562ZM55.8561 100.629C55.8227 100.715 55.8106 102.062 55.8289 103.621L55.8623 106.456L57.9393 106.46L60.0167 106.465L57.9703 106.427L55.9243 106.388V103.495V100.602L57.8153 100.564L59.7063 100.527L57.8113 100.5C56.3723 100.479 55.902 100.51 55.8561 100.629ZM82.7703 101.336C83.0366 101.607 83.2825 101.829 83.3166 101.829C83.3507 101.829 83.1606 101.607 82.8943 101.336C82.6281 101.064 82.3822 100.842 82.3481 100.842C82.314 100.842 82.5041 101.064 82.7703 101.336ZM61.5043 101.128C61.5043 101.149 61.6857 101.329 61.9073 101.529L62.3103 101.891L61.9461 101.49C61.6066 101.116 61.5043 101.032 61.5043 101.128ZM65.4655 106.487L65.0383 106.949L65.5033 106.524C65.7591 106.29 65.9683 106.082 65.9683 106.062C65.9683 105.967 65.8636 106.056 65.4655 106.487ZM73.7004 107.566C73.7001 108.177 73.7208 108.442 73.7469 108.156C73.7729 107.87 73.7732 107.37 73.7478 107.046C73.7221 106.721 73.7007 106.955 73.7004 107.566ZM89.5708 107.566C89.5714 108.109 89.5931 108.316 89.6192 108.025C89.6455 107.736 89.6452 107.291 89.6186 107.038C89.5919 106.786 89.5705 107.023 89.5708 107.566ZM80.8483 107.098C84.1216 107.186 86.8961 107.188 86.8434 107.104C86.8115 107.053 85.1567 107.023 83.1659 107.037C81.1751 107.052 80.1322 107.079 80.8483 107.098ZM69.0972 108.738C69.0972 108.976 69.1226 109.073 69.1539 108.954C69.1849 108.835 69.1849 108.641 69.1539 108.522C69.1226 108.404 69.0972 108.501 69.0972 108.738ZM55.8558 109.142C55.8227 109.229 55.8115 110.519 55.8313 112.01L55.8673 114.722L55.8958 111.919L55.9243 109.117L57.1333 109.077L58.3423 109.036L57.1293 109.011C56.2418 108.992 55.9002 109.027 55.8558 109.142ZM21.6318 109.389C21.5983 109.476 21.5875 110.711 21.6073 112.134L21.6436 114.722L21.6721 112.041L21.7003 109.36L24.4593 109.324L27.2183 109.288L24.4553 109.26C22.3086 109.238 21.6789 109.267 21.6318 109.389ZM59.5306 109.392C59.5591 109.413 59.7497 109.527 59.9543 109.647L60.3263 109.863L60.0337 109.609C59.8725 109.47 59.6819 109.355 59.6099 109.355C59.538 109.355 59.5024 109.372 59.5306 109.392ZM82.7601 112.254C82.7601 113.544 82.7784 114.054 82.8007 113.389C82.8234 112.724 82.823 111.669 82.8007 111.045C82.7781 110.421 82.7598 110.965 82.7601 112.254ZM35.1733 111.422C35.1416 111.473 36.1566 111.5 37.4291 111.483C41.7018 111.424 42.1222 111.381 38.6648 111.355C36.7763 111.341 35.2049 111.371 35.1733 111.422ZM96.1003 113.735C96.3316 113.972 96.5489 114.167 96.583 114.167C96.6171 114.167 96.4556 113.972 96.2243 113.735C95.9931 113.497 95.7758 113.303 95.7417 113.303C95.7076 113.303 95.8691 113.497 96.1003 113.735ZM92.4424 114.907C92.7781 115.246 93.0809 115.524 93.115 115.524C93.1491 115.524 92.9021 115.246 92.5663 114.907C92.2306 114.568 91.9277 114.29 91.8936 114.29C91.8595 114.29 92.1066 114.568 92.4424 114.907ZM107.136 114.845C106.835 115.151 106.616 115.4 106.651 115.4C106.685 115.4 106.959 115.151 107.26 114.845C107.562 114.54 107.78 114.29 107.746 114.29C107.712 114.29 107.438 114.54 107.136 114.845ZM71.7911 114.938C72.0952 115.26 72.3602 115.524 72.3801 115.524C72.4734 115.524 72.3748 115.413 71.8273 114.902L71.2383 114.352L71.7911 114.938ZM58.4496 115.956C58.4499 116.634 58.4707 116.896 58.4958 116.538C58.5209 116.179 58.5209 115.624 58.4952 115.304C58.4698 114.984 58.4493 115.277 58.4496 115.956ZM79.0813 115.121C79.3712 115.147 79.8455 115.147 80.1353 115.121C80.4252 115.095 80.188 115.073 79.6083 115.073C79.0286 115.073 78.7915 115.095 79.0813 115.121ZM99.4809 115.119C99.6697 115.147 99.9487 115.147 100.101 115.117C100.253 115.088 100.099 115.065 99.7583 115.065C99.4173 115.066 99.2924 115.09 99.4809 115.119ZM68.2003 116.025C68.2003 116.437 68.1414 116.895 68.0695 117.043C67.943 117.303 67.9452 117.305 68.1315 117.073C68.311 116.85 68.4254 115.277 68.2623 115.277C68.2282 115.277 68.2003 115.614 68.2003 116.025ZM78.7066 117.71C78.9267 117.737 79.3173 117.738 79.5746 117.711C79.8319 117.684 79.6517 117.662 79.1743 117.662C78.6969 117.661 78.4865 117.683 78.7066 117.71ZM99.4174 117.71C99.639 117.738 100.002 117.738 100.223 117.71C100.445 117.683 100.264 117.661 99.8203 117.661C99.377 117.661 99.1957 117.683 99.4174 117.71ZM31.8993 153.615C48.4549 153.633 75.5458 153.633 92.1013 153.615C108.657 153.598 95.1114 153.584 62.0003 153.584C28.8892 153.584 15.3438 153.598 31.8993 153.615Z" fill="#E4545C"/>
</svg>
