<?xml version="1.0" encoding="UTF-8" standalone="no"?><!DOCTYPE svg PUBLIC "-//W3C//DTD SVG 1.1//EN" "http://www.w3.org/Graphics/SVG/1.1/DTD/svg11.dtd"><svg width="100%" height="100%" viewBox="0 0 180 51" version="1.1" xmlns="http://www.w3.org/2000/svg" xmlns:xlink="http://www.w3.org/1999/xlink" xml:space="preserve" xmlns:serif="http://www.serif.com/" style="fill-rule:evenodd;clip-rule:evenodd;stroke-linejoin:round;stroke-miterlimit:2;"><g id="LogoMark"><path d="M156.032,29.609l-0,-5.96l-10.156,-0l-5.96,5.96l16.116,-0Z" style="fill:#ff8b00;fill-rule:nonzero;"/><path d="M167.475,14.828l-12.73,0l-6.008,5.96l18.738,0l-0,-5.96Z" style="fill:#55b2c6;fill-rule:nonzero;"/><path d="M134.004,35.569l3.052,-3.052l10.298,0l0,5.96l-13.35,0l0,-2.908Z" style="fill:#f00;fill-rule:nonzero;"/><path d="M136.245,26.7l6.58,0l6.007,-5.96l-12.587,0l0,5.96Z" style="fill:#b4bbbf;fill-rule:nonzero;"/><path d="M129.046,35.569l4.958,-0l5.912,-5.96l-10.87,-0l-0,5.96Z" style="fill:#b4bbbf;fill-rule:nonzero;"/><path d="M154.745,14.828l-3.052,3.052l-19.453,-0l0,-5.96l22.505,-0l-0,2.908Z" style="fill:#b4bbbf;fill-rule:nonzero;"/></g><g id="LogoType"><path d="M26.917,34.52l-9.345,-0l-1.622,4.005l-4.1,-0l8.63,-20.216l3.576,-0l8.63,20.216l-4.148,-0l-1.621,-4.005Zm-1.288,-3.195l-3.385,-8.248l-3.385,8.248l6.77,0Z" style="fill:#003264;fill-rule:nonzero;"/><path d="M89.615,25.747c1.192,-1.764 4.196,-1.955 5.435,-1.955l0,3.433c-1.525,-0 -3.051,0.048 -3.957,0.715c-0.906,0.668 -1.383,1.573 -1.383,2.67l0,7.915l-3.719,-0l0,-14.733l3.576,-0l0.048,1.955Z" style="fill:#003264;fill-rule:nonzero;"/><rect x="97.1" y="23.792" width="3.719" height="14.733" style="fill:#003264;"/><rect x="97.1" y="17.212" width="3.719" height="4.386" style="fill:#003264;"/><path d="M119.271,17.212l0,21.313l-3.576,-0l-0.095,-2.241c-0.524,0.763 -1.192,1.383 -2.003,1.859c-0.81,0.429 -1.811,0.668 -2.956,0.668c-1.001,-0 -1.954,-0.191 -2.765,-0.525c-0.858,-0.381 -1.621,-0.858 -2.241,-1.525c-0.62,-0.668 -1.144,-1.478 -1.478,-2.384c-0.381,-0.906 -0.524,-1.955 -0.524,-3.099c-0,-1.145 0.19,-2.194 0.524,-3.147c0.381,-0.954 0.858,-1.764 1.478,-2.432c0.62,-0.667 1.383,-1.192 2.241,-1.573c0.858,-0.382 1.764,-0.572 2.765,-0.572c1.145,-0 2.098,0.19 2.909,0.619c0.81,0.429 1.478,1.002 2.002,1.812l0,-8.725l3.719,-0l0,-0.048Zm-7.819,18.404c1.24,0 2.193,-0.429 2.956,-1.239c0.763,-0.811 1.144,-1.907 1.144,-3.242c0,-1.335 -0.381,-2.384 -1.144,-3.243c-0.763,-0.81 -1.716,-1.239 -2.956,-1.239c-1.192,-0 -2.193,0.429 -2.909,1.239c-0.762,0.811 -1.144,1.908 -1.144,3.243c0,1.335 0.382,2.383 1.144,3.194c0.763,0.858 1.717,1.287 2.909,1.287" style="fill:#003264;fill-rule:nonzero;"/><path d="M54.189,27.129l-9.202,0l0,3.195l5.245,-0c-0.143,1.621 -0.763,2.861 -1.812,3.862c-1.049,0.954 -2.384,1.43 -4.1,1.43c-0.954,0 -1.86,-0.19 -2.623,-0.524c-0.81,-0.334 -1.478,-0.811 -2.05,-1.478c-0.572,-0.62 -1.001,-1.383 -1.335,-2.289c-0.334,-0.906 -0.477,-1.859 -0.477,-2.956c0,-1.096 0.143,-2.05 0.477,-2.956c0.286,-0.906 0.763,-1.621 1.335,-2.289c0.572,-0.619 1.24,-1.096 2.05,-1.478c0.811,-0.333 1.669,-0.524 2.67,-0.524c2.003,-0 3.528,0.477 4.577,1.43l2.48,-2.479c-1.86,-1.43 -4.244,-2.193 -7.057,-2.193c-1.573,-0 -3.004,0.238 -4.291,0.763c-1.287,0.524 -2.384,1.192 -3.29,2.097c-0.906,0.906 -1.621,2.003 -2.098,3.29c-0.476,1.288 -0.715,2.718 -0.715,4.244c0,1.526 0.239,2.956 0.763,4.243c0.524,1.288 1.192,2.384 2.098,3.29c0.906,0.906 2.002,1.621 3.29,2.098c1.287,0.524 2.717,0.763 4.243,0.763c1.526,-0 2.909,-0.239 4.148,-0.763c1.24,-0.524 2.289,-1.192 3.147,-2.098c0.858,-0.906 1.526,-2.002 2.003,-3.29c0.476,-1.287 0.715,-2.717 0.715,-4.243l-0,-0.62c-0.143,-0.095 -0.191,-0.334 -0.191,-0.525" style="fill:#003264;fill-rule:nonzero;"/><path d="M83.273,27.129l-9.202,0l0,3.195l5.245,-0c-0.143,1.621 -0.763,2.861 -1.812,3.862c-1.049,0.954 -2.384,1.43 -4.1,1.43c-0.954,0 -1.86,-0.19 -2.622,-0.524c-0.811,-0.334 -1.479,-0.811 -2.051,-1.478c-0.572,-0.62 -1.001,-1.383 -1.335,-2.289c-0.333,-0.906 -0.476,-1.859 -0.476,-2.956c-0,-1.096 0.143,-2.05 0.476,-2.956c0.286,-0.906 0.763,-1.621 1.335,-2.289c0.572,-0.619 1.24,-1.096 2.051,-1.478c0.81,-0.333 1.668,-0.524 2.67,-0.524c2.002,-0 3.528,0.477 4.577,1.43l2.479,-2.479c-1.859,-1.43 -4.243,-2.193 -7.056,-2.193c-1.574,-0 -3.004,0.238 -4.292,0.763c-1.287,0.524 -2.384,1.192 -3.289,2.097c-0.906,0.906 -1.622,2.003 -2.098,3.29c-0.477,1.288 -0.716,2.718 -0.716,4.244c0,1.526 0.239,2.956 0.763,4.243c0.525,1.288 1.192,2.384 2.098,3.29c0.906,0.906 2.003,1.621 3.29,2.098c1.287,0.524 2.718,0.763 4.244,0.763c1.525,-0 2.908,-0.239 4.148,-0.763c1.239,-0.524 2.288,-1.192 3.146,-2.098c0.859,-0.906 1.526,-2.002 2.003,-3.29c0.477,-1.287 0.715,-2.717 0.715,-4.243l0,-0.62c-0.143,-0.095 -0.191,-0.334 -0.191,-0.525" style="fill:#003264;fill-rule:nonzero;"/></g></svg>