<svg xmlns="http://www.w3.org/2000/svg" xml:space="preserve" style="fill-rule:evenodd;clip-rule:evenodd;stroke-linejoin:round;stroke-miterlimit:2" viewBox="0 0 32 32"><path d="M16 2c7.727 0 14 6.273 14 14s-6.273 14-14 14S2 23.727 2 16 8.273 2 16 2Zm0 2c6.623 0 12 5.377 12 12s-5.377 12-12 12S4 22.623 4 16 9.377 4 16 4Z"/><path d="M12.427 16.46c0 .52.114.995.34 1.423.227.428.525.794.895 1.096.37.303.798.538 1.285.706.487.168.991.252 1.512.252.706 0 1.319-.164 1.84-.492.52-.327 1-.76 1.436-1.297l1.714 1.31c-1.26 1.63-3.024 2.444-5.292 2.444-.941 0-1.794-.16-2.558-.478a5.57 5.57 0 0 1-1.94-1.323 5.868 5.868 0 0 1-1.223-1.991 7.036 7.036 0 0 1-.428-2.482c0-.89.155-1.718.466-2.483.311-.764.74-1.428 1.285-1.99a5.865 5.865 0 0 1 1.953-1.323 6.284 6.284 0 0 1 2.47-.48c1.058 0 1.953.186 2.684.555.73.37 1.331.853 1.802 1.45.47.596.81 1.268 1.02 2.015.21.748.315 1.508.315 2.28v.807h-9.576Zm7.157-1.815a4.784 4.784 0 0 0-.24-1.386 3.05 3.05 0 0 0-.642-1.096 2.96 2.96 0 0 0-1.071-.731c-.428-.177-.928-.265-1.5-.265a3.714 3.714 0 0 0-3.44 2.255 3.085 3.085 0 0 0-.264 1.223h7.157Z"/></svg>