<?xml version="1.0" encoding="UTF-8" standalone="no"?>
<!DOCTYPE svg PUBLIC "-//W3C//DTD SVG 1.1//EN" "http://www.w3.org/Graphics/SVG/1.1/DTD/svg11.dtd">
<svg width="100%" height="100%" viewBox="0 0 32 32" version="1.1" xmlns="http://www.w3.org/2000/svg" xmlns:xlink="http://www.w3.org/1999/xlink" xml:space="preserve" xmlns:serif="http://www.serif.com/" style="fill-rule:evenodd;clip-rule:evenodd;stroke-linejoin:round;stroke-miterlimit:2;">
    <path d="M16,2C23.727,2 30,8.273 30,16C30,23.727 23.727,30 16,30C8.273,30 2,23.727 2,16C2,8.273 8.273,2 16,2ZM16.005,5C22.076,5 27.005,9.929 27.005,16C27.005,22.071 22.076,27 16.005,27C9.934,27 5.005,22.071 5.005,16C5.005,9.929 9.934,5 16.005,5Z"/>
    <g transform="matrix(1.05605,0,0,1.05605,-0.897066,-0.875852)">
        <path d="M12.427,16.46C12.427,16.98 12.541,17.455 12.767,17.883C12.994,18.311 13.292,18.677 13.662,18.979C14.032,19.282 14.46,19.517 14.947,19.685C15.434,19.853 15.938,19.937 16.459,19.937C17.165,19.937 17.778,19.773 18.299,19.445C18.819,19.118 19.299,18.685 19.735,18.148L21.449,19.458C20.189,21.088 18.425,21.902 16.157,21.902C15.216,21.902 14.363,21.742 13.599,21.424C12.866,21.126 12.204,20.675 11.659,20.101C11.122,19.526 10.706,18.849 10.436,18.11C10.145,17.315 10,16.474 10.008,15.628C10.008,14.738 10.163,13.91 10.474,13.145C10.785,12.381 11.214,11.717 11.759,11.155C12.314,10.586 12.978,10.136 13.712,9.832C14.495,9.507 15.335,9.344 16.182,9.352C17.24,9.352 18.135,9.538 18.866,9.907C19.596,10.277 20.197,10.76 20.668,11.357C21.138,11.953 21.478,12.625 21.688,13.372C21.898,14.12 22.003,14.88 22.003,15.652L22.003,16.459L12.427,16.459L12.427,16.46ZM19.584,14.645C19.573,14.174 19.492,13.707 19.344,13.259C19.209,12.853 18.991,12.479 18.702,12.163C18.403,11.843 18.038,11.594 17.631,11.432C17.203,11.255 16.703,11.167 16.131,11.167C14.638,11.157 13.278,12.049 12.691,13.422C12.52,13.807 12.431,14.224 12.427,14.645L19.584,14.645Z"/>
    </g>
</svg>
