<svg width="64" height="64" viewBox="0 0 64 64" fill="none" xmlns="http://www.w3.org/2000/svg">
<g filter="url(#filter0_i_2_129)">
<circle cx="32" cy="32" r="32" fill="url(#paint0_linear_2_129)"/>
</g>
<g filter="url(#filter1_d_2_129)">
<path fill-rule="evenodd" clip-rule="evenodd" d="M44.8374 34.9379C44.8379 34.9385 44.8382 34.9393 44.8381 34.9401C44.0368 41.613 38.3562 46.7834 31.4674 46.7834C24.0298 46.7834 18 40.7537 18 33.3161C18 26.4268 23.172 20.7469 29.8447 19.9452C30.2708 19.8937 30.6574 20.015 30.9788 20.2997C31.3002 20.5853 31.4664 20.9544 31.4664 21.3842V31.8661C31.4664 32.6641 32.1175 33.3152 32.9156 33.3152H43.3974C43.8272 33.3152 44.1964 33.4814 44.482 33.8028C44.7664 34.1239 44.8876 34.5101 44.8366 34.9357C44.8365 34.9365 44.8368 34.9373 44.8374 34.9379V34.9379ZM35.0227 18.0116C35.023 18.0119 35.0234 18.0121 35.0238 18.0122C41.1644 18.7498 46.034 23.6196 46.7714 29.7603C46.8228 30.1873 46.7016 30.573 46.416 30.8954C46.1304 31.2168 45.7612 31.383 45.3314 31.383H34.8496C34.0515 31.383 33.3995 30.7319 33.3995 29.933V19.4511C33.3995 19.0213 33.5657 18.6522 33.8872 18.3666C34.2084 18.082 34.5948 17.9608 35.0216 18.0111C35.022 18.0111 35.0224 18.0113 35.0227 18.0116V18.0116Z" fill="url(#paint1_linear_2_129)"/>
<path d="M29.8745 20.1934L29.8746 20.1934C30.2294 20.1506 30.5447 20.2493 30.8128 20.4866C31.0809 20.7249 31.2164 21.0261 31.2164 21.3842V31.8661C31.2164 32.8022 31.9795 33.5652 32.9156 33.5652H43.3974C43.7556 33.5652 44.0568 33.7007 44.2951 33.9689C44.5321 34.2367 44.6308 34.5516 44.5884 34.9059C44.5871 34.9165 44.5865 34.9271 44.5866 34.9377C43.7879 41.4732 38.2188 46.5334 31.4674 46.5334C24.1678 46.5334 18.25 40.6156 18.25 33.3161C18.25 26.5548 23.326 20.9802 29.8745 20.1934ZM46.5231 29.7901L46.5232 29.7902C46.566 30.1458 46.4673 30.4604 46.2289 30.7295C45.9907 30.9975 45.6895 31.133 45.3314 31.133H34.8496C34.1895 31.133 33.6495 30.5937 33.6495 29.933V19.4511C33.6495 19.0931 33.785 18.7919 34.0529 18.5537C34.3167 18.3201 34.6266 18.2205 34.9758 18.2575C34.9818 18.2587 34.9879 18.2596 34.994 18.2604C41.0201 18.9843 45.7995 23.7639 46.5231 29.7901Z" stroke="white" stroke-opacity="0.3" stroke-width="0.5"/>
</g>
<defs>
<filter id="filter0_i_2_129" x="0" y="0" width="64" height="64" filterUnits="userSpaceOnUse" color-interpolation-filters="sRGB">
<feFlood flood-opacity="0" result="BackgroundImageFix"/>
<feBlend mode="normal" in="SourceGraphic" in2="BackgroundImageFix" result="shape"/>
<feColorMatrix in="SourceAlpha" type="matrix" values="0 0 0 0 0 0 0 0 0 0 0 0 0 0 0 0 0 0 127 0" result="hardAlpha"/>
<feMorphology radius="1" operator="erode" in="SourceAlpha" result="effect1_innerShadow_2_129"/>
<feOffset/>
<feGaussianBlur stdDeviation="0.5"/>
<feComposite in2="hardAlpha" operator="arithmetic" k2="-1" k3="1"/>
<feColorMatrix type="matrix" values="0 0 0 0 1 0 0 0 0 1 0 0 0 0 1 0 0 0 0.51 0"/>
<feBlend mode="normal" in2="shape" result="effect1_innerShadow_2_129"/>
</filter>
<filter id="filter1_d_2_129" x="10.7" y="18" width="43.3829" height="44.0834" filterUnits="userSpaceOnUse" color-interpolation-filters="sRGB">
<feFlood flood-opacity="0" result="BackgroundImageFix"/>
<feColorMatrix in="SourceAlpha" type="matrix" values="0 0 0 0 0 0 0 0 0 0 0 0 0 0 0 0 0 0 127 0" result="hardAlpha"/>
<feOffset dy="8"/>
<feGaussianBlur stdDeviation="3.65"/>
<feComposite in2="hardAlpha" operator="out"/>
<feColorMatrix type="matrix" values="0 0 0 0 0.346311 0 0 0 0 0.214995 0 0 0 0 0.511393 0 0 0 0.57 0"/>
<feBlend mode="normal" in2="BackgroundImageFix" result="effect1_dropShadow_2_129"/>
<feBlend mode="normal" in="SourceGraphic" in2="effect1_dropShadow_2_129" result="shape"/>
</filter>
<linearGradient id="paint0_linear_2_129" x1="53" y1="-1.27871e-06" x2="1.57952e-06" y2="64" gradientUnits="userSpaceOnUse">
<stop stop-color="#AF70FF"/>
<stop offset="1" stop-color="#9D52F9"/>
</linearGradient>
<linearGradient id="paint1_linear_2_129" x1="31" y1="34.5" x2="70.0008" y2="-5.49923" gradientUnits="userSpaceOnUse">
<stop stop-color="#F9F9F9"/>
<stop offset="0.625" stop-color="#FBFBFB" stop-opacity="0"/>
</linearGradient>
</defs>
</svg>
