<svg xmlns="http://www.w3.org/2000/svg" xmlns:xlink="http://www.w3.org/1999/xlink" viewBox="0 0 20 20"><defs><path id="a" d="M6-20v2H2v6h14v-6h-4v-2h-2v6H8v-6H1.995C.893-20 0-19.113 0-18v6c0 1.104.893 2 1.995 2h14.01C17.107-10 18-10.887 18-12v-6c0-1.104-.893-2-1.995-2H10v-2h4.657L9-27.657 3.343-22H8v2H6zm10-10h2v2h2v2h-2v2h-2v-2h-2v-2h2v-2z"/></defs><clipPath id="b"><use xlink:href="#a" overflow="visible"/></clipPath><g clip-path="url(#b)"><defs><path id="c" d="M0 0h20v20H0z"/></defs><clipPath id="d"><use xlink:href="#c" overflow="visible"/></clipPath><path clip-path="url(#d)" fill-rule="evenodd" clip-rule="evenodd" fill="#707070" d="M-5-35h30v30H-5z"/></g><defs><path id="e" d="M49-13c0 .318-.09.557 0 1-.45-.09-.693 0-1 0H32c-.302 0-.544-.09-1 0 .09-.456 0-.698 0-1v-5h2v4h14v-4h2v5zm-14-8l5 5 5-5h-4v-7h-2v7h-4z"/></defs><clipPath id="f"><use xlink:href="#e" overflow="visible"/></clipPath><g clip-path="url(#f)"><defs><path id="g" d="M0 0h20v20H0z"/></defs><clipPath id="h"><use xlink:href="#g" overflow="visible"/></clipPath><path clip-path="url(#h)" fill-rule="evenodd" clip-rule="evenodd" fill="#707070" d="M26-33h28v26H26z"/></g><defs><path id="i" d="M-16 11c2.21 0 4-1.79 4-4s-1.79-4-4-4-4 1.79-4 4 1.79 4 4 4zm-.622.962l-.37.406c-.91.962-1.885 1.78-2.92 2.458s-2.05 1.203-3.05 1.578c-.018.073-.046.102-.08.096-.237 1.42-1.47 2.5-2.958 2.5-1.657 0-3-1.343-3-3 0-1.306.835-2.417 2-2.83V5.83c-1.165-.413-2-1.524-2-2.83 0-1.657 1.343-3 3-3s3 1.343 3 3c0 1.306-.835 2.417-2 2.83v7.34c.493.174.927.474 1.263.86 1.24-.517 2.808-1.366 3.836-2.17.343-.268.658-.544.945-.827C-20.195 10.123-21 8.656-21 7c0-2.76 2.24-5 5-5s5 2.24 5 5-2.24 5-5 5c-.21 0-.418-.013-.622-.038zM-17 6V4h2v2h2v2h-2v2h-2V8h-2V6h2z"/></defs><clipPath id="j"><use xlink:href="#i" overflow="visible"/></clipPath><g clip-path="url(#j)"><defs><path id="k" d="M0 0h20v20H0z"/></defs><clipPath id="l"><use xlink:href="#k" overflow="visible"/></clipPath><path clip-path="url(#l)" fill-rule="evenodd" clip-rule="evenodd" fill="#707070" d="M-34-5h28v29h-28z"/></g><defs><path id="m" d="M-27.3-18.04c-1.53-.238-2.7-1.554-2.7-3.142 0-1.757 1.433-3.182 3.2-3.182.17 0 .34.013.503.04.077-1.69 1.456-3.033 3.147-3.033.743 0 1.426.26 1.965.694.788-1.367 2.255-2.285 3.935-2.285 2.51 0 4.546 2.052 4.55 4.584 1.49 0 2.7 1.425 2.7 3.182 0 1.385-.75 2.564-1.8 3V-18H-17v2h3.218l-4.718 3.655L-23.218-16H-20v-2h-7.3v-.04zm4.847-1.96l-.172.006-.172-.006H-26v-.05c-.138.032-.283.05-.433.05C-27.3-20-28-20.594-28-21.326c0-.732.7-1.326 1.567-1.326.5 0 .943.197 1.23.504-.03-.16-.046-.328-.046-.5 0-1.463 1.176-2.65 2.626-2.65.962 0 1.802.52 2.26 1.3.048-1.648 1.387-2.97 3.032-2.97 1.675 0 3.033 1.37 3.033 3.062 0 .33-.05.648-.147.946.242-.142.525-.223.828-.223.896 0 1.62.712 1.62 1.59 0 .88-.725 1.593-1.62 1.593-.13 0-.258-.015-.38-.044V-20h-8.453z"/></defs><clipPath id="n"><use xlink:href="#m" overflow="visible"/></clipPath><g clip-path="url(#n)"><defs><path id="o" d="M0 0h20v20H0z"/></defs><clipPath id="p"><use xlink:href="#o" overflow="visible"/></clipPath><path clip-path="url(#p)" fill-rule="evenodd" clip-rule="evenodd" fill="#707070" d="M-35-33.948h30v26.603h-30z"/></g><defs><path id="q" d="M16.062 11.877c1.105 0 2-.895 2-2s-.895-2-2-2-2 .895-2 2 .896 2 2 2zm-6 0c1.105 0 2-.895 2-2s-.895-2-2-2-2 .895-2 2 .896 2 2 2zm-6 0c1.105 0 2-.895 2-2s-.895-2-2-2-2 .895-2 2 .896 2 2 2z"/></defs><clipPath id="r"><use xlink:href="#q" overflow="visible"/></clipPath><g clip-path="url(#r)"><defs><path id="s" d="M0 0h20v20H0z"/></defs><clipPath id="t"><use xlink:href="#s" overflow="visible"/></clipPath><path clip-path="url(#t)" fill-rule="evenodd" clip-rule="evenodd" fill="#707070" d="M-2.938 2.877h26v14h-26z"/></g><defs><path id="u" d="M43.375 10c0 .58-.155 1.13-.466 1.652-.312.52-.728.94-1.25 1.252-.52.313-1.074.47-1.66.47-.58 0-1.13-.157-1.652-.47-.52-.313-.94-.73-1.252-1.252-.313-.52-.47-1.072-.47-1.652 0-.58.157-1.13.47-1.652.313-.52.73-.94 1.252-1.252.52-.313 1.072-.47 1.652-.47.586 0 1.14.157 1.66.47.522.313.94.73 1.25 1.252.31.52.465 1.072.465 1.652zM49 11.072V8.998c0-.123-.06-.24-.18-.352-.12-.11-.248-.176-.382-.193l-2.725-.492c-.135-.034-.224-.1-.268-.192-.044-.094-.03-.193.04-.3l1.547-2.267c.064-.104.09-.23.075-.373-.015-.144-.07-.26-.163-.347l-1.46-1.46c-.1-.1-.217-.157-.355-.175-.14-.018-.26.012-.366.088l-2.268 1.53c-.105.063-.208.072-.308.025s-.16-.132-.185-.255l-.492-2.69c-.017-.134-.08-.258-.192-.373-.11-.113-.228-.17-.35-.17h-2.075c-.13 0-.25.057-.365.17-.114.115-.18.24-.198.375l-.492 2.725c-.018.123-.078.205-.18.246-.103.04-.207.03-.312-.035l-2.25-1.546c-.11-.07-.24-.097-.382-.08-.144.02-.262.074-.356.168l-1.46 1.458c-.094.094-.148.21-.163.352-.015.14.01.264.075.37l1.547 2.267c.07.104.083.204.04.298-.044.094-.133.158-.268.193l-2.655.493c-.123.018-.233.082-.33.193-.097.112-.145.23-.145.352v2.074c0 .13.048.25.145.365.097.114.207.18.33.198l2.672.492c.123.018.207.075.25.17.044.098.03.2-.04.304l-1.547 2.27c-.064.104-.09.23-.075.377.015.146.07.267.163.36l1.46 1.46c.093.093.21.145.355.157.144.012.27-.018.382-.088l2.25-1.512c.105-.082.21-.103.312-.062.103.04.163.126.18.255l.492 2.69c.017.122.082.235.197.337.115.105.237.156.366.156h2.074c.123 0 .24-.05.352-.154.11-.103.175-.215.192-.338l.492-2.707c.023-.128.085-.21.185-.245s.2-.018.307.053l2.268 1.512c.105.082.23.117.378.105.146-.012.267-.064.36-.158l1.44-1.46c.095-.093.152-.213.172-.36.02-.145 0-.27-.066-.377l-1.53-2.268c-.076-.105-.09-.207-.044-.303.047-.098.138-.155.272-.172l2.69-.492c.134-.018.26-.083.38-.198.122-.115.182-.237.182-.366z"/></defs><clipPath id="v"><use xlink:href="#u" overflow="visible"/></clipPath><g clip-path="url(#v)"><defs><path id="w" d="M0 0h20v20H0z"/></defs><clipPath id="x"><use xlink:href="#w" overflow="visible"/></clipPath><path clip-path="url(#x)" fill-rule="evenodd" clip-rule="evenodd" fill="#707070" d="M26-4h28v28H26z"/></g></svg>