<!-- Generated by IcoMoon.io -->
<svg version="1.1" xmlns="http://www.w3.org/2000/svg" width="100%" height="100%" viewBox="0 0 32 32">
<title>eye-slash</title>
<path d="M9.253 6.984l1.645-1.299 1.221 1.552c1.32-0.379 2.707-0.579 4.149-0.568 6.003 0.141 11.117 4.061 14.672 9.331-1.749 2.595-4.104 4.869-6.781 6.504l1.701 2.16-2.093 1.651-1.021-1.299 0.448-0.352-9.645-12.235c1.269-0.275 2.589-0.36 3.869-0.408 0.419-0.013 0.835-0.019 1.253-0.021-0.003-0.888-0.008-1.779-0.011-2.667l-0.336 0.003c-2.227 0.027-4.485 0.16-6.576 0.811l-2.496-3.163zM7.677 9.288l7.347 9.32c-3.485-0.424-6.28-3.091-6.896-6.512-1.459 1.075-2.757 2.408-3.84 3.904 3.112 4.296 8.517 7.155 13.779 6.464l1.616 2.051c-3.811 1.125-7.915 0.901-11.701-1.371-2.864-1.717-5.032-4.339-6.923-7.144 1.784-2.645 4.016-5.019 6.619-6.712h0zM22.792 20.768c1.899-1.173 3.464-2.8 4.789-4.587 0 0-1.352-2.037-3.747-3.888-0.451 2.187-1.797 4.048-3.637 5.184l2.595 3.291z"></path>
</svg>
