<svg xmlns="http://www.w3.org/2000/svg" viewBox="0 0 31 45.5"><defs><style>.cls-1{fill:#ec1c24;fill-rule:evenodd;}.cls-2{fill:#fff;}.cls-3{fill:none;stroke:#b3b3b3;stroke-linecap:round;stroke-linejoin:round;}.cls-4{fill:#b3b3b3;}</style></defs><title>Dep.Asset 1</title><g id="Layer_2" data-name="Layer 2"><g id="Layer_1-2" data-name="Layer 1"><path class="cls-1" d="M25.5,5.55,16.24.21a1.5,1.5,0,0,0-1.53,0L5.45,5.55a1.54,1.54,0,0,0-.77,1.33V17.56a1.57,1.57,0,0,0,.77,1.34l9.26,5.34a1.55,1.55,0,0,0,1.53,0L25.5,18.9a1.57,1.57,0,0,0,.77-1.34V6.88A1.54,1.54,0,0,0,25.5,5.55Z"/><polygon class="cls-2" points="17.03 11.94 17.03 6.72 13.92 6.72 13.92 11.94 10.27 11.94 15.47 17.73 20.68 11.94 17.03 11.94"/><line class="cls-3" x1="15.64" y1="27.5" x2="15.64" y2="44.36"/><polygon class="cls-4" points="13.94 42.37 15.64 44.06 17.33 42.37 17.33 43.8 15.64 45.5 13.94 43.8 13.94 42.37"/><line class="cls-3" x1="18.27" y1="27.14" x2="30.19" y2="39.06"/><polygon class="cls-4" points="27.59 38.85 29.98 38.85 29.98 36.45 31 37.47 31 39.86 28.6 39.86 27.59 38.85"/><line class="cls-3" x1="12.73" y1="27.14" x2="0.81" y2="39.06"/><polygon class="cls-4" points="1.02 36.45 1.02 38.85 3.42 38.85 2.4 39.86 0 39.86 0 37.47 1.02 36.45"/></g></g></svg>