<svg width="16" height="16" viewBox="0 0 16 16" fill="none" xmlns="http://www.w3.org/2000/svg">
<path d="M12.6667 2H3.33333C2.6 2 2 2.6 2 3.33333V8C2 8.73333 2.6 9.33333 3.33333 9.33333H12.6667C13.4 9.33333 14 8.73333 14 8V3.33333C14 2.6 13.4 2 12.6667 2ZM12.6667 6H10.5733C10.26 6 10.0133 6.22 9.92667 6.52C9.68667 7.36 8.9 8 8 8C7.1 8 6.31333 7.36 6.07333 6.52C5.98667 6.22 5.74 6 5.42667 6H3.33333V4C3.33333 3.63333 3.63333 3.33333 4 3.33333H12C12.3667 3.33333 12.6667 3.63333 12.6667 4V6ZM10.58 10.6667H13.3333C13.7 10.6667 14 10.9667 14 11.3333V12.6667C14 13.4 13.4 14 12.6667 14H3.33333C2.6 14 2 13.4 2 12.6667V11.3333C2 10.9667 2.3 10.6667 2.66667 10.6667H5.42C5.73333 10.6667 5.98667 10.8933 6.07333 11.2C6.18925 11.6221 6.44055 11.9944 6.78863 12.2598C7.13671 12.5252 7.5623 12.6689 8 12.6689C8.4377 12.6689 8.86329 12.5252 9.21137 12.2598C9.55945 11.9944 9.81075 11.6221 9.92667 11.2C10.0133 10.8933 10.2667 10.6667 10.58 10.6667Z" fill="currentColor"/>
</svg>
