<svg width="16" height="16" viewBox="0 0 16 16" fill="none" xmlns="http://www.w3.org/2000/svg">
<path fill-rule="evenodd" clip-rule="evenodd" d="M2.4 1.5C2.16131 1.5 1.93239 1.59482 1.7636 1.7636C1.59482 1.93239 1.5 2.16131 1.5 2.4V13.6C1.5 14.0973 1.90267 14.5 2.4 14.5H13.6C13.7182 14.5 13.8352 14.4767 13.9444 14.4315C14.0536 14.3863 14.1528 14.32 14.2364 14.2364C14.32 14.1528 14.3863 14.0536 14.4315 13.9444C14.4767 13.8352 14.5 13.7182 14.5 13.6V2.4C14.5 2.28181 14.4767 2.16478 14.4315 2.05558C14.3863 1.94639 14.32 1.84718 14.2364 1.7636C14.1528 1.68003 14.0536 1.61374 13.9444 1.56851C13.8352 1.52328 13.7182 1.5 13.6 1.5H2.4ZM10.3333 9.5C10.1123 9.5 9.90036 9.5878 9.74408 9.74408C9.5878 9.90036 9.5 10.1123 9.5 10.3333C9.5 10.5543 9.5878 10.7663 9.74408 10.9226C9.90036 11.0789 10.1123 11.1667 10.3333 11.1667C10.5543 11.1667 10.7663 11.0789 10.9226 10.9226C11.0789 10.7663 11.1667 10.5543 11.1667 10.3333C11.1667 10.1123 11.0789 9.90036 10.9226 9.74408C10.7663 9.5878 10.5543 9.5 10.3333 9.5ZM4.83333 5.66667C4.83333 5.44565 4.92113 5.23369 5.07741 5.07741C5.23369 4.92113 5.44565 4.83333 5.66667 4.83333C5.88768 4.83333 6.09964 4.92113 6.25592 5.07741C6.4122 5.23369 6.5 5.44565 6.5 5.66667C6.5 5.88768 6.4122 6.09964 6.25592 6.25592C6.09964 6.4122 5.88768 6.5 5.66667 6.5C5.44565 6.5 5.23369 6.4122 5.07741 6.25592C4.92113 6.09964 4.83333 5.88768 4.83333 5.66667ZM10.3133 4.98C10.3591 4.93088 10.4143 4.89147 10.4756 4.86415C10.537 4.83682 10.6032 4.82212 10.6703 4.82094C10.7375 4.81975 10.8041 4.8321 10.8664 4.85725C10.9287 4.8824 10.9852 4.91983 11.0327 4.96731C11.0802 5.01479 11.1176 5.07134 11.1427 5.1336C11.1679 5.19586 11.1802 5.26255 11.1791 5.32968C11.1779 5.39682 11.1632 5.46303 11.1359 5.52436C11.1085 5.58569 11.0691 5.64089 11.02 5.68667L5.68667 11.02C5.59188 11.1083 5.46652 11.1564 5.33699 11.1541C5.20745 11.1518 5.08386 11.0994 4.99225 11.0077C4.90064 10.9161 4.84817 10.7925 4.84588 10.663C4.8436 10.5335 4.89168 10.4081 4.98 10.3133L10.3133 4.98Z" fill="black"/>
</svg>
