<svg width="16" height="16" viewBox="0 0 16 16" fill="none" xmlns="http://www.w3.org/2000/svg">
<path fill-rule="evenodd" clip-rule="evenodd" d="M10.7566 3.15184L11.9766 4.37184C13.7693 6.16517 14.6653 7.06117 14.6653 8.1745C14.6653 9.2885 13.7693 10.1845 11.9766 11.9772C10.1833 13.7705 9.28728 14.6665 8.17328 14.6665C7.05994 14.6665 6.16328 13.7705 4.37061 11.9778L3.15061 10.7578C2.12061 9.72717 1.60528 9.2125 1.41394 8.54384C1.22194 7.87517 1.38594 7.16517 1.71394 5.74584L1.90261 4.92717C2.17794 3.7325 2.31594 3.13517 2.72461 2.72584C3.13394 2.31717 3.73128 2.17917 4.92594 1.90384L5.74461 1.7145C7.16461 1.38717 7.87394 1.22317 8.54261 1.4145C9.21128 1.6065 9.72661 2.12184 10.7566 3.15184ZM7.42928 9.55184C6.98061 9.10384 6.98394 8.45984 7.25261 7.94984C7.1861 7.85377 7.15533 7.73744 7.16566 7.62104C7.17598 7.50465 7.22675 7.39555 7.30913 7.31269C7.39152 7.22983 7.50032 7.17844 7.61665 7.16745C7.73298 7.15645 7.84949 7.18655 7.94594 7.2525C8.17261 7.1325 8.42128 7.0685 8.66928 7.07117C8.80188 7.07241 8.92857 7.12627 9.02146 7.22092C9.11436 7.31556 9.16585 7.44323 9.16461 7.57584C9.16337 7.70845 9.10951 7.83513 9.01486 7.92802C8.92022 8.02092 8.79255 8.07241 8.65994 8.07117C8.50557 8.07688 8.35969 8.14323 8.25394 8.25584C7.99594 8.51384 8.06328 8.7725 8.13594 8.84517C8.20928 8.91784 8.46728 8.98517 8.72528 8.72717C9.24794 8.2045 10.1506 8.03117 10.7286 8.60917C11.1773 9.05784 11.1739 9.70184 10.9053 10.2118C10.9714 10.3079 11.0018 10.4241 10.9913 10.5403C10.9808 10.6564 10.93 10.7652 10.8477 10.8479C10.7654 10.9306 10.6569 10.9819 10.5408 10.9929C10.4247 11.004 10.3083 10.9741 10.2119 10.9085C9.91276 11.0726 9.56575 11.1273 9.23061 11.0632C9.10065 11.0365 8.98663 10.9592 8.91361 10.8485C8.8406 10.7377 8.81458 10.6025 8.84128 10.4725C8.86797 10.3425 8.9452 10.2285 9.05598 10.1555C9.16675 10.0825 9.30199 10.0565 9.43194 10.0832C9.54994 10.1078 9.74061 10.0692 9.90394 9.90584C10.1619 9.64717 10.0946 9.38917 10.0219 9.31651C9.94861 9.24384 9.69061 9.17651 9.43261 9.43451C8.90994 9.95717 8.00728 10.1305 7.42928 9.55184ZM6.67861 6.86184C6.8024 6.738 6.90059 6.591 6.96757 6.42921C7.03455 6.26743 7.06901 6.09404 7.06898 5.91894C7.06895 5.74384 7.03443 5.57046 6.96739 5.4087C6.90035 5.24694 6.80211 5.09996 6.67828 4.97617C6.55444 4.85238 6.40743 4.75419 6.24565 4.68721C6.08387 4.62023 5.91047 4.58577 5.73537 4.5858C5.56027 4.58584 5.38689 4.62035 5.22513 4.68739C5.06337 4.75443 4.9164 4.85267 4.79261 4.97651C4.5426 5.2266 4.40218 5.56578 4.40224 5.91941C4.4023 6.27304 4.54284 6.61216 4.79294 6.86217C5.04304 7.11218 5.38221 7.2526 5.73584 7.25254C6.08948 7.25248 6.4286 7.11194 6.67861 6.86184Z" fill="black"/>
</svg>
