<svg width="16" height="16" viewBox="0 0 16 16" fill="none" xmlns="http://www.w3.org/2000/svg">
<path d="M2.02301 13.9353C3.04951 15 4.69921 15 8 15C11.3008 15 12.9512 15 13.9763 13.9345C14.8663 13.0109 14.9846 11.5978 15 9H12.7894C12.1074 9 11.9289 9.01164 11.7797 9.08291C11.6299 9.15491 11.5053 9.288 11.0613 9.82473L10.6377 10.3389L10.5761 10.4131C10.2246 10.84 9.94588 11.1782 9.56077 11.3622C9.17565 11.5462 8.74712 11.5462 8.20656 11.5455H7.79414C7.25288 11.5455 6.82435 11.5469 6.43923 11.3622C6.05412 11.1782 5.77543 10.84 5.42393 10.4131L5.36231 10.3389L4.93868 9.82545C4.49475 9.28727 4.37011 9.15491 4.22027 9.08364C4.07112 9.01164 3.89257 9 3.21056 9H1C1.0161 11.5978 1.13304 13.0116 2.02301 13.9353Z" fill="black"/>
<path d="M13.9752 1.85178C12.949 1 11.2998 1 8 1C4.7002 1 3.0503 1 2.0248 1.85178C1 2.70473 1 4.07549 1 6.81818V6.96364H3.3065C3.8469 6.96364 4.2753 6.96247 4.6603 7.11025C5.0453 7.25745 5.3239 7.528 5.6753 7.86953L5.7369 7.92887L6.1604 8.33964C6.6042 8.77018 6.7288 8.87607 6.8786 8.93309C7.0277 8.99069 7.2062 9 7.888 9H8.112C8.7938 9 8.9723 8.99069 9.1214 8.93367C9.2712 8.87607 9.3958 8.7696 9.8396 8.34022L10.2631 7.92887L10.3247 7.86953C10.6761 7.528 10.9547 7.25745 11.3397 7.11025C11.7247 6.96247 12.1531 6.96305 12.6942 6.96364H15V6.81818C15 4.07549 15.0007 2.70415 13.9752 1.85178Z" fill="black"/>
</svg>
