<svg width="16" height="16" viewBox="0 0 16 16" fill="none" xmlns="http://www.w3.org/2000/svg">
<path d="M9.3948 7.16602L8.8948 8.83268H6.60547L7.10547 7.16602H9.3948Z" fill="currentColor"/>
<path fill-rule="evenodd" clip-rule="evenodd" d="M2.30803 2.30998C1.33203 3.28732 1.33203 4.85798 1.33203 8.00065C1.33203 11.1433 1.33203 12.7147 2.30803 13.6907C3.28536 14.6673 4.85603 14.6673 7.9987 14.6673C11.1414 14.6673 12.7127 14.6673 13.6887 13.6907C14.6654 12.7153 14.6654 11.1433 14.6654 8.00065C14.6654 4.85798 14.6654 3.28665 13.6887 2.30998C12.7134 1.33398 11.1414 1.33398 7.9987 1.33398C4.85603 1.33398 3.2847 1.33398 2.30803 2.30998ZM7.47603 4.18865C7.60296 4.22688 7.70951 4.31394 7.77227 4.4307C7.83503 4.54746 7.84885 4.68437 7.8107 4.81132L7.40403 6.16732H9.69336L10.1867 4.52398C10.2283 4.40142 10.3159 4.29978 10.4309 4.24044C10.546 4.18111 10.6795 4.1687 10.8036 4.20583C10.9276 4.24297 11.0323 4.32674 11.0958 4.43954C11.1593 4.55234 11.1766 4.68537 11.144 4.81065L10.7374 6.16732H11.9987C12.1313 6.16732 12.2585 6.22 12.3523 6.31376C12.446 6.40753 12.4987 6.53471 12.4987 6.66732C12.4987 6.79993 12.446 6.9271 12.3523 7.02087C12.2585 7.11464 12.1313 7.16732 11.9987 7.16732H10.4374L9.93736 8.83398H11.332C11.4646 8.83398 11.5918 8.88666 11.6856 8.98043C11.7794 9.0742 11.832 9.20138 11.832 9.33398C11.832 9.46659 11.7794 9.59377 11.6856 9.68754C11.5918 9.78131 11.4646 9.83398 11.332 9.83398H9.63736L9.14403 11.4773C9.10239 11.5999 9.01484 11.7015 8.8998 11.7609C8.78475 11.8202 8.65118 11.8326 8.52718 11.7955C8.40317 11.7583 8.2984 11.6746 8.2349 11.5618C8.1714 11.449 8.15412 11.3159 8.1867 11.1907L8.59336 9.83398H6.30403L5.8107 11.4773C5.79379 11.5424 5.76394 11.6033 5.72294 11.6566C5.68194 11.7098 5.63063 11.7542 5.57207 11.7872C5.51351 11.8202 5.44891 11.841 5.38212 11.8484C5.31534 11.8559 5.24774 11.8497 5.18336 11.8305C5.11899 11.8112 5.05916 11.7791 5.00745 11.7362C4.95574 11.6933 4.91322 11.6404 4.88241 11.5807C4.85161 11.521 4.83316 11.4556 4.82817 11.3886C4.82318 11.3216 4.83175 11.2543 4.85336 11.1907L5.26003 9.83398H3.9987C3.86609 9.83398 3.73891 9.78131 3.64514 9.68754C3.55138 9.59377 3.4987 9.46659 3.4987 9.33398C3.4987 9.20138 3.55138 9.0742 3.64514 8.98043C3.73891 8.88666 3.86609 8.83398 3.9987 8.83398H5.56003L6.06003 7.16732H4.66536C4.53276 7.16732 4.40558 7.11464 4.31181 7.02087C4.21804 6.9271 4.16536 6.79993 4.16536 6.66732C4.16536 6.53471 4.21804 6.40753 4.31181 6.31376C4.40558 6.22 4.53276 6.16732 4.66536 6.16732H6.36003L6.85336 4.52398C6.87222 4.46108 6.90329 4.4025 6.94479 4.3516C6.98629 4.3007 7.03741 4.25847 7.09523 4.22733C7.15305 4.19619 7.21645 4.17675 7.28178 4.17011C7.34712 4.16347 7.41313 4.16977 7.47603 4.18865Z" fill="currentColor"/>
</svg>
