<?xml version="1.0" encoding="UTF-8" standalone="no"?>
<!DOCTYPE svg PUBLIC "-//W3C//DTD SVG 1.1//EN" "http://www.w3.org/Graphics/SVG/1.1/DTD/svg11.dtd">
<svg width="100%" height="100%" viewBox="0 0 32 32" version="1.1" xmlns="http://www.w3.org/2000/svg" xmlns:xlink="http://www.w3.org/1999/xlink" xml:space="preserve" xmlns:serif="http://www.serif.com/" style="fill-rule:evenodd;clip-rule:evenodd;stroke-linejoin:round;stroke-miterlimit:1.41421;">
    <g transform="matrix(1.20003,0,0,1.20003,-3.20048,-3.20048)">
        <path d="M16,9.333C12.32,9.333 9.333,12.32 9.333,16C9.333,19.68 12.32,22.667 16,22.667C19.68,22.667 22.667,19.68 22.667,16C22.667,12.32 19.68,9.333 16,9.333ZM16,2.667C8.64,2.667 2.667,8.64 2.667,16C2.667,23.36 8.64,29.333 16,29.333C23.36,29.333 29.333,23.36 29.333,16C29.333,8.64 23.36,2.667 16,2.667ZM16,26.667C10.107,26.667 5.333,21.894 5.333,16C5.333,10.106 10.106,5.333 16,5.333C21.893,5.333 26.667,10.106 26.667,16C26.667,21.894 21.894,26.667 16,26.667Z" style="fill-rule:nonzero;"/>
    </g>
</svg>
