<?xml version="1.0" encoding="UTF-8"?>
<svg width="25px" height="25px" viewBox="0 0 25 25" version="1.1" xmlns="http://www.w3.org/2000/svg" xmlns:xlink="http://www.w3.org/1999/xlink">
    <!-- Generator: Sketch 46.1 (44463) - http://www.bohemiancoding.com/sketch -->
    <title>angular</title>
    <desc>Created with Sketch.</desc>
    <defs></defs>
    <g id="Page-1" stroke="none" stroke-width="1" fill="none" fill-rule="evenodd">
        <g id="angular" fill-rule="nonzero">
            <g transform="translate(1.500000, 1.000000)" id="Shape">
                <polygon fill="#DD0031" points="10.7799997 0 10.7799997 0 10.7799997 0 0.103212763 3.80740416 1.73168081 17.9246166 10.7799997 22.9361696 10.7799997 22.9361696 10.7799997 22.9361696 19.8283187 17.9246166 21.4567867 3.80740416"></polygon>
                <polygon fill="#C3002F" points="10.7799997 0 10.7799997 2.54591483 10.7799997 2.53444675 10.7799997 14.1516167 10.7799997 14.1516167 10.7799997 22.9361696 10.7799997 22.9361696 19.8283187 17.9246166 21.4567867 3.80740416"></polygon>
                <path d="M10.7799997,2.53444675 L4.10557437,17.5002974 L4.10557437,17.5002974 L6.59414877,17.5002974 L6.59414877,17.5002974 L7.9359147,14.1516167 L13.6011486,14.1516167 L14.9429145,17.5002974 L14.9429145,17.5002974 L17.4314889,17.5002974 L17.4314889,17.5002974 L10.7799997,2.53444675 L10.7799997,2.53444675 L10.7799997,2.53444675 L10.7799997,2.53444675 L10.7799997,2.53444675 Z M12.7295742,12.0873614 L8.83042531,12.0873614 L10.7799997,7.39691471 L12.7295742,12.0873614 Z" fill="#FFFFFF"></path>
            </g>
        </g>
    </g>
</svg>