<?xml version="1.0" encoding="UTF-8"?>
<svg width="25px" height="25px" viewBox="0 0 25 25" version="1.1" xmlns="http://www.w3.org/2000/svg" xmlns:xlink="http://www.w3.org/1999/xlink">
    <!-- Generator: Sketch 46.1 (44463) - http://www.bohemiancoding.com/sketch -->
    <title>react</title>
    <desc>Created with Sketch.</desc>
    <defs></defs>
    <g id="Page-1" stroke="none" stroke-width="1" fill="none" fill-rule="evenodd">
        <g id="react" fill-rule="nonzero" fill="#53C1DE">
            <g transform="translate(0.000000, 1.000000)">
                <path d="M20.2514648,7.37028702 C22.841903,8.26203719 24.5158585,9.65894616 24.5158585,11.1033033 C24.5158585,12.609651 22.7269446,14.0824558 19.9772843,14.9934188 C19.8319676,15.0416101 19.6830418,15.0878906 19.53125,15.1326851 C19.5853855,15.350501 19.6336829,15.5643894 19.6750807,15.7738196 C20.217922,18.5157311 19.7999108,20.7693614 18.5133959,21.5140965 C17.267748,22.2351605 15.2545431,21.5268342 13.2160751,19.7727369 C12.9945029,19.5816117 12.7783014,19.3843473 12.5677225,19.1811736 C12.4005392,19.3428371 12.2335683,19.4970703 12.0672342,19.6424932 C9.96274202,21.4820397 7.80156675,22.2452446 6.51388417,21.5027386 C5.26717476,20.7835853 4.87538213,18.6857804 5.37703804,16.0437542 C5.43185336,15.7566226 5.49468218,15.4710789 5.56545092,15.1874575 C5.34761179,15.1252754 5.13135634,15.0576735 4.91688604,14.9847147 C2.27188774,14.0807575 0.531058933,12.5898013 0.531058933,11.1033033 C0.531058933,9.66414742 2.15278957,8.27657948 4.69206437,7.39130435 C4.97590438,7.29237432 5.27258832,7.19938859 5.57978091,7.11213485 C5.51397262,6.84887494 5.45486444,6.58398533 5.40251359,6.31772249 C4.87633747,3.62899117 5.24658203,1.48023522 6.49658203,0.756623641 C7.80018682,0.00201681386 9.97123387,0.812351393 12.1371858,2.73554263 C12.2719138,2.85543147 12.4044094,2.97780584 12.5346043,3.10260275 C12.72902,2.91492149 12.9281466,2.73218231 13.1317935,2.55456012 C15.1984969,0.756092901 17.24482,0.00371518342 18.4959876,0.725309952 C19.8009723,1.47768767 20.1831055,3.76326851 19.598654,6.60039487 C19.5621345,6.77664913 19.5223575,6.95221273 19.4793436,7.12699558 C19.7387199,7.20159487 19.9961753,7.28271776 20.2514648,7.37028702 Z M19.6550187,14.0208899 L19.6551248,14.0208899 C22.029127,13.2342264 23.4913171,12.030507 23.4913171,11.1033033 C23.4913171,10.2328889 22.1375042,9.10315472 19.9179475,8.33920686 C19.6884553,8.26012653 19.450259,8.18529212 19.2049507,8.11417289 C18.909859,9.06897503 18.5160496,10.0777004 18.0376401,11.1083984 C18.5388714,12.1640413 18.9486031,13.185929 19.2521867,14.1468877 C19.38933,14.106233 19.5239258,14.0643045 19.6550187,14.0208899 Z M18.6699643,15.9728473 L18.6699643,15.9728473 C18.6324941,15.7835853 18.5889733,15.5900773 18.5401452,15.3926418 C17.5467052,15.6222401 16.4512568,15.7904849 15.291695,15.8933424 C14.6325153,16.8476138 13.9570949,17.7069888 13.28125,18.4462041 C13.4831437,18.6404552 13.6845066,18.8240914 13.8843835,18.9960513 C15.6275476,20.4961362 17.2440769,21.0648777 17.9999575,20.6273353 C18.3551291,20.4217264 18.6423658,19.9083942 18.7852412,19.1383959 C18.944251,18.2814623 18.9099652,17.1852709 18.6699643,15.9728473 Z M8.70796535,20.5517578 L8.7080715,20.5517578 C9.52987007,20.2614428 10.4623811,19.6844217 11.3929815,18.8709027 C11.5487341,18.7344172 11.7011028,18.5941176 11.849949,18.4501316 C11.1495839,17.6984969 10.4546323,16.8401834 9.79110054,15.9063986 C8.62877887,15.8121391 7.54129161,15.6557829 6.55889096,15.4384978 C6.49315892,15.7022686 6.43475501,15.9678117 6.3837466,16.2348208 C5.95480214,18.4941831 6.26921281,20.1787534 7.02583645,20.6150221 C7.38132643,20.8199941 7.96949304,20.8125637 8.70796535,20.5517578 Z M5.2482804,14.0151579 L5.2482804,14.0151579 C5.44409671,14.0817782 5.64152104,14.1435751 5.84037449,14.2004925 C6.14332116,13.2127845 6.54265031,12.1758237 7.02392578,11.1282481 C6.5488069,10.096064 6.1551036,9.07534392 5.85491678,8.09909986 C5.57726981,8.17760712 5.30198064,8.26422568 5.02940302,8.35884426 C2.85771909,9.11599864 1.55560037,10.2300229 1.55560037,11.1033033 C1.55560037,11.513778 1.85599949,12.0195737 2.45085343,12.5290846 C3.11289912,13.0959154 4.07874066,13.6154042 5.2482804,14.0151579 Z M6.40805452,6.12092391 L6.40805452,6.12081776 C6.45678629,6.36849799 6.51175308,6.61491058 6.57290251,6.85982082 C7.56559952,6.634893 8.64544412,6.46696671 9.77347996,6.36241084 C10.4312797,5.43403957 11.1198624,4.58220109 11.8166185,3.83396315 C11.6963528,3.71900476 11.5762993,3.6078677 11.4567765,3.5017196 C9.58665931,1.8412449 7.81239385,1.17888077 7.00991423,1.64338485 C6.25658118,2.07944124 5.95724355,3.81719175 6.40805452,6.12092391 Z M16.7539912,8.67559018 L16.7539912,8.67559018 C16.9922638,9.08698571 17.2222972,9.50309844 17.4439538,9.92367952 C17.7473251,9.21354874 18.0049465,8.52082626 18.2116168,7.85835598 C17.5231403,7.70115065 16.7899754,7.57271145 16.0246476,7.47611668 C16.2763473,7.87065741 16.5195182,8.27057469 16.7539912,8.67559018 Z M12.5349227,4.56617272 L12.5349227,4.56617272 C12.054921,5.08406929 11.577573,5.65493376 11.1115829,6.2694251 C12.0560013,6.22522269 13.0019755,6.22543522 13.946374,6.27006199 C13.4808084,5.64983865 13.0074941,5.078125 12.5349227,4.56617272 Z M8.28878651,8.68259596 L8.28878651,8.68259596 C8.52439036,8.27409958 8.76955389,7.87119188 9.02407439,7.47420601 C8.26373556,7.56920856 7.53396739,7.69435717 6.8496306,7.84752887 C7.05810547,8.51944633 7.31339164,9.21524711 7.61177395,9.92293648 C7.82776485,9.50427912 8.05349716,9.09071968 8.28878651,8.68259596 Z M9.0459409,14.8055367 L9.0459409,14.8055367 C8.7851828,14.4009985 8.53410659,13.990301 8.29292629,13.5737942 C8.05656728,13.1654872 7.82984303,12.7516783 7.61294158,12.3327106 C7.30819039,13.0555791 7.04727836,13.7663468 6.83551291,14.4501529 C7.5196374,14.5990786 8.26044497,14.7178584 9.0459409,14.8055367 Z M12.5632643,17.7128269 C13.0326512,17.1959918 13.5042672,16.615574 13.9713188,15.9808084 C13.4956692,16.002038 13.0123769,16.0129713 12.5234587,16.0129713 C12.0475968,16.0129713 11.5793775,16.0038426 11.1201809,15.9857974 C11.5932829,16.6092052 12.0776367,17.1887738 12.5632643,17.7128269 Z M17.4537194,12.2958772 L17.4537194,12.2958772 C17.2313137,12.7245871 16.9993934,13.1482937 16.7581309,13.5666822 C16.5207989,13.9783552 16.2753005,14.385266 16.0217816,14.7871731 C16.8129034,14.6922767 17.5636889,14.5644744 18.2591712,14.4057829 C18.0445397,13.733547 17.7742867,13.0266007 17.4537194,12.2958772 Z M15.8705206,13.0548361 L15.8706267,13.0548361 C16.2370963,12.4201264 16.5808448,11.7725664 16.9012186,11.1133874 C16.577515,10.4608566 16.2326697,9.81902888 15.86723,9.18892238 C15.5038431,8.56046272 15.1183918,7.94502229 14.7115956,7.34375 C13.9984927,7.28940217 13.266177,7.26095448 12.5235649,7.26095448 C11.7842434,7.26095448 11.052883,7.28918988 10.3395678,7.34311311 C9.92861483,7.94531208 9.54068237,8.56290225 9.17660921,9.19454823 L9.17660921,9.19433594 C8.81242178,9.82584743 8.47211807,10.4708347 8.15641984,11.1279297 C8.4729231,11.7848279 8.81425827,12.4294698 9.1796875,13.060462 C9.54683282,13.6948197 9.93784353,14.3150619 10.3518809,14.9198582 C11.0510785,14.9651834 11.7771315,14.9884299 12.5234587,14.9884299 C13.2728643,14.9884299 14.0082583,14.9622113 14.7198752,14.9113663 C15.1234456,14.3051586 15.5071968,13.685988 15.8705206,13.0548361 Z M17.9842476,1.61292035 L17.9842476,1.61292035 C17.2301715,1.17803159 15.5752165,1.78647249 13.804454,3.32753057 C13.6164442,3.49157088 13.432539,3.66025687 13.2529085,3.8334324 C13.9384129,4.57201087 14.6212636,5.42533543 15.2803371,6.36379076 C16.4116636,6.46993886 17.4922512,6.6408373 18.4872835,6.87043563 C18.5260996,6.71215869 18.5620542,6.55319369 18.5951299,6.39361838 C19.099758,3.94403872 18.7873641,2.07615065 17.9842476,1.61292035 Z" id="Combined-Shape"></path>
                <path d="M12.5234587,8.96155316 C13.7063731,8.96155316 14.6652089,9.92049507 14.6652089,11.1033033 C14.6652089,12.2862177 13.7063731,13.2451596 12.5234587,13.2451596 C11.3406505,13.2451596 10.3817086,12.2862177 10.3817086,11.1033033 C10.3817086,9.92049507 11.3406505,8.96155316 12.5234587,8.96155316" id="Shape"></path>
            </g>
        </g>
    </g>
</svg>