<?xml version="1.0" encoding="UTF-8"?>
<svg width="25px" height="25px" viewBox="0 0 25 25" version="1.1" xmlns="http://www.w3.org/2000/svg" xmlns:xlink="http://www.w3.org/1999/xlink">
    <!-- Generator: Sketch 46.1 (44463) - http://www.bohemiancoding.com/sketch -->
    <title>vanilla</title>
    <desc>Created with Sketch.</desc>
    <defs></defs>
    <g id="Page-1" stroke="none" stroke-width="1" fill="none" fill-rule="evenodd">
        <g id="vanilla" fill-rule="nonzero">
            <g id="js">
                <rect id="background" fill="#F7DF1E" x="0" y="0" width="25" height="25"></rect>
                <path d="M6.5734127,20.8918155 L8.48660714,19.7339782 C8.85570437,20.3883929 9.19146825,20.9420635 9.9968254,20.9420635 C10.7687996,20.9420635 11.255506,20.6400893 11.255506,19.4654762 L11.255506,11.477381 L13.6048611,11.477381 L13.6048611,19.4987103 C13.6048611,21.9320437 12.1785218,23.0396329 10.0975198,23.0396329 C8.21810516,23.0396329 7.12718254,22.0662698 6.5734127,20.8916171" id="j" fill="#000000"></path>
                <path d="M14.8809524,20.6400794 L16.7938988,19.5324901 C17.2974702,20.3548611 17.9519345,20.9589782 19.1098214,20.9589782 C20.0832837,20.9589782 20.7040179,20.4722817 20.7040179,19.8009921 C20.7040179,18.9954861 20.066369,18.7101687 18.9923115,18.2404266 L18.4051091,17.9885417 C16.7100694,17.2670635 15.5856647,16.3608631 15.5856647,14.4477679 C15.5856647,12.6857143 16.9281746,11.3431052 19.0259425,11.3431052 C20.519494,11.3431052 21.593502,11.8633929 22.365377,13.2227183 L20.5361607,14.397371 C20.1333829,13.6758433 19.6971726,13.3905754 19.0259425,13.3905754 C18.3378968,13.3905754 17.9015377,13.8268849 17.9015377,14.397371 C17.9015377,15.1022321 18.3378968,15.3875496 19.3446925,15.8239087 L19.931994,16.0755952 C21.9290179,16.931498 23.0534226,17.8040675 23.0534226,19.7674107 C23.0534226,21.881994 21.3920635,23.0398313 19.1601687,23.0398313 C16.9785714,23.0398313 15.5688988,21.9994544 14.8809524,20.6400794" id="s" fill="#000000"></path>
            </g>
        </g>
    </g>
</svg>