<!-- Generated by IcoMoon.io -->
<svg version="1.1" xmlns="http://www.w3.org/2000/svg" width="100%" height="100%" viewBox="0 0 32 32">
<title>arrows</title>
<path d="M6.414 17l2.294 2.292-1.416 1.416-4.706-4.708 4.706-4.708c0.472 0.472 0.944 0.944 1.416 1.416l-2.294 2.292h8.586v-8.586l-2.292 2.294-1.416-1.416 4.708-4.706c1.57 1.568 3.138 3.138 4.708 4.706l-1.416 1.416-2.292-2.294v8.586h8.586l-2.294-2.292 1.416-1.416c1.568 1.57 3.138 3.138 4.706 4.708l-4.706 4.708-1.416-1.416 2.294-2.292h-8.586v8.586l2.292-2.294c0.472 0.472 0.944 0.944 1.416 1.416l-4.708 4.706-4.708-4.706 1.416-1.416 2.292 2.294v-8.586h-8.586z"></path>
</svg>
