<svg width="114" height="24" viewBox="0 0 114 24" xmlns="http://www.w3.org/2000/svg"><g fill="#707070"><g><path d="M27.206.265c-.112-.154-.292-.247-.48-.247-.097 0-.192.025-.276.072-3.517 1.976-7.594 3.02-11.79 3.022-4.196 0-8.272-1.046-11.79-3.02-.083-.05-.178-.074-.275-.074-.188 0-.368.093-.48.247-.166.227-.17.608.112.835 1.76 1.348 3.703 2.4 5.77 3.12 2.144.746 4.386 1.125 6.663 1.126 2.278 0 4.52-.38 6.663-1.126 2.068-.72 4.01-1.772 5.773-3.12.28-.227.276-.608.11-.835"/><path d="M14.663 7.336c.9 0 1.42-.055 1.604-.055.222 0 .434.188.434.45 0 .075-.016.13-.034.178-.12.327-.663 1.504-1.674 2.514-.114.113-.242.135-.33.135h-.002c-.088 0-.217-.022-.33-.135-1.012-1.01-1.556-2.187-1.675-2.514-.018-.048-.035-.103-.035-.18 0-.26.212-.447.434-.447.183 0 .705.056 1.603.056h.006"/><path d="M23.164 5.894c-.084-.066-.184-.1-.286-.1-.057 0-.114.01-.17.032-1.018.4-2.053.704-2.998.93-.192.046-.348.193-.413.37-.688 1.935-2.446 3.777-4.29 5.708-.074.072-.178.167-.346.167-.168 0-.27-.09-.346-.166-1.844-1.93-3.6-3.767-4.29-5.702-.064-.176-.22-.323-.413-.37-.944-.225-1.982-.54-3-.94-.054-.02-.11-.03-.168-.03-.102 0-.2.032-.285.098-.13.102-.198.268-.183.427.156 1.61.776 3.183 1.894 4.83 1.05 1.55 2.422 2.986 3.747 4.373 2.443 2.557 4.75 4.972 4.952 7.772.018.252.223.448.47.448h2.87c.13 0 .252-.055.342-.15.087-.097.134-.226.128-.358-.09-1.872-.777-3.747-2.098-5.73-.277-.417-.574-.822-.884-1.218-.126-.16-.074-.36.023-.462l.286-.302c1.326-1.387 2.696-2.822 3.748-4.372 1.118-1.648 1.737-3.212 1.893-4.82.016-.163-.056-.335-.183-.434"/><path d="M11.582 17.698c-.068-.072-.168-.147-.335-.147-.214 0-.34.153-.39.228-1.206 1.885-1.83 3.664-1.916 5.452-.005.132.042.263.13.36.09.095.215.15.344.15h2.865c.245 0 .453-.198.47-.45.063-.862.325-1.726.8-2.633.165-.314.037-.61-.058-.735-.472-.63-1.05-1.302-1.91-2.224"/></g><g><path d="M34.07 6.457c-.057-.186-.225-.313-.415-.313h-4.068c-.19 0-.358.127-.415.313L24.04 23.16c-.04.136-.018.284.065.4.082.114.212.182.35.182h2.8c.194 0 .364-.13.42-.32l3.533-12.285s.092-.307.412-.307c.326 0 .405.32.405.32l1.64 5.824H31.46c-.195 0-.367.133-.42.326l-.632 2.307c-.037.135-.01.28.073.39.082.112.21.178.347.178h3.75l.99 3.253c.055.186.224.314.415.314h2.8c.14 0 .27-.068.353-.183.082-.116.105-.264.064-.4L34.07 6.457"/><path d="M46.27 21.168c-.02-.125-.087-.236-.19-.306-.102-.07-.227-.092-.347-.062-.454.116-.89.18-1.226.18-.637 0-.92-.283-.92-.92v-6.4h2.5c.24 0 .435-.2.435-.446v-1.996c0-.247-.195-.447-.436-.447h-2.5V7.69c0-.13-.055-.253-.15-.338-.095-.085-.222-.124-.346-.106l-2.574.368c-.216.03-.376.22-.376.443v2.714h-1.402c-.24 0-.436.2-.436.448v1.996c0 .247.195.447.436.447h1.402v6.814c0 2.34 1.198 3.526 3.56 3.526.674 0 1.816-.16 2.563-.425.198-.07.32-.277.288-.49l-.28-1.917"/><path d="M51.036 5.818H48.46c-.24 0-.435.2-.435.448v17.028c0 .248.196.448.436.448h2.576c.24 0 .435-.2.435-.448V6.266c0-.248-.194-.448-.434-.448"/><path d="M59.383 18.986v1.556c-.427.233-1.2.568-2.13.568-.803 0-1.047-.25-1.047-1.075 0-.8.15-1.05 1.097-1.05h2.08zm-1.728-8.474c-1.303 0-2.89.21-4.04.538-.215.06-.35.277-.314.502l.302 1.918c.02.12.084.226.18.296.097.07.217.095.334.072 1.07-.214 2.175-.332 3.11-.332 1.86 0 2.157.403 2.157 1.695v1.128h-2.76c-2.637 0-3.763 1.116-3.763 3.733 0 2.504 1.234 3.94 3.385 3.94 1.245 0 2.49-.354 3.538-1.003l.11.415c.052.195.224.33.42.33h2.08c.24 0 .436-.2.436-.448v-8.04c0-3.457-1.403-4.742-5.175-4.742z"/><path d="M69.28 15.714c-1.598-.423-1.598-.44-1.598-1.34 0-.604.06-.894 1.375-.894.902 0 2.232.162 3.086.312.118.02.238-.01.334-.082.095-.073.158-.183.172-.304l.242-2.014c.027-.227-.116-.44-.334-.49-.988-.237-2.362-.39-3.5-.39-3.96 0-4.77 1.534-4.77 3.836 0 2.532.457 3.383 3.49 4.14 2 .495 2 .86 2 1.47 0 .798-.068 1.074-1.376 1.074-1.053 0-2.27-.168-3.343-.462-.12-.032-.244-.012-.347.055-.103.066-.173.174-.195.297l-.34 1.91c-.04.222.086.438.294.507 1.17.388 2.847.66 4.08.66 3.835 0 4.62-1.647 4.62-4.12 0-2.73-.472-3.237-3.892-4.166"/><path d="M79.227 15.714c-1.597-.423-1.597-.44-1.597-1.34 0-.604.058-.894 1.374-.894.902 0 2.232.162 3.087.312.118.02.24-.01.334-.082.096-.073.158-.183.173-.304l.242-2.014c.027-.227-.117-.44-.334-.49-.988-.237-2.363-.39-3.502-.39-3.96 0-4.77 1.534-4.77 3.836 0 2.532.458 3.383 3.493 4.14 1.997.495 1.997.86 1.997 1.47 0 .798-.066 1.074-1.374 1.074-1.053 0-2.272-.168-3.344-.462-.117-.032-.243-.012-.345.055-.102.066-.173.174-.195.297l-.34 1.91c-.04.222.086.438.294.507 1.168.388 2.847.66 4.08.66 3.834 0 4.62-1.647 4.62-4.12 0-2.73-.473-3.237-3.893-4.166"/><path d="M87.56 5.818h-2.576c-.24 0-.436.2-.436.447V8.6c0 .248.196.448.436.448h2.575c.24 0 .435-.2.435-.447V6.266c0-.247-.196-.447-.436-.447"/><path d="M87.56 10.77h-2.576c-.24 0-.436.2-.436.448v12.076c0 .248.196.448.436.448h2.575c.24 0 .435-.2.435-.448V11.218c0-.247-.196-.447-.436-.447"/><path d="M95.97 18.986v1.556c-.426.233-1.2.568-2.13.568-.802 0-1.047-.25-1.047-1.075 0-.8.152-1.05 1.098-1.05h2.08zm-1.727-8.474c-1.303 0-2.89.21-4.04.538-.215.06-.35.277-.315.502l.302 1.918c.02.12.084.226.18.296.097.07.217.095.333.072 1.07-.214 2.176-.332 3.112-.332 1.858 0 2.155.403 2.155 1.695v1.128h-2.76c-2.637 0-3.762 1.116-3.762 3.733 0 2.504 1.234 3.94 3.385 3.94 1.244 0 2.49-.354 3.538-1.003l.11.415c.053.195.225.33.42.33h2.08c.24 0 .437-.2.437-.448v-8.04c0-3.457-1.403-4.742-5.174-4.742z"/><path d="M108.938 10.512c-1.364 0-3.223.483-4.793 1.24l-.188-.66c-.054-.19-.225-.32-.418-.32h-1.908c-.24 0-.436.2-.436.446v12.076c0 .248.196.448.436.448h2.575c.24 0 .436-.2.436-.448V14.93c.927-.484 2.23-.984 3.01-.984.58 0 .796.22.796.816v8.532c0 .248.195.448.435.448h2.575c.24 0 .435-.2.435-.448v-8.868c0-2.597-.994-3.914-2.957-3.914"/></g></g></svg>