<svg xmlns="http://www.w3.org/2000/svg" xml:space="preserve" style="fill-rule:evenodd;clip-rule:evenodd;stroke-linejoin:round;stroke-miterlimit:2" viewBox="0 0 32 32"><path d="M7.515 7.515c-4.683 4.682-4.683 12.288 0 16.97 4.682 4.683 12.288 4.683 16.97 0 4.683-4.682 4.683-12.288 0-16.97-4.682-4.683-12.288-4.683-16.97 0Zm1.414 1.414c3.903-3.903 10.239-3.903 14.142 0 3.903 3.903 3.903 10.239 0 14.142-3.903 3.903-10.239 3.903-14.142 0-3.903-3.903-3.903-10.239 0-14.142ZM15 15l-.001-7.485h2.002L17 15l7.485-.001v2.002L17 17l.001 7.485h-2.002L15 17l-7.485.001v-2.002L15 15Z" style="fill-rule:nonzero"/></svg>