<?xml version="1.0" encoding="iso-8859-1"?>
<!-- Generator: Adobe Illustrator 19.0.0, SVG Export Plug-In . SVG Version: 6.00 Build 0)  -->
<svg version="1.1" id="Layer_1" xmlns="http://www.w3.org/2000/svg" xmlns:xlink="http://www.w3.org/1999/xlink" x="0px" y="0px"
	 viewBox="0 0 512 512" style="enable-background:new 0 0 512 512;" xml:space="preserve">
<g>
	<path style="fill:#00B4D7;" d="M243.663,212.819c-6.786,0-12.337-5.552-12.337-12.337v-61.687c0-6.786,5.552-12.337,12.337-12.337
		h24.675c6.786,0,12.337,5.552,12.337,12.337V58.602h80.193c-6.786,0-12.337-5.552-12.337-12.337V21.59
		c0-6.786,5.552-12.337,12.337-12.337h61.687c6.786,0,12.337,5.552,12.337,12.337v24.675c0,6.786-5.552,12.337-12.337,12.337h80.193
		v80.193c0-6.786-5.552-12.337-12.337-12.337h-24.675c-6.786,0-12.337,5.552-12.337,12.337v61.687
		c0,6.786,5.552,12.337,12.337,12.337h24.675c6.786,0,12.337-5.552,12.337-12.337v80.193h-80.193
		c6.786,0,12.337-5.552,12.337-12.337v-24.675c0-6.786-5.552-12.337-12.337-12.337h-61.687c-6.786,0-12.337,5.552-12.337,12.337
		v24.675c0,6.786,5.552,12.337,12.337,12.337h-80.193v-80.193c0,6.786-5.552,12.337-12.337,12.337H243.663z"/>
	<path style="fill:#00B4D7;" d="M58.602,280.675h80.193c-6.786,0-12.337-5.552-12.337-12.337v-24.675
		c0-6.786,5.552-12.337,12.337-12.337h61.687c6.786,0,12.337,5.552,12.337,12.337v24.675c0,6.786-5.552,12.337-12.337,12.337h80.193
		v80.193c0-6.786-5.552-12.337-12.337-12.337h-24.675c-6.786,0-12.337,5.552-12.337,12.337v61.687
		c0,6.786,5.552,12.337,12.337,12.337h24.675c6.786,0,12.337-5.552,12.337-12.337v80.193h-80.193
		c6.786,0,12.337-5.552,12.337-12.337v-24.675c0-6.786-5.552-12.337-12.337-12.337h-61.687c-6.786,0-12.337,5.552-12.337,12.337
		v24.675c0,6.786,5.552,12.337,12.337,12.337H58.602v-80.193c0,6.786-5.552,12.337-12.337,12.337H21.59
		c-6.786,0-12.337-5.552-12.337-12.337v-61.687c0-6.786,5.552-12.337,12.337-12.337h24.675c6.786,0,12.337,5.552,12.337,12.337
		V280.675z"/>
</g>
<g>
	<path style="fill:#FFD311;" d="M243.663,434.892c-6.786,0-12.337-5.552-12.337-12.337v-61.687c0-6.786,5.552-12.337,12.337-12.337
		h24.675c6.786,0,12.337,5.552,12.337,12.337v-80.193h80.193c-6.786,0-12.337-5.552-12.337-12.337v-24.675
		c0-6.786,5.552-12.337,12.337-12.337h61.687c6.786,0,12.337,5.552,12.337,12.337v24.675c0,6.786-5.552,12.337-12.337,12.337h80.193
		v80.193c0-6.786-5.552-12.337-12.337-12.337h-24.675c-6.786,0-12.337,5.552-12.337,12.337v61.687
		c0,6.786,5.552,12.337,12.337,12.337h24.675c6.786,0,12.337-5.552,12.337-12.337v80.193h-80.193
		c6.786,0,12.337-5.552,12.337-12.337v-24.675c0-6.786-5.552-12.337-12.337-12.337h-61.687c-6.786,0-12.337,5.552-12.337,12.337
		v24.675c0,6.786,5.552,12.337,12.337,12.337h-80.193v-80.193c0,6.786-5.552,12.337-12.337,12.337H243.663z"/>
	<path style="fill:#FFD311;" d="M58.602,58.602h80.193c-6.786,0-12.337-5.552-12.337-12.337V21.59
		c0-6.786,5.552-12.337,12.337-12.337h61.687c6.786,0,12.337,5.552,12.337,12.337v24.675c0,6.786-5.552,12.337-12.337,12.337h80.193
		v80.193c0-6.786-5.552-12.337-12.337-12.337h-24.675c-6.786,0-12.337,5.552-12.337,12.337v61.687
		c0,6.786,5.552,12.337,12.337,12.337h24.675c6.786,0,12.337-5.552,12.337-12.337v80.193h-80.193
		c6.786,0,12.337-5.552,12.337-12.337v-24.675c0-6.786-5.552-12.337-12.337-12.337h-61.687c-6.786,0-12.337,5.552-12.337,12.337
		v24.675c0,6.786,5.552,12.337,12.337,12.337H58.602v-80.193c0,6.786-5.552,12.337-12.337,12.337H21.59
		c-6.786,0-12.337-5.552-12.337-12.337v-61.687c0-6.786,5.552-12.337,12.337-12.337h24.675c6.786,0,12.337,5.552,12.337,12.337
		V58.602z"/>
</g>
<path style="fill:#FABD1B;" d="M86.661,58.602H58.602v80.193c0-6.786-5.552-12.337-12.337-12.337H21.59
	c-6.786,0-12.337,5.552-12.337,12.337v61.687c0,6.786,5.552,12.337,12.337,12.337h24.675c6.786,0,12.337-5.552,12.337-12.337v80.193
	h80.193c-6.786,0-12.337-5.552-12.337-12.337v-24.675c0-6.786,5.552-12.337,12.337-12.337h61.687
	c6.786,0,12.337,5.552,12.337,12.337v24.675c0,6.786-5.552,12.337-12.337,12.337h80.193v-80.193c0,6.786-5.552,12.337-12.337,12.337
	h-24.675c-6.786,0-12.337-5.552-12.337-12.337v-6.262C162.707,177.131,107.874,125.479,86.661,58.602z"/>
<path style="fill:#00A4D4;" d="M308.734,58.602h-28.059v80.193c0-6.786-5.552-12.337-12.337-12.337h-24.675
	c-6.786,0-12.337,5.552-12.337,12.337v61.687c0,6.786,5.552,12.337,12.337,12.337h24.675c6.786,0,12.337-5.552,12.337-12.337v80.193
	h80.193c-6.786,0-12.337-5.552-12.337-12.337v-24.675c0-6.786,5.552-12.337,12.337-12.337h61.687
	c6.786,0,12.337,5.552,12.337,12.337v24.675c0,6.786-5.552,12.337-12.337,12.337h80.193v-80.193c0,6.786-5.552,12.337-12.337,12.337
	h-24.675c-6.786,0-12.337-5.552-12.337-12.337v-6.262C384.78,177.131,329.946,125.479,308.734,58.602z"/>
<path style="fill:#FABD1B;" d="M308.734,280.675h-28.059v80.193c0-6.786-5.552-12.337-12.337-12.337h-24.675
	c-6.786,0-12.337,5.552-12.337,12.337v61.687c0,6.786,5.552,12.337,12.337,12.337h24.675c6.786,0,12.337-5.552,12.337-12.337v80.193
	h80.193c-6.786,0-12.337-5.552-12.337-12.337v-24.675c0-6.786,5.552-12.337,12.337-12.337h61.687
	c6.786,0,12.337,5.552,12.337,12.337v24.675c0,6.786-5.552,12.337-12.337,12.337h80.193v-80.193c0,6.786-5.552,12.337-12.337,12.337
	h-24.675c-6.786,0-12.337-5.552-12.337-12.337v-6.262C384.78,399.203,329.946,347.552,308.734,280.675z"/>
<path style="fill:#00A4D4;" d="M86.661,280.675H58.602v80.193c0-6.786-5.552-12.337-12.337-12.337H21.59
	c-6.786,0-12.337,5.552-12.337,12.337v61.687c0,6.786,5.552,12.337,12.337,12.337h24.675c6.786,0,12.337-5.552,12.337-12.337v80.193
	h80.193c-6.786,0-12.337-5.552-12.337-12.337v-24.675c0-6.786,5.552-12.337,12.337-12.337h61.687
	c6.786,0,12.337,5.552,12.337,12.337v24.675c0,6.786-5.552,12.337-12.337,12.337h80.193v-80.193c0,6.786-5.552,12.337-12.337,12.337
	h-24.675c-6.786,0-12.337-5.552-12.337-12.337v-6.262C162.707,399.203,107.874,347.552,86.661,280.675z"/>
<g>
	<rect x="138.795" y="160.386" style="fill:#FFFFFF;" width="24.675" height="18.506"/>
	<rect x="360.867" y="160.386" style="fill:#FFFFFF;" width="24.675" height="18.506"/>
	<rect x="360.867" y="382.458" style="fill:#FFFFFF;" width="24.675" height="18.506"/>
	<rect x="138.795" y="382.458" style="fill:#FFFFFF;" width="24.675" height="18.506"/>
</g>
<path d="M465.735,135.711h24.675c1.672,0,3.084,1.413,3.084,3.084H512V49.349h-68.075c0.144-1.007,0.22-2.037,0.22-3.084V21.59
	c0-11.904-9.686-21.59-21.59-21.59h-61.687c-11.904,0-21.59,9.686-21.59,21.59v24.675c0,1.047,0.074,2.078,0.22,3.084H221.854
	c0.144-1.007,0.22-2.037,0.22-3.084V21.59C222.072,9.686,212.386,0,200.482,0h-61.687c-11.904,0-21.59,9.686-21.59,21.59v24.675
	c0,1.047,0.075,2.078,0.22,3.084H83.276v18.506h55.519V49.349c-1.672,0-3.084-1.413-3.084-3.084V21.59
	c0-1.672,1.413-3.084,3.084-3.084h61.687c1.672,0,3.084,1.413,3.084,3.084v24.675c0,1.672-1.413,3.084-3.084,3.084v18.506h70.94
	v49.569c-1.007-0.144-2.037-0.22-3.084-0.22h-24.675c-11.904,0-21.59,9.686-21.59,21.59v61.687c0,11.904,9.686,21.59,21.59,21.59
	h24.675c1.047,0,2.078-0.075,3.084-0.22v49.569h-49.569c0.144-1.007,0.22-2.037,0.22-3.084v-24.675
	c0-11.904-9.686-21.59-21.59-21.59h-61.687c-11.904,0-21.59,9.686-21.59,21.59v24.675c0,1.047,0.075,2.078,0.22,3.084H67.855v-70.94
	H49.349c0,1.672-1.413,3.084-3.084,3.084H21.59c-1.672,0-3.084-1.413-3.084-3.084v-61.687c0-1.672,1.413-3.084,3.084-3.084h24.675
	c1.672,0,3.084,1.413,3.084,3.084h18.506V83.276H49.349v34.149c-1.007-0.144-2.037-0.22-3.084-0.22H21.59
	c-11.904,0-21.59,9.686-21.59,21.59v61.687c0,11.904,9.686,21.59,21.59,21.59h24.675c1.047,0,2.078-0.075,3.084-0.22v117.643
	c-1.007-0.144-2.037-0.218-3.084-0.218H21.59c-11.904,0-21.59,9.686-21.59,21.59v61.687c0,11.904,9.686,21.59,21.59,21.59h24.675
	c1.047,0,2.078-0.074,3.084-0.22V512h89.446v-18.506c-1.672,0-3.084-1.413-3.084-3.084v-24.675c0-1.672,1.413-3.084,3.084-3.084
	h61.687c1.672,0,3.084,1.413,3.084,3.084v24.675c0,1.672-1.413,3.084-3.084,3.084V512h160.386v-18.506
	c-1.672,0-3.084-1.413-3.084-3.084v-24.675c0-1.672,1.413-3.084,3.084-3.084h61.687c1.672,0,3.084,1.413,3.084,3.084v24.675
	c0,1.672-1.413,3.084-3.084,3.084V512h55.519v-18.506h-34.176c0.146-1.01,0.247-2.034,0.247-3.084v-24.675
	c0-11.904-9.686-21.59-21.59-21.59h-61.687c-11.904,0-21.59,9.686-21.59,21.59v24.675c0,1.05,0.101,2.074,0.247,3.084h-49.596
	v-70.94h-18.506c0,1.672-1.413,3.084-3.084,3.084h-24.675c-1.672,0-3.084-1.413-3.084-3.084v-61.687
	c0-1.672,1.413-3.084,3.084-3.084h24.675c1.672,0,3.084,1.413,3.084,3.084h18.506v-70.94h70.94v-18.506
	c-1.672,0-3.084-1.413-3.084-3.084v-24.675c0-1.672,1.413-3.084,3.084-3.084h61.687c1.672,0,3.084,1.413,3.084,3.084v24.675
	c0,1.672-1.413,3.084-3.084,3.084v18.506h70.94v49.596c-1.01-0.146-2.034-0.247-3.084-0.247h-24.675
	c-11.904,0-21.59,9.686-21.59,21.59v61.687c0,11.904,9.686,21.59,21.59,21.59h24.675c1.05,0,2.074-0.101,3.084-0.247v34.176H512
	v-55.519h-18.506c0,1.672-1.413,3.084-3.084,3.084h-24.675c-1.672,0-3.084-1.413-3.084-3.084v-61.687
	c0-1.672,1.413-3.084,3.084-3.084h24.675c1.672,0,3.084,1.413,3.084,3.084H512V200.482h-18.506c0,1.672-1.413,3.084-3.084,3.084
	h-24.675c-1.672,0-3.084-1.413-3.084-3.084v-61.687C462.651,137.123,464.063,135.711,465.735,135.711z M268.337,339.277h-24.675
	c-11.904,0-21.59,9.686-21.59,21.59v61.687c0,11.904,9.686,21.59,21.59,21.59h24.675c1.05,0,2.074-0.101,3.084-0.247v49.596h-49.596
	c0.146-1.01,0.247-2.034,0.247-3.084v-24.675c0-11.904-9.686-21.59-21.59-21.59h-61.687c-11.904,0-21.59,9.686-21.59,21.59v24.675
	c0,1.05,0.101,2.074,0.247,3.084H67.855v-70.94H49.349c0,1.672-1.413,3.084-3.084,3.084H21.59c-1.672,0-3.084-1.413-3.084-3.084
	v-61.687c0-1.672,1.413-3.084,3.084-3.084h24.675c1.672,0,3.084,1.413,3.084,3.084h18.506v-70.94h70.94v-18.506
	c-1.672,0-3.084-1.413-3.084-3.084v-24.675c0-1.672,1.413-3.084,3.084-3.084h61.687c1.672,0,3.084,1.413,3.084,3.084v24.675
	c0,1.672-1.413,3.084-3.084,3.084v18.506h70.94v49.596C270.411,339.378,269.387,339.277,268.337,339.277z M465.735,222.072h24.675
	c1.05,0,2.074-0.101,3.084-0.247v49.596h-49.569c0.144-1.007,0.22-2.037,0.22-3.084v-24.675c0-11.904-9.686-21.59-21.59-21.59
	h-61.687c-11.904,0-21.59,9.686-21.59,21.59v24.675c0,1.047,0.074,2.078,0.22,3.084h-49.569v-70.94h-18.506
	c0,1.672-1.413,3.084-3.084,3.084h-24.675c-1.672,0-3.084-1.413-3.084-3.084v-61.687c0-1.672,1.413-3.084,3.084-3.084h24.675
	c1.672,0,3.084,1.413,3.084,3.084h18.506v-70.94h70.94V49.349c-1.672,0-3.084-1.413-3.084-3.084V21.59
	c0-1.672,1.413-3.084,3.084-3.084h61.687c1.672,0,3.084,1.413,3.084,3.084v24.675c0,1.672-1.413,3.084-3.084,3.084v18.506h70.94
	v49.596c-1.01-0.146-2.034-0.247-3.084-0.247h-24.675c-11.904,0-21.59,9.686-21.59,21.59v61.687
	C444.145,212.386,453.831,222.072,465.735,222.072z"/>
<rect x="101.783" y="160.386" width="24.675" height="18.506"/>
<rect x="175.807" y="160.386" width="24.675" height="18.506"/>
<rect x="323.855" y="160.386" width="24.675" height="18.506"/>
<rect x="397.88" y="160.386" width="24.675" height="18.506"/>
<rect x="323.855" y="382.458" width="24.675" height="18.506"/>
<rect x="397.88" y="382.458" width="24.675" height="18.506"/>
<rect x="101.783" y="382.458" width="24.675" height="18.506"/>
<rect x="175.807" y="382.458" width="24.675" height="18.506"/>
<g>
	<polygon style="fill:#FFFFFF;" points="104.867,132.627 86.361,132.627 86.361,86.361 126.458,86.361 126.458,104.867 
		104.867,104.867 	"/>
	<polygon style="fill:#FFFFFF;" points="326.94,132.627 308.434,132.627 308.434,86.361 348.53,86.361 348.53,104.867 
		326.94,104.867 	"/>
	<polygon style="fill:#FFFFFF;" points="104.867,354.699 86.361,354.699 86.361,308.434 126.458,308.434 126.458,326.94 
		104.867,326.94 	"/>
	<polygon style="fill:#FFFFFF;" points="326.94,354.699 308.434,354.699 308.434,308.434 348.53,308.434 348.53,326.94 
		326.94,326.94 	"/>
</g>
<g>
</g>
<g>
</g>
<g>
</g>
<g>
</g>
<g>
</g>
<g>
</g>
<g>
</g>
<g>
</g>
<g>
</g>
<g>
</g>
<g>
</g>
<g>
</g>
<g>
</g>
<g>
</g>
<g>
</g>
</svg>
