<?xml version="1.0" encoding="iso-8859-1"?>
<!-- Generator: Adobe Illustrator 19.0.0, SVG Export Plug-In . SVG Version: 6.00 Build 0)  -->
<svg version="1.1" id="Layer_1" xmlns="http://www.w3.org/2000/svg" xmlns:xlink="http://www.w3.org/1999/xlink" x="0px" y="0px"
	 viewBox="0 0 512 512" style="enable-background:new 0 0 512 512;" xml:space="preserve">
<polygon style="fill:#D9F2A7;" points="256,0 0,0 0,256 128,374.154 256,256 301.011,128 "/>
<path style="fill:#C22A4D;" d="M374.154,384L256,512H0V256h82.663c-3.376,6.785-5.3,14.415-5.3,22.505
	c0,27.963,22.674,50.637,50.637,50.637s50.637-22.674,50.637-50.637c0-8.091-1.924-15.72-5.3-22.505H256L374.154,384z"/>
<path style="fill:#FE547B;" d="M384,137.846L256,256v82.663c6.785-3.376,14.415-5.3,22.505-5.3
	c27.963,0,50.637,22.674,50.637,50.637c0,27.963-22.674,50.637-50.637,50.637c-8.091,0-15.72-1.924-22.505-5.3V512h256V256
	L384,137.846z"/>
<path style="fill:#B8DE6F;" d="M512,0v256h-82.663c3.376-6.785,5.3-14.415,5.3-22.505c0-27.963-22.674-50.637-50.637-50.637
	c-27.963,0-50.637,22.674-50.637,50.637c0,8.091,1.924,15.72,5.3,22.505H256v-82.663c-6.785,3.376-14.415,5.3-22.505,5.3
	c-27.963,0-50.637-22.674-50.637-50.637s22.674-50.637,50.637-50.637c8.091,0,15.72,1.924,22.505,5.3V0H512z"/>
<g>
	<circle style="fill:#C22A4D;" cx="460.8" cy="460.8" r="8.44"/>
	<circle style="fill:#C22A4D;" cx="427.042" cy="427.042" r="8.44"/>
</g>
<circle style="fill:#B8DE6F;" cx="51.2" cy="51.2" r="8.44"/>
<g>
</g>
<g>
</g>
<g>
</g>
<g>
</g>
<g>
</g>
<g>
</g>
<g>
</g>
<g>
</g>
<g>
</g>
<g>
</g>
<g>
</g>
<g>
</g>
<g>
</g>
<g>
</g>
<g>
</g>
</svg>
