<?xml version="1.0" encoding="iso-8859-1"?>
<!-- Generator: Adobe Illustrator 19.0.0, SVG Export Plug-In . SVG Version: 6.00 Build 0)  -->
<svg version="1.1" id="Layer_1" xmlns="http://www.w3.org/2000/svg" xmlns:xlink="http://www.w3.org/1999/xlink" x="0px" y="0px"
	 viewBox="0 0 512 512" style="enable-background:new 0 0 512 512;" xml:space="preserve">
<radialGradient id="SVGID_1_" cx="256" cy="252.4785" r="256" gradientTransform="matrix(1 0 0 -1 0 508.4785)" gradientUnits="userSpaceOnUse">
	<stop  offset="0.5044" style="stop-color:#FCBE41"/>
	<stop  offset="0.9949" style="stop-color:#FCB23F"/>
</radialGradient>
<circle style="fill:url(#SVGID_1_);" cx="256" cy="256" r="256"/>
<g>
	<path style="fill:#2B3E51;" d="M403,150.938c0-4.938-4.002-8.939-8.939-8.939H116.939c-4.938,0-8.939,4.002-8.939,8.939v182.121
		c0,4.938,4.002,8.939,8.939,8.939H394.06c4.938,0,8.939-4.002,8.939-8.939V150.938H403z"/>
	<path style="fill:#32ACFC;" d="M385.445,151.999H255.82H126.197c-4.916,0-9.197,3.4-9.197,8.317v140.351
		c0,4.917,4.281,9.332,9.197,9.332H255.82h129.625c4.916,0,7.555-4.415,7.555-9.332V160.316
		C393,155.399,390.361,151.999,385.445,151.999z"/>
	<path style="fill:#2C97DE;" d="M385.445,151.999H255v158h130.445c4.916,0,7.555-4.415,7.555-9.332V160.316
		C393,155.399,390.361,151.999,385.445,151.999z"/>
	<path style="fill:#ECF0F1;" d="M81,387.999v6.996c0,0.447,0.28,0.865,0.328,1.303c0.658,5.892,5.871,10.701,11.902,10.701h324.756
		c6.033,0,11.291-4.809,12-10.701c0.051-0.438,0.014-0.855,0.014-1.303v-6.996H81z"/>
	<circle style="fill:#2C97DE;" cx="368.429" cy="396.455" r="4.794"/>
	<circle style="fill:#1ECA6B;" cx="381.782" cy="396.455" r="4.794"/>
	<polygon style="fill:#BDC3C7;" points="403.323,318.999 108.318,318.999 81.5,387.999 430.144,387.999 	"/>
	<path style="fill:#33495F;" d="M98.215,377.999c-1.967,0-2.984-1.273-2.262-3.104l17.135-42.991
		c0.722-1.829,2.922-2.905,4.889-2.905h275.689c1.967,0,4.166,1.188,4.889,3.018l17.135,43.031c0.723,1.831-0.296,2.951-2.263,2.951
		H98.215z"/>
</g>
<path style="fill:#32495D;" d="M349.266,62.481c-29.316-15.816-86.199,134.078-86.199,134.078l8.059,4.544l8.266,4.659
	C279.391,205.763,377.977,79.375,349.266,62.481z"/>
<path style="fill:#2A3E4F;" d="M349.266,62.481l-78.141,138.622l8.266,4.659C279.391,205.763,377.977,79.375,349.266,62.481z"/>
<rect x="256.13" y="199.6" transform="matrix(-0.8712 -0.491 0.491 -0.8712 392.8189 525.7139)" style="fill:#F4C342;" width="18.504" height="23.44"/>
<rect x="264.787" y="201.854" transform="matrix(-0.8712 -0.4909 0.4909 -0.8712 399.2849 531.8977)" style="fill:#F89B36;" width="9.253" height="23.438"/>
<path style="fill:#EC7C2D;" d="M251.558,216.978c0,0-35.58-0.94-35.981,34.941c-0.402,35.883-23.408,26.454-23.408,26.454
	s32.38,31.45,68.07-2.693c30.735-29.404,7.438-49.617,7.438-49.617L251.558,216.978z"/>
<path style="fill:#D9521E;" d="M267.677,226.063l-16.119-9.085c0,0-2.257-0.06-5.636,0.424c2.074,1.938,21.545,21.56-7.615,49.455
	c-15.012,14.364-29.44,17.118-41.118,15.489c10.435,7.211,35.775,19.428,63.05-6.666
	C290.974,246.276,267.677,226.063,267.677,226.063z"/>
<g>
</g>
<g>
</g>
<g>
</g>
<g>
</g>
<g>
</g>
<g>
</g>
<g>
</g>
<g>
</g>
<g>
</g>
<g>
</g>
<g>
</g>
<g>
</g>
<g>
</g>
<g>
</g>
<g>
</g>
</svg>
