<?xml version="1.0" encoding="iso-8859-1"?>
<!-- Generator: Adobe Illustrator 19.0.0, SVG Export Plug-In . SVG Version: 6.00 Build 0)  -->
<svg version="1.1" id="Layer_1" xmlns="http://www.w3.org/2000/svg" xmlns:xlink="http://www.w3.org/1999/xlink" x="0px" y="0px"
	 viewBox="0 0 511.986 511.986" style="enable-background:new 0 0 511.986 511.986;" xml:space="preserve">
<polygon style="fill:#434A54;" points="447.988,328.643 426.661,269.309 394.662,260.653 339.991,253.309 255.993,261.731 
	232.666,277.27 227.244,325.3 217.994,451.983 240.666,473.983 349.319,479.983 454.66,465.983 "/>
<g>
	<path style="fill:#656D78;" d="M330.336,220.654c-94.436,0-170.996,23.421-170.996,52.335c0,28.904,76.561,52.311,170.996,52.311
		s170.995-23.406,170.995-52.311C501.331,244.075,424.77,220.654,330.336,220.654z M330.68,297.769
		c-53.03,0-95.998-9.938-95.998-22.155c0-12.211,42.968-22.133,95.998-22.133c53.014,0,95.981,9.922,95.981,22.133
		C426.661,287.832,383.693,297.769,330.68,297.769z"/>
	<polygon style="fill:#656D78;" points="220.666,105.985 18,223.31 39.999,260.653 237.994,143.312 	"/>
</g>
<polygon style="fill:#E6E9ED;" points="291.492,64.986 227.244,105.985 241.744,139.984 309.242,100.485 "/>
<path style="fill:#FFCE54;" d="M423.223,278.77c0,10.03-41.468,18.124-92.622,18.124c-51.14,0-92.607-8.094-92.607-18.124
	c0-10.008,41.468-18.117,92.607-18.117C381.756,260.653,423.223,268.763,423.223,278.77z"/>
<path d="M437.332,149.265c5.891,0,10.656-4.781,10.656-10.656c0-5.906-4.766-10.688-10.656-10.688s-10.671,4.781-10.671,10.688
	C426.661,144.484,431.441,149.265,437.332,149.265z"/>
<path d="M255.993,181.264c0,5.891,4.782,10.656,10.672,10.656c5.891,0,10.672-4.766,10.672-10.656s-4.781-10.656-10.672-10.656
	C260.775,170.608,255.993,175.374,255.993,181.264z"/>
<path d="M458.66,213.264c5.891,0,10.672-4.781,10.672-10.656c0-5.906-4.781-10.687-10.672-10.687s-10.672,4.78-10.672,10.687
	C447.988,208.482,452.769,213.264,458.66,213.264z"/>
<path d="M373.334,63.924h10.656v10.688c0,5.875,4.781,10.655,10.672,10.655s10.672-4.78,10.672-10.655V63.924h10.655
	c5.906,0,10.672-4.766,10.672-10.656s-4.766-10.655-10.672-10.655h-10.655V32.05c0-5.906-4.781-10.672-10.672-10.672
	S383.99,26.144,383.99,32.05v10.562h-10.656c-5.891,0-10.672,4.765-10.672,10.655S367.443,63.924,373.334,63.924z"/>
<path d="M319.992,159.921c0,5.906,4.781,10.688,10.672,10.688h10.671v10.656c0,5.891,4.766,10.656,10.656,10.656
	c5.905,0,10.671-4.766,10.671-10.656v-10.656h10.672c5.891,0,10.656-4.781,10.656-10.688c0-5.874-4.766-10.655-10.656-10.655
	h-10.672v-10.563c0-5.875-4.766-10.656-10.671-10.656c-5.891,0-10.656,4.781-10.656,10.656v10.562h-10.671
	C324.773,149.265,319.992,154.047,319.992,159.921z"/>
<path d="M511.986,277.27c0-35.352-81.17-64.007-181.322-64.007c-100.154,0-181.34,28.655-181.34,64.007
	c0,19.312,24.281,36.654,62.654,48.373l-5.327,140.465c0,13.531,57.312,24.5,127.997,24.5c70.701,0,128.012-10.969,128.012-24.5
	l-5.422-143.027C491.018,311.456,511.986,295.238,511.986,277.27z M440.972,457.358c-4.969,1.844-14.358,4.531-30.904,7
	c-21.312,3.156-48.094,4.906-75.42,4.906c-27.312,0-54.093-1.75-75.404-4.906c-16.562-2.469-25.938-5.156-30.906-7l4.781-126.121
	c28.156,6.344,61.623,10.031,97.545,10.031c39.342,0,75.748-4.438,105.465-11.938L440.972,457.358z M484.082,285.801
	c-4.938,4.125-14.547,10.344-32.297,16.593c-15.375,5.438-33.437,9.719-53.686,12.75c-21.328,3.188-44.015,4.781-67.436,4.781
	c-23.438,0-46.125-1.594-67.436-4.781c-20.25-3.031-38.312-7.312-53.687-12.75c-17.75-6.249-27.359-12.468-32.297-16.593
	c-5.202-4.343-6.577-7.468-6.577-8.53s1.375-4.188,6.577-8.539c4.938-4.125,14.547-10.344,32.297-16.609
	c15.374-5.422,33.437-9.703,53.687-12.734c21.311-3.188,43.998-4.781,67.436-4.781c23.421,0,46.107,1.594,67.436,4.781
	c20.249,3.031,38.311,7.312,53.686,12.734c17.75,6.266,27.359,12.484,32.297,16.609c5.202,4.352,6.577,7.477,6.577,8.539
	S489.284,281.458,484.082,285.801z"/>
<path d="M330.664,245.263c-64.796,0-117.342,14.328-117.342,32.008c0,17.655,52.546,31.998,117.342,31.998
	c64.795,0,117.324-14.343,117.324-31.998C447.988,259.591,395.459,245.263,330.664,245.263z M398.287,281.645
	c-19.047,4.062-43.062,6.28-67.623,6.28c-24.562,0-48.577-2.219-67.639-6.28c-6.72-1.438-12.173-2.938-16.484-4.375
	c4.312-1.438,9.765-2.969,16.484-4.406c19.062-4.039,43.076-6.258,67.639-6.258c24.562,0,48.576,2.219,67.623,6.258
	c6.734,1.438,12.172,2.969,16.499,4.406C410.459,278.708,405.021,280.208,398.287,281.645z"/>
<path d="M295.601,51.174L0,221.842l31.999,55.429l295.603-170.66L295.601,51.174z M298.461,98.798l-55.42,31.999l-10.672-18.483
	l55.42-31.999L298.461,98.798z M29.155,229.638L213.9,122.985l10.656,18.469L39.811,248.122L29.155,229.638z"/>
<g>
</g>
<g>
</g>
<g>
</g>
<g>
</g>
<g>
</g>
<g>
</g>
<g>
</g>
<g>
</g>
<g>
</g>
<g>
</g>
<g>
</g>
<g>
</g>
<g>
</g>
<g>
</g>
<g>
</g>
</svg>
