<?xml version="1.0" encoding="iso-8859-1"?>
<!-- Generator: Adobe Illustrator 19.0.0, SVG Export Plug-In . SVG Version: 6.00 Build 0)  -->
<svg version="1.1" id="Layer_1" xmlns="http://www.w3.org/2000/svg" xmlns:xlink="http://www.w3.org/1999/xlink" x="0px" y="0px"
	 viewBox="0 0 481.882 481.882" style="enable-background:new 0 0 481.882 481.882;" xml:space="preserve">
<polygon style="fill:#FFEBB8;" points="240.941,455.529 60.235,395.294 60.235,154.353 240.941,214.588 "/>
<polygon style="fill:#FFF4D1;" points="180.706,274.824 0,214.588 60.235,154.353 240.941,214.588 "/>
<polygon style="fill:#F7B90C;" points="240.941,455.529 421.647,395.294 421.647,154.353 240.941,214.588 "/>
<polygon style="fill:#FFF4D1;" points="301.176,274.824 481.882,214.588 421.647,154.353 240.941,214.588 "/>
<polygon style="fill:#AB6C24;" points="60.235,154.353 240.941,214.588 421.647,154.353 240.941,94.118 "/>
<g>
	<polygon style="fill:#FFFFFF;" points="60.235,154.353 0,94.118 180.706,26.353 240.941,94.118 	"/>
	<polygon style="fill:#FFFFFF;" points="421.647,154.353 481.882,94.118 301.176,26.353 240.941,94.118 	"/>
</g>
<polygon style="fill:#804B1C;" points="60.235,154.353 240.941,94.118 240.941,214.588 "/>
<g>
</g>
<g>
</g>
<g>
</g>
<g>
</g>
<g>
</g>
<g>
</g>
<g>
</g>
<g>
</g>
<g>
</g>
<g>
</g>
<g>
</g>
<g>
</g>
<g>
</g>
<g>
</g>
<g>
</g>
</svg>
