<?xml version="1.0" encoding="iso-8859-1"?>
<!-- Generator: Adobe Illustrator 19.0.0, SVG Export Plug-In . SVG Version: 6.00 Build 0)  -->
<svg version="1.1" id="Layer_1" xmlns="http://www.w3.org/2000/svg" xmlns:xlink="http://www.w3.org/1999/xlink" x="0px" y="0px"
	 viewBox="0 0 505 505" style="enable-background:new 0 0 505 505;" xml:space="preserve">
<circle style="fill:#FD8469;" cx="252.5" cy="252.5" r="252.5"/>
<path style="fill:#FFD05B;" d="M274.1,331.7L173.3,230.9c-1.3-1.3-3.3-1.3-4.6,0l-22,22c-0.4,0.4-0.7,0.9-0.8,1.4l-25.1,86.6
	c-0.3,1.1,0,2.4,0.8,3.2l39.4,39.4c0.8,0.8,2.1,1.2,3.2,0.8l86.9-25.4c0.5-0.2,1-0.4,1.4-0.8l21.8-21.8
	C275.4,335.1,275.4,333,274.1,331.7z"/>
<g>
	<path style="fill:#FFFFFF;" d="M292.7,266.7c-3.9-3.9-10.3-3.9-14.2,0l-34.7,34.7l14.2,14.2l34.7-34.7
		C296.6,277,296.6,270.6,292.7,266.7z"/>
	<path style="fill:#FFFFFF;" d="M238.3,212.3c-3.9-3.9-10.3-3.9-14.2,0L189.4,247l14.2,14.2l34.7-34.7
		C242.2,222.6,242.2,216.2,238.3,212.3z"/>
</g>
<path style="fill:#2B3B4E;" d="M149.2,371.9l-67,67c-5.6-5.1-11-10.5-16.1-16.1l67-67L149.2,371.9z"/>
<path style="fill:#FFD05B;" d="M331.7,274.1L230.9,173.3c-1.3-1.3-1.3-3.3,0-4.6l22-22c0.4-0.4,0.9-0.7,1.4-0.8l86.6-25.1
	c1.1-0.3,2.4,0,3.2,0.8l39.4,39.4c0.8,0.8,1.2,2.1,0.8,3.2l-25.4,86.9c-0.2,0.5-0.4,1-0.8,1.4l-21.8,21.8
	C335.1,275.4,333,275.4,331.7,274.1z"/>
<path style="fill:#2B3B4E;" d="M438.9,82.2l-67.1,67.1l-16.1-16.1l67-67C428.4,71.2,433.8,76.6,438.9,82.2z"/>
<g>
</g>
<g>
</g>
<g>
</g>
<g>
</g>
<g>
</g>
<g>
</g>
<g>
</g>
<g>
</g>
<g>
</g>
<g>
</g>
<g>
</g>
<g>
</g>
<g>
</g>
<g>
</g>
<g>
</g>
</svg>
