<?xml version="1.0" encoding="iso-8859-1"?>
<!-- Generator: Adobe Illustrator 19.0.0, SVG Export Plug-In . SVG Version: 6.00 Build 0)  -->
<svg version="1.1" id="Layer_1" xmlns="http://www.w3.org/2000/svg" xmlns:xlink="http://www.w3.org/1999/xlink" x="0px" y="0px"
	 viewBox="0 0 512 512" style="enable-background:new 0 0 512 512;" xml:space="preserve">
<circle style="fill:#FF5050;" cx="211.862" cy="158.897" r="158.897"/>
<path style="fill:#C84146;" d="M308.586,176.754c-1.358-0.136-2.705-0.202-4.034-0.202l0,0c-12.318-0.001-23.78,5.568-31.511,15.516
	c-5.664,7.287-8.213,16.538-8.213,25.768v64.341c0,4.578-3.488,8.511-8.057,8.811c-3.172,0.207-6.371,0.323-9.598,0.323
	c-87.756,0-158.897-71.14-158.897-158.897c0-44.015,17.908-83.838,46.822-112.612c-53.251,29.453-87.836,88.536-81.353,155.041
	c6.41,65.75,54.46,121.274,118.413,137.831c33.13,8.577,64.599,5.824,92.67-4.121v0.007c32.727-11.587,60.562-33.459,79.448-61.897
	v-29.128C344.276,196.669,328.599,178.756,308.586,176.754z"/>
<g>
	<path style="fill:#FFFFFF;" d="M211.862,218.483c-6.094,0-11.034-4.94-11.034-11.034v-5.017c0-9.987,7.423-18.431,17.267-19.638
		c25.75-3.147,44.879-25.117,44.518-51.104c-0.371-26.75-23.276-49.66-50.026-50.03c-13.673-0.138-26.612,5-36.362,14.612
		c-9.75,9.618-15.121,22.454-15.121,36.143c0,6.094-4.94,11.034-11.034,11.034c-6.094,0-11.034-4.94-11.034-11.034
		c0-19.642,7.706-38.056,21.689-51.853c13.741-13.551,31.862-20.974,51.129-20.974c0.345,0,0.69,0,1.043,0.004
		c39.034,0.543,71.241,32.75,71.785,71.789c0.509,36.565-25.906,67.591-61.784,73.031v3.038
		C222.897,213.543,217.956,218.483,211.862,218.483z"/>
	<path style="fill:#FFFFFF;" d="M211.862,260.414c-7.3,0-13.241-5.941-13.241-13.241c0-7.3,5.941-13.241,13.241-13.241
		c7.3,0,13.241,5.941,13.241,13.241C225.103,254.473,219.162,260.414,211.862,260.414z"/>
</g>
<path style="fill:#F0C087;" d="M459.034,423.724v-64.949c0-11.544-8.307-22.063-19.794-23.213
	c-13.209-1.322-24.344,9.016-24.344,21.955v-7.57c0-11.544-8.307-22.063-19.794-23.213c-13.209-1.322-24.344,9.016-24.344,21.955
	v-7.57c0-11.544-8.307-22.063-19.794-23.213c-13.209-1.322-24.344,9.016-24.344,21.955V217.534c0-11.544-8.307-22.063-19.794-23.213
	c-13.209-1.322-24.344,9.016-24.344,21.955v207.448c0,48.754,39.522,88.276,88.276,88.276l0,0
	C419.512,512,459.034,472.478,459.034,423.724z"/>
<g>
	<path style="fill:#E6AF78;" d="M300.138,423.724V216.276c0-9.01,5.454-16.657,13.193-20.085c-2.024-0.934-4.175-1.636-6.504-1.869
		c-13.209-1.323-24.344,9.015-24.344,21.954v207.448c0,48.754,39.522,88.276,88.276,88.276c2.98,0,5.923-0.158,8.828-0.446
		C334.978,507.124,300.138,469.497,300.138,423.724z"/>
	<path style="fill:#E6AF78;" d="M335.448,353.103c4.875,0,8.828-3.953,8.828-8.828v-4.414c0-9.01,5.454-16.657,13.193-20.085
		c-2.024-0.934-4.175-1.636-6.504-1.869c-13.209-1.323-24.344,9.015-24.344,21.954v4.414
		C326.621,349.151,330.573,353.103,335.448,353.103L335.448,353.103z"/>
	<path style="fill:#E6AF78;" d="M379.586,361.931c4.875,0,8.828-3.953,8.828-8.828v-4.414c0-9.01,5.454-16.657,13.193-20.085
		c-2.024-0.934-4.175-1.636-6.504-1.869c-13.209-1.323-24.344,9.015-24.344,21.954v4.414
		C370.759,357.978,374.711,361.931,379.586,361.931L379.586,361.931z"/>
	<path style="fill:#E6AF78;" d="M423.724,370.759c4.875,0,8.828-3.953,8.828-8.828v-4.414c0-9.01,5.454-16.657,13.193-20.085
		c-2.024-0.934-4.175-1.636-6.504-1.869c-13.209-1.323-24.344,9.015-24.344,21.954v4.414
		C414.897,366.806,418.849,370.759,423.724,370.759L423.724,370.759z"/>
</g>
<g>
</g>
<g>
</g>
<g>
</g>
<g>
</g>
<g>
</g>
<g>
</g>
<g>
</g>
<g>
</g>
<g>
</g>
<g>
</g>
<g>
</g>
<g>
</g>
<g>
</g>
<g>
</g>
<g>
</g>
</svg>
