<svg width="100%" height="100%" viewBox="0 0 18 18" version="1.1" xmlns="http://www.w3.org/2000/svg" xmlns:xlink="http://www.w3.org/1999/xlink" xml:space="preserve" xmlns:serif="http://www.serif.com/" style="fill-rule:evenodd;clip-rule:evenodd;stroke-linejoin:round;stroke-miterlimit:2;">
    <g id="columns" transform="matrix(0.0175781,0,0,0.0175781,0,0)">
        <path fill="#03a9f4" d="M170.667,341.333L341.334,341.333L341.334,170.666L170.667,170.666L170.667,341.333ZM426.667,853.333L597.334,853.333L597.334,682.666L426.667,682.666L426.667,853.333ZM170.667,853.333L341.334,853.333L341.334,682.666L170.667,682.666L170.667,853.333ZM170.667,597.333L341.334,597.333L341.334,426.666L170.667,426.666L170.667,597.333ZM426.667,597.333L597.334,597.333L597.334,426.666L426.667,426.666L426.667,597.333ZM682.667,170.667L682.667,341.334L853.334,341.334L853.334,170.667L682.667,170.667ZM426.667,341.333L597.334,341.333L597.334,170.666L426.667,170.666L426.667,341.333ZM682.667,597.333L853.334,597.333L853.334,426.666L682.667,426.666L682.667,597.333ZM682.667,853.333L853.334,853.333L853.334,682.666L682.667,682.666L682.667,853.333Z" style="fill-rule:nonzero;"/>
    </g>
</svg>
