<!-- Generated by IcoMoon.io -->
<svg version="1.1" xmlns="http://www.w3.org/2000/svg" width="32" height="32" viewBox="0 0 32 32">
<title>checkbox-checked</title>
<path d="M26.252 32h-20.503c-3.173 0-5.749-2.576-5.749-5.748v-20.503c0-3.173 2.576-5.749 5.749-5.749h20.503c3.173 0 5.748 2.576 5.748 5.749v20.503c0 3.173-2.576 5.748-5.748 5.748zM26.313 2.229h-20.597c-1.893 0-3.431 1.538-3.431 3.433v20.597c0 1.893 1.538 3.431 3.431 3.431h20.597c1.895 0 3.433-1.538 3.433-3.431v-20.597c0-1.895-1.538-3.433-3.433-3.433zM25.952 9.952l-13.381 13.378-6.523-6.521 1.618-1.618 4.905 4.907 11.762-11.765c0.539 0.539 1.079 1.079 1.618 1.618z"></path>
</svg>
