<?xml version="1.0" encoding="utf-8"?>
<!-- Generator: Adobe Illustrator 23.1.0, SVG Export Plug-In . SVG Version: 6.00 Build 0)  -->
<svg version="1.1" id="Layer_1" xmlns="http://www.w3.org/2000/svg" xmlns:xlink="http://www.w3.org/1999/xlink" x="0px" y="0px"
	 viewBox="0 0 367.2 387.4" style="enable-background:new 0 0 367.2 387.4;" xml:space="preserve">
<style type="text/css">
	.st0{fill:#FFF2C9;}
	.st1{font-family:'ArialMT';}
	.st2{font-size:12px;}
	.st3{fill:#FFD98A;}
	.st4{fill:#BFE8FF;}
	.st5{fill:none;stroke:#000000;stroke-miterlimit:10;}
</style>
<g>
	<rect x="0.5" y="0.5" class="st0" width="366.3" height="386.5"/>
	<path d="M366.3,0.9v385.6H0.9V0.9H366.3 M367.2,0H0v387.4h367.2V0L367.2,0z"/>
</g>
<text transform="matrix(1 0 0 1 7.6455 15.8647)" class="st1 st2">Server Side Row Model</text>
<g>
	<g>
		<rect x="13.5" y="39.8" class="st3" width="134" height="222.9"/>
		<path d="M147,40.2v222H14v-222H147 M148,39.3H13v223.8h135V39.3L148,39.3z"/>
	</g>
	<text transform="matrix(1 0 0 1 22.1789 56.3387)" class="st1 st2">Row Store</text>
	<text transform="matrix(1 0 0 1 22.1789 70.7386)" class="st1 st2">(top level)</text>
	<g>
		<g>
			<rect x="43.2" y="92.2" class="st4" width="71.1" height="36"/>
			<path d="M113.8,92.7v35H43.7v-35H113.8 M114.8,91.7H42.7v37h72.1V91.7L114.8,91.7z"/>
		</g>
		<text transform="matrix(1 0 0 1 51.3228 106.6885)" class="st1 st2">Row Node</text>
		<text transform="matrix(1 0 0 1 49.0228 121.0885)" class="st1 st2">(expanded)</text>
	</g>
	<g>
		<g>
			<rect x="43.5" y="139.9" class="st4" width="71.1" height="21.5"/>
			<path d="M114.1,140.4v20.5H44v-20.5H114.1 M115.1,139.4H43v22.5h72.1V139.4L115.1,139.4z"/>
		</g>
		<text transform="matrix(1 0 0 1 52.5903 154.3837)" class="st1 st2">Row Node</text>
	</g>
	<g>
		<g>
			<rect x="43.6" y="222.2" class="st4" width="71.1" height="21.5"/>
			<path d="M114.2,222.7v20.5H44.1v-20.5H114.2 M115.2,221.7H43.1v22.5h72.1V221.7L115.2,221.7z"/>
		</g>
		<text transform="matrix(1 0 0 1 52.7173 236.7312)" class="st1 st2">Row Node</text>
	</g>
	<g>
		<g>
			<rect x="42.4" y="173" class="st4" width="71.1" height="36"/>
			<path d="M113,173.5v35H42.9v-35H113 M114,172.5H41.9v37H114V172.5L114,172.5z"/>
		</g>
		<text transform="matrix(1 0 0 1 50.5332 187.528)" class="st1 st2">Row Node</text>
		<text transform="matrix(1 0 0 1 48.2332 201.928)" class="st1 st2">(expanded)</text>
	</g>
</g>
<g>
	<g>
		<rect x="239.8" y="69.7" class="st3" width="111.1" height="127.9"/>
		<path d="M350.5,70.2v127H240.2v-127H350.5 M351.3,69.3H239.4v128.8h111.9V69.3L351.3,69.3z"/>
	</g>
	<text transform="matrix(1 0 0 1 248.5634 86.2909)" class="st1 st2">Row Store</text>
	<text transform="matrix(1 0 0 1 248.5634 100.6909)" class="st1 st2">(child level)</text>
	<g>
		<g>
			<rect x="259.1" y="121.6" class="st4" width="71.1" height="21.5"/>
			<path d="M329.7,122.1v20.5h-70.1v-20.5H329.7 M330.7,121.1h-72.1v22.5h72.1V121.1L330.7,121.1z"/>
		</g>
		<text transform="matrix(1 0 0 1 268.2209 136.0764)" class="st1 st2">Row Node</text>
	</g>
	<g>
		<g>
			<rect x="259.2" y="158.2" class="st4" width="71.1" height="21.5"/>
			<path d="M329.7,158.7v20.5h-70.1v-20.5H329.7 M330.7,157.7h-72.1v22.5h72.1V157.7L330.7,157.7z"/>
		</g>
		<text transform="matrix(1 0 0 1 268.2748 172.7359)" class="st1 st2">Row Node</text>
	</g>
</g>
<g>
	<g>
		<line class="st5" x1="117.9" y1="119" x2="239" y2="99.4"/>
	</g>
	<line class="st5" x1="232.4" y1="93.3" x2="239" y2="99.4"/>
	<line class="st5" x1="234.6" y1="108.6" x2="239" y2="99.4"/>
	<text transform="matrix(0.9876 -0.1569 0.1569 0.9876 160.4335 107.9434)" class="st1 st2">children</text>
</g>
<g>
	<g>
		<line class="st5" x1="113" y1="191" x2="225" y2="237.7"/>
	</g>
	<line class="st5" x1="222.7" y1="229.1" x2="225" y2="237.7"/>
	<line class="st5" x1="216.5" y1="243.1" x2="225" y2="237.7"/>
	<text transform="matrix(0.9147 0.404 -0.404 0.9147 155.3612 201.9272)" class="st1 st2">children</text>
</g>
<g>
	<g>
		<rect x="227.4" y="237.2" class="st3" width="111.1" height="127.9"/>
		<path d="M338.1,237.6v127H227.8v-127H338.1 M338.9,236.7H227v128.8h111.9V236.7L338.9,236.7z"/>
	</g>
	<text transform="matrix(1 0 0 1 236.1634 253.7194)" class="st1 st2">Row Store</text>
	<text transform="matrix(1 0 0 1 236.1634 268.1194)" class="st1 st2">(child level)</text>
	<g>
		<g>
			<rect x="246.7" y="289" class="st4" width="71.1" height="21.5"/>
			<path d="M317.3,289.5V310h-70.1v-20.5H317.3 M318.3,288.5h-72.1V311h72.1V288.5L318.3,288.5z"/>
		</g>
		<text transform="matrix(1 0 0 1 255.8209 303.5049)" class="st1 st2">Row Node</text>
	</g>
	<g>
		<g>
			<rect x="246.8" y="325.6" class="st4" width="71.1" height="21.5"/>
			<path d="M317.3,326.1v20.5h-70.1v-20.5H317.3 M318.3,325.1h-72.1v22.5h72.1V325.1L318.3,325.1z"/>
		</g>
		<text transform="matrix(1 0 0 1 255.8748 340.1644)" class="st1 st2">Row Node</text>
	</g>
</g>
</svg>
