<!-- Generated by IcoMoon.io -->
<svg version="1.1" xmlns="http://www.w3.org/2000/svg" width="100%" height="100%" viewBox="0 0 32 32">
<title>maximize</title>
<path opacity="0.98" fill="#000" d="M27.973 32.051h-23.957c-2.208 0-4-1.792-4-4v-24.083c0-2.208 1.792-4 4-4h23.957c2.208 0 4 1.792 4 4v24.083c0 2.208-1.792 4-4 4zM27.997 2.683h-24.048c-0.712 0-1.288 0.576-1.288 1.285v24.045c0 0.709 0.576 1.288 1.288 1.288h24.048c0.712 0 1.288-0.579 1.288-1.288v-24.045c0-0.709-0.576-1.285-1.288-1.285zM11.541 25.283l-7.115 2.277 2.275-7.117 1.539 1.541 4.979-4.979 1.779 1.779-4.979 4.979 1.523 1.52zM25.264 11.571l2.288-7.157-7.157 2.288 1.549 1.549-5.008 5.005 1.789 1.789 5.008-5.005 1.531 1.531z"></path>
</svg>
