<svg width="16" height="16" viewBox="0 0 16 16" fill="none" xmlns="http://www.w3.org/2000/svg">
<path fill-rule="evenodd" clip-rule="evenodd" d="M7.85355 1.14645C7.65829 0.951184 7.34171 0.951184 7.14645 1.14645L5.14645 3.14645C4.95118 3.34171 4.95118 3.65829 5.14645 3.85355C5.34171 4.04882 5.65829 4.04882 5.85355 3.85355L7 2.70711V7H2.70711L3.85355 5.85355C4.04882 5.65829 4.04882 5.34171 3.85355 5.14645C3.65829 4.95118 3.34171 4.95118 3.14645 5.14645L1.14645 7.14645C0.951184 7.34171 0.951184 7.65829 1.14645 7.85355L3.14645 9.85355C3.34171 10.0488 3.65829 10.0488 3.85355 9.85355C4.04882 9.65829 4.04882 9.34171 3.85355 9.14645L2.70711 8H7V12.2929L5.85355 11.1464C5.65829 10.9512 5.34171 10.9512 5.14645 11.1464C4.95118 11.3417 4.95118 11.6583 5.14645 11.8536L7.14645 13.8536C7.34171 14.0488 7.65829 14.0488 7.85355 13.8536L9.85355 11.8536C10.0488 11.6583 10.0488 11.3417 9.85355 11.1464C9.65829 10.9512 9.34171 10.9512 9.14645 11.1464L8 12.2929V8H12.2929L11.1464 9.14645C10.9512 9.34171 10.9512 9.65829 11.1464 9.85355C11.3417 10.0488 11.6583 10.0488 11.8536 9.85355L13.8536 7.85355C14.0488 7.65829 14.0488 7.34171 13.8536 7.14645L11.8536 5.14645C11.6583 4.95118 11.3417 4.95118 11.1464 5.14645C10.9512 5.34171 10.9512 5.65829 11.1464 5.85355L12.2929 7H8V2.70711L9.14645 3.85355C9.34171 4.04882 9.65829 4.04882 9.85355 3.85355C10.0488 3.65829 10.0488 3.34171 9.85355 3.14645L7.85355 1.14645Z" fill="black"/>
</svg>
