<svg width="16" height="16" viewBox="0 0 16 16" fill="none" xmlns="http://www.w3.org/2000/svg">
<path fill-rule="evenodd" clip-rule="evenodd" d="M7.99824 3.29114C7.97681 3.03475 7.76193 2.83334 7.5 2.83334C7.23807 2.83334 7.02319 3.03475 7.00176 3.29114L2.64645 7.64645C2.45118 7.84171 2.45118 8.15829 2.64645 8.35355C2.84171 8.54882 3.15829 8.54882 3.35355 8.35355L7 4.70711V12.6667C7 12.9428 7.22386 13.1667 7.5 13.1667C7.77614 13.1667 8 12.9428 8 12.6667V4.70711L11.6464 8.35355C11.8417 8.54882 12.1583 8.54882 12.3536 8.35355C12.5488 8.15829 12.5488 7.84171 12.3536 7.64645L7.99824 3.29114Z" fill="black"/>
</svg>
