<svg width="16" height="16" viewBox="0 0 16 16" fill="none" xmlns="http://www.w3.org/2000/svg">
<path fill-rule="evenodd" clip-rule="evenodd" d="M7.5 2C4.46243 2 2 4.46243 2 7.5C2 10.5376 4.46243 13 7.5 13C10.5376 13 13 10.5376 13 7.5C13 4.46243 10.5376 2 7.5 2ZM1 7.5C1 3.91015 3.91015 1 7.5 1C11.0899 1 14 3.91015 14 7.5C14 11.0899 11.0899 14 7.5 14C3.91015 14 1 11.0899 1 7.5ZM9.85355 5.14645C10.0488 5.34171 10.0488 5.65829 9.85355 5.85355L8.20711 7.5L9.85355 9.14645C10.0488 9.34171 10.0488 9.65829 9.85355 9.85355C9.65829 10.0488 9.34171 10.0488 9.14645 9.85355L7.5 8.20711L5.85355 9.85355C5.65829 10.0488 5.34171 10.0488 5.14645 9.85355C4.95118 9.65829 4.95118 9.34171 5.14645 9.14645L6.79289 7.5L5.14645 5.85355C4.95118 5.65829 4.95118 5.34171 5.14645 5.14645C5.34171 4.95118 5.65829 4.95118 5.85355 5.14645L7.5 6.79289L9.14645 5.14645C9.34171 4.95118 9.65829 4.95118 9.85355 5.14645Z" fill="black"/>
</svg>
