<svg width="16" height="16" fill="none" xmlns="http://www.w3.org/2000/svg"><path d="M3.467.04c-.471.065-.842.18-1.254.387C1.094.989.328 2.001.063 3.267.016 3.496.013 3.705.013 8s.003 4.504.05 4.733c.345 1.648 1.525 2.838 3.169 3.194l.275.06h8.986l.275-.06c1.635-.354 2.805-1.524 3.159-3.159l.06-.275V3.507l-.06-.275c-.358-1.655-1.549-2.827-3.22-3.171-.193-.04-.644-.045-4.6-.05C4.595.006 3.669.012 3.467.04m8.87 1.059c1.284.341 2.24 1.302 2.564 2.578l.072.283v8.08l-.072.283a3.527 3.527 0 0 1-2.808 2.627c-.252.047-.467.05-4.093.05s-3.841-.003-4.093-.05c-1.406-.263-2.469-1.265-2.817-2.657l-.063-.253V3.96l.072-.283c.348-1.369 1.412-2.364 2.808-2.625.149-.027.989-.033 4.173-.029l3.987.005.27.071"/></svg>