<svg width="16" height="16" viewBox="0 0 16 16" fill="none" xmlns="http://www.w3.org/2000/svg">
<path fill-rule="evenodd" clip-rule="evenodd" d="M3.68688 0.97978C3.49162 0.784518 3.17504 0.784518 2.97977 0.97978C2.78451 1.17504 2.78451 1.49162 2.97977 1.68689L4.85012 3.55724L1.02757 7.37976L1.02407 7.38333C0.688156 7.72604 0.5 8.18679 0.5 8.66667C0.5 9.14655 0.688138 9.60732 1.02405 9.95002L4.49426 13.4202C5.22285 14.1488 6.33943 14.1488 7.06803 13.4202L11.5272 8.961C11.6474 8.91038 11.7437 8.81412 11.7943 8.69392L12.8014 7.68689C12.9966 7.49162 12.9966 7.17504 12.8014 6.97978L7.46803 1.64645C7.27277 1.45118 6.95619 1.45118 6.76092 1.64645L5.55723 2.85013L3.68688 0.97978ZM11.7407 7.33333L11.074 8H1.82158L5.55724 4.26435L6.31311 5.02022C6.50837 5.21548 6.82495 5.21548 7.02022 5.02022C7.21548 4.82496 7.21548 4.50838 7.02022 4.31311L6.26434 3.55724L7.11448 2.70711L11.7407 7.33333ZM10.074 9H1.56957C1.60945 9.09138 1.66577 9.1757 1.73667 9.24842L5.20136 12.7131C5.53943 13.0512 6.02285 13.0512 6.36092 12.7131L10.074 9ZM12.9918 10.5768C12.9484 10.3392 12.7415 10.1667 12.5 10.1667C12.2585 10.1667 12.0516 10.3392 12.0081 10.5768C11.9394 10.9526 11.7207 11.2432 11.4198 11.6429L11.3772 11.6996C11.0799 12.0952 10.7 12.6161 10.7 13.3333C10.7 13.8155 10.8866 14.2805 11.2228 14.6252C11.5593 14.9704 12.0185 15.1667 12.5 15.1667C12.9815 15.1667 13.4407 14.9704 13.7772 14.6252C14.1133 14.2805 14.3 13.8155 14.3 13.3333C14.3 12.6161 13.9201 12.0952 13.6228 11.6996L13.5802 11.6429C13.2793 11.2432 13.0605 10.9526 12.9918 10.5768ZM11.7 13.3333C11.7 12.9839 11.8726 12.7048 12.1766 12.3004C12.1989 12.2706 12.2222 12.24 12.2461 12.2086L12.2461 12.2085C12.3262 12.1031 12.4136 11.988 12.5 11.8625C12.5864 11.988 12.6738 12.1031 12.7539 12.2085L12.7539 12.2085L12.7539 12.2086C12.7778 12.24 12.8011 12.2706 12.8234 12.3004C13.1274 12.7048 13.3 12.9839 13.3 13.3333C13.3 13.5584 13.2127 13.7717 13.0612 13.9271C12.9102 14.082 12.708 14.1667 12.5 14.1667C12.292 14.1667 12.0898 14.082 11.9388 13.9271C11.7873 13.7717 11.7 13.5584 11.7 13.3333Z" fill="black"/>
</svg>
