<svg xmlns="http://www.w3.org/2000/svg" width="16" height="16" fill="none"><g clip-path="url(#a)"><path fill="#000" fill-rule="evenodd" d="M3.864.803a.75.75 0 0 0-1.061 1.06l1.803 1.804L1.07 7.203l-.006.005a2.083 2.083 0 0 0 0 2.917l.006.005 3.466 3.467a2.038 2.038 0 0 0 2.928 0l5.733-5.733a.75.75 0 0 0 0-1.061L7.864 1.47a.75.75 0 0 0-1.061 0L5.667 2.606 3.864.803Zm1.803 3.924.47.47a.75.75 0 0 0 1.06-1.06l-.47-.47.606-.606 4.273 4.272-.583.584H2.477l3.19-3.19Zm-3.19 4.69h7.046l-3.12 3.12c-.24.24-.566.24-.806 0l-3.12-3.12Zm11.593 1.111a.75.75 0 0 0-1.474 0c-.059.314-.248.56-.58.99l-.018.024c-.302.392-.748.976-.748 1.791a2.083 2.083 0 1 0 4.167 0c0-.815-.446-1.4-.748-1.79l-.02-.026c-.33-.43-.52-.675-.578-.989Zm-1.32 2.805c0-.25.12-.467.436-.875l.072-.093c.024-.031.05-.063.075-.097l.075.096.073.094c.315.408.436.624.436.875a.583.583 0 0 1-1.167 0Z" clip-rule="evenodd"/></g><defs><clipPath id="a"><path fill="#fff" d="M0 0h16v16H0z"/></clipPath></defs></svg>