<svg width="16" height="16" viewBox="0 0 16 16" fill="none" xmlns="http://www.w3.org/2000/svg">
<path fill-rule="evenodd" clip-rule="evenodd" d="M1.53697 1.53697C1.88079 1.19315 2.3471 1 2.83333 1H5.5H12.1667C12.6529 1 13.1192 1.19315 13.463 1.53697C13.8068 1.88079 14 2.3471 14 2.83333V5.5V12.1667C14 12.6529 13.8068 13.1192 13.463 13.463C13.1192 13.8068 12.6529 14 12.1667 14H5.5H2.83333C2.3471 14 1.88079 13.8068 1.53697 13.463C1.19315 13.1192 1 12.6529 1 12.1667V5.5V2.83333C1 2.3471 1.19315 1.88079 1.53697 1.53697ZM2.83333 2C2.61232 2 2.40036 2.0878 2.24408 2.24408C2.0878 2.40036 2 2.61232 2 2.83333V5H5V2H2.83333ZM6 2V5H13V2.83333C13 2.61232 12.9122 2.40036 12.7559 2.24408C12.5996 2.0878 12.3877 2 12.1667 2H6ZM13 6H6V13H12.1667C12.3877 13 12.5996 12.9122 12.7559 12.7559C12.9122 12.5996 13 12.3877 13 12.1667V6ZM5 13V6H2V12.1667C2 12.3877 2.0878 12.5996 2.24408 12.7559C2.40036 12.9122 2.61232 13 2.83333 13H5Z" fill="black"/>
</svg>
