<svg width="16" height="16" viewBox="0 0 16 16" fill="none" xmlns="http://www.w3.org/2000/svg">
<path fill-rule="evenodd" clip-rule="evenodd" d="M2 2.83333C2 2.37614 2.37614 2 2.83333 2H9.5C9.95719 2 10.3333 2.37614 10.3333 2.83333C10.3333 3.10948 10.5572 3.33333 10.8333 3.33333C11.1095 3.33333 11.3333 3.10948 11.3333 2.83333C11.3333 1.82386 10.5095 1 9.5 1H2.83333C1.82386 1 1 1.82386 1 2.83333V9.5C1 10.5095 1.82386 11.3333 2.83333 11.3333C3.10948 11.3333 3.33333 11.1095 3.33333 10.8333C3.33333 10.5572 3.10948 10.3333 2.83333 10.3333C2.37614 10.3333 2 9.95719 2 9.5V2.83333ZM6 6.78571C6 6.35178 6.35178 6 6.78571 6H13.2143C13.6482 6 14 6.35178 14 6.78571V13.2143C14 13.6482 13.6482 14 13.2143 14H6.78571C6.35178 14 6 13.6482 6 13.2143V6.78571ZM6.78571 5C5.79949 5 5 5.79949 5 6.78571V13.2143C5 14.2005 5.79949 15 6.78571 15H13.2143C14.2005 15 15 14.2005 15 13.2143V6.78571C15 5.79949 14.2005 5 13.2143 5H6.78571Z" fill="black"/>
</svg>
