<svg width="16" height="16" viewBox="0 0 16 16" fill="none" xmlns="http://www.w3.org/2000/svg">
<path fill-rule="evenodd" clip-rule="evenodd" d="M13.7803 3.78033C14.0732 3.48744 14.0732 3.01256 13.7803 2.71967C13.4874 2.42678 13.0126 2.42678 12.7197 2.71967L8.25 7.18934L3.78033 2.71967C3.48744 2.42678 3.01256 2.42678 2.71967 2.71967C2.42678 3.01256 2.42678 3.48744 2.71967 3.78033L7.18934 8.25L2.71967 12.7197C2.42678 13.0126 2.42678 13.4874 2.71967 13.7803C3.01256 14.0732 3.48744 14.0732 3.78033 13.7803L8.25 9.31066L12.7197 13.7803C13.0126 14.0732 13.4874 14.0732 13.7803 13.7803C14.0732 13.4874 14.0732 13.0126 13.7803 12.7197L9.31066 8.25L13.7803 3.78033Z" fill="black"/>
</svg>
