<svg width="16" height="16" viewBox="0 0 16 16" fill="none" xmlns="http://www.w3.org/2000/svg">
<path fill-rule="evenodd" clip-rule="evenodd" d="M3.5 2C2.67157 2 2 2.67157 2 3.5C2 4.32843 2.67157 5 3.5 5C4.32843 5 5 4.32843 5 3.5C5 2.67157 4.32843 2 3.5 2ZM1 3.5C1 2.11929 2.11929 1 3.5 1C4.88071 1 6 2.11929 6 3.5C6 4.00954 5.84756 4.48348 5.5858 4.8787L8 7.29289L12.9798 2.31311C13.175 2.11785 13.4916 2.11785 13.6869 2.31311C13.8821 2.50838 13.8821 2.82496 13.6869 3.02022L8.35355 8.35355L5.5858 11.1213C5.84756 11.5165 6 11.9905 6 12.5C6 13.8807 4.88071 15 3.5 15C2.11929 15 1 13.8807 1 12.5C1 11.1193 2.11929 10 3.5 10C4.00954 10 4.48348 10.1524 4.87869 10.4142L7.29289 8L4.87869 5.5858C4.48348 5.84756 4.00954 6 3.5 6C2.11929 6 1 4.88071 1 3.5ZM3.5 11C2.67157 11 2 11.6716 2 12.5C2 13.3284 2.67157 14 3.5 14C4.32843 14 5 13.3284 5 12.5C5 11.6716 4.32843 11 3.5 11ZM10.2202 9.51311C10.025 9.31785 9.70838 9.31785 9.51311 9.51311C9.31785 9.70838 9.31785 10.025 9.51311 10.2202L12.9798 13.6869C13.175 13.8822 13.4916 13.8822 13.6869 13.6869C13.8822 13.4916 13.8822 13.175 13.6869 12.9798L10.2202 9.51311Z" fill="black"/>
</svg>
