<svg width="16" height="16" viewBox="0 0 16 16" fill="none" xmlns="http://www.w3.org/2000/svg">
<path fill-rule="evenodd" clip-rule="evenodd" d="M7.99906 2.83334H8C10.5174 2.83334 12.3076 4.09641 13.4497 5.32644C14.021 5.94162 14.4372 6.55523 14.7109 7.01509C14.848 7.2455 14.9502 7.43863 15.0188 7.57588C15.0532 7.64454 15.0792 7.69932 15.097 7.73793C15.1059 7.75723 15.1128 7.7725 15.1176 7.78345L15.1234 7.79659L15.1252 7.80067L15.1258 7.80207L15.1261 7.80261C15.1261 7.80284 15.1262 7.80304 14.6667 8L15.1262 7.80304C15.1823 7.93395 15.18 8.08257 15.1197 8.21161C14.8046 8.88606 14.4095 9.52012 13.9429 10.1001C13.7698 10.3153 13.4551 10.3493 13.2399 10.1762C13.0247 10.0031 12.9907 9.68839 13.1638 9.47324C13.5313 9.01641 13.8491 8.52197 14.112 7.99834C14.053 7.88169 13.9665 7.71962 13.8516 7.52658C13.6045 7.11145 13.229 6.55838 12.7169 6.0069C11.6925 4.90368 10.1495 3.83349 8.00047 3.83334C7.73793 3.83385 7.47567 3.85038 7.21515 3.88283C6.94112 3.91697 6.69131 3.72251 6.65717 3.44849C6.62303 3.17446 6.81749 2.92465 7.09152 2.89051C7.39259 2.853 7.69567 2.8339 7.99906 2.83334ZM6.95247 6.24581C7.14073 6.44784 7.12956 6.76422 6.92753 6.95248C6.78015 7.0898 6.66195 7.2554 6.57997 7.4394C6.49798 7.6234 6.4539 7.82203 6.45035 8.02343C6.44679 8.22484 6.48384 8.42489 6.55928 8.61167C6.63472 8.79845 6.74701 8.96811 6.88945 9.11055C7.03189 9.25299 7.20156 9.36528 7.38833 9.44072C7.57511 9.51616 7.77517 9.55321 7.97657 9.54966C8.17798 9.54611 8.37661 9.50202 8.5606 9.42004C8.7446 9.33805 8.9102 9.21985 9.04753 9.07248C9.23578 8.87045 9.55217 8.85928 9.75419 9.04753C9.95622 9.23578 9.96739 9.55217 9.77914 9.7542C9.55027 9.99982 9.27426 10.1968 8.9676 10.3335C8.66094 10.4701 8.32989 10.5436 7.99421 10.5495C7.65854 10.5554 7.32511 10.4937 7.01381 10.3679C6.70252 10.2422 6.41974 10.0551 6.18234 9.81766C5.94495 9.58026 5.7578 9.29748 5.63206 8.98619C5.50633 8.6749 5.44458 8.34147 5.4505 8.00579C5.45642 7.67011 5.5299 7.33907 5.66654 7.0324C5.80318 6.72574 6.00018 6.44974 6.24581 6.22086C6.44783 6.03261 6.76422 6.04378 6.95247 6.24581ZM4.68814 4.81991C4.91637 4.66446 4.97536 4.35342 4.81991 4.12519C4.66445 3.89696 4.35342 3.83797 4.12519 3.99343C2.72584 4.94658 1.60609 6.25579 0.881442 7.78601C0.820091 7.91556 0.817294 8.06521 0.87376 8.19696L1.33333 8C0.87376 8.19696 0.873849 8.19717 0.873945 8.1974L0.874178 8.19794L0.874783 8.19934L0.876554 8.20341L0.882349 8.21656C0.887217 8.2275 0.894099 8.24277 0.903016 8.26208C0.920847 8.30068 0.94684 8.35547 0.981171 8.42413C1.04979 8.56138 1.15196 8.75451 1.2891 8.98491C1.56283 9.44478 1.97903 10.0584 2.55027 10.6736C3.69235 11.9035 5.4823 13.1665 7.99937 13.1667H8V12.6668L7.99866 13.1667L7.99937 13.1667C9.37475 13.1702 10.7206 12.7681 11.8687 12.0107C12.0992 11.8586 12.1628 11.5485 12.0107 11.318C11.8586 11.0875 11.5485 11.0239 11.318 11.176C10.3339 11.8252 9.18026 12.1698 8.00134 12.1667L8 12.1667C5.85074 12.1667 4.30755 11.0964 3.28306 9.99311C2.77097 9.44162 2.3955 8.88856 2.1484 8.47343C2.03393 8.28113 1.94768 8.11956 1.88872 8.00302C2.53811 6.72416 3.50063 5.62878 4.68814 4.81991Z" fill="black"/>
<path fill-rule="evenodd" clip-rule="evenodd" d="M0.979779 0.979782C1.17504 0.78452 1.49162 0.78452 1.68689 0.979782L15.0202 14.3131C15.2155 14.5084 15.2155 14.825 15.0202 15.0202C14.825 15.2155 14.5084 15.2155 14.3131 15.0202L0.979779 1.68689C0.784517 1.49163 0.784517 1.17504 0.979779 0.979782Z" fill="black"/>
</svg>
