<svg xmlns="http://www.w3.org/2000/svg" width="16" height="16" fill="none"><g fill="#000" fill-rule="evenodd" clip-path="url(#a)" clip-rule="evenodd"><path d="M7.999 2.583H8c2.61 0 4.461 1.312 5.633 2.573a10.338 10.338 0 0 1 1.61 2.308c.035.071.062.128.08.17l.023.048.007.015.002.004v.002c0 .001.001.002-.688.297l.689-.295a.75.75 0 0 1-.01.612 9.522 9.522 0 0 1-1.208 1.94.75.75 0 0 1-1.169-.94c.33-.41.619-.852.862-1.318a8.846 8.846 0 0 0-1.297-1.822C11.539 5.106 10.058 4.084 8 4.083c-.253 0-.505.017-.755.048a.75.75 0 0 1-.185-1.489c.31-.038.624-.058.938-.059Zm-.864 3.492a.75.75 0 0 1-.037 1.06 1.25 1.25 0 1 0 1.767 1.767.75.75 0 0 1 1.097 1.023 2.75 2.75 0 1 1-3.887-3.887.75.75 0 0 1 1.06.037ZM4.83 5.027a.75.75 0 0 0-.845-1.24A9.767 9.767 0 0 0 .655 7.679a.75.75 0 0 0-.011.616L1.334 8l-.69.296.001.003.002.004.007.015a3.779 3.779 0 0 0 .104.218c.07.142.176.34.316.577.28.47.707 1.1 1.293 1.73C3.54 12.106 5.39 13.417 8 13.418H8v-.75l-.002.75h.001a7.244 7.244 0 0 0 4.007-1.198.75.75 0 0 0-.826-1.252 5.743 5.743 0 0 1-3.178.95H8c-2.057 0-3.539-1.022-4.534-2.094a8.842 8.842 0 0 1-1.296-1.82A8.267 8.267 0 0 1 4.83 5.027Z"/><path d="M.803.803a.75.75 0 0 1 1.06 0l13.334 13.333a.75.75 0 0 1-1.06 1.061L.802 1.864a.75.75 0 0 1 0-1.061Z"/></g><defs><clipPath id="a"><path fill="#fff" d="M0 0h16v16H0z"/></clipPath></defs></svg>