<svg width="16" height="16" viewBox="0 0 16 16" fill="none" xmlns="http://www.w3.org/2000/svg">
<path fill-rule="evenodd" clip-rule="evenodd" d="M1.48507 8.12127C1.69218 7.29283 2.52674 6.25748 3.76854 5.41354C4.99439 4.58044 6.52316 4 8 4C9.47683 4 11.0056 4.58044 12.2315 5.41354C13.4733 6.25748 14.3078 7.29283 14.5149 8.12127C14.5819 8.38917 14.8534 8.55205 15.1213 8.48507C15.3892 8.4181 15.552 8.14663 15.4851 7.87873C15.1922 6.70717 14.1267 5.49252 12.7935 4.58646C11.4444 3.66956 9.72316 3 8 3C6.27683 3 4.5556 3.66956 3.20645 4.58646C1.87325 5.49252 0.807815 6.70717 0.514925 7.87873C0.447951 8.14663 0.610831 8.4181 0.878728 8.48507C1.14663 8.55205 1.41809 8.38917 1.48507 8.12127ZM6.5 8C6.5 7.17157 7.17157 6.5 8 6.5C8.82842 6.5 9.5 7.17157 9.5 8C9.5 8.82843 8.82842 9.5 8 9.5C7.17157 9.5 6.5 8.82843 6.5 8ZM8 5.5C6.61928 5.5 5.5 6.61929 5.5 8C5.5 9.38071 6.61928 10.5 8 10.5C9.38071 10.5 10.5 9.38071 10.5 8C10.5 6.61929 9.38071 5.5 8 5.5Z" fill="black"/>
<path fill-rule="evenodd" clip-rule="evenodd" d="M12.2315 10.5865C13.4733 9.74252 14.3078 8.70717 14.5149 7.87873C14.5819 7.61083 14.8534 7.44795 15.1213 7.51493C15.3892 7.5819 15.552 7.85337 15.4851 8.12127C15.1922 9.29283 14.1267 10.5075 12.7935 11.4135C11.4444 12.3304 9.72317 13 8 13C6.27684 13 4.55561 12.3304 3.20646 11.4135C1.87326 10.5075 0.807822 9.29283 0.514933 8.12126C0.447958 7.85337 0.610839 7.5819 0.878737 7.51492C1.14663 7.44795 1.4181 7.61083 1.48508 7.87873C1.69218 8.70717 2.52675 9.74251 3.76855 10.5865C4.99439 11.4196 6.52317 12 8 12C9.47684 12 11.0056 11.4196 12.2315 10.5865Z" fill="black"/>
</svg>
