<svg xmlns="http://www.w3.org/2000/svg" width="16" height="16" fill="none"><path fill="#000" fill-rule="evenodd" d="M1.728 8.182c.185-.743.962-1.733 2.181-2.562C5.104 4.808 6.585 4.25 8 4.25s2.896.558 4.09 1.37c1.22.829 1.997 1.82 2.182 2.562a.75.75 0 0 0 1.456-.364c-.315-1.257-1.438-2.517-2.794-3.438-1.38-.938-3.15-1.63-4.934-1.63-1.785 0-3.554.692-4.934 1.63C1.71 5.3.586 6.56.272 7.818a.75.75 0 0 0 1.456.364ZM6.75 8a1.25 1.25 0 1 1 2.5 0 1.25 1.25 0 0 1-2.5 0ZM8 5.25a2.75 2.75 0 1 0 0 5.5 2.75 2.75 0 0 0 0-5.5Z" clip-rule="evenodd"/><path fill="#000" fill-rule="evenodd" d="M12.09 10.38c1.22-.829 1.997-1.82 2.182-2.562a.75.75 0 0 1 1.456.364c-.315 1.257-1.438 2.517-2.794 3.438-1.38.938-3.15 1.63-4.934 1.63-1.785 0-3.554-.692-4.934-1.63C1.71 10.7.586 9.44.272 8.182a.75.75 0 1 1 1.456-.364c.185.743.962 1.733 2.181 2.562 1.195.812 2.676 1.37 4.091 1.37s2.896-.558 4.09-1.37Z" clip-rule="evenodd"/></svg>