<?xml version="1.0" encoding="UTF-8" standalone="no"?>
<!DOCTYPE svg PUBLIC "-//W3C//DTD SVG 1.1//EN" "http://www.w3.org/Graphics/SVG/1.1/DTD/svg11.dtd">
<svg width="100%" height="100%" viewBox="0 0 32 32" version="1.1" xmlns="http://www.w3.org/2000/svg" xmlns:xlink="http://www.w3.org/1999/xlink" xml:space="preserve" xmlns:serif="http://www.serif.com/" style="fill-rule:evenodd;clip-rule:evenodd;stroke-linejoin:round;stroke-miterlimit:2;">
    <g>
        <path d="M23.727,22.939C24.313,23.525 24.313,24.475 23.727,25.061C23.142,25.646 22.192,25.646 21.606,25.061L13.606,17.061C13.02,16.475 13.02,15.525 13.606,14.939L21.606,6.939C22.192,6.354 23.142,6.354 23.727,6.939C24.313,7.525 24.313,8.475 23.727,9.061C23.727,9.061 16.788,16 16.788,16L23.727,22.939ZM7.834,8C7.834,7.172 8.506,6.5 9.334,6.5C10.161,6.5 10.834,7.172 10.834,8L10.834,24C10.834,24.828 10.161,25.5 9.334,25.5C8.506,25.5 7.834,24.828 7.834,24L7.834,8Z"/>
    </g>
</svg>
