<svg width="16" height="16" viewBox="0 0 16 16" fill="none" xmlns="http://www.w3.org/2000/svg">
<path fill-rule="evenodd" clip-rule="evenodd" d="M7.70711 8L11.3536 4.35355C11.5488 4.15829 11.5488 3.84171 11.3536 3.64645C11.1583 3.45118 10.8417 3.45118 10.6464 3.64645L6.64645 7.64645C6.45118 7.84171 6.45118 8.15829 6.64645 8.35355L10.6464 12.3536C10.8417 12.5488 11.1583 12.5488 11.3536 12.3536C11.5488 12.1583 11.5488 11.8417 11.3536 11.6464L7.70711 8ZM5 4C5 3.72386 4.77614 3.5 4.5 3.5C4.22386 3.5 4 3.72386 4 4V12C4 12.2761 4.22386 12.5 4.5 12.5C4.77614 12.5 5 12.2761 5 12V4Z" fill="black"/>
</svg>
