<svg width="16" height="16" viewBox="0 0 16 16" fill="none" xmlns="http://www.w3.org/2000/svg">
<path fill-rule="evenodd" clip-rule="evenodd" d="M4.75 5.5C4.75 6.19036 4.19036 6.75 3.5 6.75C2.80964 6.75 2.25 6.19036 2.25 5.5C2.25 4.80964 2.80964 4.25 3.5 4.25C4.19036 4.25 4.75 4.80964 4.75 5.5ZM8.75 5.5C8.75 6.19036 8.19036 6.75 7.5 6.75C6.80964 6.75 6.25 6.19036 6.25 5.5C6.25 4.80964 6.80964 4.25 7.5 4.25C8.19036 4.25 8.75 4.80964 8.75 5.5ZM11.5 6.75C12.1904 6.75 12.75 6.19036 12.75 5.5C12.75 4.80964 12.1904 4.25 11.5 4.25C10.8096 4.25 10.25 4.80964 10.25 5.5C10.25 6.19036 10.8096 6.75 11.5 6.75ZM4.75 9.5C4.75 10.1904 4.19036 10.75 3.5 10.75C2.80964 10.75 2.25 10.1904 2.25 9.5C2.25 8.80964 2.80964 8.25 3.5 8.25C4.19036 8.25 4.75 8.80964 4.75 9.5ZM7.5 10.75C8.19036 10.75 8.75 10.1904 8.75 9.5C8.75 8.80964 8.19036 8.25 7.5 8.25C6.80964 8.25 6.25 8.80964 6.25 9.5C6.25 10.1904 6.80964 10.75 7.5 10.75ZM12.75 9.5C12.75 10.1904 12.1904 10.75 11.5 10.75C10.8096 10.75 10.25 10.1904 10.25 9.5C10.25 8.80964 10.8096 8.25 11.5 8.25C12.1904 8.25 12.75 8.80964 12.75 9.5Z" fill="black"/>
</svg>
