<svg width="16" height="16" viewBox="0 0 16 16" fill="none" xmlns="http://www.w3.org/2000/svg">
<path fill-rule="evenodd" clip-rule="evenodd" d="M10.5202 2.81644C10.7155 3.01171 10.7155 3.32829 10.5202 3.52355L10.0404 4.00333H12.1667C12.6529 4.00333 13.1192 4.19649 13.463 4.5403C13.8069 4.88412 14 5.35044 14 5.83667V12.5033C14 12.7795 13.7762 13.0033 13.5 13.0033C13.2239 13.0033 13 12.7795 13 12.5033V5.83667C13 5.61565 12.9122 5.40369 12.7559 5.24741C12.5997 5.09113 12.3877 5.00333 12.1667 5.00333H10.0405L10.5202 5.48311C10.7155 5.67837 10.7155 5.99496 10.5202 6.19022C10.325 6.38548 10.0084 6.38548 9.81312 6.19022L8.47979 4.85689C8.28453 4.66162 8.28453 4.34504 8.47979 4.14978L9.81312 2.81644C10.0084 2.62118 10.325 2.62118 10.5202 2.81644ZM1.5 4.00333C1.22386 4.00333 1 4.22719 1 4.50333C1 4.77948 1.22386 5.00333 1.5 5.00333H6.16667C6.44281 5.00333 6.66667 4.77948 6.66667 4.50333C6.66667 4.22719 6.44281 4.00333 6.16667 4.00333H1.5ZM1 8.50333C1 8.22719 1.22386 8.00333 1.5 8.00333H10.1667C10.4428 8.00333 10.6667 8.22719 10.6667 8.50333C10.6667 8.77948 10.4428 9.00333 10.1667 9.00333H1.5C1.22386 9.00333 1 8.77948 1 8.50333ZM1 12.5033C1 12.2272 1.22386 12.0033 1.5 12.0033H10.1667C10.4428 12.0033 10.6667 12.2272 10.6667 12.5033C10.6667 12.7795 10.4428 13.0033 10.1667 13.0033H1.5C1.22386 13.0033 1 12.7795 1 12.5033Z" fill="black"/>
</svg>
