<svg width="16" height="16" viewBox="0 0 16 16" fill="none" xmlns="http://www.w3.org/2000/svg">
<path fill-rule="evenodd" clip-rule="evenodd" d="M5.35355 3.64645C5.15829 3.45118 4.84171 3.45118 4.64645 3.64645C4.45118 3.84171 4.45118 4.15829 4.64645 4.35355L8.29289 8L4.64645 11.6464C4.45118 11.8417 4.45118 12.1583 4.64645 12.3536C4.84171 12.5488 5.15829 12.5488 5.35355 12.3536L9.35355 8.35355C9.54882 8.15829 9.54882 7.84171 9.35355 7.64645L5.35355 3.64645ZM11.5 12.5C11.7761 12.5 12 12.2761 12 12V4C12 3.72386 11.7761 3.5 11.5 3.5C11.2239 3.5 11 3.72386 11 4V12C11 12.2761 11.2239 12.5 11.5 12.5Z" fill="black"/>
</svg>
