<svg xmlns="http://www.w3.org/2000/svg" width="16" height="16" fill="none"><path fill="#000" fill-rule="evenodd" d="M11.65 10c.553 0 1.09-.229 1.491-.648.403-.42.634-.995.634-1.602 0-.607-.231-1.183-.634-1.602A2.066 2.066 0 0 0 11.65 5.5H10.5a.75.75 0 0 1 0-1.5h1.15c.972 0 1.897.403 2.574 1.11a3.817 3.817 0 0 1 1.051 2.64c0 .985-.375 1.935-1.05 2.64a3.565 3.565 0 0 1-2.575 1.11H10.5a.75.75 0 0 1 0-1.5h1.15ZM4.375 5.5c-.553 0-1.09.229-1.491.648-.403.42-.634.995-.634 1.602 0 .607.231 1.183.634 1.602.4.42.938.648 1.491.648h1.15a.75.75 0 0 1 0 1.5h-1.15a3.566 3.566 0 0 1-2.574-1.11A3.818 3.818 0 0 1 .75 7.75c0-.985.375-1.935 1.05-2.64A3.565 3.565 0 0 1 4.376 4h1.15a.75.75 0 0 1 0 1.5h-1.15ZM5.333 7a.75.75 0 1 0 0 1.5h5.334a.75.75 0 0 0 0-1.5H5.333Z" clip-rule="evenodd"/></svg>