<svg width="16" height="16" viewBox="0 0 16 16" fill="none" xmlns="http://www.w3.org/2000/svg">
<path fill-rule="evenodd" clip-rule="evenodd" d="M4.375 5C3.75214 5 3.15026 5.25799 2.70306 5.72463C2.25517 6.192 2 6.83026 2 7.5C2 8.16975 2.25517 8.808 2.70306 9.27537C3.15026 9.74201 3.75214 10 4.375 10H5.525C5.80114 10 6.025 10.2239 6.025 10.5C6.025 10.7761 5.80114 11 5.525 11H4.375C3.47286 11 2.61221 10.6258 1.98108 9.96727C1.35063 9.30942 1 8.42155 1 7.5C1 6.57845 1.35063 5.69058 1.98108 5.03273C2.61221 4.37415 3.47286 4 4.375 4H5.525C5.80114 4 6.025 4.22386 6.025 4.5C6.025 4.77614 5.80114 5 5.525 5H4.375ZM11.65 10C12.2729 10 12.8747 9.74201 13.3219 9.27537C13.7698 8.808 14.025 8.16974 14.025 7.5C14.025 6.83025 13.7698 6.192 13.3219 5.72463C12.8747 5.25799 12.2729 5 11.65 5L10.5 5C10.2239 5 10 4.77614 10 4.5C10 4.22386 10.2239 4 10.5 4H11.65C12.5521 4 13.4128 4.37415 14.0439 5.03273C14.6744 5.69058 15.025 6.57845 15.025 7.5C15.025 8.42155 14.6744 9.30942 14.0439 9.96727C13.4128 10.6258 12.5521 11 11.65 11H10.5C10.2239 11 10 10.7761 10 10.5C10 10.2239 10.2239 10 10.5 10H11.65ZM5.33334 7C5.05719 7 4.83334 7.22386 4.83334 7.5C4.83334 7.77614 5.05719 8 5.33334 8H10.6667C10.9428 8 11.1667 7.77614 11.1667 7.5C11.1667 7.22386 10.9428 7 10.6667 7H5.33334Z" fill="black"/>
</svg>
