<svg width="16" height="16" viewBox="0 0 16 16" fill="none" xmlns="http://www.w3.org/2000/svg">
<path fill-rule="evenodd" clip-rule="evenodd" d="M8.5 1.33333C8.5 1.05719 8.27614 0.833328 8 0.833328C7.72386 0.833328 7.5 1.05719 7.5 1.33333V3.99999C7.5 4.27614 7.72386 4.49999 8 4.49999C8.27614 4.49999 8.5 4.27614 8.5 3.99999V1.33333ZM8.5 12C8.5 11.7239 8.27614 11.5 8 11.5C7.72386 11.5 7.5 11.7239 7.5 12V14.6667C7.5 14.9428 7.72386 15.1667 8 15.1667C8.27614 15.1667 8.5 14.9428 8.5 14.6667V12ZM2.93311 2.93311C3.12838 2.73785 3.44496 2.73785 3.64022 2.93311L5.52689 4.81978C5.72215 5.01504 5.72215 5.33162 5.52689 5.52689C5.33162 5.72215 5.01504 5.72215 4.81978 5.52689L2.93311 3.64022C2.73785 3.44496 2.73785 3.12838 2.93311 2.93311ZM11.1802 10.4731C10.985 10.2778 10.6684 10.2778 10.4731 10.4731C10.2778 10.6684 10.2778 10.985 10.4731 11.1802L12.3598 13.0669C12.555 13.2621 12.8716 13.2621 13.0669 13.0669C13.2621 12.8716 13.2621 12.555 13.0669 12.3598L11.1802 10.4731ZM0.833328 8C0.833328 7.72386 1.05719 7.5 1.33333 7.5H3.99999C4.27614 7.5 4.49999 7.72386 4.49999 8C4.49999 8.27614 4.27614 8.5 3.99999 8.5H1.33333C1.05719 8.5 0.833328 8.27614 0.833328 8ZM12 7.5C11.7239 7.5 11.5 7.72386 11.5 8C11.5 8.27614 11.7239 8.5 12 8.5H14.6667C14.9428 8.5 15.1667 8.27614 15.1667 8C15.1667 7.72386 14.9428 7.5 14.6667 7.5H12ZM5.52689 10.4731C5.72215 10.6684 5.72215 10.985 5.52689 11.1802L3.64022 13.0669C3.44496 13.2621 3.12838 13.2621 2.93311 13.0669C2.73785 12.8716 2.73785 12.555 2.93311 12.3598L4.81978 10.4731C5.01504 10.2778 5.33162 10.2778 5.52689 10.4731ZM13.0669 3.64022C13.2621 3.44496 13.2621 3.12838 13.0669 2.93311C12.8716 2.73785 12.555 2.73785 12.3598 2.93311L10.4731 4.81978C10.2778 5.01504 10.2778 5.33162 10.4731 5.52689C10.6684 5.72215 10.985 5.72215 11.1802 5.52689L13.0669 3.64022Z" fill="black"/>
</svg>
