<svg width="16" height="16" viewBox="0 0 16 16" fill="none" xmlns="http://www.w3.org/2000/svg">
<path fill-rule="evenodd" clip-rule="evenodd" d="M10.5 1C10.2239 1 10 1.22386 10 1.5C10 1.77614 10.2239 2 10.5 2H13.2929L8.97977 6.31311C8.78451 6.50838 8.78451 6.82496 8.97977 7.02022C9.17504 7.21548 9.49162 7.21548 9.68688 7.02022L14 2.7071V5.5C14 5.77614 14.2239 6 14.5 6C14.7761 6 15 5.77614 15 5.5V1.5C15 1.22386 14.7761 1 14.5 1H10.5ZM2 10.5C2 10.2239 1.77614 10 1.5 10C1.22386 10 1 10.2239 1 10.5V14.5C1 14.7761 1.22386 15 1.5 15H5.5C5.77614 15 6 14.7761 6 14.5C6 14.2239 5.77614 14 5.5 14H2.7071L7.02022 9.68688C7.21548 9.49162 7.21548 9.17504 7.02022 8.97977C6.82496 8.78451 6.50838 8.78451 6.31311 8.97977L2 13.2929V10.5Z" fill="black"/>
</svg>
