<svg width="16" height="16" viewBox="0 0 16 16" fill="none" xmlns="http://www.w3.org/2000/svg">
<path fill-rule="evenodd" clip-rule="evenodd" d="M2.01428 3.5C2.01428 3.22386 2.23814 3 2.51428 3H13.4857C13.7619 3 13.9857 3.22386 13.9857 3.5C13.9857 3.77614 13.7619 4 13.4857 4H2.51428C2.23814 4 2.01428 3.77614 2.01428 3.5ZM2.01428 7.5C2.01428 7.22386 2.23814 7 2.51428 7H13.4857C13.7619 7 13.9857 7.22386 13.9857 7.5C13.9857 7.77614 13.7619 8 13.4857 8H2.51428C2.23814 8 2.01428 7.77614 2.01428 7.5ZM2.51428 11C2.23814 11 2.01428 11.2239 2.01428 11.5C2.01428 11.7761 2.23814 12 2.51428 12H13.4857C13.7619 12 13.9857 11.7761 13.9857 11.5C13.9857 11.2239 13.7619 11 13.4857 11H2.51428Z" fill="black"/>
</svg>
