<svg width="16" height="16" viewBox="0 0 16 16" fill="none" xmlns="http://www.w3.org/2000/svg">
<path fill-rule="evenodd" clip-rule="evenodd" d="M14.8536 1.14645C15.0488 1.34171 15.0488 1.65829 14.8536 1.85355L10.7071 6H13.5C13.7761 6 14 6.22386 14 6.5C14 6.77614 13.7761 7 13.5 7H9.5C9.22386 7 9 6.77614 9 6.5V2.5C9 2.22386 9.22386 2 9.5 2C9.77614 2 10 2.22386 10 2.5V5.29289L14.1464 1.14645C14.3417 0.951184 14.6583 0.951184 14.8536 1.14645ZM2.5 9C2.22386 9 2 9.22386 2 9.5C2 9.77614 2.22386 10 2.5 10H5.29289L1.14645 14.1464C0.951184 14.3417 0.951184 14.6583 1.14645 14.8536C1.34171 15.0488 1.65829 15.0488 1.85355 14.8536L6 10.7071V13.5C6 13.7761 6.22386 14 6.5 14C6.77614 14 7 13.7761 7 13.5V9.5C7 9.22386 6.77614 9 6.5 9H2.5Z" fill="black"/>
</svg>
