<svg width="16" height="16" viewBox="0 0 16 16" fill="none" xmlns="http://www.w3.org/2000/svg">
<path fill-rule="evenodd" clip-rule="evenodd" d="M5.625 1C5.35829 1 5.08593 1.08384 4.87071 1.25601C4.65259 1.43051 4.5 1.69419 4.5 2H3.83333C3.3471 2 2.88079 2.19315 2.53697 2.53697C2.19315 2.88079 2 3.3471 2 3.83333V13.1667C2 13.6529 2.19315 14.1192 2.53697 14.463C2.88079 14.8068 3.3471 15 3.83333 15H11.8333C12.3196 15 12.7859 14.8068 13.1297 14.463C13.4735 14.1192 13.6667 13.6529 13.6667 13.1667C13.6667 12.8905 13.4428 12.6667 13.1667 12.6667C12.8905 12.6667 12.6667 12.8905 12.6667 13.1667C12.6667 13.3877 12.5789 13.5996 12.4226 13.7559C12.2663 13.9122 12.0543 14 11.8333 14H3.83333C3.61232 14 3.40036 13.9122 3.24408 13.7559C3.0878 13.5996 3 13.3877 3 13.1667V3.83333C3 3.61232 3.0878 3.40036 3.24408 3.24408C3.40036 3.0878 3.61232 3 3.83333 3H4.5C4.5 3.30198 4.63161 3.5706 4.85953 3.75293C5.07781 3.92756 5.35294 4 5.625 4H9.375C9.64706 4 9.92219 3.92756 10.1405 3.75293C10.3684 3.5706 10.5 3.30198 10.5 3H11.8333C12.0543 3 12.2663 3.0878 12.4226 3.24408C12.5789 3.40036 12.6667 3.61232 12.6667 3.83333V5.16667C12.6667 5.44281 12.8905 5.66667 13.1667 5.66667C13.4428 5.66667 13.6667 5.44281 13.6667 5.16667V3.83333C13.6667 3.3471 13.4735 2.88079 13.1297 2.53697C12.7859 2.19315 12.3196 2 11.8333 2H10.5C10.5 1.69802 10.3684 1.4294 10.1405 1.24707C9.92219 1.07244 9.64706 1 9.375 1H5.625ZM5.5 2.98031V2.03345C5.52132 2.01851 5.56489 2 5.625 2H9.375C9.44135 2 9.48045 2.01145 9.5 2.01969V2.98031C9.48045 2.98855 9.44135 3 9.375 3H5.625C5.55865 3 5.51955 2.98855 5.5 2.98031ZM6.66667 9.5C6.66667 9.22386 6.89052 9 7.16667 9H10.5H12.4579L10.6464 7.18856C10.4512 6.9933 10.4512 6.67672 10.6464 6.48145C10.8417 6.28619 11.1583 6.28619 11.3536 6.48145L13.8737 9.00161C14.131 9.02216 14.3333 9.23745 14.3333 9.5C14.3333 9.76131 14.1329 9.9758 13.8774 9.99809L11.3536 12.5219C11.1583 12.7172 10.8417 12.7172 10.6464 12.5219C10.4512 12.3266 10.4512 12.01 10.6464 11.8148L12.4612 10H10.5H7.16667C6.89052 10 6.66667 9.77614 6.66667 9.5Z" fill="black"/>
</svg>
