<svg width="16" height="16" viewBox="0 0 16 16" fill="none" xmlns="http://www.w3.org/2000/svg">
<path fill-rule="evenodd" clip-rule="evenodd" d="M5.5 1C5.01377 1 4.54745 1.19315 4.20364 1.53697C3.85982 1.88079 3.66667 2.3471 3.66667 2.83333C3.66667 3.31956 3.85982 3.78588 4.20364 4.1297C4.54745 4.47351 5.01377 4.66667 5.5 4.66667H5.66667V7.33974C5.66658 7.49477 5.62326 7.64671 5.54155 7.77847C5.45985 7.91022 5.343 8.01658 5.20417 8.08557L5.20416 8.08556L5.20106 8.08713L4.0158 8.68641C3.7111 8.83821 3.45467 9.07186 3.27526 9.36119C3.09551 9.65106 3.00018 9.98532 3 10.3264V10.3267V11.5C3 11.7761 3.22386 12 3.5 12H12.8333C13.1095 12 13.3333 11.7761 13.3333 11.5V10.3267V10.3264C13.3332 9.98532 13.2378 9.65106 13.0581 9.36119C12.8787 9.07186 12.6222 8.83821 12.3175 8.68641L12.3158 8.68557L11.1323 8.08713L11.1323 8.08712L11.1292 8.08557C10.9903 8.01658 10.8735 7.91022 10.7918 7.77847C10.7101 7.64671 10.6667 7.49477 10.6667 7.33974V4.66667H10.8333C11.3196 4.66667 11.7859 4.47351 12.1297 4.1297C12.4735 3.78588 12.6667 3.31956 12.6667 2.83333C12.6667 2.3471 12.4735 1.88079 12.1297 1.53697C11.7859 1.19315 11.3196 1 10.8333 1H5.5ZM4.91074 2.24408C5.06702 2.0878 5.27899 2 5.5 2H10.8333C11.0543 2 11.2663 2.0878 11.4226 2.24408C11.5789 2.40036 11.6667 2.61232 11.6667 2.83333C11.6667 3.05435 11.5789 3.26631 11.4226 3.42259C11.2663 3.57887 11.0543 3.66667 10.8333 3.66667H10.1667C9.89052 3.66667 9.66667 3.89052 9.66667 4.16667V7.34L9.66667 7.34027C9.66685 7.68134 9.76217 8.01561 9.94192 8.30547C10.1213 8.59482 10.3778 8.82847 10.6825 8.98027L10.6842 8.9811L11.8677 9.57954L11.8677 9.57955L11.8708 9.5811C12.0097 9.65009 12.1265 9.75644 12.2082 9.8882C12.2899 10.02 12.3333 10.1719 12.3333 10.3269V11H4V10.3268C4.0001 10.1718 4.04343 10.0199 4.12512 9.8882C4.20682 9.75644 4.32366 9.65009 4.4625 9.5811L4.46251 9.58111L4.46561 9.57954L5.64917 8.9811L5.65081 8.98028C5.95554 8.82848 6.21198 8.59482 6.39141 8.30547C6.57116 8.01561 6.66649 7.68134 6.66667 7.34027V7.34V4.16667C6.66667 3.89052 6.44281 3.66667 6.16667 3.66667H5.5C5.27899 3.66667 5.06702 3.57887 4.91074 3.42259C4.75446 3.26631 4.66667 3.05435 4.66667 2.83333C4.66667 2.61232 4.75446 2.40036 4.91074 2.24408Z" fill="black"/>
<path fill-rule="evenodd" clip-rule="evenodd" d="M8.5 11.5C8.5 11.2239 8.27614 11 8 11C7.72386 11 7.5 11.2239 7.5 11.5V14.8333C7.5 14.8506 7.50087 14.8676 7.50258 14.8845C7.52819 15.1366 7.74112 15.3333 8 15.3333C8.27614 15.3333 8.5 15.1095 8.5 14.8333V11.5Z" fill="black"/>
</svg>
