<svg xmlns="http://www.w3.org/2000/svg" width="16" height="16" fill="none"><path fill="#000" fill-rule="evenodd" d="M3.083 2.5a.583.583 0 0 0-.583.583v9.334c0 .322.261.583.583.583h9.334a.583.583 0 0 0 .583-.583V3.083a.583.583 0 0 0-.583-.583H3.083ZM1 3.083C1 1.933 1.933 1 3.083 1h9.334c1.15 0 2.083.933 2.083 2.083v9.334c0 1.15-.933 2.083-2.083 2.083H3.083A2.083 2.083 0 0 1 1 12.417V3.083Z" clip-rule="evenodd"/><path fill="#000" fill-rule="evenodd" d="M9.75 1a.75.75 0 0 1 .75.75V5h3.25a.75.75 0 0 1 0 1.5H10.5V9h3.25a.75.75 0 0 1 0 1.5H10.5v3.25a.75.75 0 0 1-1.5 0V10.5H1.75a.75.75 0 0 1 0-1.5H9V6.5H1.75a.75.75 0 0 1 0-1.5H9V1.75A.75.75 0 0 1 9.75 1Z" clip-rule="evenodd"/></svg>