<svg width="16" height="16" viewBox="0 0 16 16" fill="none" xmlns="http://www.w3.org/2000/svg">
<path fill-rule="evenodd" clip-rule="evenodd" d="M2.83333 2C2.3731 2 2 2.3731 2 2.83333V12.1667C2 12.6269 2.3731 13 2.83333 13H12.1667C12.6269 13 13 12.6269 13 12.1667V2.83333C13 2.3731 12.6269 2 12.1667 2H2.83333ZM1 2.83333C1 1.82081 1.82081 1 2.83333 1H12.1667C13.1792 1 14 1.82081 14 2.83333V12.1667C14 13.1792 13.1792 14 12.1667 14H2.83333C1.82081 14 1 13.1792 1 12.1667V2.83333Z" fill="black"/>
<path fill-rule="evenodd" clip-rule="evenodd" d="M9.5 1C9.77614 1 10 1.22386 10 1.5V5H13.5C13.7761 5 14 5.22386 14 5.5C14 5.77614 13.7761 6 13.5 6H10V9H13.5C13.7761 9 14 9.22386 14 9.5C14 9.77614 13.7761 10 13.5 10H10V13.5C10 13.7761 9.77614 14 9.5 14C9.22386 14 9 13.7761 9 13.5V10H1.5C1.22386 10 1 9.77614 1 9.5C1 9.22386 1.22386 9 1.5 9H9V6H1.5C1.22386 6 1 5.77614 1 5.5C1 5.22386 1.22386 5 1.5 5H9V1.5C9 1.22386 9.22386 1 9.5 1Z" fill="black"/>
</svg>
