<svg xmlns="http://www.w3.org/2000/svg" width="16" height="16" fill="none"><g clip-path="url(#a)"><path fill="#000" fill-rule="evenodd" d="M7.75 1.5a6.25 6.25 0 1 0 0 12.5 6.25 6.25 0 0 0 0-12.5ZM0 7.75a7.75 7.75 0 1 1 15.5 0 7.75 7.75 0 0 1-15.5 0ZM7.75 4.5a.75.75 0 0 1 .75.75V7h1.75a.75.75 0 0 1 0 1.5H8.5v1.75a.75.75 0 0 1-1.5 0V8.5H5.25a.75.75 0 0 1 0-1.5H7V5.25a.75.75 0 0 1 .75-.75Z" clip-rule="evenodd"/></g><defs><clipPath id="a"><path fill="#fff" d="M0 0h16v16H0z"/></clipPath></defs></svg>