<svg width="16" height="16" viewBox="0 0 16 16" fill="none" xmlns="http://www.w3.org/2000/svg">
<path fill-rule="evenodd" clip-rule="evenodd" d="M7.5 1C3.91015 1 1 3.91015 1 7.5C1 11.0899 3.91015 14 7.5 14C11.0899 14 14 11.0899 14 7.5C14 3.91015 11.0899 1 7.5 1ZM0 7.5C0 3.35786 3.35786 0 7.5 0C11.6421 0 15 3.35786 15 7.5C15 11.6421 11.6421 15 7.5 15C3.35786 15 0 11.6421 0 7.5ZM7.5 4.5C7.77614 4.5 8 4.72386 8 5V7H10C10.2761 7 10.5 7.22386 10.5 7.5C10.5 7.77614 10.2761 8 10 8H8V10C8 10.2761 7.77614 10.5 7.5 10.5C7.22386 10.5 7 10.2761 7 10V8H5C4.72386 8 4.5 7.77614 4.5 7.5C4.5 7.22386 4.72386 7 5 7H7V5C7 4.72386 7.22386 4.5 7.5 4.5Z" fill="black"/>
</svg>
