<svg width="16" height="16" viewBox="0 0 16 16" fill="none" xmlns="http://www.w3.org/2000/svg">
<path fill-rule="evenodd" clip-rule="evenodd" d="M7.14644 12.1464C6.95117 12.3417 6.95117 12.6583 7.14644 12.8536C7.3417 13.0488 7.65828 13.0488 7.85354 12.8536L12.7089 7.99824C12.9652 7.97682 13.1667 7.76193 13.1667 7.5C13.1667 7.23807 12.9652 7.02318 12.7089 7.00176L7.85354 2.14645C7.65828 1.95118 7.3417 1.95118 7.14644 2.14645C6.95117 2.34171 6.95117 2.65829 7.14644 2.85355L11.2929 7L3.33332 7C3.05718 7 2.83332 7.22386 2.83332 7.5C2.83332 7.77614 3.05718 8 3.33332 8L11.2929 8L7.14644 12.1464Z" fill="black"/>
</svg>
