<svg width="16" height="16" viewBox="0 0 16 16" fill="none" xmlns="http://www.w3.org/2000/svg">
<path fill-rule="evenodd" clip-rule="evenodd" d="M3.85355 2.14645C3.65829 1.95118 3.34171 1.95118 3.14645 2.14645C2.95118 2.34171 2.95118 2.65829 3.14645 2.85355L7.29289 7H4.33334C4.05719 7 3.83334 7.22386 3.83334 7.5C3.83334 7.77614 4.05719 8 4.33334 8H7.66667C7.83698 8 7.98741 7.91485 8.07769 7.7848L14.1464 13.8536C14.3417 14.0488 14.6583 14.0488 14.8536 13.8536C15.0488 13.6583 15.0488 13.3417 14.8536 13.1464L3.85355 2.14645ZM13.3219 9.27537C13.1309 9.47474 13.1376 9.79125 13.337 9.98231C13.5364 10.1734 13.8529 10.1666 14.0439 9.96727C14.6744 9.30942 15.025 8.42155 15.025 7.5C15.025 6.57845 14.6744 5.69058 14.0439 5.03273C13.4128 4.37415 12.5521 4 11.65 4L10.5 4C10.2239 4 10 4.22386 10 4.5C10 4.77614 10.2239 5 10.5 5H11.65C12.2729 5 12.8747 5.25799 13.3219 5.72463C13.7698 6.192 14.025 6.83025 14.025 7.5C14.025 8.16974 13.7698 8.808 13.3219 9.27537ZM2.70306 5.72463C2.89413 5.52526 2.88739 5.20875 2.68802 5.01769C2.48865 4.82662 2.17214 4.83336 1.98108 5.03273C1.35063 5.69058 1 6.57845 1 7.5C1 8.42155 1.35063 9.30942 1.98108 9.96727C2.61221 10.6258 3.47286 11 4.375 11H5.525C5.80114 11 6.025 10.7761 6.025 10.5C6.025 10.2239 5.80114 10 5.525 10H4.375C3.75214 10 3.15026 9.74201 2.70306 9.27537C2.25517 8.808 2 8.16975 2 7.5C2 6.83026 2.25517 6.192 2.70306 5.72463Z" fill="black"/>
</svg>
