<svg xmlns="http://www.w3.org/2000/svg" width="16" height="16" fill="none"><path fill="#000" fill-rule="evenodd" d="M4.03 2.22a.75.75 0 0 0-1.06 1.06L6.69 7H4.332a.75.75 0 1 0 0 1.5h3.334a.747.747 0 0 0 .404-.118l5.899 5.898a.75.75 0 1 0 1.06-1.06l-11-11Zm9.111 7.132a.75.75 0 1 0 1.083 1.038 3.817 3.817 0 0 0 1.051-2.64c0-.985-.375-1.935-1.05-2.64A3.565 3.565 0 0 0 11.65 4H10.5a.75.75 0 0 0 0 1.5h1.15c.553 0 1.09.229 1.491.648.403.42.634.995.634 1.602 0 .607-.231 1.183-.634 1.602ZM2.884 6.148A.75.75 0 0 0 1.8 5.11 3.817 3.817 0 0 0 .75 7.75c0 .985.375 1.935 1.05 2.64a3.566 3.566 0 0 0 2.575 1.11h1.15a.75.75 0 0 0 0-1.5h-1.15c-.553 0-1.09-.229-1.491-.648A2.318 2.318 0 0 1 2.25 7.75c0-.607.231-1.183.634-1.602Z" clip-rule="evenodd"/></svg>