<?xml version="1.0" standalone="no"?>
<!DOCTYPE svg PUBLIC "-//W3C//DTD SVG 1.1//EN" "http://www.w3.org/Graphics/SVG/1.1/DTD/svg11.dtd" >
<svg xmlns="http://www.w3.org/2000/svg">
<metadata>Generated by IcoMoon</metadata>
<defs>
<font id="agGridClassic" horiz-adv-x="1024">
<font-face units-per-em="1024" ascent="960" descent="-64" />
<missing-glyph horiz-adv-x="1024" />
<glyph unicode="&#x20;" horiz-adv-x="512" d="" />
<glyph unicode="&#xe900;" glyph-name="aggregation" d="M841.522 661.333h-364.971l121.941-213.333-121.941-213.333h364.971v-170.667h-659.029l219.392 384-219.392 384h659.029c0-56.917 0-113.749 0-170.667z" />
<glyph unicode="&#xe901;" glyph-name="arrows" d="M460.8 755.2v8.704l-81.408-80.896-72.192 72.192 204.8 204.8 204.8-204.8-72.192-72.192-81.408 80.896v-264.704h264.704l-80.896 81.408 72.192 72.192 204.8-204.8-204.8-204.8-72.192 72.192 80.896 81.408h-264.704v-264.704l81.408 80.896 72.192-72.192-204.8-204.8-204.8 204.8 72.192 72.192 81.408-80.896v264.704h-264.704l80.896-81.408-72.192-72.192-204.8 204.8 204.8 204.8 72.192-72.192-80.896-81.408h264.704v256z" />
<glyph unicode="&#xe902;" glyph-name="asc" d="M430.452 578.122l-177.493-177.493-102.997 102.997 362.069 362.069c120.661-120.661 241.323-241.323 361.984-362.069l-102.997-102.997-176.213 176.213v-546.56h-164.352v547.84z" />
<glyph unicode="&#xe903;" glyph-name="cancel" d="M768 264.192l-72.192-72.192-183.808 183.808-183.808-183.808-72.192 72.192 183.808 183.808-183.808 183.808 72.192 72.192 183.808-183.808 183.808 183.808 72.192-72.192-183.808-183.808 183.808-183.808z" />
<glyph unicode="&#xe904;" glyph-name="chart" d="M895.147-65.621h-766.635c-70.656 0-128 57.344-128 128v770.645c0 70.656 57.344 128 128 128h766.635c70.656 0 128-57.344 128-128v-770.645c0-70.656-57.344-128-128-128zM895.915 874.155h-769.536c-22.784 0-41.216-18.432-41.216-41.131v-769.451c0-22.699 18.432-41.216 41.216-41.216h769.536c22.784 0 41.216 18.517 41.216 41.216v769.451c0 22.699-18.432 41.131-41.216 41.131zM298.667 533.333h85.333v-298.667h-85.333v298.667zM640 405.333h85.333v-170.667h-85.333v170.667zM469.333 661.333h85.333v-426.667h-85.333v426.667z" />
<glyph unicode="&#xe905;" glyph-name="checkbox-checked" d="M805.461 683.605l-280.405-514.048-253.013 202.496 53.248 66.56 173.653-138.837 231.595 424.619c25.003-13.568 49.92-27.221 74.923-40.789zM895.147 961.024c70.656 0 128-57.344 128-128v-770.645c0-70.656-57.344-128-128-128h-766.635c-70.656 0-128 57.344-128 128v770.645c0 70.656 57.344 128 128 128h766.635zM895.915 874.155h-769.536c-22.784 0-41.216-18.432-41.216-41.131v-769.451c0-22.699 18.432-41.216 41.216-41.216h769.536c22.784 0 41.216 18.517 41.216 41.216v769.451c0 22.699-18.432 41.131-41.216 41.131z" />
<glyph unicode="&#xe906;" glyph-name="checkbox-indeterminate" d="M341.333 533.333h341.333v-170.667h-341.333v170.667zM895.147 961.024c70.656 0 128-57.344 128-128v-770.645c0-70.656-57.344-128-128-128h-766.635c-70.656 0-128 57.344-128 128v770.645c0 70.656 57.344 128 128 128h766.635zM895.915 874.155h-769.536c-22.784 0-41.216-18.432-41.216-41.131v-769.451c0-22.699 18.432-41.216 41.216-41.216h769.536c22.784 0 41.216 18.517 41.216 41.216v769.451c0 22.699-18.432 41.131-41.216 41.131z" />
<glyph unicode="&#xe907;" glyph-name="checkbox-unchecked" d="M895.147 961.024c70.656 0 128-57.344 128-128v-770.645c0-70.656-57.344-128-128-128h-766.635c-70.656 0-128 57.344-128 128v770.645c0 70.656 57.344 128 128 128h766.635zM895.915 874.155h-769.536c-22.784 0-41.216-18.432-41.216-41.131v-769.451c0-22.699 18.432-41.216 41.216-41.216h769.536c22.784 0 41.216 18.517 41.216 41.216v769.451c0 22.699-18.432 41.131-41.216 41.131z" />
<glyph unicode="&#xe908;" glyph-name="column" d="M426.667 618.667v-597.333h-341.333v597.333h341.333zM426.667 874.667v-170.667h-341.333v170.667h341.333z" />
<glyph unicode="&#xe909;" glyph-name="columns" d="M426.667 192v-170.667h-341.333v170.667h341.333zM938.667 192v-170.667h-341.333v170.667h341.333zM426.667 533.333v-170.667h-341.333v170.667h341.333zM938.667 533.333v-170.667h-341.333v170.667h341.333zM426.667 874.667v-170.667h-341.333v170.667h341.333zM938.667 874.667v-170.667h-341.333v170.667h341.333z" />
<glyph unicode="&#xe90a;" glyph-name="contracted" d="M895.147 961.024c70.656 0 128-57.344 128-128v-770.645c0-70.656-57.344-128-128-128h-766.635c-70.656 0-128 57.344-128 128v770.645c0 70.656 57.344 128 128 128h766.635zM895.915 874.155h-769.536c-22.784 0-41.216-18.432-41.216-41.131v-769.451c0-22.699 18.432-41.216 41.216-41.216h769.536c22.784 0 41.216 18.517 41.216 41.216v769.451c0 22.699-18.432 41.131-41.216 41.131zM768 533.333v-170.667h-512v170.667h512z" />
<glyph unicode="&#xe90b;" glyph-name="copy" d="M682.667 618.667h170.667v-512h-512v170.667h-170.667v512h512v-170.667zM768 533.333h-341.333v-341.333h341.333v341.333zM597.333 618.667v85.333h-341.333v-341.333h85.333v256h256z" />
<glyph unicode="&#xe90c;" glyph-name="cross" d="M512 568.661l281.003 281.003c40.192-40.192 80.469-80.469 120.661-120.661l-281.003-281.003 281.003-281.003-120.661-120.661-281.003 281.003-281.003-281.003-120.661 120.661 281.003 281.003-281.003 281.003 120.661 120.661 281.003-281.003z" />
<glyph unicode="&#xe90d;" glyph-name="cut" d="M537.856 569.429c102.485 86.357 199.253 169.216 277.589 167.765 20.139-1.195 39.424-7.424 56.917-17.323l54.869-33.365c-86.443-70.144-170.923-145.92-257.365-217.685 86.613-67.755 171.947-137.301 257.365-206.677-72.192-43.861-138.411-64.768-236.459 6.827-45.056 32.853-96.341 71.509-140.544 105.216-79.189-58.88-161.365-111.019-249.088-149.504-83.541-36.779-217.088 14.507-181.504 126.805 18.176 57.259 66.987 93.781 119.893 118.443-84.992 45.653-147.968 128.427-115.968 198.229 21.419 46.763 60.928 70.571 126.293 68.949 81.323-5.035 150.869-68.779 222.976-120.32 21.76-15.531 43.52-31.403 65.024-47.36zM382.549 425.472c-102.315-4.608-255.573-133.803-136.363-128.683 46.336 2.048 90.709 44.8 138.581 77.568 0 0 5.461 51.2-2.219 51.115zM241.408 651.861c-6.229-0.256-12.373-1.195-18.261-3.157-3.84-1.28-7.595-2.987-11.093-5.12-62.123-38.315 92.587-119.211 171.947-120.405l0.768 51.115c-49.408 33.877-105.387 78.080-143.36 77.568z" />
<glyph unicode="&#xe90e;" glyph-name="data" d="M156.544 252.224c-58.88 0-106.667-47.829-106.667-106.667 0-58.88 47.787-106.667 106.667-106.667s106.667 47.787 106.667 106.667c0 58.837-47.787 106.667-106.667 106.667zM974.123 252.224h-682.667v-213.333h682.667v213.333zM156.544 554.56c-58.88 0-106.667-47.787-106.667-106.667s47.787-106.667 106.667-106.667c58.88 0 106.667 47.787 106.667 106.667s-47.787 106.667-106.667 106.667zM974.123 554.645v-213.333h-682.667v213.333h682.667zM156.544 522.56c41.216 0 74.667-33.451 74.667-74.667s-33.451-74.667-74.667-74.667c-41.216 0-74.667 33.451-74.667 74.667s33.451 74.667 74.667 74.667zM974.123 857.109v-213.333h-682.667v213.333h682.667zM156.544 857.109c58.88 0 106.667-47.787 106.667-106.667s-47.787-106.667-106.667-106.667c-58.88 0-106.667 47.787-106.667 106.667s47.787 106.667 106.667 106.667z" />
<glyph unicode="&#xe90f;" glyph-name="desc" d="M430.623 322.504v538.453c54.699 0 109.312 0 164.011 0v-537.259l176.384 176.384 102.997-102.997-361.984-361.984-362.069 361.984 102.997 102.997 177.664-177.579z" />
<glyph unicode="&#xe910;" glyph-name="expanded" d="M895.147 961.024c70.656 0 128-57.344 128-128v-770.645c0-70.656-57.344-128-128-128h-766.635c-70.656 0-128 57.344-128 128v770.645c0 70.656 57.344 128 128 128h766.635zM895.915 874.155h-769.536c-22.784 0-41.216-18.432-41.216-41.131v-769.451c0-22.699 18.432-41.216 41.216-41.216h769.536c22.784 0 41.216 18.517 41.216 41.216v769.451c0 22.699-18.432 41.131-41.216 41.131zM426.667 533.333v170.667h170.667v-170.667h170.667v-170.667h-170.667v-170.667h-170.667v170.667h-170.667v170.667h170.667z" />
<glyph unicode="&#xe911;" glyph-name="eye-slash" d="M296.107 736.512l52.651 41.557 39.083-49.664c42.24 12.117 86.613 18.517 132.779 18.176 192.085-4.523 355.755-129.963 469.504-298.581-55.979-83.029-131.328-155.819-217.003-208.128l54.443-69.12-66.987-52.821-32.683 41.557 14.336 11.264-308.651 391.509c40.619 8.789 82.859 11.52 123.819 13.056 13.397 0.427 26.709 0.597 40.107 0.683-0.085 28.416-0.256 56.917-0.341 85.333l-10.752-0.085c-71.253-0.853-143.531-5.12-210.432-25.941l-79.872 101.205zM245.675 662.784l235.093-298.24c-111.531 13.568-200.96 98.901-220.672 208.384-46.677-34.389-88.235-77.056-122.88-124.928 99.584-137.472 272.555-228.949 440.917-206.848l51.712-65.621c-121.941-36.011-253.269-28.843-374.443 43.861-91.648 54.955-161.024 138.837-221.525 228.608 57.088 84.651 128.512 160.597 211.797 214.784zM729.344 295.424c60.757 37.547 110.848 89.6 153.259 146.773 0 0-43.264 65.195-119.893 124.416-14.421-69.973-57.515-129.536-116.395-165.888l83.029-105.301z" />
<glyph unicode="&#xe912;" glyph-name="eye" d="M520.619 744.068c192.085-4.523 355.755-129.963 469.504-298.581-158.123-234.496-470.613-387.072-734.72-228.608-91.648 54.955-161.024 138.837-221.525 228.608 112.725 167.083 280.917 300.203 486.741 298.581zM260.096 570.415c-46.677-34.389-88.235-77.056-122.88-124.928 127.915-176.555 376.747-277.248 581.461-158.976 65.621 37.888 119.040 92.757 163.925 153.173 0 0-43.264 65.195-119.893 124.416-24.064-116.395-127.147-203.947-250.709-203.947-125.781 0-230.4 90.709-251.904 210.261zM597.504 573.487c-0.085 28.416-0.256 56.917-0.341 85.333l-10.752-0.085c-90.624-1.024-183.040-7.765-263.68-46.848l37.205-76.8c61.099 29.611 130.987 35.243 197.461 37.717 13.397 0.427 26.709 0.597 40.107 0.683z" />
<glyph unicode="&#xe913;" glyph-name="filter" d="M85.333 832h853.333l-341.333-341.333v-426.667l-170.667 170.667v256l-341.333 341.333zM426.667 490.667v-85.333h170.667v85.333h-170.667z" />
<glyph unicode="&#xe914;" glyph-name="first" d="M327.111 704v-512h-85.333v512h85.333zM782.223 248.889l-199.111 199.111 199.111 199.111-56.889 56.889-256-256 256-256 56.889 56.889z" />
<glyph unicode="&#xe915;" glyph-name="grip" d="M170.667 149.333h170.667v-170.667h-170.667v170.667zM426.667 149.333h170.667v-170.667h-170.667v170.667zM682.667 149.333h170.667v-170.667h-170.667v170.667zM170.667 405.333h170.667v-170.667h-170.667v170.667zM426.667 405.333h170.667v-170.667h-170.667v170.667zM682.667 405.333h170.667v-170.667h-170.667v170.667zM170.667 661.333h170.667v-170.667h-170.667v170.667zM426.667 661.333h170.667v-170.667h-170.667v170.667zM682.667 661.333h170.667v-170.667h-170.667v170.667zM170.667 917.333h170.667v-170.667h-170.667v170.667zM426.667 917.333h170.667v-170.667h-170.667v170.667zM853.333 746.667h-170.667v170.667h170.667v-170.667z" />
<glyph unicode="&#xe916;" glyph-name="group" d="M426.667 832h170.667v85.333h341.333v-256h-341.333v85.333h-170.667v-85.333h-170.667v-170.667h341.333v85.333h341.333v-256h-341.333v85.333h-341.333v-256h341.333v85.333h341.333v-256h-341.333v85.333h-426.667v597.333h-85.333v256h341.333v-85.333zM853.333 149.333h-170.667v-85.333h170.667v85.333zM853.333 490.667h-170.667v-85.333h170.667v85.333zM853.333 832h-170.667v-85.333h170.667v85.333zM341.333 832h-170.667v-85.333h170.667v85.333z" />
<glyph unicode="&#xe917;" glyph-name="indeterminate" d="M520.448 658.53c163.755-2.56 325.035-63.829 442.709-177.408l36.181-35.84c-251.989-249.088-674.731-290.389-938.496-35.84l-36.181 35.84c132.864 131.328 308.992 214.272 495.787 213.248zM750.763 523.447c-37.035-95.659-129.963-163.499-238.763-163.499s-201.643 67.84-238.763 163.499c-43.861-19.456-84.992-44.629-122.027-75.435l-3.157-2.731c198.059-169.387 521.557-172.203 724.736-2.731l3.157 2.731c-37.717 32.256-80.043 58.283-125.184 78.165zM597.504 487.948c-0.085 28.416-0.256 56.917-0.341 85.333l-10.752-0.085c-90.624-1.024-183.040-7.765-263.68-46.848l37.205-76.8c61.099 29.611 130.987 35.243 197.461 37.717 13.397 0.427 26.709 0.597 40.107 0.683z" />
<glyph unicode="&#xe918;" glyph-name="last" d="M782.223 192h-85.333v512h85.333v-512zM241.778 248.889l199.111 199.111-199.111 199.111 56.889 56.889 256-256-256-256-56.889 56.889z" />
<glyph unicode="&#xe919;" glyph-name="left" d="M366.677 362.039l173.056-173.056-102.997-102.997-362.069 361.984 362.069 362.069c34.304-34.304 68.608-68.693 102.997-102.997l-174.336-174.336h583.936v-170.667h-582.656z" />
<glyph unicode="&#xe91a;" d="M597.333 21.333h-170.667v256h170.667v-256zM341.333 362.667h-256v170.667h256v-170.667zM938.667 362.667h-256v170.667h256v-170.667zM597.333 618.667h-170.667v256h170.667v-256z" />
<glyph unicode="&#xe91b;" d="M874.069 206.677l-120.747-120.747-180.992 181.077 120.661 120.661c60.331-60.331 120.747-120.661 181.077-180.992zM451.669 267.008l-180.992-181.077-120.747 120.747 181.077 180.992c40.192-40.277 80.384-80.469 120.661-120.661zM874.069 689.323l-181.077-180.992-120.661 120.661 180.992 181.077c40.277-40.277 80.469-80.469 120.747-120.747zM451.669 628.992l-120.661-120.661-181.077 180.992 120.747 120.747c60.331-60.331 120.661-120.747 180.992-181.077z" />
<glyph unicode="&#xe91c;" glyph-name="maximize" d="M895.147-65.621h-766.635c-70.656 0-128 57.344-128 128v770.645c0 70.656 57.344 128 128 128h766.635c70.656 0 128-57.344 128-128v-770.645c0-70.656-57.344-128-128-128zM895.915 874.155h-769.536c-22.784 0-41.216-18.432-41.216-41.131v-769.451c0-22.699 18.432-41.216 41.216-41.216h769.536c22.784 0 41.216 18.517 41.216 41.216v769.451c0 22.699-18.432 41.131-41.216 41.131zM369.323 150.955l-227.669-72.875 72.789 227.755 49.237-49.323 159.317 159.317 56.917-56.917-159.317-159.317 48.725-48.64zM808.448 589.739l73.216 229.035-229.035-73.216 49.579-49.579-160.256-160.171 57.259-57.259 160.256 160.171 48.981-48.981z" />
<glyph unicode="&#xe91d;" glyph-name="menu" d="M938.667 192v-170.667h-853.333v170.667h853.333zM938.667 533.333v-170.667h-853.333v170.667h853.333zM938.667 874.667v-170.667h-853.333v170.667h853.333z" />
<glyph unicode="&#xe91e;" glyph-name="minimize" d="M895.147-65.621h-766.635c-70.656 0-128 57.344-128 128v770.645c0 70.656 57.344 128 128 128h766.635c70.656 0 128-57.344 128-128v-770.645c0-70.656-57.344-128-128-128zM895.915 874.155h-769.536c-22.784 0-41.216-18.432-41.216-41.131v-769.451c0-22.699 18.432-41.216 41.216-41.216h769.536c22.784 0 41.216 18.517 41.216 41.216v769.451c0 22.699-18.432 41.131-41.216 41.131zM252.587 343.808l228.096 72.875-72.96-228.011-49.323 49.323-159.488-159.573-57.088 57.003 159.573 159.573-48.811 48.811zM616.789 708.096l-72.96-228.181 228.181 72.96-49.408 49.408 159.659 159.573-57.088 57.088-159.573-159.659-48.811 48.811z" />
<glyph unicode="&#xe91f;" glyph-name="minus" d="M170.667 533.333h682.667v-170.667h-682.667v170.667z" />
<glyph unicode="&#xe920;" glyph-name="next" d="M355.556 248.889l199.111 199.111-199.111 199.111 56.889 56.889 256-256-256-256-56.889 56.889z" />
<glyph unicode="&#xe921;" glyph-name="none" d="M421.12 641.128l-107.776-107.776-103.083 102.997 301.739 301.653c100.608-100.523 201.131-201.131 301.739-301.653l-103.083-102.997-107.776 107.776v-386.304l107.776 107.861 103.083-102.997-301.739-301.739-301.739 301.739 103.083 102.997 107.776-107.861v386.304z" />
<glyph unicode="&#xe922;" glyph-name="not-allowed" d="M512.171 961.877c282.283 0 511.488-229.973 511.488-513.195s-229.205-513.195-511.488-513.195c-282.368 0-511.573 229.973-511.573 513.195s229.205 513.195 511.573 513.195zM848.896 710.656l-598.699-598.699c72.363-56.32 163.243-89.941 261.973-89.941 235.435 0 426.667 191.147 426.667 426.667 0 98.731-33.621 189.611-89.941 261.973zM774.656 784.896c-72.363 56.661-163.499 90.453-262.485 90.453-235.52 0-426.667-191.147-426.667-426.667 0-98.987 33.792-190.123 90.368-262.571l598.784 598.784z" />
<glyph unicode="&#xe923;" glyph-name="paste" d="M597.333 746.667h256c0-227.584 0-455.083 0-682.667h-682.667v682.667h256v85.333h170.667v-85.333zM768 661.333h-170.667c0 0 85.333 0 85.333 0v-170.667h-341.333v170.667h85.333c0 0-170.667 0-170.667 0v-512h512v512z" />
<glyph unicode="&#xe924;" d="M512 704h-256v85.333h512v-85.333h-85.333v-341.333l170.667-85.333h-256l-85.333-256-85.333 256h-256l170.667 85.333v85.333h85.333v-85.333h85.333v341.333z" />
<glyph unicode="&#xe925;" d="M426.667 704h85.333v-341.333h-85.333v341.333z" />
<glyph unicode="&#xe926;" d="M341.333 704h85.333v-256h-85.333v256z" />
<glyph unicode="&#xe927;" glyph-name="pivot" d="M895.147-65.621h-766.635c-70.656 0-128 57.344-128 128v770.645c0 70.656 57.344 128 128 128h766.635c70.656 0 128-57.344 128-128v-770.645c0-70.656-57.344-128-128-128zM256 704v170.155h-129.621c-22.784 0-41.216-18.432-41.216-41.131v-769.451c0-22.699 18.432-41.216 41.216-41.216h129.621v596.309h-170.667v85.333h170.667zM937.131 618.667h-595.797v-596.309h554.581c22.784 0 41.216 18.517 41.216 41.216v555.093zM682.667 387.669l-12.459-12.544-60.416 60.416 115.541 115.456c38.485-38.485 76.971-76.971 115.541-115.456l-60.416-60.416-12.459 12.544v-195.669h-195.669l12.544-12.459-60.416-60.416-115.456 115.541 115.456 115.541c20.139-20.139 40.277-40.277 60.416-60.416l-12.544-12.459h110.336v110.336zM895.915 874.155h-554.581v-170.155h595.797v129.024c0 22.699-18.432 41.131-41.216 41.131z" />
<glyph unicode="&#xe928;" glyph-name="plus" d="M170.667 533.333h256v256h170.667v-256h256v-170.667h-256v-256h-170.667v256h-256v170.667z" />
<glyph unicode="&#xe929;" glyph-name="previous" d="M668.444 248.889l-199.111 199.111 199.111 199.111-56.889 56.889-256-256 256-256 56.889 56.889z" />
<glyph unicode="&#xe92a;" glyph-name="radio-button-off" d="M512.171 961.877c-282.368 0-511.573-229.973-511.573-513.195s229.205-513.195 511.573-513.195c282.283 0 511.488 229.973 511.488 513.195s-229.205 513.195-511.488 513.195zM512.171 875.349c235.435 0 426.667-191.147 426.667-426.667s-191.232-426.667-426.667-426.667c-235.52 0-426.667 191.147-426.667 426.667s191.147 426.667 426.667 426.667z" />
<glyph unicode="&#xe92b;" glyph-name="radio-button-on" d="M768.151 448.686c0-141.653-114.347-256-256-256s-256 114.347-256 256c0 141.653 114.347 256 256 256s256-114.347 256-256zM512.171 961.877c-282.368 0-511.573-229.973-511.573-513.195s229.205-513.195 511.573-513.195c282.283 0 511.488 229.973 511.488 513.195s-229.205 513.195-511.488 513.195zM512.171 875.349c235.435 0 426.667-191.147 426.667-426.667s-191.232-426.667-426.667-426.667c-235.52 0-426.667 191.147-426.667 426.667s191.147 426.667 426.667 426.667z" />
<glyph unicode="&#xe92c;" glyph-name="right" d="M657.951 532.705l-174.251 174.336 102.997 102.997c120.661-120.661 241.323-241.323 361.984-362.069l-361.984-361.984-102.997 102.997 173.056 173.056h-581.461v170.667h582.656z" />
<glyph unicode="&#xe92d;" glyph-name="save" d="M810.667 448v-298.667h-597.333v298.667h-85.333v-298.667c0-46.933 38.4-85.333 85.333-85.333h597.333c46.933 0 85.333 38.4 85.333 85.333v298.667h-85.333zM554.667 419.413l110.507 110.080 60.16-60.16-213.333-213.333-213.333 213.333 60.16 60.16 110.507-110.080v412.587h85.333v-412.587z" />
<glyph unicode="&#xe92e;" glyph-name="small-down" d="M170.667 618.667h682.667l-341.333-341.333-341.333 341.333z" />
<glyph unicode="&#xe92f;" glyph-name="small-left" d="M341.333 448l341.333 341.333v-682.667l-341.333 341.333z" />
<glyph unicode="&#xe930;" glyph-name="small-right" d="M341.333 789.333l341.333-341.333-341.333-341.333v682.667z" />
<glyph unicode="&#xe931;" glyph-name="small-up" d="M170.667 277.333l341.333 341.333 341.333-341.333h-682.667z" />
<glyph unicode="&#xe932;" glyph-name="tick" d="M956.331 673.839l-572.331-572.331-316.331 316.331 120.661 120.661 195.669-195.669 451.669 451.669c40.192-40.192 80.469-80.469 120.661-120.661z" />
<glyph unicode="&#xe933;" glyph-name="tree-closed" d="M341.333 789.333l341.333-341.333-341.333-341.333v682.667z" />
<glyph unicode="&#xe934;" glyph-name="tree-indeterminate" d="M170.667 533.333h682.667v-170.667h-682.667v170.667z" />
<glyph unicode="&#xe935;" glyph-name="tree-open" d="M170.667 618.667h682.667l-341.333-341.333-341.333 341.333z" />
</font>
</defs>
</svg>
