<?xml version="1.0" encoding="UTF-8"?>
<svg width="100%" height="100%" viewBox="0 0 32 32" version="1.1" xmlns="http://www.w3.org/2000/svg" xmlns:xlink="http://www.w3.org/1999/xlink">
    <!-- Generator: Sketch 51.3 (57544) - http://www.bohemiancoding.com/sketch -->
    <title>eye-slash</title>
    <desc>Created with Sketch.</desc>
    <defs></defs>
    <g id="eye-slash" stroke="none" stroke-width="1" fill="none" fill-rule="evenodd">
        <path d="M8.94955852,10.3637721 L7,8.41421356 L8.41421356,7 L10.7336577,9.31944414 C12.4864338,8.47045347 14.4480501,8 16.5,8 C22.1084269,8 27.0420181,11.5145141 28.8810516,16.6667539 L29,17 L28.8810516,17.3332461 C28.0368269,19.6984276 26.5404704,21.718483 24.6260654,23.2118518 L26.0918831,24.6776695 L24.6776695,26.0918831 L22.9244106,24.3386242 C21.0108258,25.4023367 18.8127927,26 16.5,26 C10.8915731,26 5.95798188,22.4854859 4.1189484,17.3332461 L4,17 L4.1189484,16.6667539 C5.0460432,14.0694033 6.75958165,11.8882604 8.94955852,10.3637721 Z M10.3947476,11.8089612 C8.50233497,13.0417266 6.99950481,14.8398495 6.14833404,17 C7.79410482,21.1767324 11.8761486,24 16.5,24 C18.2599168,24 19.9413423,23.590995 21.4398161,22.8540297 L19.5619231,20.9761367 C18.7125471,21.6184721 17.6512687,22 16.5,22 C13.7113147,22 11.4506385,19.7614237 11.4506385,17 C11.4506385,15.8423474 11.8479478,14.7765842 12.5149077,13.9291212 L10.3947476,11.8089612 Z M12.2496607,10.8354472 L14.0443163,12.6301027 C14.7712097,12.2287109 15.608632,12 16.5,12 C19.2886853,12 21.5493615,14.2385763 21.5493615,17 C21.5493615,17.9001929 21.3091226,18.7448234 20.8886684,19.4744548 L23.1940662,21.7798526 C24.809192,20.5726846 26.0907932,18.9309869 26.851666,17 C25.2058952,12.8232676 21.1238514,10 16.5,10 C15.0052685,10 13.5671561,10.2950331 12.2496607,10.8354472 Z" id="Combined-Shape" fill="#000000" fill-rule="nonzero"></path>
    </g>
</svg>