<svg xmlns="http://www.w3.org/2000/svg" viewBox="0 0 18.417 15.5"><path fill="#999" d="M16.917 15.5c-.384 0-.768-.146-1.06-.44l-6.25-6.25c-.587-.584-.587-1.535 0-2.12l6.25-6.25c.585-.586 1.534-.586 2.12 0 .586.585.586 1.536 0 2.12l-5.19 5.19 5.19 5.19c.586.584.586 1.535 0 2.12-.293.294-.677.44-1.06.44z"/><path fill="#999" d="M7.75 15.5c-.384 0-.768-.146-1.06-.44L.44 8.81c-.587-.584-.587-1.535 0-2.12L6.69.44c.585-.586 1.534-.586 2.12 0 .586.585.586 1.536 0 2.12L3.62 7.75l5.19 5.19c.586.584.586 1.535 0 2.12-.292.294-.676.44-1.06.44z"/></svg>