<?xml version="1.0" encoding="UTF-8" standalone="no"?>
<!DOCTYPE svg PUBLIC "-//W3C//DTD SVG 1.1//EN" "http://www.w3.org/Graphics/SVG/1.1/DTD/svg11.dtd">
<svg width="100%" height="100%" viewBox="0 0 32 32" version="1.1" xmlns="http://www.w3.org/2000/svg" xmlns:xlink="http://www.w3.org/1999/xlink" xml:space="preserve" xmlns:serif="http://www.serif.com/" style="fill-rule:evenodd;clip-rule:evenodd;stroke-linejoin:round;stroke-miterlimit:2;">
    <path id="pivot" d="M25.128,2.002C27.688,2.098 29.9,4.294 29.998,6.872C30.076,12.956 30.076,19.044 29.998,25.128C29.902,27.688 27.706,29.9 25.128,29.998C19.044,30.076 12.956,30.076 6.872,29.998C4.314,29.902 2.1,27.708 2.002,25.128C1.924,19.044 1.924,12.956 2.002,6.872C2.098,4.312 4.294,2.1 6.872,2.002C12.956,1.924 19.044,1.924 25.128,2.002ZM28.094,9.956L9.892,9.956L9.892,28.092C14.978,28.222 20.072,28.19 25.156,27.996C26.636,27.902 27.902,26.646 27.996,25.156C28.188,20.092 28.222,15.022 28.094,9.956ZM3.968,24.1C3.978,24.452 3.99,24.804 4.004,25.156C4.098,26.64 5.358,27.902 6.844,27.996C7.182,28.008 7.518,28.02 7.856,28.032L7.856,24.1L3.968,24.1ZM22,15.414L21.708,15.708L20.292,14.292L23,11.586C23.902,12.488 24.804,13.39 25.708,14.292L24.292,15.708L24,15.414L24,19.006C23.968,21.61 21.754,23.898 19.128,23.998L15.414,24L15.708,24.292L14.292,25.708L11.586,23L14.292,20.292C14.764,20.764 15.236,21.236 15.708,21.708L15.386,22.028C18.758,22.058 21.964,21.864 22,18.994L22,15.414ZM3.88,18.038C3.882,19.384 3.892,20.732 3.918,22.078L7.856,22.078L7.856,18.038L3.88,18.038ZM3.93,11.976C3.912,13.324 3.896,14.67 3.886,16.018L7.856,16.018L7.856,11.976L3.93,11.976ZM9.892,3.986C8.93,3.994 7.968,4 7.006,4C5.436,4.02 4.06,5.348 4.002,6.922C3.99,7.934 3.974,8.944 3.96,9.956L7.856,9.956L7.856,7.936L9.892,7.936L9.892,3.986ZM24.136,3.97L24.136,7.936L28.034,7.936C28.022,7.572 28.01,7.208 27.996,6.844C27.902,5.364 26.646,4.098 25.156,4.004C24.816,3.992 24.476,3.98 24.136,3.97ZM15.996,3.916C14.64,3.93 13.282,3.948 11.926,3.964L11.926,7.936L15.996,7.936L15.996,3.916ZM22.102,3.924C20.744,3.902 19.388,3.898 18.032,3.902L18.032,7.936L22.102,7.936L22.102,3.924Z" style="fill-rule:nonzero;"/>
</svg>
