<?xml version="1.0" encoding="UTF-8"?>
<svg width="32px" height="32px" viewBox="0 0 32 32" version="1.1" xmlns="http://www.w3.org/2000/svg" xmlns:xlink="http://www.w3.org/1999/xlink">
    <!-- Generator: Sketch 51.3 (57544) - http://www.bohemiancoding.com/sketch -->
    <title>pin</title>
    <desc>Created with Sketch.</desc>
    <defs></defs>
    <g id="pin" stroke="none" stroke-width="1" fill="none" fill-rule="evenodd">
        <g transform="translate(4.000000, 3.000000)" fill="#000000" fill-rule="nonzero" id="Shape">
            <path d="M2.112,12.111 C2.112,12.111 2.144,11.111 2.782,10.241 C4.148,8.381 6.834,8.281 8.838,8.669 L11.996,5.561 C11.296,3.219 15.348,0.515 15.348,0.515 C18.402,3.571 21.458,6.627 24.514,9.683 C24.292,9.981 24.068,10.279 23.844,10.577 C22.77,12.003 21.306,13.207 19.572,12.915 L16.252,16.133 C16.298,16.477 16.294,16.163 16.37,17.285 C16.514,19.415 15.73,21.609 13.738,22.625 L12.992,22.989 L8.194,18.191 L0,25 L6.78,16.777 L2.112,12.111 Z M15.02,3.105 C14.332,3.673 13.604,4.555 13.996,5.177 L14.486,5.899 L9.5,10.887 C7.512,10.381 5.154,10.251 4.344,11.501 L13.364,20.533 C13.458,20.467 13.548,20.397 13.636,20.323 C14.862,19.243 14.4,17.283 14.134,15.423 L18.924,10.633 C18.924,10.633 20.394,11.571 21.86,9.857 L15.07,3.067 C15.052,3.079 15.036,3.093 15.02,3.105 Z"></path>
        </g>
    </g>
</svg>