<svg width="32" height="32" viewBox="0 0 32 32" fill="none" xmlns="http://www.w3.org/2000/svg">
<path d="M19.3371 13.7732H28.2305C28.524 13.7732 28.8055 13.6566 29.013 13.449C29.2205 13.2415 29.3371 12.96 29.3371 12.6665C29.3371 10.0143 28.2836 7.4708 26.4082 5.59544C24.5328 3.72007 21.9893 2.6665 19.3371 2.6665C19.0436 2.6665 18.7621 2.7831 18.5546 2.99064C18.3471 3.19818 18.2305 3.47966 18.2305 3.77317V12.6665C18.2305 12.96 18.3471 13.2415 18.5546 13.449C18.7621 13.6566 19.0436 13.7732 19.3371 13.7732Z" fill="url(#paint0_linear_328_15996)"/>
<path d="M28.1037 16.0003H17.2371C17.0777 16.0003 16.92 15.9689 16.7728 15.9079C16.6255 15.8469 16.4918 15.7576 16.3791 15.6449C16.2665 15.5322 16.1771 15.3985 16.1161 15.2513C16.0551 15.1041 16.0237 14.9463 16.0237 14.7869V3.89361C16.0248 3.72066 15.9892 3.54945 15.9194 3.39121C15.8496 3.23297 15.7471 3.09129 15.6187 2.97545C15.4903 2.85961 15.3388 2.77224 15.1742 2.71907C15.0096 2.6659 14.8357 2.64814 14.6637 2.66694C12.1607 2.93272 9.7841 3.90157 7.80865 5.46146C5.8332 7.02134 4.33964 9.10854 3.50069 11.4817C2.66174 13.8548 2.51167 16.417 3.06784 18.8718C3.62401 21.3267 4.86369 23.574 6.64353 25.3538C8.42337 27.1337 10.6707 28.3733 13.1255 28.9295C15.5804 29.4857 18.1425 29.3356 20.5157 28.4967C22.8888 27.6577 24.976 26.1642 26.5359 24.1887C28.0958 22.2133 29.0646 19.8366 29.3304 17.3336C29.3452 17.1638 29.3245 16.9927 29.2695 16.8314C29.2146 16.67 29.1266 16.5219 29.0111 16.3964C28.8957 16.271 28.7554 16.1709 28.5992 16.1027C28.443 16.0345 28.2742 15.9996 28.1037 16.0003Z" fill="url(#paint1_linear_328_15996)"/>
<defs>
<linearGradient id="paint0_linear_328_15996" x1="23.7838" y1="2.6665" x2="23.7838" y2="13.7732" gradientUnits="userSpaceOnUse">
<stop stop-color="#4E4E4E" stop-opacity="0.69"/>
<stop offset="1" stop-color="#7E7E7E"/>
</linearGradient>
<linearGradient id="paint1_linear_328_15996" x1="16.0367" y1="2.65967" x2="16.0367" y2="29.2591" gradientUnits="userSpaceOnUse">
<stop stop-color="#697485"/>
<stop offset="1" stop-opacity="0"/>
</linearGradient>
</defs>
</svg>
