<svg xmlns="http://www.w3.org/2000/svg" viewBox="0 0 31 50"><defs><style>.cls-1{fill:#ec1c24;opacity:0.3;}.cls-1,.cls-2{fill-rule:evenodd;}.cls-2,.cls-4{fill:none;}.cls-2{stroke:#0071bc;stroke-miterlimit:10;}.cls-3{fill:#fff;}.cls-4{stroke:#b3b3b3;stroke-linecap:round;stroke-linejoin:round;}.cls-5{fill:#b3b3b3;}</style></defs><title>Ind. Dep.Asset 2</title><g id="Layer_2" data-name="Layer 2"><g id="Layer_1-2" data-name="Layer 1"><path class="cls-1" d="M25.5,8.05,16.24,2.71a1.5,1.5,0,0,0-1.53,0L5.45,8.05a1.54,1.54,0,0,0-.77,1.33V20.06a1.57,1.57,0,0,0,.77,1.34l9.26,5.34a1.55,1.55,0,0,0,1.53,0L25.5,21.4a1.57,1.57,0,0,0,.77-1.34V9.38A1.54,1.54,0,0,0,25.5,8.05Z"/><path class="cls-2" d="M27.14,7,16.37.74a1.79,1.79,0,0,0-1.79,0L3.81,7a1.79,1.79,0,0,0-.89,1.55V20.94a1.79,1.79,0,0,0,.89,1.55l10.77,6.22a1.79,1.79,0,0,0,1.79,0l10.77-6.22A1.79,1.79,0,0,0,28,20.94V8.51A1.79,1.79,0,0,0,27.14,7Z"/><polygon class="cls-3" points="17.03 14.44 17.03 9.22 13.92 9.22 13.92 14.44 10.27 14.44 15.47 20.23 20.68 14.44 17.03 14.44"/><line class="cls-4" x1="15.64" y1="32" x2="15.64" y2="48.86"/><polygon class="cls-5" points="13.94 46.87 15.64 48.56 17.33 46.87 17.33 48.3 15.64 50 13.94 48.3 13.94 46.87"/><line class="cls-4" x1="18.27" y1="31.64" x2="30.19" y2="43.56"/><polygon class="cls-5" points="27.59 43.35 29.98 43.35 29.98 40.95 31 41.97 31 44.36 28.6 44.36 27.59 43.35"/><line class="cls-4" x1="12.73" y1="31.64" x2="0.81" y2="43.56"/><polygon class="cls-5" points="1.02 40.95 1.02 43.35 3.42 43.35 2.4 44.36 0 44.36 0 41.97 1.02 40.95"/></g></g></svg>