<svg xmlns="http://www.w3.org/2000/svg" viewBox="0 0 23 26.05"><defs><style>.cls-1{fill:#666;}.cls-2{fill:none;stroke:#fff;stroke-linecap:round;stroke-linejoin:round;stroke-width:2px;}.cls-3{fill:#fff;}</style></defs><title>RenewalAsset 9</title><g id="Layer_2" data-name="Layer 2"><g id="Layer_1-2" data-name="Layer 1"><path class="cls-1" d="M22.18,5.91,12.32.22a1.65,1.65,0,0,0-1.64,0L.82,5.91A1.65,1.65,0,0,0,0,7.33V18.72a1.64,1.64,0,0,0,.82,1.42l9.86,5.69a1.65,1.65,0,0,0,1.64,0l9.86-5.69A1.64,1.64,0,0,0,23,18.72V7.33A1.65,1.65,0,0,0,22.18,5.91Z"/><path class="cls-2" d="M17,9.78a6.38,6.38,0,1,1-5.5-3.14"/><polygon class="cls-3" points="20.61 8.25 13.91 12.21 15.28 6.88 20.61 8.25"/></g></g></svg>