<!-- Generated by IcoMoon.io -->
<svg version="1.1" xmlns="http://www.w3.org/2000/svg" width="100%" height="100%" viewBox="0 0 32 32">
<title>loading</title>
<path d="M17.778 11.708l3.25-3.251 2.516 2.516-3.251 3.25h4.597v3.556h-4.597c1.084 1.083 2.168 2.167 3.251 3.25l-2.516 2.516-3.25-3.251v4.597h-3.556v-4.597l-3.25 3.251-2.516-2.516 3.251-3.25h-4.597v-3.556h4.597l-3.251-3.25 2.516-2.516c1.083 1.083 2.167 2.168 3.25 3.251v-4.597h3.556v4.597zM14.527 19.555h2.944l2.084-2.084v-2.944l-2.084-2.084h-2.944l-2.084 2.084v2.944c0.694 0.695 1.388 1.389 2.083 2.083z"></path>
</svg>
