<?xml version="1.0" encoding="utf-8"?>
<!-- Generator: Adobe Illustrator 23.0.3, SVG Export Plug-In . SVG Version: 6.00 Build 0)  -->
<svg version="1.1" id="Layer_1" xmlns="http://www.w3.org/2000/svg" xmlns:xlink="http://www.w3.org/1999/xlink" x="0px" y="0px"
	 viewBox="0 0 78.8 89.3" style="enable-background:new 0 0 78.8 89.3;" xml:space="preserve">
<style type="text/css">
	.st0{fill-rule:evenodd;clip-rule:evenodd;fill:#AC8700;}
	.st1{fill:#FFFFFF;}
</style>
<title>EnterpriseAsset 18</title>
<g>
	<g id="Layer_1-2">
		<path class="st0" d="M0,25.1c0-2,1.1-3.9,2.8-4.9L36.6,0.8c1.7-1,3.9-1,5.6,0L76,20.3c1.7,1,2.8,2.9,2.8,4.9v39
			c0,2-1.1,3.9-2.8,4.9L42.2,88.5c-1.7,1-3.9,1-5.6,0L2.8,69C1.1,68,0,66.2,0,64.2V25.1z"/>
		<g>
			<path class="st1" d="M52.4,28.3H30.7V40h20c1.5,0,2.6,0.3,3.3,1c0.7,0.7,1.1,1.5,1.1,2.6c0,1.1-0.4,2-1.1,2.6s-1.8,1-3.3,1h-20
				v13.5h22.5c1.5,0,2.7,0.4,3.4,1.1c0.8,0.7,1.2,1.6,1.2,2.8c0,1.1-0.4,2-1.2,2.7c-0.8,0.7-1.9,1.1-3.4,1.1H27
				c-2.1,0-3.6-0.5-4.5-1.4c-0.9-0.9-1.4-2.4-1.4-4.5V26.8c0-1.4,0.2-2.5,0.6-3.4c0.4-0.9,1.1-1.5,1.9-1.9c0.9-0.4,2-0.6,3.4-0.6
				h25.4c1.5,0,2.7,0.3,3.4,1c0.7,0.7,1.1,1.6,1.1,2.7c0,1.1-0.4,2-1.1,2.7C55.1,27.9,54,28.3,52.4,28.3z"/>
		</g>
	</g>
</g>
</svg>
