<?xml version="1.0" encoding="UTF-8" standalone="no"?>
<!DOCTYPE svg PUBLIC "-//W3C//DTD SVG 1.1//EN" "http://www.w3.org/Graphics/SVG/1.1/DTD/svg11.dtd">
<svg width="100%" height="100%" viewBox="0 0 494 239" version="1.1" xmlns="http://www.w3.org/2000/svg" xmlns:xlink="http://www.w3.org/1999/xlink" xml:space="preserve" xmlns:serif="http://www.serif.com/" style="fill-rule:evenodd;clip-rule:evenodd;stroke-linejoin:round;stroke-miterlimit:1.41421;">
    <g id="Logo">
        <path id="d" d="M477,55L494,55L494,151L435,151C426.716,151 420,144.284 420,136L420,96C420,87.716 426.716,81 435,81L477,81L477,55ZM440,98C438.343,98 437,99.343 437,101L437,131C437,132.657 438.343,134 440,134L477,134L477,98L440,98Z"/>
        <g id="i" transform="matrix(1,0,0,1,396,55)">
            <path id="Path-6" d="M0,26L17,26L17,96L0,96L0,26Z"/>
            <path id="Path-7" d="M0,0L17,0L17,17L0,17L0,0Z" style="fill:rgb(225,31,34);"/>
        </g>
        <path id="r" d="M331,151L348,151L348,101C348,99.343 349.343,98 351,98L389,98L389,81L346,81C337.716,81 331,87.716 331,96L331,151Z"/>
        <path id="G" d="M324,86L324,76C324,67.716 317.284,61 309,61L249,61C240.716,61 234,67.716 234,76L234,136C234,144.284 240.716,151 249,151L309,151C317.284,151 324,144.284 324,136L324,100L287,100L287,117L307,117L307,131C307,132.657 305.657,134 304,134L254,134C252.343,134 251,132.657 251,131L251,81C251,79.343 252.343,78 254,78L304,78C305.657,78 307,79.343 307,81L307,86L324,86Z"/>
        <g id="ag">
            <path id="path-1" d="M0.613,108L0.613,67.46C0.613,62.101 3.472,57.149 8.113,54.469L98.306,2.396C102.947,-0.284 108.665,-0.284 113.306,2.396L203.5,54.469C208.141,57.149 211,62.101 211,67.46L211,138L181,138L180.997,94L180.996,94C180.995,85.716 174.28,79.001 165.996,79.001L122,79C113.716,79 107,85.716 107,94L107,136.016C107,144.3 113.716,151.016 122,151.016L168,151.016L168,163C168,164.657 166.657,166 165,166L120,166L120,179L165.996,179L165.996,178.998C174.279,178.998 180.995,172.283 180.996,164L181,150.961L211,150.961L211,171.606C211,176.965 208.141,181.917 203.5,184.597L113.306,236.67C108.665,239.349 102.947,239.349 98.306,236.67L8.113,184.597C3.472,181.917 0.613,176.965 0.613,171.606L0.613,121L27,121L27,136C27,144.284 33.716,151 42,151L100,151L100,94C100,85.716 93.284,79 85,79L27,79L27,92L84,92C85.657,92 87,93.343 87,95L87,108L0.613,108Z" style="fill:rgb(225,31,34);"/>
            <path id="g" d="M168,95C168,93.344 166.656,92 165,92L123,92C121.344,92 120,93.344 120,95L120,135C120,136.656 121.344,138 123,138L165,138C166.656,138 168,136.656 168,135L168,95Z" style="fill:rgb(225,31,34);"/>
            <path id="Combined-Shape" d="M40,121L87,121L87,138L43,138C41.343,138 40,136.657 40,135L40,121Z" style="fill:rgb(225,31,34);"/>
        </g>
    </g>
</svg>
