<svg xmlns="http://www.w3.org/2000/svg" viewBox="0 0 78.82 89.27"><defs><style>.cls-1{fill:#009d70;fill-rule:evenodd;}</style></defs><title>Product IconsAsset 2</title><g id="Layer_2" data-name="Layer 2"><g id="Layer_1-2" data-name="Layer 1"><path class="cls-1" d="M64.48,36.53h-16a.25.25,0,0,0-.25.26v7.45H64.73V36.79A.25.25,0,0,0,64.48,36.53Z"/><path class="cls-1" d="M76,20.26,42.22.75a5.64,5.64,0,0,0-5.62,0L2.81,20.26A5.63,5.63,0,0,0,0,25.13v39A5.61,5.61,0,0,0,2.81,69L36.6,88.52a5.64,5.64,0,0,0,5.62,0L76,69a5.61,5.61,0,0,0,2.81-4.86v-39A5.63,5.63,0,0,0,76,20.26ZM39.1,57.7H34.27v-19l-9.93,11.7-10-11.7v19H9.58V31.78h5.23L24.34,43l9.49-11.23H39.1Zm30.47,0H64.73V49H48.19V57.7h-4.8V36.79a5,5,0,0,1,5-5h16a5,5,0,0,1,5.09,5Z"/></g></g></svg>