<svg xmlns="http://www.w3.org/2000/svg" viewBox="0 0 402.96 97.83"><defs><style>.cls-1{fill:none;stroke:#231f20;stroke-miterlimit:10;stroke-width:0.5px;}.cls-2{fill:#fff;}.cls-3{fill:#ec1c24;fill-rule:evenodd;}.cls-4{fill:#666;}.cls-5{fill:#2f7dc0;}.cls-6{fill:#fbb03b;}</style></defs><title>VersionAsset 7</title><g id="Layer_2" data-name="Layer 2"><g id="Layer_1-2" data-name="Layer 1"><line class="cls-1" x1="0.45" y1="73.14" x2="352.5" y2="73.14"/><path class="cls-2" d="M323,96.5H43a7.46,7.46,0,0,1-7.45-7.45V53.73a1,1,0,1,1,2,0V89.05A5.45,5.45,0,0,0,43,94.5H323a1,1,0,0,1,0,2Z"/><path class="cls-3" d="M44.18,36.1l-7.79-4.49a1.29,1.29,0,0,0-1.29,0L27.31,36.1a1.31,1.31,0,0,0-.65,1.13v9a1.3,1.3,0,0,0,.65,1.12l7.79,4.5a1.29,1.29,0,0,0,1.29,0l7.79-4.5a1.3,1.3,0,0,0,.65-1.12v-9A1.31,1.31,0,0,0,44.18,36.1Z"/><polygon class="cls-2" points="37.05 41.49 37.05 37.09 34.44 37.09 34.44 41.49 31.37 41.49 35.74 46.35 40.12 41.49 37.05 41.49"/><path class="cls-4" d="M20,25.33v-.65l.83-.81c2-1.89,2.89-2.9,2.9-4.07a1.4,1.4,0,0,0-1.55-1.53,2.63,2.63,0,0,0-1.65.66l-.34-.74a3.41,3.41,0,0,1,2.21-.79,2.19,2.19,0,0,1,2.38,2.26c0,1.44-1,2.61-2.68,4.19l-.63.58v0H25v.88Z"/><path class="cls-4" d="M31.32,21.34c0,2.65-1,4.12-2.72,4.12-1.52,0-2.55-1.43-2.57-4s1.12-4.05,2.71-4.05S31.32,18.86,31.32,21.34Zm-4.24.12c0,2,.63,3.18,1.59,3.18s1.59-1.26,1.59-3.25-.49-3.18-1.58-3.18C27.75,18.21,27.08,19.34,27.08,21.46Z"/><path class="cls-4" d="M32.37,24.7a.71.71,0,0,1,.72-.75.76.76,0,0,1,0,1.51A.71.71,0,0,1,32.37,24.7Z"/><path class="cls-4" d="M34.77,25.33v-.65l.83-.81c2-1.89,2.89-2.9,2.9-4.07A1.39,1.39,0,0,0,37,18.27a2.66,2.66,0,0,0-1.66.66L35,18.19a3.38,3.38,0,0,1,2.2-.79,2.19,2.19,0,0,1,2.39,2.26c0,1.44-1,2.61-2.69,4.19l-.62.58v0h3.5v.88Z"/><path class="cls-4" d="M41,24.7a.71.71,0,0,1,.72-.75.76.76,0,0,1,0,1.51A.71.71,0,0,1,41,24.7Z"/><path class="cls-4" d="M48.59,21.34c0,2.65-1,4.12-2.71,4.12-1.52,0-2.55-1.43-2.57-4S44.43,17.4,46,17.4,48.59,18.86,48.59,21.34Zm-4.23.12c0,2,.62,3.18,1.58,3.18s1.6-1.26,1.6-3.25-.49-3.18-1.58-3.18C45,18.21,44.36,19.34,44.36,21.46Z"/><path class="cls-4" d="M362.89,65.13h-2.46v-.89h6v.89h-2.47v7.2h-1.05Z"/><path class="cls-4" d="M368.31,64.89a.62.62,0,0,1-.67.65.63.63,0,0,1-.64-.65.65.65,0,0,1,.66-.66A.63.63,0,0,1,368.31,64.89Zm-1.18,7.44V66.52h1.06v5.81Z"/><path class="cls-4" d="M369.94,68.09c0-.6,0-1.09-.05-1.57h.93l.05.94h0a2,2,0,0,1,1.83-1.07,1.71,1.71,0,0,1,1.64,1.16h0a2.42,2.42,0,0,1,.65-.75,2,2,0,0,1,1.28-.41c.77,0,1.91.5,1.91,2.52v3.42h-1V69c0-1.12-.41-1.79-1.26-1.79a1.38,1.38,0,0,0-1.25,1,1.74,1.74,0,0,0-.08.53v3.59h-1V68.85c0-.93-.41-1.6-1.21-1.6a1.45,1.45,0,0,0-1.31,1.06,1.4,1.4,0,0,0-.09.51v3.51h-1Z"/><path class="cls-4" d="M380.54,69.61a1.86,1.86,0,0,0,2,2,3.83,3.83,0,0,0,1.61-.3l.18.75a4.69,4.69,0,0,1-1.94.37,2.7,2.7,0,0,1-2.85-2.93c0-1.75,1-3.13,2.72-3.13a2.46,2.46,0,0,1,2.4,2.73,4.49,4.49,0,0,1,0,.49Zm3.09-.75a1.5,1.5,0,0,0-1.46-1.72,1.75,1.75,0,0,0-1.62,1.72Z"/><path class="cls-4" d="M386,63.81H387v8.52H386Z"/><path class="cls-4" d="M390,64.89a.62.62,0,0,1-.67.65.63.63,0,0,1-.64-.65.65.65,0,0,1,.66-.66A.63.63,0,0,1,390,64.89Zm-1.18,7.44V66.52h1.06v5.81Z"/><path class="cls-4" d="M391.6,68.09c0-.6,0-1.09-.05-1.57h.94l.06,1h0a2.14,2.14,0,0,1,1.92-1.09c.81,0,2.05.48,2.05,2.47v3.47h-1.05V69c0-.94-.35-1.72-1.35-1.72a1.51,1.51,0,0,0-1.41,1.08,1.53,1.53,0,0,0-.07.49v3.5H391.6Z"/><path class="cls-4" d="M398.85,69.61a1.86,1.86,0,0,0,2,2,3.8,3.8,0,0,0,1.61-.3l.18.75a4.63,4.63,0,0,1-1.93.37,2.7,2.7,0,0,1-2.86-2.93c0-1.75,1-3.13,2.72-3.13a2.46,2.46,0,0,1,2.4,2.73,4.49,4.49,0,0,1,0,.49Zm3.09-.75a1.5,1.5,0,0,0-1.46-1.72,1.76,1.76,0,0,0-1.62,1.72Z"/><path class="cls-5" d="M326.66,95.41a.28.28,0,0,1,0,.4l-2,2c-.11.11-.2.07-.2-.09V93.53c0-.15.09-.19.2-.08Z"/><path class="cls-5" d="M322.22,96.89h-280a7.46,7.46,0,0,1-7.45-7.45V54.11a1,1,0,0,1,2,0V89.44a5.46,5.46,0,0,0,5.45,5.45h280a1,1,0,0,1,0,2Z"/><line class="cls-1" x1="6.5" y1="12.5" x2="6.5" y2="73.33"/><circle class="cls-6" cx="6.5" cy="6.5" r="6.5"/><path class="cls-2" d="M6.16,10.9v-1a2.91,2.91,0,0,1-1.53-.43l.24-.67a2.67,2.67,0,0,0,1.44.43c.71,0,1.19-.41,1.19-1s-.39-.89-1.13-1.19c-1-.4-1.65-.86-1.65-1.73A1.64,1.64,0,0,1,6.23,3.71v-1h.62v1A2.67,2.67,0,0,1,8.15,4l-.25.66a2.42,2.42,0,0,0-1.26-.34c-.77,0-1.06.46-1.06.86S6,6,6.82,6.34c1,.42,1.55.94,1.55,1.83a1.74,1.74,0,0,1-1.58,1.7v1Z"/></g></g></svg>