<svg width="100%" height="100%" viewBox="0 0 18 18" version="1.1" xmlns="http://www.w3.org/2000/svg" xmlns:xlink="http://www.w3.org/1999/xlink" xml:space="preserve" xmlns:serif="http://www.serif.com/" style="fill-rule:evenodd;clip-rule:evenodd;stroke-linejoin:round;stroke-miterlimit:2;">
    <g id="copy" transform="matrix(0.0175781,0,0,0.0175781,0,0)">
        <path fill="#03a9f4" d="M704,42.667L192,42.667C145.067,42.667 106.667,81.067 106.667,128L106.667,725.333L192,725.333L192,128L704,128L704,42.667ZM832,213.333L362.667,213.333C315.734,213.333 277.334,251.733 277.334,298.666L277.334,895.999C277.334,942.932 315.734,981.332 362.667,981.332L832,981.332C878.933,981.332 917.333,942.932 917.333,895.999L917.333,298.666C917.333,251.733 878.933,213.333 832,213.333ZM832,896L362.667,896L362.667,298.667L832,298.667L832,896Z" style="fill-rule:nonzero;"/>
    </g>
</svg>
