<svg width="100%" height="100%" viewBox="0 0 18 18" version="1.1" xmlns="http://www.w3.org/2000/svg" xmlns:xlink="http://www.w3.org/1999/xlink" xml:space="preserve" xmlns:serif="http://www.serif.com/" style="fill-rule:evenodd;clip-rule:evenodd;stroke-linejoin:round;stroke-miterlimit:2;">
    <g id="cut" transform="matrix(0.0175781,0,0,0.0175781,0,0)">
        <path fill="#03a9f4" d="M411.307,325.973C421.12,304.64 426.667,281.173 426.667,256C426.667,161.707 350.294,85.333 256,85.333C161.706,85.333 85.333,161.706 85.333,256C85.333,350.293 161.706,426.667 256,426.667C281.173,426.667 304.64,421.12 325.973,411.307L426.666,512L325.973,612.693C304.64,602.88 281.173,597.333 256,597.333C161.707,597.333 85.333,673.706 85.333,768C85.333,862.294 161.706,938.667 256,938.667C350.293,938.667 426.667,862.294 426.667,768C426.667,742.827 421.12,719.36 411.307,698.027L512,597.334L810.667,896.001L938.667,896.001L938.667,853.334L411.307,325.974L411.307,325.973ZM256,341.333C209.067,341.333 170.667,303.36 170.667,256C170.667,208.64 209.067,170.667 256,170.667C302.933,170.667 341.333,208.64 341.333,256C341.333,303.36 302.933,341.333 256,341.333ZM256,853.333C209.067,853.333 170.667,815.36 170.667,768C170.667,720.64 209.067,682.667 256,682.667C302.933,682.667 341.333,720.64 341.333,768C341.333,815.36 302.933,853.333 256,853.333ZM512,533.333C500.053,533.333 490.667,523.946 490.667,512C490.667,500.054 500.054,490.667 512,490.667C523.947,490.667 533.333,500.054 533.333,512C533.333,523.946 523.946,533.333 512,533.333ZM810.667,128L554.667,384L640,469.333L938.667,170.666L938.667,127.999L810.667,127.999L810.667,128Z" style="fill-rule:nonzero;"/>
    </g>
</svg>
