<svg width="100%" height="100%" viewBox="0 0 18 18" version="1.1" xmlns="http://www.w3.org/2000/svg" xmlns:xlink="http://www.w3.org/1999/xlink" xml:space="preserve" xmlns:serif="http://www.serif.com/" style="fill-rule:evenodd;clip-rule:evenodd;stroke-linejoin:round;stroke-miterlimit:2;">
    <g id="indeterminate" transform="matrix(0.0175781,0,0,0.0175781,0,0)">
        <path fill="#03a9f4" d="M511.999,263.11C346.055,263.11 204.345,366.306 146.944,511.998C204.345,657.69 346.055,760.886 511.999,760.886C677.943,760.886 819.653,657.69 877.054,511.998C819.653,366.306 677.943,263.11 511.999,263.11ZM511.999,677.943C420.408,677.943 346.055,603.589 346.055,511.999C346.055,420.409 420.409,346.055 511.999,346.055C603.59,346.055 677.943,420.409 677.943,511.999C677.943,603.589 603.589,677.943 511.999,677.943Z" style="fill-rule:nonzero;"/>
    </g>
</svg>
