<svg width="100%" height="100%" viewBox="0 0 18 18" version="1.1" xmlns="http://www.w3.org/2000/svg" xmlns:xlink="http://www.w3.org/1999/xlink" xml:space="preserve" xmlns:serif="http://www.serif.com/" style="fill-rule:evenodd;clip-rule:evenodd;stroke-linejoin:round;stroke-miterlimit:2;">
    <g id="not-allowed" transform="matrix(0.0175781,0,0,0.0175781,0,0)">
        <path fill="#03a9f4" d="M512,85.333C276.48,85.333 85.333,276.48 85.333,512C85.333,747.52 276.48,938.667 512,938.667C747.52,938.667 938.667,747.52 938.667,512C938.667,276.48 747.52,85.333 512,85.333ZM170.667,512C170.667,323.413 323.414,170.667 512,170.667C590.933,170.667 663.467,197.547 721.067,242.774L242.774,721.067C197.547,663.467 170.667,590.934 170.667,512ZM512,853.333C433.067,853.333 360.533,826.453 302.933,781.226L781.226,302.933C826.453,360.533 853.333,433.066 853.333,512C853.333,700.587 700.586,853.333 512,853.333Z" style="fill-rule:nonzero;"/>
    </g>
</svg>
