<?xml version="1.0" standalone="no"?>
<!DOCTYPE svg PUBLIC "-//W3C//DTD SVG 1.1//EN" "http://www.w3.org/Graphics/SVG/1.1/DTD/svg11.dtd" >
<svg xmlns="http://www.w3.org/2000/svg">
<metadata>
Created by FontForge 20120731 at Mon Jan 11 10:20:03 2016
 By Valter Fatia
Created by Valter Fatia with FontForge 2.0 (http://fontforge.sf.net)
</metadata>
<defs>
<font id="Atlassian-icons" horiz-adv-x="1024" >
  <font-face 
    font-family="Atlassian-icons"
    font-weight="500"
    font-stretch="normal"
    units-per-em="1024"
    panose-1="2 0 6 9 0 0 0 0 0 0"
    ascent="896"
    descent="-128"
    bbox="-4.45 -256 1027 900.45"
    underline-thickness="51"
    underline-position="-103"
    unicode-range="U+F101-F1EF"
  />
<missing-glyph 
d="M34 0v682h272v-682h-272zM68 34h204v614h-204v-614z" />
    <glyph glyph-name=".notdef" 
d="M34 0v682h272v-682h-272zM68 34h204v614h-204v-614z" />
    <glyph glyph-name=".null" horiz-adv-x="0" 
 />
    <glyph glyph-name="nonmarkingreturn" 
 />
    <glyph glyph-name="uniF101" unicode="&#xf101;" 
d="M640 512h166q40 0 65 -22.5t25 -60.5v-30q0 -37 -25 -58t-65 -21h-166v-166q0 -40 -21 -65t-58 -25h-30q-38 0 -60.5 25t-22.5 65v166h-163q-40 0 -66.5 21t-26.5 58v30q0 37 27 60t66 23h163v163q0 39 23 66t60 27h30q37 0 58 -26.5t21 -66.5v-163z" />
    <glyph glyph-name="uniF102" unicode="&#xf102;" 
d="M69 768q1 53 38.5 90.5t90.5 37.5h636q52 0 89.5 -37.5t37.5 -91.5v-511q0 -53 -37.5 -91t-90.5 -38h-128l-192 -255l-192 255h-131q-52 0 -89.5 38t-36.5 90zM834 832h-636q-27 0 -46 -19t-19 -45l-5 -513q0 -26 18 -45t44 -19h163l160 -223l160 223h160q27 0 45.5 19
t18.5 46v511q0 27 -18.5 46t-44.5 19zM576 576h128v-128h-128v-128h-128v128h-128v128h128v128h128v-128z" />
    <glyph glyph-name="uniF103" unicode="&#xf103;" 
d="M448 640h128v-192h192v-128h-192v-192h-128v192h-192v128h192v192z" />
    <glyph glyph-name="uniF104" unicode="&#xf104;" 
d="M512 -128q-104 0 -199 41t-163.5 109.5t-109 163t-40.5 198.5t41 199t109.5 163.5t163 109t198.5 40.5t199 -41t163.5 -109.5t109 -163t40.5 -198.5t-41 -199t-109.5 -163.5t-163 -109t-198.5 -40.5zM512 797q-84 0 -160.5 -32.5t-132 -88t-88 -132t-32.5 -160.5
t32.5 -160.5t88 -132t132 -88t160.5 -32.5t160.5 32.5t132 88t88 132t32.5 160.5t-32.5 160.5t-88 132t-132 88t-160.5 32.5zM711 568l52 -51q5 -7 5 -15.5t-5 -13.5l-277 -279q-18 -14 -35 -14h-24q-9 0 -19 4t-16 10l-131 132q-5 6 -5 14.5t5 14.5l52 51q5 7 14 7t15 -7
l83 -83q6 -6 14.5 -6t14.5 6l228 230q7 5 15.5 5t13.5 -5z" />
    <glyph glyph-name="uniF105" unicode="&#xf105;" 
d="M64 768h896q26 0 45 -19t19 -45t-19 -45t-45 -19h-896q-26 0 -45 19t-19 45t19 45t45 19zM64 448h896q26 0 45 -19t19 -45t-19 -45t-45 -19h-896q-26 0 -45 19t-19 45t19 45t45 19zM64 128h896q26 0 45 -19t19 -45t-19 -45t-45 -19h-896q-26 0 -45 19t-19 45t19 45t45 19
z" />
    <glyph glyph-name="uniF106" unicode="&#xf106;" 
d="M256 583l57 55l195 -182l200 184l52 -57l-238 -236h-23zM264 364l57 55l194 -182l201 184l52 -57l-238 -236h-24z" />
    <glyph glyph-name="uniF107" unicode="&#xf107;" 
d="M538 576l-192 -192l192 -192l-64 -64l-224 237v38l224 237zM794 576l-192 -192l192 -192l-64 -64l-224 237v38l224 237z" />
    <glyph glyph-name="uniF108" unicode="&#xf108;" 
d="M480 576l64 64l224 -237v-38l-224 -237l-64 64l192 192zM224 576l64 64l224 -237v-38l-224 -237l-64 64l192 192z" />
    <glyph glyph-name="uniF109" unicode="&#xf109;" 
d="M256 185l243 236h23l238 -236l-52 -57l-200 184l-195 -182zM264 404l242 236h24l238 -236l-52 -57l-201 184l-194 -182z" />
    <glyph glyph-name="uniF10A" unicode="&#xf10a;" 
d="M704 192v512h64v-512q0 -115 -77 -185.5t-179 -70.5t-179 70.5t-77 185.5v416q2 92 61 158t131 66q73 0 132.5 -66t59.5 -158v-350q0 -53 -37.5 -91t-90.5 -38t-90.5 37t-37.5 90v256h64v-256q0 -26 19 -45t45 -19t45 19t19 45v352q1 56 -32.5 108t-95.5 52
q-63 0 -95 -51t-33 -109q-1 -21 -1 -104.5t0.5 -189t0.5 -122.5q0 -77 51 -134.5t141 -57.5q91 0 141.5 57t50.5 135z" />
    <glyph glyph-name="uniF10B" unicode="&#xf10b;" 
d="M704 204v308h64v-305v-2q0 -54 -33.5 -102t-85 -75t-104.5 -28q-109 -1 -166.5 55.5t-58.5 145.5v1v2v2v422q0 56 51.5 97.5t109.5 42.5q59 0 109 -38t50 -94l-3 -381q0 -33 -28.5 -48.5t-67.5 -15.5q-37 -1 -66 16.5t-29 47.5l2 321h64l-2 -311v16q2 -28 31 -28
q4 0 11 -0.5t9.5 -0.5t6 1.5t5 6.5t1.5 13l3 368q0 34 -28 49.5t-68 15.5q-35 0 -66 -26.5t-31 -56.5l-1 -418q0 -60 40 -102t122 -41q62 1 110 41.5t49 100.5z" />
    <glyph glyph-name="uniF10C" unicode="&#xf10c;" 
d="M263 84l186 664h63l-186 -664h-63zM512 84l186 664h63l-186 -664h-63z" />
    <glyph glyph-name="uniF10D" unicode="&#xf10d;" 
d="M320 672v-160h576v-320h-128v128h-448v-160l-256 256z" />
    <glyph glyph-name="uniF10E" unicode="&#xf10e;" 
d="M64 512q156 0 289 -77t210 -210t77 -289h-128q0 77 -40.5 159t-103.5 145t-145 103.5t-159 40.5v128zM960 -64h-128q0 143 -66 284t-171.5 246.5t-246.5 171.5t-284 66v128q182 0 348 -71t286 -191t191 -286t71 -348zM77 67q0 112 112 112t112 -112t-112 -112t-112 112z
" />
    <glyph glyph-name="uniF10F" unicode="&#xf10f;" 
d="M704 768v-128h128zM896 576h-256v256h-320q-53 0 -90.5 -37.5t-37.5 -90.5v-640q0 -53 37.5 -90.5t90.5 -37.5h448q53 0 90.5 37.5t37.5 90.5v512zM320 896h352l288 -288v-544q0 -80 -56 -136t-136 -56h-448q-80 0 -136 56t-56 136v640q0 80 56 136t136 56zM704 266
q-50 -2 -89 -38.5t-39 -89.5v-106h-64v106q0 50 -40.5 89t-87.5 39l-6 -128l-141 192l217 128l-57 -129q43 -9 87 -33.5t63 -55.5q18 30 63 56t86 35l-62 127l217 -128l-141 -192z" />
    <glyph glyph-name="uniF110" unicode="&#xf110;" 
d="M704 768v-128h128zM896 576h-256v256h-320q-53 0 -90.5 -37.5t-37.5 -90.5v-640q0 -53 37.5 -90.5t90.5 -37.5h448q53 0 90.5 37.5t37.5 90.5v512zM320 896h352l288 -288v-544q0 -80 -56 -136t-136 -56h-448q-80 0 -136 56t-56 136v640q0 80 56 136t136 56zM320 448v64
h256v-64h-256zM320 256v64h448v-64h-448zM320 64v64h448v-64h-448zM192 448v64h64v-64h-64zM192 640v64h64v-64h-64zM192 256v64h64v-64h-64zM192 64v64h64v-64h-64zM832 448v64h64v-64h-64zM832 256v64h64v-64h-64zM832 64v64h64v-64h-64zM704 -64v64h64v-64h-64zM704 448
v64h64v-64h-64zM512 -64v64h64v-64h-64zM320 -64v64h64v-64h-64zM512 768v64h64v-64h-64zM512 640v64h64v-64h-64zM320 768v64h64v-64h-64zM320 640v64h64v-64h-64z" />
    <glyph glyph-name="uniF111" unicode="&#xf111;" 
d="M128 576v128q0 80 56 136t136 56h352l288 -288v-192v-352q0 -73 -43 -132.5t-101 -59.5h-518q-41 0 -84.5 38.5t-68.5 78.5q-2 4 -25 47t-56.5 109.5t-56.5 116.5q-22 46 20.5 84t98.5 38zM704 774v-134h134zM896 579v0v-3h-256v256h3h-323q-53 0 -90.5 -37.5
t-37.5 -90.5v-64h192q26 0 45 -19l109 -109h358v67zM768 263v0q-17 23 -44.5 40t-52.5 17h-516q-32 0 -67.5 -18t-23.5 -39q15 -26 33.5 -59t34.5 -62t29.5 -54t22 -40t8.5 -16q13 -20 24.5 -34t29 -30t40.5 -24.5t48 -7.5h446q16 0 28.5 1.5t29 7t28 15t20.5 28t10 44.5z
" />
    <glyph glyph-name="uniF112" unicode="&#xf112;" 
d="M704 768v-128h128zM896 576h-256v256h-320q-53 0 -90.5 -37.5t-37.5 -90.5v-640q0 -53 37.5 -90.5t90.5 -37.5h448q53 0 90.5 37.5t37.5 90.5v512zM320 896h352l288 -288v-544q0 -80 -56 -136t-136 -56h-448q-80 0 -136 56t-56 136v640q0 80 56 136t136 56zM352 129
q-13 3 -22.5 18.5t-9.5 31.5v226q0 35 23 42l180 61q17 4 22 4q4 0 20 -4l179 -61q11 -3 17.5 -16.5t6.5 -25.5v-226q0 -16 -9.5 -31t-23.5 -22q-90 -25 -159 -50v-12h-64v12zM384 352v-193l128 -29v196zM736 419l-193 42l-191 -42l160 -40v5h64v-5zM704 352l-128 -26v-192
l128 26v192z" />
    <glyph glyph-name="uniF113" unicode="&#xf113;" 
d="M704 768v-128h128zM896 576h-256v256h-320q-53 0 -90.5 -37.5t-37.5 -90.5v-640q0 -53 37.5 -90.5t90.5 -37.5h448q53 0 90.5 37.5t37.5 90.5v512zM320 896h352l288 -288v-544q0 -80 -56 -136t-136 -56h-448q-80 0 -136 56t-56 136v640q0 80 56 136t136 56zM640 320h128
v-64h-128v64zM768 384h64v-64h-64v64zM640 448h128v-64h-128v64zM768 256h64v-64h-64v64zM640 192h128v-64h-128v64zM384 640v64h128v-256h-64v192h-64zM320 384h192v-64h-192v64zM512 320h64v-64h-64v64zM384 256h128v-64h-128v64zM320 192h64v-64h192v-64h-256v128z" />
    <glyph glyph-name="uniF114" unicode="&#xf114;" 
d="M640 581v251h-320q-53 0 -90.5 -37.5t-37.5 -90.5v-640q0 -53 37.5 -90.5t90.5 -37.5h448q53 0 90.5 37.5t37.5 90.5v512h-190q4 -9 4 -19q0 -18 -11 -30t-28 -12q-16 0 -27 12.5t-11 29.5q0 13 7 24v0zM704 768v0v-128h128zM320 896h352l288 -288v-544q0 -80 -56 -136
t-136 -56h-448q-80 0 -136 56t-56 136v640q0 80 56 136t136 56zM417 599q15 0 26.5 -12.5t11.5 -29.5t-11 -29.5t-27 -12.5q-17 0 -28 12t-11 30q0 17 11 29.5t28 12.5zM544 637q16 0 27.5 -12t11.5 -30q0 -17 -11.5 -29.5t-27.5 -12.5t-27.5 12.5t-11.5 29.5q0 18 11.5 30
t27.5 12zM764 482q5 -5 4 -12q-6 -64 -48 -131q-27 -40 -97 -119l-8 -8q-6 -6 0 -13q9 -11 23 -32q50 -81 53 -156q1 -6 -3 -10q-3 -4 -9 -4h-73q-11 0 -13 12q-1 27 -11.5 53.5t-32 56t-37 48.5t-47.5 53q-69 78 -96 119q-43 67 -49 131q-1 7 5 12q4 3 7 3l5 -2
q34 -14 77 -25q8 -2 10 -10q9 -24 28.5 -53.5t35 -47.5t47.5 -54q5 -4 9.5 -4t8.5 4q32 36 47.5 54t35 47.5t28.5 53.5q2 8 10 11q40 9 77 25h5q4 0 8 -2zM465 161q33 -37 49 -60q7 -9 1 -20q-18 -36 -20 -72q-1 -12 -12 -12h-74q-6 0 -9 4q-4 4 -3 10q3 72 49 148q4 6 10 6
q4 0 9 -4zM544 443q14 0 27.5 0.5t14.5 0.5q4 0 7 -3.5t3 -8.5v-2.5v-2.5q-13 -36 -44 -68q-3 -4 -8 -4t-8 4q-31 31 -44 68q-1 2 -1 5q0 5 3.5 8.5t7.5 3.5q1 0 14.5 -0.5t27.5 -0.5z" />
    <glyph glyph-name="uniF115" unicode="&#xf115;" 
d="M704 768v-128h128zM896 576h-256v256h-320q-53 0 -90.5 -37.5t-37.5 -90.5v-640q0 -53 37.5 -90.5t90.5 -37.5h448q53 0 90.5 37.5t37.5 90.5v512zM320 896h352l288 -288v-544q0 -80 -56 -136t-136 -56h-448q-80 0 -136 56t-56 136v640q0 80 56 136t136 56zM385 -50
l0.5 5t2 13t4 19t6.5 24t9 27t13 29t17 28.5t21.5 27t26.5 23.5q29 -12 59 -12q33 0 57 13q25 -18 44.5 -45t30 -51.5t17.5 -49t9 -37t2 -15.5q0 -6 -2 -13h-318q-1 8 1 14zM456 288q0 40 25.5 68t62 28t62.5 -28t26 -68t-26 -68t-62.5 -28t-62 28t-25.5 68zM229 210
q29 -12 59 -12q33 0 57 13q37 -27 63 -75l-75 -158l12 -43h-153v240q17 21 37 35zM200 352q0 40 25.5 68t62 28t62.5 -28t26 -68t-26 -68t-62.5 -28t-62 28t-25.5 68zM857 211q21 -15 39 -37v-239h-165q-1 3 -1 5l50 26l-96 180q24 40 57 64q29 -12 59 -12q33 0 57 13z
M712 352q0 40 25.5 68t62 28t62.5 -28t26 -68t-26 -68t-62.5 -28t-62 28t-25.5 68z" />
    <glyph glyph-name="uniF116" unicode="&#xf116;" 
d="M704 768v-128h128zM896 576h-256v256h-320q-53 0 -90.5 -37.5t-37.5 -90.5v-640q0 -53 37.5 -90.5t90.5 -37.5h448q53 0 90.5 37.5t37.5 90.5v512zM320 896h352l288 -288v-544q0 -80 -56 -136t-136 -56h-448q-80 0 -136 56t-56 136v640q0 80 56 136t136 56zM704 384
l192 -160l-192 -160v128h-192v64h192v128zM384 570v-122h192v-64h-192v-134l-192 160z" />
    <glyph glyph-name="uniF117" unicode="&#xf117;" 
d="M704 768v-128h128zM896 576h-256v256h-320q-53 0 -90.5 -37.5t-37.5 -90.5v-640q0 -53 37.5 -90.5t90.5 -37.5h448q53 0 90.5 37.5t37.5 90.5v512zM320 896h352l288 -288v-544q0 -80 -56 -136t-136 -56h-448q-80 0 -136 56t-56 136v640q0 80 56 136t136 56zM649 305
l-32 -32l-18 12q-19 18 -46 18t-45 -18l-121 -101q-18 -19 -18 -52t18 -52l5 -5q19 -19 52 -19t52 19l44 57l32 -32l-57 -71q-29 -28 -71 -28t-70 28l-32 32q-28 29 -28 71t28 70l147 128q28 28 64 28t64 -28zM544 240l19 -12q19 -18 45.5 -18t45.5 18l120 101q19 19 19 52
t-19 52l-5 5q-19 19 -52 19t-52 -19l-44 -57l-32 32l57 71q29 28 71 28t70 -28l26 -32q28 -29 28 -71t-28 -70l-141 -128q-28 -28 -64 -28t-64 28l-32 25z" />
    <glyph glyph-name="uniF118" unicode="&#xf118;" 
d="M896 64v512h-256v256h-320q-53 0 -90.5 -37.5t-37.5 -90.5v-640q0 -53 37.5 -90.5t90.5 -37.5h383l-116 102q-37 37 -89 33q-57 -5 -105.5 9.5t-70.5 55.5q-58 109 -66 255l160 -160q42 -2 86 42t42 86l-160 160q143 -6 255 -66q41 -22 55.5 -70.5t9.5 -105.5
q-4 -52 33 -89l155 -155q4 15 4 31zM832 640l-128 128v-128h128zM128 704q0 80 56 136t136 56h352l288 -288v-544q0 -80 -56 -136t-136 -56h-448q-80 0 -136 56t-56 136v640z" />
    <glyph glyph-name="uniF119" unicode="&#xf119;" 
d="M320 153l-100 -62q-7 7 -10 11q-62 66 -90 153.5t-16 179.5q9 73 42.5 137t85.5 112q61 55 138 84t160 25l14 103l171 -183l-213 -142l14 108q-58 1 -111.5 -19.5t-95.5 -59.5q-78 -74 -93 -180q-9 -67 11.5 -130t65.5 -111q18 -18 27 -26zM521 196l-15 -113
q58 0 112 20.5t97 59.5q79 74 92 180q9 67 -11.5 130t-64.5 111q-20 20 -31 29l100 63l14 -15q62 -66 90 -153.5t16 -179.5q-9 -73 -42.5 -137t-85.5 -112q-60 -55 -138.5 -84t-162.5 -25l-13 -98l-172 185z" />
    <glyph glyph-name="uniF11A" unicode="&#xf11a;" 
d="M256 768h64v64h64v-64h320v64h64v-64h64q53 0 90.5 -37.5t37.5 -91.5v-447q0 -80 -56 -136t-136 -56h-448q-80 0 -136 56t-56 136v447q0 54 37.5 91.5t90.5 37.5zM768 64q53 0 90.5 37.5t37.5 90.5v448q-704 0 -704 -1v-447q0 -53 37.5 -90.5t90.5 -37.5h448zM704 448v64
h64v-64h-64zM704 320v64h64v-64h-64zM576 320v64h64v-64h-64zM448 320v64h64v-64h-64zM320 320v64h64v-64h-64zM576 192v64h64v-64h-64zM448 192v64h64v-64h-64zM320 192v64h64v-64h-64zM576 448v64h64v-64h-64zM448 448v64h64v-64h-64z" />
    <glyph glyph-name="uniF11B" unicode="&#xf11b;" 
d="M832 768l64 -64l-320 -320l320 -320l-64 -64l-320 320l-320 -320l-64 64l320 320l-320 320l64 64l320 -320z" />
    <glyph glyph-name="uniF11C" unicode="&#xf11c;" 
d="M640 472l-207 -216l-48 50l160 174l-161 178l49 46l207 -211v-21z" />
    <glyph glyph-name="uniF11D" unicode="&#xf11d;" 
d="M69 768q1 53 38.5 90.5t90.5 37.5h636q52 0 89.5 -37.5t37.5 -91.5v-511q0 -53 -37.5 -91t-90.5 -38h-128l-192 -255l-192 255h-131q-52 0 -89.5 38t-36.5 90zM834 832h-636q-27 0 -46 -19t-19 -45l-5 -513q0 -26 18 -45t44 -19h163l160 -223l160 223h160q27 0 45.5 19
t18.5 46v511q0 27 -18.5 46t-44.5 19z" />
    <glyph glyph-name="uniF11E" unicode="&#xf11e;" 
d="M1024 323q0 -11 -10 -21t-22 -11l-153 -28q-12 -1 -16 -9.5t3 -17.5l87 -129q6 -9 4 -21.5t-10 -20.5l-82 -83q-8 -8 -20.5 -9t-21.5 6l-129 86q-9 6 -17.5 3t-10.5 -14l-28 -154q-2 -10 -11 -19t-20 -9h-118q-11 0 -21 8.5t-11 19.5l-28 153q-1 11 -10 14.5t-18 -3.5
l-128 -86q-9 -6 -21.5 -5t-20.5 9l-83 83q-8 8 -9 20.5t4 21.5l88 129q6 9 2.5 17.5t-14.5 9.5l-152 28q-11 1 -19 11t-8 21v118q0 11 8 20t19 11l151 28q12 3 15.5 11t-2.5 17l-88 129q-6 9 -4.5 21t9.5 20l83 83q8 8 20.5 9.5t21.5 -4.5l128 -88q9 -6 17.5 -2.5t10.5 14.5
l28 155q1 12 11 21.5t21 9.5h118q11 0 20 -10t11 -21l28 -153q2 -10 10.5 -14.5t17.5 1.5l129 87q9 6 20.5 5t20.5 -10l83 -83q8 -8 9 -20t-4 -21l-88 -129q-6 -9 -2 -17t15 -11l155 -28q12 -2 22 -11t10 -20v-118zM704 384.5q0 49.5 -26.5 94t-71 71t-94.5 26.5
t-94.5 -26.5t-71 -71.5t-26.5 -94.5t26.5 -94t71.5 -71t94 -26.5q50 0 94.5 26.5t71 71.5t26.5 94.5z" />
    <glyph glyph-name="uniF11F" unicode="&#xf11f;" 
d="M725 235q135 -21 217 -64t82 -94q0 -43 -60 -80t-163 -60q-2 -1 -5 -1q-9 0 -15 6t-6 15q0 15 15 20q73 20 117 46.5t44 46.5q0 21 -47 38.5t-129 29.5h-1q-9 0 -9 -8v-2q9 -36 11 -71q0 -9 -6.5 -15.5t-15.5 -6.5h-132q-9 0 -15 5.5t-7 14.5q-3 36 -18 73.5t-32.5 67
t-52.5 70.5t-58 64.5t-67 68.5q-125 126 -173 194q-77 109 -87 215q-2 12 8 20q6 4 13 4q4 0 8 -1q71 -27 138 -43q14 -3 19 -16q12 -31 31 -62t50 -67t53 -58.5t64 -65.5q8 -8 16 -8t16 8q56 56 85 87t63.5 78.5t49.5 87.5q5 13 19 16q74 18 138 42q4 1 8 1q7 0 13 -4
q10 -8 9 -19q-11 -106 -88 -215q-48 -68 -173 -194l-13 -13q-10 -10 -1 -20q23 -28 41 -54q26 -39 46 -77zM370 303q57 -59 88 -99q12 -15 3 -33q-33 -59 -37 -116q-1 -9 -7 -14.5t-15 -5.5h-132q-9 0 -15.5 6.5t-6.5 15.5q2 35 10 70v3q0 8 -8 8h-2q-81 -12 -128 -29.5
t-47 -38.5q0 -20 44 -46.5t117 -46.5v-1q15 -4 15 -19q0 -9 -6 -15t-15 -6q-3 0 -5 1q-103 23 -163 60t-60 80q0 51 82 94t217 64q16 32 38 65q6 9 18 9q9 0 15 -6zM497 626q-31 29 -50.5 61t-26.5 50q-2 5 -2 8q0 9 6 14.5t14 5.5l24.5 -1t49.5 -1t49.5 1l24.5 1
q8 0 14 -5.5t6 -14.5q0 -3 -2 -8q-7 -18 -26.5 -50t-50.5 -61q-6 -6 -15 -6t-15 6z" />
    <glyph glyph-name="uniF120" unicode="&#xf120;" 
d="M192 320v64h448v-64h-448zM192 192v64h448v-64h-448zM192 64v64h448v-64h-448zM704 512v64h128v-64h-128zM704 384v64h128v-64h-128zM704 256v64h128v-64h-128zM576 704q80 0 136 -56t56 -136v-448q0 -80 -56 -136t-136 -56h-320q-79 0 -135.5 56t-56.5 136v448
q0 80 56.5 136t135.5 56h320zM704 64v448q0 53 -37.5 90.5t-90.5 37.5h-320q-53 0 -90.5 -37.5t-37.5 -90.5v-448q0 -53 37.5 -90.5t90.5 -37.5h320q53 0 90.5 37.5t37.5 90.5zM320 640h-64v64q0 80 56 136t136 56h319q80 0 136.5 -56t56.5 -136v-448q0 -80 -56 -136
t-136 -56h-64v64h64q53 0 90.5 37.5t37.5 90.5v448q0 53 -37.5 90.5t-91.5 37.5h-319q-53 0 -90.5 -37.5t-37.5 -90.5v-64z" />
    <glyph glyph-name="uniF121" unicode="&#xf121;" 
d="M384 384q0 128 128 128t128 -128t-128 -128t-128 128z" />
    <glyph glyph-name="uniF122" unicode="&#xf122;" 
d="M384 -64q-53 0 -90.5 37.5t-37.5 90.5v448h576v-448q0 -53 -37.5 -90.5t-90.5 -37.5h-320zM397 64h38v320h-38v-320zM525 384v-320h38v320h-38zM653 384v-320h38v320h-38zM256 704h384h64v64q0 27 -18.5 45.5t-45.5 18.5h-192q-27 0 -45.5 -18.5t-18.5 -45.5v-64l64 1v63
h192v-64h192q27 0 45.5 -18.5t18.5 -45.5v-64h-704v64q0 27 18.5 45.5t45.5 18.5z" />
    <glyph glyph-name="uniF123" unicode="&#xf123;" 
d="M832 640q80 0 136 -56t56 -136q0 -77 -54 -132.5t-131 -58.5l-325 327l-329 -327q-77 2 -131 57.5t-54 133.5q0 80 56 136t136 56q39 0 74 -15q-54 63 -135 75q11 84 73.5 140t147.5 56q56 0 104 -25.5t79 -69.5q48 31 105 31q69 0 121.5 -43.5t66.5 -109.5
q-40 -20 -69 -54q35 15 73 15zM224 160l289 288l287 -288l-64 -64l-160 160v-384h-128v384l-160 -160z" />
    <glyph glyph-name="uniF124" unicode="&#xf124;" 
d="M0 832h1024v-64h-1024v64zM0 704h768v-64h-768v64zM0 576h1024v-64h-1024v64zM0 448h1024v-64h-1024v64zM0 320h640v-64h-640v64zM0 192h1024v-64h-1024v64zM0 64h640v-64h-640v64z" />
    <glyph glyph-name="uniF125" unicode="&#xf125;" 
d="M1024 512v-192h-512v-320l-512 416l512 416v-320h512z" />
    <glyph glyph-name="uniF126" unicode="&#xf126;" 
d="M0 320v192h512v320l512 -416l-512 -416v320h-512z" />
    <glyph glyph-name="uniF127" unicode="&#xf127;" 
d="M384 589v-346q48 -23 73 -65q87 37 160 96t109 128q-39 21 -62.5 58.5t-23.5 83.5q0 66 47 113t113 47t113 -47t47 -113q0 -54 -32.5 -97t-83.5 -57q-28 -71 -92 -140.5t-136 -118t-141 -75.5q-13 -52 -56.5 -86t-98.5 -34q-66 0 -113 47t-47 113q0 48 26.5 88t69.5 59
v346q-42 19 -69 59t-27 88q0 66 47 113t113 47t113 -47t47 -113q0 -48 -26.5 -88t-69.5 -59z" />
    <glyph glyph-name="uniF128" unicode="&#xf128;" 
d="M448 240q39 -23 54 -62q65 27 95 82t39 143q-27 17 -43.5 45.5t-16.5 63.5q0 55 37 91.5t91 36.5t91 -36.5t37 -91.5q0 -39 -19.5 -69.5t-52.5 -46.5q-3 -32 -8.5 -60t-15.5 -61t-23 -60.5t-34 -54t-46 -46.5t-61 -34.5t-78 -19.5q-18 -28 -46.5 -44t-63.5 -16
q-54 0 -91 36.5t-37 91.5q0 36 17 65.5t47 46.5v288q-30 17 -47 46.5t-17 65.5q0 55 37 91.5t91 36.5t91 -36.5t37 -91.5q0 -37 -17 -66t-47 -46v-288z" />
    <glyph glyph-name="uniF129" unicode="&#xf129;" 
d="M896 448h-256q0 -21 1 -42t4 -40t6 -35t9 -33t9.5 -28.5t10 -26t9.5 -20.5t9 -17.5t6 -13.5q19 -40 59.5 -81t84 -71t84 -54.5t66.5 -37.5l26 -12q-104 0 -191.5 16t-149 42t-111 63.5t-80 74t-53 81.5t-32.5 77.5t-16 71t-6.5 53t-0.5 31.5v1v1h-256l384 384z" />
    <glyph glyph-name="uniF12A" unicode="&#xf12a;" 
d="M640 896h322q29 0 45.5 -20t16.5 -50v-882q0 -30 -16.5 -51t-45.5 -21h-322v128h256v768h-256v128zM765 386l-381 -329v263h-384v128h384v267z" />
    <glyph glyph-name="uniF12B" unicode="&#xf12b;" 
d="M514 131l-330 381h264v384h128v-384h267zM1024 256v-322q0 -29 -20 -45.5t-50 -16.5h-882q-30 0 -51 16.5t-21 45.5v322h128v-256h768v256h128z" />
    <glyph glyph-name="uniF12C" unicode="&#xf12c;" 
d="M576 832v-200q84 -22 138 -91t54 -157q0 -89 -54.5 -158t-137.5 -90v-200h-128v200q-84 21 -138 90t-54 158q0 88 54.5 157t137.5 91v200h128zM512 224q66 0 113 47t47 113t-47 112.5t-113 46.5t-113 -46.5t-47 -112.5q0 -67 47 -113.5t113 -46.5z" />
    <glyph glyph-name="uniF12D" unicode="&#xf12d;" 
d="M1024 128l-256 -192v128h-192q-52 0 -126 121q19 33 70 124q69 -117 120 -117h128v128zM375 585q-48 -93 -69 -135q-35 60 -62.5 93t-51.5 33h-192v128h256q48 0 119 -119zM1024 640l-256 -192v128h-128q-35 0 -76.5 -52.5t-79.5 -128t-75.5 -151t-78 -128t-74.5 -52.5
h-256v128q98 -2 192 0q28 0 66.5 52.5t77.5 128t79 151t83 128t78 52.5h192v128z" />
    <glyph glyph-name="uniF12E" unicode="&#xf12e;" 
d="M320 896h448q80 0 136 -56t56 -136v-640q0 -80 -56 -136t-136 -56h-448q-80 0 -136 56t-56 136v640q0 80 56 136t136 56zM896 64v640q0 53 -38 90.5t-90 37.5h-448q-52 0 -90 -37.5t-38 -90.5v-640q0 -53 38 -90.5t90 -37.5h448q52 0 90 37.5t38 90.5zM768 448h-448v64
h448v-64zM768 320h-448v64h448v-64zM768 192h-448v64h448v-64zM768 64h-448v64h448v-64z" />
    <glyph glyph-name="uniF12F" unicode="&#xf12f;" 
d="M320 896h448q80 0 136 -56t56 -136v-640q0 -80 -56 -136t-136 -56h-448q-80 0 -136 56t-56 136v640q0 80 56 136t136 56zM896 64v640q0 53 -38 90.5t-90 37.5h-448q-52 0 -90 -37.5t-38 -90.5v-640q0 -53 38 -90.5t90 -37.5h448q52 0 90 37.5t38 90.5z" />
    <glyph glyph-name="uniF130" unicode="&#xf130;" 
d="M896 448h64v-384q0 -80 -56 -136t-136 -56h-448q-80 0 -136 56t-56 136v640q0 80 56 136t136 56h128v-64h-128q-52 0 -90 -37.5t-38 -90.5v-640q0 -53 38 -90.5t90 -37.5h448q52 0 90 37.5t38 90.5v384zM848 582v-79q0 -24 -7 -27q-1 -1 -7 0.5t-8 3.5q-87 79 -90 79
q-58 0 -110 22t-83 61.5t-31 84.5q0 70 66 119.5t158 49.5q61 0 112.5 -23t81.5 -61.5t30 -84.5t-30.5 -84.5t-81.5 -60.5zM640 704v64h-64v-64h64zM768 704v64h-64v-64h64zM832 704h64v64h-64v-64zM769 384v-64h-448v64h448zM767 256v-64h-448v64h448zM767 128v-64h-448v64
h448z" />
    <glyph glyph-name="uniF131" unicode="&#xf131;" 
d="M512 640h384q27 0 45.5 -18.5t18.5 -45.5v-512q0 -26 -19 -45t-45 -19h-767q-26 0 -45 19t-19 45v576v64q0 27 18.5 45.5t45.5 18.5h320q27 0 45 -18.5t18 -45.5v-64z" />
    <glyph glyph-name="uniF132" unicode="&#xf132;" 
d="M896 449h64q36 1 54.5 -22t2.5 -60l-121 -302v-1v-1q-8 -18 -17 -30.5t-17 -18t-15 -9t-11 -4.5h-4h-1q0 -1 1 -1h-768q-27 0 -45.5 18.5t-18.5 45.5v640q0 27 18.5 45.5t45.5 18.5h320q27 0 45.5 -18.5t18.5 -45.5v-64h384q27 0 45.5 -18.5t18.5 -45.5v-127zM832 576
h-448v128h-320v-639l128 320q0 2 2 5.5t7 12.5t11.5 17t18.5 16.5t25 12.5h576v127z" />
    <glyph glyph-name="uniF133" unicode="&#xf133;" 
d="M1024 128l-256 -192v128h-199q-35 2 -66.5 12.5t-55.5 27.5t-46 37t-40.5 40t-35 36.5t-34.5 27t-35 11.5h-256v256h256q17 1 35 11.5t34.5 27t35 36.5t40.5 40t46 37t55.5 27.5t66.5 12.5h199v128l256 -192l-256 -192v128h-192q-12 -1 -24 -4.5t-21 -7.5t-20 -12
t-16.5 -12.5t-18 -14.5t-16.5 -14q-47 -49 -76 -126q11 -30 31 -65.5t45 -62.5q4 -3 16 -13.5t18 -15.5t17 -12.5t20 -11.5t21 -7.5t24 -4.5h192v128z" />
    <glyph glyph-name="uniF134" unicode="&#xf134;" 
d="M447 576h-255l320 320l320 -320h-256v-448h-129v448zM704 448h256q30 0 47 -16t17 -48v-449q0 -29 -17 -46t-47 -17h-896q-29 0 -46.5 17.5t-17.5 46.5v448q0 32 17 48t47 16h256v-128h-192v-320h769v320h-193v128z" />
    <glyph glyph-name="uniF135" unicode="&#xf135;" 
d="M384 896h447q80 0 136.5 -56t56.5 -136v-512q0 -64 -38 -114.5t-98 -69.5q-18 -60 -69 -98t-115 -38h-448q-80 0 -136 56t-56 136v512q0 64 38 115t98 69q18 60 69 98t115 38zM959 192v512q0 52 -37.5 90t-90.5 38h-447q-36 0 -65 -17.5t-46 -46.5h431q80 0 136 -56
t56 -136v-495q29 18 46 47.5t17 63.5zM320 703h-63q-53 0 -90.5 -37.5t-37.5 -90.5v-512q0 -53 37.5 -90.5t90.5 -37.5h63v768zM833 63v512q0 53 -38 90.5t-91 37.5h-320v-510q26 0 49 2.5t50 10.5t46 22t32 39t15 58q-28 10 -46 34.5t-18 56.5q0 42 28 69t68 27t68 -27.5
t28 -68.5q0 -33 -17 -57t-46 -34q-1 -87 -72.5 -143t-184.5 -54v-193h320q54 0 91.5 37.5t37.5 90.5z" />
    <glyph glyph-name="uniF136" unicode="&#xf136;" 
d="M384 896h447q80 0 136.5 -56t56.5 -136v-512q0 -64 -38 -114.5t-98 -69.5q-18 -60 -69 -98t-115 -38h-448q-80 0 -136 56t-56 136v512q0 64 38 115t98 69q18 60 69 98t115 38zM959 192v512q0 52 -37.5 90t-90.5 38h-447q-36 0 -65 -17.5t-46 -46.5h431q80 0 136 -56
t56 -136v-495q29 18 46 47.5t17 63.5zM833 63v512q0 53 -38 90.5t-91 37.5h-447q-53 0 -90.5 -37.5t-37.5 -90.5v-512q0 -53 37.5 -90.5t90.5 -37.5h447q54 0 91.5 37.5t37.5 90.5zM443 185l3 7q-8 14 -18.5 25.5t-18.5 18t-30.5 22.5t-36.5 27q-24 17 -44.5 54t-37.5 113
q-30 9 -49 33.5t-19 58.5q0 42 27.5 69t68.5 27q40 0 68 -27.5t28 -68.5q0 -33 -17 -57t-46 -33q27 -105 67 -130q5 -3 19 -11.5t20.5 -13t17 -12.5t19 -16t15.5 -18q7 10 15.5 18t19 16t17 12t20.5 13t19 12q41 27 67 130q-27 10 -44 34.5t-17 55.5q0 42 27.5 69t68.5 27
q40 0 68 -27.5t28 -68.5q0 -34 -20 -59t-50 -34q-30 -129 -82 -166q-14 -11 -36.5 -27t-30.5 -22.5t-19 -18t-18 -25.5l2 -6q27 -10 44.5 -34.5t17.5 -55.5q0 -42 -28 -69t-68 -27q-41 0 -68.5 27.5t-27.5 68.5q0 32 16 55.5t43 33.5z" />
    <glyph glyph-name="uniF137" unicode="&#xf137;" 
d="M384 896h447q80 0 136.5 -56t56.5 -136v-512q0 -64 -38 -114.5t-98 -69.5q-18 -60 -69 -98t-115 -38h-448q-80 0 -136 56t-56 136v512q0 64 38 115t98 69q18 60 69 98t115 38zM959 192v512q0 52 -37.5 90t-90.5 38h-447q-36 0 -65 -17.5t-46 -46.5h431q80 0 136 -56
t56 -136v-495q29 18 46 47.5t17 63.5zM833 63v512q0 53 -38 90.5t-91 37.5h-447q-53 0 -90.5 -37.5t-37.5 -90.5v-512q0 -53 37.5 -90.5t90.5 -37.5h447q54 0 91.5 37.5t37.5 90.5zM640 320v-192h-320v192h64v192h192v-192h64zM512 448h-64v-128h64v128z" />
    <glyph glyph-name="uniF138" unicode="&#xf138;" 
d="M192 896h640q80 0 136 -56t56 -136v-640q0 -80 -56 -136t-136 -56h-640q-80 0 -136 56t-56 136v640q0 80 56 136t136 56zM960 64v640q0 53 -38 90.5t-90 37.5h-640q-52 0 -90 -37.5t-38 -90.5v-640q0 -53 38 -90.5t90 -37.5h640q52 0 90 37.5t38 90.5zM193 575h192
q31 0 54.5 7t34 13t31 22t30.5 23q42 30 79.5 46t90.5 16l128 1v-320h-128q-28 0 -52.5 5t-46.5 15.5t-36 19t-35 23.5q-9 6 -30 22.5t-31.5 22.5t-34 12.5t-54.5 7.5h-192v64zM617 192h216v-64h-193q-6 0 -26.5 0.5t-28 0t-24.5 -1.5t-26 -2.5t-22 -5t-23.5 -8.5t-20.5 -12
q-31 -22 -59.5 -28t-89.5 -7h-128v191h128q62 -1 90 -7t59 -28q40 -29 148 -29v1z" />
    <glyph glyph-name="uniF139" unicode="&#xf139;" 
d="M512 704h384q26 0 45 -19t19 -45v-256h-256v64q0 31 -16.5 47.5t-47.5 16.5h-319q-64 0 -64 -64v-384h-128q-26 0 -45 19t-19 45v568v72q0 26 19 45t45 19h320q26 0 44.5 -19t18.5 -45v-64zM640 320h272q20 0 34 -14t14 -34v-289q0 -19 -14 -33t-34 -14h-544
q-20 0 -33.5 14t-13.5 33v418q0 19 13.5 33t32.5 14h227q20 0 33 -14t13 -33v-81z" />
    <glyph glyph-name="uniF13A" unicode="&#xf13a;" 
d="M443 832q16 -2 480 -478q37 -38 37 -90.5t-37 -89.5q-57 -56 -206 -202q-38 -37 -91 -36.5t-90 37.5q-471 467 -472 480v253q0 52 37 89t89 37h253zM288 516q37 0 63.5 26.5t26.5 63.5t-26.5 63t-63.5 26t-63.5 -26t-26.5 -63t26.5 -63.5t63.5 -26.5z" />
    <glyph glyph-name="uniF13B" unicode="&#xf13b;" 
d="M453 768q13 -2 412 -410q31 -32 31 -77t-32 -77q-48 -48 -177 -173q-32 -31 -77 -31t-78 32q-403 400 -404 411v217q0 45 32 76.5t76 31.5h217zM320 512q27 0 45.5 18.5t18.5 45.5t-18.5 45.5t-45.5 18.5t-45.5 -18.5t-18.5 -45.5t18.5 -45.5t45.5 -18.5z" />
    <glyph glyph-name="uniF13C" unicode="&#xf13c;" 
d="M512 -128q-104 0 -199 41t-163.5 109.5t-109 163t-40.5 198.5t41 199t109.5 163.5t163 109t198.5 40.5t199 -41t163.5 -109.5t109 -163t40.5 -198.5t-41 -199t-109.5 -163.5t-163 -109t-198.5 -40.5zM512 797q-84 0 -160.5 -32.5t-132 -88t-88 -132t-32.5 -160.5
t32.5 -160.5t88 -132t132 -88t160.5 -32.5t160.5 32.5t132 88t88 132t32.5 160.5t-32.5 160.5t-88 132t-132 88t-160.5 32.5zM648 610l90 -90l-362 -362l-90 90z" />
    <glyph glyph-name="uniF13D" unicode="&#xf13d;" 
d="M512 -128q-104 0 -199 41t-163.5 109.5t-109 163t-40.5 198.5t41 199t109.5 163.5t163 109t198.5 40.5t199 -41t163.5 -109.5t109 -163t40.5 -198.5t-41 -199t-109.5 -163.5t-163 -109t-198.5 -40.5zM512 797q-84 0 -160.5 -32.5t-132 -88t-88 -132t-32.5 -160.5
t32.5 -160.5t88 -132t132 -88t160.5 -32.5t160.5 32.5t132 88t88 132t32.5 160.5t-32.5 160.5t-88 132t-132 88t-160.5 32.5zM768 448v-128h-512v128h512z" />
    <glyph glyph-name="uniF13E" unicode="&#xf13e;" 
d="M512 -128q-104 0 -199 41t-163.5 109.5t-109 163t-40.5 198.5t41 199t109.5 163.5t163 109t198.5 40.5t199 -41t163.5 -109.5t109 -163t40.5 -198.5t-41 -199t-109.5 -163.5t-163 -109t-198.5 -40.5zM512 797q-84 0 -160.5 -32.5t-132 -88t-88 -132t-32.5 -160.5
t32.5 -160.5t88 -132t132 -88t160.5 -32.5t160.5 32.5t132 88t88 132t32.5 160.5t-32.5 160.5t-88 132t-132 88t-160.5 32.5zM384 384q0 -26 -19 -45t-45 -19t-45 19t-19 45t19 45t45 19t45 -19t19 -45zM576 384q0 -26 -19 -45t-45 -19t-45 19t-19 45t19 45t45 19t45 -19
t19 -45zM768 384q0 -26 -19 -45t-45 -19t-45 19t-19 45t19 45t45 19t45 -19t19 -45z" />
    <glyph glyph-name="uniF13F" unicode="&#xf13f;" 
d="M960 608v-544q0 -80 -56 -136t-136 -56h-448q-80 0 -136 56t-56 136v640q0 80 56 136t136 56h352zM896 576h-256v256h-320q-52 0 -91 -37q-37 -39 -37 -91v-640q0 -52 37 -91q39 -37 91 -37h448q52 0 91 37q37 39 37 91v512zM704 640h133l-133 133v-133z" />
    <glyph glyph-name="uniF140" unicode="&#xf140;" 
d="M832 374l-307 -310h-25l-308 310l72 72l184 -185v347q9 96 64 96q28 0 43.5 -22t20.5 -74v-346l186 182z" />
    <glyph glyph-name="uniF141" unicode="&#xf141;" 
d="M224 544h576v128h-576v-128zM224 352h576v128h-576v-128zM224 160h576v128h-576v-128z" />
    <glyph glyph-name="uniF142" unicode="&#xf142;" 
d="M199 301l499 495q28 28 62.5 33.5t67 -9t62.5 -44.5l13 -12q30 -30 45 -63t10 -68t-33 -63l-498 -495l-299 -76zM168 41l187 51l-132 127z" />
    <glyph glyph-name="uniF143" unicode="&#xf143;" 
d="M252 316l422 422q24 24 53 28.5t56 -7.5t53 -38l11 -11q25 -25 38 -53t9 -57.5t-28 -53.5l-422 -422l-252 -61zM282 269l-69 -183l197 81z" />
    <glyph glyph-name="uniF144" unicode="&#xf144;" 
d="M128 640v64h768v-64h-768zM192 384v64h640v-64h-640zM256 512v64h512v-64h-512zM256 128v64h512v-64h-512zM320 256v64h384v-64h-384z" />
    <glyph glyph-name="uniF145" unicode="&#xf145;" 
d="M128 640v64h768v-64h-768zM128 384v64h640v-64h-640zM128 512v64h512v-64h-512zM128 128v64h512v-64h-512zM128 256v64h448v-64h-448z" />
    <glyph glyph-name="uniF146" unicode="&#xf146;" 
d="M128 640v64h768v-64h-768zM256 384v64h640v-64h-640zM384 512v64h512v-64h-512zM384 128v64h512v-64h-512zM448 256v64h448v-64h-448z" />
    <glyph glyph-name="uniF147" unicode="&#xf147;" 
d="M256 768h296q121 0 172 -72q30 -43 30 -99q0 -65 -37 -107q-19 -22 -56 -40q53 -20 80 -45q46 -45 46 -125q0 -66 -42 -120q-62 -81 -198 -81h-291v689zM517 477q59 0 92 16q52 26 52 93q0 68 -55 91q-31 13 -92 13h-167v-213h170zM548 159q86 0 123 50q23 31 23 76
q0 75 -67 102q-36 14 -94 14h-186v-242h201z" />
    <glyph glyph-name="uniF148" unicode="&#xf148;" 
d="M465 753h106l250 -689h-103l-69 206h-273l-74 -206h-96zM619 346l-105 304l-111 -304h216z" />
    <glyph glyph-name="uniF149" unicode="&#xf149;" 
d="M160 384q0 181 85.5 266.5t266.5 85.5t266.5 -85.5t85.5 -266.5t-85.5 -266.5t-266.5 -85.5t-266.5 85.5t-85.5 266.5zM96 384q0 -203 106.5 -309.5t309.5 -106.5t309.5 106.5t106.5 309.5t-106.5 309.5t-309.5 106.5t-309.5 -106.5t-106.5 -309.5zM352 384h128v224h-128
v-224zM544 384h128v224h-128v-224zM726 290q-105 -100 -214 -100t-214 100l44 47q87 -83 170 -83t170 83z" />
    <glyph glyph-name="uniF14A" unicode="&#xf14a;" 
d="M438 104h100v-104h-100v104zM331 678q61 66 167 66q99 0 158.5 -56t59.5 -144q0 -53 -22 -86t-88 -97q-48 -47 -62 -79t-14 -95h-90q0 72 17 115.5t75 99.5l40 40q18 17 29 36q20 32 20 67q0 49 -29.5 85t-96.5 36q-84 0 -115 -62q-18 -34 -21 -100h-89q0 108 61 174z
" />
    <glyph glyph-name="uniF14B" unicode="&#xf14b;" 
d="M192 640v64h576v-64h-576zM192 128v64h576v-64h-576zM192 512v64h512v-64h-512zM192 0v64h512v-64h-512zM128 320v64h768v-64h-768z" />
    <glyph glyph-name="uniF14C" unicode="&#xf14c;" 
d="M256 512v128l192 -160l-192 -160v128h-128v64h128zM128 704v64h768v-64h-768zM512 512v128h384v-128h-384zM512 320v128h384v-128h-384zM128 192v64h768v-64h-768zM128 64v64h768v-64h-768z" />
    <glyph glyph-name="uniF14D" unicode="&#xf14d;" 
d="M637 704l-141 -576h144v-64h-384v64h157l131 576h-160v64h384v-64h-131z" />
    <glyph glyph-name="uniF14E" unicode="&#xf14e;" 
d="M0 -64v896h1024v-896h-1024zM960 768h-896v-768h896v768zM192 128v512h320v-512h-320zM640 128v512h192v-512h-192z" />
    <glyph glyph-name="uniF14F" unicode="&#xf14f;" 
d="M448 640v64h512v-64h-512zM448 128v64h512v-64h-512zM448 384v64h384v-64h-384zM128 160q0 96 96 96t96 -96t-96 -96t-96 96zM128 416q0 96 96 96t96 -96t-96 -96t-96 96zM128 672q0 96 96 96t96 -96t-96 -96t-96 96z" />
    <glyph glyph-name="uniF150" unicode="&#xf150;" 
d="M384 640v64h512v-64h-512zM384 128v64h512v-64h-512zM384 384v64h384v-64h-384zM160 768h32h64v-128h32v-64h-32h-64h-32v64h32v64h-32v64zM128 512h160v-64h-32v-32h-64v32h-64v64zM128 320v64h192v-64h-192zM128 192v64h160v-64h-160zM224 128v64h96v-64h-96zM128 64
v64h160v-64h-160z" />
    <glyph glyph-name="uniF151" unicode="&#xf151;" 
d="M64 704v64h64v-64h-64zM256 512v64h64v-64h-64zM64 320v64h64v-64h-64zM256 128v64h64v-64h-64zM64 -64v64h64v-64h-64zM256 704v64h576v-64h-576zM448 512v64h576v-64h-576zM256 320v64h576v-64h-576zM448 128v64h576v-64h-576zM192 -64v64h576v-64h-576z" />
    <glyph glyph-name="uniF152" unicode="&#xf152;" 
d="M327 361l21 120q16 89 66.5 135.5t129.5 46.5q94 0 133 -61l24 52h77l-59 -333q-5 -25 5 -39.5t29 -14.5q40 0 80 65.5t40 172.5q0 113 -70 179t-192 66q-114 0 -207 -51.5t-148.5 -148.5t-55.5 -223q0 -113 70 -179t193 -66q105 0 194 48l32 -79q-106 -51 -226 -51
q-166 0 -260 88t-94 239q0 112 39.5 207.5t107.5 160t159.5 101t195.5 36.5q165 0 259 -88t94 -239q0 -73 -19.5 -135t-51.5 -102t-71.5 -62.5t-79.5 -22.5q-85 0 -113 66q-54 -75 -158 -75q-80 0 -119.5 49.5t-24.5 137.5zM451 488l-24 -134q-7 -42 15 -67.5t63 -25.5
q45 0 78.5 28t42.5 77l20 112q8 44 -18 70.5t-73 26.5q-88 0 -104 -87z" />
    <glyph glyph-name="uniF153" unicode="&#xf153;" 
d="M317 512h128v-64h-133l5 -128l-189 160l189 160v-128zM128 704v64h768v-64h-768zM512 512v128h384v-128h-384zM512 320v128h384v-128h-384zM128 192v64h768v-64h-768zM128 64v64h768v-64h-768z" />
    <glyph glyph-name="uniF154" unicode="&#xf154;" 
d="M64 704v64h128v-64h-128zM192 576h-128v64h128v64h64v-224v-32h-192v64h128v64zM0 512v64h64v-64h-64zM858 705l58 -385h108v-64h-98l29 -194h-96l-24 193h-254l-111 -193h-89l114 194h-367v64h405l227 385h98zM822 320l-38 283l-163 -283h201z" />
    <glyph glyph-name="uniF155" unicode="&#xf155;" 
d="M211 139h152q-149 94 -146 273q7 294 299 301q292 -7 299 -301q3 -180 -146 -271l152 -2v-75h-248v75q158 88 156 272q0 98 -54 162q-53 64 -159 65q-105 -1 -159 -65q-54 -65 -54 -162q-2 -184 157 -272v-75h-249v75z" />
    <glyph glyph-name="uniF156" unicode="&#xf156;" 
d="M384 320v128h-192v64h192v128h64v-128h192v128h64v-128h192v-64h-192v-128h192v-64h-192v-128h-64v128h-192v-128h-64v128h-192v64h192zM448 320h192v128h-192v-128zM960 64h-832v640h832v-640zM896 640h-704v-512h704v512z" />
    <glyph glyph-name="uniF157" unicode="&#xf157;" 
d="M896 128q0 -79 -56.5 -135.5t-135.5 -56.5h-512q-79 0 -135.5 56.5t-56.5 135.5v512q0 79 56.5 135.5t135.5 56.5h512q44 0 84 -19l-57 -48q-13 3 -27 3h-512q-53 0 -90.5 -37.5t-37.5 -90.5v-512q0 -53 37.5 -90.5t90.5 -37.5h512q53 0 90.5 37.5t37.5 90.5v360l64 48
v-408zM983 894h41v-39l-609 -718l-244 202l72 75l172 -169z" />
    <glyph glyph-name="uniF158" unicode="&#xf158;" 
d="M128 -64v64h832v-64h-832zM366 765v-380q0 -75 28 -125q42 -75 148 -75q112 0 154 81q23 44 23 119v380h95v-342q0 -127 -34 -195q-63 -125 -237.5 -125t-236.5 125q-34 68 -34 195v342h94z" />
    <glyph glyph-name="uniF159" unicode="&#xf159;" 
d="M1024 192q0 -53 -37.5 -90.5t-90.5 -37.5h-768q-53 0 -90.5 37.5t-37.5 90.5v448q0 53 37.5 90.5t90.5 37.5h768q53 0 90.5 -37.5t37.5 -90.5v-448zM64 128v544l287 -225l-287 -287v-32h32l290 290l125 -98l126 99l291 -291h32v32l-287 287l287 225v32v-576h-896z
M925 704h-829l415 -320z" />
    <glyph glyph-name="uniF15A" unicode="&#xf15a;" 
d="M512 -128q-104 0 -199 41t-163.5 109.5t-109 163t-40.5 198.5t41 199t109.5 163.5t163 109t198.5 40.5t199 -41t163.5 -109.5t109 -163t40.5 -198.5t-41 -199t-109.5 -163.5t-163 -109t-198.5 -40.5zM512 797q-84 0 -160.5 -32.5t-132 -88t-88 -132t-32.5 -160.5
t32.5 -160.5t88 -132t132 -88t160.5 -32.5t160.5 32.5t132 88t88 132t32.5 160.5t-32.5 160.5t-88 132t-132 88t-160.5 32.5zM576 640v-320h-128v320h128zM576 256v-128h-128v128h128z" />
    <glyph glyph-name="uniF15B" unicode="&#xf15b;" 
d="M536 256l-216 207l50 48l174 -160l178 161l46 -49l-211 -207h-21z" />
    <glyph glyph-name="uniF15C" unicode="&#xf15c;" 
d="M0 768q0 53 37.5 90.5t90.5 37.5h768q53 0 90.5 -37.5t37.5 -90.5v-768q0 -53 -37.5 -90.5t-90.5 -37.5h-768q-53 0 -90.5 37.5t-37.5 90.5v768zM896 832h-768q-27 0 -45.5 -18.5t-18.5 -45.5v-768q0 -27 18.5 -45.5t45.5 -18.5h768q27 0 45.5 18.5t18.5 45.5v768
q0 27 -18.5 45.5t-45.5 18.5zM992 280l-258 -216l-60 50l199 174l-201 178l62 46l258 -211v-21zM32 472v21l258 211l62 -46l-201 -178l199 -174l-60 -50zM577 768h62l-191 -768h-64z" />
    <glyph glyph-name="uniF15D" unicode="&#xf15d;" 
d="M0 768q0 53 37.5 90.5t90.5 37.5h768q53 0 90.5 -37.5t37.5 -90.5v-768q0 -53 -37.5 -90.5t-90.5 -37.5h-768q-53 0 -90.5 37.5t-37.5 90.5v768zM896 832h-768q-27 0 -45.5 -18.5t-18.5 -45.5v-768q0 -27 18.5 -45.5t45.5 -18.5h768q27 0 45.5 18.5t18.5 45.5v768
q0 27 -18.5 45.5t-45.5 18.5zM1024 320h-448v320h448v-64h-384v-192h384v-64zM64 512v64h384v-64h-384zM64 320v64h320v-64h-320zM64 128v64h768v-64h-768zM797 480l-125 -96h-32v64l157 103l163 -103v-64h-32z" />
    <glyph glyph-name="uniF15E" unicode="&#xf15e;" 
d="M755 829h-486q-58 0 -99.5 -41t-41.5 -100v-613q0 -59 41.5 -100.5t99.5 -41.5h486q58 0 99.5 41.5t41.5 100.5v613q0 59 -41.5 100t-99.5 41zM755 893v0q85 0 145 -60t60 -145v-613q0 -85 -60 -145.5t-145 -60.5h-486q-85 0 -145 60.5t-60 145.5v613q0 85 60 145t145 60
h486zM529 447l-20 14q-1 42 6 77t18.5 57.5t26.5 39.5t30 25.5t27 14t20 6.5l8 1q-12 -22 -29 -51.5t-22 -40.5t-11.5 -27.5t-4 -27t7.5 -25.5t18 -36q13 -26 5 -49.5t-31 -43t-47.5 -34t-43.5 -22.5l-19 -8q2 2 5.5 4.5t13.5 11t18.5 17t17.5 21t13 24t3 25.5t-10 27z
M520 838q-1 -20 -4 -54t-19.5 -123t-39.5 -159q-12 -36 -13.5 -76.5t2.5 -109.5q-23 43 -35.5 71t-26 68t-12.5 73.5t16 60.5zM738 445h4v-10.5t0.5 -20.5t0.5 -23.5v-9.5q-1 0 -11.5 -6t-23 -14t-15.5 -10q-67 -35 -160 -37.5t-243 32.5l15 62q140 -32 221 -31t137 31
q8 4 18 11q2 1 8.5 5.5t7.5 4.5q24 15 41 16zM303 2l-90 54l33 55l91 -54l-17 4h384l-14 -3l124 59l27 -58l-123 -58l-14 -4h-384h-9zM681 198q-72 -50 -130 -68.5t-113 -4.5t-111 65l43 47q43 -39 83.5 -49.5t85 5t105.5 58.5z" />
    <glyph glyph-name="uniF15F" unicode="&#xf15f;" 
d="M0 768q0 53 37.5 90.5t90.5 37.5h768q53 0 90.5 -37.5t37.5 -90.5v-768q0 -53 -37.5 -90.5t-90.5 -37.5h-768q-53 0 -90.5 37.5t-37.5 90.5v768zM896 832h-768q-27 0 -45.5 -18.5t-18.5 -45.5v-768q0 -27 18.5 -45.5t45.5 -18.5h768q27 0 45.5 18.5t18.5 45.5v768
q0 27 -18.5 45.5t-45.5 18.5zM768 448h-64v64h128v-576h-64v512zM101 452q-22 -3 -34 -4l-6 64q12 1 32 3q41 5 85 13q141 24 258 64q132 45 217 106l51 38v-801h-64v678q-78 -46 -183 -82q-122 -42 -268 -66q-46 -8 -88 -13zM512 64l-320 -64v64l320 64v-64zM512 256
l-320 -64v64l320 64v-64z" />
    <glyph glyph-name="uniF160" unicode="&#xf160;" 
d="M960 128v128h-256v64h256v128h-192v64h192v256q0 27 -18.5 45.5t-45.5 18.5h-768q-27 0 -45.5 -18.5t-18.5 -45.5v-768q0 -27 18.5 -45.5t45.5 -18.5h768q27 0 45.5 18.5t18.5 45.5v64h-768v64h768zM0 768q0 53 37.5 90.5t90.5 37.5h768q53 0 90.5 -37.5t37.5 -90.5v-768
q0 -53 -37.5 -90.5t-90.5 -37.5h-768q-53 0 -90.5 37.5t-37.5 90.5v768zM416 704q93 0 158.5 -65.5t65.5 -158.5t-65.5 -158.5t-158.5 -65.5t-158.5 65.5t-65.5 158.5t65.5 158.5t158.5 65.5zM576 480q0 58 -36.5 102t-91.5 55v-144l101 -101q27 40 27 88zM384 637
q-55 -11 -91.5 -55t-36.5 -102q0 -26 10 -54l118 68v143zM299 372q48 -52 117 -52q48 0 88 27l-90 90z" />
    <glyph glyph-name="uniF161" unicode="&#xf161;" 
d="M896 896q53 0 90.5 -37.5t37.5 -90.5v-768q0 -53 -37.5 -90.5t-90.5 -37.5h-768q-53 0 -90.5 37.5t-37.5 90.5v768q0 53 37.5 90.5t90.5 37.5h768zM960 0v768q0 27 -18.5 45.5t-45.5 18.5h-768q-27 0 -45.5 -18.5t-18.5 -45.5v-192h640v-64h-640v-128h704v-64h-704v-128
h512v-64h-512v-128q0 -27 18.5 -45.5t45.5 -18.5h768q27 0 45.5 18.5t18.5 45.5z" />
    <glyph glyph-name="uniF162" unicode="&#xf162;" 
d="M0 768q0 53 37.5 90.5t90.5 37.5h768q53 0 90.5 -37.5t37.5 -90.5v-768q0 -53 -37.5 -90.5t-90.5 -37.5h-768q-53 0 -90.5 37.5t-37.5 90.5v768zM896 832h-768q-27 0 -45.5 -18.5t-18.5 -45.5v-768q0 -27 18.5 -45.5t45.5 -18.5h768q27 0 45.5 18.5t18.5 45.5v768
q0 27 -18.5 45.5t-45.5 18.5zM513 160q0 -45 -27.5 -78.5t-63 -48t-70.5 -14.5q-53 0 -97 44t-44 97t44 97t97 44q39 0 68 -24t29 -53v512q0 16 7.5 24t15.5 8h8q0 -1 3.5 0t8.5 -1t9.5 -4.5t8 -9.5t3.5 -17q94 0 159 -18.5t100.5 -52.5t53 -81.5t16 -105.5t-9.5 -126
q-23 58 -55.5 97t-74.5 59t-86 28t-103 8v-384zM512 608q181 0 269 -77q-8 23 -17.5 42t-19 33t-24.5 24.5t-26 17.5t-31 11.5t-32.5 7t-37 4t-38.5 1.5h-43v0v-1v-1v-1v-1v-1v-1v-1v-1v-1v-1v-1v-1v-1v-1v-1v-1v-2v-1v-1v-1v-2v-1v-1v-2v-1v-2v-1v-2v-1v-2v-1v-2v-1v-2v-2
v-1v-2v-2v-1v-2v-2v-2v-8v0zM435 160q0 25 -24.5 51t-58.5 26q-32 0 -54.5 -22.5t-22.5 -54.5t22.5 -54.5t54.5 -22.5q35 0 59 19t24 58z" />
    <glyph glyph-name="uniF163" unicode="&#xf163;" 
d="M128 896h768q53 0 90.5 -37.5t37.5 -90.5v-768q0 -53 -37.5 -90.5t-90.5 -37.5h-768q-53 0 -90.5 37.5t-37.5 90.5v768q0 53 37.5 90.5t90.5 37.5zM64 768v-256h256v320h-192q-27 0 -45.5 -18.5t-18.5 -45.5zM384 256v-128h256v128h-256zM384 448v-128h256v128h-256z
M128 -64h192v512h-256v-448q0 -27 18.5 -45.5t45.5 -18.5zM384 64v-128h256v128h-256zM960 0v64h-256v-128h192q27 0 45.5 18.5t18.5 45.5zM704 256v-128h256v128h-256zM704 448v-128h256v128h-256zM384 832v-320h576v256q0 27 -18.5 45.5t-45.5 18.5h-512z" />
    <glyph glyph-name="uniF164" unicode="&#xf164;" 
d="M0 768q0 53 37.5 90.5t90.5 37.5h768q53 0 90.5 -37.5t37.5 -90.5v-768q0 -53 -37.5 -90.5t-90.5 -37.5h-768q-53 0 -90.5 37.5t-37.5 90.5v768zM896 832h-768q-27 0 -45.5 -18.5t-18.5 -45.5v-768q0 -27 18.5 -45.5t45.5 -18.5h768q27 0 45.5 18.5t18.5 45.5v768
q0 27 -18.5 45.5t-45.5 18.5zM384 160v96h128v-64h128v-256h-256v224zM512 832h128v-64h-128v64zM384 768h128v-64h-128v64zM512 704h128v-64h-128v64zM384 640h128v-64h-128v64zM512 576h128v-64h-128v64zM384 512h128v-64h-128v64zM384 384h128v-64h-128v64zM512 448h128
v-64h-128v64zM512 320h128v-64h-128v64zM448 64v-64h128v64h-128z" />
    <glyph glyph-name="uniF165" unicode="&#xf165;" 
d="M64 691l45 77l466 -757l-57 -75zM191 766q12 -6 33.5 -15.5t78 -32.5t103 -39t93.5 -26.5t65 -3.5q21 7 46 26.5t50.5 41t57.5 44t77.5 41.5t98.5 28q-8 -42 -8 -67.5t9.5 -50.5t20.5 -41t23 -40.5t18 -48.5q-12 -4 -38.5 -13t-34 -12t-27.5 -10.5t-26 -11t-20.5 -11
t-20 -13t-16.5 -14.5t-17 -18.5t-14.5 -22t-16.5 -26.5q-21 -57 -52 -97t-61 -56.5t-57 -24.5t-44 -8h-16z" />
    <glyph glyph-name="uniF166" unicode="&#xf166;" 
d="M166 384v-288l250 256l64 -64l-256 -250h288v-102h-448v448h102zM858 384v288l-250 -256l-64 64l256 250h-288v102h448v-448h-102z" />
    <glyph glyph-name="uniF167" unicode="&#xf167;" 
d="M321 64v-61h-256q-11 0 -20.5 6.5t-14 12t-13.5 19.5q-15 21 -16.5 55.5t9.5 68.5q5 16 7.5 26.5t17.5 53.5t30 75t39.5 70.5t50.5 60.5q-24 25 -41 72.5t-17 84.5q0 77 56.5 134.5t132.5 57.5t135 -57.5t59 -134.5q0 -37 -27 -82t-59 -75q0 -1 26.5 -17t27.5 -18
q-7 -9 -18 -33.5t-14 -30.5l-18.5 21t-31.5 34.5t-20 18.5l-39 26l39 28q29 17 49.5 55t20.5 73q0 52 -39 90t-91 38t-91.5 -38t-39.5 -90q0 -33 18 -72t43 -56l41 -27l-41 -25q-30 -19 -58.5 -61t-48.5 -94.5t-28.5 -78.5t-14.5 -50l-1 -2q-7 -24 -6.5 -42t6.5 -26
q1 -2 14 -6t18 -4h224zM831 402q51 -53 89.5 -114.5t57.5 -108t30.5 -91.5t13.5 -63.5t2 -24.5q0 -21 -4 -38t-9 -30t-16 -22.5t-19.5 -16t-24.5 -10.5t-26.5 -6.5t-30.5 -3.5t-30.5 -1h-32.5h-255q-38 0 -58.5 1t-50 8t-45 19.5t-27 38t-11.5 61.5q0 10 1 26.5t11.5 64.5
t29 94.5t57.5 108.5t93 114q27 25 52.5 37t39.5 14t36 2q71 0 127 -59zM704 896q79 0 135.5 -57.5t56.5 -136.5t-56 -134.5t-136 -55.5t-136 55.5t-56 134.5t56.5 136.5t135.5 57.5z" />
    <glyph glyph-name="uniF168" unicode="&#xf168;" 
d="M496 640q-20 0 -34 14t-14 34t14 34t34 14t34 -14t14 -34t-14 -34t-34 -14zM496 320q-20 0 -34 14t-14 34t14 34t34 14t34 -14t14 -34t-14 -34t-34 -14zM496 0q-20 0 -34 14t-14 34t14 34t34 14t34 -14t14 -34t-14 -34t-34 -14z" />
    <glyph glyph-name="uniF169" unicode="&#xf169;" 
d="M512 -128q-83 0 -161.5 26t-141.5 73.5t-110 111t-73 141.5t-26 161q0 103 41 198t109.5 163.5t163 109t198.5 40.5t199 -41t163.5 -109.5t109 -163t40.5 -197.5q0 -83 -26 -161.5t-73 -141.5t-110 -110.5t-141.5 -73.5t-161.5 -26zM512 796q-84 0 -160.5 -32.5
t-132 -87.5t-88 -131.5t-32.5 -159.5q0 -84 32.5 -160.5t88 -132t132 -88t160.5 -32.5t160.5 32.5t132 88t88 132t32.5 160.5t-32.5 160t-88 131t-132 87.5t-160.5 32.5zM410 530h-2q-4 -16 -17.5 -27t-30.5 -11q-20 0 -34.5 14.5t-14.5 35.5q0 7 1 10q8 63 57 105
q54 48 142 48q94 0 147 -49q55 -46 55 -111q0 -35 -20 -67q-19 -30 -86 -87q-36 -29 -42 -45q-5 -10 -6 -29q-2 -18 -2 -35q0 -13 -6.5 -19.5t-14 -7.5t-24.5 -1h-8h-9q-2 0 -8 0.5t-8.5 1.5t-6.5 3.5t-5.5 5.5t-3.5 8t-2 11l-1 6v23q0 43 15 75q17 30 63 69q47 38 56 50
q14 17 14 41q0 32 -25 54t-67 22q-40 0 -69 -23q-26 -24 -37 -71zM512 207q30 0 51.5 -21t21.5 -51t-21.5 -51.5t-51.5 -21.5t-51.5 22t-21.5 51q0 30 21.5 51t51.5 21z" />
    <glyph glyph-name="uniF16A" unicode="&#xf16a;" 
d="M794 319q0 8 -6 14.5t-15 6.5q-7 0 -13 -5q-42 -41 -106.5 -67t-139.5 -27h-1q-74 1 -137 27t-109 67q-6 5 -14 5q-9 0 -14.5 -7t-5.5 -17q0 -8 12 -26q12 -21 35 -42t56 -42t79.5 -34.5t96.5 -13.5h3q50 0 96.5 13.5t79.5 34.5t56 42t35 42q12 18 12 29v0zM936 -62
q14 -9 14 -26q0 -15 -10 -26.5t-31 -11.5q-66 0 -138.5 24t-127.5 61q-10 6 -21 4q-54 -11 -108 -11q-105 0 -200 37.5t-164 100.5t-109.5 150.5t-40.5 183.5t40.5 183.5t109.5 150.5t164 100.5t199.5 37.5t199.5 -37.5t164 -100.5t109.5 -150.5t40.5 -183.5
q0 -103 -45.5 -194t-125.5 -157q-11 -10 -7 -24q22 -72 87 -111zM798 -16q-18 26 -31.5 61t-13.5 52q0 15 15 24q80 52 126.5 131.5t46.5 170.5q0 102 -57.5 188.5t-155.5 137t-214.5 50.5t-215 -50.5t-155.5 -137t-57 -188.5t57 -188.5t155.5 -137t214.5 -50.5q56 0 109 13
q17 4 26 -4q31 -29 79 -56t67 -27q7 0 7 5q0 3 -3 6z" />
    <glyph glyph-name="uniF16B" unicode="&#xf16b;" 
d="M384 256l-64 2v56l224 192l224 -192v-56l-64 -2v-128h-128v128h-64v-128h-128v128zM704 768v-128h128zM896 576h-256v256h-320q-53 0 -90.5 -37.5t-37.5 -90.5v-640q0 -53 37.5 -90.5t90.5 -37.5h448q53 0 90.5 37.5t37.5 90.5v512zM320 896h352l288 -288v-544
q0 -80 -56 -136t-136 -56h-448q-80 0 -136 56t-56 136v640q0 80 56 136t136 56z" />
    <glyph glyph-name="uniF16C" unicode="&#xf16c;" 
d="M960 576q0 53 -37.5 90.5t-91.5 37.5h-638q-54 0 -91.5 -37.5t-37.5 -90.5v-339q28 23 53.5 51.5t63.5 74t75 85.5q43 -46 110 -142.5t112 -169.5l46 -74q340 27 430 27q6 19 6 39v448zM193 -64q-81 0 -137 56t-56 136v448q0 80 56.5 136t136.5 56h638q81 0 137 -56
t56 -136v-448q0 -80 -56.5 -136t-136.5 -56h-638zM576 480q0 96 96 96t96 -96t-96 -96t-96 96zM750 314q8 -10 94.5 -89.5t113.5 -119.5l-4 -16q-40 0 -147.5 -7t-195.5 -13l-87 -7q-15 24 -38 60q188 125 264 192z" />
    <glyph glyph-name="uniF16D" unicode="&#xf16d;" 
d="M525 489q0 48 48 48t48 -48t-48 -48t-48 48zM704 321v191q0 26 -18.5 45t-45.5 19h-256q-27 0 -45.5 -18.5t-18.5 -45.5v-112q27 31 72 64q39 -44 108 -171q93 67 131 102q10 -11 36 -36t37 -38zM256 512q0 53 37.5 90.5t90.5 37.5h256q53 0 90.5 -37.5t37.5 -90.5v-192
q0 -53 -37.5 -90.5t-90.5 -37.5h-256q-53 0 -90.5 37.5t-37.5 90.5v192z" />
    <glyph glyph-name="uniF16E" unicode="&#xf16e;" 
d="M560 482.5q0 73.5 72 73.5t72 -73.5t-72 -73.5t-72 73.5zM128 141v422q0 59 37.5 100t91.5 41h510q54 0 91.5 -41t37.5 -100v-422q0 -59 -37.5 -100t-91.5 -41h-510q-54 0 -91.5 41t-37.5 100zM832 576q0 26 -19 45t-46 19h-510q-27 0 -46 -18.5t-19 -45.5v-255
q44 65 139 132q33 -35 74 -96t65 -105l24 -44q143 99 196 146q13 -13 66.5 -63t75.5 -77v362z" />
    <glyph glyph-name="uniF16F" unicode="&#xf16f;" 
d="M512 -128q-104 0 -199 41t-163.5 109.5t-109 163t-40.5 198.5t41 199t109.5 163.5t163 109t198.5 40.5t199 -41t163.5 -109.5t109 -163t40.5 -198.5t-41 -199t-109.5 -163.5t-163 -109t-198.5 -40.5zM512 797q-84 0 -160.5 -32.5t-132 -88t-88 -132t-32.5 -160.5
t32.5 -160.5t88 -132t132 -88t160.5 -32.5t160.5 32.5t132 88t88 132t32.5 160.5t-32.5 160.5t-88 132t-132 88t-160.5 32.5zM448 512v128h128v-128h-128zM448 128v320h128v-320h-128z" />
    <glyph glyph-name="uniF170" unicode="&#xf170;" 
d="M545 869q28 0 47.5 -19.5t19.5 -47.5t-19.5 -48t-47.5 -20q-29 0 -48.5 20t-19.5 48t20 47.5t48 19.5zM288 804q28 0 47.5 -19.5t19.5 -47.5t-19.5 -47.5t-47.5 -19.5t-47.5 19.5t-19.5 47.5t19.5 47.5t47.5 19.5zM800 803q28 0 47.5 -19.5t19.5 -47.5t-19.5 -47.5
t-47.5 -19.5t-47.5 19.5t-19.5 47.5t19.5 47.5t47.5 19.5zM774 -128h-128q-8 0 -14 10t-7 20q-2 30 -12.5 58t-23.5 49.5t-37.5 49t-42.5 46t-51 50.5t-53 52q-43 44 -62 64t-51 57.5t-54 68.5q-75 108 -85 210q-1 12 8 18q6 5 13 5q3 0 7 -2q69 -26 134 -41q14 -3 19 -16
q9 -24 25.5 -51.5t30 -46.5t43 -51.5t42.5 -46.5t50 -51q6 -8 15 -8q10 0 16 8q34 35 49.5 51t43.5 47t42.5 51.5t31 47t24.5 51.5q6 13 19 16q74 18 133 40q6 2 8 2q6 0 13 -5q9 -7 8 -19q-10 -103 -85 -209q-21 -31 -53.5 -69t-51 -57.5t-62.5 -63.5q-4 -5 -13 -14
q-3 -3 -3.5 -9t2.5 -12q8 -10 40 -54q24 -34 32.5 -48t23.5 -38.5t20.5 -40t10.5 -37t6 -45.5q1 -10 -5 -20q-12 -17 -16 -17zM640 576q0 -24 -14.5 -54t-37.5 -52t-43 -22q-22 0 -45 22.5t-37.5 52t-14.5 53.5h192zM434 -128h-128q-6 0 -15 17q-6 10 -6 25q0 13 1.5 24
t5 23t5.5 19.5t8 20.5t9 18.5t12 20.5t12.5 20t16 23.5t16.5 25.5q6 10 17 10q8 0 15 -7q47 -48 85 -99q4 -5 6 -14t-3 -20q-8 -14 -17.5 -28t-13.5 -23.5t-5 -25.5q-1 -10 -7.5 -20t-13.5 -10z" />
    <glyph glyph-name="uniF171" unicode="&#xf171;" 
d="M128 0h768v288h128v-416h-886q-112 1 -138 0v1024h704v-128h-576v-768zM938 695l78 -77q8 -10 8 -23t-8 -21l-415 -424q-26 -22 -52 -22h-37q-12 0 -27.5 7t-24.5 15l-195 201q-9 8 -9 21t9 23l77 77q8 10 21 10t23 -10l123 -125q10 -10 23 -10t21 10l342 348q9 9 22 9
t21 -9z" />
    <glyph glyph-name="uniF172" unicode="&#xf172;" 
d="M319 896v-128h-191v-192h-128v320h319zM1024 896v-319h-128v191h-192v128h320zM640 576h128q26 0 45 -19t19 -45v-256q0 -26 -19 -45t-45 -19h-512q-26 0 -45 19t-19 45v256q0 26 19 45t45 19h128q0 26 19 45t45 19h128q26 0 45 -19t19 -45zM512 256q53 0 90.5 37.5
t37.5 90.5t-37.5 90.5t-90.5 37.5t-90.5 -37.5t-37.5 -90.5t37.5 -90.5t90.5 -37.5zM576 384q0 -26 -19 -45t-45 -19t-45 19t-19 45t19 45t45 19t45 -19t19 -45zM1024 192v-320h-319v128h191v192h128zM320 0v-128h-320v319h128v-191h192z" />
    <glyph glyph-name="uniF173" unicode="&#xf173;" 
d="M376 3h-152q-45 0 -82.5 36.5t-57.5 94.5t-20 122q0 65 19.5 122.5t57 95t83.5 37.5h159q29 17 53 36.5t44 45t34 46.5t30 57.5t25.5 60.5t27.5 72q35 3 77 -15q88 -38 88 -110q0 -28 -14.5 -60.5t-35 -65.5t-27.5 -49q11 7 28.5 19t26.5 18t22 14.5t21 13t17.5 8.5
t17 5.5t14.5 0.5q50 3 89 -43.5t39 -116.5q0 -84 -12 -150.5t-34 -131t-23 -67.5q-41 -66 -77 -96.5t-84 -22.5q-97 10 -185.5 15.5t-128.5 6.5zM256 256q0 101 32 191h-64q-26 0 -48 -30.5t-34.5 -73.5t-13.5 -87q-2 -51 13 -95.5t42 -72.5q22 -23 41 -23h64
q-32 96 -32 191zM896 480q0 30 -30 52t-66 -1q-19 -12 -68.5 -32t-54.5 -22l-45 34l52 101q13 28 16.5 46t3.5 46q0 14 -17.5 30t-34 24.5t-19.5 8.5q-52 -143 -110.5 -215.5t-175.5 -140.5q-27 -73 -27 -155q0 -40 8.5 -100t18.5 -92q27 -10 65 -14.5t75.5 -5t123 -2
t163.5 -4.5q44 58 68 109t39 133.5t15 199.5z" />
    <glyph glyph-name="uniF174" unicode="&#xf174;" 
d="M379 128l-136 3q-35 3 -62.5 33t-40 64.5t-12.5 60.5v48q2 24 9.5 50t21.5 53.5t38 47.5t55 24h129q1 1 2 3q28 16 51 37t38 40t31 52t25 54.5t26 66.5q9 1 31 -5t31 -6q18 -2 69 -69h1q-3 -34 -22 -68.5t-32.5 -55.5t-6.5 -31q21 4 33 11.5t15.5 14t9.5 11.5t17 5
q9 0 31 5t33 4q34 -4 54.5 -38t18.5 -72q-1 -35 -4.5 -69.5t-7 -57t-9.5 -50.5t-9 -39.5t-9.5 -35.5t-7.5 -27q-3 -4 -7 -12q-25 -39 -39 -49t-57 -13q-80 10 -144 15.5t-111.5 9t-65.5 4.5q6 -9 13 -19zM275 317q-2 9 -0.5 22.5t1 19t2 16.5t3 14.5t4 13t4.5 12.5t5 13.5
t6 14.5l-41 11q-36 -11 -64.5 -57.5t-28.5 -79.5q0 -20 11 -50.5t33.5 -58t48.5 -29.5l52 9q-3 10 -13 33t-16 44.5t-7 51.5zM799 508q0 18 -25 23t-71 5q-17 0 -49.5 -15.5t-35.5 -16.5l-36 12l47 79q12 14 14 25.5t0.5 24.5t1.5 40q-65 47 -66 47q-26 -57 -43.5 -90.5
t-44.5 -72.5t-60.5 -68t-78.5 -55q-2 -4 -8.5 -21t-9 -25t-7 -22.5t-6 -28.5t-1.5 -29q0 -19 5 -40.5t15.5 -53.5t11.5 -34q43 -12 117 -18.5t238 -12.5q50 66 71 138.5t21 208.5z" />
    <glyph glyph-name="uniF175" unicode="&#xf175;" 
d="M512 -67q117 0 218 56.5t162 154t67 213.5v-6l-2 -5v4l-1 -3v-3l-2 -5l-1 -4v-3l-1 -2v6v3l-2 -2l-2 -6v-3l-1 -3l-1 -6v-5v-5v-6v-3v-4v-3v-3l-1 -3l-1 -6l-1 -5l-1 -3v-3l-2 -6l-2 -3l-1 -3l-2 -3l-2 -4l1 5v6l1 2l-1 5v3l-2 2l1 7l-2 -5l-1 -6l-1 -2l-2 -5v-3l-2 -3
v-5v-3l-1 -5l-1 -5v-5v-3l-1 -7l-1 -3l-2 -5l-1 -5l-2 -5l-2 -4v5l1 3l1 5l1 5l1 3l1 3l1 6l1 5v5l1 4v4l1 3l2 5l1 4l1 2l1 6l1 5v5l1 7l1 5v5l1 5l-1 6l-1 -5l-2 -3l-1 -3l-1 4l-1 -2l2 8v6v6q-1 1 0 3l-2 4l-1 4l-1 3v3v5l-1 4l-1 3v-4v-3l-2 -2v3l-2 -3l-1 -2l-1 3
l-1 -3l-2 -2v-3l-1 -3l-1 -3l-1 -3l-2 -2l-2 -4l-1 -3l-3 -5l-1 -2l-2 -3l-1 -3l-1 -3l-2 -2l-1 -3l-1 -3v-3l-2 -9v-3l-2 -4l-1 -3v-3l-1 -5l-3 -4l-1 -5l-3 -2l-2 -4l-2 -1l-1 3v5l1 5v4v4l-1 3l-1 4l1 4v3v3v4l-1 7v5v4l-1 5l1 4v5l-1 6l1 6v6v3l1 4l-3 -5v-3l-4 -4l-4 4
l-1 3l1 4l2 4l-3 -1l-2 1l-1 4l1 3l-2 -2l-4 4v3v3l-3 4l-4 -1l-4 -1h-4l-4 -1h-3l-4 2l-4 1l-3 1h-3l-3 3v2l-2 6l-4 -2l-3 -4l-3 2l-4 2l-3 5l-4 2h-2l-2 7l-1 4l-2 4l-2 2h-2l-2 1v-3h-3l1 -4h-3l3 -4q1 -2 1 -3l1 -6l4 -2l2 -3l1 -8l2 -5l2 -2l-1 2l1 4l2 -5v-4l2 -5
l5 2l4 2l3 5l2 5l3 3l1 3l1 -6v-6l1 -3l2 -3l6 -1l1 -4l2 -4v-5l-2 -6l-2 -5h-2l-1 -4l-1 -2l1 -4l-4 -1l-2 -2l-2 -4l-3 -2l-2 -5l-5 -2l-5 -1l-1 -2v-4l-3 -2l-5 -2l-6 -3l-1 -2l-3 -2l-4 -3l-5 -1h-4l-4 -3l-2 -2h-3l-1 6v4v6l-2 3l2 2v4l-1 5l-2 3l-3 5l-2 9l-3 3l-2 2
l-3 5l-1 7l1 3l-2 3v3l-1 4l-3 2l-2 2l-2 5l-2 4l-1 3l-1 3l-1 3l-3 4l-1 4h-3v3v6l-1 -5l-2 -7l-4 5l-2 5l-2 3v-3l2 -4l3 -3v-3l3 -5v-5l3 -6l1 -2l2 -5l1 -2v-4v-5l4 -2l3 -4v-3v-5l2 -5l-1 -5l2 -5l2 -3l3 -4l2 -7v-6l3 -3l3 -2l3 -4l1 -2l3 -3l1 -4l3 -5l-3 -5l5 -7
l3 -1l4 3h4l3 2l5 1h2l3 1h7l2 3l1 -3l-1 -5l-2 -4v-5l-2 -2l-3 -5l-2 -3l-4 -9l-2 -4l-5 -7l-4 -6l-7 -6l-2 -2l-3 -2l-6 -6l-4 -4l-3 -3l-5 -7l-3 -3l-3 -2l-3 -3l-2 -3l-1 -3l-3 -3l-4 -6l-1 -3l1 -3v-4l-2 -4l-1 -3v-6v-4l1 -5l-2 -2l-1 -5l-2 -4l-1 -3l-1 -4l-1 -2
l-3 -4l-3 -3l-5 -4l-3 -2l-5 -2l-4 -3l-2 -3l-5 -3l-2 -1l-3 -4q-1 -3 0 -3l-1 -3l-1 -4l-2 -5l-1 -2l-3 -4l-3 -1l-4 -1l-3 -3l-3 -4v-2l-2 -3l-2 -4l-4 -2l-4 -4l-2 -1l-4 -5l-3 -3l-9 -6l-3 -2l-4 -2l-4 -2h-4l-5 1l-4 -2h-4l-4 -1l-3 3v5l3 4v5v6l-1 4l-2 4l-1 3v5l1 3
l1 3l-1 4l1 6v8l-2 5l-1 6l-3 5l1 6l1 7l2 3l2 6l4 5l2 2l3 4v7l-1 5l-1 3l2 4l-1 3l1 4l-3 4l1 2l-2 2l-1 6l-1 3l-3 3l-2 2l-2 2l-2 5l-2 5l-1 3l3 5l2 3l-2 3l2 2l2 3l1 7l-1 3v3l-4 3l-4 -1h-4l-7 -1l-4 4l-2 5l-2 2l-4 3l-4 -1l-3 -1l-6 -1l-3 -1l-3 -1l-3 -3h-3l-5 -3
l-6 1l-4 2l-3 -1h-7l-6 -2l-4 -3l-6 2l-6 4l-3 4l-3 2l-2 2l-3 2l-3 2l-4 3l-1 3l-2 5l-1 3l-1 3l-3 2l-3 2l-1 4l-4 3l-1 2l-5 2l-2 3v6l-2 4l-1 3l-2 2l3 3l2 3v5l1 4l2 6l-1 7l-2 3l2 5l-2 3l-2 4l1 3l1 4l2 5l2 4l2 5l3 4l3 8l2 3l5 2l4 9l5 1l5 4l3 4l4 7v4l-1 4l2 3
l2 5l2 4l2 2l3 1l4 3l5 6v3l3 6l4 -2l3 -2l3 1l4 -1l2 2l1 -2l3 -1l5 1l3 4l3 1l3 3h3l4 2l3 1l4 1l4 1l2 -1l5 -1l2 1l5 2h4l3 -2l5 1l3 2l3 1l1 -2l2 -2h3l-1 -3l-2 -3l4 -3v-5l-5 -4l1 -4l2 -2l3 -1l5 -4h6h5l6 -2l1 -5l2 -4h4l6 -3l3 -1l3 -4l4 -1l2 3l2 3l-2 4v4l1 2
l3 3l5 2l5 -2l2 -3l5 -1l4 -1l3 -3l4 -1h4l5 -1l4 -1l4 -2l3 3l6 2l2 -1l3 -3l4 2h4l3 4l1 4v4l1 4l2 3v5v6v6v4h-2h-3l-5 -3l-8 -1l-2 3l-3 1l-4 -1l-3 -2h-4l-1 3l-3 1l-5 -1l3 2h-4v3l-1 4l-4 3l1 3v6l-4 1l1 5l3 2h4h3h3l3 4h-3l-1 2l4 1l5 -1l3 4l4 2l4 2l4 -1h3l2 -2
l3 1l1 -3l5 -1l2 -1l3 -1l4 1l4 -1l4 3l2 2l-2 5l-1 3l-3 3l-3 2l-2 2l-3 2l-2 2l-4 3l-4 2l-2 4l1 1v4l1 2l-1 3l2 4l1 3l-4 -1l-4 -2l-1 -2l-4 -2l-2 2l1 -2l-1 -3l-4 1l2 -3l2 -4l-1 6l1 -2l4 -3h4l-2 -3l-3 -2l-5 -3l-2 2v3l-4 2l1 3l-2 3l-4 2l-3 2h3l-4 1l-2 -4l-2 -3
l-2 -3l1 -4l-2 -2l-3 -2l2 -6l-1 -3l-2 -4v-3l2 -4l3 -4l2 -4l-2 -2h-3l-2 -3l-2 -1l-4 2l-5 2h-3l-3 -5l1 -3l-2 2l-3 2l-2 -4l2 -4l2 -2v-3l-1 3l-2 -4l3 -2l5 -3v-3l-4 -2l2 -2h-2l2 -6l-4 2v-3l-1 3l-4 2l-2 4v4l3 2l2 -2l-3 2l-4 2l-1 3l-3 4l-1 2l-2 3l-2 2l-1 4v3
l1 4l-3 2l-4 4l-3 2l-3 2l-2 3l-4 1l-4 2v4l-3 3l-1 3l-3 -1h-3v4l-2 2l-3 -3l-1 -3v-4l1 -3l2 -1l2 -2l5 -6v-2l2 -3l3 -2l4 -1l1 -3l4 -2l4 -2l3 -3l3 -2v-4l-3 4l-5 1l-1 -5l3 -4v-3l-2 -5l-2 -3l-2 -2l-1 4l1 2l1 5l-1 5l-2 3l-4 2l-3 3l-4 4h-4l-4 3l-3 4l-2 2l-2 3
l-3 2l-1 3l-2 5l-3 1l-4 1l-3 -4h-3l-3 -3l-2 -3l-4 1l-3 2l-2 -1l-4 2l-2 -3l-2 -4v-4l-1 -5l-3 -2l-4 -1l-3 -2l-3 -6l-2 -4l1 -5v-3l-1 -2l-2 -3v-3l-6 -4l-1 -2l-3 1h-3l-5 -1l-4 -2l-3 -3h-4l-2 2l-1 4l-2 2l-3 1l-4 -2l-3 2l-3 -2l2 4v5l-2 2v3l-1 4l1 4l2 4l1 3l1 7
l-2 4v3l-1 5l3 1l2 2l5 1l4 -1h5l5 -1l4 1l3 -2l4 1l4 -1l3 5l1 5l-1 3l1 4l3 -4l-2 4l-2 2v3l-2 2l-3 2v4l-2 3l-5 1l-4 1v3l-2 3h3l4 2l5 -2l4 2l-2 6l3 -1l3 -1h5l-1 3l4 1l4 5l2 3l2 3h4l2 3v5l2 5l3 2l5 1h3l3 2l1 -2l1 2l4 2l3 -2l-5 2v3l-1 4l-1 4l-2 2v4v5l3 2l2 -2
l-1 3l4 -2l3 -2l-3 -2l1 -3l-3 -5l2 -6h2l4 -1l-1 -2l3 -1l3 3h5l3 -4l2 -1l3 4l4 1l3 3l2 2h3l5 -2l2 -1l4 2l1 3l1 3l-1 -4l2 3l-1 4l-2 5l1 5v2l2 2l6 -3l2 -2l1 4l-1 4v4l-4 1l-2 7l4 2l3 2l4 -1h6l3 4l-3 4h-4l-4 -1l-4 -1l-4 -2l-2 -1h-3l-3 4l-2 1h-4l-1 7v3l-2 5
l-2 2v5l3 2l2 4v4l1 2l2 3v5l-3 1l-3 1h-4l-4 -1v-3l2 -5v-5v-3l-2 -3l-3 -2l-1 -3l-2 -2l-1 -3v-3l1 -6l1 -5l4 -2l4 -4v-2l-1 -3l-4 1l-3 -1l4 -1l3 -2l-4 -3v-4l1 -2v-3l-1 -3l1 -3l-1 -4l-1 -3l-5 1l-1 -5h-5l-2 3v2l1 4l-3 1l-3 4l-2 4v4l-2 3v4l-3 4l-1 2l-1 -3v-4
l-3 1l-2 2l2 -5l-3 -4l-2 -2l-4 -2l-3 3l-5 2v4l4 -2l-2 5l-2 -1l-2 3l3 2v4l2 2l-3 -2l-1 4l-2 2h5h2l2 2h-4h-5l-1 2l2 3l-2 3h3l4 1l-3 3l4 -1l2 2l-4 1l3 1h4l-2 1l3 4l3 -3l3 4l2 4l-2 -3l-3 -3l-2 3l2 3l2 4l2 3l3 2v4l1 3l-2 2l2 4q0 3 2 3l3 2l-3 2l1 4l-1 4l4 -3
l-2 3l3 1l-4 1l2 4l1 4l4 -1l-1 4l3 -1l2 3l-1 3l5 -1l2 2l1 3l2 3l1 -6l2 5l2 -3l-1 5l4 -1l1 -4l1 3l4 -1l3 -2v-4h-4l3 -2h4l3 2l2 -2l2 -2l3 -3l1 3l4 -1l7 -3l5 -3l3 -2l3 -2l4 -2l2 -1l2 -2l2 -5l-1 -6h-3h-6h-4l-3 2l-2 1l-4 1l-4 2l2 -3l3 -2l3 -1l4 -3l1 -3l1 -4
l3 -2v-4l5 -2l3 -1l4 -2l1 3l-3 2l-5 2v6l1 -3l5 -3l4 -2l2 3l-5 4l-1 4l1 3l3 4l4 -1l4 -3l-2 3l-2 5l-4 2l-1 3l-2 6l-3 2l-2 3l2 -2l6 -1l2 -2l1 -3v-3l2 -2l3 -3l3 3l-1 2l1 4l1 4l1 2l3 1l-2 2l3 2l2 -5l3 -1v4l4 1l1 3l4 -1l1 -3l1 5l-3 3l-4 3v3l2 -1h6l3 -2l3 -1
l4 -2l4 -1l3 -3l3 -2l-3 4l-1 3l-6 2l-4 2l-2 2l-3 4l-2 2l-3 3l-3 3l-2 5l-3 3l-2 2l-3 4l-2 2l3 2h3l4 -4l2 -3l2 -3l2 -2l2 -1l3 -2l4 -3l2 -3l3 -2l3 -3l2 -2l2 -2l4 -4l3 -1l1 -2l5 -5l1 -3l3 -5l3 -4h-4l-4 -1l4 -1l5 -1l2 -1v2l-2 5l-1 3l-2 3l-2 3l-3 3l-3 1l-1 4v3
l3 -3l2 -1l4 -3l2 -2l2 -2l-2 2l-3 4l-3 4l-3 1q-1 0 -3 1q-2 2 -3 2v-4l-4 4l-3 2l-4 4l-2 3l-3 2l-6 4l-2 3l-2 2l-2 4l-2 2l-3 3l2 -2l3 -2l3 -4l3 -1l2 -3l2 -1h4l4 -1l-2 1l-4 1l-6 3l-1 3l3 -2l-2 4l-3 3l4 -2l4 -1l3 -2l5 -2l3 -4l3 -3l3 -2l-2 2l3 -2l3 -2l4 -3
l3 -1h5l-3 1l-4 1l-2 2l-4 3l-2 2l-6 4l-3 2l-4 4h-2l-3 2l-4 2l-3 1l-2 2l-4 3l-3 3l1 4l3 -1l3 -1l-3 1l-3 4l-4 2l-4 2l-4 2l-1 3l-3 3l-2 3l-3 4l-4 4l6 -3l-2 3l-3 2l4 -2l-3 2l-4 2l-4 3l-4 2l-3 1l-4 3l-3 2l-2 2l3 -2l4 -2l2 -1l5 -1l4 -2l3 -1l-6 3l-3 3l4 -1l5 -2
l5 -2l3 -2l4 -2l5 -3l3 -2l3 -1l4 -3l4 -2l2 -2l4 -3l3 -3l4 -3l2 -1l5 -3l-2 2l-4 2l-3 3l-4 3l-3 3l4 -1l-5 3l3 -2l4 -2l-2 2h4h4l-3 2l-3 1l-4 2l-3 3l5 -2q-89 41 -188 41q-127 0 -235 -67l-3 -2l-3 -2l-3 -2l3 2l-1 -4l-2 -1l-2 -4l-2 -3l-2 -4l-2 -2l-3 -1l-2 -1
l-3 -3v-3l3 1l-1 -3l-2 -2l2 2l-3 -3l-3 -3l-3 -3l-2 -4l-3 -2l3 2l2 3l3 2l2 2l3 3l3 2l2 3h3l4 2l2 3l-2 -2h-4l3 2l4 1l2 1l-3 -4l-2 -3l-3 -2l1 -2l-3 -4l4 1l2 -1l-1 -3l3 4l2 2l3 1l-1 -3l-2 -3l-4 -2l-1 -2l-2 -4l-3 -2l-2 -1l3 3h2l3 2l2 3l2 3l3 1l3 1l4 3l2 2l2 2
l-2 -1l2 2l3 1l2 2l2 5l3 4l3 2l3 2l2 2l4 3l4 2l-2 -2l3 3l2 1l4 2l-4 -4l-3 -4l-3 -2l-1 -2l-3 -3l-2 -2l-3 -2l-4 -2v-3l-3 -3l-1 -3l-3 -2l-3 -4l3 3l3 3l4 2l-2 -4l-3 -4l-3 -2l-2 -2l-4 -6l3 1l2 2l2 2l4 3l2 2l2 1l3 2l3 3l2 3l3 2l1 -3v-3l-2 -3l-3 -4l-2 -1
q-3 1 -3 -2l-3 -2l-2 -6l-3 -2l-3 -1l-3 -2l-3 -3l-1 3l3 3h-3l-1 -5l-3 1l-2 -2l-2 -2l-3 -1q-2 -2 -3 -2h-3l2 5l-3 1v-4l-1 -4l2 -1l-3 -3l-2 -2l-4 -3l-4 -2l-2 1l-3 -3l-2 4v3v-5l-3 -2l3 1l-2 -3l-1 -3l-3 -1v4l-1 -3l-3 -3l-4 -1l-3 -2l-2 -2l-3 -3l-2 -2l-4 -3
l-2 -2l-3 -4l-3 -3l-3 -4l-2 -4l-3 -4l-3 -2l4 2l2 3l1 -3l-2 -2l-2 -5l-2 -3l-4 -4l2 1l4 1l1 -2l2 -4l-1 -4v-3l2 -4v-4h4l2 -2l-2 -4l-2 -4l-3 -6l-2 -2l-1 -4v-4v-5l-2 -4l-1 -2h3l3 3v-4v3l2 4l3 4v3l2 3l1 3l1 3l2 4l2 5l2 1l3 2l4 2l3 2l3 4l2 3l1 2l2 3l1 2l1 4l2 3
l-1 3l1 5l5 3l3 2l3 5l1 3l2 3l2 3l2 2l2 4l2 4l3 3l2 -1l2 -3h3h3v-4l-1 -4l-1 -4h4l-2 -3l3 2l-1 -3l-3 -2l-3 -4l-3 1l3 -2l-1 -3l-2 -3v-3v-5l-2 -2l1 2l-1 -4l2 2l3 2l3 2l3 1l3 4l2 3l2 2l3 4l3 1l-2 -2l-1 -4l-1 -4v-3l-2 -2l-2 -2v-3h2l-3 -3h3v-4l-2 -1l2 -4l-3 -3
l-3 -1l-1 -4l2 -3l2 -3l-3 -2l3 1l2 -2l1 -3l3 1l1 -3l-4 -1l-2 -2l-4 -1h4l-3 -1l-4 -1l-2 -1v-2h3l3 2l2 2l2 1l3 -2l-2 -3h4l2 -3l-2 -3l-3 -1l2 -2l-1 -4l-4 -2l-3 -2h-3l-3 -1l-2 -2l-2 -3l-3 -1l-3 -2h-3l-3 1h-3h-4l-2 1h-4l-2 1l-3 -2l-2 -2l-2 -2l-1 -3h-3l-3 -3
l-3 -2l-4 -6l-3 -2l-2 -3l-2 -2l-3 -2l4 2l3 4l2 1l3 3l3 3l3 2l4 2l3 1h4l2 -2v-5l-4 -1h-3l-3 -1l3 -3l4 1l-4 -5v-3v-3l2 -4l4 -2l2 -1h3l2 -3l-3 -1l-3 -2h-4l-2 -2l-3 -1l-3 -4l-3 -2l-2 1l1 6l2 2l3 2l4 2h3l-3 1l-3 -1l2 2l-4 -2h-2h-5l1 -3l-3 -3h-2l-3 -1l1 3
l-2 -3l-4 -3l-2 -2l-2 -2l-1 -2l-1 -4l-1 -3v-4l2 3l-1 -3l-3 -1l-3 -2h-3l-5 -2l-2 -2l-2 -5l-1 -2l-2 -5l-3 -1l1 5l-2 -4v-6l-2 -3l-2 -4l-1 -4l1 2v5v5v4l2 3l-2 -4l-1 -5l-3 2l2 -3v-4v-3l-1 -3l1 -3v-3l-3 -2l1 -4l1 3l-2 -5h-3l-2 -4l-3 -3l-2 -2l-3 -4l-2 -3l-2 -4
l-3 -2l-2 3l-1 -3l-2 -6l-1 -6v-4l1 -5l1 -5v-5l1 -5v-3v-5l-1 -3v-4l-3 2l-2 4v3l-1 4l-2 4l1 4v8l-1 3l-2 5h-2l-3 -1l-2 4q0 1 -2 1l-3 -1l-1 3l-2 -2l-2 -2l-1 -2v-5v-3v3l-3 -1l-3 1v5l-2 -3l-4 2l-2 -2v4l-1 -3v-3l-3 -4l-3 -2v-4l-1 -3l-1 -4v-6v-3l1 2v-3l-1 -6v-3
v-4v-6v-5v-4l1 -7l1 -3l1 -4l2 -3l2 -7l2 -3l3 -1l2 3l3 1v-3l2 5v5l1 7v4l4 2l3 1l3 1v-6l-2 -6l1 -4v-4v-6l-1 5l-2 -4l2 -5v-3v-4v-4l2 -1h3l2 3l3 -3h3l2 -2l2 -2l1 -6v-2v-6v-5l1 -3l1 -5v-3l2 -3l2 -3l2 -3l3 -1h3l3 2h2l5 -3l3 -3v-3l1 5l1 4v3l1 4l1 4l3 -2v3h2l3 5
l3 3l2 -4l-2 -4l1 -3l1 -3l-1 -3l1 -4l1 4l-1 6l4 3l-1 3l2 3l1 -4l3 -2l3 -2v-3l3 -1l4 1l3 -1l3 -2l2 2l3 1l3 2l3 -1l-3 -3l2 -2l3 -1l2 -1l3 -4l-1 -3l3 1l3 -1l2 -3l2 -2l3 -4l2 -2l3 -2l3 -2v-3l3 2h3l3 1l3 -2v-3l3 2l4 -2l4 -6l2 -3l1 3l1 -3l1 -3l1 -3l2 -2l3 -5
l2 -2l1 -3l-2 -3l-2 -3l-2 -6l2 -3l2 4l2 1v3l4 -1h3l2 -4v-3l-4 -1l-3 -1l3 -1l2 -3v-6v4v6l3 3l1 3l2 1l3 -2l3 -2h3l2 -2l3 -1l2 -4l1 -3l2 4l4 -2h4l3 -1h3h3l3 -2l3 -2l3 -3l3 -2l3 -3l2 -2l3 1l4 -3l1 -3l1 -3l2 -5l1 -2v-4l-1 -4l-3 -7l-2 -3l-1 -6l-1 -3l-2 1l-1 -4
l1 -3l1 -3l3 -7v-4l1 -4l1 -2l-1 -3l3 -6l-2 -3v-4v-3l1 -3l-2 -4h-3h-2l-3 -1l-2 -4l-2 -2l-3 -4l-1 -2l1 -5l2 -4l2 -3l1 -3l1 -7l1 -4v-5l-1 3v3l-3 1l1 -2l1 -3l1 -4l1 -2l2 -4v-4l1 -3h-3h-3l-3 1l-4 1l-3 3l2 -2l3 -3l5 -2l2 -4l4 -2l2 -3l1 -3l1 -3l-2 -2h-4l1 -2
l3 -3l2 -3l-2 -1h-3l3 -2l2 -2h3l3 -2l1 -4l3 -3l3 -2l3 -2l1 -4l3 -1l3 -1l3 -1l2 -2l3 -2l3 -3l2 -2l3 -2l2 -2l3 -1q55 -15 112 -15zM1024 381.5q0 -104.5 -40.5 -199t-109 -163t-163.5 -109.5t-199 -41t-199 41t-163.5 109.5t-109 163t-40.5 199t40.5 199t109 163
t163.5 109t199 40.5t199 -40.5t163.5 -109t109 -163t40.5 -199z" />
    <glyph glyph-name="uniF176" unicode="&#xf176;" 
d="M736 352q-94 -94 -188 -100t-164 68l-32 32l64 64l32 -32q96 -96 192 0q9 10 95 94.5t98 97.5q94 96 0 192q-28 30 -69.5 35t-73.5 -6t-50 -29l-128 -128l-160 -32l192 192q94 94 188 100t164 -68q74 -70 68 -164t-100 -188zM96 352l38 38l56 56l34 34q94 94 188 100
t164 -68l32 -32l-61 -64l-35 32q-96 96 -192 0q-9 -10 -95 -94.5t-98 -97.5q-94 -96 0 -192q28 -30 69.5 -35t73.5 6t50 29l128 128l160 32l-192 -192q-94 -94 -188 -100t-164 68q-74 70 -68 164t100 188z" />
    <glyph glyph-name="uniF177" unicode="&#xf177;" 
d="M512 -64q-122 0 -225 60t-163 163t-60 225t60 225t163 163t225 60t225 -60t163 -163t60 -225t-60 -225t-163 -163t-225 -60zM256 320h192v-192h128v192h192v128h-192v192h-128v-192h-192v-128z" />
    <glyph glyph-name="uniF178" unicode="&#xf178;" 
d="M512 -64q-122 0 -225 60t-163 163t-60 225t60 225t163 163t225 60t225 -60t163 -163t60 -225t-60 -225t-163 -163t-225 -60zM320 448v-128h384v128h-384z" />
    <glyph glyph-name="uniF179" unicode="&#xf179;" 
d="M512 736q-47 0 -77 -32t-30 -81v-175h214v177q0 49 -30 80t-77 31zM725 616v-168q44 0 75.5 -31.5t31.5 -77.5v-275q0 -26 -18.5 -45t-45.5 -19h-512q-26 0 -45 18.5t-19 45.5v275q0 46 31.5 77.5t75.5 31.5v170q0 98 58.5 156t155.5 58q95 0 153.5 -59t58.5 -157z" />
    <glyph glyph-name="uniF17A" unicode="&#xf17a;" 
d="M544 640q-43 0 -69.5 -26.5t-26.5 -69.5v-160h192v160q0 43 -26.5 69.5t-69.5 26.5zM736 544v-160q40 0 68 -26.5t28 -65.5v-292h-576v292q0 39 28 65.5t68 26.5v160q0 86 51.5 139t137.5 53t140.5 -53t54.5 -139z" />
    <glyph glyph-name="uniF17B" unicode="&#xf17b;" 
d="M192 192v64q0 14 -28 55t-49 41v64q21 0 49 41.5t28 54.5v64q0 67 18.5 97.5t45.5 30.5h90v-64q-45 -19 -45 -31v-97q0 -28 -27.5 -71.5t-49.5 -56.5q22 -13 49.5 -56.5t27.5 -71.5v-96q0 -6 11 -14t22 -13l12 -5v-64h-90q-27 0 -45.5 30.5t-18.5 97.5zM768 192
q0 -67 -18.5 -97.5t-45.5 -30.5h-90v64q45 19 45 32v96q0 28 27.5 71.5t49.5 56.5q-22 13 -49.5 56.5t-27.5 71.5v97q0 5 -11 13t-22 13l-12 5v64h90q27 0 45.5 -30.5t18.5 -97.5v-64q0 -13 28 -54.5t49 -41.5v-64q-21 0 -49 -41t-28 -55v-64z" />
    <glyph glyph-name="uniF17C" unicode="&#xf17c;" 
d="M192 576v111q-29 -17 -46.5 -46.5t-17.5 -64.5h64zM896 11v70q29 17 46.5 46.5t17.5 64.5h-576v-128h448q34 0 64 17v-70zM192 192v320h-128v64q0 62 35.5 111.5t92.5 69.5v11h512q80 0 136 -56t56 -136v-320h-64v320q0 53 -37.5 90.5t-90.5 37.5h-448v-512
q0 -35 17.5 -64.5t46.5 -46.5v-70q-57 20 -92.5 69.5t-35.5 111.5zM320 256h704v-64q0 -80 -56 -136t-136 -56h-512v256z" />
    <glyph glyph-name="uniF17D" unicode="&#xf17d;" 
d="M703 704h-510q-54 0 -91.5 -37.5t-37.5 -90.5v-339q28 23 53.5 51.5t63.5 74t75 85.5q43 -46 110 -142.5t112 -169.5l46 -74q212 27 302 27q6 19 6 39v448q0 53 -37.5 90.5t-91.5 37.5zM703 -64h-510q-81 0 -137 56t-56 136v448q0 80 56.5 136t136.5 56h510q81 0 137 -56
t56 -136v-448q0 -80 -56.5 -136t-136.5 -56zM1024 704v-448q0 -62 -35.5 -111.5t-92.5 -69.5v70q29 17 46.5 46.5t17.5 64.5v448q0 53 -37.5 90.5t-90.5 37.5h-512q-35 0 -64.5 -17.5t-46.5 -46.5h-70q20 57 69.5 92.5t111.5 35.5h512q79 0 135.5 -56t56.5 -136zM512 480
q0 96 96 96t96 -96t-96 -96t-96 96zM750 314q25 -26 34.5 -41t20 -35.5t27.5 -45.5v-130h-308q-15 24 -38 60q188 125 264 192z" />
    <glyph glyph-name="uniF17E" unicode="&#xf17e;" 
d="M64 576q0 48 8 56t56 8h256q48 0 56 -8t8 -56v-64q0 -48 -8 -56t-56 -8h-256q-48 0 -56 8t-8 56v64zM576 576q0 48 8 56t56 8h256q48 0 56 -8t8 -56v-64q0 -48 -8 -56t-56 -8h-256q-48 0 -56 8t-8 56v64zM64 256q0 48 8 56t56 8h256q48 0 56 -8t8 -56v-64q0 -48 -8 -56
t-56 -8h-256q-48 0 -56 8t-8 56v64zM576 256q0 48 8 56t56 8h256q48 0 56 -8t8 -56v-64q0 -48 -8 -56t-56 -8h-256q-48 0 -56 8t-8 56v64z" />
    <glyph glyph-name="uniF17F" unicode="&#xf17f;" 
d="M256 384q0 -53 -37.5 -90.5t-90.5 -37.5t-90.5 37.5t-37.5 90.5t37.5 90.5t90.5 37.5t90.5 -37.5t37.5 -90.5zM640 384q0 -53 -37.5 -90.5t-90.5 -37.5t-90.5 37.5t-37.5 90.5t37.5 90.5t90.5 37.5t90.5 -37.5t37.5 -90.5zM1024 384q0 -53 -37.5 -90.5t-90.5 -37.5
t-90.5 37.5t-37.5 90.5t37.5 90.5t90.5 37.5t90.5 -37.5t37.5 -90.5z" />
    <glyph glyph-name="uniF180" unicode="&#xf180;" 
d="M576 576h320v-320h-320v128h-192v-321h192v129h320v-320h-320v128h-256v576h-128v320h320v-320h-128v-128h192v128zM832 512h-192v-192h192v192zM448 832h-192v-192h192v192zM832 128h-192v-192h192v192z" />
    <glyph glyph-name="uniF181" unicode="&#xf181;" 
d="M704 768v-128h128zM896 576h-256v256h-320q-53 0 -90.5 -37.5t-37.5 -90.5v-640q0 -53 37.5 -90.5t90.5 -37.5h448q53 0 90.5 37.5t37.5 90.5v512zM320 896h352l288 -288v-544q0 -80 -56 -136t-136 -56h-448q-80 0 -136 56t-56 136v640q0 80 56 136t136 56z" />
    <glyph glyph-name="uniF182" unicode="&#xf182;" 
d="M704 768v-128h128zM896 576h-256v256h-320q-53 0 -90.5 -37.5t-37.5 -90.5v-640q0 -53 37.5 -90.5t90.5 -37.5h448q53 0 90.5 37.5t37.5 90.5v512zM320 896h352l288 -288v-544q0 -80 -56 -136t-136 -56h-448q-80 0 -136 56t-56 136v640q0 80 56 136t136 56zM320 237v83
q112 2 184 -70.5t72 -185.5h-83q7 88 -39.5 133t-133.5 40zM320 480q416 0 416 -416h-90q14 167 -70 249.5t-256 76.5v90zM320 105.5q0 41.5 41.5 41.5t41.5 -41.5t-41.5 -41.5t-41.5 41.5z" />
    <glyph glyph-name="uniF183" unicode="&#xf183;" 
d="M704 768v-128h128zM896 576h-256v256h-320q-53 0 -90.5 -37.5t-37.5 -90.5v-640q0 -53 37.5 -90.5t90.5 -37.5h448q53 0 90.5 37.5t37.5 90.5v512zM320 896h352l288 -288v-544q0 -80 -56 -136t-136 -56h-448q-80 0 -136 56t-56 136v640q0 80 56 136t136 56zM320 320v64
h448v-64h-448zM320 192v64h448v-64h-448zM320 64v64h448v-64h-448z" />
    <glyph glyph-name="uniF184" unicode="&#xf184;" 
d="M704 768v-128h128zM896 576h-256v256h-320q-53 0 -90.5 -37.5t-37.5 -90.5v-640q0 -53 37.5 -90.5t90.5 -37.5h448q53 0 90.5 37.5t37.5 90.5v512zM320 896h352l288 -288v-544q0 -80 -56 -136t-136 -56h-448q-80 0 -136 56t-56 136v640q0 80 56 136t136 56zM320 64v64
h448v-64h-448zM320 192v64h448v-64h-448zM640 320v64h128v-64h-128zM320 512h256v-192h-256v192zM384 448v-64h128v64h-128z" />
    <glyph glyph-name="uniF185" unicode="&#xf185;" 
d="M448 640h-192q-55 0 -91.5 -37t-36.5 -91v-454q0 -52 36.5 -87t91.5 -35h320q55 0 91.5 35t36.5 87v326h-256v256v0zM512 576v0v-128h128zM256 704h224l288 -288v-352q0 -81 -55 -136.5t-137 -55.5h-320q-82 0 -137 55.5t-55 136.5v448q0 81 55 136.5t137 55.5zM896 250
q0 -52 -36.5 -87t-91.5 -35v-64q82 0 137 55.5t55 136.5v352l-288 288h-224q-82 0 -137 -55.5t-55 -136.5h64q0 54 36.5 91t91.5 37h192v-256h256v-326zM704 768l128 -128h-128v128zM256 192v64h320v-64h-320zM256 64v64h320v-64h-320z" />
    <glyph glyph-name="uniF186" unicode="&#xf186;" 
d="M474 613q-151 -75 -151 -176q65 -7 107 -53q41 -47 41 -106q0 -64 -41 -107q-41 -44 -102 -44q-69 0 -118 57q-50 58 -50 138q0 243 266 381zM864 613q-150 -75 -150 -176q64 -7 106 -53t42 -106q0 -63 -41 -107t-102 -44q-68 0 -119 57q-50 58 -50 138q0 243 267 381z
" />
    <glyph glyph-name="uniF187" unicode="&#xf187;" 
d="M796 528l37 -81l63 257l63 -444l-382 59l178 62q-30 98 -116 168t-182 70q-76 0 -148 -45t-116.5 -118t-44.5 -150q0 -78 41.5 -150.5t110.5 -117.5t144 -45v-85q-106 0 -193.5 53.5t-137 144.5t-49.5 200q0 108 52.5 199.5t143 145t197.5 53.5q102 0 189.5 -49.5
t141.5 -133.5z" />
    <glyph glyph-name="uniF188" unicode="&#xf188;" 
d="M512 832q91 0 174 -35.5t143 -95.5t95.5 -143t35.5 -174t-35.5 -174t-95.5 -143t-143 -95.5t-174 -35.5t-174 35.5t-143 95.5t-95.5 143t-35.5 174t35.5 174t95.5 143t143 95.5t174 35.5zM584 384l133 133q15 15 15 36.5t-15 35.5q-14 15 -35.5 15t-36.5 -15l-133 -133
l-132 131q-15 15 -36 15t-36 -15q-15 -14 -15 -35.5t15 -36.5l132 -131l-133 -133q-15 -15 -15 -36t15 -36q14 -15 35.5 -15t36.5 15l133 133l133 -133q15 -15 36 -15t36 15t15 36t-15 36z" />
    <glyph glyph-name="uniF189" unicode="&#xf189;" 
d="M704 640l64 -64l-192 -192l192 -192l-64 -64l-192 192l-192 -192l-64 64l192 192l-192 192l64 64l192 -192z" />
    <glyph glyph-name="uniF18A" unicode="&#xf18a;" 
d="M831 896q80 0 136.5 -56t56.5 -136v-640q0 -80 -56.5 -136t-136.5 -56h-638q-80 0 -136.5 56t-56.5 136v640q0 79 56.5 135.5t136.5 56.5h638zM960 64v640q0 53 -37.5 90.5t-91.5 37.5h-638q-54 0 -91.5 -37.5t-37.5 -90.5v-640q0 -53 37.5 -90.5t91.5 -37.5h638
q54 0 91.5 37.5t37.5 90.5zM569 656q11 -13 0 -25l-206 -235q-12 -12 -26 -12h-18q-15 0 -26 12l-97 111q-10 12 0 25l39 43q4 5 10.5 5t10.5 -5l62 -70q5 -5 11 -5t10 5l170 194q12 12 22 0zM640 448v64h192v-64h-192zM640 320v64h192v-64h-192zM192 192v64h640v-64h-640z
M192 64v64h640v-64h-640z" />
    <glyph glyph-name="uniF18B" unicode="&#xf18b;" 
d="M0 703q0 81 56.5 137t136.5 56h638q81 0 137 -56.5t56 -136.5v-638q0 -81 -56.5 -137t-136.5 -56h-638q-81 0 -137 56.5t-56 136.5v638zM192 475v-91q113 0 216.5 -103.5t103.5 -216.5h91q0 112 -55 206.5t-149.5 149.5t-206.5 55zM832 64q0 130 -50.5 248.5
t-136.5 204.5t-204.5 136.5t-248.5 50.5v-91q102 0 202.5 -47t176.5 -123t123 -176.5t47 -202.5h91zM268 65q33 0 56.5 23.5t23.5 56.5t-23.5 56.5t-56.5 23.5t-56.5 -23.5t-23.5 -56.5t23.5 -56.5t56.5 -23.5z" />
    <glyph glyph-name="uniF18C" unicode="&#xf18c;" 
d="M979 -45l-38 -38q-19 -19 -45.5 -18.5t-45.5 19.5l-255 255q-84 -45 -179 -45q-149 0 -250.5 101.5t-101.5 250.5t101.5 250.5t250.5 101.5t250.5 -101.5t101.5 -250.5q0 -97 -45 -179l255 -255q19 -19 19 -46t-18 -45zM416 224q106 0 181 75t75 181t-75 181t-181 75
t-181 -75t-75 -181t75 -181t181 -75z" />
    <glyph glyph-name="uniF18D" unicode="&#xf18d;" 
d="M699 291l192 -192q5 -5 5 -12t-5 -12l-70 -69q-5 -5 -11.5 -5t-11.5 5l-192 192q-78 -50 -168 -50q-63 0 -120.5 25t-99 66.5t-66 99t-24.5 120.5t24.5 120.5t66 99t99 66t120.5 24.5t120.5 -24.5t99.5 -66t66.5 -99t24.5 -120.5q0 -91 -50 -168zM227 459q0 -88 62 -150
t149 -62q58 0 106.5 28.5t77 77.5t28.5 106q0 87 -62 149t-150 62q-87 0 -149 -62t-62 -149z" />
    <glyph glyph-name="uniF18E" unicode="&#xf18e;" 
d="M768 320v128q-9 4 -18 8.5t-30 11t-42.5 10t-52.5 3t-61 -7t-68 -22t-75.5 -40t-80.5 -64t-84 -91.5q15 76 51 143.5t82 115t99 84t105.5 57.5t97.5 30.5t78 6.5l-1 139l256 -256zM0 704h416q0 -33 -25.5 -63.5t-62.5 -47.5t-72 -17h-128v-448h640q0 35 17 72t47.5 62.5
t63.5 25.5v-288h-896v704z" />
    <glyph glyph-name="uniF18F" unicode="&#xf18f;" 
d="M640 320v128l-192 -160l-32 -24l-64 -48l-32 -24l96 128l159 191l-127 1v64h256v-256h-64zM128 703q0 81 56 137t136 56h448q80 0 136 -56.5t56 -136.5v-638q0 -81 -56 -137t-136 -56h-448q-80 0 -136 56.5t-56 136.5v638zM768 832h-448q-53 0 -90.5 -37.5t-37.5 -91.5
v-638q0 -54 37.5 -91.5t90.5 -37.5h448q53 0 90.5 37.5t37.5 91.5v638q0 54 -37.5 91.5t-90.5 37.5z" />
    <glyph glyph-name="uniF190" unicode="&#xf190;" 
d="M192 481.5q0 94.5 94.5 94.5t94.5 -94.5t-94.5 -94.5t-94.5 94.5zM448 673.5q0 94.5 94.5 94.5t94.5 -94.5t-94.5 -94.5t-94.5 94.5zM640 481.5q0 94.5 94.5 94.5t94.5 -94.5t-94.5 -94.5t-94.5 94.5zM512 -128q-104 0 -199 40.5t-163.5 109t-109 163.5t-40.5 199
t40.5 199t109 163.5t163.5 109t199 40.5t199 -40.5t163.5 -109t109 -163.5t40.5 -199t-40.5 -199t-109 -163.5t-163.5 -109t-199 -40.5zM512 833q-91 0 -174.5 -35.5t-143.5 -95.5t-95.5 -143.5t-35.5 -174.5t35.5 -174.5t95.5 -143.5t143.5 -95.5t174.5 -35.5t174.5 35.5
t143.5 95.5t95.5 143.5t35.5 174.5t-35.5 174.5t-95.5 143.5t-143.5 95.5t-174.5 35.5zM569 271q-10 0 -16 12q-4 9 -2 19t8 15l144 123q6 6 13.5 3.5t11.5 -11t2.5 -18.5t-8.5 -16l-143 -123q-5 -4 -10 -4zM512 64l-235 77q-6 3 -13.5 23t-7.5 28v256q0 10 32 10t32 -10
v-256l192 -64q6 -3 6.5 -19t-2 -31t-4.5 -14zM512 -128v784h64v-784q1 2 -15 2t-33 -1z" />
    <glyph glyph-name="uniF191" unicode="&#xf191;" 
d="M0 384q0 139 68.5 257t186.5 186.5t257 68.5t257 -68.5t186.5 -186.5t68.5 -257t-68.5 -257t-186.5 -186.5t-257 -68.5t-257 68.5t-186.5 186.5t-68.5 257zM199 704h345l288 -288v-345q61 62 94.5 142.5t33.5 170.5q0 185 -131.5 316.5t-316.5 131.5q-90 0 -170.5 -33.5
t-142.5 -94.5zM145 640q-42 -59 -62 -128h269l288 -288v-269q69 20 128 62v367h-256l3 256h-370zM512 -64q32 0 64 5v251h-256l3 256q-254 3 -255 -1q-4 -31 -4 -63q0 -185 131.5 -316.5t316.5 -131.5zM384 256h134l-134 134v-134zM576 582v-134h134z" />
    <glyph glyph-name="uniF192" unicode="&#xf192;" 
d="M512 896q139 0 257 -68.5t186.5 -186.5t68.5 -257t-68.5 -257t-186.5 -186.5t-257 -68.5t-257 68.5t-186.5 186.5t-68.5 257t68.5 257t186.5 186.5t257 68.5zM512 832q-185 0 -316.5 -131.5t-131.5 -316.5q0 -103 44 -193.5t121 -153.5q72 163 183 238q8 -3 26 -10.5
t27 -10.5t23.5 -6.5t26.5 -3.5q13 0 25.5 5t34 17t32.5 18q112 -75 189 -246q77 63 120.5 153t43.5 193q0 185 -131.5 316.5t-316.5 131.5zM513 703q80 0 136 -56t56 -135.5t-56 -136t-136 -56.5q-79 0 -135.5 56.5t-56.5 136t56.5 135.5t135.5 56z" />
    <glyph glyph-name="uniF193" unicode="&#xf193;" 
d="M512 896l145 -321l367 -46l-277 -239l81 -354l-316 192l-316 -192l81 354l-277 239l367 46z" />
    <glyph glyph-name="uniF194" unicode="&#xf194;" 
d="M896 768l64 -64l-608 -640l-224 256l64 64l160 -192z" />
    <glyph glyph-name="uniF195" unicode="&#xf195;" 
d="M1024 0h-1024v832h1024v-832zM64 512v-192h128v-64h-128v-192h256v128h64v-128h256v128h64v-128h256v192h-128v64h128v192h-128v64h128v192h-256v-128h-64v128h-256v-128h-64v128h-256v-192h128v-64h-128zM192 192v448h640v-448h-640zM256 576v-320h512v320h-512z" />
    <glyph glyph-name="uniF196" unicode="&#xf196;" 
d="M64 384h192v-448h-192v448zM192 637v-128h-64v128h-128l160 195l160 -194zM960 832h64v-576h-640v64h64v512h64v-512h192v512h64v-512h192v512z" />
    <glyph glyph-name="uniF197" unicode="&#xf197;" 
d="M448 384v448h192v-448h-64v-64h-64v64h-64zM128 512v320h64v-256h192v-64h-256zM896 832h64v-320h-256v64h192v256zM435 320l107 -109l111 109l51 -49l-109 -114l109 -106l-51 -51l-111 109l-107 -109l-51 51l109 106l-109 114z" />
    <glyph glyph-name="uniF198" unicode="&#xf198;" 
d="M768 448h192v-448h-192v448zM0 832h64v-512h192v512h64v-512h192v512h64v-512h64v-64h-640v576zM896 637v-128h-64v128h-128l160 195l160 -194z" />
    <glyph glyph-name="uniF199" unicode="&#xf199;" 
d="M320 640v-128h-64v128q0 79 56 135.5t135 56.5h65l64 64h128l64 -64h65q79 0 135 -56.5t56 -135.5v-576q0 -80 -56 -136t-136 -56h-384q-80 0 -136 56t-56 136v128h64v-128q0 -53 37.5 -90.5t90.5 -37.5h384q53 0 90.5 37.5t37.5 90.5v576h-640zM337 704v0h606
q-17 29 -46.5 46.5t-63.5 17.5h-92l-64 64h-75l-64 -64h-91q-34 0 -63.5 -17.5t-46.5 -46.5zM192 384h128v-64h-128v-128l-192 160l192 160v-128zM832 256h-448v192h448v-192z" />
    <glyph glyph-name="uniF19A" unicode="&#xf19a;" 
d="M832 128q0 -38 17 -66t47 -30q10 0 17.5 1.5t20 6.5t19.5 19.5t7 36.5q0 11 -9.5 28t-31.5 41.5t-38.5 41.5t-48.5 49v-128zM770 160v160h62q69 -66 130.5 -134.5t61.5 -89.5q0 -74 -45 -112.5t-115 -15.5q-14 5 -26 10.5t-21 13t-16 13.5t-12 17.5t-8.5 17.5t-5.5 21
t-3 21t-1.5 24.5t-0.5 25v28.5zM640 128v128q-32 -32 -48.5 -49t-38.5 -41.5t-31.5 -41.5t-9.5 -28q0 -22 7 -36.5t19.5 -19.5t20 -6.5t17.5 -1.5q30 2 47 30t17 66zM704 160q0 -37 -0.5 -54.5t-5.5 -44t-14.5 -40.5t-28.5 -29t-47 -24q-70 -23 -114 15.5t-44 112.5
q0 21 61.5 89.5t130.5 134.5h62v-160zM578 768v64l62 -32l96 -312l96 312l60 32v-64l-124 -384h64v-64h-64v-64h-64v64h-64v64h64zM64 320v192h448l64 -192h-512zM128 576h-64v256h448v-64h-384v-192zM384 64v-64h-320v256h64v-192h256z" />
    <glyph glyph-name="uniF19B" unicode="&#xf19b;" 
d="M704 320h256v-64h-256v-192h-64v192h-256v64h256v192h-256v64h256v192h64v-192h256v-64h-256v-192zM0 0v832h1024v-832h-1024zM384 768v-704h576v704h-576z" />
    <glyph glyph-name="uniF19C" unicode="&#xf19c;" 
d="M320 320v192h64v-192h256v192h64v-192h256v-64h-256v-192h-64v192h-256v-192h-64v192h-256v64h256zM0 0v832h1024v-832h-1024zM64 512v-448h896v448h-896z" />
    <glyph glyph-name="uniF19D" unicode="&#xf19d;" 
d="M320 576v192h64v-192h576v-64h-576v-448h-64v448h-256v64h256zM0 0v832h1024v-832h-1024zM64 768v-704h896v704h-896zM640 768h64v-192h-64v192zM64 320h256v-64h-256v64z" />
    <glyph glyph-name="uniF19E" unicode="&#xf19e;" 
d="M1024 0h-1024v832h1024v-832zM64 512v-192h128v-64h-128v-192h256v128h64v-128h256v128h64v-128h256v192h-128v64h128v192h-128v64h128v192h-256v-128h-64v128h-256v-128h-64v128h-256v-192h128v-64h-128zM256 576h256l256 -256v-64h-192zM192 192v448h640v-448h-640z
M256 576v-320h512v320h-512z" />
    <glyph glyph-name="uniF19F" unicode="&#xf19f;" 
d="M320 640v-128h-64v128q0 79 56 135.5t135 56.5h65l64 64h128l64 -64h65q79 0 135 -56.5t56 -135.5v-576q0 -80 -56 -136t-136 -56h-384q-80 0 -136 56t-56 136v128h64v-128q0 -53 37.5 -90.5t90.5 -37.5h384q53 0 90.5 37.5t37.5 90.5v576h-640zM337 704v0h606
q-17 29 -46.5 46.5t-63.5 17.5h-92l-64 64h-75l-64 -64h-91q-34 0 -63.5 -17.5t-46.5 -46.5zM640 384v128l192 -160l-192 -160v128h-128v64h128zM0 256v192h448v-192h-448z" />
    <glyph glyph-name="uniF1A0" unicode="&#xf1a0;" 
d="M384 256v-256h-64v256h-320v64h320v192h-320v64h320v256h64v-256h256v256h64v-256h320v-64h-320v-64h-64v64h-256v-192h192v-64h-192zM576 0h-576v832h1024v-384h-64v320h-896v-704h512v-64zM704 378l127 -127l128 128l59 -59l-128 -128l128 -128l-58 -58l-128 128
l-128 -128l-59 59l128 128l-127 127z" />
    <glyph glyph-name="uniF1A1" unicode="&#xf1a1;" 
d="M512 -64v192h448v-192h-448zM259 64h128v-64h-128v-128l-195 160l194 160zM128 832v64h576v-640h-64v64h-512v64h512v192h-512v64h512v192h-512z" />
    <glyph glyph-name="uniF1A2" unicode="&#xf1a2;" 
d="M576 320h-448v192h448v-64h64v-64h-64v-64zM448 0h-320v64h256v192h64v-256zM128 768v64h320v-256h-64v192h-256zM640 307l109 107l-109 111l49 51l114 -109l106 109l51 -51l-109 -111l109 -107l-51 -51l-106 109l-114 -109z" />
    <glyph glyph-name="uniF1A3" unicode="&#xf1a3;" 
d="M512 640v192h448v-192h-448zM128 -128v64h512v192h-512v64h512v192h-512v64h512v64h64v-640h-576zM323 768h128v-64h-128v-128l-195 160l194 160z" />
    <glyph glyph-name="uniF1A4" unicode="&#xf1a4;" 
d="M320 576v192h64v-192h576v-64h-576v-448h-64v448h-256v64h256zM0 0v832h1024v-832h-1024zM64 768v-704h896v704h-896zM640 768h64v-192h-64v192zM64 320h256v-64h-256v64zM640 384v64h64v-64h-64zM640 256v64h64v-64h-64zM640 128v64h64v-64h-64zM512 256v64h64v-64h-64z
M384 256v64h64v-64h-64zM768 256v64h64v-64h-64zM896 256v64h64v-64h-64z" />
    <glyph glyph-name="uniF1A5" unicode="&#xf1a5;" 
d="M64 768h3l-3 -3v3zM960 768v-3l-3 3h3zM64 765l3 3q65 64 104 64h21v-128v-64h128v64h-64v128v64h64v-64h320v-128v-64h128v64h-64v128v64h64v-64h85q40 0 104 -64l3 -3q64 -66 64 -105v-428v-124q0 -26 -31.5 -67.5t-72.5 -73t-67 -31.5h-49h-512h-121q-26 0 -67 31.5
t-72.5 73t-31.5 67.5v124v428q0 39 64 105zM804 0h47q14 0 61.5 52.5t47.5 67.5v112v280h-896v-280v-121q0 -16 47.5 -63.5t61.5 -47.5h119h512zM256 256q144 -72 256 -72t256 72h32l32 -64q-144 -96 -296 -96t-344 96l32 64h32z" />
    <glyph glyph-name="uniF1A6" unicode="&#xf1a6;" 
d="M512 -128q-104 0 -199 41t-163.5 109.5t-109 163t-40.5 198.5t41 199t109.5 163.5t163 109t198.5 40.5t199 -41t163.5 -109.5t109 -163t40.5 -198.5t-41 -199t-109.5 -163.5t-163 -109t-198.5 -40.5zM512 797q-84 0 -160.5 -32.5t-132 -88t-88 -132t-32.5 -160.5
t32.5 -160.5t88 -132t132 -88t160.5 -32.5t160.5 32.5t132 88t88 132t32.5 160.5t-32.5 160.5t-88 132t-132 88t-160.5 32.5zM576 384h192v-128h-320v384h128v-256z" />
    <glyph glyph-name="uniF1A7" unicode="&#xf1a7;" 
d="M567 619q-96 0 -182 -70t-116 -168l178 -62l-382 -59l63 444l63 -257l37 81l8 -7q54 84 141.5 133.5t189.5 49.5q107 0 197.5 -53.5t143 -145t52.5 -199.5q0 -109 -49.5 -200t-137 -144.5t-193.5 -53.5v85q75 0 144 45t110.5 117.5t41.5 150.5q0 77 -44.5 150t-116.5 118
t-148 45z" />
    <glyph glyph-name="uniF1A8" unicode="&#xf1a8;" 
d="M678 896v-288l250 256l64 -64l-256 -250h288v-102h-448v448h102zM346 -128v288l-250 -256l-64 64l256 250h-288v102h448v-448h-102z" />
    <glyph glyph-name="uniF1A9" unicode="&#xf1a9;" 
d="M765 800q-48 0 -77 -32.5t-29 -80.5v-239q46 0 79.5 -7t51 -16t27.5 -23t12.5 -25t2.5 -26v-287q0 -26 -19 -45t-45 -19h-512q-27 0 -45.5 18.5t-18.5 44.5v283q0 50 36 76t92 26h232v239q0 95 59 152t154 57q98 0 156 -53.5t58 -148.5v-182h-99v182q0 47 -33 76.5
t-82 29.5z" />
    <glyph glyph-name="uniF1AA" unicode="&#xf1aa;" 
d="M599 549l-87 192l-87 -192q-15 -33 -50 -37l-224 -28l168 -146q29 -25 21 -62l-48 -207l187 114q15 9 33 9t33 -9l187 -114l-48 207q-8 37 21 62l168 146l-224 28q-35 4 -50 37zM512 896l145 -321l367 -46l-277 -239l81 -354l-316 192l-316 -192l81 354l-277 239l367 46z
" />
    <glyph glyph-name="uniF1AB" unicode="&#xf1ab;" 
d="M512 640q-95 0 -194 -66q-32 -21 -72.5 -54.5t-68.5 -59t-82 -75.5l-0.5 -0.5l-1.5 -1.5q54 -51 83 -77.5t67.5 -59t69.5 -53.5q50 -33 97 -49q48 -16 102 -16q108 0 217 76q72 50 204 180q-125 124 -206 179q-57 39 -109 58q-53 19 -106 19zM512 704v0q52 0 104 -16
t97 -40.5t100.5 -69t100.5 -87t110 -107.5q-43 -43 -63 -62.5t-57.5 -55t-57 -52t-52.5 -42.5t-55 -38.5t-52.5 -28.5t-56.5 -23t-56.5 -12.5t-61.5 -5.5q-37 0 -73 7.5t-65 17t-65.5 32.5t-61 40t-65.5 53t-65 58.5t-73 69.5q-29 28 -44 42q17 16 57 53t55.5 51.5t50 45
t51 43t47 35.5t49.5 33t47 24t50.5 20t50 10.5t54.5 4.5zM512 512q-53 0 -90.5 -37.5t-37.5 -90.5t37.5 -90.5t90.5 -37.5t90.5 37.5t37.5 90.5t-37.5 90.5t-90.5 37.5zM512 576v0q80 0 136 -56.5t56 -136t-56 -135.5t-136 -56t-136 56t-56 135.5t56 136t136 56.5z" />
    <glyph glyph-name="uniF1AC" unicode="&#xf1ac;" 
d="M192 394l307 310h25l308 -310l-72 -72l-184 185v-347q-9 -96 -64 -96q-28 0 -43.5 22t-20.5 74v346l-186 -182z" />
    <glyph glyph-name="uniF1AD" unicode="&#xf1ad;" 
d="M639 402q51 -53 89.5 -114.5t57.5 -108t30.5 -91.5t13.5 -63.5t2 -24.5q0 -21 -4 -38t-9 -30t-16 -22.5t-19.5 -16t-24.5 -10.5t-26.5 -6.5t-30.5 -3.5t-30.5 -1h-32.5h-255q-38 0 -58.5 1t-50 8t-45 19.5t-27 38t-11.5 61.5q0 10 1 26.5t11.5 64.5t29 94.5t57.5 108.5
t93 114q27 25 52.5 37t39.5 14t36 2q71 0 127 -59zM512 896q79 0 135.5 -57.5t56.5 -136.5t-56 -134.5t-136 -55.5t-136 55.5t-56 134.5t56.5 136.5t135.5 57.5z" />
    <glyph glyph-name="uniF1AE" unicode="&#xf1ae;" 
d="M576 -23q0 -51 -27 -87q-4 -5 -28 -11t-33 -6l-403 -1q-9 0 -31.5 6.5t-26.5 11.5q-38 51 -24 88q1 5 7 22t24 53.5t41.5 72.5t62.5 77.5t83 70.5q13 -5 32 -21.5t34 -16.5q14 0 33 16t31 22q45 -29 84.5 -70t64 -78.5t43 -72.5t26 -54.5t7.5 -21.5zM383 464
q27 -41 25 -83q-47 -60 -119 -60q-65 0 -112.5 50.5t-47.5 114.5q0 62 32 104.5t90 48.5q23 -74 50 -109.5t82 -65.5zM683 832q-75 0 -144 -23.5t-111 -62.5t-42 -80q0 -30 33 -63t89 -60q35 -17 36 -56q1 -24 0 -47q38 22 65 44q17 14 38 14l33 2q115 0 197.5 49
t82.5 116.5t-82 117t-195 49.5zM683 896v0q92 0 171 -31t124.5 -84t45.5 -115q0 -63 -45.5 -116t-124.5 -83.5t-171 -30.5l-33 -1q-17 -14 -35.5 -26.5t-41.5 -24.5t-36 -19t-42 -20.5t-37 -17.5q1 9 8 35t11 55.5t3 67.5q-70 34 -114 80.5t-44 100.5q0 62 50.5 115.5
t134 84t176.5 30.5z" />
    <glyph glyph-name="uniF1AF" unicode="&#xf1af;" 
d="M1024 381l-14 -17q-14 -18 -40.5 -46t-61 -62t-80.5 -67.5t-95 -61.5t-107.5 -45.5t-114.5 -17.5t-115 18.5t-106 45t-95 63.5t-80 67t-62 63.5t-39 45t-14 17.5l14 18q14 18 40 46t61 62t80.5 68t94 62.5t107.5 46t115 17.5t115 -18.5t106.5 -45t95.5 -64t80 -68t62 -64
t39 -45t14 -18.5zM704 384q0 50 -28 95t-73 71t-91 26q-45 0 -90 -26t-73.5 -71t-28.5 -95t29 -95t73 -71t90 -26t91 26t73 71t28 95zM576 384.5q0 -34.5 -15.5 -49.5t-48.5 -15t-48.5 14.5t-15.5 49t15.5 49.5t48.5 15t48.5 -14.5t15.5 -49z" />
    <glyph glyph-name="uniF1B0" unicode="&#xf1b0;" 
d="M128 640v192h192v-192h-192zM128 320v192h192v-192h-192zM128 0v192h192v-192h-192zM448 640v192h192v-192h-192zM448 320v192h192v-192h-192zM448 0v192h192v-192h-192zM768 640v192h192v-192h-192zM768 320v192h192v-192h-192zM768 0v192h192v-192h-192z" />
    <glyph glyph-name="uniF1B1" unicode="&#xf1b1;" 
d="M64 576v128h256v-128h-256zM64 320v128h256v-128h-256zM64 64v128h256v-128h-256zM448 0v768h512v-768h-512zM576 640v-512h256v512h-256z" />
    <glyph glyph-name="uniF1B2" unicode="&#xf1b2;" 
d="M64 576v128h896v-128h-896zM64 320v128h896v-128h-896zM64 64v128h896v-128h-896z" />
    <glyph glyph-name="uniF1B3" unicode="&#xf1b3;" 
d="M512 896q37 0 67.5 -19t47.5 -52l382 -768q15 -30 13.5 -63t-19.5 -61q-17 -28 -46.5 -44.5t-62.5 -16.5h-766q-33 0 -62 16t-47 44.5t-19.5 61.5t14.5 63l384 768q16 33 46.5 52t67.5 19zM541 782q-9 18 -29 18t-29 -18l-384 -768q-8 -16 1.5 -31t27.5 -15h766
q18 0 27.5 15t1.5 31zM448 576h128v-320h-128v320zM448 192h128v-128h-128v128z" />
    <glyph glyph-name="uniF1B4" unicode="&#xf1b4;" 
d="M969 448q16 -16 29.5 -32t19.5 -24l6 -8q-5 -6 -14.5 -17.5t-39.5 -45t-61.5 -63.5t-79.5 -67t-95.5 -63.5t-106.5 -45t-115.5 -18.5t-115 18t-107 46t-94.5 62t-80.5 68.5t-61 62.5t-40.5 46l-13 17q19 27 54 64q37 41 81.5 80.5t105 82t131 68t136.5 25.5
q70 0 141.5 -25.5t132.5 -68t105 -81.5t82 -81zM512 256q53 0 90.5 37.5t37.5 90.5t-37.5 90.5t-90.5 37.5t-90.5 -37.5t-37.5 -90.5t37.5 -90.5t90.5 -37.5z" />
    <glyph glyph-name="uniF1B5" unicode="&#xf1b5;" 
d="M1024 256v-192q0 -26 -19 -45t-45 -19h-896q-26 0 -45 19t-19 45v192l192 512h640zM384 256v-64q0 -24 20 -44t44 -20h128q24 0 44 20t20 44v64h256l-128 448h-512l-128 -448h256zM320 512v128h384v-128h-64v64h-256v-64h-64zM320 384v-64h-64v128h512v-128h-64v64h-384z
" />
    <glyph glyph-name="uniF1B6" unicode="&#xf1b6;" 
d="M1024 256v-192q0 -26 -19 -45t-45 -19h-896q-26 0 -45 19t-19 45v192l192 512h640zM384 256v-64q0 -24 20 -44t44 -20h128q24 0 44 20t20 44v64h256l-128 448h-512l-128 -448h256z" />
    <glyph glyph-name="uniF1B7" unicode="&#xf1b7;" 
d="M64 64v128h704v-128h-704zM64 576v128h704v-128h-704zM64 320v128h704v-128h-704zM832 64v128h128v-128h-128zM832 576v128h128v-128h-128zM832 320v128h128v-128h-128z" />
    <glyph glyph-name="uniF1B8" unicode="&#xf1b8;" 
d="M64 832h896v-512h-64l-64 64v320h-640v-320l-64 -64h-64v512zM511 -64l-287 288l64 64l160 -160v384h128v-384l160 160l64 -64z" />
    <glyph glyph-name="uniF1B9" unicode="&#xf1b9;" 
d="M128 640v128h768v-128h-768zM511 -64l-287 288l64 64l160 -160v384h128v-384l160 160l64 -64z" />
    <glyph glyph-name="uniF1BA" unicode="&#xf1ba;" 
d="M128 896h768q53 0 90.5 -37.5t37.5 -90.5v-768q0 -53 -37.5 -90.5t-90.5 -37.5h-768q-53 0 -90.5 37.5t-37.5 90.5v768q0 53 37.5 90.5t90.5 37.5zM896 832h-768q-27 0 -45.5 -18.5t-18.5 -45.5v-540q203 231 256 284q89 -89 274 -391q22 29 44.5 56.5t54.5 63t60.5 57.5
t46.5 22q51 0 160 -171v619q0 27 -18.5 45.5t-45.5 18.5zM128 -64h512q-40 67 -147.5 230.5t-172.5 249.5q-53 -53 -256 -284v-132q0 -27 18.5 -45.5t45.5 -18.5zM960 0v32q-2 3 -4.5 8t-11.5 20l-18 30t-22 35t-24 37.5t-24 35t-23 30t-19 20.5t-14 8q-15 0 -59 -46
t-80 -92l-37 -46l80 -136h192q27 0 45.5 18.5t18.5 45.5zM672 464l-97 -90l9 132l-130 20l109 75l-66 115l126 -39l49 123l49 -123l126 39l-66 -115l109 -75l-130 -20l9 -132zM589 576q0 -34 24.5 -58.5t58.5 -24.5t58.5 24.5t24.5 58.5t-24.5 58.5t-58.5 24.5t-58.5 -24.5
t-24.5 -58.5z" />
    <glyph glyph-name="uniF1BB" unicode="&#xf1bb;" 
d="M320 896h128v-64q0 -27 -18.5 -46t-45.5 -19t-45.5 -18.5t-18.5 -44.5v-320q0 43 -49.5 85.5t-78.5 42.5v256q0 53 37.5 90.5t90.5 37.5zM320 64q0 -27 18.5 -45.5t45.5 -18.5t45.5 -19t18.5 -45v-64h-65q-79 0 -135.5 56.5t-56.5 135.5v191q0 27 -18.5 45.5t-44.5 18.5
h-128v127l127 2q80 -1 136.5 -57.5t56.5 -136.5v-190zM704 514v190q0 27 -18.5 45.5t-45.5 18.5t-45.5 19t-18.5 45v64h65q79 0 135.5 -56.5t56.5 -135.5v-191q0 -27 18.5 -45.5t45.5 -18.5h127v-127l-127 -2q-80 1 -136.5 57.5t-56.5 136.5zM704 -128h-128v64q0 27 18.5 46
t45.5 19t45.5 18.5t18.5 44.5v320q0 -43 49.5 -85.5t78.5 -42.5v-256q0 -53 -37.5 -90.5t-90.5 -37.5z" />
    <glyph glyph-name="uniF1BC" unicode="&#xf1bc;" 
d="M0 703q0 81 56.5 137t136.5 56h638q81 0 137 -56.5t56 -136.5v-638q0 -81 -56.5 -137t-136.5 -56h-638q-81 0 -137 56.5t-56 136.5v638zM831 832h-638q-54 0 -91.5 -37.5t-37.5 -91.5v-638q0 -54 37.5 -91.5t91.5 -37.5h638q54 0 91.5 37.5t37.5 91.5v638
q0 54 -37.5 91.5t-91.5 37.5zM320 192v64h64v-64h-64zM576 192v64h256v-64h-256zM640 512v128h64v-128h-64zM512 224q0 -66 -47 -113t-113 -47t-113 47t-47 113t47 113t113 47t113 -47t47 -113zM256 224q0 -40 28 -68t68 -28t68 28t28 68t-28 68t-68 28t-68 -28t-28 -68z
M192 448v256h640v-256h-640zM256 640v-128h512v128h-512z" />
    <glyph glyph-name="uniF1BD" unicode="&#xf1bd;" 
d="M448 320v128h128v-128h-128zM192 576q0 53 37.5 90.5t90.5 37.5h384q53 0 90.5 -37.5t37.5 -90.5v-384q0 -53 -37.5 -90.5t-90.5 -37.5h-384q-53 0 -90.5 37.5t-37.5 90.5v384zM704 640h-384q-27 0 -45.5 -18.5t-18.5 -45.5v-384q0 -27 18.5 -45.5t45.5 -18.5h384
q27 0 45.5 18.5t18.5 45.5v384q0 27 -18.5 45.5t-45.5 18.5zM320 513q0 26 18.5 44.5t44.5 18.5h258q26 0 44.5 -18.5t18.5 -44.5v-258q0 -26 -18.5 -44.5t-44.5 -18.5h-258q-26 0 -44.5 18.5t-18.5 44.5v258zM641 512h-258q1 0 1 1v-258q0 1 -1 1h258q-1 0 -1 -1v258
q0 -1 1 -1zM64 640q0 79 56.5 135.5t135.5 56.5h512q79 0 135.5 -56.5t56.5 -135.5v-512q0 -79 -56.5 -135.5t-135.5 -56.5h-512q-79 0 -135.5 56.5t-56.5 135.5v512zM768 768h-512q-53 0 -90.5 -37.5t-37.5 -90.5v-512q0 -53 37.5 -90.5t90.5 -37.5h512q53 0 90.5 37.5
t37.5 90.5v512q0 53 -37.5 90.5t-90.5 37.5z" />
    <glyph glyph-name="uniF1BE" unicode="&#xf1be;" 
d="M256 640h165l-37 -64h-64l-128 -448h192v-64q0 -24 20 -44t44 -20h128q24 0 44 20t20 44v64h192l-118 414l33 98h21l192 -512v-192q0 -26 -19 -45t-45 -19h-768q-26 0 -45 19t-19 45v192zM608 384h96l-192 -224l-192 224q14 -2 96 0q0 42 12.5 90t44.5 106.5t80.5 110
t129 99t181.5 74.5q-52 -41 -94 -84t-68.5 -77t-45.5 -74t-28.5 -65t-14.5 -60.5t-6 -49t0 -41.5t1 -29z" />
    <glyph glyph-name="uniF1BF" unicode="&#xf1bf;" 
d="M190 128v-64h-124q-23 0 -38 14.5t-20.5 38t-7 41t-0.5 34.5q2 38 28.5 114.5t67.5 111.5q-30 32 -30 94q0 53 36 90.5t88 37.5q53 0 91.5 -37.5t38.5 -90.5q0 -64 -32 -94q1 -1 16 -33.5t16 -33.5q-4 -5 -16.5 -15t-15.5 -16q-4 4 -15 30.5t-17 30.5l-32 37l13 30
q7 4 11.5 9t6.5 11.5t2 11t-0.5 15.5t-0.5 17q0 23 -5.5 37t-17 19.5t-19.5 6.5t-24 1q-15 0 -23 -1t-18.5 -6.5t-15.5 -19.5t-5 -37q0 -5 -0.5 -14t0 -12.5t1 -10t2.5 -10.5t6 -8.5t10 -8.5l13 -30l-32 -37q-14 -17 -26.5 -39.5t-20.5 -47t-13 -41.5t-9.5 -38.5t-4.5 -22.5
q-6 -20 7.5 -42t34.5 -22h94zM834 126h94q21 0 34.5 22t7.5 42q0 1 -4.5 22.5t-9.5 38.5t-13 41.5t-20.5 47t-26.5 39.5l-32 37l13 30q7 5 11 9.5t6 12t2.5 11t0 15.5t-0.5 16q0 23 -5 37t-15.5 19.5t-18.5 6.5t-23 1q-16 0 -24 -1t-19.5 -6.5t-17 -19.5t-5.5 -37
q0 -6 -0.5 -17t-0.5 -15.5t2 -11t6.5 -11.5t11.5 -9l13 -30l-32 -37q-6 -4 -17 -30.5t-15 -30.5q-3 6 -15.5 16t-16.5 15q1 1 16 33.5t16 33.5q-32 30 -32 94q0 53 38.5 90.5t91.5 37.5q52 0 88 -37.5t36 -90.5q0 -62 -30 -94q41 -35 67.5 -111.5t28.5 -114.5
q1 -17 -0.5 -34.5t-7 -41t-20.5 -38t-38 -14.5h-124v64zM614 367q40 -44 71 -93.5t46 -87.5t24 -74.5t11 -51.5t2 -20q0 -22 -5 -38.5t-11.5 -27.5t-20 -18.5t-24 -11.5t-30 -5.5t-30.5 -2t-33 -0.5h-204q-31 0 -47.5 1t-40 6.5t-35.5 16t-21.5 30.5t-9.5 50q0 8 1 21.5
t9.5 52.5t23 76.5t46 88t74.5 93.5q21 20 41.5 30t31.5 11t29 1q57 0 102 -47zM512 768q63 0 108.5 -46.5t45.5 -110.5t-45 -109.5t-109 -45.5t-109 45.5t-45 109.5t45.5 110.5t108.5 46.5z" />
    <glyph glyph-name="uniF1C0" unicode="&#xf1c0;" 
d="M0 703q0 81 56.5 137t136.5 56h638q81 0 137 -56.5t56 -136.5v-638q0 -81 -56.5 -137t-136.5 -56h-638q-81 0 -137 56.5t-56 136.5v638zM831 832h-638q-54 0 -91.5 -37.5t-37.5 -91.5v-638q0 -54 37.5 -91.5t91.5 -37.5h638q54 0 91.5 37.5t37.5 91.5v638
q0 54 -37.5 91.5t-91.5 37.5zM384 256v192h448v-192h-448zM448 384v-64h320v64h-320zM384 512v192h448v-192h-448zM448 640v-64h320v64h-320zM192 640v64h128v-64h-128zM192 384v64h128v-64h-128zM384 64v128h256v-128h-256z" />
    <glyph glyph-name="uniF1C1" unicode="&#xf1c1;" 
d="M384 0h-64q-26 0 -45 19t-19 45v640q0 26 19 45t45 19h64q26 0 45 -19t19 -45v-640q0 -26 -19 -45t-45 -19zM704 0h-64q-26 0 -45 19t-19 45v640q0 26 19 45t45 19h64q26 0 45 -19t19 -45v-640q0 -26 -19 -45t-45 -19z" />
    <glyph glyph-name="uniF1C2" unicode="&#xf1c2;" 
d="M576 0q0 -14 -8 -22t-16 -9l-8 -1q-4 0 -9 1t-14 9t-9 22q0 125 -6.5 224t-16 150.5t-19 85t-16.5 42.5l-6 10l-131 -44q-26 -8 -33 1.5t8 31.5l216 310q15 22 36 22t36 -22l216 -310q15 -22 7.5 -31.5t-32.5 -1.5l-131 44q-3 -5 -7 -16t-15 -54t-19.5 -96.5t-15.5 -146
t-7 -199.5z" />
    <glyph glyph-name="uniF1C3" unicode="&#xf1c3;" 
d="M576 576v-448h-64v448l-199 -100q-24 -11 -30 -4t9 29l216 310q15 22 36 22t36 -22l216 -310q15 -22 9 -29t-30 4z" />
    <glyph glyph-name="uniF1C4" unicode="&#xf1c4;" 
d="M576 576v-192h-64v192l-199 -100q-24 -11 -30 -4t9 29l216 310q15 22 36 22t36 -22l216 -310q15 -22 9 -29t-30 4z" />
    <glyph glyph-name="uniF1C5" unicode="&#xf1c5;" 
d="M512 192v448h64v-448l199 100q24 11 30 4t-9 -29l-216 -310q-15 -22 -36 -22t-36 22l-216 310q-15 22 -9 29t30 -4z" />
    <glyph glyph-name="uniF1C6" unicode="&#xf1c6;" 
d="M512 192v192h64v-192l199 100q24 11 30 4t-9 -29l-216 -310q-15 -22 -36 -22t-36 22l-216 310q-15 22 -9 29t30 -4z" />
    <glyph glyph-name="uniF1C7" unicode="&#xf1c7;" 
d="M512 704q-74 0 -138 -46.5t-92 -126.5l166 -64l-320 -83l45 384l57 -192q87 192 282 192q131 0 224 -102l-32 -52q-27 25 -36 33t-30.5 23t-36 20t-38 9.5t-51.5 4.5zM512 64q74 0 138 46.5t92 126.5l-166 64l320 83l-45 -384l-57 192q-87 -192 -282 -192
q-131 0 -224 102l32 52q27 -25 36 -33t30.5 -23t36 -20t38 -9.5t51.5 -4.5z" />
    <glyph glyph-name="uniF1C8" unicode="&#xf1c8;" 
d="M128 64v128h768v-128h-768zM639 325v123q-1 1 -5 2q-15 9 -27.5 15t-45 15.5t-62.5 12t-75.5 -2.5t-89.5 -22t-98.5 -53.5t-107.5 -89.5q26 72 61.5 130t72 96.5t80.5 67.5t81.5 45t80 25.5t73 12t62.5 2.5v128l255 -256z" />
    <glyph glyph-name="uniF1C9" unicode="&#xf1c9;" 
d="M768 224l160 32l-224 -288l-224 288l160 -32v288h128v-288zM384 544v-288h-128v288l-160 -32l224 288l224 -288z" />
    <glyph glyph-name="uniF1CA" unicode="&#xf1ca;" 
d="M512 -64v349v241l-384 114v-565zM972 766q24 -7 38 -33.5t14 -52.5v-566q0 -31 -19.5 -58t-50.5 -42q-262 -86 -409 -142l-412 136q-28 7 -48.5 38t-20.5 62v566q0 71 49 85l388 128q5 2 10.5 4t8 3t8.5 1.5t17 0.5q13 0 18.5 -0.5t12.5 -3.5t13 -5zM960 80v560
l-384 -128v-555zM543 597l435 113l-435 143l-430 -149zM699 364q-12 -4 -27.5 -0.5t-18.5 15.5q-4 15 6.5 33.5t25.5 22.5l166 73q14 3 27 -5t17 -23t-4 -28.5t-23 -16.5q-159 -68 -169 -71z" />
    <glyph glyph-name="uniF1CB" unicode="&#xf1cb;" 
d="M473 551q66 83 135.5 127t159.5 54v35q0 27 19 46t46 19h126q27 0 46 -19t19 -46v-126q0 -27 -19 -46t-46 -19h-126q-27 0 -46 19t-19 46v27q-74 -11 -132 -49.5t-116 -111.5q-94 -117 -100 -123h320q11 42 45.5 69t78.5 27q53 0 90.5 -37.5t37.5 -90.5t-37.5 -90.5
t-90.5 -37.5q-44 0 -78.5 27t-45.5 69h-433q1 -1 25.5 -25t51 -48.5t57 -52t55 -45.5t34.5 -20q17 29 46 46t64 17q53 0 90.5 -37.5t37.5 -90.5t-37.5 -90.5t-90.5 -37.5t-90.5 37.5t-37.5 90.5q-22 4 -95 68t-135 126l-62 62l-68 1q-18 -33 -56 -33q-27 0 -45.5 18.5
t-18.5 45.5t18.5 45.5t45.5 18.5q38 0 56 -33l151 1q45 9 100 78q5 6 22 27.5t32 41.5t16 20zM576 64q0 -27 18.5 -45.5t45.5 -18.5t45.5 18.5t18.5 45.5t-18.5 45.5t-45.5 18.5t-45.5 -18.5t-18.5 -45.5zM959 768h-126q-1 0 -1 -1v-126q0 -1 1 -1h126q1 0 1 1v126q0 1 -1 1
z" />
    <glyph glyph-name="uniF1CC" unicode="&#xf1cc;" 
d="M0 703q0 81 56.5 137t136.5 56h638q81 0 137 -56.5t56 -136.5v-638q0 -81 -56.5 -137t-136.5 -56h-638q-81 0 -137 56.5t-56 136.5v638zM831 832h-638q-54 0 -91.5 -37.5t-37.5 -91.5v-638q0 -54 37.5 -91.5t91.5 -37.5h638q54 0 91.5 37.5t37.5 91.5v638
q0 54 -37.5 91.5t-91.5 37.5zM256 128v64h64v-64h-64zM256 320v64h64v-64h-64zM256 512v64h64v-64h-64zM384 128v64h384v-64h-384zM384 320v64h384v-64h-384zM384 512v64h384v-64h-384z" />
    <glyph glyph-name="uniF1CD" unicode="&#xf1cd;" 
d="M736 320l-288 290l288 286l288 -286zM512 192q0 53 37.5 90.5t90.5 37.5h192q53 0 90.5 -37.5t37.5 -90.5v-192q0 -53 -37.5 -90.5t-90.5 -37.5h-192q-53 0 -90.5 37.5t-37.5 90.5v192zM832 256h-192q-27 0 -45.5 -18.5t-18.5 -45.5v-192q0 -27 18.5 -45.5t45.5 -18.5
h192q27 0 45.5 18.5t18.5 45.5v192q0 27 -18.5 45.5t-45.5 18.5zM0 192q0 53 37.5 90.5t90.5 37.5h192q53 0 90.5 -37.5t37.5 -90.5v-192q0 -53 -37.5 -90.5t-90.5 -37.5h-192q-53 0 -90.5 37.5t-37.5 90.5v192zM320 256h-192q-27 0 -45.5 -18.5t-18.5 -45.5v-192
q0 -27 18.5 -45.5t45.5 -18.5h192q27 0 45.5 18.5t18.5 45.5v192q0 27 -18.5 45.5t-45.5 18.5zM0 704q0 53 37.5 90.5t90.5 37.5h192q53 0 90.5 -37.5t37.5 -90.5v-192q0 -53 -37.5 -90.5t-90.5 -37.5h-192q-53 0 -90.5 37.5t-37.5 90.5v192zM320 768h-192
q-27 0 -45.5 -18.5t-18.5 -45.5v-192q0 -27 18.5 -45.5t45.5 -18.5h192q27 0 45.5 18.5t18.5 45.5v192q0 27 -18.5 45.5t-45.5 18.5z" />
    <glyph glyph-name="uniF1CE" unicode="&#xf1ce;" 
d="M576 864l-112 -224h384q47 0 79.5 -31.5t32.5 -75.5v-426q0 -44 -32.5 -75.5t-79.5 -31.5h-656q-53 0 -90.5 37.5t-37.5 90.5v128h64v-128q0 -26 19 -45t45 -19h656q20 0 34 13t14 30v426q0 18 -14 30.5t-34 12.5h-384l112 -224l-352 256z" />
    <glyph glyph-name="uniF1CF" unicode="&#xf1cf;" 
d="M0 768q0 53 37.5 90.5t90.5 37.5h768q53 0 90.5 -37.5t37.5 -90.5v-768q0 -53 -37.5 -90.5t-90.5 -37.5h-768q-53 0 -90.5 37.5t-37.5 90.5v768zM320 256v64h-96q-39 0 -67.5 28t-28.5 68t28 68t68 28h96v64h-96q-40 0 -68 28t-28 68t28 68t68 28h96v32v32h64v-32v-32
h416q40 0 68 -28t28 -68t-28 -68t-68 -28h-416v-64h224q39 0 67.5 -28t28.5 -68t-28 -68t-68 -28h-224v-64h416q40 0 68 -28t28 -68t-28 -68t-68 -28h-416v-107v-21h512q27 0 45.5 18.5t18.5 45.5v768q0 27 -18.5 45.5t-45.5 18.5h-768q-27 0 -45.5 -18.5t-18.5 -45.5v-768
q0 -27 18.5 -45.5t45.5 -18.5h192v21v107h-96q-40 0 -68 28t-28 68t28 68t68 28h96z" />
    <glyph glyph-name="uniF1D0" unicode="&#xf1d0;" 
d="M832 640v0q80 0 136 -56t56 -136q0 -49 -23 -90.5t-62 -67.5l-199 200l-234 -234h-314q-80 0 -136 56t-56 136t56 136t136 56q39 0 74 -15q-54 63 -135 75q11 84 73.5 140t147.5 56q56 0 104 -25.5t79 -69.5q48 31 105 31q69 0 121.5 -43.5t66.5 -109.5q-40 -20 -69 -54
q35 15 73 15zM416 30l324 324l79 -79l-403 -403l-204 204l80 79z" />
    <glyph glyph-name="uniF1D1" unicode="&#xf1d1;" 
d="M832 640q80 0 136 -56t56 -136t-56 -136t-136 -56h-192v256h-256v-256h-192q-80 0 -136 56t-56 136t56 136t136 56q39 0 74 -15q-54 63 -135 75q11 84 73.5 140t147.5 56q56 0 104 -25.5t79 -69.5q48 31 105 31q69 0 121.5 -43.5t66.5 -109.5q-40 -20 -69 -54
q35 15 73 15zM448 -128v128h128v-128h-128zM448 64v384h128v-384h-128z" />
    <glyph glyph-name="uniF1D2" unicode="&#xf1d2;" 
d="M337 832q-17 -30 -17 -64v-513q0 -79 56.5 -135.5t135.5 -56.5t135.5 56.5t56.5 135.5v448h64v-448q0 -106 -75 -181t-181 -75t-181 75t-75 181v513q0 33 11 64h-139q-27 0 -45.5 -18.5t-18.5 -45.5v-768q0 -27 18.5 -45.5t45.5 -18.5h768q27 0 45.5 18.5t18.5 45.5v768
q0 27 -18.5 45.5t-45.5 18.5h-267q11 -31 11 -64v-513q0 -53 -37.5 -90.5t-90.5 -37.5t-90.5 37.5t-37.5 91.5v319h64v-319q0 -27 18.5 -46t45.5 -19q26 0 45 19t19 45v513q0 34 -17 64h-222zM0 768q0 53 37.5 90.5t90.5 37.5h768q53 0 90.5 -37.5t37.5 -90.5v-768
q0 -53 -37.5 -90.5t-90.5 -37.5h-768q-53 0 -90.5 37.5t-37.5 90.5v768z" />
    <glyph glyph-name="uniF1D3" unicode="&#xf1d3;" 
d="M256 544l257 -256l255 256l64 -96l-319 -322l-321 322z" />
    <glyph glyph-name="uniF1D4" unicode="&#xf1d4;" 
d="M256 160l-64 96l321 322l319 -322l-64 -96l-255 256z" />
    <glyph glyph-name="uniF1D5" unicode="&#xf1d5;" 
d="M896 896q53 0 90.5 -37.5t37.5 -90.5v-768q0 -53 -37.5 -90.5t-90.5 -37.5h-768q-53 0 -90.5 37.5t-37.5 90.5v768q0 53 37.5 90.5t90.5 37.5h768zM659 640h-230l-13 -13l-13 13h-230l-13 -13l-13 13h-83v-640q0 -27 18.5 -45.5t45.5 -18.5h768q27 0 45.5 18.5t18.5 45.5
v640h-275l-13 -13l-13 13v0zM787 832h-166l-19 -19l-109 -109h166l128 128v0zM877 832v0l-19 -19l-109 -109h211v64q0 27 -18.5 45.5t-45.5 18.5h-19zM531 832h-166l-19 -19l-109 -109h166l128 128v0zM275 832h-147q-27 0 -45.5 -18.5t-18.5 -45.5v-64h83l128 128v0zM384 32
v512l352 -256zM640 288l-192 128v-256z" />
    <glyph glyph-name="uniF1D6" unicode="&#xf1d6;" 
d="M704 320h-384l-64 128h512zM640 192l-64 -128h-128l-64 128h256zM832 576v0h-640l-64 128h768z" />
    <glyph glyph-name="uniF1D7" unicode="&#xf1d7;" 
d="M512 384h-128l160 192l160 -192h-128v-128h-64v128zM640 -256h-192v448h192v-448zM768 832q79 0 135.5 -56t56.5 -136v-576q0 -80 -56 -136t-136 -56h-64v64h64q53 0 90.5 37.5t37.5 90.5v576h-704v-576q0 -53 37.5 -90.5t90.5 -37.5h64v-64h-64q-80 0 -136 56t-56 136
v576q0 79 56.5 135.5t135.5 56.5h96l64 64h128l64 -64h96zM209 704h670q-17 29 -46.5 46.5t-64.5 17.5h-128l-58 64h-76l-58 -64h-128q-35 0 -64.5 -17.5t-46.5 -46.5z" />
    <glyph glyph-name="uniF1D8" unicode="&#xf1d8;" 
d="M512 64v128h64v-128h128l-160 -192l-160 192h128zM448 256v448h192v-448h-192zM768 832q79 0 135.5 -56t56.5 -136v-576q0 -80 -56 -136t-136 -56h-64v64h64q53 0 90.5 37.5t37.5 90.5v576h-704v-576q0 -53 37.5 -90.5t90.5 -37.5h64v-64h-64q-80 0 -136 56t-56 136v576
q0 79 56.5 135.5t135.5 56.5h96l64 64h128l64 -64h96zM209 704h670q-17 29 -46.5 46.5t-64.5 17.5h-128l-58 64h-76l-58 -64h-128q-35 0 -64.5 -17.5t-46.5 -46.5z" />
    </font>
</defs>
</svg>
