<?xml version="1.0" encoding="iso-8859-1"?>
<!-- Generator: Adobe Illustrator 16.0.0, SVG Export Plug-In . SVG Version: 6.00 Build 0)  -->
<!DOCTYPE svg PUBLIC "-//W3C//DTD SVG 1.1//EN" "http://www.w3.org/Graphics/SVG/1.1/DTD/svg11.dtd">
<svg version="1.1" id="Capa_1" xmlns="http://www.w3.org/2000/svg" xmlns:xlink="http://www.w3.org/1999/xlink" x="0px" y="0px"
	 width="422.207px" height="422.207px" viewBox="0 0 422.207 422.207" style="enable-background:new 0 0 422.207 422.207;"
	 xml:space="preserve">
<g>
	<path d="M365.148,60.721C324.699,20.43,272.871,0,211.104,0C151.18,0,100.286,20.926,59.834,62.2
		C20.266,102.646,0.201,152.061,0.201,209.072c0,57.12,19.258,106.825,57.229,147.727c40.119,43.402,91.822,65.408,153.674,65.408
		c2.891,0,5.781-0.023,8.667-0.066v-41.578c-2.887,0.061-5.775,0.102-8.667,0.102c-48.709,0-89.295-17.77-120.621-52.801
		c-29.279-32.989-44.125-72.955-44.125-118.791c0-46.221,15.74-85.809,46.791-117.669C124.67,58.954,164.358,42.5,211.104,42.5
		c49.001,0,89.748,15.676,121.111,46.595c29.465,28.993,44.404,64.536,44.404,105.64c0,45.003-14.664,80.011-19.156,89.674
		l-54.947,0.026V99.647h-50.768v22.9c-6.383-4.861-14.082-9.067-22.979-12.541c-12.314-4.654-24.383-7.014-35.872-7.014
		c-30.641,0-56.344,12.097-76.396,35.958c-18.471,22.014-27.836,48.259-27.836,78.008c0,27.633,8.813,52.872,26.182,75
		c19.881,25.534,46.133,38.563,78.021,38.728l0.662,0.002c25.625,0,47.819-8.832,66.01-26.254l7.25,21.078h121.586l13.615-27.938
		c13.279-26.551,20.014-61.15,20.014-102.84C422.006,143.409,402.877,98.32,365.148,60.721z M233.145,263.465
		c-10.895,13.098-23.559,19.465-38.721,19.465c-20.01,0-35.455-7.992-47.209-24.423c-9.424-13.245-14.203-27.707-14.203-42.981
		c0-17.038,5.479-32.285,16.281-45.312c12.102-14.545,27.117-21.616,45.9-21.616c11.621,0,23.071,5.177,34.028,15.386
		c13.77,12.833,20.463,29.771,20.463,51.782C249.684,234.225,244.12,250.273,233.145,263.465z"/>
</g>
<g>
</g>
<g>
</g>
<g>
</g>
<g>
</g>
<g>
</g>
<g>
</g>
<g>
</g>
<g>
</g>
<g>
</g>
<g>
</g>
<g>
</g>
<g>
</g>
<g>
</g>
<g>
</g>
<g>
</g>
</svg>
