<svg width="222" height="142" xmlns="http://www.w3.org/2000/svg"><g fill="none" fill-rule="evenodd"><circle stroke="#0084E7" cx="185.5" cy="3.5" r="3"/><circle stroke="#0084E7" cx="3.5" cy="43.5" r="3"/><circle stroke="#0084E7" cx="55.5" cy="112.5" r="3"/><path d="M211.5 23.5H6.461M211.5 43.5H6.461M91.5 63.5H6.461M221.5 63.5h-45.039M101.5 83.5H17.461M91.5 103.5H6.461M55.5 6.5v102.185M185.5 6.5v52.185" stroke="#0084E7" stroke-linecap="square"/><path d="M195 140l-1-73M197.733 139.167l-84.466.666M188.5 79.5H122M188.5 99.5H122M188.5 89.5H122M188.5 109.5H122M188.5 129.5H122" stroke="#8ABDE3" stroke-linecap="square"/><path stroke="#0084E7" d="M115.5 70.5h81v71h-81z"/><path stroke="#8ABDE3" d="M113.5 68.5h81v71h-81zM100.5 57.5v8.333l2.333-2.333 1.667 3.833 2.167-1.5-2.167-3 3-.5z"/></g></svg>