<svg id="Capa_1" enable-background="new 0 0 512 512" height="512" viewBox="0 0 512 512" width="512" xmlns="http://www.w3.org/2000/svg"><g><g><path d="m511.863 282.781c0-3.171-1.707-6.096-4.468-7.656l-.003-.001c-.008-.006-.017-.011-.025-.016-.51-.337-1.052-.629-1.622-.869l-116.815-52.204v-157.099c0-.076-.001-.151-.003-.226-.001-.025-.001-.049-.002-.074-.001-.05-.003-.101-.006-.151-.001-.03-.002-.06-.004-.09-.003-.064-.007-.129-.012-.193-.003-.045-.007-.089-.011-.133-.002-.023-.004-.047-.006-.07-.187-2.002-.964-3.833-2.155-5.317-.017-.021-.034-.042-.051-.063-.024-.029-.048-.058-.072-.087-.025-.03-.05-.06-.076-.09-.019-.022-.037-.044-.056-.065-.045-.052-.091-.104-.138-.155-.009-.01-.018-.02-.028-.03-.042-.046-.085-.092-.128-.137-.01-.011-.02-.021-.031-.032-.048-.05-.096-.1-.145-.149-.003-.003-.006-.006-.009-.009-.055-.055-.111-.11-.168-.164-.002-.002-.004-.003-.005-.005-.052-.049-.104-.098-.157-.146-.01-.009-.02-.018-.03-.027-.048-.043-.097-.087-.146-.129-.008-.007-.016-.015-.025-.022-.055-.047-.11-.094-.166-.14-.016-.013-.032-.026-.047-.038-.037-.03-.075-.061-.113-.091-.025-.02-.051-.04-.076-.06-.029-.022-.057-.044-.086-.066-.666-.507-1.397-.932-2.18-1.261l-122.718-54.846c-2.596-1.16-5.564-1.16-8.16 0l-122.722 54.844c-.782.329-1.513.754-2.179 1.261-.029.022-.058.044-.086.066-.026.02-.051.04-.076.06-.038.03-.075.06-.113.091-.016.013-.032.025-.047.038-.056.046-.111.093-.166.14-.008.007-.016.014-.025.022-.049.042-.098.086-.146.129-.01.009-.02.018-.03.027-.053.048-.105.097-.157.146-.002.002-.003.003-.005.005-.057.054-.113.109-.168.164-.003.003-.006.006-.009.009-.049.049-.097.099-.145.149-.01.011-.021.021-.031.032-.043.045-.086.091-.128.137-.009.01-.019.02-.028.03-.046.051-.092.103-.138.155-.019.021-.037.043-.056.065-.025.03-.051.06-.076.09-.024.029-.048.058-.072.087-.017.021-.034.042-.05.063-1.192 1.484-1.969 3.314-2.155 5.317-.002.023-.004.047-.006.07-.004.045-.008.089-.011.133-.005.064-.009.129-.012.193-.002.03-.003.06-.004.09-.002.05-.004.101-.006.151-.001.025-.001.049-.002.074-.002.075-.003.151-.003.226v157.098l-116.815 52.206c-.003.001-.006.002-.009.004-3.694 1.549-6.108 5.16-6.108 9.166v.047 163.58c0 3.944 2.318 7.52 5.92 9.129 0 0 122.946 54.944 122.953 54.947l.058.026c2.532 1.144 5.434 1.15 7.97.014l.111-.05 118.852-53.113 118.852 53.115c.001.001.155.059.403.153 2.505.952 5.291.899 7.755-.153.001 0 .001-.001.001-.001l122.932-54.938c3.601-1.609 5.92-5.185 5.92-9.129v-163.58zm-132.931 44.66-98.423-43.986 98.423-43.985 98.423 43.985zm-122.932-167.88c5.522 0 9.999-4.477 9.999-9.999v-23.203l102.933-46v141.674l-102.933 46.001v-28.064c0-5.523-4.477-10-9.999-10s-9.999 4.477-9.999 10v28.064l-102.933-46.001v-141.674l102.933 46v23.203c-.001 5.523 4.477 9.999 9.999 9.999zm0-138.609 98.424 43.986-98.424 43.984-98.424-43.985zm-122.932 218.518 98.424 43.985-98.424 43.986-98.423-43.986zm-112.933 59.407 103.204 46.122c-.177.745-.271 1.521-.271 2.32v139.233l-102.933-46.001zm122.661 46.121 103.204-46.121v141.675l-102.933 46.001v-139.235c0-.798-.094-1.575-.271-2.32zm123.203-46.121 103.204 46.122c-.177.745-.271 1.521-.271 2.32v139.233l-102.933-46.001zm122.932 187.675v-139.234c0-.799-.094-1.576-.271-2.32l103.204-46.122v141.675z"/><g><path d="m256 204.579c-4.232 0-8.112-2.774-9.47-6.786-1.28-3.78-.13-8.097 2.876-10.729 3.277-2.869 8.171-3.258 11.87-.97 3.546 2.194 5.38 6.532 4.488 10.604-.995 4.541-5.108 7.881-9.764 7.881z"/></g></g></g></svg>