<!-- Generated by IcoMoon.io -->
<svg version="1.1" xmlns="http://www.w3.org/2000/svg" width="100%" height="100%" viewBox="0 0 32 32">
<title>not-allowed</title>
<path d="M16 2.667c-7.36 0-13.333 5.973-13.333 13.333s5.973 13.333 13.333 13.333c7.36 0 13.333-5.973 13.333-13.333s-5.973-13.333-13.333-13.333zM5.333 16c0-5.893 4.773-10.667 10.667-10.667 2.467 0 4.733 0.84 6.533 2.253l-14.947 14.947c-1.413-1.8-2.253-4.067-2.253-6.533zM16 26.667c-2.467 0-4.733-0.84-6.533-2.253l14.947-14.947c1.413 1.8 2.253 4.067 2.253 6.533 0 5.893-4.773 10.667-10.667 10.667z"></path>
</svg>
