<svg width="32" height="32" viewBox="0 0 32 32" fill="none" xmlns="http://www.w3.org/2000/svg">
<path d="M15.9999 26.6667C15.2666 26.6667 14.6388 26.4056 14.1166 25.8833C13.5944 25.3611 13.3333 24.7333 13.3333 24C13.3333 23.2667 13.5944 22.6389 14.1166 22.1167C14.6388 21.5945 15.2666 21.3333 15.9999 21.3333C16.7333 21.3333 17.361 21.5945 17.8833 22.1167C18.4055 22.6389 18.6666 23.2667 18.6666 24C18.6666 24.7333 18.4055 25.3611 17.8833 25.8833C17.361 26.4056 16.7333 26.6667 15.9999 26.6667ZM15.9999 18.6667C15.2666 18.6667 14.6388 18.4056 14.1166 17.8833C13.5944 17.3611 13.3333 16.7333 13.3333 16C13.3333 15.2667 13.5944 14.6389 14.1166 14.1167C14.6388 13.5945 15.2666 13.3333 15.9999 13.3333C16.7333 13.3333 17.361 13.5945 17.8833 14.1167C18.4055 14.6389 18.6666 15.2667 18.6666 16C18.6666 16.7333 18.4055 17.3611 17.8833 17.8833C17.361 18.4056 16.7333 18.6667 15.9999 18.6667ZM15.9999 10.6667C15.2666 10.6667 14.6388 10.4056 14.1166 9.88334C13.5944 9.36112 13.3333 8.73334 13.3333 8.00001C13.3333 7.26668 13.5944 6.6389 14.1166 6.11668C14.6388 5.59445 15.2666 5.33334 15.9999 5.33334C16.7333 5.33334 17.361 5.59445 17.8833 6.11668C18.4055 6.6389 18.6666 7.26668 18.6666 8.00001C18.6666 8.73334 18.4055 9.36112 17.8833 9.88334C17.361 10.4056 16.7333 10.6667 15.9999 10.6667Z" fill="black"/>
</svg>
