<!-- Generated by IcoMoon.io -->
<svg version="1.1" xmlns="http://www.w3.org/2000/svg" width="32" height="32" viewBox="0 0 32 32">
<title>chart</title>
<path d="M27.973 32.051h-23.957c-2.208 0-4-1.792-4-4v-24.083c0-2.208 1.792-4 4-4h23.957c2.208 0 4 1.792 4 4v24.083c0 2.208-1.792 4-4 4zM27.997 2.683h-24.048c-0.712 0-1.288 0.576-1.288 1.285v24.045c0 0.709 0.576 1.288 1.288 1.288h24.048c0.712 0 1.288-0.579 1.288-1.288v-24.045c0-0.709-0.576-1.285-1.288-1.285zM9.333 13.333h2.667v9.333h-2.667v-9.333zM20 17.333h2.667v5.333h-2.667v-5.333zM14.667 9.333h2.667v13.333h-2.667v-13.333z"></path>
</svg>
