<!-- Generated by IcoMoon.io -->
<svg version="1.1" xmlns="http://www.w3.org/2000/svg" width="32" height="32" viewBox="0 0 32 32">
<title>cut</title>
<path d="M16.808 12.205c3.203-2.699 6.227-5.288 8.675-5.243 0.629 0.037 1.232 0.232 1.779 0.541l1.715 1.043c-2.701 2.192-5.341 4.56-8.043 6.803 2.707 2.117 5.373 4.291 8.043 6.459-2.256 1.371-4.325 2.024-7.389-0.213-1.408-1.027-3.011-2.235-4.392-3.288-2.475 1.84-5.043 3.469-7.784 4.672-2.611 1.149-6.784-0.453-5.672-3.963 0.568-1.789 2.093-2.931 3.747-3.701-2.656-1.427-4.624-4.013-3.624-6.195 0.669-1.461 1.904-2.205 3.947-2.155 2.541 0.157 4.715 2.149 6.968 3.76 0.68 0.485 1.36 0.981 2.032 1.48h0zM11.955 16.704c-3.197 0.144-7.987 4.181-4.261 4.021 1.448-0.064 2.835-1.4 4.331-2.424 0 0 0.171-1.6-0.069-1.597h0zM7.544 9.629c-0.195 0.008-0.387 0.037-0.571 0.099-0.12 0.040-0.237 0.093-0.347 0.16-1.941 1.197 2.893 3.725 5.373 3.763l0.024-1.597c-1.544-1.059-3.293-2.44-4.48-2.424l-0 0z"></path>
</svg>
