<!-- Generated by IcoMoon.io -->
<svg version="1.1" xmlns="http://www.w3.org/2000/svg" width="32" height="32" viewBox="0 0 32 32">
<title>data</title>
<path d="M4.892 22.118c-1.84 0-3.333 1.495-3.333 3.333 0 1.84 1.493 3.333 3.333 3.333s3.333-1.493 3.333-3.333c0-1.839-1.493-3.333-3.333-3.333zM30.441 22.118h-21.333v6.667h21.333v-6.667zM4.892 12.67c-1.84 0-3.333 1.493-3.333 3.333s1.493 3.333 3.333 3.333c1.84 0 3.333-1.493 3.333-3.333s-1.493-3.333-3.333-3.333zM30.441 12.667v6.667h-21.333v-6.667h21.333zM4.892 13.67c1.288 0 2.333 1.045 2.333 2.333s-1.045 2.333-2.333 2.333c-1.288 0-2.333-1.045-2.333-2.333s1.045-2.333 2.333-2.333zM30.441 3.215v6.667h-21.333v-6.667h21.333zM4.892 3.215c1.84 0 3.333 1.493 3.333 3.333s-1.493 3.333-3.333 3.333c-1.84 0-3.333-1.493-3.333-3.333s1.493-3.333 3.333-3.333z"></path>
</svg>
