<!-- Generated by IcoMoon.io -->
<svg version="1.1" xmlns="http://www.w3.org/2000/svg" width="32" height="32" viewBox="0 0 32 32">
<title>group</title>
<path d="M13.333 4h5.333v-2.667h10.667v8h-10.667v-2.667h-5.333v2.667h-5.333v5.333h10.667v-2.667h10.667v8h-10.667v-2.667h-10.667v8h10.667v-2.667h10.667v8h-10.667v-2.667h-13.333v-18.667h-2.667v-8h10.667v2.667l0-0zM26.667 25.333h-5.333v2.667h5.333v-2.667zM26.667 14.667h-5.333v2.667h5.333v-2.667zM26.667 4h-5.333v2.667h5.333v-2.667zM10.667 4h-5.333v2.667h5.333v-2.667z"></path>
</svg>
