<!-- Generated by IcoMoon.io -->
<svg version="1.1" xmlns="http://www.w3.org/2000/svg" width="32" height="32" viewBox="0 0 32 32">
<title>indeterminate</title>
<path d="M16.264 9.421c5.117 0.080 10.157 1.995 13.835 5.544l1.131 1.12c-7.875 7.784-21.085 9.075-29.328 1.12l-1.131-1.12c4.152-4.104 9.656-6.696 15.493-6.664zM23.461 13.642c-1.157 2.989-4.061 5.109-7.461 5.109s-6.301-2.12-7.461-5.109c-1.371 0.608-2.656 1.395-3.813 2.357l-0.099 0.085c6.189 5.293 16.299 5.381 22.648 0.085l0.099-0.085c-1.179-1.008-2.501-1.821-3.912-2.443l0-0zM18.672 14.752c-0.003-0.888-0.008-1.779-0.011-2.667l-0.336 0.003c-2.832 0.032-5.72 0.243-8.24 1.464l1.163 2.4c1.909-0.925 4.093-1.101 6.171-1.179 0.419-0.013 0.835-0.019 1.253-0.021z"></path>
</svg>
