<svg version="1.1" xmlns="http://www.w3.org/2000/svg" width="1024" height="1024" viewBox="0 0 1024 1024">
<title>Linked</title>
<path fill="#000" d="M653.224 370.782c119.494 119.618 117.854 311.396 0.72 429.18-0.22 0.24-0.48 0.5-0.72 0.74l-134.4 134.4c-118.54 118.54-311.398 118.524-429.92 0-118.54-118.52-118.54-311.4 0-429.92l74.212-74.212c19.68-19.68 53.572-6.6 54.588 21.212 1.296 35.444 7.652 71.054 19.38 105.442 3.972 11.644 1.134 24.524-7.566 33.224l-26.174 26.174c-56.052 56.052-57.81 147.32-2.31 203.92 56.048 57.158 148.172 57.498 204.65 1.020l134.4-134.38c56.382-56.382 56.146-147.514 0-203.66-7.402-7.388-14.858-13.128-20.682-17.138-8.122-5.632-13.481-14.755-13.892-25.151l-0.002-0.061c-0.792-21.134 6.696-42.912 23.396-59.612l42.108-42.11c11.042-11.042 28.364-12.398 41.168-3.462 15.28 10.741 28.689 22.040 41.044 34.394v0zM935.094 88.898c-118.522-118.524-311.38-118.54-429.92 0l-134.4 134.4c-0.24 0.24-0.5 0.5-0.72 0.74-117.132 117.784-118.774 309.562 0.72 429.18 12.354 12.354 25.763 23.652 40.080 33.749l0.962 0.643c12.804 8.936 30.128 7.578 41.168-3.462l42.108-42.11c16.7-16.7 24.188-38.478 23.396-59.612-0.413-10.457-5.772-19.58-13.788-25.142l-0.106-0.070c-5.824-4.010-13.28-9.75-20.682-17.138-56.146-56.146-56.382-147.278 0-203.66l134.4-134.38c56.478-56.478 148.6-56.138 204.65 1.020 55.5 56.6 53.744 147.868-2.31 203.92l-26.174 26.174c-8.7 8.7-11.538 21.58-7.566 33.224 11.728 34.388 18.084 69.998 19.38 105.442 1.018 27.812 34.908 40.892 54.588 21.212l74.212-74.212c118.542-118.518 118.542-311.398 0.002-429.918z"></path>
</svg>
