<!-- Generated by IcoMoon.io -->
<svg version="1.1" xmlns="http://www.w3.org/2000/svg" width="32" height="32" viewBox="0 0 32 32">
<title>loading</title>
<path d="M18.667 9.562l4.875-4.877 3.773 3.773-4.877 4.875h6.896v5.333h-6.896c1.625 1.625 3.252 3.25 4.877 4.875l-3.773 3.773-4.875-4.877v6.896h-5.333v-6.896l-4.875 4.877-3.773-3.773 4.877-4.875h-6.896v-5.333h6.896l-4.877-4.875 3.773-3.773c1.625 1.625 3.25 3.252 4.875 4.877v-6.896h5.333v6.896zM13.791 21.333h4.417l3.125-3.125v-4.416l-3.125-3.125h-4.416l-3.125 3.125v4.417c1.041 1.043 2.082 2.084 3.125 3.125z"></path>
</svg>
