<svg version="1.1" xmlns="http://www.w3.org/2000/svg" width="1024" height="1024" viewBox="0 0 1024 1024">
<title>Unlinked</title>
<path fill="#000" d="M608.166 811.814c9.372 9.372 9.372 24.568 0 33.942l-89.348 89.348c-118.526 118.524-311.386 118.532-429.922 0-118.528-118.53-118.528-311.392 0-429.92l89.35-89.35c9.372-9.372 24.568-9.372 33.942 0l79.196 79.196c9.372 9.372 9.372 24.568 0 33.942l-89.35 89.348c-56.144 56.146-56.144 147.5 0 203.646 56.144 56.144 147.5 56.146 203.648 0l89.348-89.348c9.372-9.372 24.568-9.372 33.942 0l79.194 79.196zM495.030 291.382c9.372 9.372 24.568 9.372 33.942 0l89.348-89.348c56.144-56.15 147.5-56.146 203.648 0 56.144 56.146 56.144 147.5 0 203.646l-89.35 89.348c-9.372 9.372-9.372 24.568 0 33.942l79.196 79.196c9.372 9.372 24.568 9.372 33.942 0l89.35-89.35c118.53-118.53 118.53-311.39 0-429.92-118.532-118.528-311.39-118.528-429.922 0l-89.348 89.348c-9.372 9.372-9.372 24.568 0 33.942l79.194 79.196zM964.686 1009.942l45.254-45.254c18.746-18.746 18.746-49.138 0-67.882l-882.744-882.748c-18.746-18.746-49.138-18.746-67.882 0l-45.256 45.256c-18.746 18.746-18.746 49.138 0 67.882l882.746 882.746c18.746 18.744 49.138 18.744 67.882 0z"></path>
</svg>
