<svg width="312" height="103" xmlns="http://www.w3.org/2000/svg"><g fill="none" fill-rule="evenodd"><circle stroke="#0084E7" cx="308.5" cy="39.5" r="3"/><circle stroke="#0084E7" cx="234.5" cy="3.5" r="3"/><path d="M.5 59.5h305.105M.5 79.5h305.105M.5 99.5h305.105" stroke="#0084E7" stroke-linecap="square"/><path d="M6.5 44.5h10v10h-10zM6.5 64.5h10v10h-10z" stroke="#0084E7"/><g stroke="#8ABDE3"><path d="M6.5 63.5h10v10h-10z"/><path d="M7.245 62.853l9.902 1.392-1.392 9.902-9.902-1.392z"/></g><g stroke="#0084E7"><path d="M6.5 84.5h10v10h-10z"/><path d="M6.163 84.861l9.976-.698.698 9.976-9.976.698z"/></g><path stroke="#8ABDE3" stroke-linecap="square" d="M10 68.5l2.761 2.761 7.317-7.317"/><path d="M114.5 36.5v65.008M234.5 6.5v95.008M.5 39.5h305.105" stroke="#0084E7" stroke-linecap="square"/><path stroke="#8ABDE3" d="M.5 58.5h305v19H.5z"/></g></svg>