<svg width="194" height="174" xmlns="http://www.w3.org/2000/svg"><g fill="none" fill-rule="evenodd"><path d="M17.5 35.5h170M17.5 55.5l170-2M6.5 75.5l170-2M16.5 95.5l170-2M16.5 115.5l150-2M16.5 135.5l170-1" stroke="#0084E7" stroke-linecap="square"/><path stroke="#8ABDE3" d="M23.5 3.5h137v30h-137z"/><path stroke="#8ABDE3" stroke-linecap="square" d="M162 1l-2.429 33L163 30.78M22.5 1.81l2 32.38M154.5 14.5h-10M154.5 17.5h-10M154.5 20.5h-10"/><circle stroke="#0084E7" cx="190.5" cy="35.5" r="3"/><circle stroke="#0084E7" cx="3.5" cy="75.5" r="3"/><circle stroke="#0084E7" cx="179.5" cy="73.5" r="3"/><path d="M162.5.5v172.008M22.5.5v152.008" stroke="#0084E7" stroke-linecap="square"/><path stroke="#8ABDE3" stroke-linecap="square" d="M36 19.5l2.5-2.5 2.5 2.5M49 17l-2 2-2-2"/></g></svg>