<svg width="360" height="117" xmlns="http://www.w3.org/2000/svg"><g fill="none" fill-rule="evenodd"><path d="M10.5 56.5h339M10.5 76.5h339M29.5 96.5l330-2M276.5 36.5v74" stroke="#0084E7" stroke-linecap="square"/><path d="M136.5 6.5v89" stroke="#087FFF" stroke-linecap="square"/><path d="M31.5 18.5v79" stroke="#0084E7" stroke-linecap="square"/><path stroke="#8ABDE3" d="M136.5 55.5h137v18h-137z"/><path stroke="#8ABDE3" stroke-linecap="square" d="M272.5 56l1 17.5 2-1M137.5 54.5l-1 20"/><g stroke="#8ABDE3" stroke-linecap="square"><path d="M144.5 60.5v9M145.5 59.5h-2M145.5 69.5h-2"/></g><path d="M124.5 90l4.763-8.25h-9.526L124.5 90z" stroke="#8ABDE3"/><path d="M124.5 90.5l4-10M127.5 81.5h-9" stroke="#8ABDE3" stroke-linecap="square"/><path d="M5.5 81.5a5 5 0 1 0 0-10 5 5 0 0 0 0 10z" stroke="#0084E7"/><circle stroke="#087FFF" cx="136.5" cy="3.5" r="3"/><circle stroke="#0084E7" cx="276.5" cy="113.5" r="3"/><path d="M10.5 36.5h339" stroke="#0084E7" stroke-linecap="square"/></g></svg>