<svg width="218" height="42" xmlns="http://www.w3.org/2000/svg"><g fill="none" fill-rule="evenodd"><path stroke="#8ABDE3" d="M10.5 12.5h137v18h-137z"/><path stroke="#8ABDE3" stroke-linecap="square" d="M147 11l.5 20.5 3-2M11.5 11.5l-1 20"/><g stroke="#8ABDE3" stroke-linecap="square"><path d="M20.5 17.5v9M21.5 16.5h-2M21.5 26.5h-2"/></g><circle stroke="#0084E7" cx="214.5" cy="3.5" r="3"/><path stroke="#0084E7" d="M4.5 3.5h201v38H4.5z"/><path d="M205.5.5v15M198.5 3.5h13M.5 3.5h13M1.5 41.5h13" stroke="#0084E7" stroke-linecap="square"/><path d="M178 15v.975a.5.5 0 0 0 .146.353l6.026 6.026a1.5 1.5 0 0 1 .44 1.06v5.197l2.777-2.083v-3.114c0-.398.158-.78.44-1.06l6.025-6.026a.5.5 0 0 0 .146-.353V15h-16z" stroke="#8ABDE3"/></g></svg>