<svg width="170" height="126" xmlns="http://www.w3.org/2000/svg"><g fill="none" fill-rule="evenodd"><path stroke="#0084E7" d="M81.5 1.5h39v19h-39zM81.5 20.5h39v19h-39z"/><path stroke="#0084E7" d="M82.21 38.163l38.905 2.72-1.325 18.954-38.905-2.72z"/><path stroke="#0084E7" d="M81.5 58.5h39v19h-39z"/><path stroke="#0084E7" d="M81.03 78.534l38.946-2.042.994 18.974-38.946 2.042z"/><path stroke="#0084E7" d="M81.5 96.5h39v19h-39zM119.5 11.5h39v19h-39zM119.5 30.5h39v19h-39zM119.5 49.5h39v19h-39zM119.5 68.5h39v19h-39zM2.5 12.5h39v19h-39zM2.5 31.5h39v19h-39zM2.5 50.5h39v19h-39zM2.5 69.5h39v19h-39zM2.5 89.5h39v19h-39z"/><path stroke="#0084E7" d="M119.843 86.825l38.977 1.361-.663 18.989-38.977-1.361z"/><path stroke="#0084E7" d="M119.5 106.5h39v19h-39zM42.5.5h39v19h-39zM42.5 19.5h39v19h-39zM42.5 38.5h39v19h-39z"/><circle stroke="#8ABDE3" cx="120.5" cy="77.5" r="4"/><path stroke="#0084E7" d="M42.5 57.5h39v19h-39z"/><path stroke="#0084E7" d="M42.669 76.161l38.994.68-.332 18.998-38.994-.68z"/><path stroke="#0084E7" d="M42.5 95.5h39v19h-39z"/><path stroke="#8ABDE3" d="M42.5 19.5h78v58h-78z"/><path stroke="#8ABDE3" d="M2.5 54.5h78v58h-78z"/><path d="M144.5 30.5h19.026M140.5 11.5h19.026M.5 12.5h19.026M140.5 87.5h19.026" stroke="#0084E7" stroke-linecap="square"/><circle stroke="#087FFF" cx="166.5" cy="29.5" r="3"/></g></svg>