<?xml version="1.0" encoding="UTF-8"?>
<svg width="208px" height="136px" viewBox="0 0 208 136" version="1.1" xmlns="http://www.w3.org/2000/svg" xmlns:xlink="http://www.w3.org/1999/xlink">
    <!-- Generator: Sketch 47.1 (45422) - http://www.bohemiancoding.com/sketch -->
    <title>tree-data</title>
    <desc>Created with Sketch.</desc>
    <defs></defs>
    <g id="Chalkboard-Copy" stroke="none" stroke-width="1" fill="none" fill-rule="evenodd">
        <g id="Desktop-HD" transform="translate(-512.000000, -95.000000)">
            <g id="tree-data" transform="translate(512.000000, 95.000000)">
                <path d="M0.5,26.5 L199,26.5" id="Line-Copy-8" stroke="#0084E7" stroke-linecap="square"></path>
                <path d="M5.5,46.5 L197,46.5" id="Line-Copy-7" stroke="#0084E7" stroke-linecap="square"></path>
                <circle id="Oval-Copy-8" stroke="#0084E7" cx="202.5" cy="106.5" r="3"></circle>
                <circle id="Oval-Copy-9" stroke="#0084E7" cx="204.5" cy="66.5" r="3"></circle>
                <path d="M2.5,6.5 L166,6.5" id="Line-Copy-7" stroke="#0084E7" stroke-linecap="square"></path>
                <path d="M37.5,86.5 L167.5,86.5" id="Line-Copy-11" stroke="#0084E7" stroke-linecap="square"></path>
                <path d="M37.5,87.5 L167.5,86.5" id="Line-Copy-20" stroke="#0084E7" stroke-linecap="square"></path>
                <path d="M5.5,106.5 L199,106.5" id="Line-Copy-10" stroke="#0084E7" stroke-linecap="square"></path>
                <path d="M5.5,126.5 L199,126.5" id="Line-Copy-18" stroke="#0084E7" stroke-linecap="square"></path>
                <path d="M35.5,66.5 L201,66.5" id="Line-Copy-9" stroke="#0084E7" stroke-linecap="square"></path>
                <path d="M14.5,116.5 L10.5,116.5" id="Line-6" stroke="#8ABDE3" stroke-linecap="square"></path>
                <path d="M12.5,114.5 L12.5,118.5" id="Line-7" stroke="#8ABDE3" stroke-linecap="square"></path>
                <g id="Group-2-Copy" transform="translate(50.000000, 94.000000)" stroke="#8ABDE3" stroke-linecap="square">
                    <path d="M4.5,2.5 L0.5,2.5" id="Line-6"></path>
                    <path d="M2.5,0.5 L2.5,4.5" id="Line-7"></path>
                </g>
                <g id="Group-2-Copy-2" transform="translate(50.000000, 74.000000)" stroke="#8ABDE3" stroke-linecap="square">
                    <path d="M4.5,2.5 L0.5,2.5" id="Line-6"></path>
                    <path d="M2.5,0.5 L2.5,4.5" id="Line-7"></path>
                </g>
                <g id="Group-2-Copy-3" transform="translate(50.000000, 54.000000)" stroke="#8ABDE3" stroke-linecap="square">
                    <path d="M4.5,2.5 L0.5,2.5" id="Line-6"></path>
                    <path d="M2.5,0.5 L2.5,4.5" id="Line-7"></path>
                </g>
                <g id="Group-2-Copy-4" transform="translate(10.000000, 35.000000)" stroke="#8ABDE3" stroke-linecap="square">
                    <path d="M4.5,1.5 L0.5,1.5" id="Line-6"></path>
                </g>
                <path d="M149.5,2.5 L149.5,134.508333" id="Line-8" stroke="#0084E7" stroke-linecap="square"></path>
                <path d="M148.5,0.5 L149.5,132.508333" id="Line-8-Copy-3" stroke="#0084E7" stroke-linecap="square"></path>
            </g>
        </g>
    </g>
</svg>