<!-- Generator: Adobe Illustrator 19.1.0, SVG Export Plug-In . SVG Version: 6.00 Build 0)  -->
<svg class="share-icon" version="1.1" id="Capa_1" xmlns="http://www.w3.org/2000/svg" xmlns:xlink="http://www.w3.org/1999/xlink" x="0px" y="0px"
	 viewBox="41 -24.8 97.8 97.8" style="enable-background:new 41 -24.8 97.8 97.8;" xml:space="preserve">
<style type="text/css">
	.stgoogle0{fill:#DB4936;}
	.stgoogle1{fill:#FFFFFF;}
</style>
<g>
	<path class="stgoogle0" d="M91.7,8.9c0-6.8-4-17.3-11.8-17.3c-2.4,0-5.1,1.2-6.6,3.1c-1.6,2-2.1,4.5-2.1,7c0,6.3,3.7,16.7,11.7,16.7
		c2.3,0,4.9-1.1,6.4-2.6C91.5,13.6,91.7,10.6,91.7,8.9z"/>
	<path class="stgoogle0" d="M86.7,33.7c-0.7-0.1-1.2-0.1-2.2-0.1c-0.8,0-5.9,0.2-9.9,1.5c-2.1,0.7-8.1,3-8.1,9.7c0,6.7,6.5,11.5,16.5,11.5
		c9,0,13.8-4.3,13.8-10.2C96.9,41.3,93.8,38.7,86.7,33.7z"/>
	<circle class="stgoogle0" cx="89.9" cy="24.1" r="48.9"/>
	<path class="stgoogle1" d="M78.5,60.2c-13.6,0-20.2-6.5-20.2-13.5c0-3.4,1.7-8.2,7.2-11.5c5.8-3.6,13.7-4,17.9-4.3
		c-1.3-1.7-2.8-3.5-2.8-6.4c0-1.6,0.5-2.5,0.9-3.7c-1,0.1-2.1,0.2-3,0.2C68.6,21.1,63,13.6,63,6.3c0-4.3,2-9.1,6-12.6
		c5.4-4.4,12.7-5.6,17.7-5.6h18.5l-6.1,3.8h-5.8c2.2,1.8,6.7,5.5,6.7,12.7c0,7-3.9,10.3-7.9,13.4c-1.2,1.2-2.6,2.5-2.6,4.6
		c0,2.1,1.4,3.2,2.4,4l3.4,2.6c4.1,3.5,7.9,6.7,7.9,13.2C103.2,51.3,94.6,60.2,78.5,60.2z"/>
	<polygon class="stgoogle1" points="119,23 119,32.4 114.4,32.4 114.4,23 105,23 105,18.3 114.4,18.3 114.4,8.9 119,8.9 119,18.3
		128.4,18.3 128.4,23 	"/>
</g>
<path class="stgoogle0" d="M91.7,8.9c0-6.8-4-17.3-11.8-17.3c-2.4,0-5.1,1.2-6.6,3.1c-1.6,2-2.1,4.5-2.1,7c0,6.3,3.7,16.7,11.7,16.7
	c2.3,0,4.9-1.1,6.4-2.6C91.5,13.6,91.7,10.6,91.7,8.9z"/>
<path class="stgoogle0" d="M86.7,33.7c-0.7-0.1-1.2-0.1-2.2-0.1c-0.8,0-5.9,0.2-9.9,1.5c-2.1,0.7-8.1,3-8.1,9.7c0,6.7,6.5,11.5,16.5,11.5
	c9,0,13.8-4.3,13.8-10.2C96.9,41.3,93.8,38.7,86.7,33.7z"/>
</svg>
