<!-- Generator: Adobe Illustrator 19.1.0, SVG Export Plug-In . SVG Version: 6.00 Build 0)  -->
<svg class="share-icon" version="1.1" id="Capa_1" xmlns="http://www.w3.org/2000/svg" xmlns:xlink="http://www.w3.org/1999/xlink" x="0px" y="0px"
	 viewBox="41 -24.8 97.8 97.8" style="enable-background:new 41 -24.8 97.8 97.8;" xml:space="preserve">
<style type="text/css">
	.stli0{fill:#007BB6;}
	.stli1{fill:#FFFFFF;}
</style>
<circle class="stli0" cx="89.9" cy="24.1" r="48.9"/>
<rect x="57.8" y="13" class="stli1" width="13.7" height="44.2"/>
<path class="stli1" d="M64.7,7c-4.4,0-8-3.6-8-8c0-4.4,3.6-8,8-8c4.4,0,8,3.6,8,8C72.7,3.4,69.1,7,64.7,7z"/>
<path class="stli1" d="M123,57.2h-13.7V35.7c0-5.1-0.1-11.7-7.1-11.7c-7.1,0-8.2,5.6-8.2,11.4v21.9H80.2V13h13.2v6h0.2
	c1.8-3.5,6.3-7.1,13-7.1c13.9,0,16.5,9.2,16.5,21.1C123,33,123,57.2,123,57.2z"/>
</svg>
