<!-- Generated by IcoMoon.io -->
<svg version="1.1" xmlns="http://www.w3.org/2000/svg" width="100%" height="100%" viewBox="0 0 32 32">
<title>linked</title>
<path d="M17.138 13.418c-0.174 0.175-0.282 0.411-0.298 0.658 0 0 0.125 0.096 0.226 0.178 1.372 1.114 2.033 3.039 1.582 4.796-0.205 0.797-0.627 1.535-1.205 2.123-1.145 1.151-2.296 2.294-3.445 3.441-1.241 1.232-3.185 1.691-4.864 1.105-1.546-0.54-2.756-1.938-3.048-3.572-0.267-1.496 0.246-3.108 1.319-4.186l0.578-0.578c-0.010-0.031-0.020-0.061-0.030-0.092-0.237-0.748-0.387-1.519-0.452-2.3l-0-0.005c-0.776 0.775-1.621 1.489-2.275 2.396-1.817 2.522-1.643 6.323 0.706 8.669 1.813 1.811 4.708 2.462 7.171 1.517 0.873-0.335 1.672-0.857 2.336-1.518l3.427-3.424c1.939-1.954 2.533-5.126 1.294-7.674-0.476-0.978-1.198-1.837-2.071-2.481l-0.003-0.002c-0.316 0.316-0.633 0.632-0.949 0.948zM21.265 4c-1.751 0.008-3.48 0.716-4.734 1.964l-3.427 3.424c-1.961 1.977-2.52 5.092-1.32 7.619 0.475 1 1.207 1.881 2.098 2.537l0.003 0.002c0.32-0.32 0.643-0.637 0.96-0.96 0.167-0.172 0.27-0.401 0.286-0.64 0 0-0.116-0.096-0.204-0.167-1.603-1.287-2.215-3.68-1.316-5.616 0.227-0.489 0.541-0.936 0.918-1.32 1.145-1.151 2.296-2.294 3.445-3.441 1.239-1.23 3.178-1.694 4.864-1.105 1.83 0.639 3.16 2.498 3.12 4.493-0.024 1.212-0.533 2.402-1.391 3.265l-0.578 0.578c0.010 0.031 0.020 0.061 0.030 0.092 0.235 0.743 0.387 1.519 0.452 2.3l0 0.005c0.732-0.731 1.521-1.406 2.162-2.244 1.192-1.559 1.643-3.651 1.204-5.575-0.473-2.076-1.989-3.883-3.98-4.703-0.799-0.329-1.659-0.5-2.529-0.506-0.020-0-0.040-0-0.061-0z"></path>
</svg>
