<!-- Generated by IcoMoon.io -->
<svg version="1.1" xmlns="http://www.w3.org/2000/svg" width="100%" height="100%" viewBox="0 0 32 32">
<title>pin</title>
<path d="M10.78 19.777l-4.668-4.666c0 0 0.032-1 0.67-1.87 1.366-1.86 4.052-1.96 6.056-1.572l3.158-3.108c-0.7-2.342 3.352-5.046 3.352-5.046 3.054 3.056 6.11 6.112 9.166 9.168-0.222 0.298-0.446 0.596-0.67 0.894-1.074 1.426-2.538 2.63-4.272 2.338l-3.32 3.218c0.046 0.344 0.042 0.030 0.118 1.152 0.144 2.13-0.64 4.324-2.632 5.34l-0.746 0.364-4.798-4.798-7.292 7.294-1.416-1.416 7.294-7.292zM19.020 6.105c-0.688 0.568-1.416 1.45-1.024 2.072l0.49 0.722-4.986 4.988c-1.988-0.506-4.346-0.636-5.156 0.614l9.020 9.032c0.094-0.066 0.184-0.136 0.272-0.21 1.226-1.080 0.764-3.040 0.498-4.9l4.79-4.79c0 0 1.47 0.938 2.936-0.776l-6.79-6.79c-0.018 0.012-0.034 0.026-0.050 0.038z"></path>
</svg>
