<?xml version="1.0" encoding="utf-8"?>
<!-- Generator: Adobe Illustrator 22.0.0, SVG Export Plug-In . SVG Version: 6.00 Build 0)  -->
<svg version="1.1" id="Capa_1" xmlns="http://www.w3.org/2000/svg" xmlns:xlink="http://www.w3.org/1999/xlink" x="0px" y="0px"
	 viewBox="0 0 24 24" style="enable-background:new 0 0 24 24;" xml:space="preserve">
<style type="text/css">
	.st0{fill:#686868;}
	.st1{filter:url(#Adobe_OpacityMaskFilter);}
	.st2{fill:#FFFFFF;}
	.st3{mask:url(#b_1_);}
</style>
<g>
	<g transform="translate(2)">
		<g>
			<path id="a_1_" class="st0" d="M10,2.8c-1.4,0-2.6,0.1-3.8,0.4C5,3.4,4.1,3.7,3.4,4.1c-0.7,0.4-1,0.8-1,1.3v0.2
				c0,0.5,0.3,0.9,1,1.3c0.7,0.4,1.6,0.7,2.8,1C7.4,8.2,8.6,8.3,10,8.3s2.6-0.1,3.8-0.4c1.2-0.2,2.1-0.6,2.8-1c0.7-0.4,1-0.8,1-1.3
				V5.5c0-0.5-0.3-0.9-1-1.3s-1.6-0.7-2.8-1C12.6,2.9,11.4,2.8,10,2.8z M17.6,8.6c-0.8,0.6-1.9,1-3.3,1.3c-1.3,0.3-2.8,0.4-4.3,0.4
				s-3-0.1-4.3-0.4C4.3,9.6,3.2,9.2,2.4,8.6v1.1c0,0.5,0.3,0.9,1,1.3c0.7,0.4,1.6,0.7,2.8,1c1.2,0.2,2.4,0.4,3.8,0.4
				s2.6-0.1,3.8-0.4c1.2-0.2,2.1-0.6,2.8-1c0.7-0.4,1-0.8,1-1.3L17.6,8.6L17.6,8.6z M17.6,12.7c-0.8,0.6-1.9,1-3.3,1.3
				c-1.3,0.3-2.8,0.4-4.3,0.4s-3-0.1-4.3-0.4c-1.4-0.3-2.5-0.8-3.3-1.3v1.2c0,0.5,0.3,0.9,1,1.3c0.7,0.4,1.6,0.7,2.8,1
				c1.2,0.2,2.4,0.4,3.8,0.4s2.6-0.1,3.8-0.4c1.2-0.2,2.1-0.6,2.8-1c0.7-0.4,1-0.8,1-1.3L17.6,12.7L17.6,12.7z M17.6,16.9
				c-0.8,0.6-1.9,1-3.3,1.3c-1.3,0.3-2.8,0.4-4.3,0.4s-3-0.1-4.3-0.4c-1.4-0.3-2.5-0.8-3.3-1.3V18c0,0.5,0.3,0.9,1,1.3
				c0.7,0.4,1.6,0.7,2.8,1c1.2,0.2,2.4,0.4,3.8,0.4s2.6-0.1,3.8-0.4c1.2-0.2,2.1-0.6,2.8-1c0.7-0.4,1-0.8,1-1.3L17.6,16.9L17.6,16.9
				z M10,0.8c1.5,0,2.9,0.1,4.2,0.4c1.6,0.3,2.9,0.8,3.8,1.5c1.1,0.8,1.7,1.7,1.7,2.9V18c0,1.1-0.6,2.1-1.7,2.9
				c-0.9,0.7-2.2,1.1-3.8,1.5c-1.4,0.3-2.8,0.4-4.2,0.4c-1.5,0-2.8-0.1-4.2-0.4C4.2,22,3,21.6,2.1,20.9c-1.1-0.8-1.7-1.7-1.7-2.9
				V5.5c0-1.1,0.6-2.1,1.7-2.9C3,1.9,4.2,1.5,5.8,1.1C7.2,0.9,8.6,0.7,10,0.8z"/>
		</g>
		<defs>
			<filter id="Adobe_OpacityMaskFilter" filterUnits="userSpaceOnUse" x="-2" y="0" width="24" height="24">
				<feColorMatrix  type="matrix" values="1 0 0 0 0  0 1 0 0 0  0 0 1 0 0  0 0 0 1 0"/>
			</filter>
		</defs>
		<mask maskUnits="userSpaceOnUse" x="-2" y="0" width="24" height="24" id="b_1_">
			<g class="st1">
				<path id="a_2_" class="st2" d="M10,2.8c-1.4,0-2.6,0.1-3.8,0.4C5,3.4,4.1,3.7,3.4,4.1c-0.7,0.4-1,0.8-1,1.3v0.2
					c0,0.5,0.3,0.9,1,1.3c0.7,0.4,1.6,0.7,2.8,1C7.4,8.2,8.6,8.3,10,8.3s2.6-0.1,3.8-0.4c1.2-0.2,2.1-0.6,2.8-1c0.7-0.4,1-0.8,1-1.3
					V5.5c0-0.5-0.3-0.9-1-1.3s-1.6-0.7-2.8-1C12.6,2.9,11.4,2.8,10,2.8z M17.6,8.6c-0.8,0.6-1.9,1-3.3,1.3c-1.3,0.3-2.8,0.4-4.3,0.4
					s-3-0.1-4.3-0.4C4.3,9.6,3.2,9.2,2.4,8.6v1.1c0,0.5,0.3,0.9,1,1.3c0.7,0.4,1.6,0.7,2.8,1c1.2,0.2,2.4,0.4,3.8,0.4
					s2.6-0.1,3.8-0.4c1.2-0.2,2.1-0.6,2.8-1c0.7-0.4,1-0.8,1-1.3L17.6,8.6L17.6,8.6z M17.6,12.7c-0.8,0.6-1.9,1-3.3,1.3
					c-1.3,0.3-2.8,0.4-4.3,0.4s-3-0.1-4.3-0.4c-1.4-0.3-2.5-0.8-3.3-1.3v1.2c0,0.5,0.3,0.9,1,1.3c0.7,0.4,1.6,0.7,2.8,1
					c1.2,0.2,2.4,0.4,3.8,0.4s2.6-0.1,3.8-0.4c1.2-0.2,2.1-0.6,2.8-1c0.7-0.4,1-0.8,1-1.3L17.6,12.7L17.6,12.7z M17.6,16.9
					c-0.8,0.6-1.9,1-3.3,1.3c-1.3,0.3-2.8,0.4-4.3,0.4s-3-0.1-4.3-0.4c-1.4-0.3-2.5-0.8-3.3-1.3V18c0,0.5,0.3,0.9,1,1.3
					c0.7,0.4,1.6,0.7,2.8,1c1.2,0.2,2.4,0.4,3.8,0.4s2.6-0.1,3.8-0.4c1.2-0.2,2.1-0.6,2.8-1c0.7-0.4,1-0.8,1-1.3L17.6,16.9
					L17.6,16.9z M10,0.8c1.5,0,2.9,0.1,4.2,0.4c1.6,0.3,2.9,0.8,3.8,1.5c1.1,0.8,1.7,1.7,1.7,2.9V18c0,1.1-0.6,2.1-1.7,2.9
					c-0.9,0.7-2.2,1.1-3.8,1.5c-1.4,0.3-2.8,0.4-4.2,0.4c-1.5,0-2.8-0.1-4.2-0.4C4.2,22,3,21.6,2.1,20.9c-1.1-0.8-1.7-1.7-1.7-2.9
					V5.5c0-1.1,0.6-2.1,1.7-2.9C3,1.9,4.2,1.5,5.8,1.1C7.2,0.9,8.6,0.7,10,0.8z"/>
			</g>
		</mask>
		<g class="st3">
			<path class="st0" d="M-2,0h24v24H-2V0z"/>
		</g>
	</g>
</g>
</svg>
