<?xml version="1.0" encoding="utf-8"?>
<!-- Generator: Adobe Illustrator 22.0.0, SVG Export Plug-In . SVG Version: 6.00 Build 0)  -->
<svg version="1.1" id="Capa_1" xmlns="http://www.w3.org/2000/svg" xmlns:xlink="http://www.w3.org/1999/xlink" x="0px" y="0px"
	 viewBox="0 0 24 24" style="enable-background:new 0 0 24 24;" xml:space="preserve">
<style type="text/css">
	.st0{fill:#686868;}
	.st1{filter:url(#Adobe_OpacityMaskFilter);}
	.st2{fill:#FFFFFF;}
	.st3{mask:url(#b_1_);}
</style>
<g>
	<g transform="translate(1 4)">
		<g>
			<path id="a_1_" class="st0" d="M7.8,15.6c-0.6,0-1.2-0.1-1.8-0.2c-0.2,0-0.3-0.1-0.4-0.3c-0.1-0.1-0.2-0.3-0.2-0.5v-1
				c-0.3-0.1-0.6-0.3-0.8-0.5l-0.8,0.5c-0.1,0.1-0.3,0.1-0.5,0.1c-0.2,0-0.3-0.1-0.5-0.2c-0.5-0.5-0.9-1-1.2-1.5
				c-0.2-0.4-0.4-0.9-0.6-1.6c0-0.2,0-0.4,0-0.5c0.1-0.2,0.2-0.3,0.3-0.4l0.8-0.5c0-0.3,0-0.6,0-1L1.4,7.7C1.2,7.6,1.1,7.5,1,7.3
				C1,7.1,1,7,1,6.8c0.2-0.7,0.4-1.2,0.6-1.6c0.3-0.4,0.7-0.9,1.2-1.5c0.1-0.1,0.3-0.2,0.5-0.2c0.2,0,0.3,0,0.5,0.1L4.6,4
				c0.2-0.2,0.5-0.3,0.8-0.5v-1c0-0.2,0.1-0.3,0.2-0.5C5.7,2,5.8,1.9,6,1.9c0.7-0.2,1.3-0.2,1.8-0.2s1.1,0.1,1.8,0.2
				C9.7,1.9,9.9,2,10,2.2c0.1,0.1,0.2,0.3,0.2,0.5v1C10.4,3.7,10.7,3.9,11,4l0.8-0.5c0.1-0.1,0.3-0.1,0.5-0.1c0.2,0,0.3,0.1,0.5,0.2
				c0.5,0.5,0.8,1,1.1,1.4c0.3,0.6,0.6,1.1,0.7,1.8c0,0.1,0,0.3-0.1,0.4c-0.1,0.1-0.2,0.3-0.3,0.3l-0.8,0.5c0,0.3,0,0.7,0,1l0.8,0.5
				c0.1,0.1,0.2,0.2,0.3,0.3c0.1,0.1,0.1,0.3,0.1,0.4c-0.1,0.6-0.4,1.2-0.7,1.7c-0.3,0.5-0.6,0.9-1.1,1.4c-0.1,0.1-0.3,0.2-0.5,0.2
				c-0.2,0-0.3,0-0.5-0.1L11,13.2c-0.3,0.2-0.6,0.4-0.8,0.5v1c0,0.2-0.1,0.3-0.2,0.5c-0.1,0.1-0.2,0.2-0.4,0.3
				C9,15.6,8.4,15.6,7.8,15.6z M6.9,14c0.6,0.1,1.2,0.1,1.7,0v-1.4l0.5-0.2c0.5-0.2,0.9-0.4,1.3-0.8l0.4-0.3l1.2,0.7
				c0.4-0.4,0.6-0.9,0.8-1.5l-1.2-0.7l0.1-0.5c0.1-0.5,0.1-1,0-1.5l-0.1-0.5l1.2-0.7c-0.2-0.5-0.5-1-0.8-1.5l-1.2,0.7l-0.4-0.3
				c-0.4-0.3-0.8-0.6-1.3-0.8L8.7,4.6V3.2c-0.6-0.1-1.2-0.1-1.8,0v1.4L6.4,4.8C5.9,5,5.5,5.2,5.1,5.5L4.7,5.9L3.5,5.2
				c-0.4,0.4-0.7,1-0.9,1.5l1.2,0.7L3.8,7.9c-0.1,0.5-0.1,1,0,1.5l0.1,0.5l-1.2,0.7c0.2,0.5,0.5,1,0.8,1.5l1.2-0.7l0.4,0.3
				c0.4,0.3,0.8,0.6,1.3,0.8l0.5,0.2L6.9,14L6.9,14z M7.8,11.4c-0.8,0-1.4-0.3-2-0.8C5.3,10.1,5,9.4,5,8.7c0-0.8,0.3-1.4,0.8-2
				c0.5-0.5,1.2-0.8,2-0.8c0.8,0,1.4,0.3,2,0.8c0.5,0.5,0.8,1.2,0.8,2c0,0.8-0.3,1.4-0.8,2C9.2,11.1,8.5,11.4,7.8,11.4z M7.8,7.4
				c-0.4,0-0.7,0.1-0.9,0.4C6.6,8,6.5,8.3,6.5,8.6c0,0.4,0.1,0.7,0.4,0.9c0.2,0.2,0.5,0.4,0.9,0.4c0.3,0,0.6-0.1,0.9-0.4S9,9,9,8.6
				C9,8.3,8.9,8,8.7,7.7C8.4,7.5,8.1,7.4,7.8,7.4L7.8,7.4z M21,3.4L21,3.4c0,0.4,0,0.8,0,1.1c0,0.1-0.1,0.2-0.1,0.2
				c-0.1,0.1-0.2,0.1-0.2,0.1h-0.5c-0.1,0.3-0.3,0.6-0.5,0.8l0.2,0.4c0,0.1,0.1,0.2,0,0.3c0,0.1-0.1,0.2-0.1,0.2
				c-0.3,0.2-0.6,0.4-1,0.6c-0.1,0-0.2,0-0.2,0c-0.1,0-0.2-0.1-0.2-0.2l-0.2-0.4c-0.3,0.1-0.6,0.1-1,0L16.8,7c0,0.1-0.1,0.1-0.2,0.2
				c-0.1,0-0.2,0-0.2,0c-0.4-0.1-0.7-0.3-1-0.6c-0.1,0-0.1-0.1-0.1-0.2c0-0.1,0-0.2,0.1-0.3l0.2-0.4c-0.2-0.2-0.4-0.5-0.5-0.8h-0.5
				c-0.1,0-0.2,0-0.2-0.1c-0.1-0.1-0.1-0.1-0.1-0.2c-0.1-0.4-0.1-0.8,0-1.1c0-0.1,0.1-0.2,0.1-0.2C14.4,3.1,14.5,3,14.6,3h0.5
				c0.1-0.3,0.3-0.6,0.5-0.8l-0.2-0.4c-0.1-0.1-0.1-0.2-0.1-0.2c0-0.1,0.1-0.2,0.1-0.2c0.3-0.2,0.6-0.4,1-0.6c0.1,0,0.2,0,0.2,0
				c0.1,0,0.2,0.1,0.2,0.2l0.2,0.4c0.3-0.1,0.7-0.1,1,0l0.2-0.4c0-0.1,0.1-0.1,0.2-0.2c0.1,0,0.2,0,0.3,0c0.4,0.1,0.7,0.3,1,0.6
				c0.1,0.1,0.1,0.1,0.1,0.2c0,0.1,0,0.2,0,0.2l-0.2,0.4C19.8,2.5,20,2.7,20.1,3h0.5c0.1,0,0.2,0,0.2,0.1C20.9,3.2,20.9,3.3,21,3.4
				L21,3.4z M17.6,4.9c0.3,0,0.5-0.1,0.7-0.3c0.2-0.2,0.3-0.4,0.3-0.7c0-0.3-0.1-0.5-0.3-0.7c-0.2-0.2-0.4-0.3-0.7-0.3
				c-0.3,0-0.5,0.1-0.7,0.3c-0.2,0.2-0.3,0.4-0.3,0.7c0,0.3,0.1,0.5,0.3,0.7C17.1,4.8,17.3,4.9,17.6,4.9z M21,12.9
				c0.1,0.4,0.1,0.7,0,1.1c0,0.1-0.1,0.2-0.1,0.2c-0.1,0.1-0.1,0.1-0.2,0.1h-0.5c-0.1,0.3-0.3,0.6-0.5,0.8l0.2,0.4
				c0,0.1,0.1,0.2,0,0.2c0,0.1-0.1,0.2-0.1,0.2c-0.3,0.2-0.6,0.4-1,0.6c-0.1,0-0.2,0-0.3,0c-0.1,0-0.2-0.1-0.2-0.2l-0.2-0.4
				c-0.3,0.1-0.6,0.1-1,0l-0.2,0.4c0,0.1-0.1,0.1-0.2,0.2c-0.1,0-0.2,0-0.2,0c-0.4-0.1-0.7-0.3-1-0.6c-0.1-0.1-0.1-0.1-0.1-0.2
				c0-0.1,0-0.2,0.1-0.2l0.2-0.4c-0.2-0.2-0.4-0.5-0.5-0.8h-0.5c-0.1,0-0.2,0-0.2-0.1c-0.1-0.1-0.1-0.1-0.1-0.2
				c-0.1-0.4-0.1-0.8,0-1.1c0-0.1,0.1-0.2,0.1-0.2c0.1-0.1,0.2-0.1,0.2-0.1h0.5c0.1-0.3,0.3-0.6,0.5-0.8l-0.2-0.4
				c-0.1-0.1-0.1-0.2-0.1-0.3c0-0.1,0.1-0.2,0.1-0.2c0.3-0.2,0.6-0.4,1-0.6c0.1,0,0.2,0,0.2,0c0.1,0,0.2,0.1,0.2,0.2l0.2,0.4
				c0.3-0.1,0.7-0.1,1,0l0.2-0.4c0-0.1,0.1-0.1,0.2-0.2c0.1,0,0.2,0,0.3,0c0.4,0.1,0.7,0.3,1,0.6c0.1,0,0.1,0.1,0.1,0.2
				c0,0.1,0,0.2,0,0.3l-0.2,0.4c0.2,0.2,0.4,0.5,0.5,0.8h0.5c0.1,0,0.2,0,0.2,0.1S20.9,12.8,21,12.9L21,12.9z M17.6,14.5
				c0.3,0,0.5-0.1,0.7-0.3c0.2-0.2,0.3-0.4,0.3-0.7c0-0.3-0.1-0.5-0.3-0.7c-0.2-0.2-0.4-0.3-0.7-0.3c-0.3,0-0.5,0.1-0.7,0.3
				c-0.2,0.2-0.3,0.4-0.3,0.7c0,0.3,0.1,0.5,0.3,0.7C17.1,14.4,17.3,14.5,17.6,14.5z"/>
		</g>
		<defs>
			<filter id="Adobe_OpacityMaskFilter" filterUnits="userSpaceOnUse" x="-1" y="-4" width="24" height="24">
				<feColorMatrix  type="matrix" values="1 0 0 0 0  0 1 0 0 0  0 0 1 0 0  0 0 0 1 0"/>
			</filter>
		</defs>
		<mask maskUnits="userSpaceOnUse" x="-1" y="-4" width="24" height="24" id="b_1_">
			<g class="st1">
				<path id="a_2_" class="st2" d="M7.8,15.6c-0.6,0-1.2-0.1-1.8-0.2c-0.2,0-0.3-0.1-0.4-0.3c-0.1-0.1-0.2-0.3-0.2-0.5v-1
					c-0.3-0.1-0.6-0.3-0.8-0.5l-0.8,0.5c-0.1,0.1-0.3,0.1-0.5,0.1c-0.2,0-0.3-0.1-0.5-0.2c-0.5-0.5-0.9-1-1.2-1.5
					c-0.2-0.4-0.4-0.9-0.6-1.6c0-0.2,0-0.4,0-0.5c0.1-0.2,0.2-0.3,0.3-0.4l0.8-0.5c0-0.3,0-0.6,0-1L1.4,7.7C1.2,7.6,1.1,7.5,1,7.3
					C1,7.1,1,7,1,6.8c0.2-0.7,0.4-1.2,0.6-1.6c0.3-0.4,0.7-0.9,1.2-1.5c0.1-0.1,0.3-0.2,0.5-0.2c0.2,0,0.3,0,0.5,0.1L4.6,4
					c0.2-0.2,0.5-0.3,0.8-0.5v-1c0-0.2,0.1-0.3,0.2-0.5C5.7,2,5.8,1.9,6,1.9c0.7-0.2,1.3-0.2,1.8-0.2s1.1,0.1,1.8,0.2
					C9.7,1.9,9.9,2,10,2.2c0.1,0.1,0.2,0.3,0.2,0.5v1C10.4,3.7,10.7,3.9,11,4l0.8-0.5c0.1-0.1,0.3-0.1,0.5-0.1
					c0.2,0,0.3,0.1,0.5,0.2c0.5,0.5,0.8,1,1.1,1.4c0.3,0.6,0.6,1.1,0.7,1.8c0,0.1,0,0.3-0.1,0.4c-0.1,0.1-0.2,0.3-0.3,0.3l-0.8,0.5
					c0,0.3,0,0.7,0,1l0.8,0.5c0.1,0.1,0.2,0.2,0.3,0.3c0.1,0.1,0.1,0.3,0.1,0.4c-0.1,0.6-0.4,1.2-0.7,1.7c-0.3,0.5-0.6,0.9-1.1,1.4
					c-0.1,0.1-0.3,0.2-0.5,0.2c-0.2,0-0.3,0-0.5-0.1L11,13.2c-0.3,0.2-0.6,0.4-0.8,0.5v1c0,0.2-0.1,0.3-0.2,0.5
					c-0.1,0.1-0.2,0.2-0.4,0.3C9,15.6,8.4,15.6,7.8,15.6z M6.9,14c0.6,0.1,1.2,0.1,1.7,0v-1.4l0.5-0.2c0.5-0.2,0.9-0.4,1.3-0.8
					l0.4-0.3l1.2,0.7c0.4-0.4,0.6-0.9,0.8-1.5l-1.2-0.7l0.1-0.5c0.1-0.5,0.1-1,0-1.5l-0.1-0.5l1.2-0.7c-0.2-0.5-0.5-1-0.8-1.5
					l-1.2,0.7l-0.4-0.3c-0.4-0.3-0.8-0.6-1.3-0.8L8.7,4.6V3.2c-0.6-0.1-1.2-0.1-1.8,0v1.4L6.4,4.8C5.9,5,5.5,5.2,5.1,5.5L4.7,5.9
					L3.5,5.2c-0.4,0.4-0.7,1-0.9,1.5l1.2,0.7L3.8,7.9c-0.1,0.5-0.1,1,0,1.5l0.1,0.5l-1.2,0.7c0.2,0.5,0.5,1,0.8,1.5l1.2-0.7l0.4,0.3
					c0.4,0.3,0.8,0.6,1.3,0.8l0.5,0.2L6.9,14L6.9,14z M7.8,11.4c-0.8,0-1.4-0.3-2-0.8C5.3,10.1,5,9.4,5,8.7c0-0.8,0.3-1.4,0.8-2
					c0.5-0.5,1.2-0.8,2-0.8c0.8,0,1.4,0.3,2,0.8c0.5,0.5,0.8,1.2,0.8,2c0,0.8-0.3,1.4-0.8,2C9.2,11.1,8.5,11.4,7.8,11.4z M7.8,7.4
					c-0.4,0-0.7,0.1-0.9,0.4C6.6,8,6.5,8.3,6.5,8.6c0,0.4,0.1,0.7,0.4,0.9c0.2,0.2,0.5,0.4,0.9,0.4c0.3,0,0.6-0.1,0.9-0.4S9,9,9,8.6
					C9,8.3,8.9,8,8.7,7.7C8.4,7.5,8.1,7.4,7.8,7.4L7.8,7.4z M21,3.4L21,3.4c0,0.4,0,0.8,0,1.1c0,0.1-0.1,0.2-0.1,0.2
					c-0.1,0.1-0.2,0.1-0.2,0.1h-0.5c-0.1,0.3-0.3,0.6-0.5,0.8l0.2,0.4c0,0.1,0.1,0.2,0,0.3c0,0.1-0.1,0.2-0.1,0.2
					c-0.3,0.2-0.6,0.4-1,0.6c-0.1,0-0.2,0-0.2,0c-0.1,0-0.2-0.1-0.2-0.2l-0.2-0.4c-0.3,0.1-0.6,0.1-1,0L16.8,7
					c0,0.1-0.1,0.1-0.2,0.2c-0.1,0-0.2,0-0.2,0c-0.4-0.1-0.7-0.3-1-0.6c-0.1,0-0.1-0.1-0.1-0.2c0-0.1,0-0.2,0.1-0.3l0.2-0.4
					c-0.2-0.2-0.4-0.5-0.5-0.8h-0.5c-0.1,0-0.2,0-0.2-0.1c-0.1-0.1-0.1-0.1-0.1-0.2c-0.1-0.4-0.1-0.8,0-1.1c0-0.1,0.1-0.2,0.1-0.2
					C14.4,3.1,14.5,3,14.6,3h0.5c0.1-0.3,0.3-0.6,0.5-0.8l-0.2-0.4c-0.1-0.1-0.1-0.2-0.1-0.2c0-0.1,0.1-0.2,0.1-0.2
					c0.3-0.2,0.6-0.4,1-0.6c0.1,0,0.2,0,0.2,0c0.1,0,0.2,0.1,0.2,0.2l0.2,0.4c0.3-0.1,0.7-0.1,1,0l0.2-0.4c0-0.1,0.1-0.1,0.2-0.2
					c0.1,0,0.2,0,0.3,0c0.4,0.1,0.7,0.3,1,0.6c0.1,0.1,0.1,0.1,0.1,0.2c0,0.1,0,0.2,0,0.2l-0.2,0.4C19.8,2.5,20,2.7,20.1,3h0.5
					c0.1,0,0.2,0,0.2,0.1C20.9,3.2,20.9,3.3,21,3.4L21,3.4z M17.6,4.9c0.3,0,0.5-0.1,0.7-0.3c0.2-0.2,0.3-0.4,0.3-0.7
					c0-0.3-0.1-0.5-0.3-0.7c-0.2-0.2-0.4-0.3-0.7-0.3c-0.3,0-0.5,0.1-0.7,0.3c-0.2,0.2-0.3,0.4-0.3,0.7c0,0.3,0.1,0.5,0.3,0.7
					C17.1,4.8,17.3,4.9,17.6,4.9z M21,12.9c0.1,0.4,0.1,0.7,0,1.1c0,0.1-0.1,0.2-0.1,0.2c-0.1,0.1-0.1,0.1-0.2,0.1h-0.5
					c-0.1,0.3-0.3,0.6-0.5,0.8l0.2,0.4c0,0.1,0.1,0.2,0,0.2c0,0.1-0.1,0.2-0.1,0.2c-0.3,0.2-0.6,0.4-1,0.6c-0.1,0-0.2,0-0.3,0
					c-0.1,0-0.2-0.1-0.2-0.2l-0.2-0.4c-0.3,0.1-0.6,0.1-1,0l-0.2,0.4c0,0.1-0.1,0.1-0.2,0.2c-0.1,0-0.2,0-0.2,0
					c-0.4-0.1-0.7-0.3-1-0.6c-0.1-0.1-0.1-0.1-0.1-0.2c0-0.1,0-0.2,0.1-0.2l0.2-0.4c-0.2-0.2-0.4-0.5-0.5-0.8h-0.5
					c-0.1,0-0.2,0-0.2-0.1c-0.1-0.1-0.1-0.1-0.1-0.2c-0.1-0.4-0.1-0.8,0-1.1c0-0.1,0.1-0.2,0.1-0.2c0.1-0.1,0.2-0.1,0.2-0.1h0.5
					c0.1-0.3,0.3-0.6,0.5-0.8l-0.2-0.4c-0.1-0.1-0.1-0.2-0.1-0.3c0-0.1,0.1-0.2,0.1-0.2c0.3-0.2,0.6-0.4,1-0.6c0.1,0,0.2,0,0.2,0
					c0.1,0,0.2,0.1,0.2,0.2l0.2,0.4c0.3-0.1,0.7-0.1,1,0l0.2-0.4c0-0.1,0.1-0.1,0.2-0.2c0.1,0,0.2,0,0.3,0c0.4,0.1,0.7,0.3,1,0.6
					c0.1,0,0.1,0.1,0.1,0.2c0,0.1,0,0.2,0,0.3l-0.2,0.4c0.2,0.2,0.4,0.5,0.5,0.8h0.5c0.1,0,0.2,0,0.2,0.1S20.9,12.8,21,12.9L21,12.9
					z M17.6,14.5c0.3,0,0.5-0.1,0.7-0.3c0.2-0.2,0.3-0.4,0.3-0.7c0-0.3-0.1-0.5-0.3-0.7c-0.2-0.2-0.4-0.3-0.7-0.3
					c-0.3,0-0.5,0.1-0.7,0.3c-0.2,0.2-0.3,0.4-0.3,0.7c0,0.3,0.1,0.5,0.3,0.7C17.1,14.4,17.3,14.5,17.6,14.5z"/>
			</g>
		</mask>
		<g class="st3">
			<path class="st0" d="M-1-4h24v24H-1V-4z"/>
		</g>
	</g>
</g>
</svg>
