<?xml version="1.0" encoding="utf-8"?>
<!-- Generator: Adobe Illustrator 22.0.0, SVG Export Plug-In . SVG Version: 6.00 Build 0)  -->
<svg version="1.1" id="Capa_1" xmlns="http://www.w3.org/2000/svg" xmlns:xlink="http://www.w3.org/1999/xlink" x="0px" y="0px"
	 viewBox="0 0 24 24" style="enable-background:new 0 0 24 24;" xml:space="preserve">
<style type="text/css">
	.st0{fill:#686868;}
	.st1{filter:url(#Adobe_OpacityMaskFilter);}
	.st2{fill:#FFFFFF;}
	.st3{mask:url(#b_1_);}
</style>
<g>
	<g transform="translate(3 3)">
		<g>
			<path id="a_1_" class="st0" d="M4.5,8.1c0.3,0,0.6,0.1,0.8,0.3s0.3,0.5,0.3,0.8S5.5,9.8,5.3,10c-0.2,0.2-0.5,0.3-0.8,0.3
				c-0.3,0-0.6-0.1-0.8-0.3C3.5,9.8,3.4,9.5,3.4,9.3c0-0.3,0.1-0.6,0.3-0.8C3.9,8.2,4.2,8.1,4.5,8.1z M14.7,2.3
				c1,0.8,1.8,1.9,2.4,3.1C17.7,6.6,18,7.9,18,9.2c0,0.8-0.3,1.5-0.8,2c-0.6,0.6-1.3,0.8-2.1,0.8h-2.5c-0.5,0-0.9,0.2-1.1,0.6
				c-0.1,0.2-0.2,0.4-0.2,0.7c0,0.2,0,0.5,0.1,0.7c0.2,0.4,0.3,0.9,0.3,1.4c0,0.5-0.1,0.9-0.3,1.3c-0.2,0.4-0.5,0.7-0.8,1
				c-0.3,0.2-0.7,0.4-1.1,0.5c-0.3,0-0.6,0.1-0.9,0.1c-1,0-2.1-0.2-3.1-0.7c-1.1-0.5-2-1.2-2.8-2c-1-1-1.8-2.3-2.2-3.7
				C0,10.4-0.1,8.9,0.2,7.4c0.4-1.8,1.2-3.3,2.5-4.6c1.3-1.3,2.8-2.1,4.6-2.4c1.3-0.3,2.7-0.2,4,0.1C12.5,0.9,13.7,1.5,14.7,2.3
				L14.7,2.3z M15.1,10.4c0.4,0,0.6-0.1,0.9-0.3s0.4-0.5,0.4-0.8c0-1.1-0.2-2.1-0.7-3.1c-0.5-1-1.1-1.8-2-2.5
				c-0.8-0.7-1.8-1.2-2.9-1.4C9.7,1.9,8.6,1.9,7.5,2.1c-1.4,0.3-2.7,1-3.7,2c-1,1-1.7,2.3-2,3.7C1.6,8.9,1.6,10.1,2,11.3
				c0.3,1.2,1,2.2,1.8,3.1c0.7,0.8,1.6,1.4,2.6,1.8c1,0.4,1.9,0.5,2.8,0.4c0.3,0,0.5-0.2,0.7-0.6c0.1-0.2,0.1-0.4,0.1-0.6
				c0-0.2,0-0.4-0.1-0.6c-0.2-0.5-0.3-1-0.3-1.5c0-0.5,0.2-1,0.5-1.5c0.3-0.5,0.6-0.8,1.1-1.1c0.4-0.3,0.9-0.4,1.5-0.4
				C12.6,10.4,15.1,10.4,15.1,10.4z M5.6,4.8c0.3,0,0.6,0.1,0.8,0.3s0.3,0.5,0.3,0.8S6.6,6.4,6.4,6.7C6.2,6.9,5.9,7,5.6,7
				C5.3,7,5.1,6.9,4.8,6.7C4.6,6.5,4.5,6.2,4.5,5.9c0-0.3,0.1-0.6,0.3-0.8S5.3,4.8,5.6,4.8z M9,3.6c0.3,0,0.6,0.1,0.8,0.3
				c0.2,0.2,0.3,0.5,0.3,0.8S10,5.3,9.8,5.5C9.6,5.8,9.3,5.9,9,5.9c-0.3,0-0.6-0.1-0.8-0.3C8,5.3,7.9,5,7.9,4.8C7.9,4.4,8,4.2,8.2,4
				C8.4,3.7,8.7,3.6,9,3.6z M12.4,4.8c0.3,0,0.6,0.1,0.8,0.3c0.2,0.2,0.3,0.5,0.3,0.8s-0.1,0.6-0.3,0.8C13,6.9,12.7,7,12.4,7
				c-0.3,0-0.6-0.1-0.8-0.3c-0.2-0.2-0.3-0.5-0.3-0.8c0-0.3,0.1-0.6,0.3-0.8S12.1,4.8,12.4,4.8z"/>
		</g>
		<defs>
			<filter id="Adobe_OpacityMaskFilter" filterUnits="userSpaceOnUse" x="-3" y="-3" width="24" height="24">
				<feColorMatrix  type="matrix" values="1 0 0 0 0  0 1 0 0 0  0 0 1 0 0  0 0 0 1 0"/>
			</filter>
		</defs>
		<mask maskUnits="userSpaceOnUse" x="-3" y="-3" width="24" height="24" id="b_1_">
			<g class="st1">
				<path id="a_2_" class="st2" d="M4.5,8.1c0.3,0,0.6,0.1,0.8,0.3s0.3,0.5,0.3,0.8S5.5,9.8,5.3,10c-0.2,0.2-0.5,0.3-0.8,0.3
					c-0.3,0-0.6-0.1-0.8-0.3C3.5,9.8,3.4,9.5,3.4,9.3c0-0.3,0.1-0.6,0.3-0.8C3.9,8.2,4.2,8.1,4.5,8.1z M14.7,2.3
					c1,0.8,1.8,1.9,2.4,3.1C17.7,6.6,18,7.9,18,9.2c0,0.8-0.3,1.5-0.8,2c-0.6,0.6-1.3,0.8-2.1,0.8h-2.5c-0.5,0-0.9,0.2-1.1,0.6
					c-0.1,0.2-0.2,0.4-0.2,0.7c0,0.2,0,0.5,0.1,0.7c0.2,0.4,0.3,0.9,0.3,1.4c0,0.5-0.1,0.9-0.3,1.3c-0.2,0.4-0.5,0.7-0.8,1
					c-0.3,0.2-0.7,0.4-1.1,0.5c-0.3,0-0.6,0.1-0.9,0.1c-1,0-2.1-0.2-3.1-0.7c-1.1-0.5-2-1.2-2.8-2c-1-1-1.8-2.3-2.2-3.7
					C0,10.4-0.1,8.9,0.2,7.4c0.4-1.8,1.2-3.3,2.5-4.6c1.3-1.3,2.8-2.1,4.6-2.4c1.3-0.3,2.7-0.2,4,0.1C12.5,0.9,13.7,1.5,14.7,2.3
					L14.7,2.3z M15.1,10.4c0.4,0,0.6-0.1,0.9-0.3s0.4-0.5,0.4-0.8c0-1.1-0.2-2.1-0.7-3.1c-0.5-1-1.1-1.8-2-2.5
					c-0.8-0.7-1.8-1.2-2.9-1.4C9.7,1.9,8.6,1.9,7.5,2.1c-1.4,0.3-2.7,1-3.7,2c-1,1-1.7,2.3-2,3.7C1.6,8.9,1.6,10.1,2,11.3
					c0.3,1.2,1,2.2,1.8,3.1c0.7,0.8,1.6,1.4,2.6,1.8c1,0.4,1.9,0.5,2.8,0.4c0.3,0,0.5-0.2,0.7-0.6c0.1-0.2,0.1-0.4,0.1-0.6
					c0-0.2,0-0.4-0.1-0.6c-0.2-0.5-0.3-1-0.3-1.5c0-0.5,0.2-1,0.5-1.5c0.3-0.5,0.6-0.8,1.1-1.1c0.4-0.3,0.9-0.4,1.5-0.4
					C12.6,10.4,15.1,10.4,15.1,10.4z M5.6,4.8c0.3,0,0.6,0.1,0.8,0.3s0.3,0.5,0.3,0.8S6.6,6.4,6.4,6.7C6.2,6.9,5.9,7,5.6,7
					C5.3,7,5.1,6.9,4.8,6.7C4.6,6.5,4.5,6.2,4.5,5.9c0-0.3,0.1-0.6,0.3-0.8S5.3,4.8,5.6,4.8z M9,3.6c0.3,0,0.6,0.1,0.8,0.3
					c0.2,0.2,0.3,0.5,0.3,0.8S10,5.3,9.8,5.5C9.6,5.8,9.3,5.9,9,5.9c-0.3,0-0.6-0.1-0.8-0.3C8,5.3,7.9,5,7.9,4.8
					C7.9,4.4,8,4.2,8.2,4C8.4,3.7,8.7,3.6,9,3.6z M12.4,4.8c0.3,0,0.6,0.1,0.8,0.3c0.2,0.2,0.3,0.5,0.3,0.8s-0.1,0.6-0.3,0.8
					C13,6.9,12.7,7,12.4,7c-0.3,0-0.6-0.1-0.8-0.3c-0.2-0.2-0.3-0.5-0.3-0.8c0-0.3,0.1-0.6,0.3-0.8S12.1,4.8,12.4,4.8z"/>
			</g>
		</mask>
		<g class="st3">
			<path class="st0" d="M-3-3h24v24H-3V-3z"/>
		</g>
	</g>
</g>
</svg>
