<?xml version="1.0" encoding="utf-8"?>
<!-- Generator: Adobe Illustrator 22.0.0, SVG Export Plug-In . SVG Version: 6.00 Build 0)  -->
<svg version="1.1" id="Capa_1" xmlns="http://www.w3.org/2000/svg" xmlns:xlink="http://www.w3.org/1999/xlink" x="0px" y="0px"
	 viewBox="0 0 24 24" style="enable-background:new 0 0 24 24;" xml:space="preserve">
<style type="text/css">
	.st0{fill:#686868;}
	.st1{filter:url(#Adobe_OpacityMaskFilter);}
	.st2{fill:#FFFFFF;}
	.st3{mask:url(#b_1_);}
</style>
<g>
	<g transform="translate(1 2)">
		<g>
			<path id="a_1_" class="st0" d="M21,9.5c0.3,0.1,0.5,0.3,0.7,0.6c0.2,0.3,0.3,0.6,0.3,0.9v4.7c0,0.3-0.1,0.6-0.2,0.8
				c-0.1,0.2-0.4,0.4-0.6,0.6l-4.3,2.1c-0.4,0.2-0.9,0.2-1.4,0L11,17l-4.5,2.2c-0.4,0.2-0.9,0.2-1.4,0l-4.3-2.1
				c-0.3-0.1-0.5-0.3-0.6-0.6C0.1,16.3,0,16,0,15.7V11c0-0.3,0.1-0.6,0.3-0.9C0.5,9.8,0.7,9.6,1,9.5l4.2-1.5V3.3
				c0-0.3,0.1-0.6,0.3-0.9C5.6,2.1,5.9,2,6.1,1.8l4.3-1.6c0.4-0.1,0.8-0.1,1.1,0l4.3,1.6c0.3,0.1,0.5,0.3,0.7,0.6
				c0.2,0.3,0.3,0.5,0.3,0.9v4.7L21,9.5L21,9.5z M15.4,8V4.8l-3.7,1.6v3L15.4,8L15.4,8z M6.6,3.2L6.6,3.2L11,5l4.4-1.8v0L11,1.6
				L6.6,3.2L6.6,3.2z M10.2,15.7v-3.2l-3.7,1.7v3.4L10.2,15.7z M10.2,10.9L5.8,9.2l-4.4,1.7l4.4,1.8L10.2,10.9L10.2,10.9z
				 M20.5,15.7v-3.2l-3.7,1.7v3.4L20.5,15.7z M20.5,10.9l-4.4-1.7l-4.4,1.7l4.4,1.8L20.5,10.9z"/>
		</g>
		<defs>
			<filter id="Adobe_OpacityMaskFilter" filterUnits="userSpaceOnUse" x="-1" y="-2" width="24" height="24">
				<feColorMatrix  type="matrix" values="1 0 0 0 0  0 1 0 0 0  0 0 1 0 0  0 0 0 1 0"/>
			</filter>
		</defs>
		<mask maskUnits="userSpaceOnUse" x="-1" y="-2" width="24" height="24" id="b_1_">
			<g class="st1">
				<path id="a_2_" class="st2" d="M21,9.5c0.3,0.1,0.5,0.3,0.7,0.6c0.2,0.3,0.3,0.6,0.3,0.9v4.7c0,0.3-0.1,0.6-0.2,0.8
					c-0.1,0.2-0.4,0.4-0.6,0.6l-4.3,2.1c-0.4,0.2-0.9,0.2-1.4,0L11,17l-4.5,2.2c-0.4,0.2-0.9,0.2-1.4,0l-4.3-2.1
					c-0.3-0.1-0.5-0.3-0.6-0.6C0.1,16.3,0,16,0,15.7V11c0-0.3,0.1-0.6,0.3-0.9C0.5,9.8,0.7,9.6,1,9.5l4.2-1.5V3.3
					c0-0.3,0.1-0.6,0.3-0.9C5.6,2.1,5.9,2,6.1,1.8l4.3-1.6c0.4-0.1,0.8-0.1,1.1,0l4.3,1.6c0.3,0.1,0.5,0.3,0.7,0.6
					c0.2,0.3,0.3,0.5,0.3,0.9v4.7L21,9.5L21,9.5z M15.4,8V4.8l-3.7,1.6v3L15.4,8L15.4,8z M6.6,3.2L6.6,3.2L11,5l4.4-1.8v0L11,1.6
					L6.6,3.2L6.6,3.2z M10.2,15.7v-3.2l-3.7,1.7v3.4L10.2,15.7z M10.2,10.9L5.8,9.2l-4.4,1.7l4.4,1.8L10.2,10.9L10.2,10.9z
					 M20.5,15.7v-3.2l-3.7,1.7v3.4L20.5,15.7z M20.5,10.9l-4.4-1.7l-4.4,1.7l4.4,1.8L20.5,10.9z"/>
			</g>
		</mask>
		<g class="st3">
			<path class="st0" d="M-1-2h24v24H-1V-2z"/>
		</g>
	</g>
</g>
</svg>
