<?xml version="1.0" encoding="utf-8"?>
<!-- Generator: Adobe Illustrator 22.0.0, SVG Export Plug-In . SVG Version: 6.00 Build 0)  -->
<svg version="1.1" id="Capa_1" xmlns="http://www.w3.org/2000/svg" xmlns:xlink="http://www.w3.org/1999/xlink" x="0px" y="0px"
	 viewBox="0 0 24 24" style="enable-background:new 0 0 24 24;" xml:space="preserve">
<style type="text/css">
	.st0{filter:url(#Adobe_OpacityMaskFilter);}
	.st1{fill:#FFFFFF;}
	.st2{mask:url(#b_1_);}
	.st3{fill:#686868;}
</style>
<g>
	<g transform="translate(2 2)">
		<g>
			<path id="a_1_" d="M10,18c-4.4,0-8-3.6-8-8s3.6-8,8-8s8,3.6,8,8S14.4,18,10,18z M10,0C4.5,0,0,4.5,0,10s4.5,10,10,10
				s10-4.5,10-10S15.5,0,10,0z M9,15h2V9H9V15z M9,7h2V5H9V7z"/>
		</g>
		<defs>
			<filter id="Adobe_OpacityMaskFilter" filterUnits="userSpaceOnUse" x="-2" y="-2" width="24" height="24">
				<feColorMatrix  type="matrix" values="1 0 0 0 0  0 1 0 0 0  0 0 1 0 0  0 0 0 1 0"/>
			</filter>
		</defs>
		<mask maskUnits="userSpaceOnUse" x="-2" y="-2" width="24" height="24" id="b_1_">
			<g class="st0">
				<path id="a_2_" class="st1" d="M10,18c-4.4,0-8-3.6-8-8s3.6-8,8-8s8,3.6,8,8S14.4,18,10,18z M10,0C4.5,0,0,4.5,0,10
					s4.5,10,10,10s10-4.5,10-10S15.5,0,10,0z M9,15h2V9H9V15z M9,7h2V5H9V7z"/>
			</g>
		</mask>
		<g class="st2">
			<path class="st3" d="M-2-2h24v24H-2V-2z"/>
		</g>
	</g>
</g>
</svg>
