<?xml version="1.0" encoding="utf-8"?>
<!-- Generator: Adobe Illustrator 22.0.0, SVG Export Plug-In . SVG Version: 6.00 Build 0)  -->
<svg version="1.1" id="Capa_1" xmlns="http://www.w3.org/2000/svg" xmlns:xlink="http://www.w3.org/1999/xlink" x="0px" y="0px"
	 viewBox="0 0 24 24" style="enable-background:new 0 0 24 24;" xml:space="preserve">
<style type="text/css">
	.st0{fill:#686868;}
	.st1{filter:url(#Adobe_OpacityMaskFilter);}
	.st2{fill:#FFFFFF;}
	.st3{mask:url(#b_1_);}
</style>
<g>
	<g transform="translate(3 3)">
		<g>
			<path id="a_1_" class="st0" d="M15.5,0.6c0.5,0,0.9,0.2,1.3,0.5c0.3,0.3,0.5,0.8,0.5,1.3v13.1c0,0.5-0.2,0.9-0.5,1.3
				c-0.3,0.3-0.8,0.5-1.3,0.5H2.5c-0.5,0-0.9-0.2-1.3-0.5c-0.3-0.3-0.5-0.8-0.5-1.3V2.3c0-0.5,0.2-0.9,0.5-1.3S2,0.6,2.5,0.6
				L15.5,0.6L15.5,0.6z M15.3,15.4c0,0,0.1,0,0.1-0.1c0.1-0.1,0.1-0.1,0.1-0.1V2.6c0,0,0-0.1-0.1-0.1c-0.1,0-0.1-0.1-0.1-0.1H2.7
				c0,0-0.1,0-0.1,0.1c0,0-0.1,0.1-0.1,0.1v12.6c0,0.1,0,0.1,0.1,0.1c0,0.1,0.1,0.1,0.1,0.1H15.3L15.3,15.4z M13.3,4.1
				c0.1,0,0.2,0,0.3,0.1c0.1,0.1,0.1,0.2,0.1,0.3v5c0,0.2-0.1,0.4-0.3,0.4c-0.2,0.1-0.3,0-0.5-0.1l-1.8-1.8l-5.3,5.3
				c-0.1,0.1-0.2,0.2-0.3,0.1c-0.1,0-0.2-0.1-0.3-0.1l-0.8-0.8c-0.1-0.1-0.1-0.2-0.1-0.3c0-0.1,0.1-0.2,0.1-0.3l5.3-5.3L8,4.9
				C7.8,4.7,7.8,4.6,7.8,4.4c0.1-0.2,0.2-0.3,0.4-0.3C8.3,4.1,13.3,4.1,13.3,4.1z"/>
		</g>
		<defs>
			<filter id="Adobe_OpacityMaskFilter" filterUnits="userSpaceOnUse" x="-3" y="-3" width="24" height="24">
				<feColorMatrix  type="matrix" values="1 0 0 0 0  0 1 0 0 0  0 0 1 0 0  0 0 0 1 0"/>
			</filter>
		</defs>
		<mask maskUnits="userSpaceOnUse" x="-3" y="-3" width="24" height="24" id="b_1_">
			<g class="st1">
				<path id="a_2_" class="st2" d="M15.5,0.6c0.5,0,0.9,0.2,1.3,0.5c0.3,0.3,0.5,0.8,0.5,1.3v13.1c0,0.5-0.2,0.9-0.5,1.3
					c-0.3,0.3-0.8,0.5-1.3,0.5H2.5c-0.5,0-0.9-0.2-1.3-0.5c-0.3-0.3-0.5-0.8-0.5-1.3V2.3c0-0.5,0.2-0.9,0.5-1.3S2,0.6,2.5,0.6
					L15.5,0.6L15.5,0.6z M15.3,15.4c0,0,0.1,0,0.1-0.1c0.1-0.1,0.1-0.1,0.1-0.1V2.6c0,0,0-0.1-0.1-0.1c-0.1,0-0.1-0.1-0.1-0.1H2.7
					c0,0-0.1,0-0.1,0.1c0,0-0.1,0.1-0.1,0.1v12.6c0,0.1,0,0.1,0.1,0.1c0,0.1,0.1,0.1,0.1,0.1H15.3L15.3,15.4z M13.3,4.1
					c0.1,0,0.2,0,0.3,0.1c0.1,0.1,0.1,0.2,0.1,0.3v5c0,0.2-0.1,0.4-0.3,0.4c-0.2,0.1-0.3,0-0.5-0.1l-1.8-1.8l-5.3,5.3
					c-0.1,0.1-0.2,0.2-0.3,0.1c-0.1,0-0.2-0.1-0.3-0.1l-0.8-0.8c-0.1-0.1-0.1-0.2-0.1-0.3c0-0.1,0.1-0.2,0.1-0.3l5.3-5.3L8,4.9
					C7.8,4.7,7.8,4.6,7.8,4.4c0.1-0.2,0.2-0.3,0.4-0.3C8.3,4.1,13.3,4.1,13.3,4.1z"/>
			</g>
		</mask>
		<g class="st3">
			<path class="st0" d="M-3-3h24v24H-3V-3z"/>
		</g>
	</g>
</g>
</svg>
