<?xml version="1.0" encoding="utf-8"?>
<!-- Generator: Adobe Illustrator 22.0.0, SVG Export Plug-In . SVG Version: 6.00 Build 0)  -->
<svg version="1.1" id="Capa_1" xmlns="http://www.w3.org/2000/svg" xmlns:xlink="http://www.w3.org/1999/xlink" x="0px" y="0px"
	 viewBox="0 0 24 24" style="enable-background:new 0 0 24 24;" xml:space="preserve">
<style type="text/css">
	.st0{fill:#A7A7A7;}
	.st1{filter:url(#Adobe_OpacityMaskFilter);}
	.st2{fill:#FFFFFF;}
	.st3{mask:url(#b_1_);}
	.st4{fill:#686868;}
</style>
<g>
	<g transform="translate(3 5)">
		<g>
			<path id="a_1_" class="st0" d="M16.5,0c0.4,0,0.8,0.1,1.1,0.4C17.9,0.7,18,1.1,18,1.5v11c0,0.4-0.1,0.8-0.4,1.1
				c-0.3,0.3-0.7,0.4-1.1,0.4h-15c-0.4,0-0.8-0.1-1.1-0.4C0.2,13.3,0,12.9,0,12.5v-11c0-0.4,0.1-0.8,0.4-1.1C0.7,0.2,1.1,0,1.5,0
				H16.5z M16.3,12.5c0,0,0.1,0,0.1-0.1c0,0,0.1-0.1,0.1-0.1V1.7c0,0,0-0.1-0.1-0.1c0,0-0.1-0.1-0.1-0.1H1.7c0,0-0.1,0-0.1,0.1
				c0,0-0.1,0.1-0.1,0.1v10.6c0,0,0,0.1,0.1,0.1c0,0,0.1,0.1,0.1,0.1H16.3z M16,9.3c0,0.2-0.1,0.4-0.2,0.5c-0.1,0.1-0.3,0.2-0.5,0.2
				h-0.8v0.6c0,0.1,0,0.2-0.1,0.3C14.3,11,14.2,11,14.1,11h-0.2c-0.1,0-0.2,0-0.3-0.1c-0.1-0.1-0.1-0.2-0.1-0.3V10h-0.8
				c-0.2,0-0.4-0.1-0.5-0.2C12.1,9.6,12,9.4,12,9.3V6.8c0-0.2,0.1-0.4,0.2-0.5C12.4,6.1,12.6,6,12.8,6h0.8V3.4c0-0.1,0-0.2,0.1-0.3
				C13.7,3,13.8,3,13.9,3h0.2c0.1,0,0.2,0,0.3,0.1c0.1,0.1,0.1,0.2,0.1,0.3V6h0.8c0.2,0,0.4,0.1,0.5,0.2C15.9,6.4,16,6.6,16,6.8V9.3
				z"/>
		</g>
		<defs>
			<filter id="Adobe_OpacityMaskFilter" filterUnits="userSpaceOnUse" x="-3" y="-5" width="24" height="24">
				<feColorMatrix  type="matrix" values="1 0 0 0 0  0 1 0 0 0  0 0 1 0 0  0 0 0 1 0"/>
			</filter>
		</defs>
		<mask maskUnits="userSpaceOnUse" x="-3" y="-5" width="24" height="24" id="b_1_">
			<g class="st1">
				<path id="a_2_" class="st2" d="M16.5,0c0.4,0,0.8,0.1,1.1,0.4C17.9,0.7,18,1.1,18,1.5v11c0,0.4-0.1,0.8-0.4,1.1
					c-0.3,0.3-0.7,0.4-1.1,0.4h-15c-0.4,0-0.8-0.1-1.1-0.4C0.2,13.3,0,12.9,0,12.5v-11c0-0.4,0.1-0.8,0.4-1.1C0.7,0.2,1.1,0,1.5,0
					H16.5z M16.3,12.5c0,0,0.1,0,0.1-0.1c0,0,0.1-0.1,0.1-0.1V1.7c0,0,0-0.1-0.1-0.1c0,0-0.1-0.1-0.1-0.1H1.7c0,0-0.1,0-0.1,0.1
					c0,0-0.1,0.1-0.1,0.1v10.6c0,0,0,0.1,0.1,0.1c0,0,0.1,0.1,0.1,0.1H16.3z M16,9.3c0,0.2-0.1,0.4-0.2,0.5
					c-0.1,0.1-0.3,0.2-0.5,0.2h-0.8v0.6c0,0.1,0,0.2-0.1,0.3C14.3,11,14.2,11,14.1,11h-0.2c-0.1,0-0.2,0-0.3-0.1
					c-0.1-0.1-0.1-0.2-0.1-0.3V10h-0.8c-0.2,0-0.4-0.1-0.5-0.2C12.1,9.6,12,9.4,12,9.3V6.8c0-0.2,0.1-0.4,0.2-0.5
					C12.4,6.1,12.6,6,12.8,6h0.8V3.4c0-0.1,0-0.2,0.1-0.3C13.7,3,13.8,3,13.9,3h0.2c0.1,0,0.2,0,0.3,0.1c0.1,0.1,0.1,0.2,0.1,0.3V6
					h0.8c0.2,0,0.4,0.1,0.5,0.2C15.9,6.4,16,6.6,16,6.8V9.3z"/>
			</g>
		</mask>
		<g class="st3">
			<path class="st4" d="M-3-5h24v24H-3V-5z"/>
		</g>
	</g>
</g>
</svg>
