<?xml version="1.0" encoding="utf-8"?>
<!-- Generator: Adobe Illustrator 22.0.0, SVG Export Plug-In . SVG Version: 6.00 Build 0)  -->
<svg version="1.1" id="Capa_1" xmlns="http://www.w3.org/2000/svg" xmlns:xlink="http://www.w3.org/1999/xlink" x="0px" y="0px"
	 viewBox="0 0 24 24" style="enable-background:new 0 0 24 24;" xml:space="preserve">
<style type="text/css">
	.st0{fill:#686868;}
</style>
<path id="a_1_" class="st0" d="M16.2,9.6c0.4-0.2,0.9-0.2,1.3,0c0.4,0.1,0.8,0.4,1.1,0.8c0.3,0.3,0.4,0.7,0.4,1.2v2.6
	c0,0.2,0,0.3-0.1,0.5l-0.8,3.7c-0.1,0.5-0.4,0.9-0.7,1.2C17,19.8,16.5,20,16.1,20h-5.6c-0.3,0-0.6-0.1-0.9-0.2
	c-0.3-0.2-0.5-0.4-0.8-0.6l-3.4-4.8c-0.3-0.5-0.5-1.1-0.4-1.6s0.4-1,0.8-1.4c0.3-0.2,0.6-0.3,1-0.4c0.3-0.1,0.7,0,1,0.1v-5
	C7.8,5.5,8,5,8.4,4.6C8.8,4.2,9.3,4,9.9,4c0.6,0,1.1,0.2,1.5,0.6c0.3,0.4,0.5,0.9,0.5,1.5v2.3c0.3-0.1,0.6,0,0.9,0.1
	c0.4,0.1,0.7,0.3,0.9,0.5c0.4-0.2,0.9-0.2,1.3-0.1C15.5,9,15.9,9.2,16.2,9.6z M7.5,12.8c-0.1-0.3-0.3-0.3-0.5-0.3s-0.4,0.2-0.5,0.4
	c0,0.2,0,0.4,0.1,0.5l3.4,4.9c0.1,0.2,0.3,0.2,0.5,0.2h5.6c0.1,0,0.3,0,0.4-0.1c0.1-0.1,0.2-0.2,0.2-0.3l0.8-3.7v-0.1v-2.7
	c0-0.2-0.1-0.4-0.3-0.5C17,11,16.8,11,16.6,11c-0.2,0.1-0.3,0.3-0.3,0.5c0,0.1,0,0.3-0.1,0.4c-0.1,0.1-0.2,0.2-0.4,0.2h-0.2
	c-0.1,0-0.3,0-0.4-0.1c-0.1-0.1-0.1-0.2-0.1-0.4v-0.7c0-0.2-0.1-0.4-0.3-0.5c-0.2-0.1-0.4-0.1-0.6,0c-0.1,0.1-0.2,0.3-0.2,0.5v0.7
	c0,0.1,0,0.3-0.1,0.4c-0.1,0-0.3,0.1-0.4,0.1h-0.2c-0.1,0-0.3-0.1-0.4-0.2c-0.1-0.1-0.1-0.2-0.1-0.3v-1.1c0-0.3-0.1-0.5-0.3-0.5
	c-0.2-0.1-0.4-0.1-0.6,0c-0.2,0-0.2,0.2-0.2,0.5v1.1c0,0.1-0.1,0.3-0.2,0.4c-0.1,0-0.2,0.1-0.3,0.1h-0.3c-0.1,0-0.3,0-0.4-0.1
	c0-0.2-0.1-0.3-0.1-0.4V6.1c0-0.2-0.1-0.4-0.3-0.5c-0.1-0.1-0.4-0.1-0.5,0C9.4,5.7,9.3,5.8,9.3,6.1v7.5c0,0.2-0.1,0.4-0.3,0.5
	c-0.2,0.1-0.4,0-0.6-0.2L7.5,12.8z"/>
</svg>
