<?xml version="1.0" encoding="utf-8"?>
<!-- Generator: Adobe Illustrator 22.0.0, SVG Export Plug-In . SVG Version: 6.00 Build 0)  -->
<svg version="1.1" id="Capa_1" xmlns="http://www.w3.org/2000/svg" xmlns:xlink="http://www.w3.org/1999/xlink" x="0px" y="0px"
	 viewBox="0 0 24 24" style="enable-background:new 0 0 24 24;" xml:space="preserve">
<style type="text/css">
	.st0{fill:#686868;}
	.st1{filter:url(#Adobe_OpacityMaskFilter);}
	.st2{fill:#FFFFFF;}
	.st3{mask:url(#b_1_);}
</style>
<g>
	<g transform="translate(2 2)">
		<g>
			<path id="a_1_" class="st0" d="M18.3,6.3h-0.6v7.1h0.6c0.3,0,0.6,0.1,0.8,0.4s0.4,0.5,0.4,0.8v3.6c0,0.3-0.1,0.6-0.4,0.8
				c-0.2,0.2-0.5,0.4-0.8,0.4h-3.6c-0.3,0-0.6-0.1-0.8-0.4c-0.2-0.2-0.4-0.5-0.4-0.8v-0.6H6.4v0.6c0,0.3-0.1,0.6-0.4,0.8
				c-0.2,0.2-0.5,0.4-0.8,0.4H1.7c-0.3,0-0.6-0.1-0.8-0.4c-0.2-0.2-0.4-0.5-0.4-0.8v-3.6c0-0.3,0.1-0.6,0.4-0.8s0.5-0.4,0.8-0.4h0.6
				V6.3H1.7C1.4,6.3,1.1,6.2,0.9,6C0.6,5.7,0.5,5.4,0.5,5.1V1.6c0-0.3,0.1-0.6,0.4-0.8s0.5-0.4,0.8-0.4h3.6c0.3,0,0.6,0.1,0.8,0.4
				s0.4,0.5,0.4,0.8v0.6h7.1V1.6c0-0.3,0.1-0.6,0.4-0.8s0.5-0.4,0.8-0.4h3.6c0.3,0,0.6,0.1,0.8,0.4s0.4,0.5,0.4,0.8v3.6
				c0,0.3-0.1,0.6-0.4,0.8C18.9,6.2,18.6,6.3,18.3,6.3z M15.3,2.2v2.4h2.4V2.2C17.7,2.2,15.3,2.2,15.3,2.2z M2.3,2.2v2.4h2.4V2.2
				C4.7,2.2,2.3,2.2,2.3,2.2z M4.7,17.6v-2.4H2.3v2.4H4.7z M17.7,17.6v-2.4h-2.4v2.4H17.7z M15.9,13.4V6.3h-1.2
				c-0.3,0-0.6-0.1-0.8-0.4c-0.2-0.2-0.4-0.5-0.4-0.8V3.9H6.4v1.2c0,0.3-0.1,0.6-0.4,0.8C5.9,6.2,5.6,6.3,5.2,6.3H4.1v7.1h1.2
				c0.3,0,0.6,0.1,0.8,0.4s0.4,0.5,0.4,0.8v1.2h7.1v-1.2c0-0.3,0.1-0.6,0.4-0.8s0.5-0.4,0.8-0.4H15.9z"/>
		</g>
		<defs>
			<filter id="Adobe_OpacityMaskFilter" filterUnits="userSpaceOnUse" x="-2" y="-2" width="24" height="24">
				<feColorMatrix  type="matrix" values="1 0 0 0 0  0 1 0 0 0  0 0 1 0 0  0 0 0 1 0"/>
			</filter>
		</defs>
		<mask maskUnits="userSpaceOnUse" x="-2" y="-2" width="24" height="24" id="b_1_">
			<g class="st1">
				<path id="a_2_" class="st2" d="M18.3,6.3h-0.6v7.1h0.6c0.3,0,0.6,0.1,0.8,0.4s0.4,0.5,0.4,0.8v3.6c0,0.3-0.1,0.6-0.4,0.8
					c-0.2,0.2-0.5,0.4-0.8,0.4h-3.6c-0.3,0-0.6-0.1-0.8-0.4c-0.2-0.2-0.4-0.5-0.4-0.8v-0.6H6.4v0.6c0,0.3-0.1,0.6-0.4,0.8
					c-0.2,0.2-0.5,0.4-0.8,0.4H1.7c-0.3,0-0.6-0.1-0.8-0.4c-0.2-0.2-0.4-0.5-0.4-0.8v-3.6c0-0.3,0.1-0.6,0.4-0.8s0.5-0.4,0.8-0.4
					h0.6V6.3H1.7C1.4,6.3,1.1,6.2,0.9,6C0.6,5.7,0.5,5.4,0.5,5.1V1.6c0-0.3,0.1-0.6,0.4-0.8s0.5-0.4,0.8-0.4h3.6
					c0.3,0,0.6,0.1,0.8,0.4s0.4,0.5,0.4,0.8v0.6h7.1V1.6c0-0.3,0.1-0.6,0.4-0.8s0.5-0.4,0.8-0.4h3.6c0.3,0,0.6,0.1,0.8,0.4
					s0.4,0.5,0.4,0.8v3.6c0,0.3-0.1,0.6-0.4,0.8C18.9,6.2,18.6,6.3,18.3,6.3z M15.3,2.2v2.4h2.4V2.2C17.7,2.2,15.3,2.2,15.3,2.2z
					 M2.3,2.2v2.4h2.4V2.2C4.7,2.2,2.3,2.2,2.3,2.2z M4.7,17.6v-2.4H2.3v2.4H4.7z M17.7,17.6v-2.4h-2.4v2.4H17.7z M15.9,13.4V6.3
					h-1.2c-0.3,0-0.6-0.1-0.8-0.4c-0.2-0.2-0.4-0.5-0.4-0.8V3.9H6.4v1.2c0,0.3-0.1,0.6-0.4,0.8C5.9,6.2,5.6,6.3,5.2,6.3H4.1v7.1h1.2
					c0.3,0,0.6,0.1,0.8,0.4s0.4,0.5,0.4,0.8v1.2h7.1v-1.2c0-0.3,0.1-0.6,0.4-0.8s0.5-0.4,0.8-0.4H15.9z"/>
			</g>
		</mask>
		<g class="st3">
			<path class="st0" d="M-2-2h24v24H-2V-2z"/>
		</g>
	</g>
</g>
</svg>
