<!-- Generated by IcoMoon.io -->
<svg version="1.1" xmlns="http://www.w3.org/2000/svg" width="100%" height="100%" viewBox="0 0 32 32">
<title>eye</title>
<path d="M16.269 6.748c6.003 0.141 11.117 4.061 14.672 9.331-4.941 7.328-14.707 12.096-22.96 7.144-2.864-1.717-5.032-4.339-6.923-7.144 3.523-5.221 8.779-9.381 15.211-9.331zM8.128 12.175c-1.459 1.075-2.757 2.408-3.84 3.904 3.997 5.517 11.773 8.664 18.171 4.968 2.051-1.184 3.72-2.899 5.123-4.787 0 0-1.352-2.037-3.747-3.888-0.752 3.637-3.973 6.373-7.835 6.373-3.931 0-7.2-2.835-7.872-6.571v-0zM18.672 12.079c-0.003-0.888-0.008-1.779-0.011-2.667l-0.336 0.003c-2.832 0.032-5.72 0.243-8.24 1.464l1.163 2.4c1.909-0.925 4.093-1.101 6.171-1.179 0.419-0.013 0.835-0.019 1.253-0.021z"></path>
</svg>
