<!-- Generated by IcoMoon.io -->
<svg version="1.1" xmlns="http://www.w3.org/2000/svg" width="100%" height="100%" viewBox="0 0 32 32">
<title>pivot</title>
<path d="M27.973 32.051h-23.957c-2.208 0-4-1.792-4-4v-24.083c0-2.208 1.792-4 4-4h23.957c2.208 0 4 1.792 4 4v24.083c0 2.208-1.792 4-4 4zM8 8v-5.317h-4.051c-0.712 0-1.288 0.576-1.288 1.285v24.045c0 0.709 0.576 1.288 1.288 1.288h4.051v-18.635h-5.333v-2.667l5.333-0zM29.285 10.667h-18.619v18.635h17.331c0.712 0 1.288-0.579 1.288-1.288v-17.347zM21.333 17.885l-0.389 0.392-1.888-1.888 3.611-3.608c1.203 1.203 2.405 2.405 3.611 3.608l-1.888 1.888-0.389-0.392v6.115h-6.115l0.392 0.389-1.888 1.888-3.608-3.611 3.608-3.611c0.629 0.629 1.259 1.259 1.888 1.888l-0.392 0.389h3.448v-3.448l0-0zM27.997 2.683h-17.331v5.317h18.619v-4.032c0-0.709-0.576-1.285-1.288-1.285z"></path>
</svg>
