<?xml version="1.0" encoding="UTF-8"?>
<svg width="320px" height="180px" viewBox="0 0 320 180" version="1.1" xmlns="http://www.w3.org/2000/svg" xmlns:xlink="http://www.w3.org/1999/xlink" style="background: #FFFFFF;">
    <!-- Generator: Sketch 49.1 (51147) - http://www.bohemiancoding.com/sketch -->
    <title>frameworks</title>
    <desc>Created with Sketch.</desc>
    <defs>
        <rect id="path-1" x="24.4359354" y="68.0577137" width="320" height="180"></rect>
        <rect id="path-3" x="23.5640646" y="68.0577137" width="320" height="180"></rect>
        <rect id="path-5" x="24.4359354" y="67.9422863" width="320" height="180"></rect>
        <rect id="path-7" x="23.5640646" y="67.9422863" width="320" height="180"></rect>
    </defs>
    <g id="frameworks" stroke="none" stroke-width="1" fill="none" fill-rule="evenodd">
        <g id="vue" transform="translate(-118.000000, -226.000000)">
            <mask id="mask-2" fill="white">
                <use xlink:href="#path-1"></use>
            </mask>
            <g id="Mask" transform="translate(184.435935, 158.057714) rotate(30.000000) translate(-184.435935, -158.057714) "></g>
            <g mask="url(#mask-2)" fill-rule="nonzero" id="Shape">
                <g transform="translate(95.000000, 200.000000)">
                    <polygon fill="#41B883" points="204.8 0 256 0 128 220.8 0 0 50.56 0 97.92 0 128 51.2 157.44 0"></polygon>
                    <polygon fill="#41B883" points="0 0 128 220.8 256 0 204.8 0 128 132.48 50.56 0"></polygon>
                    <polygon fill="#35495E" points="50.56 0 128 133.12 204.8 0 157.44 0 128 51.2 97.92 0"></polygon>
                </g>
            </g>
        </g>
        <g id="react" transform="translate(160.000000, -66.000000)">
            <mask id="mask-4" fill="white">
                <use xlink:href="#path-3"></use>
            </mask>
            <g id="Mask" transform="translate(183.564065, 158.057714) rotate(30.000000) translate(-183.564065, -158.057714) "></g>
            <g mask="url(#mask-4)" fill="#00D8FF" fill-rule="nonzero" id="Shape">
                <g transform="translate(-8.000000, 53.000000)">
                    <path d="M168.551145,58.9293948 C166.424524,58.1997287 164.220909,57.5093467 161.951978,56.8564303 C162.324903,55.3392631 162.667176,53.841738 162.971501,52.3696749 C167.966945,28.1979403 164.700749,8.72502237 153.547665,2.31370919 C142.853256,-3.83389115 125.363367,2.57596707 107.699421,17.8996821 C106.000824,19.3732002 104.297483,20.9332889 102.594874,22.5683082 C101.460407,21.48654 100.327767,20.4411462 99.1980458,19.4412199 C80.6857138,3.05610619 62.1299588,-3.84880458 50.9878215,2.58105946 C40.3036301,8.7464832 37.1396062,27.052881 41.636235,49.9606129 C42.0704627,52.1732544 42.5780347,54.4328186 43.1520181,56.7302118 C40.5258527,57.4733363 37.9905467,58.265566 35.5647098,59.1083558 C13.8609867,66.6512697 0,78.4728784 0,90.7349785 C0,103.399378 14.8797797,116.101969 37.4858937,123.804201 C39.2698763,124.412014 41.121,124.986726 43.0286829,125.532339 C42.4094523,128.01706 41.8708639,130.451947 41.4187561,132.826818 C37.1312137,155.33698 40.4795107,173.210888 51.13524,179.337392 C62.1416355,185.664318 80.6134633,179.160977 98.6003435,163.48807 C100.021983,162.249165 101.448731,160.93533 102.878034,159.558204 C104.730618,161.336537 106.580281,163.01957 108.420093,164.59821 C125.842477,179.54327 143.049936,185.578111 153.695813,179.434512 C164.691262,173.089398 168.264701,153.888559 163.625396,130.527606 C163.271081,128.743452 162.858747,126.920741 162.395693,125.065659 C163.692903,124.683365 164.966394,124.288706 166.20814,123.878405 C189.709347,116.116519 205,103.568517 205,90.7349785 C205,78.4285021 190.692014,66.5272337 168.551145,58.9293948 Z M163.453895,115.592004 C162.332931,115.961928 161.182775,116.319487 160.010725,116.666133 C157.416306,108.478669 153.914752,99.7725078 149.629763,90.7775369 C153.718802,81.9968088 157.084978,73.4019541 159.606784,65.2675959 C161.703848,65.8724985 163.739245,66.5105017 165.700568,67.1837878 C184.670845,73.6936749 196.242466,83.3186469 196.242466,90.7349785 C196.242466,98.6347236 183.745466,108.889696 163.453895,115.592004 Z M155.034256,132.223006 C157.085708,142.55291 157.37872,151.892344 156.019843,159.19337 C154.798898,165.753818 152.343504,170.127813 149.307559,171.879594 C142.847053,175.60722 129.031315,170.761815 114.131465,157.980655 C112.423381,156.515503 110.70289,154.95105 108.976926,153.295296 C114.75325,146.997834 120.526289,139.676804 126.160668,131.546082 C136.070911,130.669466 145.433811,129.236322 153.924604,127.279755 C154.342776,128.961333 154.714242,130.610538 155.034256,132.223006 Z M69.8891338,171.235407 C63.5771412,173.457506 58.5499519,173.52116 55.5110876,171.774472 C49.0447437,168.056667 46.3565457,153.705598 50.023398,134.454926 C50.4433948,132.250286 50.9433041,129.985631 51.5194767,127.670778 C59.9172218,129.52186 69.2115195,130.853882 79.1454818,131.65666 C84.8178099,139.612786 90.7576072,146.925814 96.7433814,153.329125 C95.4355895,154.587671 94.1329058,155.785838 92.8375212,156.914891 C84.8838559,163.845265 76.9134059,168.762326 69.8891338,171.235407 Z M40.3182261,115.543625 C30.3222311,112.137911 22.0671608,107.711537 16.4086992,102.881409 C11.3242211,98.5408786 8.75716894,94.2316295 8.75716894,90.7349785 C8.75716894,83.2939125 19.88617,73.8027974 38.447398,67.3518365 C40.6995438,66.569064 43.0571448,65.8313957 45.5037809,65.1384676 C48.0690084,73.4565153 51.4340908,82.1532179 55.4950323,90.9474036 C51.3815456,99.8721727 47.9686617,108.707463 45.3782562,117.122992 C43.6340474,116.623211 41.9442083,116.09724 40.3182261,115.543625 Z M50.2306598,48.2841269 C46.3780746,28.6573463 48.9367341,13.8515995 55.3753459,10.1363406 C62.2335896,6.17846595 77.3990835,11.8215563 93.383043,25.9692941 C94.404755,26.8735564 95.4304813,27.8200125 96.4591265,28.7992055 C90.5029091,35.1745083 84.6174816,42.4326124 78.9955099,50.3418143 C69.3541943,51.232618 60.1252132,52.6635784 51.6398929,54.5797701 C51.106413,52.4406046 50.6338711,50.3389044 50.2306598,48.2841269 Z M138.658397,70.0500732 C136.629934,66.5574243 134.547465,63.1473448 132.424494,59.8303833 C138.965277,60.6546222 145.232021,61.7487576 151.117084,63.0876913 C149.350251,68.7322366 147.148098,74.6339476 144.555867,80.6840652 C142.696351,77.1648631 140.729555,73.6165617 138.658397,70.0500732 Z M102.597792,35.0381051 C106.637205,39.4004607 110.682456,44.2709635 114.661296,49.5554045 C110.651804,49.3666225 106.592687,49.2684122 102.500001,49.2684122 C98.4459921,49.2684122 94.4167971,49.3644401 90.4321185,49.5499484 C94.4149722,44.3146124 98.4952529,39.4506569 102.597792,35.0381051 Z M66.3062077,70.1104543 C64.2799333,73.6129242 62.3496269,77.1419474 60.5193023,80.677518 C57.9690355,74.6484972 55.7873149,68.7198694 54.0051568,62.9953007 C59.8540946,61.6905588 66.0912832,60.6237042 72.590468,59.8151061 C70.4375743,63.1626219 68.3379555,66.5977997 66.3062077,70.1097268 L66.3062077,70.1104543 Z M72.7776603,122.277577 C66.0628212,121.530815 59.7318541,120.518887 53.8843757,119.250154 C55.6949959,113.423374 57.924883,107.368164 60.5291545,101.209288 C62.3642228,104.742312 64.3021921,108.272791 66.340873,111.782899 L66.3412378,111.782899 C68.4178681,115.358845 70.5693022,118.861678 72.7776603,122.277577 Z M102.840085,147.047303 C98.6893783,142.5831 94.5492544,137.644942 90.505828,132.33322 C94.431027,132.486719 98.4328553,132.565288 102.500001,132.565288 C106.678439,132.565288 110.809075,132.471442 114.874761,132.291026 C110.882784,137.698413 106.85213,142.644209 102.840085,147.047303 Z M144.639428,100.895379 C147.379442,107.12082 149.689241,113.144385 151.523215,118.871863 C145.579404,120.223527 139.161957,121.312207 132.40041,122.121169 C134.528491,118.759466 136.629204,115.290824 138.693427,111.722881 C140.781735,108.113108 142.764587,104.497878 144.639428,100.895379 Z M131.107579,107.361617 C127.903051,112.900313 124.613138,118.187664 121.273234,123.178567 C115.190031,123.612146 108.905406,123.835484 102.500001,123.835484 C96.1205025,123.835484 89.9150588,123.637971 83.9395026,123.251314 C80.4649504,118.19494 77.1035173,112.891948 73.9194238,107.409267 L73.9201536,107.409267 C70.7444528,101.941501 67.821626,96.4275377 65.1732019,90.9444948 C67.8208962,85.448719 70.7360602,79.9285736 73.893516,74.4706275 L73.8927863,74.4717187 C77.0586346,68.9992231 80.3905114,63.7220569 83.8329514,58.6973274 C89.9296546,58.2379217 96.1814396,57.9982158 102.499636,57.9982158 L102.500001,57.9982158 C108.846658,57.9982158 115.10647,58.2397403 121.201348,58.7031475 C124.591244,63.6911389 127.900497,68.9512091 131.078752,74.4244323 C134.293133,79.9591281 137.245881,85.442535 139.916198,90.8204586 C137.253909,96.2907711 134.307729,101.829469 131.107579,107.361617 Z M149.173277,9.87662896 C156.038089,13.8228639 158.707676,29.7380231 154.394591,50.6077096 C154.119458,51.9393684 153.809661,53.2957616 153.473225,54.6703419 C144.9682,52.7141384 135.732651,51.2584438 126.063241,50.3541815 C120.430321,42.3580453 114.59306,35.0886652 108.733904,28.7952042 C110.309166,27.2845847 111.882238,25.844167 113.448742,24.4848639 C128.58322,11.3556032 142.728462,6.17191859 149.173277,9.87662896 Z M102.500001,72.4871433 C112.609843,72.4871433 120.8058,80.6567843 120.8058,90.7349785 C120.8058,100.812809 112.609843,108.982815 102.500001,108.982815 C92.3901575,108.982815 84.1942007,100.812809 84.1942007,90.7349785 C84.1942007,80.6567843 92.3901575,72.4871433 102.500001,72.4871433 Z"></path>
                </g>
            </g>
        </g>
        <g id="angular-icon" transform="translate(-208.000000, -70.000000)">
            <mask id="mask-6" fill="white">
                <use xlink:href="#path-5"></use>
            </mask>
            <g id="Mask" transform="translate(184.435935, 157.942286) rotate(30.000000) translate(-184.435935, -157.942286) "></g>
            <g mask="url(#mask-6)" fill-rule="nonzero" id="Shape">
                <g transform="translate(159.000000, 102.000000)">
                    <polygon fill="#E23237" points="0.0996108949 45.522179 125.908171 0.697276265 255.103502 44.7252918 234.185214 211.175097 125.908171 271.140856 19.3245136 211.971984"></polygon>
                    <polygon fill="#B52E31" points="255.103502 44.7252918 125.908171 0.697276265 125.908171 271.140856 234.185214 211.274708"></polygon>
                    <path d="M126.107393,32.27393 L47.7136187,206.692607 L76.9992218,206.194553 L92.7377432,166.848249 L126.207004,166.848249 L126.306615,166.848249 L163.063035,166.848249 L180.29572,206.692607 L208.286381,207.190661 L126.107393,32.27393 Z M126.306615,88.155642 L152.803113,143.5393 L127.402335,143.5393 L126.107393,143.5393 L102.997665,143.5393 L126.306615,88.155642 Z" fill="#FFFFFF"></path>
                </g>
            </g>
        </g>
        <g id="javascript" transform="translate(70.000000, 90.000000)">
            <mask id="mask-8" fill="white">
                <use xlink:href="#path-7"></use>
            </mask>
            <use id="Mask" fill="#D8D8D8" transform="translate(183.564065, 157.942286) rotate(30.000000) translate(-183.564065, -157.942286) " xlink:href="#path-7"></use>
            <g mask="url(#mask-8)" fill-rule="nonzero" id="Shape">
                <g transform="translate(25.000000, -77.000000)">
                    <polygon fill="#F7DF1E" points="0 0 230 0 230 230 0 230"></polygon>
                    <path d="M60.4753968,192.204794 L78.0766032,181.552873 C81.4722063,187.573397 84.5611429,192.66735 91.9704288,192.66735 C99.0726824,192.66735 103.550381,189.889095 103.550381,179.082746 L103.550381,105.59227 L125.16454,105.59227 L125.16454,179.388318 C125.16454,201.774984 112.042127,211.964714 92.897,211.964714 C75.6064762,211.964714 65.5697143,203.009682 60.4750318,192.202968" fill="#000000"></path>
                    <path d="M136.904762,189.88873 L154.503778,179.699 C159.136635,187.264905 165.157889,192.822508 175.810174,192.822508 C184.765937,192.822508 190.476873,188.34481 190.476873,182.169127 C190.476873,174.758381 184.610413,172.13346 174.729174,167.812016 L169.327095,165.494492 C153.73273,158.856984 143.388206,150.520032 143.388206,132.91919 C143.388206,116.708206 155.739206,104.356476 175.038762,104.356476 C188.779619,104.356476 198.660492,109.143032 205.76165,121.648826 L188.932952,132.45554 C185.227397,125.817302 181.214445,123.193111 175.039127,123.193111 C168.709016,123.193111 164.694603,127.207158 164.694603,132.45554 C164.694603,138.940079 168.709016,141.565365 177.971445,145.579778 L183.374619,147.895476 C201.747238,155.769873 212.091762,163.797238 212.091762,181.86027 C212.091762,201.314619 196.80735,211.96654 176.273826,211.96654 C156.203222,211.96654 143.234143,202.394889 136.905127,189.88873" fill="#000000"></path>
                </g>
            </g>
        </g>
    </g>
</svg>