<svg xmlns="http://www.w3.org/2000/svg" viewBox="0 0 78.82 89.27"><defs><style>.cls-1{fill:#92278f;fill-rule:evenodd;}.cls-2{fill:#fff;}</style></defs><title>Product IconsAsset 18</title><g id="Layer_2" data-name="Layer 2"><g id="Layer_1-2" data-name="Layer 1"><path class="cls-1" d="M0,25.13a5.63,5.63,0,0,1,2.81-4.87L36.6.75a5.64,5.64,0,0,1,5.62,0L76,20.26a5.63,5.63,0,0,1,2.81,4.87v39A5.61,5.61,0,0,1,76,69L42.22,88.52a5.64,5.64,0,0,1-5.62,0L2.81,69A5.61,5.61,0,0,1,0,64.15Z"/><path class="cls-2" d="M31.06,32.76H36V57.08H31.47V39.25l-9.31,11-9.35-11V57.08H8.31V32.76h4.91L22.16,43.3Z"/><path class="cls-2" d="M40,32.76h4.5V57.08H40Z"/><path class="cls-2" d="M70.8,32.76v4.46h-10V57.08H56.27V37.22h-10V32.76Z"/></g></g></svg>