<svg xmlns="http://www.w3.org/2000/svg" viewBox="0 0 78.82 89.27"><defs><style>.cls-1{fill:#fbad18;}</style></defs><title>Product IconsAsset 3</title><g id="Layer_2" data-name="Layer 2"><g id="Layer_1-2" data-name="Layer 1"><rect class="cls-1" x="17" y="36.53" width="16.54" height="16.41" rx="0.25"/><path class="cls-1" d="M76,20.26,42.22.75a5.64,5.64,0,0,0-5.62,0L2.81,20.26A5.63,5.63,0,0,0,0,25.13v39A5.61,5.61,0,0,0,2.81,69L36.6,88.52a5.64,5.64,0,0,0,5.62,0L76,69a5.61,5.61,0,0,0,2.81-4.86v-39A5.63,5.63,0,0,0,76,20.26ZM38.38,52.69a5,5,0,0,1-5.09,5H12.2V31.78H33.29a5,5,0,0,1,5.09,5Zm30.28,5H42.48V31.75h4.8V53H68.66Zm.13-20.35H65.05v3.71h-2V37.35H59.43v-2h3.65V31.7h2v3.68h3.74Z"/></g></g></svg>