<?xml version="1.0" encoding="utf-8"?>
<!-- Generator: Adobe Illustrator 24.0.0, SVG Export Plug-In . SVG Version: 6.00 Build 0)  -->
<svg version="1.1" id="Layer_1" xmlns:serif="http://www.serif.com/"
	 xmlns="http://www.w3.org/2000/svg" xmlns:xlink="http://www.w3.org/1999/xlink" x="0px" y="0px" viewBox="0 0 1920 1080"
	 style="enable-background:new 0 0 1920 1080;" xml:space="preserve">
<style type="text/css">
	.st0{fill-rule:evenodd;clip-rule:evenodd;}
	.st1{fill-rule:evenodd;clip-rule:evenodd;fill:#FFFFFF;}
	.st2{fill-rule:evenodd;clip-rule:evenodd;fill:#E11F22;}
</style>
<g id="logo-white">
	<path id="grid" class="st0" d="M1920,662.4h-229.3c-32.2,0-58.3-26.1-58.3-58.3V448.7c0-32.2,26.1-58.3,58.3-58.3h163.2V289.3h66.1
		L1920,662.4L1920,662.4z M1605.2,390.4v272.1h-66.1V390.4H1605.2z M1511.9,390.4v66.1h-147.7c-6.4,0-11.7,5.2-11.7,11.7v194.3
		h-66.1V448.7c0-32.2,26.1-58.3,58.3-58.3L1511.9,390.4L1511.9,390.4z M1201,312.6c32.2,0,58.3,26.1,58.3,58.3v38.9h-66.1v-19.4
		c0-6.4-5.2-11.7-11.7-11.7H987.2c-6.4,0-11.7,5.2-11.7,11.7v194.3c0,6.4,5.2,11.7,11.7,11.7h194.3c6.4,0,11.7-5.2,11.7-11.7v-54.4
		h-77.7v-66.1h143.8v139.9c0,32.2-26.1,58.3-58.3,58.3H967.8c-32.2,0-58.3-26.1-58.3-58.3V370.9c0-32.2,26.1-58.3,58.3-58.3H1201z
		 M1853.9,456.4h-143.8c-6.4,0-11.7,5.2-11.7,11.7v116.6c0,6.4,5.2,11.7,11.7,11.7h143.8V456.4z"/>
	<g id="i-dot">
	</g>
	<path id="ag-fill" class="st1" d="M703.5,662.3V713c0,32.2-26.1,58.3-58.3,58.3H466.4v-50.5h174.9c6.6-0.2,11.7-5.3,11.7-11.7
		v-46.6H474.2c-32.4-0.2-58.3-26.2-58.3-58.3V440.9c0-32.2,26.1-58.3,58.3-58.3h171c32.2,0,58.3,26.1,58.3,58.3v171h116.6v-152
		c0.5,4,0.7,8.1,0.7,12.3v216.5c0,4.2-0.2,8.3-0.7,12.3v-38.7H703.5z M388.7,662.4H163.2c-32.2,0-58.3-26.1-58.3-58.3v-58.3H3v-50.5
		h335.2v-50.5c0-6.3-5-11.5-11.7-11.7H104.9v-50.5h225.4c32.4,0.2,58.3,26.2,58.3,58.3v221.5H388.7z"/>
	<path id="ag-outline" class="st2" d="M338.1,495.3H2.4V337.7c0-20.8,11.1-40.1,29.1-50.5L382.1,84.9c18-10.4,40.3-10.4,58.3,0
		L791,287.3c18,10.4,29.1,29.7,29.1,50.5V612H703.5V441c0-32.2-26.1-58.3-58.3-58.3h-171c-32.2,0-58.3,26.1-58.3,58.3v163.3
		c0,32.2,26.1,58.3,58.3,58.3H653v46.6c0,6.4-5.2,11.7-11.7,11.7H466.4v50.5h178.8c32.2,0,58.3-26.1,58.3-58.3v-50.7h116.6v80.2
		c0,20.8-11.1,40.1-29.1,50.5L440.4,995.4c-18,10.4-40.3,10.4-58.3,0L31.5,793c-18-10.4-29.1-29.7-29.1-50.5V545.8H105v58.3
		c0,32.2,26.1,58.3,58.3,58.3h225.4V440.9c0-32.2-26.1-58.3-58.3-58.3H104.9v50.5h221.5c6.4,0,11.7,5.2,11.7,11.7V495.3z
		 M338.1,611.9h-171c-6.4,0-11.7-5.2-11.7-11.7v-54.4h182.7V611.9z M641.3,433.1c6.4,0,11.7,5.2,11.7,11.7v155.5
		c0,6.4-5.2,11.7-11.7,11.7H478.1c-6.4,0-11.7-5.2-11.7-11.7V444.8c0-6.4,5.2-11.7,11.7-11.7L641.3,433.1L641.3,433.1z"/>
</g>
</svg>
