<svg xmlns="http://www.w3.org/2000/svg" viewBox="0 0 78.82 89.27"><defs><style>.cls-1{fill:#009ede;fill-rule:evenodd;}</style></defs><title>Product IconsAsset 1</title><g id="Layer_2" data-name="Layer 2"><g id="Layer_1-2" data-name="Layer 1"><path class="cls-1" d="M62.35,36.51h-16a.25.25,0,0,0-.26.25v7.45H62.61V36.76A.25.25,0,0,0,62.35,36.51Z"/><path class="cls-1" d="M76,20.26,42.22.75a5.64,5.64,0,0,0-5.62,0L2.81,20.26A5.63,5.63,0,0,0,0,25.13v39A5.61,5.61,0,0,0,2.81,69L36.6,88.52a5.64,5.64,0,0,0,5.62,0L76,69a5.61,5.61,0,0,0,2.81-4.86v-39A5.63,5.63,0,0,0,76,20.26ZM37.3,38.74H32.47v-2a.24.24,0,0,0-.22-.25H16.18a.25.25,0,0,0-.26.25v5.33a.24.24,0,0,0,.26.25H32.25a5,5,0,0,1,5,5v5.32a5,5,0,0,1-5,5H16.18a5,5,0,0,1-5.06-5v-2h4.8v2a.25.25,0,0,0,.26.26H32.25a.25.25,0,0,0,.22-.26V47.35a.25.25,0,0,0-.22-.26H16.18a5,5,0,0,1-5.06-5V36.76a5,5,0,0,1,5.06-5H32.25a5,5,0,0,1,5,5ZM67.44,57.68H62.61V49H46.06v8.71h-4.8V36.76a5,5,0,0,1,5.06-5h16a5,5,0,0,1,5.09,5Z"/></g></g></svg>