<?xml version="1.0" encoding="UTF-8"?>
<svg width="32px" height="32px" viewBox="0 0 32 32" version="1.1" xmlns="http://www.w3.org/2000/svg" xmlns:xlink="http://www.w3.org/1999/xlink">
    <!-- Generator: Sketch 51.3 (57544) - http://www.bohemiancoding.com/sketch -->
    <title>color-picker</title>
    <desc>Created with Sketch.</desc>
    <defs></defs>
    <g id="color-picker" stroke="none" stroke-width="1" fill="none" fill-rule="evenodd">
        <g id="drop" transform="translate(5.000000, 1.000000)" fill="#000000" fill-rule="nonzero">
            <path d="M13.1552676,3.30152542 C12.4848451,2.28457627 11.8932958,1.34898305 11.3411831,0.494745763 C11.2623099,0.372711864 11.144,0.250677966 11.0256901,0.169322034 C10.5524507,-0.156101695 9.92146479,0.00661016949 9.60597183,0.494745763 C9.09329577,1.34898305 8.50174648,2.24389831 7.79188732,3.30152542 C4.67639437,8.02016949 0.0228732394,15.1388136 0.0228732394,19.2066102 C0.0228732394,22.1761017 1.20597183,24.8608475 3.09892958,26.8133898 C4.99188732,28.7252542 7.59470423,29.9455932 10.4735775,29.9455932 C13.3524507,29.9455932 15.9552676,28.7252542 17.8482254,26.7727119 C19.7411831,24.8201695 20.9242817,22.1354237 20.9242817,19.1659322 C20.9242817,15.0981356 16.2707606,8.02016949 13.1552676,3.30152542 Z M16.428507,25.3083051 C14.8904789,26.8947458 12.800338,27.830339 10.4735775,27.830339 C8.1468169,27.830339 6.05667606,26.8540678 4.51864789,25.3083051 C2.98061972,23.7218644 2.07357746,21.5659322 2.07357746,19.1659322 C2.07357746,15.7489831 6.52991549,8.95576271 9.48766197,4.44050847 C9.84259155,3.91169492 10.1580845,3.38288136 10.4735775,2.93542373 C10.7890704,3.38288136 11.1045634,3.91169492 11.459493,4.44050847 C14.4172394,8.99644068 18.8735775,15.7489831 18.8735775,19.1659322 C18.8735775,21.5659322 17.9270986,23.7218644 16.428507,25.3083051 Z" id="Shape"></path>
            <path d="M15.5214648,19.41 C15.4820282,20.3049153 15.2059718,21.1591525 14.772169,21.8913559 C14.3383662,22.6235593 13.7073803,23.2744068 12.9580845,23.6811864 C12.4848451,23.9659322 12.287662,24.6167797 12.5637183,25.1049153 C12.8792113,25.6744068 13.5101972,25.8371186 13.9834366,25.5523729 C15.0482254,24.9422034 15.915831,24.0472881 16.5073803,23.030339 C17.1383662,22.0133898 17.4932958,20.7930508 17.5327324,19.5320339 C17.572169,18.9625424 15.5609014,18.8405085 15.5214648,19.41 Z" id="Shape"></path>
        </g>
    </g>
</svg>