<!-- Generated by IcoMoon.io -->
<svg version="1.1" xmlns="http://www.w3.org/2000/svg" width="100%" height="100%" viewBox="0 0 32 32">
<title>aggregation</title>
<path d="M25.128 2.002c2.56 0.096 4.772 2.292 4.87 4.87 0.078 6.084 0.078 12.172 0 18.256-0.096 2.56-2.292 4.772-4.87 4.87-6.084 0.078-12.172 0.078-18.256 0-2.558-0.096-4.772-2.29-4.87-4.87-0.078-6.084-0.078-12.172 0-18.256 0.096-2.56 2.292-4.772 4.87-4.87 6.084-0.078 12.172-0.078 18.256 0zM7.006 4c-1.57 0.020-2.946 1.348-3.004 2.922-0.078 6.078-0.23 12.16 0.002 18.234 0.094 1.484 1.354 2.746 2.84 2.84 6.1 0.232 12.212 0.232 18.312 0 1.48-0.094 2.746-1.35 2.84-2.84 0.232-6.1 0.232-12.212 0-18.312-0.094-1.48-1.35-2.746-2.84-2.84-6.046-0.23-12.1-0.004-18.15-0.004zM22 12h-2v-2h-8v0.092c0.056 1.352 3.426 2.598 4.472 4.404 0.682 1.174 0.438 2.754-0.572 3.72-1.61 1.402-3.9 2.708-3.9 3.784h8v-2h2v4h-12c0-1.586-0.098-3.304 1.016-4.314 1.904-1.632 4.89-3.108 3.54-4.42-1.918-1.68-4.464-2.936-4.554-5.12l-0.002-2.146h12v4z"></path>
</svg>
