<!-- Generated by IcoMoon.io -->
<svg version="1.1" xmlns="http://www.w3.org/2000/svg" width="100%" height="100%" viewBox="0 0 32 32">
<title>cancel</title>
<path d="M16 4c-6.622 0-12 5.378-12 12s5.378 12 12 12c6.622 0 12-5.378 12-12s-5.378-12-12-12zM16 6c5.52 0 10 4.48 10 10s-4.48 10-10 10c-5.52 0-10-4.48-10-10s4.48-10 10-10zM16 14.586l5.292-5.294c0.472 0.472 0.944 0.944 1.416 1.416l-5.294 5.292 5.294 5.292-1.416 1.416-5.292-5.294-5.292 5.294-1.416-1.416 5.294-5.292-5.294-5.292 1.416-1.416 5.292 5.294z"></path>
</svg>
