<!-- Generated by IcoMoon.io -->
<svg version="1.1" xmlns="http://www.w3.org/2000/svg" width="100%" height="100%" viewBox="0 0 32 32">
<title>checkbox-indeterminate</title>
<path d="M26.252 32h-20.503c-3.173 0-5.749-2.576-5.749-5.748v-20.503c0-3.173 2.576-5.749 5.749-5.749h20.503c3.173 0 5.748 2.576 5.748 5.749v20.503c0 3.173-2.576 5.748-5.748 5.748zM26.313 2.229h-20.597c-1.893 0-3.431 1.538-3.431 3.433v20.597c0 1.893 1.538 3.431 3.431 3.431h20.597c1.895 0 3.433-1.538 3.433-3.431v-20.597c0-1.895-1.538-3.433-3.433-3.433zM25.143 17.143h-18.286v-2.286h18.286v2.286z"></path>
</svg>
