<!-- Generated by IcoMoon.io -->
<svg version="1.1" xmlns="http://www.w3.org/2000/svg" width="100%" height="100%" viewBox="0 0 32 32">
<title>copy</title>
<path d="M21.929 27.999h-7.828c-2.806 0-5.086-2.278-5.086-5.086v-9.812c0-2.808 2.278-5.086 5.086-5.086h7.828c2.806 0 5.086 2.278 5.086 5.086v9.812c0 2.808-2.278 5.086-5.086 5.086zM22.089 10.015h-8.088c-1.622 0-2.938 1.316-2.938 2.938v10.132c0 1.622 1.316 2.938 2.938 2.938h8.088c1.62 0 2.936-1.316 2.936-2.938v-10.132c0-1.622-1.316-2.938-2.936-2.938zM7.041 26.013h-2.050c-0.004-0.076-0.006-0.152-0.006-0.228v-16.72c0-2.794 2.27-5.064 5.064-5.064h12.812c0.046 0 0.090 0 0.134 0.002v2.012h-13.080c-1.586 0-2.874 1.288-2.874 2.874v17.124z"></path>
</svg>
