<?xml version="1.0" encoding="UTF-8" standalone="no"?>
<!DOCTYPE svg PUBLIC "-//W3C//DTD SVG 1.1//EN" "http://www.w3.org/Graphics/SVG/1.1/DTD/svg11.dtd">
<svg width="100%" height="100%" viewBox="0 0 32 32" version="1.1" xmlns="http://www.w3.org/2000/svg" xmlns:xlink="http://www.w3.org/1999/xlink" xml:space="preserve" xmlns:serif="http://www.serif.com/" style="fill-rule:evenodd;clip-rule:evenodd;stroke-linejoin:round;stroke-miterlimit:2;">
    <g id="excel" transform="matrix(0.0628455,0,0,0.0628455,3.93367,-0.0538814)">
        <path d="M384,131.9C376.247,123.467 273.575,3.427 269.1,-1.1L48,-0.1C21.5,0 0,21.5 0,48L0,464C0,490.5 21.5,512 48,512L336,512C362.5,512 384,490.5 384,464L384,131.9ZM348.1,134L257,134L257,27.9L348.1,134ZM30,479L30,27L230,27L231,132C231,145.3 229.7,161 243,161L354,161L355,479L30,479Z" style="fill-rule:nonzero;"/>
        <g transform="matrix(2.95515,0,0,2.73617,-393.555,-508.033)">
            <g transform="matrix(96,0,0,96,167.839,336.768)">
                <path d="M0.052,-0.139L0.212,-0.373L0.077,-0.581C0.064,-0.601 0.055,-0.619 0.049,-0.633C0.042,-0.648 0.039,-0.661 0.039,-0.675C0.039,-0.688 0.045,-0.701 0.057,-0.712C0.07,-0.723 0.084,-0.728 0.102,-0.728C0.122,-0.728 0.138,-0.722 0.149,-0.71C0.16,-0.698 0.176,-0.676 0.196,-0.644L0.303,-0.47L0.418,-0.644C0.427,-0.659 0.435,-0.671 0.442,-0.682C0.449,-0.692 0.455,-0.701 0.461,-0.708C0.468,-0.714 0.475,-0.719 0.482,-0.723C0.49,-0.726 0.499,-0.728 0.509,-0.728C0.527,-0.728 0.542,-0.723 0.553,-0.712C0.565,-0.701 0.571,-0.688 0.571,-0.673C0.571,-0.651 0.558,-0.621 0.533,-0.584L0.392,-0.373L0.544,-0.139C0.558,-0.119 0.568,-0.102 0.574,-0.088C0.58,-0.075 0.583,-0.062 0.583,-0.05C0.583,-0.038 0.58,-0.028 0.575,-0.019C0.569,-0.009 0.561,-0.002 0.551,0.004C0.541,0.009 0.53,0.012 0.517,0.012C0.503,0.012 0.492,0.009 0.482,0.004C0.473,-0.002 0.465,-0.009 0.459,-0.018C0.454,-0.026 0.443,-0.042 0.427,-0.067L0.301,-0.265L0.167,-0.061C0.157,-0.045 0.149,-0.033 0.145,-0.027C0.14,-0.02 0.135,-0.014 0.129,-0.008C0.123,-0.002 0.115,0.003 0.107,0.007C0.098,0.01 0.089,0.012 0.077,0.012C0.06,0.012 0.045,0.007 0.033,-0.004C0.022,-0.015 0.016,-0.03 0.016,-0.051C0.016,-0.075 0.028,-0.104 0.052,-0.139Z" style="fill-rule:nonzero;"/>
            </g>
        </g>
    </g>
</svg>
