<!-- Generated by IcoMoon.io -->
<svg version="1.1" xmlns="http://www.w3.org/2000/svg" width="100%" height="100%" viewBox="0 0 32 32">
<title>not-allowed</title>
<path d="M16.186 3.646c8.188 0.154 14.898 9.796 11.17 17.78-3.298 7.066-13.932 9.374-19.848 3.87-3.9-3.632-5.076-9.896-2.684-14.708 2.082-4.19 6.588-6.974 11.362-6.942zM15.888 5.644c-6.922 0.132-12.578 8.308-9.33 15.052 3.342 6.934 15.246 7.646 18.932 0 3.076-6.386-1.988-15.1-9.602-15.052zM23.484 12.066c2.864 5.33-1.744 13.186-8.306 12.536-1.136-0.112-2.228-0.46-3.232-0.998l-1.266-0.706 12.098-12.098c0.234 0.422 0.47 0.844 0.706 1.266zM14.062 22.342c3.296 1.028 7.246-1.006 8.216-4.418 0.346-1.222 0.322-2.53-0.056-3.742-2.72 2.72-5.44 5.44-8.16 8.16zM16.166 7.646c1.376 0.034 2.728 0.388 3.936 1.038l1.266 0.706-12.098 12.098c-3.018-5.41-0.99-13.37 6.318-13.834 0.192-0.006 0.386-0.010 0.578-0.008zM15.856 9.646c-4.060 0.154-7.23 4.614-6.030 8.46l8.16-8.16c-0.69-0.216-1.404-0.308-2.13-0.3z"></path>
</svg>
