<!-- Generated by IcoMoon.io -->
<svg version="1.1" xmlns="http://www.w3.org/2000/svg" width="100%" height="100%" viewBox="0 0 32 32">
<title>paste</title>
<path d="M20 6.5c0-1-1-3-4-3s-4 2-4 3h-4c-2.21 0-4 1.79-4 4v14c0 2.21 1.79 4 4 4h16c2.21 0 4-1.79 4-4v-14c0-2.21-1.79-4-4-4h-4zM16 7.046c0.734 0 1.334 0.572 1.334 1.272s-0.6 1.272-1.334 1.272c-0.734 0-1.334-0.572-1.334-1.272s0.6-1.272 1.334-1.272zM24 26.5h-16c-1.104 0-2-0.896-2-2v-14c0-1.104 0.896-2 2-2h2v4h12v-4h2c1.104 0 2 0.896 2 2v14c0 1.104-0.896 2-2 2z"></path>
</svg>
