<!-- Generated by IcoMoon.io -->
<svg version="1.1" xmlns="http://www.w3.org/2000/svg" width="32" height="32" viewBox="0 0 32 32">
<title>eye-slash</title>
<path d="M21.106 15.088c-0.432-2.428-2.555-4.274-5.106-4.274-1.431 0-2.729 0.581-3.668 1.522l-2.466-2.468c1.803-1.047 3.899-1.646 6.133-1.646 5.186 0 9.614 3.225 11.408 7.778-1.022 2.59-2.896 4.752-5.276 6.133l-2.468-2.466c0.747-0.745 1.266-1.717 1.449-2.802h-2.123c-0.148 0.508-0.42 0.964-0.782 1.33l-1.33-1.33h-2.514l2.196 2.196c-0.181 0.032-0.368 0.050-0.56 0.050-1.42 0-2.615-0.948-2.99-2.245h-2.123c0.412 2.45 2.546 4.32 5.113 4.32 0.78 0 1.522-0.174 2.187-0.484l2.247 2.247c-1.374 0.535-2.869 0.828-4.434 0.828-5.186 0-9.614-3.225-11.408-7.778 0.796-2.020 2.112-3.78 3.781-5.111l2.924 2.924c-0.187 0.4-0.324 0.827-0.404 1.275h4.206l-1.296-1.296c0.564-0.558 1.339-0.903 2.196-0.903 1.404 0 2.587 0.924 2.976 2.199l2.13 0z"></path>
</svg>
