<?xml version="1.0" encoding="UTF-8" standalone="no"?>
<!DOCTYPE svg PUBLIC "-//W3C//DTD SVG 1.1//EN" "http://www.w3.org/Graphics/SVG/1.1/DTD/svg11.dtd">
<svg width="100%" height="100%" viewBox="0 0 32 32" version="1.1" xmlns="http://www.w3.org/2000/svg" xmlns:xlink="http://www.w3.org/1999/xlink" xml:space="preserve" xmlns:serif="http://www.serif.com/" style="fill-rule:evenodd;clip-rule:evenodd;stroke-linejoin:round;stroke-miterlimit:2;">
    <path id="linked" d="M5.2,16C5.2,13.72 7.053,11.867 9.333,11.867L14.666,11.867L14.666,9.334L9.333,9.334C5.653,9.334 2.666,12.321 2.666,16.001C2.666,19.681 5.653,22.668 9.333,22.668L14.666,22.668L14.666,20.135L9.333,20.135C7.053,20.135 5.2,18.282 5.2,16.002L5.2,16ZM10.667,17.333L21.334,17.333L21.334,14.666L10.667,14.666L10.667,17.333ZM22.667,9.333L17.334,9.333L17.334,11.866L22.667,11.866C24.947,11.866 26.8,13.719 26.8,15.999C26.8,18.279 24.947,20.132 22.667,20.132L17.334,20.132L17.334,22.665L22.667,22.665C26.347,22.665 29.334,19.678 29.334,15.998C29.334,12.318 26.347,9.331 22.667,9.331L22.667,9.333Z" style="fill-rule:nonzero;"/>
</svg>
