<svg width="100%" height="100%" viewBox="0 0 12 12" version="1.1" xmlns="http://www.w3.org/2000/svg" xmlns:xlink="http://www.w3.org/1999/xlink" xml:space="preserve" xmlns:serif="http://www.serif.com/" style="fill-rule:evenodd;clip-rule:evenodd;stroke-linejoin:round;stroke-miterlimit:1.41421;">
    <g id="arrows" transform="matrix(0.6,0,0,0.6,0,0)">
        <path fill="#000000" d="M9,4L9,3.83L7.41,5.41L6,4L10,0L14,4L12.59,5.41L11,3.83L11,9L16.17,9L14.59,7.41L16,6L20,10L16,14L14.59,12.59L16.17,11L11,11L11,16.17L12.59,14.59L14,16L10,20L6,16L7.41,14.59L9,16.17L9,16L9,11L3.83,11L5.41,12.59L4,14L0,10L4,6L5.41,7.41L3.83,9L9,9L9,4Z" style="fill-rule:nonzero;"/>
    </g>
</svg>
