<svg width="100%" height="100%" viewBox="0 0 60 60" version="1.1" xmlns="http://www.w3.org/2000/svg" xmlns:xlink="http://www.w3.org/1999/xlink" xml:space="preserve" xmlns:serif="http://www.serif.com/" style="fill-rule:evenodd;clip-rule:evenodd;stroke-linejoin:round;stroke-miterlimit:1.41421;">
    <g id="chart-line">
        <g>
            <g transform="matrix(1,0,0,1.10052,-0.323751,-2.08548)">
                <rect fill="#000000" x="2.324" y="3.712" width="1.015" height="49.976" style="fill-opacity:0.6;"/>
            </g>
            <g transform="matrix(-0.000372774,1,-1.10052,-0.000410246,60.0863,52.6778)">
                <rect fill="#000000" x="2.324" y="3.712" width="1.015" height="49.976" style="fill-opacity:0.6;"/>
            </g>
        </g>
        <g>
            <g transform="matrix(1,0,0,1,0,13)">
                <path d="M48.694,6.727L57.464,8.252C57.927,8.485 57.792,9.255 57.199,9.212L48.784,7.757L27.875,29.382C27.722,29.47 27.67,29.464 27.611,29.473L10.546,30.303L3.11,37.568C2.654,37.806 2.084,37.273 2.487,36.792L9.983,29.456C10.076,29.379 10.185,29.331 10.308,29.314L27.365,28.483L48.323,6.809C48.385,6.774 48.453,6.709 48.694,6.727Z" style="fill:rgb(82,151,229);fill-rule:nonzero;"/>
            </g>
            <path d="M11.223,24.672C11.307,24.692 11.307,24.692 11.384,24.73L27.729,35.435L44.626,32.717C44.719,32.729 44.805,32.765 44.88,32.827L54.595,42.528C54.853,42.852 54.442,43.36 54.065,43.059L44.485,33.493L27.636,36.203C27.593,36.198 27.555,36.203 27.44,36.142L11.085,25.431L2.751,26.332C2.362,26.241 2.321,25.684 2.754,25.586L11.138,24.671C11.166,24.671 11.195,24.671 11.223,24.672Z" style="fill:rgb(235,168,6);fill-rule:nonzero;"/>
            <path d="M2.781,8.105C2.86,8.135 2.86,8.135 2.929,8.181L11.716,15.629L30.075,14.668C30.124,14.682 30.171,14.683 30.285,14.779L44.884,30.016L56.876,23.942C57.272,23.889 57.507,24.396 57.136,24.641L44.975,30.81C44.816,30.871 44.669,30.848 44.535,30.735L29.863,15.422L11.536,16.383C11.407,16.352 11.381,16.323 11.345,16.297L2.444,8.754C2.103,8.391 2.295,8.035 2.781,8.105Z" style="fill:rgb(195,32,69);fill-rule:nonzero;"/>
        </g>
    </g>
</svg>
