<svg width="100%" height="100%" viewBox="0 0 60 60" version="1.1" xmlns="http://www.w3.org/2000/svg" xmlns:xlink="http://www.w3.org/1999/xlink" xml:space="preserve" xmlns:serif="http://www.serif.com/" style="fill-rule:evenodd;clip-rule:evenodd;stroke-linejoin:round;stroke-miterlimit:1.41421;">
    <g id="chart-bar-stacked">
        <g transform="matrix(1,0,0,0.786071,-17.8598,12.4524)">
            <g transform="matrix(1,0,0,0.339364,35.8608,-2.42342)">
                <rect x="5.999" y="27.937" width="9.985" height="29.989" style="fill:rgb(82,151,229);"/>
            </g>
            <g transform="matrix(1,0,0,0.848411,35.8608,-6.52937)">
                <rect x="5.999" y="27.937" width="9.985" height="29.989" style="fill:rgb(195,32,69);"/>
            </g>
            <g transform="matrix(1,0,0,0.509047,35.8608,28.4564)">
                <rect x="5.999" y="27.937" width="9.985" height="29.989" style="fill:rgb(235,168,6);"/>
            </g>
        </g>
        <g transform="matrix(1,0,0,0.589632,-35.9996,23.7249)">
            <g transform="matrix(1,0,0,0.452425,36.0006,-5.38895)">
                <rect x="5.999" y="27.937" width="9.985" height="29.989" style="fill:rgb(82,151,229);"/>
            </g>
            <g transform="matrix(1,0,0,0.791744,36.0006,-1.30072)">
                <rect x="5.999" y="27.937" width="9.985" height="29.989" style="fill:rgb(195,32,69);"/>
            </g>
            <g transform="matrix(1,0,0,0.452425,36.0006,31.9225)">
                <rect x="5.999" y="27.937" width="9.985" height="29.989" style="fill:rgb(235,168,6);"/>
            </g>
        </g>
        <g>
            <g transform="matrix(1,0,0,0.366801,36.0006,-3.24732)">
                <rect x="5.999" y="27.937" width="9.985" height="29.989" style="fill:rgb(82,151,229);"/>
            </g>
            <g transform="matrix(1,0,0,0.833639,36.0006,-5.28937)">
                <rect x="5.999" y="27.937" width="9.985" height="29.989" style="fill:rgb(195,32,69);"/>
            </g>
            <g transform="matrix(1,0,0,0.499199,36.0006,29.0834)">
                <rect x="5.999" y="27.937" width="9.985" height="29.989" style="fill:rgb(235,168,6);"/>
            </g>
        </g>
    </g>
</svg>
