<svg width="100%" height="100%" viewBox="0 0 12 12" version="1.1" xmlns="http://www.w3.org/2000/svg" xmlns:xlink="http://www.w3.org/1999/xlink" xml:space="preserve" xmlns:serif="http://www.serif.com/" style="fill-rule:evenodd;clip-rule:evenodd;stroke-linejoin:round;stroke-miterlimit:1.41421;">
    <g id="checkbox-indeterminate-readonly">
        <g transform="matrix(1.91914,0,0,1.88065,-6.39607,-0.420288)">
            <path fill="#000000" d="M9.58,1.015C9.58,0.575 9.23,0.217 8.799,0.217L4.118,0.217C3.686,0.217 3.336,0.575 3.336,1.015L3.336,5.817C3.336,6.257 3.686,6.614 4.118,6.614L8.799,6.614C9.23,6.614 9.58,6.257 9.58,5.817L9.58,1.015Z"/>
        </g>
        <g transform="matrix(1.04088,0,0,1.02789,-0.339596,-0.306487)">
            <path fill="#D8D8D8" d="M10.877,1.746C10.877,1.487 10.669,1.277 10.413,1.277L1.749,1.277C1.493,1.277 1.285,1.487 1.285,1.746L1.285,10.518C1.285,10.777 1.493,10.988 1.749,10.988L10.413,10.988C10.669,10.988 10.877,10.777 10.877,10.518L10.877,1.746Z"/>
        </g>
        <rect id="Rectangle-16" x="4" y="5" width="4" height="2"/>
    </g>
</svg>
