<svg width="100%" height="100%" viewBox="0 0 12 12" version="1.1" xmlns="http://www.w3.org/2000/svg" xmlns:xlink="http://www.w3.org/1999/xlink" xml:space="preserve" xmlns:serif="http://www.serif.com/" style="fill-rule:evenodd;clip-rule:evenodd;stroke-linejoin:round;stroke-miterlimit:1.41421;">
    <g id="cut">
        <path fill="#000000" d="M6.303,4.577C7.504,3.565 8.638,2.594 9.556,2.611C9.792,2.625 10.018,2.698 10.223,2.814L10.866,3.205C9.853,4.027 8.863,4.915 7.85,5.756C8.865,6.55 9.865,7.365 10.866,8.178C10.02,8.692 9.244,8.937 8.095,8.098C7.567,7.713 6.966,7.26 6.448,6.865C5.52,7.555 4.557,8.166 3.529,8.617C2.55,9.048 0.985,8.447 1.402,7.131C1.615,6.46 2.187,6.032 2.807,5.743C1.811,5.208 1.073,4.238 1.448,3.42C1.699,2.872 2.162,2.593 2.928,2.612C3.881,2.671 4.696,3.418 5.541,4.022C5.796,4.204 6.051,4.39 6.303,4.577ZM4.483,6.264C3.284,6.318 1.488,7.832 2.885,7.772C3.428,7.748 3.948,7.247 4.509,6.863C4.509,6.863 4.573,6.263 4.483,6.264ZM2.829,3.611C2.756,3.614 2.684,3.625 2.615,3.648C2.57,3.663 2.526,3.683 2.485,3.708C1.757,4.157 3.57,5.105 4.5,5.119L4.509,4.52C3.93,4.123 3.274,3.605 2.829,3.611Z" style="fill-rule:nonzero;"/>
    </g>
</svg>
