<svg width="100%" height="100%" viewBox="0 0 12 12" version="1.1" xmlns="http://www.w3.org/2000/svg" xmlns:xlink="http://www.w3.org/1999/xlink" xml:space="preserve" xmlns:serif="http://www.serif.com/" style="fill-rule:evenodd;clip-rule:evenodd;stroke-linejoin:round;stroke-miterlimit:1.41421;">
    <g transform="matrix(0.5,0,0,0.5,0.082,-0.04675)">
        <path fill="#000000" d="M3.505,16.682C4.885,16.682 6.005,17.803 6.005,19.182C6.005,20.562 4.885,21.682 3.505,21.682C2.125,21.682 1.005,20.562 1.005,19.182C1.005,17.803 2.125,16.682 3.505,16.682ZM22.667,16.682L22.667,21.682L6.667,21.682L6.667,16.682L22.667,16.682ZM3.505,9.596C4.885,9.596 6.005,10.716 6.005,12.096C6.005,13.476 4.885,14.596 3.505,14.596C2.125,14.596 1.005,13.476 1.005,12.096C1.005,10.716 2.125,9.596 3.505,9.596ZM22.667,9.594L22.667,14.594L6.667,14.594L6.667,9.594L22.667,9.594ZM3.505,10.346C4.471,10.346 5.255,11.13 5.255,12.096C5.255,13.062 4.471,13.846 3.505,13.846C2.539,13.846 1.755,13.062 1.755,12.096C1.755,11.13 2.539,10.346 3.505,10.346ZM22.667,2.505L22.667,7.505L6.667,7.505L6.667,2.505L22.667,2.505ZM3.505,2.505C4.885,2.505 6.005,3.625 6.005,5.005C6.005,6.385 4.885,7.505 3.505,7.505C2.125,7.505 1.005,6.385 1.005,5.005C1.005,3.625 2.125,2.505 3.505,2.505Z"/>
    </g>
</svg>
