<svg width="100%" height="100%" viewBox="0 0 12 12" version="1.1" xmlns="http://www.w3.org/2000/svg" xmlns:xlink="http://www.w3.org/1999/xlink" xml:space="preserve" xmlns:serif="http://www.serif.com/" style="fill-rule:evenodd;clip-rule:evenodd;stroke-linejoin:round;stroke-miterlimit:1.41421;">
    <g id="eye-slash">
        <path fill="#000000" d="M3.47,2.619L4.087,2.132L4.545,2.714C5.04,2.572 5.56,2.497 6.101,2.501C8.352,2.554 10.27,4.024 11.603,6C10.947,6.973 10.064,7.826 9.06,8.439L9.698,9.249L8.913,9.868L8.53,9.381L8.698,9.249L5.081,4.661C5.557,4.558 6.052,4.526 6.532,4.508C6.689,4.503 6.845,4.501 7.002,4.5C7.001,4.167 6.999,3.833 6.998,3.5L6.872,3.501C6.037,3.511 5.19,3.561 4.406,3.805L3.47,2.619ZM2.879,3.483L5.634,6.978C4.327,6.819 3.279,5.819 3.048,4.536C2.501,4.939 2.014,5.439 1.608,6C2.775,7.611 4.802,8.683 6.775,8.424L7.381,9.193C5.952,9.615 4.413,9.531 2.993,8.679C1.919,8.035 1.106,7.052 0.397,6C1.066,5.008 1.903,4.118 2.879,3.483ZM8.547,7.788C9.259,7.348 9.846,6.738 10.343,6.068C10.343,6.068 9.836,5.304 8.938,4.61C8.769,5.43 8.264,6.128 7.574,6.554L8.547,7.788Z"/>
    </g>
</svg>
