<svg width="100%" height="100%" viewBox="0 0 12 12" version="1.1" xmlns="http://www.w3.org/2000/svg" xmlns:xlink="http://www.w3.org/1999/xlink" xml:space="preserve" xmlns:serif="http://www.serif.com/" style="fill-rule:evenodd;clip-rule:evenodd;stroke-linejoin:round;stroke-miterlimit:1.41421;">
    <g transform="matrix(1,0,0,1,-8.88178e-16,0.0294512)">
        <g id="eye">
            <path fill="#000000" d="M6.101,2.501C8.352,2.554 10.27,4.024 11.603,6C9.75,8.748 6.088,10.536 2.993,8.679C1.919,8.035 1.106,7.052 0.397,6C1.718,4.042 3.689,2.482 6.101,2.501ZM3.048,4.536C2.501,4.939 2.014,5.439 1.608,6C3.107,8.069 6.023,9.249 8.422,7.863C9.191,7.419 9.817,6.776 10.343,6.068C10.343,6.068 9.836,5.304 8.938,4.61C8.656,5.974 7.448,7 6,7C4.526,7 3.3,5.937 3.048,4.536ZM7.002,4.5C6.845,4.501 6.689,4.503 6.532,4.508C5.753,4.537 4.934,4.603 4.218,4.95L3.782,4.05C4.727,3.592 5.81,3.513 6.872,3.501L6.998,3.5C6.999,3.833 7.001,4.167 7.002,4.5Z"/>
        </g>
    </g>
</svg>
