<svg width="100%" height="100%" viewBox="0 0 12 12" version="1.1" xmlns="http://www.w3.org/2000/svg" xmlns:xlink="http://www.w3.org/1999/xlink" xml:space="preserve" xmlns:serif="http://www.serif.com/" style="fill-rule:evenodd;clip-rule:evenodd;stroke-linejoin:round;stroke-miterlimit:1.41421;">
    <g id="folder" transform="matrix(1,0,0,1,0.5,-0.5)">
        <path fill="#000000" d="M6.707,3L9.707,3L11,4.293L11,9.707L9.707,11L1.327,11L0,9.957L0,3.319L1.099,2L5.707,2L6.707,3ZM7.707,4L5.707,6L1,6L1,9.471L1.673,10L9.293,10L10,9.293L10,4.707L9.293,4L7.707,4ZM5.293,3L1.568,3L1,3.681L1,5L5.293,5L6.293,4L5.293,3Z" style="fill-rule:nonzero;"/>
    </g>
</svg>
