<svg width="100%" height="100%" viewBox="0 0 12 12" version="1.1" xmlns="http://www.w3.org/2000/svg" xmlns:xlink="http://www.w3.org/1999/xlink" xml:space="preserve" xmlns:serif="http://www.serif.com/" style="fill-rule:evenodd;clip-rule:evenodd;stroke-linejoin:round;stroke-miterlimit:1.41421;">
    <g id="grip">
        <path fill="#000000" d="M2,9.5L4,9.5L4,11.5L2,11.5L2,9.5ZM5,9.5L7,9.5L7,11.5L5,11.5L5,9.5ZM8,9.5L10,9.5L10,11.5L8,11.5L8,9.5ZM2,6.5L4,6.5L4,8.5L2,8.5L2,6.5ZM5,6.5L7,6.5L7,8.5L5,8.5L5,6.5ZM8,6.5L10,6.5L10,8.5L8,8.5L8,6.5ZM2,3.5L4,3.5L4,5.5L2,5.5L2,3.5ZM5,3.5L7,3.5L7,5.5L5,5.5L5,3.5ZM8,3.5L10,3.5L10,5.5L8,5.5L8,3.5ZM2,0.5L4,0.5L4,2.5L2,2.5L2,0.5ZM5,0.5L7,0.5L7,2.5L5,2.5L5,0.5ZM10,2.5L8,2.5L8,0.5L10,0.5L10,2.5Z"/>
    </g>
</svg>
