<svg width="100%" height="100%" viewBox="0 0 12 12" version="1.1" xmlns="http://www.w3.org/2000/svg" xmlns:xlink="http://www.w3.org/1999/xlink" xml:space="preserve" xmlns:serif="http://www.serif.com/" style="fill-rule:evenodd;clip-rule:evenodd;stroke-linejoin:round;stroke-miterlimit:1.41421;">
    <g transform="matrix(1,0,0,1,0,-0.5)">
        <g id="group">
            <path fill="#000000" d="M5,2L7,2L7,1L11,1L11,4L7,4L7,3L5,3L5,4L3,4L3,6L7,6L7,5L11,5L11,8L7,8L7,7L3,7L3,10L7,10L7,9L11,9L11,12L7,12L7,11L2,11L2,4L1,4L1,1L5,1L5,2ZM10,10L8,10L8,11L10,11L10,10ZM10,6L8,6L8,7L10,7L10,6ZM10,2L8,2L8,3L10,3L10,2ZM4,2L2,2L2,3L4,3L4,2Z"/>
        </g>
    </g>
</svg>
