<svg width="100%" height="100%" viewBox="0 0 12 12" version="1.1" xmlns="http://www.w3.org/2000/svg" xmlns:xlink="http://www.w3.org/1999/xlink" xml:space="preserve" xmlns:serif="http://www.serif.com/" style="fill-rule:evenodd;clip-rule:evenodd;stroke-linejoin:round;stroke-miterlimit:1.41421;">
    <g transform="matrix(1,0,0,1,-8.88178e-16,0.0318537)">
        <g id="indeterminate">
            <path fill="#000000" d="M6.099,3.501C8.018,3.531 9.908,4.249 11.287,5.58L11.711,6C8.758,8.919 3.804,9.403 0.713,6.42L0.289,6C1.846,4.461 3.91,3.489 6.099,3.501ZM8.798,5.084C8.364,6.205 7.275,7 6,7C4.725,7 3.637,6.205 3.202,5.084C2.688,5.312 2.206,5.607 1.772,5.968L1.735,6C4.056,7.985 7.847,8.018 10.228,6.032L10.265,6C9.823,5.622 9.327,5.317 8.798,5.084ZM7.002,5.5C6.845,5.501 6.689,5.503 6.532,5.508C5.753,5.537 4.934,5.603 4.218,5.95L3.782,5.05C4.727,4.592 5.81,4.513 6.872,4.501L6.998,4.5C6.999,4.833 7.001,5.167 7.002,5.5Z"/>
        </g>
    </g>
</svg>
