<svg width="100%" height="100%" viewBox="0 0 12 12" version="1.1" xmlns="http://www.w3.org/2000/svg" xmlns:xlink="http://www.w3.org/1999/xlink" xml:space="preserve" xmlns:serif="http://www.serif.com/" style="fill-rule:evenodd;clip-rule:evenodd;stroke-linejoin:round;stroke-miterlimit:1.41421;">
    <path d="M7,11L5,11L5,8L7,8L7,11ZM4,7L1,7L1,5L4,5L4,7ZM11,7L8,7L8,5L11,5L11,7ZM7,4L5,4L5,1L7,1L7,4Z" style="fill:rgb(151,151,151);fill-rule:nonzero;"/>
    <path d="M10.243,8.828L8.828,10.243L6.707,8.121L8.121,6.707C8.828,7.414 9.536,8.121 10.243,8.828ZM5.293,8.121L3.172,10.243L1.757,8.828L3.879,6.707C4.35,7.179 4.821,7.65 5.293,8.121ZM10.243,3.172L8.121,5.293L6.707,3.879L8.828,1.757C9.3,2.229 9.771,2.7 10.243,3.172ZM5.293,3.879L3.879,5.293L1.757,3.172L3.172,1.757C3.879,2.464 4.586,3.172 5.293,3.879Z" style="fill:rgb(151,151,151);fill-opacity:0.647059;fill-rule:nonzero;"/>
</svg>
