<svg width="100%" height="100%" viewBox="0 0 12 12" version="1.1" xmlns="http://www.w3.org/2000/svg" xmlns:xlink="http://www.w3.org/1999/xlink" xml:space="preserve" xmlns:serif="http://www.serif.com/" style="fill-rule:evenodd;clip-rule:evenodd;stroke-linejoin:round;stroke-miterlimit:1.41421;">
    <path id="maximize" fill="#000000" d="M10.49,12.019L1.506,12.019C0.678,12.019 0.006,11.347 0.006,10.519L0.006,1.488C0.006,0.66 0.678,-0.012 1.506,-0.012L10.49,-0.012C11.318,-0.012 11.99,0.66 11.99,1.488L11.99,10.519C11.99,11.347 11.318,12.019 10.49,12.019ZM10.499,1.006L1.481,1.006C1.214,1.006 0.998,1.222 0.998,1.488L0.998,10.505C0.998,10.771 1.214,10.988 1.481,10.988L10.499,10.988C10.766,10.988 10.982,10.771 10.982,10.505L10.982,1.488C10.982,1.222 10.766,1.006 10.499,1.006ZM4.328,9.481L1.66,10.335L2.513,7.666L3.09,8.244L4.957,6.377L5.624,7.044L3.757,8.911L4.328,9.481ZM9.474,4.339L10.332,1.655L7.648,2.513L8.229,3.094L6.351,4.971L7.022,5.642L8.9,3.765L9.474,4.339Z" style="fill-opacity:0.984314;fill-rule:nonzero;"/>
</svg>
