<svg version="1.1" xmlns="http://www.w3.org/2000/svg" xmlns:xlink="http://www.w3.org/1999/xlink" preserveAspectRatio="xMidYMid meet" viewBox="0 0 16 16"><defs><path d="M15.47 0C15.76 0 16 0.24 16 0.53C16 3.63 16 12.37 16 15.47C16 15.76 15.76 16 15.47 16C12.37 16 3.63 16 0.53 16C0.24 16 0 15.76 0 15.47C0 12.37 0 3.63 0 0.53C0 0.24 0.24 0 0.53 0C3.63 0 12.37 0 15.47 0Z" id="a4nhf7OpPq"></path><clipPath id="clipinh4lTltg"><use xlink:href="#a4nhf7OpPq" opacity="1"></use></clipPath><path d="M12.84 5.98L14.17 1.82L10.01 3.15L10.91 4.05L8 6.96L9.04 8L11.95 5.09L12.84 5.98Z" id="kANGwBYW"></path><path d="M5.98 12.84L1.82 14.17L3.15 10.01L4.05 10.91L6.96 8L8 9.04L5.09 11.95L5.98 12.84Z" id="aLSBphQ9Q"></path></defs><g><g><g><use xlink:href="#a4nhf7OpPq" opacity="1" fill="#6d4bbd" fill-opacity="0"></use><g clip-path="url(#clipinh4lTltg)"><use xlink:href="#a4nhf7OpPq" opacity="1" fill-opacity="0" stroke="#000000" stroke-width="2" stroke-opacity="1"></use></g></g><g><use xlink:href="#kANGwBYW" opacity="1" fill="#000000" fill-opacity="0.99"></use></g><g><use xlink:href="#aLSBphQ9Q" opacity="1" fill="#000000" fill-opacity="0.99"></use></g></g></g></svg>