<svg version="1.1" xmlns="http://www.w3.org/2000/svg" xmlns:xlink="http://www.w3.org/1999/xlink" preserveAspectRatio="xMidYMid meet" viewBox="0 0 16 16"><defs><path d="M15.47 0C15.76 0 16 0.24 16 0.53C16 3.63 16 12.37 16 15.47C16 15.76 15.76 16 15.47 16C12.37 16 3.63 16 0.53 16C0.24 16 0 15.76 0 15.47C0 12.37 0 3.63 0 0.53C0 0.24 0.24 0 0.53 0C3.63 0 12.37 0 15.47 0Z" id="a4nhf7OpPq"></path><clipPath id="clipinh4lTltg"><use xlink:href="#a4nhf7OpPq" opacity="1"></use></clipPath><path d="M9.85 3.32L8.52 7.48L12.68 6.15L11.78 5.25L14.69 2.34L13.65 1.3L10.74 4.21L9.85 3.32Z" id="b1fE1UbWHu"></path><path d="M3.32 9.85L7.48 8.52L6.15 12.68L5.25 11.78L2.34 14.69L1.3 13.65L4.21 10.74L3.32 9.85Z" id="b7qzr69c4"></path></defs><g><g><g><use xlink:href="#a4nhf7OpPq" opacity="1" fill="#6d4bbd" fill-opacity="0"></use><g clip-path="url(#clipinh4lTltg)"><use xlink:href="#a4nhf7OpPq" opacity="1" fill-opacity="0" stroke="#000000" stroke-width="2" stroke-opacity="1"></use></g></g><g><use xlink:href="#b1fE1UbWHu" opacity="1" fill="#000000" fill-opacity="0.99"></use></g><g><use xlink:href="#b7qzr69c4" opacity="1" fill="#000000" fill-opacity="0.99"></use></g></g></g></svg>