<svg width="100%" height="100%" viewBox="0 0 12 12" version="1.1" xmlns="http://www.w3.org/2000/svg" xmlns:xlink="http://www.w3.org/1999/xlink" xml:space="preserve" xmlns:serif="http://www.serif.com/" style="fill-rule:evenodd;clip-rule:evenodd;stroke-linejoin:round;stroke-miterlimit:1.41421;">
    <g id="not-allowed">
        <path fill="#000000" d="M6.002,-0.022C9.31,-0.022 11.996,2.673 11.996,5.992C11.996,9.311 9.31,12.006 6.002,12.006C2.693,12.006 0.007,9.311 0.007,5.992C0.007,2.673 2.693,-0.022 6.002,-0.022ZM9.948,2.922L2.932,9.938C3.78,10.598 4.845,10.992 6.002,10.992C8.761,10.992 11.002,8.752 11.002,5.992C11.002,4.835 10.608,3.77 9.948,2.922ZM9.078,2.052C8.23,1.388 7.162,0.992 6.002,0.992C3.242,0.992 1.002,3.232 1.002,5.992C1.002,7.152 1.398,8.22 2.061,9.069L9.078,2.052Z" style="fill-rule:nonzero;"/>
    </g>
</svg>
