<svg width="100%" height="100%" viewBox="0 0 12 12" version="1.1" xmlns="http://www.w3.org/2000/svg" xmlns:xlink="http://www.w3.org/1999/xlink" xml:space="preserve" xmlns:serif="http://www.serif.com/" style="fill-rule:evenodd;clip-rule:evenodd;stroke-linejoin:round;stroke-miterlimit:1.41421;">
    <g transform="matrix(1,0,0,1,-1.2207e-08,0.5)">
        <g id="paste">
            <path fill="#000000" d="M7,2L10,2C10,4.667 10,7.333 10,10L2,10L2,2L5,2L5,1L7,1L7,2ZM9,3L7,3C7,3 8,3 8,3L8,5L4,5L4,3L5,3C5,3 3,3 3,3L3,9L9,9L9,3Z" style="fill-rule:nonzero;"/>
        </g>
    </g>
</svg>
