<svg width="100%" height="100%" viewBox="0 0 12 12" version="1.1" xmlns="http://www.w3.org/2000/svg" xmlns:xlink="http://www.w3.org/1999/xlink" xml:space="preserve" xmlns:serif="http://www.serif.com/" style="fill-rule:evenodd;clip-rule:evenodd;stroke-linejoin:round;stroke-miterlimit:1.41421;">
    <g id="pivot">
        <path fill="#000000" d="M10.49,12.019L1.506,12.019C0.678,12.019 0.006,11.347 0.006,10.519L0.006,1.488C0.006,0.66 0.678,-0.012 1.506,-0.012L10.49,-0.012C11.318,-0.012 11.99,0.66 11.99,1.488L11.99,10.519C11.99,11.347 11.318,12.019 10.49,12.019ZM3,3L3,1.006L1.481,1.006C1.214,1.006 0.998,1.222 0.998,1.488L0.998,10.505C0.998,10.771 1.214,10.988 1.481,10.988L3,10.988L3,4L1,4L1,3L3,3ZM10.982,4L4,4L4,10.988L10.499,10.988C10.766,10.988 10.982,10.771 10.982,10.505L10.982,4ZM8,6.707L7.854,6.854L7.146,6.146L8.5,4.793C8.951,5.244 9.402,5.695 9.854,6.146L9.146,6.854L9,6.707L9,9L6.707,9L6.854,9.146L6.146,9.854L4.793,8.5L6.146,7.146C6.382,7.382 6.618,7.618 6.854,7.854L6.707,8L8,8L8,6.707ZM10.499,1.006L4,1.006L4,3L10.982,3L10.982,1.488C10.982,1.222 10.766,1.006 10.499,1.006Z" style="fill-rule:nonzero;"/>
    </g>
</svg>
