<?xml version="1.0" encoding="UTF-8" standalone="no"?>
<!DOCTYPE svg PUBLIC "-//W3C//DTD SVG 1.1//EN" "http://www.w3.org/Graphics/SVG/1.1/DTD/svg11.dtd">
<svg width="100%" height="100%" viewBox="0 0 32 32" version="1.1" xmlns="http://www.w3.org/2000/svg" xmlns:xlink="http://www.w3.org/1999/xlink" xml:space="preserve" xmlns:serif="http://www.serif.com/" style="fill-rule:evenodd;clip-rule:evenodd;stroke-linejoin:round;stroke-miterlimit:2;">
    <g id="csv" transform="matrix(0.0628455,0,0,0.0628455,3.93367,-0.0538814)">
        <path d="M384,131.9C376.247,123.467 273.575,3.427 269.1,-1.1L48,-0.1C21.5,0 0,21.5 0,48L0,464C0,490.5 21.5,512 48,512L336,512C362.5,512 384,490.5 384,464L384,131.9ZM348.1,134L257,134L257,27.9L348.1,134ZM30,479L30,27L230,27L231,132C231,145.3 229.7,161 243,161L354,161L355,479L30,479Z" style="fill-rule:nonzero;"/>
        <g transform="matrix(1.39197,0,0,2.06442,-182.891,-281.022)">
            <g transform="matrix(96,0,0,96,167.839,336.768)">
                <path d="M0.688,-0.226C0.688,-0.203 0.682,-0.179 0.671,-0.152C0.66,-0.126 0.642,-0.1 0.618,-0.074C0.594,-0.048 0.563,-0.028 0.526,-0.012C0.488,0.004 0.445,0.012 0.395,0.012C0.357,0.012 0.323,0.009 0.292,0.001C0.261,-0.006 0.233,-0.017 0.208,-0.032C0.183,-0.047 0.159,-0.067 0.138,-0.092C0.119,-0.114 0.103,-0.139 0.09,-0.167C0.076,-0.195 0.066,-0.225 0.06,-0.256C0.053,-0.288 0.05,-0.321 0.05,-0.357C0.05,-0.415 0.058,-0.466 0.075,-0.512C0.092,-0.557 0.116,-0.596 0.147,-0.629C0.178,-0.661 0.215,-0.686 0.257,-0.703C0.299,-0.72 0.344,-0.728 0.391,-0.728C0.449,-0.728 0.501,-0.716 0.546,-0.693C0.591,-0.67 0.626,-0.642 0.65,-0.608C0.674,-0.574 0.686,-0.542 0.686,-0.511C0.686,-0.495 0.68,-0.48 0.668,-0.467C0.657,-0.455 0.643,-0.448 0.626,-0.448C0.607,-0.448 0.594,-0.453 0.584,-0.461C0.575,-0.47 0.565,-0.485 0.553,-0.507C0.534,-0.542 0.512,-0.569 0.487,-0.586C0.461,-0.604 0.43,-0.613 0.392,-0.613C0.333,-0.613 0.285,-0.59 0.25,-0.545C0.214,-0.5 0.197,-0.435 0.197,-0.352C0.197,-0.296 0.205,-0.25 0.22,-0.213C0.236,-0.176 0.258,-0.149 0.287,-0.13C0.315,-0.112 0.349,-0.103 0.387,-0.103C0.429,-0.103 0.464,-0.113 0.493,-0.134C0.522,-0.155 0.543,-0.185 0.558,-0.225C0.564,-0.244 0.572,-0.259 0.581,-0.271C0.59,-0.283 0.605,-0.289 0.625,-0.289C0.642,-0.289 0.657,-0.283 0.669,-0.271C0.682,-0.259 0.688,-0.244 0.688,-0.226Z" style="fill-rule:nonzero;"/>
            </g>
            <g transform="matrix(96,0,0,96,238.902,336.768)">
                <path d="M0.622,-0.215C0.622,-0.172 0.611,-0.133 0.589,-0.098C0.566,-0.064 0.534,-0.037 0.491,-0.017C0.448,0.002 0.397,0.012 0.338,0.012C0.267,0.012 0.209,-0.001 0.163,-0.028C0.131,-0.047 0.104,-0.073 0.084,-0.105C0.063,-0.137 0.053,-0.168 0.053,-0.198C0.053,-0.216 0.059,-0.231 0.072,-0.243C0.084,-0.256 0.099,-0.262 0.118,-0.262C0.133,-0.262 0.146,-0.257 0.157,-0.248C0.168,-0.238 0.177,-0.223 0.184,-0.204C0.193,-0.181 0.203,-0.162 0.214,-0.147C0.224,-0.132 0.239,-0.119 0.258,-0.109C0.278,-0.099 0.303,-0.094 0.334,-0.094C0.377,-0.094 0.412,-0.104 0.439,-0.124C0.466,-0.144 0.479,-0.169 0.479,-0.199C0.479,-0.223 0.472,-0.242 0.457,-0.257C0.443,-0.272 0.424,-0.283 0.401,-0.291C0.378,-0.299 0.347,-0.307 0.309,-0.316C0.258,-0.328 0.215,-0.342 0.18,-0.358C0.145,-0.374 0.118,-0.396 0.097,-0.424C0.077,-0.452 0.067,-0.486 0.067,-0.528C0.067,-0.567 0.078,-0.602 0.099,-0.633C0.121,-0.663 0.152,-0.687 0.192,-0.703C0.233,-0.72 0.281,-0.728 0.336,-0.728C0.38,-0.728 0.418,-0.723 0.45,-0.712C0.482,-0.701 0.509,-0.686 0.53,-0.668C0.551,-0.65 0.566,-0.631 0.576,-0.611C0.586,-0.591 0.591,-0.572 0.591,-0.553C0.591,-0.536 0.585,-0.52 0.573,-0.507C0.56,-0.493 0.545,-0.486 0.527,-0.486C0.51,-0.486 0.498,-0.49 0.489,-0.498C0.48,-0.507 0.471,-0.52 0.461,-0.539C0.448,-0.566 0.432,-0.587 0.414,-0.602C0.396,-0.617 0.367,-0.625 0.326,-0.625C0.289,-0.625 0.259,-0.617 0.236,-0.6C0.213,-0.584 0.201,-0.564 0.201,-0.541C0.201,-0.527 0.205,-0.514 0.213,-0.504C0.221,-0.493 0.231,-0.485 0.245,-0.477C0.259,-0.47 0.273,-0.464 0.287,-0.459C0.301,-0.455 0.324,-0.449 0.356,-0.441C0.396,-0.431 0.433,-0.421 0.466,-0.41C0.498,-0.398 0.526,-0.384 0.549,-0.368C0.572,-0.352 0.59,-0.331 0.603,-0.306C0.616,-0.281 0.622,-0.251 0.622,-0.215Z" style="fill-rule:nonzero;"/>
            </g>
            <g transform="matrix(96,0,0,96,302.933,336.768)">
                <path d="M0.184,-0.633L0.346,-0.153L0.509,-0.636C0.517,-0.662 0.524,-0.679 0.528,-0.689C0.532,-0.699 0.539,-0.708 0.549,-0.716C0.559,-0.724 0.572,-0.728 0.589,-0.728C0.601,-0.728 0.613,-0.725 0.623,-0.719C0.634,-0.713 0.642,-0.704 0.648,-0.694C0.654,-0.684 0.657,-0.674 0.657,-0.663C0.657,-0.656 0.656,-0.648 0.654,-0.64C0.652,-0.632 0.65,-0.623 0.647,-0.615C0.644,-0.608 0.641,-0.599 0.638,-0.591L0.465,-0.123C0.459,-0.105 0.452,-0.088 0.446,-0.072C0.44,-0.056 0.433,-0.042 0.425,-0.03C0.417,-0.017 0.406,-0.007 0.392,0C0.379,0.008 0.362,0.012 0.343,0.012C0.323,0.012 0.307,0.008 0.293,0.001C0.28,-0.007 0.269,-0.017 0.26,-0.03C0.252,-0.042 0.245,-0.056 0.239,-0.072C0.233,-0.088 0.226,-0.105 0.22,-0.123L0.05,-0.587C0.047,-0.595 0.044,-0.604 0.041,-0.612C0.038,-0.62 0.035,-0.629 0.033,-0.638C0.031,-0.648 0.03,-0.656 0.03,-0.662C0.03,-0.679 0.036,-0.694 0.05,-0.708C0.063,-0.721 0.08,-0.728 0.1,-0.728C0.125,-0.728 0.142,-0.72 0.153,-0.705C0.163,-0.69 0.173,-0.666 0.184,-0.633Z" style="fill-rule:nonzero;"/>
            </g>
        </g>
    </g>
</svg>
