<!-- Generated by IcoMoon.io -->
<svg version="1.1" xmlns="http://www.w3.org/2000/svg" width="32" height="32" viewBox="0 0 32 32">
<title>pivot</title>
<path d="M26.667 30.223h-21.333c-1.964 0-3.556-1.592-3.556-3.556v-21.333c0-1.964 1.592-3.556 3.556-3.556h21.333c1.964 0 3.556 1.592 3.556 3.556v21.333c0 1.964-1.592 3.556-3.556 3.556zM10.667 21.333h-5.333v5.333h5.333v-5.333zM26.667 14.223h-14.223v12.444h14.223v-12.444zM17.517 21.073l-2.039 2.037 2.039 2.039-1.257 1.257-3.295-3.296 3.295-3.295c0.42 0.419 0.839 0.837 1.257 1.257v-0zM10.667 14.223h-5.333v5.333h5.333v-5.333zM26.407 18.039l-1.257 1.256-2.039-2.037-2.037 2.037-1.257-1.256 3.295-3.296c1.099 1.099 2.197 2.197 3.296 3.296h0zM10.667 5.333h-5.333v5.333h5.333v-5.333zM19.556 5.333h-7.112v5.333h7.112v-5.333zM26.667 5.333h-5.333v5.333h5.333v-5.333z"></path>
</svg>
