<svg xmlns="http://www.w3.org/2000/svg" width="377" height="227" viewBox="0 0 377 227">
  <g fill="none">
    <path fill="#0994D9" d="M376.1 114.6c0 55.3-44.8 100.1-100.1 100.1s-100.1-44.8-100.1-100.1S220.7 14.5 276 14.5s100.1 44.8 100.1 100.1z"/>
    <path fill="#FF5858" d="M.1 39.5c-.3-2.4.7-3.4 3-4.1 0 0 88.3-30.8 102.4-35 .3-.1.6-.2.8-.2.5-.1 1.4-.2 1.9 0C118 2.9 205 33.4 211.5 35.4c2.3.7 3.3 1.8 3 4.1-1.2 8.3-16 129.6-16 134.4-.2 2.3-1 3.8-3.1 5 0 0-78.9 43.9-87.5 47.1-.3.1-1.1.1-1.5-.1-7.9-3-62-33.2-87.2-47.1-2.1-1.2-2.8-2.7-3.1-5C15 164.7.1 39.5.1 39.5z"/>
    <path fill="#FFF" d="M83.3 138.7c-7.6 0-5.7-.3-8.3 5.5-3.8 8.3-7.8 16.6-11.6 25-1 2.2-1.5 2.5-3.2 2.5h-20c1.2-2.8 2.7-5.8 4-8.5C63.2 121 102 36.5 106.8 26.9c.3-.5.6-.5.9 0 7.9 17.3 66.3 143.9 66.6 144.8h-20c-2.4 0-2.1-.1-2.9-2.1-4.3-9.5-8.8-19.2-13.1-28.8-.4-.8-.9-2.1-4-2.1-1 .1-44 0-51 0zm45-19.9c-.1-.8-19.3-41.5-20.9-44.9-.1-.1-.1-.1-.2 0-1.1 2.2-17.8 39.2-20.1 44.9h41.2zm154.8 53.4c-15.5 0-30-5.9-40.9-16.7-10.9-10.8-16.9-25.3-16.9-40.7 0-15.5 6-30 16.9-40.9C253.1 63 267.7 57 283.1 57c14.9 0 26.9 4.6 38.7 14.9 1 .9 3.6 3.4 3.6 3.4s-2.4 2.4-3.4 3.3l-6.8 6.9c-2.5 2.7-3.3 2.7-6.2.1-7.2-6.3-16.8-10-25.8-10-10.2 0-19.6 4.1-26.7 11.5-6.9 7.3-10.7 17-10.7 27.2s3.8 19.9 10.8 27.2c7.1 7.4 16.6 11.5 26.7 11.5 11.3 0 18.9-5 25.7-9.9 2.9-2.1 3-2.5 5.8-.1l.1.1 7.1 7c.8.7 3.2 3.1 3.2 3.1s-2.4 2.5-3.3 3.4c-10.3 10.2-23.8 15.6-38.8 15.6z"/>
  </g>
</svg>
