<svg width="800" height="315" viewBox="0 0 800 315" fill="none" xmlns="http://www.w3.org/2000/svg">
<g clip-path="url(#clip0_223_555)">
<path d="M0 0V279.22H179.68L218.77 314.44V279.22H278.03V0H0Z" fill="#FEF502"/>
<path d="M198.46 248.64C188.92 248.64 180.64 247.13 173.63 244.11C166.61 241.09 161.14 236.71 157.2 230.97C153.26 225.23 151.13 218.34 150.79 210.3H171.59C171.87 214.85 173.21 218.62 175.62 221.61C178.03 224.61 181.22 226.87 185.19 228.39C189.15 229.92 193.52 230.68 198.29 230.68C203.45 230.68 207.97 229.9 211.85 228.35C215.73 226.8 218.78 224.61 221 221.78C223.22 218.95 224.33 215.68 224.33 211.96C224.33 208.63 223.39 205.86 221.5 203.64C219.61 201.42 216.95 199.58 213.51 198.11C210.07 196.64 206.02 195.3 201.36 194.08L187.3 190.42C176.71 187.7 168.53 183.65 162.76 178.27C156.99 172.89 154.11 165.87 154.11 157.22C154.11 149.95 156.04 143.6 159.89 138.17C163.74 132.74 169.07 128.51 175.86 125.48C182.65 122.46 190.32 120.95 198.86 120.95C207.4 120.95 215.29 122.48 221.86 125.53C228.43 128.58 233.59 132.78 237.33 138.13C241.07 143.48 243.03 149.68 243.2 156.72H222.98C222.37 151.06 219.89 146.67 215.53 143.53C211.18 140.4 205.53 138.83 198.6 138.83C193.83 138.83 189.66 139.57 186.08 141.03C182.5 142.5 179.76 144.54 177.84 147.14C175.93 149.75 174.97 152.69 174.97 155.96C174.97 159.51 176.05 162.42 178.21 164.7C180.37 166.98 183.13 168.82 186.49 170.23C189.85 171.64 193.3 172.8 196.85 173.68L208.75 176.76C213.46 177.81 217.97 179.27 222.27 181.13C226.57 182.99 230.44 185.29 233.88 188.04C237.32 190.79 240.04 194.13 242.03 198.07C244.03 202.01 245.03 206.61 245.03 211.88C245.03 219.09 243.19 225.47 239.5 231.02C235.81 236.57 230.5 240.89 223.57 244C216.64 247.11 208.26 248.66 198.44 248.66L198.46 248.64Z" fill="black"/>
<path d="M119.16 122.76V196.01C119.16 213.85 104.65 228.36 86.8099 228.36C80.5399 228.36 74.5099 226.52 69.3599 223.22L56.5299 238.51C65.2699 244.73 75.8199 248.23 86.8099 248.23C115.6 248.23 139.03 224.81 139.03 196.01V122.76H119.17H119.16Z" fill="black"/>
<path d="M110.91 122.76H90.9299V142.62H110.91V122.76Z" fill="#F0C814"/>
<path d="M82.68 122.76H62.7V142.62H82.68V122.76Z" fill="#F0C814"/>
<path d="M54.45 122.76H34.59V142.62H54.45V122.76Z" fill="#F0C814"/>
<path d="M54.45 150.87H34.59V170.73H54.45V150.87Z" fill="#F0C814"/>
<path d="M54.51 197.51C54.49 197.01 54.45 196.51 54.45 196V178.97H34.59V196C34.59 197.67 34.7 199.33 34.85 200.97L54.51 197.5V197.51Z" fill="#F0C814"/>
<path d="M55.9099 205.64L36.2799 209.1C37.8199 215.06 40.3899 220.72 43.9699 225.86C45.8299 228.52 47.9199 230.98 50.1899 233.22L63.0299 217.92C62.0399 216.85 60.2599 214.49 60.2599 214.49C58.3499 211.75 56.8899 208.77 55.9199 205.64H55.9099Z" fill="#F0C814"/>
<path d="M72.69 179.38C77.0862 179.38 80.65 175.816 80.65 171.42C80.65 167.024 77.0862 163.46 72.69 163.46C68.2938 163.46 64.73 167.024 64.73 171.42C64.73 175.816 68.2938 179.38 72.69 179.38Z" fill="black"/>
<path d="M100.92 179.38C105.316 179.38 108.88 175.816 108.88 171.42C108.88 167.024 105.316 163.46 100.92 163.46C96.5238 163.46 92.96 167.024 92.96 171.42C92.96 175.816 96.5238 179.38 100.92 179.38Z" fill="black"/>
<path d="M86.81 215.74C78.37 215.74 70.93 210.04 68.74 201.88L77.59 199.5C78.71 203.66 82.5 206.57 86.81 206.57C91.12 206.57 94.9 203.66 96.01 199.51L104.87 201.87C102.69 210.04 95.27 215.74 86.81 215.74Z" fill="black"/>
<path d="M312.63 246.72V122.76H336.34L379.85 191.9C381.35 194.23 383.32 197.53 385.76 201.8C388.2 206.07 390.67 210.43 393.16 214.86C392.99 210.2 392.87 205.56 392.79 200.93C392.71 196.3 392.66 192.76 392.66 190.32V122.77H414.71V246.73H390.92L351.65 184.5C349.87 181.73 347.43 177.72 344.33 172.48C341.22 167.24 337.78 161.26 334.01 154.55C334.29 161.43 334.45 167.45 334.51 172.6C334.56 177.76 334.59 181.7 334.59 184.41V246.72H312.63Z" fill="white"/>
<path d="M459.43 248.13C450.67 248.13 443.41 245.93 437.67 241.52C431.93 237.11 429.06 230.52 429.06 221.76C429.06 215.1 430.68 209.96 433.93 206.33C437.17 202.7 441.42 200.05 446.66 198.38C451.9 196.71 457.54 195.58 463.59 194.97C471.74 194.03 477.43 193.2 480.64 192.47C483.86 191.75 485.47 189.89 485.47 186.9V186.23C485.47 182.46 484.04 179.38 481.19 177C478.33 174.62 474.41 173.42 469.42 173.42C464.43 173.42 460.17 174.61 456.98 177C453.79 179.39 452.06 182.44 451.78 186.15H431.56C432.06 177.44 435.69 170.43 442.46 165.1C449.22 159.78 458.35 157.11 469.83 157.11C481.31 157.11 490.18 159.77 496.62 165.1C503.05 170.42 506.27 177.66 506.27 186.81V246.71H485.64V234.31H485.31C483.2 238.19 480.15 241.46 476.16 244.13C472.17 246.8 466.59 248.12 459.44 248.12L459.43 248.13ZM464.59 232.57C471.47 232.57 476.68 230.78 480.23 227.2C483.78 223.62 485.55 219.28 485.55 214.18V204.7C484.27 205.53 481.8 206.3 478.14 206.99C474.48 207.68 470.49 208.36 466.16 209.03C461.67 209.7 457.77 210.96 454.47 212.82C451.17 214.68 449.52 217.6 449.52 221.6C449.52 225.04 450.88 227.73 453.6 229.67C456.32 231.61 459.98 232.58 464.58 232.58L464.59 232.57Z" fill="white"/>
<path d="M570.1 158.86V175.75H552.21V221.51C552.21 224.67 552.85 226.85 554.12 228.04C555.4 229.23 557.72 229.83 561.11 229.83H570.1V246.72H557.45C548.52 246.72 541.91 244.92 537.61 241.31C533.31 237.71 531.16 232.13 531.16 224.59V175.75H515.85V158.86H531.16V134.9H552.21V158.86H570.1Z" fill="white"/>
<path d="M596.42 145.8C592.81 145.8 589.82 144.65 587.43 142.35C585.04 140.05 583.85 137.21 583.85 133.82C583.85 130.43 585.04 127.61 587.43 125.33C589.81 123.06 592.81 121.92 596.42 121.92C600.03 121.92 602.94 123.06 605.32 125.33C607.7 127.61 608.9 130.43 608.9 133.82C608.9 137.21 607.71 140.05 605.32 142.35C602.94 144.65 599.97 145.8 596.42 145.8ZM585.94 246.72V158.87H606.91V246.72H585.94Z" fill="white"/>
<path d="M664.02 248.71C655.37 248.71 647.8 246.78 641.31 242.93C634.82 239.08 629.76 233.71 626.13 226.83C622.5 219.95 620.68 211.97 620.68 202.87C620.68 193.77 622.5 185.77 626.13 178.87C629.76 171.96 634.82 166.57 641.31 162.69C647.8 158.81 655.37 156.87 664.02 156.87C672.67 156.87 680.17 158.81 686.69 162.69C693.21 166.57 698.28 171.97 701.92 178.87C705.55 185.78 707.37 193.78 707.37 202.87C707.37 211.96 705.55 219.95 701.92 226.83C698.29 233.71 693.21 239.07 686.69 242.93C680.17 246.79 672.62 248.71 664.02 248.71ZM664.02 231.16C670.73 231.16 676.08 228.64 680.08 223.59C684.07 218.54 686.07 211.64 686.07 202.87C686.07 194.1 684.07 187.17 680.08 182.07C676.09 176.97 670.73 174.42 664.02 174.42C657.31 174.42 651.87 176.96 647.88 182.03C643.89 187.1 641.89 194.05 641.89 202.87C641.89 211.69 643.89 218.54 647.88 223.59C651.87 228.64 657.25 231.16 664.02 231.16Z" fill="white"/>
<path d="M742.01 197.05V246.72H721.04V158.87H741.67V172.35C747.77 162.2 756.76 157.13 768.63 157.13C777.84 157.13 785.37 160.1 791.22 166.03C797.07 171.97 800 180.56 800 191.82V246.73H778.95V195.15C778.95 188.72 777.4 183.84 774.29 180.51C771.18 177.18 766.83 175.52 761.23 175.52C755.63 175.52 751.16 177.24 747.5 180.68C743.84 184.12 742.01 189.58 742.01 197.07V197.05Z" fill="white"/>
</g>
<defs>
<clipPath id="clip0_223_555">
<rect width="800" height="314.44" fill="white"/>
</clipPath>
</defs>
</svg>
