<svg xmlns:xlink="http://www.w3.org/1999/xlink" xmlns="http://www.w3.org/2000/svg" version="1.1" viewBox="0 0 579 336" height="336px" width="579px">
    <title>radvlogo</title>
    <g fill-rule="evenodd" fill="none" stroke-width="1" stroke="none" id="Page-1">
        <g id="radvlogo">
            <path fill-rule="nonzero" fill="#FFFFFF" id="Shape" d="M49,277.1 C47.7,277.2 46.7,278.6 46.7,280.2 C46.7,280.3 46.7,280.3 46.7,280.3 C43,280.6 39.9,272 36.2,262.7 C32.5,253.3 28.1,243.1 21.9,240.6 C27.1,239.1 31.8,235.5 35.3,230.1 C38.7,224.9 40.9,217.9 40.9,209.5 C40.9,199.4 37.8,191.4 32.8,185.9 C27.8,180.4 20.8,177.4 12.9,177.4 C8.6,177.4 4.3,177.4 0.1,177.4 C0.1,177.4 -0.1,179.3 1.5,179.3 C3.1,179.3 3.1,188.3 3.1,189.1 C3.1,201.1 3.1,213.1 3.1,225.1 C3.1,237.2 3.1,249.2 3.1,261.2 C3.1,262 3,271 1.5,271.2 C0,271.4 0,273.2 0,273.2 C5.4,272.6 10.7,272.1 16.1,271.6 C16.1,271.6 16.3,269.7 14.7,269.9 C13.1,270.1 13,261.1 13,260.4 C13,254 13,247.6 13,241.2 C15.9,242 19.9,249.9 24,258.6 C28.1,267.2 32.2,276.7 35.1,281 C39.7,287.8 47,286.1 49.4,284 C50.9,282.7 51.4,281.1 51.4,279.8 C51.3,278.1 50.3,277 49,277.1 L49,277.1 Z M13.9,236.4 C13.6,236.4 13.3,236.5 13,236.5 C13,227.5 13,218.5 13,209.6 C13,200.6 13,191.6 13,182.6 C21.5,182.8 31.4,191 31.4,209.4 C31.4,224.9 22.5,235.8 13.9,236.4 L13.9,236.4 Z M578.5,206.2 C578.5,185.7 567.3,177.3 553.5,177.3 C549.2,177.3 544.8,177.3 540.5,177.3 C540.5,177.3 540.3,179.2 541.9,179.2 C543.5,179.2 543.6,188.3 543.6,188.8 C543.6,200.6 543.6,212.4 543.6,224.1 C543.6,235.9 543.6,247.7 543.6,259.5 C543.6,260.1 543.5,269.1 541.9,269 C540.4,268.9 540.5,270.8 540.5,270.8 C547.4,271.3 554.3,271.9 561.2,272.4 C571.6,273.2 578.5,261.4 578.5,246.1 C578.5,240.9 578.4,232.6 578.4,224.8 C578.5,217 578.5,209.7 578.5,206.2 L578.5,206.2 Z M555.8,267 C555,266.9 554.3,266.8 553.5,266.6 C553.5,252.8 553.5,239 553.5,225.2 C553.5,211.3 553.5,197.5 553.5,183.7 C565.8,184.2 568.6,190.3 568.6,206 C568.6,208.9 568.6,216.3 568.6,224.3 C568.6,232.3 568.7,240.9 568.7,246.2 C568.7,256.6 563.8,267.7 555.8,267 L555.8,267 Z M79.9,232.4 C79.9,232.4 75.4,231.2 75.4,236.4 C75.4,240.2 73.9,255.2 66.3,256 C64.6,256.2 62.8,256.3 61,256.4 C61,249.6 61,242.8 61,236 C62,235.9 68.6,235.8 68.6,237.7 C68.6,239.5 70.1,239.2 70.1,239.2 C70.1,235.2 70.1,231.3 70.1,227.3 C70.1,227.3 68.6,227.2 68.6,228.9 C68.6,230.8 62,231.4 61,231.4 C61,224.2 61,217 61,209.8 C61,202.6 61,195.4 61,188.2 C62.9,188.1 64.7,188.1 66.6,188.1 C76.1,188.2 65.8,206.7 71.8,213.3 C73.3,215 75.3,214.8 76.7,214.2 C78.4,213.4 79.5,211.6 79.5,210 C79.5,208.5 78.4,207.2 77.2,207.2 C76,207.3 74.8,208.6 74.8,210.1 C74.8,210.2 74.8,210.2 74.8,210.3 C74.4,210.1 74.2,209.3 74.2,208.4 C74.5,203 79.1,189.2 79.1,183.4 C68.7,183.5 58.4,183.5 48,183.6 C48,183.6 47.8,185.5 49.4,185.4 C51,185.4 51.1,194 51.1,194.8 C51.1,204 51.1,213.3 51.1,222.6 C51.1,231.8 51.1,241.1 51.1,250.3 C51.1,251 51,259.7 49.4,259.8 C47.9,259.9 48,261.7 48,261.7 C58.6,260.9 69.2,260.1 79.8,259.2 C78.1,250.8 78.1,244 78.4,239.4 C78.9,235 79.9,232.4 79.9,232.4 L79.9,232.4 Z M126.7,254.9 C125,255 123.7,246.4 123.6,246.3 C123.4,244.4 123,242.5 122.8,240.6 C129.3,238.2 127.8,227.9 121.6,228.1 C121.6,228.1 124,231.3 121.7,233.3 C120.7,226.8 119.6,220.3 118.7,213.7 C117.7,207.2 116.7,200.6 115.7,194 C115.7,193.8 114.6,185.2 116.2,185.2 C117.7,185.2 117.3,183.5 117.3,183.5 C111.8,183.5 106.4,183.6 100.9,183.6 C100.9,183.6 100.4,185.3 101.9,185.3 C103.5,185.2 102,193.8 101.9,194.2 C100.2,203.1 98.4,212 96.7,221 C95.1,230 93.3,238.9 91.6,247.9 C91.5,248.4 89.7,257 88.1,257.1 C86.6,257.2 86.5,259 86.5,259 C90.7,258.7 94.8,258.4 99.1,258.2 C99.1,258.2 99.6,256.5 98,256.6 C96.6,256.7 97.7,249.7 98,248 C98.7,244.1 101.9,235.8 112.9,239.7 C113.2,242.1 113.6,244.4 114,246.8 C114.1,247.3 115.2,255.5 113.5,255.6 C112,255.7 112.5,257.4 112.5,257.4 C117.8,257.1 123.1,256.8 128.4,256.5 C128.2,256.4 128.1,254.8 126.7,254.9 L126.7,254.9 Z M99.9,236.5 C101,230.5 102.2,224.6 103.3,218.7 C104.4,212.8 105.6,206.9 106.7,201 C107.5,206.6 108.3,212.1 109.1,217.6 C109.9,223.1 110.8,228.6 111.7,234.1 C108.5,233.6 104.8,233.4 99.9,236.5 L99.9,236.5 Z M156,233.7 C161.1,233.6 161.2,249.6 152.1,250 C148.2,250.1 145.5,243.5 145.5,238.2 C145.5,231.9 145.5,225.7 145.5,219.5 C145.5,213.3 145.5,207.1 145.5,200.8 C145.5,195.4 148.3,187.5 152.8,187.5 C161.4,187.4 152,205 158,211.2 C159.6,212.9 161.5,212.7 163,212.1 C164.5,211.4 165.7,209.8 165.7,208.2 C165.7,206.7 164.7,205.6 163.4,205.6 C162.1,205.6 161.1,206.8 161.1,208.3 C161.1,208.4 161.1,208.5 161.1,208.5 C160.6,208.3 160.3,207.6 160.4,206.7 C160.7,201.7 165.5,188.7 165.5,183.3 C161,183.3 156.6,183.1 152.2,183.3 C143.3,183.7 135.7,191 135.7,200.9 C135.7,207.2 135.7,213.4 135.7,219.7 C135.7,226 135.7,232.2 135.7,238.5 C135.7,248.2 143,255.6 152,255.2 C161.3,254.8 166.7,247.8 166.7,238.2 C166.6,226.7 156,228.8 156,233.7 L156,233.7 Z M210.7,205.1 C209.3,205.1 208.3,206.3 208.3,207.7 C208.3,207.8 208.3,207.8 208.3,207.9 C207.9,207.7 207.7,207.1 207.7,206.2 C208,201.3 212.5,188.6 212.5,183.2 C199.4,183.3 186.2,183.3 173.1,183.3 C173.1,188.8 177.7,201.6 178.1,206.5 C178.2,207.4 177.9,208 177.4,208.3 C177.5,208.2 177.5,208.2 177.5,208.1 C177.5,206.6 176.4,205.5 175.1,205.5 C173.9,205.5 172.8,206.7 172.8,208.2 C172.8,209.9 174.4,211.5 175.6,212 C176.9,212.6 178.9,212.6 180.4,210.9 C186.4,204.5 176.1,187.6 185.6,187.3 C186.3,187.2 187,187.2 187.7,187.2 C187.7,196.7 187.7,206.1 187.7,215.4 C187.7,224.9 187.7,234.3 187.7,243.7 C187.7,244.3 187.6,252.2 186.1,252.2 C184.5,252.3 184.7,253.9 184.7,253.9 C190,253.7 195.4,253.6 200.8,253.5 C200.8,253.5 201,251.9 199.4,251.9 C197.8,252 197.7,244 197.7,243.5 C197.7,234.1 197.7,224.7 197.7,215.3 C197.7,205.9 197.7,196.6 197.7,187.2 C198.4,187.2 199.2,187.2 199.9,187.2 C209.4,187.4 199.1,204.3 205.1,210.5 C206.7,212.1 208.6,212.1 210.1,211.5 C211.5,210.9 212.8,209.2 212.8,207.7 C212.9,206.3 212,205.1 210.7,205.1 L210.7,205.1 Z M278.4,251.2 C276.7,251.2 275.4,243 275.3,242.8 C275.1,241 274.7,239.2 274.5,237.4 C281,235.4 279.5,225.5 273.3,225.5 C273.3,225.5 275.7,228.7 273.4,230.5 C272.4,224.3 271.3,218 270.4,211.8 C269.4,205.6 268.4,199.3 267.5,193.1 C267.4,192.9 266.3,184.7 267.9,184.7 C269.4,184.8 269,183.1 269,183.1 C263.5,183.1 258.1,183.1 252.7,183.1 C252.7,183.1 252.1,184.7 253.7,184.7 C255.3,184.7 253.8,192.6 253.7,193 C252,201.3 250.2,209.6 248.5,217.8 C246.8,226.1 245.1,234.4 243.4,242.7 C243.3,243.2 241.5,251.1 239.9,251.1 C238.4,251.1 238.2,252.7 238.2,252.7 C242.4,252.7 246.5,252.6 250.8,252.6 C250.8,252.6 251.3,251 249.7,251 C248.3,251.1 249.4,244.6 249.7,243 C250.5,239.4 253.6,231.8 264.6,235.9 C264.9,238.2 265.3,240.4 265.7,242.6 C265.8,243.1 266.9,250.9 265.2,250.9 C263.7,250.9 264.2,252.5 264.2,252.5 C269.5,252.5 274.8,252.6 280.1,252.6 C279.9,252.8 279.8,251.2 278.4,251.2 L278.4,251.2 Z M251.6,232.7 C252.7,227.2 253.9,221.7 255,216.1 C256.1,210.6 257.3,205.1 258.4,199.5 C259.2,204.7 260,210 260.9,215.2 C261.7,220.4 262.5,225.7 263.4,230.9 C260.2,230.2 256.5,229.9 251.6,232.7 L251.6,232.7 Z M307.5,183.2 C300.7,183.2 294,183.2 287.3,183.2 C287.3,183.2 287.1,184.8 288.7,184.8 C290.2,184.8 290.3,192.7 290.3,193.1 C290.3,201.4 290.3,209.7 290.3,217.9 C290.3,226.2 290.3,234.5 290.3,242.7 C290.3,243.2 290.2,251.1 288.7,251.1 C287.1,251 287.3,252.7 287.3,252.7 C294,252.8 300.8,252.9 307.5,253 C316.7,253.1 324,245.7 324,236.3 C324,230.3 324,224.2 324,218.2 C324,212.2 324,206.1 324,200.1 C324,190.7 316.7,183.2 307.5,183.2 L307.5,183.2 Z M314.3,236.3 C314.3,243.5 309.1,249.3 302.7,249.2 C301.8,249.2 301,249.1 300.2,248.8 C300.2,238.5 300.2,228.3 300.2,218 C300.2,207.7 300.2,197.5 300.2,187.2 C301,187 301.8,186.9 302.7,186.9 C309.1,187 314.3,192.9 314.3,200 C314.3,206 314.3,212.1 314.3,218.1 C314.3,224.2 314.3,230.3 314.3,236.3 L314.3,236.3 Z M357.5,183.3 C357.5,183.3 357,184.9 358.5,184.9 C360.2,184.9 358.6,193.2 358.5,193.4 C356.9,200.7 355.5,208.1 354,215.4 C352.5,222.7 351,230 349.5,237.3 C348.3,229.9 347.1,222.6 346,215.3 C344.9,208 343.8,200.6 342.7,193.3 C342.6,192.8 341.3,184.8 343,184.8 C344.5,184.9 344.1,183.2 344.1,183.2 C338.7,183.2 333.3,183.2 328,183.2 C328,183.2 328.1,184.8 329.6,184.8 C331.2,184.8 332.6,193 332.7,193.3 C334,201.6 335.3,210 336.6,218.4 C337.9,226.8 339.2,235.2 340.6,243.6 C340.7,243.8 341.8,252.1 340.2,252.1 C338.7,252.1 339.1,253.7 339.1,253.7 C344.6,253.9 350,254 355.5,254.2 C355.5,254.2 356,252.6 354.5,252.5 C352.9,252.5 354.4,244.4 354.5,244 C356.2,235.6 358,227.2 359.7,218.8 C361.4,210.4 363.1,202 364.9,193.5 C365,193 366.8,185 368.4,185 C370,185 370,183.3 370,183.3 C365.8,183.3 361.6,183.3 357.5,183.3 L357.5,183.3 Z M408.5,254.5 C406.9,254.4 405.5,245.9 405.5,245.7 C405.3,243.8 404.9,241.9 404.7,240 C411.2,238.1 409.7,227.7 403.5,227.5 C403.5,227.5 406,230.9 403.6,232.7 C402.6,226.2 401.6,219.7 400.6,213.2 C399.6,206.7 398.6,200.2 397.7,193.8 C397.6,193.6 396.5,185.1 398,185.1 C399.6,185.1 399.1,183.4 399.1,183.4 C393.6,183.4 388.2,183.3 382.8,183.3 C382.8,183.3 382.3,185 383.8,185 C385.5,185 383.9,193.2 383.8,193.6 C382.1,202.1 380.3,210.6 378.6,219.1 C376.9,227.6 375.2,236 373.5,244.5 C373.4,245 371.6,253 370,253 C368.5,252.9 368.3,254.6 368.3,254.6 C372.5,254.8 376.6,254.9 380.9,255.1 C380.9,255.1 381.4,253.4 379.8,253.4 C378.4,253.4 379.5,246.8 379.8,245.2 C380.6,241.5 383.7,233.8 394.7,238.4 C395,240.7 395.4,243 395.8,245.4 C395.9,245.9 396.9,254.1 395.3,254.1 C393.8,254 394.2,255.7 394.2,255.7 C399.5,255.9 404.8,256.2 410.2,256.4 C410.1,256.3 409.9,254.6 408.5,254.5 L408.5,254.5 Z M381.7,234.4 C382.8,228.7 384,223.1 385.1,217.4 C386.2,211.8 387.4,206.1 388.5,200.4 C389.3,205.8 390.2,211.2 391,216.6 C391.8,222.1 392.6,227.5 393.5,232.9 C390.3,232.1 386.6,231.6 381.7,234.4 L381.7,234.4 Z M453.3,256.8 C451.7,256.7 451.6,248.2 451.6,247.7 C451.6,238.8 451.6,229.9 451.6,221 C451.6,212.1 451.6,203.2 451.6,194.3 C451.6,193.7 451.8,185.3 453.3,185.3 C454.8,185.3 454.7,183.6 454.7,183.6 C449.3,183.5 443.9,183.5 438.6,183.5 C438.6,183.5 438.4,185.2 440,185.2 C441.6,185.2 441.6,193.4 441.6,194.2 C441.6,199 441.6,203.9 441.6,208.7 C441.6,213.5 441.6,218.3 441.6,223.2 C439.7,216.6 437.8,209.9 436,203.3 C434.1,196.7 432.2,190.1 430.4,183.5 C426.1,183.5 421.7,183.4 417.4,183.4 C417.4,183.4 417.2,185.1 418.8,185.1 C420.4,185.2 420.5,193.3 420.5,193.9 C420.5,202.6 420.5,211.3 420.5,220 C420.5,228.7 420.5,237.4 420.5,246.1 C420.5,246.8 420.4,254.9 418.8,254.8 C417.3,254.7 417.4,256.4 417.4,256.4 C421.6,256.6 425.7,256.8 430,257 C430,257 430.1,255.3 428.6,255.3 C426.9,255.2 426.9,246.2 426.9,246.2 C426.9,239.4 426.9,232.5 426.9,225.6 C426.9,218.8 426.9,211.9 426.9,205 C429.3,213.7 431.9,222.4 434.3,231.1 C436.7,239.9 439.3,248.7 441.7,257.6 C446,257.8 450.4,258.1 454.8,258.3 C454.7,258.6 454.8,256.9 453.3,256.8 L453.3,256.8 Z M482.9,237.5 C488,237.7 488.1,255 479,254.5 C475,254.2 472.4,247 472.4,241.3 C472.4,234.8 472.4,228.2 472.4,221.7 C472.4,215.2 472.4,208.6 472.4,202 C472.4,196.4 475.2,188.1 479.7,188.1 C488.2,188.2 478.9,206.6 484.8,213.6 C486.4,215.5 488.3,215.3 489.8,214.8 C491.4,214.1 492.6,212.5 492.6,210.7 C492.6,209.1 491.6,207.8 490.3,207.8 C489,207.8 488,209.1 488,210.6 C488,210.7 488,210.8 488,210.8 C487.5,210.6 487.3,209.8 487.3,208.9 C487.6,203.5 492.3,189.7 492.3,183.8 C487.8,183.8 483.5,183.6 479.1,183.7 C470.1,184 462.6,191.5 462.6,201.8 C462.6,208.3 462.6,214.8 462.6,221.3 C462.6,227.8 462.6,234.3 462.6,240.8 C462.6,250.9 469.9,259.5 479,260 C488.2,260.6 493.6,253.5 493.6,243.1 C493.4,230.6 482.9,232.3 482.9,237.5 L482.9,237.5 Z M532.6,235.1 C532.6,235.1 528.1,233.4 528.1,238.9 C528.1,242.8 526.6,258.3 519.1,258.1 C517.3,258 515.5,257.9 513.7,257.8 C513.7,250.9 513.7,244 513.7,237.1 C514.7,237.2 521.3,237.7 521.3,239.7 C521.3,241.5 522.7,241.3 522.7,241.3 C522.7,237.2 522.7,233.1 522.7,229 C522.7,229 521.3,228.7 521.3,230.5 C521.3,232.5 514.7,232.4 513.7,232.4 C513.7,225.1 513.7,217.7 513.7,210.4 C513.7,203.1 513.7,195.7 513.7,188.4 C515.6,188.4 517.4,188.4 519.3,188.5 C528.8,188.8 518.5,207.5 524.5,214.8 C526,216.6 528,216.6 529.3,216 C531,215.3 532.1,213.5 532.1,211.8 C532.1,210.2 531,208.8 529.8,208.8 C528.5,208.7 527.4,210.1 527.4,211.7 C527.4,211.8 527.4,211.8 527.4,211.9 C526.9,211.6 526.7,210.9 526.8,209.9 C527.1,204.3 531.8,190.1 531.8,184 C521.4,183.9 511.1,183.9 500.7,183.9 C500.7,183.9 500.5,185.7 502.1,185.7 C503.6,185.7 503.7,194.3 503.7,195.1 C503.7,204.3 503.7,213.6 503.7,222.8 C503.7,232 503.7,241.2 503.7,250.5 C503.7,251.2 503.6,259.8 502.1,259.7 C500.5,259.6 500.7,261.4 500.7,261.4 C511.3,262.1 521.9,262.8 532.5,263.5 C530.8,254.5 530.8,247.4 531.1,242.5 C531.7,237.8 532.6,235.1 532.6,235.1 L532.6,235.1 Z"></path>
            <path fill-rule="nonzero" fill="#FFFFFF" id="Shape" d="M217.2,318.4 C217.2,318.4 213.7,317.5 213.7,320.8 C213.7,323.2 212.6,332.6 206.8,332.9 L202.7,332.9 L202.7,294.2 C202.8,293.3 202.9,288.5 204.1,288.5 C205.2,288.5 205.2,287.4 205.2,287.4 L192.9,287.4 C192.9,287.4 192.7,288.5 193.9,288.5 C195.2,288.5 195.2,294.4 195.2,294.4 L195.2,328.8 C195.2,328.8 195.2,334.6 193.9,334.6 C192.7,334.6 192.9,335.7 192.9,335.7 L217.3,335.7 C214.6,324.7 217.2,318.4 217.2,318.4 L217.2,318.4 Z M235.4,287.3 L235.3,287.3 C228.5,287.4 223,292.5 223,299 L223,324 C223,330.3 228.5,335.4 235.3,335.7 C242,335.1 247.5,330.5 247.6,324 L247.6,299 C247.5,292.6 242.1,287.5 235.4,287.3 L235.4,287.3 Z M239.9,323.9 C239.9,327.3 238,330.3 235.2,331.8 C232.4,330.2 230.5,327.3 230.5,323.9 L230.5,298.9 C230.5,295.4 232.4,292.5 235.2,290.9 C238,292.5 239.9,295.4 239.9,298.9 L239.9,323.9 Z M282.1,334.5 C280.9,334.5 280.7,329 280.7,328.7 L280.7,294.2 C280.7,293.8 280.9,288.4 282.1,288.4 C283.3,288.4 283.2,287.3 283.2,287.3 L270.9,287.3 C270.9,287.3 270.7,288.4 272,288.4 C273.2,288.4 273.2,293.8 273.2,294.2 L273.2,313.1 L264.6,287.3 L254.6,287.3 C254.6,287.3 254.4,288.4 255.7,288.4 C256.9,288.4 256.9,293.8 256.9,294.2 L256.9,328.7 C256.9,329.2 256.8,334.5 255.7,334.5 C254.5,334.5 254.6,335.6 254.6,335.6 L264.2,335.6 C264.2,335.6 264.3,334.5 263.1,334.5 C261.8,334.5 261.7,328.6 261.7,328.6 L261.7,301.6 L273.1,335.6 L283.1,335.6 C283.2,335.6 283.4,334.5 282.1,334.5 L282.1,334.5 Z M305.7,287.3 L290.1,287.3 C290.1,287.3 289.9,288.4 291.1,288.4 C292.3,288.4 292.4,293.9 292.4,294.2 L292.4,328.7 C292.4,329 292.3,334.5 291.1,334.5 C289.9,334.5 290.1,335.6 290.1,335.6 L305.7,335.6 C312.7,335.6 318.4,330.4 318.4,323.9 L318.4,298.9 C318.4,292.4 312.7,287.3 305.7,287.3 L305.7,287.3 Z M310.8,323.9 C310.8,328.9 306.8,332.9 301.9,332.9 C301.2,332.9 300.7,332.8 300,332.7 L300,290 C300.6,289.9 301.2,289.8 301.9,289.8 C306.8,289.8 310.8,293.9 310.8,298.9 L310.8,323.9 Z M337.8,287.3 L337.8,287.3 C330.9,287.4 325.4,292.5 325.4,299 L325.4,324 C325.4,330.3 330.9,335.4 337.7,335.7 C344.4,335.1 349.9,330.5 350,324 L350,299 C350,292.6 344.5,287.5 337.8,287.3 L337.8,287.3 Z M342.4,323.9 C342.4,327.3 340.5,330.3 337.7,331.8 C334.9,330.2 333,327.3 333,323.9 L333,298.9 C333,295.4 334.9,292.5 337.7,290.9 C340.5,292.5 342.4,295.4 342.4,298.9 L342.4,323.9 Z M384.6,334.5 C383.4,334.5 383.2,329 383.2,328.7 L383.2,294.2 C383.2,293.8 383.3,288.4 384.6,288.4 C385.8,288.4 385.7,287.3 385.7,287.3 L373.3,287.3 C373.3,287.3 373.2,288.4 374.4,288.4 C375.6,288.4 375.7,293.8 375.7,294.2 L375.7,313.1 L367,287.3 L357,287.3 C357,287.3 356.9,288.4 358.1,288.4 C359.3,288.4 359.4,293.8 359.4,294.2 L359.4,328.7 C359.4,329.2 359.3,334.5 358.1,334.5 C356.9,334.5 357,335.6 357,335.6 L366.6,335.6 C366.6,335.6 366.7,334.5 365.6,334.5 C364.3,334.5 364.2,328.6 364.2,328.6 L364.2,301.6 L375.6,335.6 L385.6,335.6 C385.7,335.6 385.8,334.5 384.6,334.5 L384.6,334.5 Z"></path>
            <path fill-rule="nonzero" fill="#FFFFFF" id="Shape" d="M367.6,78.8 C363,78.8 358.6,81.4 355.6,84.8 C354.4,86 353.2,87.3 351.9,88.5 C351.6,88.8 351.2,89.2 350.8,89.5 L350.8,47.5 C350.8,13.1 318.8,0.1 289.3,0.1 C259.8,0.1 227.8,13.1 227.8,47.5 L227.8,81.8 L227.8,81.8 L227.8,94.7 C236,102.3 245.5,108.3 256.1,112.4 C266.4,116.5 277.6,118.8 289.3,118.9 C301.1,118.7 312.3,116.4 322.7,112.3 C333.4,108 343.1,101.8 351.4,94.1 C344.5,103.8 327.5,112.3 323.3,113.9 C312.8,118.1 301.3,120.5 289.3,120.6 C277.4,120.5 265.9,118.1 255.4,114 C244.6,109.7 234.7,103.5 226.3,95.6 L226,95.4 L226,87.8 C225,86.8 223.9,85.8 222.9,84.7 C219.9,81.4 215.5,78.7 210.9,78.7 C204.8,78.7 199.8,83.7 199.8,89.8 C199.8,101.6 230.4,121.7 239.8,126.4 C254.7,133.8 271.5,137.9 289.3,137.9 C307,137.9 323.8,133.8 338.8,126.4 C348.2,121.8 378.8,101.7 378.8,89.8 C378.7,83.8 373.7,78.8 367.6,78.8 Z M238.6,31 C246.1,16.6 261.1,6.7 278.4,6.7 C280,6.7 281.7,6.8 283.3,7 C264.7,7.3 248.4,16.8 238.6,31 Z M289.2,130.6 C257.7,130.6 229.4,117 209.9,95.3 C230.7,114.7 258.6,126.6 289.2,126.6 C319.9,126.6 347.7,114.7 368.5,95.3 C349,116.9 320.7,130.6 289.2,130.6 Z"></path>
            <path fill-rule="nonzero" fill="#F8F9F8" id="Path" d="M227.1,46.4 C232.9,48.5 240.7,51.2 247,52.9 C251.2,54 255.5,55.1 259.7,55.9 C259.6,56.1 259.5,56.6 259.4,56.8 C248.8,54.7 237,50.9 226.9,47.3 L227.1,46.4 Z"></path>
            <path fill-rule="nonzero" fill="#F8F9F8" id="Path" d="M227.2,58.4 C236.1,61.9 245.3,64.8 254.7,66.8 C254.6,67.1 254.5,67.4 254.5,67.7 C250,66.8 245.8,65.6 241.5,64.3 C236.6,62.8 231.8,61.1 227.2,59.2 L227.2,58.4 Z"></path>
            <path fill="#F8F9F8" id="Shape" d="M243.7,64.5 C246.1,55.9 247.3,51.7 247.3,51.7 C247.6,50.7 247,50 245.4,49.6 C245.4,49.6 242.5,48.9 236.7,47.5 C235.2,47.4 234.3,48.1 234.1,49.7 C233.1,52.9 232,56.7 231.1,61.2 C230.9,62.8 231.7,64.4 233.3,64.7 C238.2,66.1 240.5,66.5 240.5,66.5 C242,66.6 243.2,65.7 243.7,64.5 L243.7,64.5 Z M244.4,52.3 C242.4,59.3 241.5,62.9 241.5,62.9 C241.1,63.7 240.5,64.1 239.6,64.1 C239.6,64.1 238.1,63.6 234.9,62.9 C233.8,62.5 233,62.1 233.3,60.5 C234.7,55.3 235.4,52.6 235.4,52.6 C236.9,47.1 237.6,51.1 244,51.4 C244.6,51.4 244.7,51.6 244.4,52.3 L244.4,52.3 Z"></path>
            <path fill-rule="nonzero" fill="#000000" id="Shape" d="M244,64.6 L247.7,51.6 C247.9,51 247.8,50.4 247.4,50 C247,49.6 246.4,49.3 245.5,49.1 L236.8,47 L236.7,47 C235.9,46.9 235.2,47.2 234.6,47.7 C234.1,48.1 233.8,48.8 233.6,49.6 C233.1,51.2 232.6,53 232.1,54.9 C231.6,56.8 231.1,58.9 230.7,61.2 L230.7,61.3 C230.6,62.1 230.8,63 231.2,63.8 C231.6,64.5 232.3,65 233.1,65.3 L233.1,65.3 C238,66.6 240.3,67 240.3,67.1 L240.4,67.1 C241.2,67.2 241.9,67 242.5,66.6 C243.3,65.9 243.8,65.3 244,64.6 L244,64.6 Z M246.9,51.4 L243.2,64.4 C243,65 242.6,65.5 242.1,65.8 C241.7,66.1 241.1,66.3 240.5,66.1 C240.4,66.1 238.1,65.6 233.3,64.4 C232.7,64.2 232.2,63.8 231.9,63.3 C231.5,62.7 231.4,62 231.4,61.3 C231.9,59.1 232.4,57 232.9,55.1 C233.4,53.2 233.9,51.4 234.4,49.9 L234.4,49.8 L234.4,49.8 C234.5,49.1 234.9,48.3 235.2,48.1 C236,47.4 237.5,48 238.5,48.3 L245.2,49.9 C245.9,50.1 246.4,50.3 246.7,50.6 C247,50.6 247,51 246.9,51.4 L246.9,51.4 Z M242,63.1 C242,63.1 242.7,59.8 244.6,53.4 C244.7,53 244.8,52.6 244.9,52.2 C245,51.9 245,51.7 244.9,51.5 C244.8,51.2 244.6,51.1 244.3,51 L244.2,50.9 C243,50.8 241.7,50.7 240.4,50.3 C239.5,50.1 238.7,49.8 237.8,49.4 C237.1,49.1 236.6,49.1 236.3,49.4 C236.1,49.6 236,49.8 235.8,50.2 C235.6,50.8 235.3,51.5 235.1,52.3 C234.5,54.7 233.4,57.9 233,60.2 C232.9,61.1 233,61.7 233.3,62.1 C233.7,62.6 234.2,62.8 234.8,63 L234.9,63 C235.9,63.3 237.8,63.8 239.2,64 C240,64.2 240.5,64.2 240.9,63.9 C241.4,63.9 241.7,63.6 242,63.1 L242,63.1 L242,63.1 Z"></path>
            <path fill-rule="nonzero" fill="#000000" id="Path" d="M228.8,48.1 C228.7,55.4 228.3,58.8 228.3,58.8 C228,58.7 227.5,58.5 227,58.2 C226.7,58 227.1,48.8 227.3,47.8 C227.3,47.4 227.9,47.7 228.8,48.1 L228.8,48.1 Z"></path>
            <path fill-rule="nonzero" fill="#F8F9F8" id="Shape" d="M328.7,69.8 C334.9,71.2 345.2,72.3 351.1,72 L351.1,72.9 C349,73 346.3,73 343.3,72.7 C339.8,72.4 332.3,71.7 328.6,70.6 L328.7,69.8 Z M325.4,82.8 C330.8,84.1 347.4,85.4 350.9,84.8 L350.9,85.8 C344.3,86.1 332.9,85.3 325.1,83.7 L325.4,82.8 Z"></path>
            <path fill-rule="nonzero" fill="#000000" id="Path" d="M349.4,72.9 C347.9,78.2 347.7,82.3 349.5,85 C350.1,85 350.8,84.9 351,84.9 C351,84.8 351.1,81.2 351.4,74.1 C351.5,73.4 351.5,73 350.9,72.9 C350.9,72.9 350.4,72.9 349.4,72.9 L349.4,72.9 Z"></path>
            <path fill="#FEFEFE" id="Path" d="M234.6,61 C235.7,57.8 236.5,54.8 237,51.9 C235.6,54.8 234.8,57.8 234.6,61 L234.6,61 Z"></path>
            <polygon points="253.8 39.8 263 30.7 267.4 35 258.2 44.2" fill="#FEFEFE" id="Path"></polygon>
            <path fill-rule="nonzero" fill="#000000" id="Shape" d="M253.3,39.2 L263,29.6 L268.5,35.1 L258.2,45.3 L252.8,39.8 L253.3,39.2 Z M263,31.7 L254.9,39.8 L258.2,43.1 L266.3,35 L263,31.7 Z"></path>
            <polygon points="256 37.6 261.4 32.2 265.7 36.6 260.4 42" fill="#FEFEFE" id="Path"></polygon>
            <path fill-rule="nonzero" fill="#000000" id="Shape" d="M255.5,37.1 L261.4,31.2 L266.8,36.7 L260.3,43.1 L254.9,37.6 L255.5,37.1 Z M261.4,33.4 L257.1,37.6 L260.4,40.9 L264.7,36.6 L261.4,33.4 Z"></path>
            <path fill="#FEFEFE" id="Path" d="M255.6,32.4 C257.3,30.7 259.9,30.5 261.7,31.9 L255.1,38.4 C253.7,36.6 253.9,34 255.6,32.4 L255.6,32.4 Z"></path>
            <path fill-rule="nonzero" fill="#000000" id="Shape" d="M255,31.8 C256,30.8 257.2,30.3 258.5,30.2 C259.7,30.1 261,30.4 262.2,31.3 L262.9,31.8 L255,39.6 L254.5,38.9 C253.7,37.8 253.4,36.5 253.5,35.2 C253.6,34 254.1,32.8 255,31.8 L255,31.8 Z M258.6,31.8 C257.7,31.9 256.8,32.3 256.1,32.9 C255.4,33.6 255,34.5 255,35.4 C254.9,36 255.1,36.7 255.3,37.3 L260.5,32.1 C259.9,31.8 259.3,31.7 258.6,31.8 L258.6,31.8 Z"></path>
            <rect height="12.9996051" width="6.19981167" y="71.9991474" x="247.392944" transform="translate(250.492850, 78.498950) rotate(-16.936331) translate(-250.492850, -78.498950)" fill="#FEFEFE" id="Rectangle"></rect>
            <path fill-rule="nonzero" fill="#000000" id="Shape" d="M248.7,85.8 L244.7,72.7 L252.1,70.4 L256.3,84.3 L248.9,86.6 L248.7,85.8 Z M246.6,73.7 L249.9,84.6 L254.4,83.2 L251,72.4 L246.6,73.7 Z"></path>
            <polygon points="248.5 82.7 246.3 75.4 252.2 73.6 254.4 80.9" fill="#FEFEFE" id="Path"></polygon>
            <path fill-rule="nonzero" fill="#000000" id="Shape" d="M247.8,82.9 L245.4,74.9 L252.8,72.6 L255.4,81.3 L248,83.6 L247.8,82.9 Z M247.3,75.9 L249,81.7 L253.5,80.3 L251.8,74.5 L247.3,75.9 Z"></path>
            <path fill="#FEFEFE" id="Path" d="M243.7,80.6 C243,78.3 244.1,76 246.1,75 L248.8,84 C246.6,84.2 244.4,82.8 243.7,80.6 L243.7,80.6 Z"></path>
            <path fill-rule="nonzero" fill="#000000" id="Shape" d="M242.9,80.8 C242.5,79.5 242.6,78.2 243.1,77 C243.7,75.9 244.6,74.9 245.7,74.3 L246.5,73.9 L249.7,84.5 L248.8,84.6 C247.5,84.8 246.2,84.5 245.1,83.8 C244.2,83.1 243.3,82.1 242.9,80.8 L242.9,80.8 Z M244.6,77.6 C244.3,78.4 244.2,79.4 244.5,80.4 C244.8,81.4 245.3,82.1 246.1,82.6 C246.6,82.9 247.2,83.1 247.8,83.2 L245.7,76.2 C245.2,76.5 244.8,77 244.6,77.6 L244.6,77.6 Z"></path>
            <polygon points="272.7 107.5 285.3 110.6 286.8 104.5 274.2 101.4" fill="#FEFEFE" id="Path"></polygon>
            <path fill-rule="nonzero" fill="#000000" id="Shape" d="M273.7,106.9 L284.8,109.6 L285.9,105.1 L274.8,102.4 L273.7,106.9 Z M285.1,111.3 L271.8,108 L273.6,100.5 L287.7,103.9 L285.8,111.4 L285.1,111.3 Z"></path>
            <polygon points="275.8 108.2 283.1 110 284.6 104 277.2 102.2" fill="#FEFEFE" id="Path"></polygon>
            <path fill-rule="nonzero" fill="#000000" id="Shape" d="M276.7,107.6 L282.6,109.1 L283.7,104.5 L277.8,103.1 L276.7,107.6 Z M282.9,110.7 L274.8,108.7 L276.7,101.2 L285.5,103.3 L283.6,110.9 L282.9,110.7 Z"></path>
            <path fill="#FEFEFE" id="Path" d="M278.1,112.9 C280.4,113.5 282.7,112.3 283.6,110.1 L274.5,107.9 C274.3,110.2 275.8,112.3 278.1,112.9 L278.1,112.9 Z"></path>
            <path fill-rule="nonzero" fill="#000000" id="Shape" d="M278.3,112.1 C279.3,112.3 280.2,112.2 281.1,111.8 C281.6,111.5 282.1,111.1 282.5,110.6 L275.3,108.9 C275.4,109.5 275.6,110.1 276,110.6 C276.5,111.3 277.3,111.9 278.3,112.1 L278.3,112.1 Z M281.7,113.2 C280.6,113.8 279.2,113.9 277.9,113.6 C276.5,113.3 275.5,112.5 274.7,111.5 C274,110.4 273.6,109.1 273.7,107.8 L273.8,107 L284.6,109.6 L284.3,110.4 C283.8,111.6 282.8,112.6 281.7,113.2 L281.7,113.2 Z"></path>
            <polygon points="333.1 58.3 328.7 46.1 322.9 48.2 327.3 60.4" fill="#FEFEFE" id="Path"></polygon>
            <path fill-rule="nonzero" fill="#000000" id="Shape" d="M332.2,57.8 L328.3,47.1 L323.9,48.7 L327.8,59.4 L332.2,57.8 Z M329.5,45.9 L334.2,58.8 L326.9,61.4 L322,47.8 L329.3,45.2 L329.5,45.9 Z"></path>
            <polygon points="332.1 55.4 329.5 48.2 323.7 50.4 326.3 57.5" fill="#FEFEFE" id="Path"></polygon>
            <path fill-rule="nonzero" fill="#000000" id="Shape" d="M331.1,54.9 L329.1,49.2 L324.7,50.8 L326.7,56.5 L331.1,54.9 Z M330.3,48 L333.1,55.8 L325.8,58.4 L322.7,49.8 L330,47.2 L330.3,48 Z"></path>
            <path fill="#FEFEFE" id="Path" d="M334.7,50.8 C333.9,48.6 331.6,47.4 329.3,47.8 L332.5,56.6 C334.5,55.5 335.5,53.1 334.7,50.8 L334.7,50.8 Z"></path>
            <path fill-rule="nonzero" fill="#000000" id="Shape" d="M334,51.1 C333.7,50.2 333,49.5 332.3,49 L332.3,49 C331.7,48.7 331.1,48.5 330.5,48.5 L333,55.4 C333.5,54.9 333.8,54.4 334.1,53.9 C334.3,53 334.3,52 334,51.1 L334,51.1 Z M333,47.7 C334.1,48.3 335,49.3 335.5,50.6 C336,51.8 335.9,53.2 335.4,54.4 C334.9,55.6 334.1,56.7 332.9,57.3 L332.1,57.8 L328.3,47.3 L329.1,47.1 C330.5,46.8 331.8,47.1 333,47.7 L333,47.7 Z"></path>
            <polygon points="318 100 326.5 90.2 321.9 86.1 313.4 95.8" fill="#FEFEFE" id="Path"></polygon>
            <path fill-rule="nonzero" fill="#000000" id="Shape" d="M317.9,98.8 L325.5,90.2 L322,87.2 L314.4,95.8 L317.9,98.8 Z M327.2,90.7 L318.1,101 L312.3,95.9 L321.9,85 L327.7,90.1 L327.2,90.7 Z"></path>
            <polygon points="320.1 97.6 325.1 91.9 320.4 87.8 315.4 93.5" fill="#FEFEFE" id="Path"></polygon>
            <path fill-rule="nonzero" fill="#000000" id="Shape" d="M320,96.5 L324,92 L320.5,88.9 L316.6,93.4 L320,96.5 Z M325.6,92.4 L320.1,98.7 L314.3,93.6 L320.3,86.8 L326.1,91.9 L325.6,92.4 Z"></path>
            <path fill="#FEFEFE" id="Path" d="M325.3,97.7 C326.8,96 326.8,93.3 325.4,91.6 L319.3,98.6 C321.1,99.8 323.7,99.5 325.3,97.7 L325.3,97.7 Z"></path>
            <path fill-rule="nonzero" fill="#000000" id="Shape" d="M324.7,97.2 C325.4,96.5 325.7,95.6 325.7,94.7 C325.7,94.1 325.6,93.5 325.3,92.9 L320.5,98.4 C321.1,98.6 321.7,98.7 322.4,98.6 C323.2,98.4 324.1,97.9 324.7,97.2 L324.7,97.2 Z M327.2,94.7 C327.2,96 326.7,97.2 325.8,98.2 C324.9,99.2 323.7,99.8 322.4,100 L322.4,100 C321.2,100.2 319.8,99.9 318.7,99.2 L318,98.7 L325.3,90.4 L325.9,91.1 C326.8,92.1 327.2,93.4 327.2,94.7 L327.2,94.7 Z"></path>
            <polygon points="310.9 27.5 298.7 23.2 296.7 29 308.8 33.3" fill="#FEFEFE" id="Path"></polygon>
            <path fill-rule="nonzero" fill="#000000" id="Shape" d="M311.2,26.8 L298.2,22.2 L295.6,29.5 L309.3,34.3 L311.8,27 L311.2,26.8 Z M299.2,24.1 L310,27.9 L308.4,32.3 L297.6,28.5 L299.2,24.1 Z"></path>
            <polygon points="308 26.4 300.8 23.9 298.8 29.8 305.9 32.3" fill="#FEFEFE" id="Path"></polygon>
            <path fill-rule="nonzero" fill="#000000" id="Shape" d="M308.3,25.8 L300.4,23 L297.8,30.3 L306.4,33.3 L309,26 L308.3,25.8 Z M301.4,24.9 L307.1,26.9 L305.5,31.3 L299.8,29.3 L301.4,24.9 Z"></path>
            <path fill="#FEFEFE" id="Path" d="M306.1,21.6 C303.9,20.8 301.5,21.8 300.4,23.8 L309.2,26.9 C309.6,24.6 308.4,22.4 306.1,21.6 L306.1,21.6 Z"></path>
            <path fill-rule="nonzero" fill="#000000" id="Shape" d="M306.4,20.8 C305.1,20.3 303.8,20.4 302.6,20.9 C301.4,21.4 300.4,22.2 299.8,23.4 L299.3,24.2 L309.8,27.9 L310,27 C310.3,25.6 310,24.4 309.4,23.2 C308.7,22.2 307.7,21.3 306.4,20.8 L306.4,20.8 Z M303.2,22.3 C304,22 305,22 306,22.3 C306.9,22.6 307.6,23.3 308.1,24 C308.4,24.5 308.6,25.1 308.6,25.7 L301.7,23.3 C302,22.9 302.6,22.5 303.2,22.3 L303.2,22.3 Z"></path>
            <path fill="#FEFEFE" id="Path" d="M294.5,28 C315.6,30.9 330.3,50.3 327.4,71.3 C324.5,92.4 305.1,107.1 284.1,104.2 C263,101.3 248.3,81.9 251.2,60.9 C254.1,39.8 273.5,25.1 294.5,28 L294.5,28 Z"></path>
            <path fill-rule="nonzero" fill="#000000" id="Path" d="M294,31.9 C312.9,34.5 326.1,51.9 323.5,70.8 C320.9,89.7 303.5,103 284.6,100.4 C265.7,97.8 252.5,80.3 255.1,61.4 C257.7,42.5 275.1,29.3 294,31.9 L294,31.9 Z"></path>
            <path fill-rule="nonzero" fill="#000000" id="Shape" d="M294.1,31.1 C303.7,32.5 312,37.6 317.4,44.7 C322.9,51.9 325.6,61.2 324.3,70.9 C322.9,80.5 317.8,88.8 310.7,94.2 C303.5,99.7 294.2,102.4 284.5,101.1 C274.9,99.8 266.6,94.7 261.2,87.5 C255.7,80.3 253,71 254.3,61.4 C255.7,51.7 260.7,43.5 267.9,38 C275.2,32.5 284.5,29.8 294.1,31.1 L294.1,31.1 Z M316.2,45.7 C311,38.8 303.1,33.9 293.9,32.6 C284.7,31.4 275.8,34 268.9,39.2 C262,44.4 257.1,52.3 255.8,61.5 C254.5,70.7 257.2,79.6 262.4,86.5 C267.6,93.4 275.5,98.3 284.7,99.6 C293.9,100.9 302.8,98.2 309.7,93.1 C316.6,87.9 321.5,80 322.8,70.7 C324.1,61.5 321.5,52.6 316.2,45.7 L316.2,45.7 Z"></path>
            <path fill-rule="nonzero" fill="#000000" id="Shape" d="M294.6,27.2 C305.4,28.7 314.5,34.4 320.5,42.4 C326.6,50.3 329.6,60.7 328.2,71.4 C326.7,82.2 321,91.3 313,97.4 C305,103.4 294.7,106.4 284.1,105 L284,105 C273.2,103.5 264.1,97.8 258,89.8 C252,81.8 249,71.5 250.4,60.9 L250.4,60.7 C251.9,50 257.6,40.9 265.6,34.8 C273.6,28.8 283.9,25.8 294.6,27.2 L294.6,27.2 Z M319.4,43.3 C313.5,35.6 304.7,30.2 294.4,28.7 C284.1,27.3 274.2,30.2 266.5,36 C258.8,41.9 253.3,50.7 251.9,61 L251.9,61 C250.5,71.3 253.4,81.2 259.2,88.9 C265.1,96.6 273.8,102.1 284.1,103.5 L284.2,103.5 C294.5,104.9 304.4,102 312.1,96.2 C319.8,90.3 325.3,81.6 326.7,71.3 C328.1,60.9 325.2,51 319.4,43.3 L319.4,43.3 Z"></path>
            <path fill-rule="nonzero" fill="#FEFEFE" id="Shape" d="M320.4,66.4 C320.5,62.8 316.8,59.4 310.8,57 C309.7,56.5 308.5,56.1 307.3,55.8 C307.6,54.5 307.9,53.2 308,52 C308.8,45.7 307.8,40.8 304.7,39 L304.3,38.8 L304.3,38.8 C301.1,37.3 296.6,38.9 291.8,42.8 C291,43.5 290.1,44.2 289.2,45.1 C288.3,44.3 287.5,43.5 286.6,42.8 C281.8,38.9 277.2,37.3 274.1,38.8 L274,38.8 L273.7,39 C270.6,40.8 269.5,45.6 270.4,52 C270.6,53.1 270.8,54.3 271.1,55.5 C270,55.8 269,56.2 268.1,56.5 C261.9,58.8 258.1,62.2 258,65.9 C258,69.5 261.8,73 267.9,75.4 C268.9,75.8 270,76.2 271.2,76.5 C270.9,77.8 270.6,79 270.5,80.2 C269.6,86.5 270.7,91.4 273.8,93.2 C277,95 281.9,93.4 287,89.1 C287.8,88.5 288.5,87.9 289.3,87.1 C290,87.8 290.8,88.5 291.6,89.1 C296.7,93.3 301.6,95 304.8,93.2 C307.9,91.5 309,86.6 308.1,80.2 C307.8,78 307.3,75.9 306.7,73.7 L306.7,73.7 C306.1,71.7 304.7,68.2 303.9,66.1 C303.4,67.1 302.7,68.7 302.2,69.9 C302.6,71 303.4,73.4 303.8,74.5 C302.3,74.9 300.6,75.2 299,75.4 C299.6,74.4 300.2,73.5 300.7,72.5 C301.5,71 302.3,69.6 303,68.2 C303.3,67.6 303.6,67 303.9,66.2 L303.9,66.2 C305,63.6 306,61.1 306.7,58.7 C307.9,59 309,59.4 309.9,59.8 C314.7,61.8 317.6,64.1 317.6,66.3 C317.6,68.6 314.6,70.9 309.8,72.8 C309.2,73 307.4,73.6 306.8,73.8 C307.1,74.8 307.3,75.8 307.6,76.7 C308.3,76.5 310.2,75.8 310.9,75.6 C316.7,73.3 320.4,70 320.4,66.4 L320.4,66.4 Z M304.3,55.1 L304.3,55.1 C303.7,57.7 302.9,60.2 301.9,62.7 C301.4,61.7 300.9,60.8 300.4,59.9 L300.4,59.9 C299.8,58.9 299.3,58 298.7,57.1 C299.9,57.3 302.3,57.7 303.5,58.1 C303.9,57 304.2,56 304.3,55.1 C302.2,54.6 298.8,54 296.5,53.7 C294.9,51.3 293.1,49.2 291.3,47.3 C292.1,46.6 292.9,45.8 293.7,45.2 C297.7,42 301.3,40.6 303.2,41.7 L303.2,41.7 C305.2,42.8 305.7,46.5 305.1,51.6 C304.8,52.7 304.6,53.9 304.3,55.1 L304.3,55.1 Z M304.4,77.5 C304.6,78.6 304.9,79.7 305,80.7 C305.7,85.8 305.2,89.5 303.3,90.7 C301.3,91.8 297.7,90.3 293.5,86.9 C291.1,84.9 288.5,82.2 286,79 C287,79.1 288.1,79.1 289.2,79.1 L289.2,79.1 C290.4,79.1 291.5,79 292.7,79 C291.9,80.1 290.2,82 289.4,82.9 C290.1,83.7 290.9,84.5 291.7,85.2 C293.2,83.6 295.3,80.7 296.7,78.8 C299.3,78.5 301.9,78.1 304.4,77.5 L304.4,77.5 Z M281.9,78.7 C283.6,81.1 285.3,83.2 287.1,85.1 C286.4,85.8 285.7,86.4 285,87 C280.9,90.4 277.2,91.9 275.3,90.8 C273.3,89.7 272.8,86 273.5,80.8 C273.7,79.7 273.9,78.6 274.2,77.5 C276.5,78 279.2,78.4 281.9,78.7 L281.9,78.7 Z M274.9,74.5 C275.3,73 275.9,71.5 276.5,69.9 L276.5,69.9 C276.7,69.4 276.8,69 277.1,68.5 L277.1,68.4 C278.1,66.1 279.2,63.7 280.6,61.3 L280.6,61.2 C281.6,59.5 282.6,57.9 283.6,56.4 C285.4,56.2 287.3,56.2 289.2,56.2 L289.2,56.2 C291.1,56.3 293,56.3 294.8,56.5 C295.8,58 296.8,59.6 297.7,61.2 L297.7,61.2 C298.7,62.9 299.5,64.5 300.3,66.2 C299.6,67.8 298.7,69.4 297.8,71 C296.8,72.7 295.8,74.3 294.8,75.8 C292.9,76 291,76 289,76 L289,76 C283.9,76.1 279,75.5 274.9,74.5 L274.9,74.5 Z M282,53.6 L282,53.6 C279.2,53.9 276.5,54.3 274.1,54.9 C273.9,53.8 273.6,52.7 273.5,51.7 C272.8,46.6 273.4,42.9 275.3,41.8 L275.3,41.8 C277.3,40.7 280.8,42.1 284.8,45.3 C285.6,45.9 286.4,46.7 287.2,47.4 C285.7,48.9 283.4,51.8 282,53.6 C283.6,53.5 283.3,53.7 286.1,53.4 C286.8,52.4 288.5,50.4 289.3,49.5 C290.4,50.7 291.5,52 292.6,53.4 C291.5,53.3 290.5,53.3 289.3,53.3 L289.3,53.3 C286.9,53.3 284.5,53.4 282,53.6 L282,53.6 Z M279.8,56.9 C279.2,57.8 278.7,58.7 278.2,59.6 L278.1,59.8 C277.5,60.7 277,61.7 276.6,62.6 C275.9,60.9 275.4,59.3 274.9,57.8 C276.4,57.4 278,57.1 279.8,56.9 L279.8,56.9 Z M271.9,58.5 C272.6,61 273.6,63.6 274.8,66.2 C273.7,68.7 272.7,71.3 272,73.6 C270.9,73.3 270,72.9 269.1,72.6 C264.1,70.6 261.1,68.2 261.1,65.9 C261.1,63.6 264.2,61.2 269.2,59.4 C270,59.1 270.9,58.8 271.9,58.5 L271.9,58.5 Z M283.5,75.8 C282.8,74.7 281.2,72.3 280.6,71 C280,69.9 278.6,67.6 278,66.5 C277.3,67.9 277.2,68.1 276.5,69.9 C277.2,71.6 278.6,74.1 279.3,75.3 C280.7,75.6 282.3,75.7 283.5,75.8 L283.5,75.8 Z"></path>
            <path fill="#FEFEFE" id="Path" d="M289.2,71.1 C291.9,71.1 294.1,68.9 294.1,66.2 C294.1,63.5 291.9,61.3 289.2,61.3 C286.5,61.3 284.3,63.5 284.3,66.2 C284.3,68.9 286.5,71.1 289.2,71.1 L289.2,71.1 Z"></path>
            <path fill-rule="nonzero" fill="#000000" id="Shape" d="M289.2,70.7 C290.4,70.7 291.5,70.2 292.3,69.4 C293.1,68.6 293.7,67.5 293.7,66.2 C293.7,65 293.2,63.9 292.3,63.1 C291.5,62.3 290.4,61.7 289.2,61.7 C288,61.7 286.8,62.2 286,63.1 C285.2,63.9 284.7,65 284.7,66.2 C284.7,67.4 285.2,68.6 286,69.4 C286.9,70.2 288,70.7 289.2,70.7 L289.2,70.7 Z M293,70 C292,71 290.7,71.6 289.2,71.6 C287.7,71.6 286.4,71 285.4,70 C284.4,69 283.8,67.7 283.8,66.2 C283.8,64.7 284.4,63.4 285.4,62.4 C286.4,61.4 287.7,60.8 289.2,60.8 C290.7,60.8 292,61.4 293,62.4 C294,63.4 294.6,64.7 294.6,66.2 C294.6,67.7 294,69 293,70 L293,70 Z"></path>
            <path fill-rule="nonzero" fill="#000000" id="Path" d="M303.7,78.8 C303.6,78.1 303.5,77.3 303.2,76.5 C303,75.7 302.7,74.9 302.4,74 L303.2,73.7 C303.5,74.5 303.8,75.4 304,76.2 C304.2,77 304.4,77.8 304.5,78.6 L303.7,78.8 Z"></path>
            <path fill-rule="nonzero" fill="#000000" id="Path" d="M276.2,70.6 C276.6,69.6 277,68.7 277.4,67.7 C277.9,66.7 278.3,65.7 278.8,64.7 L279.6,65 C278.7,67 277.8,68.9 277,71.1 C276.7,71 276.4,70.8 276.2,70.6 L276.2,70.6 Z"></path>
            <path fill-rule="nonzero" fill="#000000" id="Path" d="M286.2,84.1 C286.9,84.9 287.6,85.6 288.3,86.3 C288.9,87 289.6,87.6 290.2,88.1 L289.6,88.8 C288.2,87.6 286.8,86.2 285.5,84.7 L286.2,84.1 Z"></path>
            <path fill-rule="nonzero" fill="#000000" id="Path" d="M279,78.3 C280.6,78.6 282.3,78.8 284,78.9 C285.6,79 287.3,79.1 289,79.1 L289,80 C287.3,80 285.6,79.9 284,79.8 C282.3,79.6 280.6,79.5 278.9,79.2 L279,78.3 Z"></path>
            <path fill-rule="nonzero" fill="#000000" id="Path" d="M277.9,57.2 C279.1,57 280.5,56.8 282,56.6 C283.5,56.5 285.1,56.4 286.8,56.3 L286.9,57.2 C285.2,57.3 283.6,57.4 282.1,57.5 C280.6,57.7 279.3,57.8 278.1,58.1 L277.9,57.2 Z"></path>
            <path fill-rule="nonzero" fill="#000000" id="Path" d="M271.7,60.9 C271.2,59.5 270.7,58.1 270.4,56.7 C270,55.2 269.8,53.8 269.6,52.2 L270.5,52.1 C270.7,53.6 271,55.1 271.3,56.5 C271.6,57.9 272.1,59.3 272.6,60.6 L271.7,60.9 Z"></path>
            <path fill-rule="nonzero" fill="#000000" id="Path" d="M295,58.6 C294.3,57.3 293.5,56.1 292.7,55.1 C291.9,54 291.1,53.1 290.3,52.2 L290.9,51.5 C291.8,52.4 292.6,53.4 293.4,54.5 C294.2,55.6 295,56.8 295.8,58.1 L295,58.6 Z"></path>
            <path fill-rule="nonzero" fill="#000000" id="Path" d="M306,60.6 C306.4,59.4 306.8,58.1 307.1,56.9 C307.4,55.7 307.7,54.5 307.9,53.3 L308.7,53.5 C308.5,54.7 308.2,55.9 307.9,57.2 C307.6,58.5 307.2,59.7 306.8,61 L306,60.6 Z"></path>
            <path fill-rule="nonzero" fill="#000000" id="Path" d="M288.7,50.1 C289.4,49.3 290.1,48.5 290.8,47.8 C291.5,47.1 292.2,46.5 292.9,46 L293.4,46.7 C292.8,47.2 292.1,47.8 291.4,48.4 C290.7,49.1 290,49.8 289.4,50.6 L288.7,50.1 Z"></path>
            <path fill="#FEFEFE" id="Path" d="M302.9,67.6 C303.2,69.1 303,70.2 302.3,70.9 C302,70.1 301.7,69.5 301.5,69.1 C302.4,68.1 302.9,67.6 302.9,67.6 L302.9,67.6 Z"></path>
        </g>
    </g>
</svg>