<?xml version="1.0" encoding="utf-8"?>
<!-- Generator: Adobe Illustrator 23.0.5, SVG Export Plug-In . SVG Version: 6.00 Build 0)  -->
<svg version="1.1" id="Layer_1" xmlns="http://www.w3.org/2000/svg" xmlns:xlink="http://www.w3.org/1999/xlink" x="0px" y="0px"
	 viewBox="0 0 111.6 122.4" style="enable-background:new 0 0 111.6 122.4;" xml:space="preserve">
<style type="text/css">
	.st0{fill-rule:evenodd;clip-rule:evenodd;fill:url(#SVGID_1_);}
	.st1{fill-rule:evenodd;clip-rule:evenodd;fill:url(#SVGID_2_);}
	.st2{fill:#0e1111;}
	.st3{fill:#43FF01;}
	.st4{fill-rule:evenodd;clip-rule:evenodd;fill:#43FF01;}
</style>
<linearGradient id="SVGID_1_" gradientUnits="userSpaceOnUse" x1="40.0437" y1="149.6474" x2="72.4707" y2="93.5564" gradientTransform="matrix(1 0 0 -1 8.410366e-06 150.5235)">
	<stop  offset="0" style="stop-color:#99FF00"/>
	<stop  offset="1" style="stop-color:#00DD3B"/>
</linearGradient>
<path class="st0" d="M40.1,17.2c-0.9-3.6-2.2-11.6,1.4-13.7c3.7-2.1,9.9,3.1,12.6,5.6c-2,2.1-3.8,4.4-5.5,6.7
	C45.8,16.1,43,16.5,40.1,17.2z M52.6,15.6c1.2-1.6,2.4-3,3.6-4.3c1.2,1.3,2.4,2.7,3.6,4.3C57.4,15.4,55,15.4,52.6,15.6z M50.3,18.7
	c3.9-0.3,7.8-0.3,11.8,0c2,2.9,3.8,6,5.4,9.2c0.2,0.3,0.3,0.7,0.5,1l-0.5,1c-1.6,3.2-3.4,6.3-5.4,9.2c-3.9,0.3-7.8,0.3-11.8,0
	c-2.2-3.2-4.2-6.7-5.9-10.2C46.1,25.4,48.1,22,50.3,18.7z M67.5,36.3c0.7-1.2,1.4-2.5,2.1-3.8c0.8,1.8,1.4,3.6,1.9,5.3
	c-1.3,0.3-2.6,0.6-4,0.8c-0.5,0.1-1,0.1-1.6,0.2C66.4,37.9,67,37.1,67.5,36.3z M40.9,20.1c1.7-0.4,3.6-0.7,5.5-1
	c-1.3,2-2.5,4.1-3.6,6.3C42.1,23.6,41.4,21.8,40.9,20.1z M58.3,48.7c2-2.1,3.8-4.4,5.5-6.7c1.3-0.1,2.5-0.3,3.8-0.4
	c1.7-0.2,3.3-0.6,4.8-0.9c0.9,3.6,2.3,11.6-1.4,13.7c-0.9,0.5-2.1,0.6-3.4,0.3c-1.9-0.5-4.3-1.8-6.7-3.8
	C59.9,50.2,59.1,49.5,58.3,48.7z M42.8,32.5c1.1,2.1,2.3,4.2,3.6,6.3c-1.9-0.2-3.8-0.6-5.5-1C41.4,36.1,42,34.2,42.8,32.5z
	 M40.1,40.6c2.8,0.7,5.7,1.1,8.6,1.4c1.6,2.4,3.5,4.6,5.5,6.7c-2.7,2.5-8.9,7.7-12.6,5.6C37.9,52.3,39.2,44.3,40.1,40.6z M26.8,28.9
	c0-4.2,7.6-7.1,11.2-8.1c0.8,2.8,1.9,5.5,3.1,8.1c-1.2,2.6-2.3,5.3-3.1,8.1C34.4,36,26.8,33.1,26.8,28.9z M37.2,39.9
	C36,45,34.8,53.9,40,57c5.2,3,12.4-2.5,16.2-6.1c0.9,0.8,1.8,1.6,2.7,2.4c3.1,2.4,6,4,8.6,4.5c1.6,0.4,3.4,0.1,4.9-0.7
	c5.2-3,4-12,2.8-17.1c5-1.5,13.4-4.9,13.4-11c0-6-8.4-9.5-13.4-11c1.2-5.1,2.4-14.1-2.8-17.1C71,0,69.2-0.2,67.5,0.2
	C63.3,0.9,58.9,4.4,56.3,7C52.5,3.4,45.3-2.1,40,0.9c-5.2,3-4,12-2.8,17.1c-5,1.5-13.4,4.9-13.4,11C23.8,34.9,32.2,38.4,37.2,39.9z
	 M67.5,21.6c-0.5-0.8-1-1.6-1.5-2.5c0.5,0,1,0.1,1.5,0.2c1.4,0.2,2.7,0.5,4,0.8c-0.5,1.7-1.2,3.5-1.9,5.3
	C68.9,24.1,68.2,22.9,67.5,21.6z M58.3,9.1c2-1.9,5.8-5.1,9.2-5.9c1.1-0.3,2.3-0.2,3.4,0.3c3.6,2.1,2.3,10.1,1.4,13.7
	c-1.5-0.3-3.1-0.7-4.8-0.9c-1.2-0.2-2.4-0.3-3.8-0.4C62,13.5,60.3,11.2,58.3,9.1z M74.4,37c-0.8-2.8-1.9-5.5-3.1-8.1
	c1.2-2.6,2.3-5.3,3.1-8c3.6,1,11.2,3.9,11.2,8.1C85.6,33.2,78,35.9,74.4,37z M52.6,42.2c2.4,0.1,4.8,0.1,7.2,0
	c-1.2,1.6-2.4,3-3.6,4.3C55,45.3,53.8,43.8,52.6,42.2z"/>
<linearGradient id="SVGID_2_" gradientUnits="userSpaceOnUse" x1="53.8844" y1="125.5805" x2="58.4675" y2="117.6545" gradientTransform="matrix(1 0 0 -1 8.410366e-06 150.5235)">
	<stop  offset="0" style="stop-color:#99FF00"/>
	<stop  offset="1" style="stop-color:#00DD3B"/>
</linearGradient>
<path class="st1" d="M56.2,33.5c2.5,0,4.6-2.1,4.6-4.6s-2.1-4.6-4.6-4.6c-2.5,0-4.6,2.1-4.6,4.6C51.6,31.4,53.7,33.5,56.2,33.5z"/>
<path class="st2" d="M16.6,89V72.4h7.6c2.1,0,3.7,0.6,4.8,1.7c1,1,1.5,2.4,1.4,3.9c0,2.5-1.2,4.2-3.6,5.1L31,89h-4.3l-3.6-5.3h-2.8
	V89H16.6z M20.3,80.5H24c0.8,0,1.5-0.2,2.1-0.7c0.5-0.4,0.8-1.1,0.8-1.7c0-0.7-0.2-1.3-0.8-1.7c-0.6-0.4-1.4-0.7-2.1-0.6h-3.7V80.5z
	"/>
<path class="st2" d="M33.8,89V72.4h12.5v3.2h-8.9V79h7.8v3.2h-7.8v3.4h9V89H33.8z"/>
<path class="st2" d="M48.4,89l7.1-16.8H59L66.1,89h-3.8l-1.5-3.7h-7L52.3,89H48.4z M55,82.1h4.4l-2.2-5.4L55,82.1z"/>
<path class="st2" d="M75.6,89.3c-2.3,0-4.5-0.8-6.1-2.5c-3.3-3.6-3.1-9.1,0.5-12.4c2.5-2.3,6.2-3,9.4-1.6c1,0.5,2,1.2,2.8,2L80,77.4
	c-0.6-0.6-1.3-1-2-1.4c-0.7-0.3-1.5-0.5-2.3-0.4c-1.3,0-2.6,0.5-3.5,1.5c-1.8,2.1-1.8,5.3,0,7.4c0.9,1,2.2,1.6,3.5,1.5
	c0.8,0,1.6-0.1,2.3-0.5c0.8-0.4,1.5-0.9,2.1-1.5l2.3,2.5c-0.8,0.9-1.8,1.6-2.9,2.1C78.2,89.2,76.9,89.4,75.6,89.3z"/>
<path class="st2" d="M89.9,89V75.8h-5.1v-3.4h13.8v3.4h-5.1V89H89.9z"/>
<path class="st2" d="M22.6,120.8c-2.6,0-5.1-0.9-7-2.7l2.2-2.6c1.6,1.4,3.3,2,5,2c0.6,0,1.2-0.1,1.7-0.4c0.4-0.2,0.7-0.7,0.7-1.2
	s-0.2-0.9-0.7-1.1c-0.8-0.4-1.7-0.8-2.7-0.9c-0.8-0.2-1.6-0.4-2.3-0.7c-0.6-0.2-1.1-0.6-1.6-0.9c-0.5-0.4-0.9-0.8-1.2-1.4
	c-0.2-0.7-0.4-1.4-0.4-2.1c0-1.4,0.6-2.7,1.6-3.6c1.2-0.9,2.7-1.5,4.2-1.4c2.3,0,4.4,0.7,6.2,2.1l-2,2.7c-1.6-1.1-3-1.6-4.3-1.6
	c-0.6,0-1.1,0.1-1.6,0.4c-0.6,0.4-0.8,1.3-0.3,1.9c0.1,0.1,0.3,0.3,0.4,0.4c0.9,0.4,1.9,0.8,2.9,1c1.8,0.5,3.1,1.1,4,1.8
	c0.9,0.8,1.4,2,1.3,3.2c0,1.5-0.6,2.8-1.7,3.8C25.9,120.4,24.4,120.8,22.6,120.8z M38.7,120.8c-2.3,0-4-0.6-5.3-1.9
	c-1.3-1.3-1.9-3.1-1.9-5.5v-9.5h3.7v9.4c0,1.3,0.3,2.4,0.9,3.1c0.7,0.8,1.6,1.1,2.7,1c1,0,1.9-0.3,2.6-1c0.7-0.8,1-1.9,0.9-3v-9.5
	H46v9.4c0,2.5-0.7,4.3-1.9,5.6C42.9,120.2,41.1,120.8,38.7,120.8z M49.8,120.5V104h3.9l4.4,7l4.4-7h3.9v16.6h-3.7v-10.9l-4.7,7.1h0
	l-4.7-7v10.8L49.8,120.5L49.8,120.5z M70.4,120.5V104h3.9l4.4,7l4.4-7H87v16.6h-3.6v-10.9l-4.7,7.1h-0.1l-4.6-7v10.8L70.4,120.5
	L70.4,120.5z M91.2,120.5V104h3.7v16.6L91.2,120.5L91.2,120.5z M102.8,120.5v-13.2h-5v-3.4h13.8v3.4h-5v13.2H102.8z"/>
<path class="st3" d="M103.3,78.6v-1.8l3.4-2.8c0.5-0.4,1-0.8,1.4-1.3c0.2-0.3,0.4-0.7,0.4-1.1c0-0.4-0.1-0.7-0.4-1
	c-0.3-0.2-0.6-0.4-1-0.3c-0.4,0-0.7,0.1-1,0.3c-0.4,0.3-0.8,0.7-1.1,1l-1.6-1.3c0.4-0.7,1-1.2,1.6-1.6c0.7-0.4,1.4-0.5,2.2-0.5
	c0.9,0,1.8,0.3,2.5,0.9c0.7,0.6,1,1.4,1,2.3c0,0.5-0.1,1-0.3,1.5c-0.2,0.4-0.5,0.8-0.8,1.2c-0.5,0.5-1,0.9-1.6,1.3l-1.6,1.3h4.5v1.9
	H103.3z"/>
<path class="st4" d="M111.3,96.3H8L5.6,116L3.1,96.3H0l3.2,26.1h4.7l2.9-23.2h100.5V96.3z"/>
</svg>
