<?xml version="1.0" encoding="utf-8"?>
<!-- Generator: Adobe Illustrator 22.0.0, SVG Export Plug-In . SVG Version: 6.00 Build 0)  -->
<svg version="1.1" id="Capa_1" xmlns="http://www.w3.org/2000/svg" xmlns:xlink="http://www.w3.org/1999/xlink" x="0px" y="0px"
	 viewBox="0 0 24 24" style="enable-background:new 0 0 24 24;" xml:space="preserve">
<style type="text/css">
	.st0{fill:#686868;}
	.st1{filter:url(#Adobe_OpacityMaskFilter);}
	.st2{fill:#FFFFFF;}
	.st3{mask:url(#b_1_);}
</style>
<g>
	<g transform="translate(2 3)">
		<g>
			<path id="a_1_" class="st0" d="M17.7,0.6c0.5,0,0.9,0.2,1.3,0.5c0.3,0.3,0.5,0.8,0.5,1.3v13.1c0,0.5-0.2,0.9-0.5,1.3
				c-0.3,0.3-0.8,0.5-1.3,0.5H2.3c-0.5,0-0.9-0.2-1.3-0.5c-0.3-0.3-0.5-0.8-0.5-1.3V2.3c0-0.5,0.2-0.9,0.5-1.3
				c0.3-0.3,0.8-0.5,1.3-0.5L17.7,0.6L17.7,0.6z M17.7,15.1V3.5H2.3v11.7c0,0.1,0,0.1,0.1,0.1c0,0.1,0.1,0.1,0.1,0.1h14.9
				C17.6,15.4,17.7,15.3,17.7,15.1z M2,8h16v2H2V8z"/>
		</g>
		<defs>
			<filter id="Adobe_OpacityMaskFilter" filterUnits="userSpaceOnUse" x="-2" y="-3" width="24" height="24">
				<feColorMatrix  type="matrix" values="1 0 0 0 0  0 1 0 0 0  0 0 1 0 0  0 0 0 1 0"/>
			</filter>
		</defs>
		<mask maskUnits="userSpaceOnUse" x="-2" y="-3" width="24" height="24" id="b_1_">
			<g class="st1">
				<path id="a_2_" class="st2" d="M17.7,0.6c0.5,0,0.9,0.2,1.3,0.5c0.3,0.3,0.5,0.8,0.5,1.3v13.1c0,0.5-0.2,0.9-0.5,1.3
					c-0.3,0.3-0.8,0.5-1.3,0.5H2.3c-0.5,0-0.9-0.2-1.3-0.5c-0.3-0.3-0.5-0.8-0.5-1.3V2.3c0-0.5,0.2-0.9,0.5-1.3
					c0.3-0.3,0.8-0.5,1.3-0.5L17.7,0.6L17.7,0.6z M17.7,15.1V3.5H2.3v11.7c0,0.1,0,0.1,0.1,0.1c0,0.1,0.1,0.1,0.1,0.1h14.9
					C17.6,15.4,17.7,15.3,17.7,15.1z M2,8h16v2H2V8z"/>
			</g>
		</mask>
		<g class="st3">
			<path class="st0" d="M-2-3h24v24H-2V-3z"/>
		</g>
	</g>
</g>
</svg>
