<?xml version="1.0" encoding="utf-8"?>
<!-- Generator: Adobe Illustrator 22.0.0, SVG Export Plug-In . SVG Version: 6.00 Build 0)  -->
<svg version="1.1" id="Capa_1" xmlns="http://www.w3.org/2000/svg" xmlns:xlink="http://www.w3.org/1999/xlink" x="0px" y="0px"
	 viewBox="0 0 24 24" style="enable-background:new 0 0 24 24;" xml:space="preserve">
<style type="text/css">
	.st0{filter:url(#Adobe_OpacityMaskFilter);}
	.st1{fill:#FFFFFF;}
	.st2{mask:url(#b_1_);}
	.st3{fill:#686868;}
</style>
<g>
	<g transform="translate(3 6)">
		<g>
			<path id="a_1_" d="M3,7V5h12v2C15,7,3,7,3,7z M0,0h18v2H0V0z M7,12v-2h4v2H7z"/>
		</g>
		<defs>
			<filter id="Adobe_OpacityMaskFilter" filterUnits="userSpaceOnUse" x="-3" y="-6" width="24" height="24">
				<feColorMatrix  type="matrix" values="1 0 0 0 0  0 1 0 0 0  0 0 1 0 0  0 0 0 1 0"/>
			</filter>
		</defs>
		<mask maskUnits="userSpaceOnUse" x="-3" y="-6" width="24" height="24" id="b_1_">
			<g class="st0">
				<path id="a_2_" class="st1" d="M3,7V5h12v2C15,7,3,7,3,7z M0,0h18v2H0V0z M7,12v-2h4v2H7z"/>
			</g>
		</mask>
		<g class="st2">
			<path class="st3" d="M-3-6h24v24H-3V-6z"/>
		</g>
	</g>
</g>
</svg>
