<?xml version="1.0" encoding="UTF-8"?>
<svg width="32px" height="32px" viewBox="0 0 32 32" version="1.1" xmlns="http://www.w3.org/2000/svg" xmlns:xlink="http://www.w3.org/1999/xlink">
    <!-- Generator: Sketch 51.3 (57544) - http://www.bohemiancoding.com/sketch -->
    <title>cut</title>
    <desc>Created with Sketch.</desc>
    <defs></defs>
    <g id="cut" stroke="none" stroke-width="1" fill="none" fill-rule="evenodd">
        <g transform="translate(2.000000, 2.000000)" fill="#000000" fill-rule="nonzero" id="Shape">
            <path d="M10.696,7.896 C11.018,7.196 11.2,6.426 11.2,5.6 C11.2,2.506 8.694,1.77635684e-15 5.6,1.77635684e-15 C2.506,1.77635684e-15 0,2.506 0,5.6 C0,8.694 2.506,11.2 5.6,11.2 C6.426,11.2 7.196,11.018 7.896,10.696 L11.2,14 L7.896,17.304 C7.196,16.982 6.426,16.8 5.6,16.8 C2.506,16.8 0,19.306 0,22.4 C0,25.494 2.506,28 5.6,28 C8.694,28 11.2,25.494 11.2,22.4 C11.2,21.574 11.018,20.804 10.696,20.104 L14,16.8 L23.8,26.6 L28,26.6 L28,25.2 L10.696,7.896 Z M5.6,8.4 C4.06,8.4 2.8,7.154 2.8,5.6 C2.8,4.046 4.06,2.8 5.6,2.8 C7.14,2.8 8.4,4.046 8.4,5.6 C8.4,7.154 7.14,8.4 5.6,8.4 Z M5.6,25.2 C4.06,25.2 2.8,23.954 2.8,22.4 C2.8,20.846 4.06,19.6 5.6,19.6 C7.14,19.6 8.4,20.846 8.4,22.4 C8.4,23.954 7.14,25.2 5.6,25.2 Z M14,14.7 C13.608,14.7 13.3,14.392 13.3,14 C13.3,13.608 13.608,13.3 14,13.3 C14.392,13.3 14.7,13.608 14.7,14 C14.7,14.392 14.392,14.7 14,14.7 Z M17.1535534,11.5535534 L25.2071068,3.5 L24.5,2.79289322 L16.4464466,10.8464466 L15.4,9.8 L23.8,1.4 L28,1.4 L28,2.8 L18.2,12.6 L17.1535534,11.5535534 Z"></path>
        </g>
    </g>
</svg>