<?xml version="1.0" encoding="UTF-8" standalone="no"?>
<!DOCTYPE svg PUBLIC "-//W3C//DTD SVG 1.1//EN" "http://www.w3.org/Graphics/SVG/1.1/DTD/svg11.dtd">
<svg width="100%" height="100%" viewBox="0 0 16 16" version="1.1" xmlns="http://www.w3.org/2000/svg" xmlns:xlink="http://www.w3.org/1999/xlink" xml:space="preserve" xmlns:serif="http://www.serif.com/" style="fill-rule:evenodd;clip-rule:evenodd;stroke-linejoin:round;stroke-miterlimit:1.41421;">
    <g transform="matrix(0.5,0,0,0.5,0,0)">
        <path d="M26,8.184C25.934,10.842 22.442,13.338 19.758,16.158C19.59,16.354 19.506,16.582 19.5,16.84L19.5,25L12.5,25C12.5,22.26 12.524,19.518 12.456,16.778C12.438,16.544 12.354,16.336 12.2,16.158C9.484,13.304 6.06,10.61 6,8.184L6,6C6,6 6,6 6.001,6C12.185,3.466 19.102,3.377 25.349,5.753C25.758,5.908 26,6 26,6L26,8.184ZM9,8C9,8.304 9.06,8.612 9.258,8.842C11.974,11.696 14.94,14.39 15,16.816L15,18L17,18L17,16.816C17.066,14.158 20.316,11.662 23,8.842C23.198,8.612 23.258,8.304 23.258,8C23.258,8 22.996,8.075 22.569,8.198C18.126,9.476 13.404,9.407 9.001,8C9,8 9,8 9,8Z" style="fill-rule:nonzero;"/>
    </g>
</svg>
