<?xml version="1.0" encoding="UTF-8"?>
<svg width="32px" height="32px" viewBox="0 0 32 32" version="1.1" xmlns="http://www.w3.org/2000/svg" xmlns:xlink="http://www.w3.org/1999/xlink">
    <!-- Generator: Sketch 51.3 (57544) - http://www.bohemiancoding.com/sketch -->
    <title>group</title>
    <desc>Created with Sketch.</desc>
    <defs></defs>
    <g id="group" stroke="none" stroke-width="1" fill="none" fill-rule="evenodd" opacity="0.900000036">
        <path d="M17.5,18.5 L17.5,23.5 L23.5,23.5 L23.5,18.5 L17.5,18.5 Z M15.5,16.5 L23.5,16.5 C24.6045695,16.5 25.5,17.3954305 25.5,18.5 L25.5,23.5 C25.5,24.6045695 24.6045695,25.5 23.5,25.5 L15.5,25.5 L15.5,16.5 Z" id="Rectangle-5-Copy" fill="#000000" fill-rule="nonzero" transform="translate(20.500000, 21.000000) rotate(90.000000) translate(-20.500000, -21.000000) "></path>
        <path d="M17.5,6.5 L17.5,11.5 L23.5,11.5 L23.5,6.5 L17.5,6.5 Z M15.5,4.5 L23.5,4.5 C24.6045695,4.5 25.5,5.3954305 25.5,6.5 L25.5,11.5 C25.5,12.6045695 24.6045695,13.5 23.5,13.5 L15.5,13.5 L15.5,4.5 Z" id="Rectangle-5-Copy-2" fill="#000000" fill-rule="nonzero" transform="translate(20.500000, 9.000000) rotate(90.000000) translate(-20.500000, -9.000000) "></path>
        <path d="M-1.5,13.5 L-1.5,18.5 L18.5,18.5 L18.5,13.5 L-1.5,13.5 Z M-3.5,11.5 L18.5,11.5 C19.6045695,11.5 20.5,12.3954305 20.5,13.5 L20.5,18.5 C20.5,19.6045695 19.6045695,20.5 18.5,20.5 L-1.5,20.5 C-2.6045695,20.5 -3.5,19.6045695 -3.5,18.5 L-3.5,11.5 Z" id="Rectangle-5-Copy-3" fill="#000000" fill-rule="nonzero" transform="translate(8.500000, 16.000000) rotate(90.000000) translate(-8.500000, -16.000000) "></path>
    </g>
</svg>