<?xml version="1.0" encoding="UTF-8"?>
<svg width="32px" height="32px" viewBox="0 0 32 32" version="1.1" xmlns="http://www.w3.org/2000/svg" xmlns:xlink="http://www.w3.org/1999/xlink">
    <!-- Generator: Sketch 51.3 (57544) - http://www.bohemiancoding.com/sketch -->
    <title>indeterminate</title>
    <desc>Created with Sketch.</desc>
    <defs></defs>
    <g id="indeterminate" stroke="none" stroke-width="1" fill="none" fill-rule="evenodd">
        <path d="M16.5,21 C20.2567213,21 23.6803061,19.0852072 25.6815633,16 C23.6803061,12.9147928 20.2567213,11 16.5,11 C12.7432787,11 9.31969392,12.9147928 7.31843672,16 C9.31969392,19.0852072 12.7432787,21 16.5,21 Z M5.28840356,15.499274 C7.58610066,11.5100148 11.825863,9 16.5,9 C21.174137,9 25.4138993,11.5100148 27.7115964,15.499274 L28,16 L27.7115964,16.500726 C25.4138993,20.4899852 21.174137,23 16.5,23 C11.825863,23 7.58610066,20.4899852 5.28840356,16.500726 L5,16 L5.28840356,15.499274 Z M16.5,21 C19.2494996,21 21.4784094,18.7614237 21.4784094,16 C21.4784094,13.2385763 19.2494996,11 16.5,11 C13.7505004,11 11.5215906,13.2385763 11.5215906,16 C11.5215906,18.7614237 13.7505004,21 16.5,21 Z" id="Combined-Shape" fill="#000000" fill-rule="nonzero"></path>
    </g>
</svg>