<?xml version="1.0" encoding="UTF-8"?>
<svg width="32px" height="32px" viewBox="0 0 32 32" version="1.1" xmlns="http://www.w3.org/2000/svg" xmlns:xlink="http://www.w3.org/1999/xlink">
    <!-- Generator: Sketch 51.3 (57544) - http://www.bohemiancoding.com/sketch -->
    <title>linked</title>
    <desc>Created with Sketch.</desc>
    <defs></defs>
    <g id="linked" stroke="none" stroke-width="1" fill="none" fill-rule="evenodd">
        <path d="M7.53553391,21.7781746 C7.14500961,22.1686989 7.14500961,22.8018639 7.53553391,23.1923882 L8.94974747,24.6066017 C9.34027176,24.997126 9.97343674,24.997126 10.363961,24.6066017 L14.6066017,20.363961 C14.997126,19.9734367 14.997126,19.3402718 14.6066017,18.9497475 L13.1923882,17.5355339 C12.8018639,17.1450096 12.1686989,17.1450096 11.7781746,17.5355339 L7.53553391,21.7781746 Z M6.12132034,20.363961 L10.363961,16.1213203 C11.5355339,14.9497475 13.4350288,14.9497475 14.6066017,16.1213203 L16.0208153,17.5355339 C17.1923882,18.7071068 17.1923882,20.6066017 16.0208153,21.7781746 L11.7781746,26.0208153 C10.6066017,27.1923882 8.70710678,27.1923882 7.53553391,26.0208153 L6.12132034,24.6066017 C4.94974747,23.4350288 4.94974747,21.5355339 6.12132034,20.363961 Z" id="Rectangle-Copy" fill="#000000" fill-rule="nonzero"></path>
        <path d="M17.2928932,12.5355339 C16.9023689,12.9260582 16.9023689,13.5592232 17.2928932,13.9497475 L18.7071068,15.363961 C19.0976311,15.7544853 19.7307961,15.7544853 20.1213203,15.363961 L24.363961,11.1213203 C24.7544853,10.7307961 24.7544853,10.0976311 24.363961,9.70710678 L22.9497475,8.29289322 C22.5592232,7.90236893 21.9260582,7.90236893 21.5355339,8.29289322 L17.2928932,12.5355339 Z M15.8786797,11.1213203 L20.1213203,6.87867966 C21.2928932,5.70710678 23.1923882,5.70710678 24.363961,6.87867966 L25.7781746,8.29289322 C26.9497475,9.46446609 26.9497475,11.363961 25.7781746,12.5355339 L21.5355339,16.7781746 C20.363961,17.9497475 18.4644661,17.9497475 17.2928932,16.7781746 L15.8786797,15.363961 C14.7071068,14.1923882 14.7071068,12.2928932 15.8786797,11.1213203 Z" id="Rectangle-Copy-2" fill="#000000" fill-rule="nonzero"></path>
        <polygon id="Path-2" fill="#000000" fill-rule="nonzero" points="16 19 19 16 16 13 13 16"></polygon>
    </g>
</svg>