<svg id="svg" version="1.1" width="500" height="500" xmlns="http://www.w3.org/2000/svg" xmlns:xlink="http://www.w3.org/1999/xlink" style="display: block;"><g id="svgg"><path id="path0" d="M25.600 0.800 C 25.600 1.909,374.115 1.909,374.800 0.800 C 375.129 0.268,316.808 0.000,200.447 0.000 C 84.416 0.000,25.600 0.269,25.600 0.800 M20.727 2.462 C 19.907 2.981,20.199 3.179,21.800 3.188 C 24.189 3.201,24.619 2.809,22.927 2.160 C 22.338 1.933,21.348 2.069,20.727 2.462 M385.416 7.200 C 386.360 8.080,387.384 8.800,387.691 8.800 C 387.997 8.800,387.596 8.080,386.800 7.200 C 386.004 6.320,384.980 5.600,384.525 5.600 C 384.070 5.600,384.471 6.320,385.416 7.200 M396.800 21.553 C 396.800 22.459,397.160 23.200,397.600 23.200 C 398.040 23.200,398.400 22.681,398.400 22.047 C 398.400 21.413,398.040 20.672,397.600 20.400 C 397.160 20.128,396.800 20.647,396.800 21.553 M0.000 200.447 C 0.000 316.808,0.268 375.129,0.800 374.800 C 1.909 374.115,1.909 25.600,0.800 25.600 C 0.269 25.600,0.000 84.416,0.000 200.447 M398.400 199.953 C 398.400 315.325,398.671 374.473,399.200 374.800 C 399.732 375.129,400.000 316.808,400.000 200.447 C 400.000 84.416,399.731 25.600,399.200 25.600 C 398.669 25.600,398.400 84.251,398.400 199.953 M388.393 200.000 C 388.393 292.180,388.486 329.890,388.600 283.800 C 388.714 237.710,388.714 162.290,388.600 116.200 C 388.486 70.110,388.393 107.820,388.393 200.000 M125.018 63.200 C 125.018 65.180,125.174 65.990,125.365 65.000 C 125.555 64.010,125.555 62.390,125.365 61.400 C 125.174 60.410,125.018 61.220,125.018 63.200 M129.829 94.800 C 129.835 97.000,129.990 97.805,130.174 96.589 C 130.358 95.373,130.353 93.573,130.163 92.589 C 129.973 91.605,129.823 92.600,129.829 94.800 M157.002 95.600 C 157.011 97.360,157.174 97.986,157.366 96.991 C 157.557 95.996,157.550 94.556,157.350 93.791 C 157.149 93.026,156.993 93.840,157.002 95.600 M157.829 105.200 C 157.835 107.400,157.990 108.205,158.174 106.989 C 158.358 105.773,158.353 103.973,158.163 102.989 C 157.973 102.005,157.823 103.000,157.829 105.200 M131.418 116.800 C 131.418 118.780,131.574 119.590,131.765 118.600 C 131.955 117.610,131.955 115.990,131.765 115.000 C 131.574 114.010,131.418 114.820,131.418 116.800 M158.602 126.000 C 158.611 127.760,158.774 128.386,158.966 127.391 C 159.157 126.396,159.150 124.956,158.950 124.191 C 158.749 123.426,158.593 124.240,158.602 126.000 M159.386 135.200 C 159.386 136.740,159.550 137.370,159.751 136.600 C 159.953 135.830,159.953 134.570,159.751 133.800 C 159.550 133.030,159.386 133.660,159.386 135.200 M124.202 162.000 C 124.211 163.760,124.374 164.386,124.566 163.391 C 124.757 162.396,124.750 160.956,124.550 160.191 C 124.349 159.426,124.193 160.240,124.202 162.000 M135.386 178.400 C 135.386 179.940,135.550 180.570,135.751 179.800 C 135.953 179.030,135.953 177.770,135.751 177.000 C 135.550 176.230,135.386 176.860,135.386 178.400 M125.786 180.800 C 125.786 182.340,125.950 182.970,126.151 182.200 C 126.353 181.430,126.353 180.170,126.151 179.400 C 125.950 178.630,125.786 179.260,125.786 180.800 M163.440 188.800 C 163.440 191.220,163.590 192.210,163.773 191.000 C 163.956 189.790,163.956 187.810,163.773 186.600 C 163.590 185.390,163.440 186.380,163.440 188.800 M137.002 199.600 C 137.011 201.360,137.174 201.986,137.366 200.991 C 137.557 199.996,137.550 198.556,137.350 197.791 C 137.149 197.026,136.993 197.840,137.002 199.600 M113.162 201.000 L 110.000 204.400 113.400 201.238 C 115.270 199.498,116.800 197.968,116.800 197.838 C 116.800 197.232,116.103 197.838,113.162 201.000 M232.200 198.998 C 237.810 199.135,246.990 199.135,252.600 198.998 C 258.210 198.860,253.620 198.748,242.400 198.748 C 231.180 198.748,226.590 198.860,232.200 198.998 M138.629 221.200 C 138.635 223.400,138.790 224.205,138.974 222.989 C 139.158 221.773,139.153 219.973,138.963 218.989 C 138.773 218.005,138.623 219.000,138.629 221.200 M90.692 257.200 C 90.694 261.600,90.829 263.298,90.991 260.973 C 91.153 258.648,91.151 255.048,90.987 252.973 C 90.823 250.898,90.690 252.800,90.692 257.200 M61.874 257.200 C 61.877 260.720,62.018 262.060,62.187 260.179 C 62.356 258.297,62.353 255.417,62.182 253.779 C 62.010 252.140,61.871 253.680,61.874 257.200 M165.800 336.583 C 167.450 336.755,170.150 336.755,171.800 336.583 C 173.450 336.410,172.100 336.269,168.800 336.269 C 165.500 336.269,164.150 336.410,165.800 336.583 M396.800 378.447 C 396.800 379.353,397.160 379.872,397.600 379.600 C 398.040 379.328,398.400 378.587,398.400 377.953 C 398.400 377.319,398.040 376.800,397.600 376.800 C 397.160 376.800,396.800 377.541,396.800 378.447 M116.200 388.600 C 162.290 388.714,237.710 388.714,283.800 388.600 C 329.890 388.486,292.180 388.393,200.000 388.393 C 107.820 388.393,70.110 388.486,116.200 388.600 M385.260 392.903 C 384.413 393.726,384.099 394.400,384.562 394.400 C 385.485 394.400,387.619 392.130,387.114 391.684 C 386.941 391.531,386.107 392.080,385.260 392.903 M25.600 399.200 C 25.600 399.731,84.416 400.000,200.447 400.000 C 316.808 400.000,375.129 399.732,374.800 399.200 C 374.115 398.091,25.600 398.091,25.600 399.200 " stroke="none" fill="#979797" fill-rule="evenodd"></path><path id="path1" d="M0.000 11.600 C 0.000 18.800,0.303 23.200,0.800 23.200 C 1.240 23.200,1.600 22.300,1.600 21.200 C 1.600 20.100,1.960 19.200,2.400 19.200 C 2.840 19.200,3.200 18.480,3.200 17.600 C 3.200 16.720,3.560 16.000,4.000 16.000 C 4.440 16.000,4.800 15.625,4.800 15.166 C 4.800 13.498,13.311 4.800,14.943 4.800 C 15.524 4.800,16.000 4.440,16.000 4.000 C 16.000 3.560,16.720 3.200,17.600 3.200 C 18.480 3.200,19.200 2.840,19.200 2.400 C 19.200 1.960,20.100 1.600,21.200 1.600 C 22.300 1.600,23.200 1.240,23.200 0.800 C 23.200 0.303,18.800 0.000,11.600 0.000 L 0.000 0.000 0.000 11.600 M376.800 0.800 C 376.800 1.240,377.486 1.600,378.324 1.600 C 384.281 1.600,398.400 15.404,398.400 21.228 C 398.400 21.821,398.760 22.528,399.200 22.800 C 399.719 23.121,400.000 19.208,400.000 11.647 L 400.000 0.000 388.400 0.000 C 381.200 0.000,376.800 0.303,376.800 0.800 M25.200 3.200 C 24.928 3.640,23.647 4.000,22.353 4.000 C 21.059 4.000,20.000 4.360,20.000 4.800 C 20.000 5.240,19.483 5.600,18.851 5.600 C 17.282 5.600,6.759 15.964,6.057 18.200 C 5.746 19.190,5.156 20.000,4.746 20.000 C 4.336 20.000,4.000 21.059,4.000 22.353 C 4.000 23.647,3.640 24.928,3.200 25.200 C 2.671 25.527,2.400 84.659,2.400 200.000 C 2.400 315.341,2.671 374.473,3.200 374.800 C 3.640 375.072,4.000 376.353,4.000 377.647 C 4.000 378.941,4.278 380.000,4.618 380.000 C 4.958 380.000,5.929 381.287,6.777 382.861 C 8.571 386.192,17.156 394.400,18.846 394.400 C 19.481 394.400,20.000 394.719,20.000 395.109 C 20.000 395.499,21.170 396.104,22.600 396.454 C 26.593 397.429,374.546 397.774,375.516 396.804 C 375.958 396.362,377.148 396.000,378.160 396.000 C 379.172 396.000,380.000 395.728,380.000 395.395 C 380.000 395.063,380.990 394.347,382.200 393.804 C 385.999 392.101,394.400 383.426,394.400 381.207 C 394.400 380.543,394.760 380.000,395.200 380.000 C 395.640 380.000,396.000 379.172,396.000 378.160 C 396.000 377.148,396.362 375.958,396.804 375.516 C 397.774 374.546,397.429 26.593,396.454 22.600 C 396.104 21.170,395.499 20.000,395.109 20.000 C 394.719 20.000,394.400 19.356,394.400 18.569 C 394.400 16.897,382.866 5.600,381.159 5.600 C 380.521 5.600,380.000 5.240,380.000 4.800 C 380.000 4.360,378.941 4.000,377.647 4.000 C 376.353 4.000,375.072 3.640,374.800 3.200 C 374.115 2.092,25.885 2.092,25.200 3.200 M371.143 11.312 C 380.504 14.301,388.000 21.306,388.000 27.064 C 388.000 27.843,388.362 28.842,388.804 29.284 C 390.870 31.350,389.185 376.000,387.109 376.000 C 386.719 376.000,386.400 376.615,386.400 377.367 C 386.400 379.009,378.857 386.400,377.181 386.400 C 376.532 386.400,376.000 386.719,376.000 387.109 C 376.000 389.310,36.613 390.894,29.200 388.728 C 18.915 385.722,14.619 381.500,11.312 371.143 C 10.006 367.052,10.006 32.948,11.312 28.857 C 14.532 18.774,18.317 14.908,28.400 11.404 C 31.960 10.167,367.275 10.077,371.143 11.312 M148.400 35.200 C 148.128 35.640,147.274 36.000,146.503 36.000 C 132.419 36.000,120.594 64.912,129.652 77.200 C 129.977 77.640,130.467 82.680,130.742 88.400 C 131.420 102.501,132.344 116.450,133.898 136.000 C 135.111 151.272,135.631 158.548,137.671 188.800 C 138.101 195.180,138.711 205.693,139.026 212.163 C 139.342 218.632,139.975 224.300,140.434 224.757 C 140.990 225.311,158.747 225.657,193.627 225.794 L 245.986 226.000 247.729 229.200 C 248.687 230.960,249.500 233.210,249.536 234.200 C 249.571 235.190,249.960 236.000,250.400 236.000 C 250.840 236.000,251.200 236.900,251.200 238.000 C 251.200 239.100,251.560 240.000,252.000 240.000 C 252.440 240.000,252.800 240.530,252.800 241.178 C 252.800 241.826,253.737 244.436,254.883 246.978 C 256.958 251.584,258.056 254.163,259.235 257.200 C 259.576 258.080,260.573 260.420,261.449 262.400 C 264.066 268.315,265.358 271.445,266.401 274.400 C 266.945 275.940,268.102 278.820,268.972 280.800 C 271.443 286.419,272.909 289.860,273.575 291.600 C 274.662 294.447,275.792 297.107,277.917 301.822 C 279.063 304.364,280.000 306.799,280.000 307.233 C 280.000 307.667,280.318 308.647,280.707 309.411 C 281.095 310.175,281.779 311.700,282.225 312.800 C 283.595 316.175,285.736 321.043,287.305 324.350 C 288.127 326.083,288.800 327.973,288.800 328.550 C 288.800 330.148,290.055 329.819,300.800 325.407 C 301.900 324.955,303.610 324.274,304.600 323.893 C 306.356 323.217,308.309 322.417,313.200 320.372 C 314.520 319.820,316.680 318.929,318.000 318.391 C 319.320 317.853,321.025 317.095,321.789 316.707 C 322.553 316.318,323.903 316.000,324.789 316.000 C 325.675 316.000,326.400 315.640,326.400 315.200 C 326.400 314.760,326.930 314.400,327.578 314.400 C 328.623 314.400,335.624 311.514,339.389 309.531 C 340.153 309.129,341.334 308.800,342.014 308.800 C 344.578 308.800,344.434 306.515,341.412 299.200 C 340.958 298.100,340.304 296.480,339.960 295.600 C 337.169 288.466,337.327 288.665,334.800 289.105 C 328.942 290.127,327.200 290.628,327.200 291.291 C 327.200 291.681,326.475 292.000,325.589 292.000 C 324.703 292.000,323.353 292.323,322.589 292.718 C 321.825 293.113,319.580 294.050,317.600 294.800 C 315.620 295.550,313.375 296.487,312.611 296.882 C 311.847 297.277,310.569 297.600,309.771 297.600 C 308.973 297.600,307.948 297.972,307.494 298.426 C 307.039 298.881,306.130 299.046,305.474 298.794 C 304.327 298.354,303.195 296.049,299.286 286.200 C 298.893 285.210,297.586 282.240,296.382 279.600 C 294.287 275.007,293.315 272.712,291.976 269.200 C 291.640 268.320,290.428 265.520,289.283 262.978 C 288.137 260.436,287.200 258.182,287.200 257.969 C 287.200 257.757,286.444 255.876,285.520 253.791 C 284.596 251.706,283.554 249.280,283.203 248.400 C 282.852 247.520,281.628 244.720,280.483 242.178 C 279.337 239.636,278.400 237.026,278.400 236.378 C 278.400 235.730,278.040 235.200,277.600 235.200 C 277.160 235.200,276.800 234.655,276.800 233.989 C 276.800 233.323,276.469 232.153,276.065 231.389 C 274.995 229.364,272.160 222.850,270.660 218.966 C 269.944 217.115,269.054 215.258,268.680 214.840 C 268.306 214.422,268.000 213.252,268.000 212.240 C 268.000 211.228,267.640 210.400,267.200 210.400 C 266.760 210.400,266.400 209.927,266.400 209.350 C 266.400 208.772,265.499 206.432,264.398 204.150 L 262.396 200.000 213.245 200.000 C 186.212 200.000,163.936 199.730,163.742 199.400 C 163.548 199.070,163.257 194.480,163.095 189.200 L 162.800 179.600 198.243 179.200 L 233.685 178.800 233.843 166.208 L 234.000 153.615 196.800 153.408 L 159.600 153.200 159.012 145.600 C 158.179 134.823,156.665 106.385,156.521 98.814 C 156.411 92.997,156.543 92.404,158.000 92.172 C 161.961 91.541,170.114 87.357,173.153 84.395 C 175.837 81.778,179.200 76.991,179.200 75.787 C 179.200 75.171,179.457 74.409,179.772 74.095 C 180.087 73.780,180.791 71.830,181.337 69.761 C 184.667 57.142,177.514 42.294,165.600 37.095 C 159.516 34.439,149.549 33.341,148.400 35.200 M119.130 161.455 C 117.628 162.173,116.040 163.041,115.600 163.383 C 115.160 163.725,112.820 165.331,110.400 166.950 C 107.980 168.570,105.600 170.279,105.111 170.747 C 104.622 171.216,103.002 172.559,101.511 173.731 C 97.100 177.198,95.867 178.433,88.973 186.295 C 85.358 190.417,82.400 194.257,82.400 194.828 C 82.400 195.399,82.130 195.987,81.800 196.133 C 80.937 196.517,76.800 203.012,76.800 203.983 C 76.800 204.432,76.440 204.800,76.000 204.800 C 75.560 204.800,75.200 205.520,75.200 206.400 C 75.200 207.280,74.840 208.000,74.400 208.000 C 73.960 208.000,73.600 208.472,73.600 209.050 C 73.600 209.627,72.903 211.541,72.052 213.304 C 71.200 215.066,70.261 217.477,69.963 218.661 C 69.666 219.846,69.103 221.013,68.711 221.255 C 68.320 221.497,68.000 222.552,68.000 223.600 C 68.000 224.648,67.640 225.728,67.200 226.000 C 66.760 226.272,66.400 227.661,66.400 229.087 C 66.400 230.513,66.077 232.022,65.682 232.440 C 64.518 233.672,63.930 239.519,63.472 254.400 C 62.823 275.456,65.086 286.380,74.243 306.400 C 74.947 307.940,77.070 311.634,78.962 314.608 C 80.853 317.583,82.400 320.240,82.400 320.514 C 82.400 320.788,83.049 321.595,83.841 322.306 C 84.634 323.018,86.344 325.040,87.641 326.800 C 90.778 331.055,100.533 340.699,104.232 343.200 C 105.858 344.300,107.192 345.470,107.195 345.800 C 107.198 346.130,107.740 346.400,108.400 346.400 C 109.060 346.400,109.600 346.760,109.600 347.200 C 109.600 347.640,109.953 348.000,110.384 348.000 C 110.816 348.000,113.139 349.260,115.546 350.800 C 117.953 352.340,120.300 353.600,120.762 353.600 C 121.223 353.600,121.600 353.960,121.600 354.400 C 121.600 354.840,122.145 355.200,122.811 355.200 C 123.477 355.200,124.647 355.518,125.411 355.907 C 130.520 358.505,141.469 362.400,143.667 362.400 C 144.554 362.400,145.622 362.721,146.040 363.113 C 148.753 365.658,188.486 365.649,190.060 363.103 C 190.299 362.716,191.352 362.400,192.400 362.400 C 196.659 362.400,213.077 355.754,221.200 350.741 C 222.960 349.655,224.940 348.530,225.600 348.241 C 226.260 347.953,226.980 347.491,227.200 347.216 C 227.420 346.941,229.040 345.673,230.800 344.400 C 234.421 341.780,251.980 324.717,251.992 323.807 C 251.996 323.481,253.265 321.501,254.810 319.407 C 256.356 317.313,257.886 315.240,258.210 314.799 C 262.858 308.486,262.992 306.476,259.279 298.828 C 252.965 285.823,252.000 283.679,252.000 282.650 C 252.000 282.073,251.640 281.600,251.200 281.600 C 250.760 281.600,250.400 281.053,250.400 280.384 C 250.400 279.715,249.500 277.743,248.400 276.000 C 247.300 274.257,246.389 272.375,246.375 271.816 C 246.317 269.519,244.000 274.095,244.000 276.506 C 244.000 277.936,243.640 279.328,243.200 279.600 C 242.760 279.872,242.400 280.978,242.400 282.058 C 242.400 283.138,242.075 284.647,241.678 285.411 C 241.281 286.175,239.842 289.140,238.479 292.000 C 235.512 298.230,233.681 301.388,231.800 303.517 C 231.030 304.389,230.400 305.405,230.400 305.775 C 230.400 306.770,216.852 320.183,213.600 322.408 C 212.060 323.461,210.620 324.520,210.400 324.761 C 208.583 326.754,197.379 331.910,188.400 334.886 C 180.864 337.384,157.891 338.108,151.600 336.046 C 149.840 335.470,146.780 334.475,144.800 333.837 C 141.393 332.738,139.911 332.164,135.200 330.117 C 132.191 328.810,124.437 323.891,124.133 323.097 C 123.987 322.713,123.383 322.400,122.792 322.400 C 119.563 322.400,99.200 298.659,99.200 294.895 C 99.200 294.183,98.840 293.600,98.400 293.600 C 97.960 293.600,97.597 293.150,97.593 292.600 C 97.589 292.050,96.700 289.800,95.618 287.600 C 94.535 285.400,93.639 282.862,93.625 281.960 C 93.611 281.058,93.277 279.978,92.882 279.560 C 91.113 277.688,90.004 246.492,91.490 240.400 C 92.595 235.874,93.783 231.599,94.381 230.000 C 95.953 225.798,99.665 217.971,100.200 217.733 C 100.530 217.587,100.800 217.101,100.800 216.655 C 100.800 213.518,114.259 198.190,123.262 191.074 L 125.951 188.949 124.976 183.259 C 124.439 180.130,124.000 173.836,124.000 169.271 C 124.000 159.950,123.604 159.315,119.130 161.455 M0.000 388.400 L 0.000 400.000 11.647 400.000 C 19.208 400.000,23.121 399.719,22.800 399.200 C 22.528 398.760,21.821 398.400,21.228 398.400 C 15.443 398.400,1.600 384.242,1.600 378.324 C 1.600 377.486,1.240 376.800,0.800 376.800 C 0.303 376.800,0.000 381.200,0.000 388.400 M398.926 378.000 C 396.395 384.006,394.304 387.301,390.803 390.803 C 387.301 394.304,384.006 396.395,378.000 398.926 C 377.003 399.346,380.737 399.684,387.911 399.823 C 394.242 399.945,399.562 399.905,399.733 399.733 C 399.905 399.562,399.945 394.242,399.823 387.911 C 399.684 380.737,399.346 377.003,398.926 378.000 " stroke="none" fill="#ffffff" fill-rule="evenodd"></path><path id="path2" d="M23.838 15.068 C 19.288 17.667,17.668 19.337,14.911 24.276 L 12.800 28.057 12.800 199.986 L 12.800 371.915 14.706 375.500 C 17.109 380.019,19.520 382.434,24.288 385.096 L 28.057 387.200 200.381 387.200 C 314.401 387.200,372.873 386.929,373.200 386.400 C 373.472 385.960,374.385 385.600,375.230 385.600 C 377.226 385.600,385.600 377.226,385.600 375.230 C 385.600 374.385,385.960 373.472,386.400 373.200 C 386.929 372.873,387.200 314.406,387.200 200.395 L 387.200 28.085 385.164 24.256 C 382.470 19.189,380.670 17.375,375.862 14.880 L 371.852 12.800 199.726 12.860 L 27.600 12.920 23.838 15.068 M163.600 34.400 C 163.872 34.840,164.793 35.200,165.647 35.200 C 166.501 35.200,167.200 35.560,167.200 36.000 C 167.200 36.440,167.879 36.800,168.708 36.800 C 170.394 36.800,180.000 46.636,180.000 48.363 C 180.000 48.970,180.270 49.587,180.600 49.733 C 181.982 50.347,184.008 58.354,184.008 63.200 C 184.008 68.046,181.982 76.053,180.600 76.667 C 180.270 76.813,180.000 77.477,180.000 78.142 C 180.000 81.023,168.370 91.200,165.077 91.200 C 164.485 91.200,164.000 91.537,164.000 91.949 C 164.000 92.361,162.830 92.811,161.400 92.949 L 158.800 93.200 158.571 103.200 C 158.445 108.700,158.735 115.540,159.215 118.400 C 159.695 121.260,160.299 129.986,160.558 137.792 L 161.029 151.984 197.914 152.192 L 234.800 152.400 234.800 166.800 L 234.800 181.200 199.337 181.408 L 163.874 181.617 164.260 187.408 C 164.472 190.594,164.909 194.424,165.231 195.920 L 165.817 198.640 214.050 198.062 C 267.273 197.424,265.600 197.284,265.600 202.353 C 265.600 203.207,265.960 204.128,266.400 204.400 C 266.840 204.672,267.200 205.593,267.200 206.447 C 267.200 207.301,267.560 208.000,268.000 208.000 C 268.440 208.000,268.800 208.485,268.800 209.077 C 268.800 210.151,269.938 212.841,272.860 218.676 C 273.707 220.367,274.400 222.262,274.400 222.886 C 274.400 223.511,274.730 224.647,275.133 225.411 C 275.536 226.175,276.401 228.060,277.055 229.600 C 279.578 235.540,281.761 240.457,282.465 241.789 C 282.869 242.553,283.200 243.723,283.200 244.389 C 283.200 245.055,283.560 245.600,284.000 245.600 C 284.440 245.600,284.800 246.157,284.800 246.837 C 284.800 247.517,286.060 250.765,287.600 254.055 C 289.140 257.344,290.400 260.392,290.400 260.828 C 290.400 261.265,290.730 262.247,291.133 263.011 C 291.536 263.775,292.401 265.660,293.055 267.200 C 293.709 268.740,295.035 271.800,296.002 274.000 C 296.969 276.200,298.035 278.720,298.373 279.600 C 299.841 283.432,300.720 285.465,302.697 289.611 C 303.853 292.038,304.800 294.444,304.800 294.958 C 304.800 296.441,307.767 296.985,309.770 295.868 C 312.385 294.410,316.961 292.826,318.600 292.812 C 319.370 292.805,320.000 292.440,320.000 292.000 C 320.000 291.560,320.879 291.200,321.953 291.200 C 323.027 291.200,324.128 290.840,324.400 290.400 C 324.672 289.960,325.564 289.600,326.382 289.600 C 327.201 289.600,328.890 289.093,330.135 288.474 C 336.969 285.076,336.814 285.100,338.450 287.229 C 339.283 288.313,339.972 289.835,339.982 290.611 C 339.992 291.387,340.351 292.647,340.780 293.411 C 345.308 301.481,347.588 309.600,345.324 309.600 C 344.197 309.600,337.317 312.412,333.411 314.469 C 332.647 314.871,331.297 315.200,330.411 315.200 C 329.525 315.200,328.800 315.560,328.800 316.000 C 328.800 316.440,328.238 316.800,327.550 316.800 C 326.863 316.800,324.433 317.676,322.150 318.748 C 319.868 319.819,316.470 321.167,314.600 321.743 C 312.730 322.318,311.200 323.062,311.200 323.395 C 311.200 323.728,310.475 324.000,309.589 324.000 C 308.703 324.000,307.353 324.338,306.589 324.750 C 303.018 326.680,295.977 329.600,294.897 329.600 C 294.235 329.600,293.472 329.960,293.200 330.400 C 292.928 330.840,291.664 331.200,290.390 331.200 C 288.030 331.200,287.668 330.697,284.625 323.200 C 284.179 322.100,283.495 320.575,283.107 319.811 C 282.718 319.047,282.400 317.697,282.400 316.811 C 282.400 315.925,282.040 315.200,281.600 315.200 C 281.160 315.200,280.800 314.689,280.800 314.065 C 280.800 313.440,280.199 311.730,279.465 310.265 C 277.031 305.409,276.800 304.831,276.800 303.611 C 276.800 302.945,276.528 302.400,276.195 302.400 C 275.862 302.400,275.146 300.978,274.603 299.240 C 274.061 297.502,272.676 293.992,271.526 291.440 C 269.014 285.868,267.087 281.240,265.595 277.200 C 265.270 276.320,264.058 273.553,262.902 271.050 C 261.746 268.548,260.800 266.113,260.800 265.640 C 260.800 265.166,260.470 264.153,260.067 263.389 C 259.664 262.625,258.799 260.740,258.145 259.200 C 257.491 257.660,256.165 254.600,255.198 252.400 C 254.231 250.200,253.074 247.500,252.627 246.400 C 252.179 245.300,251.495 243.775,251.107 243.011 C 250.718 242.247,250.400 240.897,250.400 240.011 C 250.400 239.125,250.040 238.400,249.600 238.400 C 249.160 238.400,248.800 237.889,248.800 237.265 C 248.800 236.640,248.199 234.930,247.465 233.465 C 246.731 231.999,245.882 230.260,245.578 229.600 C 245.097 228.554,238.308 228.374,192.788 228.194 C 157.734 228.056,140.217 227.712,139.537 227.147 C 138.485 226.274,138.176 223.356,136.890 202.138 C 136.469 195.174,135.893 188.875,135.611 188.141 C 135.330 187.407,134.733 180.685,134.286 173.203 C 133.471 159.576,132.573 145.353,131.203 124.400 C 130.800 118.240,130.124 107.440,129.700 100.400 C 128.844 86.190,127.798 77.422,126.598 74.400 C 122.812 64.859,123.064 59.584,127.773 49.803 C 130.079 45.011,135.585 38.400,137.268 38.400 C 137.891 38.400,138.400 38.040,138.400 37.600 C 138.400 37.160,138.940 36.800,139.600 36.800 C 140.260 36.800,140.800 36.440,140.800 36.000 C 140.800 35.560,141.499 35.200,142.353 35.200 C 143.207 35.200,144.128 34.840,144.400 34.400 C 144.683 33.942,148.793 33.600,154.000 33.600 C 159.207 33.600,163.317 33.942,163.600 34.400 M125.159 163.400 C 127.115 183.160,126.991 191.705,124.737 192.420 C 119.824 193.979,100.000 217.678,100.000 221.993 C 100.000 222.657,99.640 223.200,99.200 223.200 C 98.760 223.200,98.400 223.925,98.400 224.811 C 98.400 225.697,98.093 227.047,97.718 227.811 C 95.562 232.199,94.463 235.113,94.023 237.600 C 92.111 248.425,91.761 251.564,91.798 257.600 C 91.857 267.347,94.134 280.834,96.046 282.760 C 96.461 283.178,96.800 284.173,96.800 284.971 C 96.800 285.769,97.118 287.047,97.507 287.811 C 97.895 288.575,98.692 290.280,99.277 291.600 C 103.950 302.146,122.330 323.141,126.933 323.190 C 127.447 323.195,127.987 323.470,128.133 323.800 C 128.547 324.731,139.716 330.400,141.137 330.400 C 141.831 330.400,142.400 330.760,142.400 331.200 C 142.400 331.640,143.408 332.000,144.640 332.000 C 145.872 332.000,147.222 332.323,147.640 332.718 C 150.412 335.337,185.588 335.337,188.360 332.718 C 188.778 332.323,189.926 332.000,190.912 332.000 C 192.742 332.000,207.383 324.933,207.867 323.816 C 208.013 323.477,208.575 323.200,209.116 323.200 C 209.656 323.200,210.796 322.559,211.649 321.776 C 212.502 320.992,214.640 319.282,216.400 317.976 C 218.160 316.669,220.190 314.880,220.911 314.000 C 221.632 313.120,223.072 311.457,224.111 310.304 C 230.409 303.314,239.200 289.137,239.200 285.971 C 239.200 285.680,239.707 284.307,240.327 282.921 C 241.626 280.016,242.309 277.206,243.064 271.663 C 243.597 267.751,244.421 266.690,246.053 267.813 C 247.120 268.547,251.200 276.747,251.200 278.157 C 251.200 278.731,251.560 279.200,252.000 279.200 C 252.440 279.200,252.798 279.650,252.796 280.200 C 252.794 280.750,254.102 283.900,255.702 287.200 C 262.152 300.504,263.970 304.455,264.180 305.625 C 264.451 307.135,261.612 313.600,260.679 313.600 C 260.305 313.600,260.000 313.985,260.000 314.456 C 260.000 315.326,256.032 321.407,254.203 323.340 C 253.651 323.923,252.142 325.840,250.849 327.600 C 247.911 331.600,239.043 340.428,234.800 343.577 C 233.040 344.883,230.902 346.592,230.049 347.376 C 229.196 348.159,228.056 348.800,227.516 348.800 C 226.975 348.800,226.413 349.070,226.267 349.400 C 225.874 350.284,220.184 353.768,215.600 355.931 C 213.400 356.970,209.857 358.670,207.726 359.710 C 205.596 360.749,203.187 361.600,202.373 361.600 C 201.560 361.600,200.672 361.960,200.400 362.400 C 200.128 362.840,198.667 363.200,197.153 363.200 C 195.639 363.200,194.400 363.560,194.400 364.000 C 194.400 364.440,192.852 364.800,190.960 364.800 C 189.068 364.800,187.178 365.137,186.760 365.548 C 185.516 366.773,163.526 367.398,156.000 366.424 C 144.105 364.883,142.816 364.651,142.040 363.918 C 141.622 363.523,140.293 363.200,139.087 363.200 C 137.881 363.200,136.672 362.840,136.400 362.400 C 136.128 361.960,135.262 361.600,134.476 361.600 C 133.074 361.600,130.683 360.624,124.524 357.540 C 122.833 356.693,120.943 356.000,120.324 356.000 C 119.706 356.000,119.200 355.640,119.200 355.200 C 119.200 354.760,118.847 354.400,118.416 354.400 C 117.395 354.400,108.481 348.736,108.133 347.866 C 107.987 347.500,107.429 347.200,106.894 347.200 C 104.488 347.200,84.998 328.055,82.331 323.072 C 81.810 322.098,80.802 320.672,80.092 319.904 C 79.381 319.136,78.083 317.134,77.208 315.454 C 76.332 313.774,75.426 312.220,75.195 312.000 C 74.076 310.935,68.800 299.648,68.800 298.318 C 68.800 297.483,68.440 296.800,68.000 296.800 C 67.560 296.800,67.200 295.895,67.200 294.789 C 67.200 293.683,66.876 292.153,66.480 291.389 C 65.657 289.802,63.648 282.908,62.462 277.600 C 60.262 267.752,60.854 243.375,63.550 232.800 C 64.280 229.940,65.081 226.606,65.330 225.390 C 65.580 224.175,66.103 222.984,66.492 222.743 C 66.882 222.502,67.200 221.602,67.200 220.742 C 67.200 219.882,67.560 218.463,68.000 217.589 C 68.440 216.715,69.160 215.285,69.600 214.411 C 70.040 213.537,70.400 212.450,70.400 211.995 C 70.400 211.540,71.300 209.743,72.400 208.000 C 73.500 206.257,74.400 204.285,74.400 203.616 C 74.400 202.947,74.760 202.400,75.200 202.400 C 75.640 202.400,76.000 202.032,76.000 201.583 C 76.000 200.765,79.691 194.765,81.199 193.132 C 81.639 192.655,82.720 191.247,83.600 190.005 C 90.697 179.982,106.982 165.577,116.000 161.345 C 116.660 161.036,118.280 160.093,119.600 159.250 C 123.911 156.496,124.521 156.951,125.159 163.400 " stroke="none" fill="#003f87" fill-rule="evenodd"></path><path id="path3" d="M114.600 12.600 C 161.570 12.714,238.430 12.714,285.400 12.600 C 332.370 12.486,293.940 12.393,200.000 12.393 C 106.060 12.393,67.630 12.486,114.600 12.600 M18.362 18.362 C 16.183 20.541,14.421 22.791,14.447 23.362 C 14.475 23.971,14.888 23.771,15.447 22.877 C 16.743 20.805,20.909 16.612,22.830 15.447 C 23.716 14.909,23.948 14.474,23.362 14.447 C 22.791 14.421,20.541 16.183,18.362 18.362 M379.294 17.007 C 381.174 18.441,383.595 21.329,384.673 23.424 C 385.751 25.519,386.805 27.062,387.014 26.853 C 388.320 25.547,378.958 14.400,376.556 14.400 C 376.182 14.400,377.414 15.573,379.294 17.007 M387.593 200.000 C 387.593 294.380,387.686 332.990,387.800 285.800 C 387.914 238.610,387.914 161.390,387.800 114.200 C 387.686 67.010,387.593 105.620,387.593 200.000 M12.393 200.000 C 12.393 293.940,12.486 332.370,12.600 285.400 C 12.714 238.430,12.714 161.570,12.600 114.600 C 12.486 67.630,12.393 106.060,12.393 200.000 M140.800 36.000 C 140.800 36.440,140.170 36.828,139.400 36.863 C 138.598 36.899,138.419 37.096,138.979 37.323 C 139.518 37.541,140.768 37.153,141.757 36.460 C 143.227 35.430,143.304 35.200,142.178 35.200 C 141.420 35.200,140.800 35.560,140.800 36.000 M170.909 39.081 C 173.923 41.264,176.911 44.464,178.953 47.693 C 179.477 48.522,179.927 48.763,179.953 48.229 C 180.022 46.802,170.426 36.800,168.988 36.800 C 168.313 36.800,169.177 37.826,170.909 39.081 M132.964 42.003 C 125.189 50.837,122.474 61.414,125.469 71.200 C 127.223 76.927,128.002 80.527,128.501 85.200 C 128.783 87.840,129.179 89.539,129.382 88.975 C 129.884 87.576,128.169 75.183,127.321 74.084 C 121.644 66.724,127.161 45.886,136.345 40.000 C 137.952 38.971,138.340 38.422,137.468 38.413 C 136.735 38.406,134.709 40.021,132.964 42.003 M182.148 54.400 C 182.906 57.085,182.949 69.497,182.208 72.000 C 181.760 73.513,181.898 73.415,182.772 71.600 C 184.311 68.405,184.300 57.963,182.755 54.800 C 181.829 52.904,181.701 52.820,182.148 54.400 M178.445 79.516 C 176.916 82.373,170.576 88.177,167.200 89.809 C 165.660 90.554,164.795 91.172,165.277 91.182 C 168.292 91.244,180.545 80.434,179.843 78.330 C 179.682 77.846,179.053 78.380,178.445 79.516 M157.693 97.400 C 157.791 102.282,158.145 101.804,158.579 96.200 C 158.724 94.330,158.563 92.800,158.221 92.800 C 157.880 92.800,157.642 94.870,157.693 97.400 M129.656 104.467 C 129.687 107.950,130.023 111.520,130.403 112.400 C 130.815 113.355,130.908 110.936,130.635 106.400 C 130.068 96.990,129.581 96.029,129.656 104.467 M158.948 122.400 C 159.205 126.140,159.637 134.420,159.908 140.800 L 160.400 152.400 197.400 152.608 L 234.400 152.816 234.400 166.800 L 234.400 180.783 199.000 180.992 L 163.600 181.200 163.494 183.012 C 163.406 184.503,163.451 184.540,163.748 183.221 C 164.102 181.649,164.819 181.612,199.455 181.408 L 234.800 181.200 234.800 166.800 L 234.800 152.400 197.919 152.192 L 161.038 151.984 160.504 137.392 C 160.210 129.366,159.634 121.180,159.225 119.200 C 158.640 116.375,158.580 117.063,158.948 122.400 M131.256 127.267 C 131.287 131.410,131.623 135.520,132.002 136.400 C 132.410 137.345,132.505 134.400,132.235 129.200 C 131.665 118.247,131.182 117.292,131.256 127.267 M133.220 149.200 C 133.494 162.141,134.962 184.415,135.961 190.800 L 136.712 195.600 136.345 189.600 C 136.143 186.300,135.590 177.840,135.117 170.800 C 134.644 163.760,133.974 153.680,133.628 148.400 L 133.000 138.800 133.220 149.200 M120.133 158.786 C 119.106 159.352,117.846 160.250,117.333 160.783 C 116.820 161.315,117.797 160.976,119.505 160.030 C 121.213 159.084,123.103 158.498,123.705 158.730 C 124.307 158.961,124.800 158.801,124.800 158.375 C 124.800 157.322,122.408 157.532,120.133 158.786 M111.586 163.862 C 102.503 169.903,88.008 182.953,85.599 187.259 C 85.211 187.952,88.923 184.520,93.847 179.632 C 98.771 174.745,105.840 168.689,109.556 166.173 C 113.272 163.658,115.972 161.628,115.556 161.662 C 115.140 161.696,113.354 162.686,111.586 163.862 M124.965 168.400 C 124.951 169.720,125.221 172.600,125.563 174.800 L 126.186 178.800 126.198 174.800 C 126.205 172.600,125.936 169.720,125.600 168.400 L 124.989 166.000 124.965 168.400 M120.756 194.699 C 115.802 198.830,109.701 204.803,110.443 204.797 C 110.639 204.795,113.640 202.104,117.110 198.816 C 120.581 195.528,124.091 192.625,124.910 192.365 C 125.730 192.105,126.400 191.556,126.400 191.146 C 126.400 190.016,126.287 190.087,120.756 194.699 M164.012 195.385 C 163.995 199.614,162.498 199.512,215.007 198.862 C 264.980 198.243,264.800 198.232,264.800 202.033 C 264.800 202.574,265.338 204.048,265.995 205.309 C 266.751 206.758,267.192 207.103,267.195 206.247 C 267.198 205.503,266.840 204.672,266.400 204.400 C 265.960 204.128,265.600 203.207,265.600 202.353 C 265.600 197.283,267.286 197.423,213.942 198.063 L 165.600 198.643 165.588 196.722 C 165.581 195.665,165.227 194.260,164.800 193.600 C 164.223 192.707,164.021 193.163,164.012 195.385 M78.400 197.006 C 77.300 198.873,76.256 200.760,76.080 201.200 C 75.904 201.640,75.410 202.228,74.983 202.507 C 74.555 202.787,74.339 203.412,74.502 203.897 C 74.666 204.382,76.299 202.264,78.131 199.190 C 79.963 196.115,81.223 193.603,80.931 193.606 C 80.639 193.610,79.500 195.140,78.400 197.006 M136.812 207.667 C 136.819 210.710,137.196 213.740,137.650 214.400 C 138.230 215.243,138.317 213.696,137.941 209.200 C 137.266 201.137,136.796 200.498,136.812 207.667 M72.079 208.446 C 71.156 210.011,70.400 211.636,70.400 212.057 C 70.400 212.477,70.040 213.537,69.600 214.411 C 69.160 215.285,68.440 216.715,68.000 217.589 C 67.560 218.463,67.219 219.813,67.241 220.589 C 67.264 221.365,67.837 220.560,68.515 218.800 C 70.472 213.717,71.306 211.802,72.956 208.600 C 74.919 204.792,74.299 204.683,72.079 208.446 M108.259 207.400 C 105.320 210.667,99.435 220.000,100.314 220.000 C 100.518 220.000,102.004 217.828,103.616 215.173 C 105.229 212.518,107.447 209.278,108.545 207.973 C 110.872 205.208,110.644 204.750,108.259 207.400 M270.403 215.011 C 270.402 215.567,270.727 216.647,271.128 217.411 C 271.528 218.175,272.420 220.060,273.109 221.600 C 273.799 223.140,274.372 223.831,274.382 223.136 C 274.392 222.440,273.502 220.100,272.403 217.936 C 271.305 215.771,270.405 214.455,270.403 215.011 M96.215 228.556 C 95.233 231.053,94.590 233.257,94.785 233.452 C 94.980 233.647,95.558 232.770,96.070 231.503 C 96.581 230.237,97.356 228.426,97.793 227.479 C 98.229 226.532,98.454 225.366,98.293 224.887 C 98.132 224.407,97.197 226.059,96.215 228.556 M138.412 225.302 C 138.377 227.869,140.617 227.989,192.788 228.194 C 238.282 228.373,245.103 228.555,245.627 229.600 C 245.958 230.260,246.641 231.837,247.144 233.103 C 247.648 234.370,248.251 235.215,248.485 234.981 C 248.908 234.558,248.600 233.787,246.172 229.200 L 244.901 226.800 192.294 226.594 C 151.428 226.434,139.546 226.167,139.056 225.394 C 138.640 224.739,138.420 224.708,138.412 225.302 M64.400 228.800 C 64.100 229.746,64.034 230.701,64.254 230.921 C 64.474 231.141,64.900 230.546,65.200 229.600 C 65.500 228.654,65.566 227.699,65.346 227.479 C 65.126 227.259,64.700 227.854,64.400 228.800 M62.917 234.800 C 60.023 250.696,61.140 280.504,64.844 286.242 C 65.610 287.429,65.654 287.399,65.194 286.000 C 61.936 276.107,60.821 247.639,63.310 237.896 C 63.774 236.079,64.007 233.919,63.827 233.096 C 63.628 232.188,63.270 232.857,62.917 234.800 M279.218 235.811 C 279.208 236.367,279.527 237.447,279.928 238.211 C 280.328 238.975,281.220 240.860,281.909 242.400 C 282.599 243.940,283.172 244.745,283.182 244.189 C 283.192 243.633,282.873 242.553,282.472 241.789 C 282.072 241.025,281.180 239.140,280.491 237.600 C 279.801 236.060,279.228 235.255,279.218 235.811 M93.257 238.057 C 92.963 239.230,92.902 240.369,93.122 240.589 C 93.342 240.809,93.763 240.030,94.057 238.857 C 94.351 237.685,94.412 236.545,94.192 236.325 C 93.972 236.105,93.551 236.885,93.257 238.057 M91.735 246.293 C 91.397 248.655,91.295 250.762,91.508 250.975 C 92.098 251.564,92.979 246.073,92.644 243.905 C 92.464 242.740,92.110 243.669,91.735 246.293 M252.000 244.678 C 252.000 245.197,252.337 246.247,252.748 247.011 C 253.159 247.775,254.302 250.287,255.288 252.594 C 256.273 254.900,257.200 256.667,257.347 256.520 C 257.628 256.238,253.041 244.775,252.384 244.117 C 252.173 243.906,252.000 244.158,252.000 244.678 M286.400 253.211 C 286.400 253.437,286.727 254.247,287.128 255.011 C 287.528 255.775,288.420 257.660,289.109 259.200 C 289.799 260.740,290.372 261.546,290.382 260.991 C 290.402 259.897,287.222 252.800,286.712 252.800 C 286.540 252.800,286.400 252.985,286.400 253.211 M91.307 265.600 C 91.484 269.899,92.600 272.798,92.693 269.200 C 92.738 267.440,92.427 265.460,92.000 264.800 C 91.391 263.858,91.242 264.030,91.307 265.600 M260.863 265.409 C 260.789 266.601,264.072 273.794,264.497 273.370 C 264.658 273.209,264.120 271.665,263.302 269.939 C 262.484 268.212,261.614 266.260,261.370 265.600 C 261.094 264.854,260.902 264.781,260.863 265.409 M243.515 268.332 C 243.276 268.955,243.234 270.485,243.420 271.732 C 243.749 273.927,243.764 273.916,243.880 271.400 C 244.072 267.236,246.122 268.206,248.528 273.599 C 249.706 276.238,250.837 278.230,251.041 278.025 C 251.537 277.530,247.166 268.562,246.064 267.812 C 244.758 266.924,243.996 267.080,243.515 268.332 M293.648 269.809 C 293.605 270.355,294.754 273.107,298.072 280.400 C 298.672 281.720,299.172 282.345,299.182 281.789 C 299.192 281.233,298.870 280.153,298.468 279.389 C 298.065 278.625,296.827 276.020,295.716 273.600 C 294.606 271.180,293.675 269.474,293.648 269.809 M92.825 275.200 C 92.825 275.860,93.173 276.940,93.600 277.600 C 94.289 278.667,94.375 278.667,94.375 277.600 C 94.375 276.940,94.027 275.860,93.600 275.200 C 92.911 274.133,92.825 274.133,92.825 275.200 M242.147 276.306 C 241.846 277.090,241.623 278.331,241.651 279.065 C 241.684 279.949,241.962 279.748,242.474 278.469 C 242.898 277.406,243.121 276.164,242.970 275.709 C 242.818 275.254,242.448 275.522,242.147 276.306 M266.400 279.211 C 266.400 279.657,266.718 280.647,267.107 281.411 C 267.495 282.175,268.185 283.700,268.640 284.800 C 271.465 291.635,273.118 295.148,273.385 294.882 C 273.553 294.713,272.992 293.006,272.137 291.088 C 271.283 289.170,269.781 285.530,268.799 283.000 C 267.079 278.568,266.400 277.495,266.400 279.211 M94.417 280.400 C 94.424 281.228,95.883 285.311,97.419 288.800 C 98.019 290.164,98.315 290.370,98.349 289.447 C 98.377 288.703,98.040 287.872,97.600 287.600 C 97.160 287.328,96.800 286.448,96.800 285.644 C 96.800 284.840,96.262 283.152,95.605 281.891 C 94.948 280.631,94.413 279.960,94.417 280.400 M240.001 283.689 C 238.149 288.761,237.227 290.916,235.806 293.494 C 234.990 294.976,234.471 296.338,234.654 296.521 C 235.000 296.867,238.137 290.667,240.343 285.277 C 241.046 283.560,241.446 281.980,241.233 281.766 C 241.019 281.553,240.465 282.418,240.001 283.689 M254.400 285.851 C 254.400 286.622,258.323 293.857,258.358 293.150 C 258.409 292.122,255.319 285.600,254.781 285.600 C 254.572 285.600,254.400 285.713,254.400 285.851 M334.400 286.362 C 333.740 286.729,332.163 287.441,330.897 287.944 C 329.630 288.448,328.796 289.062,329.043 289.310 C 329.291 289.558,329.968 289.457,330.547 289.087 C 331.851 288.252,337.066 286.399,337.339 286.673 C 337.450 286.783,338.079 288.117,338.739 289.637 C 339.425 291.219,339.951 291.790,339.969 290.972 C 340.046 287.460,336.983 284.925,334.400 286.362 M302.438 290.847 C 302.525 292.547,305.284 297.105,306.400 297.392 C 307.294 297.622,307.244 297.411,306.200 296.562 C 305.430 295.936,304.789 294.923,304.775 294.312 C 304.761 293.700,304.221 292.501,303.575 291.647 C 302.929 290.793,302.417 290.433,302.438 290.847 M314.000 293.904 C 312.680 294.407,310.880 295.291,310.000 295.869 L 308.400 296.921 310.000 296.369 C 316.182 294.238,319.364 292.868,318.000 292.924 C 317.120 292.961,315.320 293.402,314.000 293.904 M100.806 296.000 C 104.800 303.811,121.538 322.729,123.085 321.182 C 123.315 320.952,122.625 320.158,121.552 319.417 C 116.813 316.149,108.548 306.940,103.900 299.748 C 100.434 294.385,99.242 292.942,100.806 296.000 M274.064 297.200 C 274.362 298.080,274.781 299.610,274.996 300.600 C 275.211 301.590,275.705 302.400,276.093 302.400 C 276.482 302.400,276.800 303.099,276.800 303.953 C 276.800 304.807,277.126 305.707,277.525 305.954 C 278.598 306.617,277.627 303.516,275.443 299.304 C 274.387 297.267,273.766 296.320,274.064 297.200 M342.051 297.200 C 342.341 298.080,343.349 300.881,344.290 303.424 C 345.785 307.468,345.849 308.144,344.800 308.812 C 343.794 309.452,343.843 309.577,345.102 309.588 C 347.121 309.604,346.442 305.136,343.583 299.594 C 342.450 297.397,341.760 296.320,342.051 297.200 M68.863 298.450 C 68.790 299.894,71.944 306.722,72.451 306.216 C 72.637 306.030,72.120 304.465,71.302 302.739 C 70.484 301.012,69.614 299.060,69.370 298.400 C 68.987 297.365,68.918 297.372,68.863 298.450 M230.266 302.600 C 228.186 305.534,226.557 307.616,224.800 309.586 C 220.561 314.338,219.976 315.270,223.005 312.444 C 226.136 309.522,233.406 300.000,232.506 300.000 C 232.287 300.000,231.280 301.170,230.266 302.600 M261.600 301.506 C 261.600 301.946,261.960 302.528,262.400 302.800 C 263.717 303.614,263.308 307.759,261.614 310.776 C 260.741 312.329,260.309 313.600,260.654 313.600 C 262.209 313.600,264.538 306.793,263.857 304.239 C 263.203 301.784,261.600 299.843,261.600 301.506 M278.405 308.047 C 278.402 308.733,278.929 309.993,279.575 310.847 C 281.103 312.867,281.118 311.992,279.605 309.091 C 278.948 307.831,278.408 307.361,278.405 308.047 M336.800 311.988 C 336.140 312.370,334.160 313.230,332.400 313.900 C 330.640 314.570,329.835 315.136,330.611 315.159 C 331.387 315.181,332.647 314.873,333.411 314.472 C 334.175 314.072,336.060 313.180,337.600 312.491 C 339.140 311.801,339.860 311.249,339.200 311.265 C 338.540 311.281,337.460 311.606,336.800 311.988 M76.000 313.034 C 76.000 314.012,80.399 320.800,81.033 320.800 C 81.387 320.800,80.521 319.090,79.109 317.000 C 76.019 312.427,76.000 312.404,76.000 313.034 M256.992 318.465 C 255.560 320.629,254.553 322.400,254.755 322.400 C 255.301 322.400,260.201 315.134,259.875 314.808 C 259.722 314.655,258.424 316.300,256.992 318.465 M217.200 317.290 C 216.320 317.972,214.902 319.032,214.048 319.647 C 213.195 320.261,212.655 320.918,212.848 321.107 C 213.042 321.296,214.640 320.230,216.400 318.737 C 219.616 316.010,220.188 314.976,217.200 317.290 M316.000 320.432 C 311.320 322.446,311.320 323.050,316.000 321.372 C 319.134 320.249,322.430 318.424,321.200 318.494 C 320.760 318.519,318.420 319.391,316.000 320.432 M284.067 321.411 C 284.030 321.967,284.330 323.047,284.733 323.811 C 285.136 324.575,286.053 326.550,286.770 328.200 C 288.086 331.225,291.886 332.526,293.200 330.400 C 293.472 329.960,294.183 329.600,294.781 329.600 C 296.406 329.600,303.494 326.427,302.991 325.924 C 302.752 325.685,301.891 325.832,301.078 326.251 C 300.265 326.670,298.520 327.457,297.200 328.000 C 295.880 328.543,294.175 329.305,293.411 329.693 C 291.366 330.733,288.008 330.553,287.951 329.400 C 287.878 327.913,284.144 320.233,284.067 321.411 M82.331 323.021 C 83.869 325.975,95.251 338.260,98.800 340.795 C 99.680 341.424,97.636 339.072,94.258 335.569 C 90.879 332.066,86.790 327.580,85.171 325.600 C 81.440 321.038,81.173 320.796,82.331 323.021 M210.000 322.647 C 209.120 323.171,208.220 323.783,208.000 324.006 C 207.780 324.229,205.187 325.657,202.238 327.178 C 199.289 328.699,197.004 330.071,197.161 330.228 C 197.719 330.786,209.172 324.657,211.171 322.729 C 212.572 321.379,212.176 321.351,210.000 322.647 M126.769 323.949 C 127.023 324.361,128.395 325.308,129.816 326.054 C 136.097 329.347,138.574 330.493,138.839 330.228 C 138.996 330.071,136.711 328.696,133.762 327.172 C 130.813 325.647,128.280 324.130,128.133 323.800 C 127.987 323.470,127.515 323.200,127.086 323.200 C 126.657 323.200,126.514 323.537,126.769 323.949 M250.156 327.400 C 246.298 332.332,241.160 337.342,234.391 342.772 C 230.656 345.768,227.450 348.350,227.267 348.510 C 227.083 348.669,227.285 348.800,227.716 348.800 C 228.146 348.800,229.196 348.159,230.049 347.376 C 230.902 346.592,233.040 344.883,234.800 343.577 C 238.884 340.546,247.829 331.695,250.744 327.800 C 253.494 324.127,252.986 323.782,250.156 327.400 M146.400 333.164 C 154.330 335.511,158.055 336.000,168.000 336.000 C 177.945 336.000,181.670 335.511,189.600 333.164 C 192.216 332.390,192.642 332.085,191.160 332.049 C 190.038 332.022,188.778 332.323,188.360 332.718 C 186.994 334.008,180.617 334.597,168.000 334.597 C 155.383 334.597,149.006 334.008,147.640 332.718 C 147.222 332.323,145.962 332.022,144.840 332.049 C 143.358 332.085,143.784 332.390,146.400 333.164 M100.800 342.181 C 100.800 343.001,105.848 347.201,106.800 347.173 C 107.240 347.160,106.880 346.606,106.000 345.942 C 105.120 345.279,103.590 344.032,102.600 343.173 C 101.610 342.314,100.800 341.867,100.800 342.181 M108.000 347.851 C 108.000 348.366,115.958 353.520,117.988 354.320 C 118.435 354.496,119.028 354.990,119.307 355.417 C 119.587 355.845,120.250 356.050,120.782 355.873 C 121.314 355.695,120.726 355.031,119.475 354.397 C 118.224 353.762,115.130 351.900,112.600 350.259 C 110.070 348.618,108.000 347.534,108.000 347.851 M224.000 350.341 C 222.900 351.160,219.726 352.984,216.946 354.394 C 214.166 355.804,212.044 357.110,212.230 357.297 C 212.844 357.911,226.387 350.360,226.395 349.400 C 226.402 348.589,226.296 348.630,224.000 350.341 M125.962 358.338 C 126.213 358.745,127.490 359.312,128.800 359.600 C 130.110 359.888,131.387 360.455,131.638 360.862 C 131.889 361.268,132.883 361.572,133.847 361.537 C 134.976 361.496,135.173 361.328,134.400 361.064 C 133.740 360.839,131.674 359.967,129.809 359.127 C 126.003 357.413,125.301 357.269,125.962 358.338 M209.414 358.052 C 209.166 358.301,205.956 359.549,202.281 360.825 C 198.104 362.275,196.407 363.155,197.753 363.173 C 198.937 363.188,200.128 362.840,200.400 362.400 C 200.672 361.960,201.526 361.600,202.297 361.600 C 203.769 361.600,210.400 358.639,210.400 357.981 C 210.400 357.469,209.967 357.500,209.414 358.052 M136.380 362.368 C 136.663 362.826,137.833 363.200,138.981 363.200 C 141.488 363.200,141.198 362.817,138.133 362.080 C 136.646 361.723,136.043 361.822,136.380 362.368 M141.980 363.968 C 142.263 364.426,143.433 364.800,144.581 364.800 C 147.088 364.800,146.798 364.417,143.733 363.680 C 142.246 363.323,141.643 363.422,141.980 363.968 M192.000 364.000 L 190.000 364.641 192.200 364.720 C 193.410 364.764,194.400 364.440,194.400 364.000 C 194.400 363.560,194.310 363.236,194.200 363.280 C 194.090 363.324,193.100 363.648,192.000 364.000 M149.600 365.558 C 150.260 366.008,151.850 366.381,153.133 366.388 C 156.207 366.404,155.569 365.941,151.600 365.276 C 149.307 364.893,148.740 364.972,149.600 365.558 M183.600 365.600 L 181.200 366.211 183.753 366.305 C 185.157 366.357,186.528 366.040,186.800 365.600 C 187.347 364.715,187.079 364.715,183.600 365.600 M163.429 366.992 C 165.975 367.151,169.935 367.150,172.229 366.989 C 174.523 366.828,172.440 366.697,167.600 366.699 C 162.760 366.701,160.883 366.833,163.429 366.992 M14.400 376.660 C 14.400 378.023,22.049 385.612,23.362 385.553 C 23.991 385.524,23.815 385.130,22.917 384.553 C 20.663 383.104,17.284 379.831,15.763 377.622 C 15.013 376.534,14.400 376.101,14.400 376.660 M380.823 381.460 C 377.881 384.511,377.337 385.325,379.165 383.942 C 381.480 382.190,386.411 376.680,385.503 376.860 C 385.336 376.893,383.230 378.963,380.823 381.460 M114.200 387.800 C 161.390 387.914,238.610 387.914,285.800 387.800 C 332.990 387.686,294.380 387.593,200.000 387.593 C 105.620 387.593,67.010 387.686,114.200 387.800 " stroke="none" fill="#4c6ea3" fill-rule="evenodd"></path><path id="path4" d="M22.931 1.148 C 22.688 1.780,22.920 2.471,23.445 2.685 C 23.970 2.899,23.320 3.097,22.000 3.125 C 20.169 3.163,19.884 2.992,20.800 2.400 C 21.826 1.737,21.796 1.623,20.600 1.612 C 19.830 1.606,19.200 1.960,19.200 2.400 C 19.200 2.840,18.480 3.200,17.600 3.200 C 16.720 3.200,16.000 3.560,16.000 4.000 C 16.000 4.440,15.524 4.800,14.943 4.800 C 13.311 4.800,4.800 13.498,4.800 15.166 C 4.800 15.625,4.440 16.000,4.000 16.000 C 3.560 16.000,3.200 16.720,3.200 17.600 C 3.200 18.480,2.840 19.200,2.400 19.200 C 1.960 19.200,1.600 20.100,1.600 21.200 C 1.600 22.300,1.240 23.200,0.800 23.200 C 0.360 23.200,0.000 23.740,0.000 24.400 C 0.000 25.060,0.360 25.600,0.800 25.600 C 2.089 25.600,1.890 373.773,0.600 375.140 C -0.200 375.988,-0.200 376.273,0.600 376.567 C 1.150 376.768,1.600 377.589,1.600 378.391 C 1.600 382.777,10.318 393.307,16.676 396.600 C 20.105 398.376,23.139 399.112,20.800 397.600 C 19.827 396.971,19.936 396.822,21.375 396.812 C 22.622 396.804,23.014 397.155,22.692 397.993 C 22.420 398.703,22.816 399.410,23.669 399.737 C 24.509 400.059,25.235 399.896,25.419 399.344 C 25.859 398.023,373.650 397.970,374.970 399.290 C 376.107 400.427,377.846 399.395,377.280 397.919 C 376.991 397.166,377.430 396.804,378.625 396.812 C 380.064 396.822,380.173 396.971,379.200 397.600 C 376.861 399.112,379.895 398.376,383.324 396.600 C 387.782 394.291,394.291 387.782,396.600 383.324 C 398.610 379.444,398.760 378.883,397.600 379.600 C 397.160 379.872,396.800 379.315,396.800 378.362 C 396.800 377.167,397.165 376.769,397.974 377.079 C 399.492 377.662,400.448 376.128,399.290 374.970 C 397.970 373.650,398.023 25.859,399.344 25.419 C 399.866 25.245,400.059 24.507,399.774 23.766 C 399.468 22.967,398.764 22.617,398.030 22.899 C 397.157 23.234,396.800 22.869,396.800 21.638 C 396.800 20.685,397.160 20.128,397.600 20.400 C 398.760 21.117,398.610 20.556,396.600 16.676 C 394.342 12.315,387.763 5.763,383.271 3.400 C 379.905 1.629,376.844 0.878,379.200 2.400 C 380.165 3.024,380.039 3.178,378.553 3.188 C 377.537 3.194,376.883 2.913,377.100 2.562 C 377.914 1.245,376.143 -0.463,375.073 0.607 C 373.790 1.890,25.600 2.083,25.600 0.800 C 25.600 -0.431,23.428 -0.148,22.931 1.148 M374.800 3.200 C 375.072 3.640,376.353 4.000,377.647 4.000 C 378.941 4.000,380.000 4.360,380.000 4.800 C 380.000 5.240,380.468 5.600,381.040 5.600 C 381.612 5.600,384.042 7.343,386.440 9.474 C 388.838 11.605,391.340 13.197,392.000 13.013 C 392.889 12.765,392.940 12.862,392.199 13.387 C 391.430 13.931,391.569 14.495,392.799 15.814 C 393.679 16.760,394.400 18.088,394.400 18.767 C 394.400 19.445,394.719 20.000,395.109 20.000 C 395.499 20.000,396.104 21.170,396.454 22.600 C 397.429 26.593,397.774 374.546,396.804 375.516 C 396.362 375.958,396.000 377.148,396.000 378.160 C 396.000 379.172,395.640 380.000,395.200 380.000 C 394.760 380.000,394.400 380.543,394.400 381.207 C 394.400 383.426,385.999 392.101,382.200 393.804 C 380.990 394.347,380.000 395.063,380.000 395.395 C 380.000 395.728,379.172 396.000,378.160 396.000 C 377.148 396.000,375.958 396.362,375.516 396.804 C 373.526 398.794,20.000 397.201,20.000 395.203 C 20.000 394.864,19.370 394.364,18.600 394.093 C 17.830 393.821,16.700 393.372,16.089 393.096 C 15.388 392.778,15.184 392.926,15.536 393.496 C 15.843 393.993,15.675 394.400,15.162 394.400 C 14.649 394.400,14.432 393.872,14.679 393.226 C 15.196 391.881,13.948 390.763,13.328 392.015 C 13.104 392.469,13.022 392.381,13.146 391.820 C 13.270 391.259,11.975 389.269,10.268 387.399 C 8.561 385.528,6.755 383.098,6.254 381.999 C 5.753 380.899,5.041 380.000,4.672 380.000 C 4.302 380.000,4.000 378.941,4.000 377.647 C 4.000 376.353,3.640 375.072,3.200 374.800 C 2.671 374.473,2.400 315.341,2.400 200.000 C 2.400 84.659,2.671 25.527,3.200 25.200 C 3.640 24.928,4.000 23.647,4.000 22.353 C 4.000 21.059,4.336 20.000,4.746 20.000 C 5.156 20.000,5.746 19.190,6.057 18.200 C 6.759 15.964,17.282 5.600,18.851 5.600 C 19.483 5.600,20.000 5.240,20.000 4.800 C 20.000 4.360,21.059 4.000,22.353 4.000 C 23.647 4.000,24.928 3.640,25.200 3.200 C 25.885 2.092,374.115 2.092,374.800 3.200 M386.800 7.200 C 387.596 8.080,387.997 8.800,387.691 8.800 C 387.384 8.800,386.360 8.080,385.416 7.200 C 384.471 6.320,384.070 5.600,384.525 5.600 C 384.980 5.600,386.004 6.320,386.800 7.200 M29.600 11.200 C 28.823 11.702,88.922 11.975,200.000 11.975 C 311.078 11.975,371.177 11.702,370.400 11.200 C 369.635 10.706,307.878 10.425,200.000 10.425 C 92.122 10.425,30.365 10.706,29.600 11.200 M22.400 13.730 C 17.329 16.659,10.607 25.273,12.172 26.838 C 12.407 27.074,13.154 25.901,13.831 24.233 C 15.286 20.646,19.928 16.030,24.400 13.722 C 26.160 12.814,27.060 12.080,26.400 12.092 C 25.740 12.104,23.940 12.841,22.400 13.730 M375.229 13.465 C 378.741 15.122,381.354 17.219,384.200 20.661 C 385.410 22.125,386.400 23.000,386.400 22.605 C 386.400 20.019,376.276 11.858,373.324 12.065 C 372.816 12.100,373.673 12.730,375.229 13.465 M10.886 30.065 C 10.039 32.271,10.351 369.085,11.200 370.400 C 11.702 371.177,11.980 311.153,11.988 200.200 C 11.994 105.930,11.859 28.800,11.686 28.800 C 11.513 28.800,11.153 29.369,10.886 30.065 M388.400 200.400 C 388.400 294.696,388.664 371.432,388.988 370.924 C 389.764 369.703,389.776 29.803,389.000 29.324 C 388.670 29.120,388.400 106.104,388.400 200.400 M154.400 34.448 C 157.260 34.776,160.680 35.262,162.000 35.528 C 164.225 35.977,164.196 35.929,161.600 34.867 C 160.060 34.237,156.640 33.751,154.000 33.787 L 149.200 33.852 154.400 34.448 M145.600 35.200 C 144.624 35.830,144.728 35.978,146.153 35.988 C 147.117 35.994,148.128 35.640,148.400 35.200 C 149.029 34.181,147.176 34.181,145.600 35.200 M139.126 38.275 C 132.837 42.264,126.291 51.528,126.469 56.191 C 126.535 57.927,126.562 57.920,127.152 56.000 C 129.555 48.170,135.735 40.316,141.400 37.891 C 142.830 37.279,144.000 36.603,144.000 36.389 C 144.000 35.542,142.554 36.101,139.126 38.275 M169.289 39.027 C 170.218 39.782,171.847 41.120,172.909 42.000 C 181.406 49.038,184.591 63.970,179.777 74.199 C 179.312 75.188,179.133 76.200,179.381 76.447 C 180.598 77.664,182.799 68.826,182.790 62.762 C 182.774 53.386,173.777 37.483,168.568 37.627 C 168.036 37.641,168.360 38.271,169.289 39.027 M125.856 63.200 C 125.856 66.060,126.001 67.230,126.179 65.800 C 126.356 64.370,126.356 62.030,126.179 60.600 C 126.001 59.170,125.856 60.340,125.856 63.200 M126.453 70.102 C 126.424 71.039,126.992 73.199,127.716 74.902 C 128.439 76.606,129.286 81.060,129.598 84.800 L 130.164 91.600 130.282 84.733 C 130.347 80.957,130.134 77.600,129.808 77.275 C 129.482 76.949,128.606 74.819,127.861 72.541 C 127.116 70.264,126.482 69.166,126.453 70.102 M176.672 80.200 C 173.644 84.486,170.611 87.055,166.489 88.824 C 165.438 89.276,164.792 89.858,165.053 90.120 C 166.432 91.498,175.965 83.750,178.332 79.327 C 179.715 76.743,178.760 77.245,176.672 80.200 M156.307 93.153 C 156.064 93.787,156.056 96.937,156.289 100.153 C 156.523 103.369,157.099 113.200,157.569 122.000 C 158.040 130.800,158.689 141.420,159.012 145.600 L 159.600 153.200 197.000 153.212 L 234.400 153.224 197.310 153.004 L 160.219 152.784 159.742 143.392 C 159.479 138.226,158.899 126.808,158.451 118.017 C 158.004 109.226,157.407 99.991,157.124 97.494 C 156.671 93.488,156.787 92.909,158.105 92.570 C 159.463 92.221,159.470 92.177,158.175 92.093 C 157.391 92.042,156.551 92.519,156.307 93.153 M130.573 100.000 C 130.581 101.980,130.850 105.940,131.172 108.800 L 131.756 114.000 131.798 107.200 C 131.822 103.460,131.552 99.500,131.200 98.400 C 130.680 96.776,130.562 97.077,130.573 100.000 M132.331 126.000 C 132.635 129.960,133.206 138.060,133.599 144.000 C 134.913 163.850,136.132 181.125,136.787 189.200 L 137.437 197.200 137.185 187.200 C 137.047 181.700,136.544 171.620,136.067 164.800 C 135.591 157.980,134.694 145.084,134.075 136.142 C 133.456 127.199,132.686 119.639,132.364 119.342 C 132.042 119.044,132.027 122.040,132.331 126.000 M233.920 166.000 C 233.921 172.600,234.045 175.194,234.195 171.763 C 234.346 168.333,234.345 162.933,234.193 159.763 C 234.042 156.594,233.919 159.400,233.920 166.000 M119.576 160.284 C 115.627 162.386,110.410 166.262,113.600 164.724 C 114.700 164.194,115.780 163.529,116.000 163.246 C 116.867 162.132,121.920 160.173,122.930 160.560 C 123.550 160.798,124.000 160.431,124.000 159.686 C 124.000 158.091,123.595 158.146,119.576 160.284 M124.115 170.985 C 124.052 174.607,124.439 180.130,124.976 183.259 L 125.951 188.949 123.262 191.074 C 114.259 198.190,100.800 213.518,100.800 216.655 C 100.800 217.101,100.530 217.587,100.200 217.733 C 98.464 218.505,91.948 235.744,92.065 239.257 C 92.102 240.384,92.639 239.352,93.344 236.800 C 97.824 220.577,106.599 206.192,117.600 197.035 C 127.348 188.922,126.637 190.093,125.974 183.240 C 125.653 179.918,125.129 174.320,124.810 170.800 L 124.230 164.400 124.115 170.985 M106.929 168.348 C 97.104 175.334,87.889 185.027,80.262 196.400 C 75.954 202.824,74.945 204.800,75.972 204.800 C 76.427 204.800,76.800 204.432,76.800 203.983 C 76.800 203.012,80.937 196.517,81.800 196.133 C 82.130 195.987,82.400 195.399,82.400 194.828 C 82.400 193.680,94.172 179.961,97.870 176.800 C 99.157 175.700,100.835 174.260,101.598 173.600 C 102.362 172.940,104.174 171.500,105.626 170.400 C 112.515 165.179,113.445 163.716,106.929 168.348 M198.400 179.200 L 162.800 179.600 162.664 182.800 C 162.545 185.608,162.595 185.706,163.072 183.600 L 163.615 181.200 198.542 180.800 C 228.488 180.457,236.122 180.073,234.333 179.000 C 234.150 178.890,217.980 178.980,198.400 179.200 M163.486 196.000 L 163.600 199.600 213.048 199.806 L 262.495 200.012 264.115 203.673 C 265.005 205.686,265.904 207.163,266.112 206.954 C 266.320 206.746,265.712 204.919,264.760 202.894 L 263.030 199.212 213.715 199.006 L 164.400 198.800 163.886 195.600 L 163.371 192.400 163.486 196.000 M138.149 207.200 C 138.396 212.700,138.733 217.350,138.899 217.533 C 139.509 218.209,139.085 203.495,138.405 200.400 C 137.939 198.284,137.853 200.587,138.149 207.200 M71.303 212.361 C 70.366 214.353,69.600 216.505,69.600 217.144 C 69.600 217.783,69.240 218.528,68.800 218.800 C 68.360 219.072,68.000 219.834,68.000 220.494 C 68.000 222.322,69.354 221.088,69.949 218.719 C 70.238 217.567,71.224 215.029,72.140 213.081 C 73.056 211.133,73.625 209.358,73.405 209.138 C 73.185 208.918,72.239 210.368,71.303 212.361 M268.018 212.440 C 268.008 213.342,268.306 214.422,268.680 214.840 C 269.054 215.258,269.924 217.040,270.615 218.800 C 273.207 225.405,274.505 228.162,274.857 227.809 C 275.260 227.407,273.244 222.266,269.126 213.200 C 268.266 211.306,268.033 211.146,268.018 212.440 M66.976 223.465 C 66.085 225.732,66.230 226.890,67.275 225.845 C 67.756 225.364,68.016 224.302,67.851 223.485 C 67.563 222.053,67.532 222.052,66.976 223.465 M139.200 224.162 C 139.200 226.345,140.540 226.400,193.530 226.400 L 245.328 226.400 247.427 231.000 C 248.582 233.530,249.514 234.880,249.499 234.000 C 249.483 233.120,248.687 230.960,247.729 229.200 L 245.986 226.000 193.593 225.799 C 145.466 225.615,141.119 225.489,140.200 224.247 C 139.323 223.061,139.200 223.050,139.200 224.162 M64.901 231.600 C 64.298 234.240,63.491 237.660,63.107 239.200 C 61.039 247.495,62.584 276.201,65.584 285.200 C 66.571 288.162,66.215 285.310,64.584 277.200 C 62.688 267.774,63.477 237.017,65.735 232.319 C 66.179 231.395,66.420 229.775,66.269 228.719 C 66.087 227.434,65.634 228.387,64.901 231.600 M275.248 229.753 C 275.222 230.497,275.560 231.328,276.000 231.600 C 276.440 231.872,276.800 232.793,276.800 233.647 C 276.800 234.501,277.160 235.200,277.600 235.200 C 278.040 235.200,278.400 235.694,278.400 236.298 C 278.400 237.809,281.644 245.023,282.112 244.554 C 282.320 244.346,281.709 242.426,280.753 240.288 C 276.568 230.925,275.294 228.485,275.248 229.753 M90.976 242.665 C 90.659 243.471,90.436 245.451,90.480 247.065 L 90.561 250.000 91.305 246.822 C 92.162 243.162,91.931 240.239,90.976 242.665 M252.848 243.811 C 252.822 244.367,253.137 245.447,253.548 246.211 C 253.959 246.975,255.102 249.487,256.088 251.794 C 257.073 254.100,258.057 255.810,258.274 255.592 C 258.491 255.375,258.285 254.388,257.817 253.399 C 257.348 252.409,256.049 249.620,254.930 247.200 C 253.812 244.780,252.875 243.255,252.848 243.811 M284.048 250.440 C 284.022 251.122,284.306 252.022,284.680 252.440 C 285.054 252.858,285.924 254.640,286.615 256.400 C 289.259 263.138,290.508 265.759,290.892 265.374 C 291.111 265.155,290.509 263.226,289.553 261.088 C 285.423 251.846,284.094 249.276,284.048 250.440 M260.000 261.102 C 260.000 261.532,262.231 266.870,264.481 271.824 C 265.537 274.147,266.400 276.457,266.400 276.957 C 266.400 277.457,266.628 277.638,266.908 277.359 C 267.391 276.875,266.654 274.493,264.382 269.200 C 263.816 267.880,262.797 265.450,262.117 263.800 C 261.085 261.293,260.000 259.911,260.000 261.102 M90.412 267.667 C 90.419 269.390,90.794 271.340,91.245 272.000 C 91.828 272.852,91.911 272.041,91.530 269.200 C 90.862 264.207,90.396 263.568,90.412 267.667 M291.251 267.011 C 291.223 267.567,291.518 268.647,291.907 269.411 C 292.295 270.175,292.979 271.700,293.427 272.800 C 295.829 278.705,297.738 282.529,298.101 282.166 C 298.326 281.940,298.155 281.091,297.721 280.278 C 297.286 279.465,296.171 277.000,295.241 274.800 C 292.433 268.151,291.305 265.948,291.251 267.011 M244.000 271.753 C 244.000 273.818,244.048 273.842,245.175 272.353 C 245.821 271.499,246.361 271.229,246.375 271.754 C 246.406 272.922,249.683 278.584,250.091 278.175 C 250.252 278.014,249.456 276.019,248.321 273.741 C 246.066 269.217,244.000 268.266,244.000 271.753 M92.063 276.553 C 92.028 277.957,92.360 279.328,92.800 279.600 C 93.240 279.872,93.600 280.763,93.600 281.581 C 93.600 283.605,96.719 290.748,97.334 290.133 C 97.606 289.861,97.476 289.180,97.047 288.619 C 96.617 288.059,95.458 284.900,94.473 281.600 C 93.487 278.300,92.556 275.240,92.403 274.800 C 92.251 274.360,92.098 275.149,92.063 276.553 M242.924 277.094 C 242.593 278.356,242.511 279.578,242.742 279.809 C 243.386 280.453,244.174 277.877,243.831 276.247 C 243.607 275.180,243.368 275.403,242.924 277.094 M241.663 282.209 C 241.601 283.196,239.044 289.350,237.479 292.278 C 237.045 293.091,236.874 293.940,237.099 294.166 C 237.325 294.391,238.285 292.826,239.234 290.688 C 240.183 288.550,241.325 286.026,241.773 285.079 C 242.220 284.132,242.393 282.872,242.156 282.279 C 241.840 281.486,241.710 281.468,241.663 282.209 M268.848 282.211 C 268.822 282.767,269.137 283.847,269.548 284.611 C 269.959 285.375,271.102 287.887,272.088 290.194 C 273.073 292.500,274.057 294.210,274.274 293.992 C 274.491 293.775,274.285 292.788,273.817 291.799 C 273.348 290.809,272.049 288.020,270.930 285.600 C 269.812 283.180,268.875 281.655,268.848 282.211 M252.037 282.850 C 252.001 283.685,253.038 285.973,259.279 298.828 C 262.910 306.307,262.903 306.255,260.761 310.070 C 259.859 311.675,259.294 313.161,259.505 313.372 C 260.007 313.873,263.200 307.604,263.200 306.118 C 263.200 304.762,252.092 281.608,252.037 282.850 M300.048 287.811 C 300.022 288.367,300.339 289.447,300.753 290.211 C 301.167 290.975,302.130 293.116,302.893 294.968 C 304.348 298.501,306.101 299.819,307.494 298.426 C 308.062 297.858,307.763 297.600,306.535 297.600 C 305.543 297.600,304.545 296.978,304.290 296.200 C 303.308 293.209,300.094 286.853,300.048 287.811 M331.600 288.634 C 329.400 289.369,328.211 290.089,328.958 290.235 C 329.705 290.382,331.031 290.118,331.905 289.651 C 334.636 288.189,337.363 288.607,337.875 290.565 C 338.129 291.536,338.544 292.122,338.798 291.868 C 339.488 291.179,337.479 287.192,336.472 287.249 C 335.992 287.277,333.800 287.900,331.600 288.634 M66.425 288.800 C 66.425 289.460,66.773 290.540,67.200 291.200 C 67.889 292.267,67.975 292.267,67.975 291.200 C 67.975 290.540,67.627 289.460,67.200 288.800 C 66.511 287.733,66.425 287.733,66.425 288.800 M68.000 293.369 C 68.000 296.845,80.966 321.701,82.157 320.509 C 82.345 320.322,80.928 317.701,79.010 314.684 C 75.347 308.922,74.311 306.870,70.792 298.400 C 68.522 292.936,68.000 291.995,68.000 293.369 M339.200 293.478 C 339.200 293.997,339.518 295.047,339.907 295.811 C 343.979 303.816,344.788 308.800,342.014 308.800 C 341.334 308.800,340.153 309.137,339.389 309.548 C 338.625 309.959,336.113 311.102,333.806 312.088 C 331.500 313.073,329.790 314.057,330.008 314.274 C 330.225 314.491,331.212 314.284,332.201 313.814 C 335.865 312.073,341.252 309.793,342.926 309.274 C 345.635 308.435,345.608 307.192,342.725 300.047 C 339.982 293.246,339.200 291.789,339.200 293.478 M312.800 295.632 C 310.380 296.674,309.035 297.542,309.811 297.563 C 310.587 297.583,311.847 297.283,312.611 296.896 C 313.375 296.509,315.260 295.632,316.800 294.947 C 318.340 294.262,319.060 293.711,318.400 293.721 C 317.740 293.731,315.220 294.591,312.800 295.632 M99.212 295.095 C 99.184 297.646,112.844 315.200,114.858 315.200 C 115.213 315.200,114.306 314.030,112.842 312.600 C 111.378 311.170,109.240 308.740,108.090 307.200 C 106.941 305.660,105.538 303.912,104.974 303.317 C 104.409 302.721,103.253 300.921,102.405 299.317 C 100.054 294.873,99.227 293.779,99.212 295.095 M234.872 297.461 C 233.437 300.236,226.132 309.924,223.430 312.636 C 222.423 313.646,221.604 314.726,221.608 315.036 C 221.622 315.985,229.232 307.669,230.838 304.952 C 231.667 303.548,232.627 302.400,232.972 302.400 C 233.318 302.400,233.600 302.006,233.600 301.523 C 233.600 301.041,234.359 299.581,235.287 298.277 C 236.215 296.974,236.782 295.715,236.546 295.480 C 236.311 295.244,235.557 296.136,234.872 297.461 M276.194 300.000 C 278.500 306.434,281.587 312.946,281.595 311.389 C 281.598 310.833,281.277 309.753,280.882 308.989 C 280.487 308.225,279.521 305.980,278.735 304.000 C 277.415 300.677,275.170 297.142,276.194 300.000 M257.600 315.139 C 257.600 315.545,256.315 317.560,254.745 319.617 C 253.175 321.674,252.063 323.530,252.274 323.740 C 252.484 323.951,254.142 321.936,255.958 319.262 C 257.774 316.588,258.886 314.400,258.430 314.400 C 257.973 314.400,257.600 314.732,257.600 315.139 M321.600 316.754 C 320.940 317.117,319.500 317.771,318.400 318.208 C 312.671 320.480,311.823 320.889,312.157 321.224 C 312.357 321.424,315.554 320.346,319.261 318.829 C 322.967 317.311,325.280 316.075,324.400 316.082 C 323.520 316.089,322.260 316.391,321.600 316.754 M116.800 317.291 C 116.800 318.039,121.703 322.400,122.544 322.400 C 123.669 322.400,123.297 321.946,120.000 319.296 C 118.240 317.882,116.800 316.979,116.800 317.291 M214.259 320.695 C 211.762 322.733,206.991 325.840,203.657 327.599 C 200.324 329.359,197.916 330.905,198.306 331.035 C 198.696 331.165,200.767 330.298,202.907 329.108 C 205.048 327.918,207.520 326.552,208.400 326.072 C 209.280 325.592,210.180 325.003,210.400 324.761 C 210.620 324.520,212.060 323.466,213.600 322.419 C 216.670 320.332,219.522 317.639,219.080 317.242 C 218.926 317.104,216.757 318.657,214.259 320.695 M284.842 320.611 C 284.819 321.167,285.130 322.247,285.533 323.011 C 285.936 323.775,286.853 325.750,287.570 327.400 C 289.057 330.818,289.883 330.993,294.609 328.892 C 296.474 328.063,300.083 326.576,302.629 325.587 C 305.175 324.599,307.064 323.597,306.828 323.361 C 306.591 323.124,305.498 323.351,304.399 323.865 C 303.299 324.379,301.590 325.121,300.600 325.514 C 288.975 330.126,288.800 330.171,288.800 328.549 C 288.800 327.146,284.896 319.316,284.842 320.611 M83.200 321.996 C 83.200 323.230,88.041 328.951,94.745 335.636 C 101.907 342.780,107.205 347.129,107.195 345.854 C 107.192 345.495,105.858 344.300,104.232 343.200 C 100.551 340.710,90.798 331.076,87.629 326.800 C 84.883 323.093,83.200 321.268,83.200 321.996 M124.001 322.962 C 124.004 324.092,136.469 331.444,137.691 331.036 C 138.083 330.906,136.692 329.916,134.602 328.837 C 132.511 327.758,129.270 325.851,127.400 324.599 C 125.530 323.347,124.001 322.610,124.001 322.962 M242.555 333.521 C 238.020 338.184,232.711 343.080,230.757 344.400 C 228.802 345.720,227.203 347.095,227.202 347.454 C 227.196 349.465,242.454 335.981,250.346 327.000 C 255.100 321.589,250.031 325.832,242.555 333.521 M144.069 333.512 C 147.977 336.041,162.835 337.863,174.000 337.182 C 181.375 336.732,193.507 334.041,192.537 333.070 C 192.307 332.841,190.923 333.023,189.460 333.475 C 183.585 335.290,180.098 335.935,173.600 336.408 C 165.075 337.028,155.436 335.957,144.800 333.207 C 143.252 332.807,143.087 332.876,144.069 333.512 M108.000 346.790 C 108.000 347.270,113.618 350.907,118.200 353.394 C 120.070 354.409,121.600 354.870,121.600 354.420 C 121.600 353.969,121.223 353.600,120.762 353.600 C 120.300 353.600,117.953 352.340,115.546 350.800 C 113.139 349.260,110.816 348.000,110.384 348.000 C 109.953 348.000,109.600 347.640,109.600 347.200 C 109.600 346.760,109.240 346.400,108.800 346.400 C 108.360 346.400,108.000 346.575,108.000 346.790 M223.200 349.600 C 222.100 350.460,220.794 351.172,220.298 351.182 C 219.411 351.200,216.980 353.600,217.849 353.600 C 218.433 353.600,226.400 348.644,226.400 348.280 C 226.400 347.598,225.044 348.157,223.200 349.600 M124.400 356.427 C 131.849 359.919,139.891 362.776,140.513 362.153 C 140.730 361.937,139.533 361.339,137.854 360.824 C 136.174 360.309,133.990 359.554,133.000 359.144 C 132.010 358.735,130.210 357.998,129.000 357.507 C 127.790 357.015,126.175 356.295,125.411 355.907 C 124.647 355.518,123.567 355.223,123.011 355.251 C 122.455 355.279,123.080 355.809,124.400 356.427 M211.200 355.954 C 209.299 357.000,206.420 358.162,200.400 360.312 C 197.320 361.412,195.342 362.332,196.003 362.356 C 198.055 362.431,213.600 356.498,213.600 355.641 C 213.600 355.038,212.638 355.163,211.200 355.954 M143.200 363.200 C 144.776 364.219,146.629 364.219,146.000 363.200 C 145.728 362.760,144.717 362.406,143.753 362.412 C 142.328 362.422,142.224 362.570,143.200 363.200 M190.000 363.200 C 189.410 364.155,190.977 364.155,193.200 363.200 C 194.629 362.586,194.569 362.506,192.647 362.456 C 191.463 362.425,190.272 362.760,190.000 363.200 M150.800 364.800 C 154.358 365.705,158.507 365.705,156.400 364.800 C 155.520 364.422,153.360 364.130,151.600 364.151 C 148.542 364.188,148.506 364.216,150.800 364.800 M180.400 364.800 C 178.293 365.705,182.442 365.705,186.000 364.800 C 188.294 364.216,188.258 364.188,185.200 364.151 C 183.440 364.130,181.280 364.422,180.400 364.800 M163.000 366.192 C 165.750 366.349,170.250 366.349,173.000 366.192 C 175.750 366.036,173.500 365.908,168.000 365.908 C 162.500 365.908,160.250 366.036,163.000 366.192 M12.065 373.376 C 11.777 377.706,24.507 390.159,26.838 387.828 C 27.074 387.593,25.901 386.846,24.233 386.169 C 20.547 384.673,15.486 379.595,13.554 375.452 C 12.770 373.774,12.100 372.839,12.065 373.376 M385.663 377.244 C 385.535 378.960,379.990 384.143,376.255 386.038 C 373.450 387.460,372.891 387.994,374.200 387.997 C 375.190 387.998,376.000 387.640,376.000 387.200 C 376.000 386.760,376.532 386.400,377.181 386.400 C 378.952 386.400,386.658 378.739,386.156 377.478 C 385.920 376.885,385.698 376.780,385.663 377.244 M29.876 388.988 C 31.084 389.756,369.716 389.756,370.924 388.988 C 371.432 388.664,294.696 388.400,200.400 388.400 C 106.104 388.400,29.368 388.664,29.876 388.988 M386.416 393.181 C 385.859 393.851,385.025 394.400,384.562 394.400 C 384.099 394.400,384.413 393.726,385.260 392.903 C 387.044 391.169,387.912 391.378,386.416 393.181 " stroke="none" fill="#bfc9da" fill-rule="evenodd"></path></g></svg>