<?xml version="1.0" encoding="iso-8859-1"?>
<!-- Generator: Adobe Illustrator 19.0.0, SVG Export Plug-In . SVG Version: 6.00 Build 0)  -->
<svg version="1.1" id="Layer_1" xmlns="http://www.w3.org/2000/svg" xmlns:xlink="http://www.w3.org/1999/xlink" x="0px" y="0px"
	 viewBox="0 0 488 488" style="enable-background:new 0 0 488 488;" xml:space="preserve">
<path style="fill:#151918;" d="M371.2,180c0,6.4-4.8,12-11.2,12H128c-6.4,0-11.2-5.6-11.2-12l0,0c0-6.4,4.8-12,11.2-12h232.8
	C366.4,168,371.2,173.6,371.2,180L371.2,180z"/>
<path style="fill:#EAC113;" d="M188,180.8c0,10.4-8.8,19.2-19.2,19.2H168c-10.4,0-19.2-8.8-19.2-19.2V19.2C148,8.8,156.8,0,167.2,0
	h0.8c11.2,0,20,8.8,20,19.2V180.8z"/>
<path style="fill:#E8A615;" d="M148,19.2C148,8.8,156.8,0,167.2,0h0.8c11.2,0,20,8.8,20,19.2V176"/>
<path style="fill:#EAC113;" d="M332,180.8c0,10.4-8.8,19.2-19.2,19.2H312c-10.4,0-19.2-8.8-19.2-19.2V19.2C292,8.8,300.8,0,311.2,0
	h0.8c11.2,0,20,8.8,20,19.2V180.8z"/>
<path style="fill:#E8A615;" d="M292,19.2C292,8.8,300.8,0,311.2,0h0.8c11.2,0,20,8.8,20,19.2V176"/>
<path style="fill:#363F3E;" d="M108,184v140c0,76.8,59.2,138.4,136,138.4c76,0,136-61.6,136-138.4V184H108z"/>
<path style="fill:#151918;" d="M244,462.4c76,0,136-61.6,136-138.4V184H108"/>
<g>
	<path style="fill:#363F3E;" d="M400,188c0,7.2-5.6,12-12.8,12H100.8c-7.2,0-12.8-4.8-12.8-12l0,0c0-7.2,5.6-12,12.8-12h286.4
		C394.4,176,400,180.8,400,188L400,188z"/>
	<path style="fill:#363F3E;" d="M284,464c0,4-3.2,8-8,8h-56c-4,0-8-3.2-8-8l0,0c0-4,3.2-8,8-8h56C280.8,456,284,459.2,284,464
		L284,464z"/>
</g>
<path style="fill:#151918;" d="M284,480c0,4-3.2,8-8,8h-56c-4,0-8-3.2-8-8l0,0c0-4,3.2-8,8-8h56C280.8,472,284,475.2,284,480
	L284,480z"/>
<circle style="fill:#363F3E;" cx="165.6" cy="292" r="19.2"/>
<path style="fill:#151918;" d="M152,305.6c-7.2-7.2-7.2-19.2,0-27.2c7.2-7.2,19.2-7.2,27.2,0"/>
<circle style="fill:#363F3E;" cx="238.4" cy="292" r="19.2"/>
<path style="fill:#151918;" d="M225.6,305.6c-7.2-7.2-7.2-19.2,0-27.2s19.2-7.2,27.2,0"/>
<circle style="fill:#363F3E;" cx="312" cy="292" r="19.2"/>
<path style="fill:#151918;" d="M298.4,305.6c-7.2-7.2-7.2-19.2,0-27.2c7.2-7.2,19.2-7.2,27.2,0"/>
<g>
</g>
<g>
</g>
<g>
</g>
<g>
</g>
<g>
</g>
<g>
</g>
<g>
</g>
<g>
</g>
<g>
</g>
<g>
</g>
<g>
</g>
<g>
</g>
<g>
</g>
<g>
</g>
<g>
</g>
</svg>
