<?xml version="1.0" encoding="iso-8859-1"?>
<!-- Generator: Adobe Illustrator 19.0.0, SVG Export Plug-In . SVG Version: 6.00 Build 0)  -->
<svg version="1.1" id="Layer_1" xmlns="http://www.w3.org/2000/svg" xmlns:xlink="http://www.w3.org/1999/xlink" x="0px" y="0px"
	 viewBox="0 0 512 512" style="enable-background:new 0 0 512 512;" xml:space="preserve">
<g>
	<circle style="fill:#A0EBFF;" cx="256" cy="256" r="256"/>
	<path id="SVGCleanerId_0" style="fill:#FFFFFF;" d="M369.695,218.194l-89.564-89.559c-5.427-5.427-14.234-5.427-19.661,0
		c-5.427,5.427-5.427,14.228,0,19.661l2.708,2.708L128.317,285.87c-23.235,23.235-23.235,60.907,0,84.142
		c23.235,23.235,60.908,23.235,84.142,0l134.866-134.866l2.708,2.708c5.427,5.427,14.228,5.427,19.661,0
		C375.122,232.428,375.122,223.626,369.695,218.194z"/>
	<g>
		<path id="SVGCleanerId_0_1_" style="fill:#FFFFFF;" d="M369.695,218.194l-89.564-89.559c-5.427-5.427-14.234-5.427-19.661,0
			c-5.427,5.427-5.427,14.228,0,19.661l2.708,2.708L128.317,285.87c-23.235,23.235-23.235,60.907,0,84.142
			c23.235,23.235,60.908,23.235,84.142,0l134.866-134.866l2.708,2.708c5.427,5.427,14.228,5.427,19.661,0
			C375.122,232.428,375.122,223.626,369.695,218.194z"/>
	</g>
	<path style="fill:#B6F0FF;" d="M358.723,207.222l-33.807-33.807L128.317,370.012c17.541,17.541,50.596,12.928,73.83-10.307
		L337.014,224.84l2.048,2.048c4.101,4.101,11.822,3.021,17.249-2.406C361.743,219.044,362.819,211.323,358.723,207.222z"/>
	<path style="fill:#FC611F;" d="M220.114,215.526l-81.07,81.07c-17.285,17.285-17.28,45.404,0.005,62.684
		c17.28,17.28,45.399,17.28,62.679-0.005l134.717-134.712L220.114,215.526z"/>
	<path style="fill:#E34E10;" d="M278.016,220.308L139.044,359.281l0,0c17.28,17.28,45.399,17.28,62.679-0.005l134.723-134.712
		L278.016,220.308z"/>
	<path style="fill:#FC611F;" d="M401.111,318.915c0,15.104-12.242,27.346-27.346,27.346c-15.104,0-27.346-12.242-27.346-27.346
		c0-25.032,27.346-62.915,27.346-62.915S401.111,293.883,401.111,318.915z"/>
	<path style="fill:#E34E10;" d="M373.765,256v90.26c15.104,0,27.346-12.242,27.346-27.346C401.111,293.883,373.765,256,373.765,256z
		"/>
</g>
<g>
</g>
<g>
</g>
<g>
</g>
<g>
</g>
<g>
</g>
<g>
</g>
<g>
</g>
<g>
</g>
<g>
</g>
<g>
</g>
<g>
</g>
<g>
</g>
<g>
</g>
<g>
</g>
<g>
</g>
</svg>
