<?xml version="1.0" encoding="iso-8859-1"?>
<!-- Generator: Adobe Illustrator 19.0.0, SVG Export Plug-In . SVG Version: 6.00 Build 0)  -->
<svg version="1.1" id="Layer_1" xmlns="http://www.w3.org/2000/svg" xmlns:xlink="http://www.w3.org/1999/xlink" x="0px" y="0px"
	 viewBox="0 0 512 512" style="enable-background:new 0 0 512 512;" xml:space="preserve">
<path style="fill:#C74B38;" d="M365.339,84.107c-4.355,0-7.885-3.529-7.885-7.885v-59.4H154.546v59.4
	c0,4.356-3.53,7.885-7.885,7.885s-7.885-3.529-7.885-7.885V8.936c0-4.356,3.53-7.885,7.885-7.885h218.678
	c4.355,0,7.885,3.529,7.885,7.885v67.285C373.224,80.577,369.693,84.107,365.339,84.107z"/>
<g>
	<path style="fill:#EB6836;" d="M171.893,43.105h-52.567c-4.355,0-7.885,3.529-7.885,7.885v25.232c0,4.356,3.53,7.885,7.885,7.885
		h52.567c4.355,0,7.885-3.529,7.885-7.885V50.99C179.778,46.634,176.248,43.105,171.893,43.105z"/>
	<path style="fill:#EB6836;" d="M392.674,43.105h-52.567c-4.355,0-7.885,3.529-7.885,7.885v25.232c0,4.356,3.53,7.885,7.885,7.885
		h52.567c4.355,0,7.885-3.529,7.885-7.885V50.99C400.559,46.634,397.028,43.105,392.674,43.105z"/>
	<path style="fill:#EB6836;" d="M483.088,173.47H28.912c-4.355,0-7.885,3.529-7.885,7.885v321.708c0,4.356,3.53,7.885,7.885,7.885
		h454.177c4.355,0,7.885-3.529,7.885-7.885V181.355C490.973,177,487.443,173.47,483.088,173.47z"/>
</g>
<path style="fill:#C74B38;" d="M490.973,181.355c0-4.356-3.53-7.885-7.885-7.885H28.912c-4.355,0-7.885,3.529-7.885,7.885v26.366
	h469.947V181.355z"/>
<path style="fill:#E5E5E5;" d="M239.016,395.375l64.45-64.45c19.947,7.93,42.695,3.396,58.181-12.09
	c12.986-12.987,18.273-31.321,14.844-48.718c-1.224-6.209-8.853-8.568-13.328-4.094l-27.991,27.991
	c-3.079,3.079-8.072,3.079-11.151,0l-14.125-14.125c-3.079-3.079-3.079-8.072,0-11.152l27.991-27.991
	c4.474-4.474,2.114-12.104-4.094-13.328c-17.397-3.428-35.732,1.859-48.717,14.844c-15.487,15.486-20.025,38.234-12.09,58.183
	l-64.449,64.449c-19.949-7.933-42.696-3.397-58.183,12.09c-12.984,12.985-18.272,31.32-14.844,48.717
	c1.224,6.209,8.852,8.569,13.328,4.094l27.991-27.991c3.079-3.079,8.072-3.079,11.151,0l14.125,14.125
	c3.079,3.079,3.079,8.072,0,11.151l-27.991,27.991c-4.474,4.475-2.114,12.103,4.094,13.328c17.396,3.429,35.731-1.858,48.718-14.844
	C242.411,438.07,246.946,415.322,239.016,395.375z"/>
<g>
	
		<rect x="234.538" y="329.425" transform="matrix(-0.7071 -0.7071 0.7071 -0.7071 191.2249 774.8539)" style="fill:#CCCCCC;" width="43.104" height="36.796"/>
</g>
<path style="fill:#E5E5E5;" d="M281.803,380.802c-2.018,0-4.036-0.77-5.575-2.309l-71.367-71.367c-3.079-3.08-3.079-8.072,0-11.152
	c3.079-3.078,8.072-3.078,11.15,0l71.367,71.367c3.079,3.08,3.079,8.072,0,11.151C285.839,380.032,283.822,380.802,281.803,380.802z
	"/>
<path style="fill:#CCCCCC;" d="M216.011,295.974c-3.079-3.078-8.072-3.078-11.15,0c-3.079,3.08-3.079,8.072,0,11.152l14.199,14.199
	l11.152-11.152L216.011,295.974z"/>
<path style="fill:#E5E5E5;" d="M230.483,280.736l-46.09-40.144c-3.127-2.725-7.825-2.561-10.754,0.37l-20.815,20.815
	c-2.931,2.931-3.092,7.63-0.371,10.754l40.144,46.092c1.435,1.647,3.49,2.626,5.674,2.701c0.09,0.003,0.181,0.005,0.272,0.005
	c2.087,0,4.094-0.828,5.575-2.309l26.763-26.763c1.545-1.547,2.38-3.663,2.305-5.848
	C233.109,284.226,232.132,282.172,230.483,280.736z"/>
<path style="fill:#F7D04A;" d="M368.41,415.662l-52.782-52.781c-0.865-0.865-1.921-1.517-3.081-1.905l-17.842-5.947
	c-2.834-0.944-5.958-0.207-8.069,1.905l-20.815,20.815c-2.112,2.112-2.849,5.236-1.905,8.07l5.947,17.842
	c0.387,1.161,1.04,2.215,1.905,3.083l52.782,52.782c4.612,4.611,10.669,6.917,16.727,6.917c6.058,0,12.116-2.306,16.728-6.918
	l10.407-10.408c4.467-4.467,6.928-10.407,6.928-16.726S372.878,420.131,368.41,415.662z"/>
<path style="fill:#F3B41B;" d="M266.326,377.242l-0.506,0.506c-2.112,2.112-2.849,5.236-1.905,8.07l5.947,17.842
	c0.387,1.161,1.04,2.215,1.905,3.083l52.782,52.782c4.612,4.611,10.669,6.917,16.727,6.917c3.914,0,7.822-0.978,11.346-2.904
	L266.326,377.242z"/>
<path style="fill:#FFB973;" d="M509.217,129.084l-69.388-58.875c-1.426-1.209-3.234-1.872-5.102-1.872H75.17
	c-1.909,0-3.755,0.693-5.193,1.95L2.692,129.162C0.982,130.66,0,132.822,0,135.097v44.156c0,4.356,3.53,7.885,7.885,7.885h496.23
	c4.355,0,7.885-3.529,7.885-7.885v-44.156C512,132.781,510.982,130.582,509.217,129.084z"/>
<path style="fill:#EF9D3C;" d="M482.499,129.162L413.7,68.337H75.17c-1.909,0-3.755,0.693-5.193,1.95L2.692,129.162
	C0.982,130.66,0,132.822,0,135.097v44.156c0,4.356,3.53,7.885,7.885,7.885h477.306v-52.041
	C485.191,132.822,484.209,130.66,482.499,129.162z"/>
<path style="fill:#E2771E;" d="M29.502,129.162L98.3,68.337H75.17c-1.909,0-3.755,0.693-5.193,1.95L2.692,129.162
	C0.982,130.66,0,132.822,0,135.097v44.156c0,4.356,3.53,7.885,7.885,7.885h18.924v-52.041
	C26.809,132.822,27.791,130.66,29.502,129.162z"/>
<g>
	<path style="fill:#CCCCCC;" d="M171.893,129.314h-50.464c-4.355,0-7.885,3.529-7.885,7.885v77.799c0,4.356,3.53,7.885,7.885,7.885
		h50.464c4.355,0,7.885-3.529,7.885-7.885v-77.799C179.778,132.844,176.248,129.314,171.893,129.314z"/>
	<path style="fill:#CCCCCC;" d="M390.571,129.314h-50.464c-4.355,0-7.885,3.529-7.885,7.885v77.799c0,4.356,3.53,7.885,7.885,7.885
		h50.464c4.355,0,7.885-3.529,7.885-7.885v-77.799C398.456,132.844,394.925,129.314,390.571,129.314z"/>
</g>
<g>
	<path style="fill:#F2F2F2;" d="M179.778,137.199c0-4.356-3.53-7.885-7.885-7.885h-50.464c-4.355,0-7.885,3.529-7.885,7.885v17.873
		h66.234V137.199z"/>
	<path style="fill:#F2F2F2;" d="M398.456,137.199c0-4.356-3.53-7.885-7.885-7.885h-50.464c-4.355,0-7.885,3.529-7.885,7.885v17.873
		h66.234V137.199z"/>
</g>
<g>
</g>
<g>
</g>
<g>
</g>
<g>
</g>
<g>
</g>
<g>
</g>
<g>
</g>
<g>
</g>
<g>
</g>
<g>
</g>
<g>
</g>
<g>
</g>
<g>
</g>
<g>
</g>
<g>
</g>
</svg>
