<?xml version="1.0" encoding="iso-8859-1"?>
<!-- Generator: Adobe Illustrator 19.0.0, SVG Export Plug-In . SVG Version: 6.00 Build 0)  -->
<svg version="1.1" id="Layer_1" xmlns="http://www.w3.org/2000/svg" xmlns:xlink="http://www.w3.org/1999/xlink" x="0px" y="0px"
	 viewBox="0 0 511.995 511.995" style="enable-background:new 0 0 511.995 511.995;" xml:space="preserve">
<circle style="fill:#E84F4F;" cx="255.997" cy="255.997" r="255.997"/>
<path style="fill:#C94545;" d="M503.781,320.527L318.084,134.83c-93.515-99.29-289.541,3.776-180.81,171.37l194.471,194.471
	c84.186-25.989,149.824-94.292,172.037-180.033L503.781,320.527L503.781,320.527z"/>
<path style="fill:#FFD630;" d="M225.347,155.377c34.651,0,62.64,28.099,62.64,62.64s-28.099,62.64-62.64,62.64
	s-62.64-28.099-62.64-62.64C162.707,183.365,190.806,155.377,225.347,155.377z M225.347,93.403
	c34.429,0,65.527,13.994,88.073,36.539c22.546,22.546,36.539,53.643,36.539,88.073s-13.994,65.527-36.539,88.073
	c-22.546,22.546-53.643,36.539-88.073,36.539s-65.527-13.994-88.073-36.539c-22.546-22.546-36.539-53.754-36.539-88.073
	c0-34.429,13.994-65.527,36.539-88.073S191.029,93.403,225.347,93.403z M291.985,151.379
	c-16.992-16.992-40.649-27.544-66.638-27.544s-49.534,10.55-66.638,27.544c-16.992,16.992-27.544,40.649-27.544,66.638
	s10.551,49.534,27.544,66.638c16.992,16.992,40.649,27.544,66.638,27.544s49.534-10.551,66.638-27.544
	c16.992-16.992,27.544-40.649,27.544-66.638S308.977,168.483,291.985,151.379z"/>
<path style="fill:#FDFDFD;" d="M366.952,418.484l-72.857-78.521l-28.099,26.1l-46.647-151.046l147.159,57.864l-28.099,26.1
	l72.857,78.521l-44.314,41.093L366.952,418.484L366.952,418.484z"/>
<path style="fill:#E6E6E6;" d="M219.349,215.017l147.159,57.864l-28.099,26.1l72.857,78.521l-22.546,20.991L219.46,215.128
	L219.349,215.017z"/>
<g>
</g>
<g>
</g>
<g>
</g>
<g>
</g>
<g>
</g>
<g>
</g>
<g>
</g>
<g>
</g>
<g>
</g>
<g>
</g>
<g>
</g>
<g>
</g>
<g>
</g>
<g>
</g>
<g>
</g>
</svg>
