<?xml version="1.0" encoding="iso-8859-1"?>
<!-- Generator: Adobe Illustrator 19.0.0, SVG Export Plug-In . SVG Version: 6.00 Build 0)  -->
<svg version="1.1" id="Layer_1" xmlns="http://www.w3.org/2000/svg" xmlns:xlink="http://www.w3.org/1999/xlink" x="0px" y="0px"
	 viewBox="0 0 512 512" style="enable-background:new 0 0 512 512;" xml:space="preserve">
<path style="fill:#394049;" d="M486.254,433.956H25.746C11.526,433.956,0,422.43,0,408.21V103.79
	C0,89.57,11.526,78.044,25.746,78.044h460.508C500.473,78.044,512,89.57,512,103.79v304.42
	C512,422.43,500.474,433.956,486.254,433.956z M41.766,400.939h428.469c4.832,0,8.749-3.917,8.749-8.749V119.81
	c0-4.832-3.917-8.748-8.749-8.748H41.766c-4.832,0-8.748,3.917-8.748,8.748v272.38C33.017,397.022,36.934,400.939,41.766,400.939z"
	/>
<path style="fill:#0069A3;" d="M0,103.79v66.418h33.017V119.81c0-4.832,3.917-8.748,8.748-8.748h64.63V78.044h-80.65
	C11.526,78.044,0,89.571,0,103.79z M33.017,392.19v-50.405H0v66.425c0,14.218,11.526,25.746,25.746,25.746h80.65v-33.017h-64.63
	C36.934,400.939,33.017,397.022,33.017,392.19z M486.254,78.044h-80.658v33.017h64.638c4.832,0,8.749,3.917,8.749,8.748v50.398H512
	V103.79C512,89.571,500.474,78.044,486.254,78.044z M478.983,392.19c0,4.832-3.917,8.749-8.749,8.749h-64.638v33.017h80.658
	c14.218,0,25.746-11.526,25.746-25.746v-66.425h-33.017V392.19z"/>
<path style="opacity:0.2;enable-background:new    ;" d="M33.017,119.81c0-4.832,3.917-8.748,8.748-8.748h428.469
	c4.832,0,8.749,3.917,8.749,8.748v272.38c0,4.179-2.932,7.668-6.849,8.536h7.089c4.832,0,8.748-3.917,8.748-8.749V110.821
	c0-4.832-3.917-8.748-8.748-8.748H41.699c-4.832,0-8.748,3.917-8.748,8.748v14.76l0.067,1.915
	C33.017,127.496,33.017,119.81,33.017,119.81z M495.243,424.968H34.734c-14.219,0-25.746-11.526-25.746-25.746V94.801
	c0-4.804,1.32-9.299,3.611-13.147C5.056,86.144,0,94.375,0,103.79v304.42c0,14.218,11.526,25.746,25.746,25.746h460.508
	c9.414,0,17.646-5.056,22.135-12.598C504.54,423.648,500.047,424.968,495.243,424.968z"/>
<circle style="fill:#0069A3;" cx="255.994" cy="255.994" r="27.514"/>
<path style="opacity:0.1;enable-background:new    ;" d="M258.817,280.691c-15.196,0-27.514-12.319-27.514-27.514
	c0-6.88,2.531-13.165,6.706-17.989c-5.831,5.045-9.525,12.494-9.525,20.81c0,15.196,12.319,27.514,27.514,27.514
	c8.316,0,15.765-3.695,20.81-9.525C271.981,278.16,265.697,280.691,258.817,280.691z"/>
<path style="fill:#8CCFDE;" d="M196.973,271.033H67.33c-3.791,0-6.865,3.074-6.865,6.865v87.62c0,4.366,3.539,7.905,7.905,7.905
	h165.691c3.791,0,6.865-3.074,6.865-6.865v-51.552c0-2.371-1.526-4.442-3.763-5.226c-16.327-5.716-29.254-18.65-34.962-34.982
	C201.417,272.562,199.345,271.033,196.973,271.033z M67.33,240.959h129.643c2.372,0,4.444-1.528,5.227-3.766
	c5.708-16.33,18.635-29.264,34.962-34.982c2.237-0.784,3.763-2.855,3.763-5.226v-51.552c0-3.791-3.074-6.865-6.865-6.865H68.37
	c-4.366,0-7.905,3.539-7.905,7.905v87.62C60.465,237.885,63.538,240.959,67.33,240.959z M271,315.031v51.528
	c0,3.791,3.074,6.865,6.865,6.865h165.691c4.366,0,7.905-3.539,7.905-7.905v-87.62c0-3.792-3.074-6.865-6.865-6.865H315.019
	c-2.372,0-4.444,1.528-5.227,3.766c-5.715,16.351-18.668,29.298-35.024,35.004C272.529,310.586,271,312.658,271,315.031z
	 M271,145.433v51.528c0,2.373,1.529,4.446,3.769,5.228c16.356,5.705,29.308,18.653,35.024,35.004
	c0.783,2.239,2.855,3.766,5.227,3.766h129.576c3.791,0,6.865-3.074,6.865-6.865v-87.62c0-4.366-3.539-7.905-7.905-7.905H277.866
	C274.074,138.568,271,141.642,271,145.433z"/>
<g>
</g>
<g>
</g>
<g>
</g>
<g>
</g>
<g>
</g>
<g>
</g>
<g>
</g>
<g>
</g>
<g>
</g>
<g>
</g>
<g>
</g>
<g>
</g>
<g>
</g>
<g>
</g>
<g>
</g>
</svg>
