<svg height="368pt" viewBox="0 0 368 368" width="368pt" xmlns="http://www.w3.org/2000/svg"><path d="m360 0h-352c-4.425781 0-8 3.574219-8 8v352c0 4.425781 3.574219 8 8 8h352c4.425781 0 8-3.574219 8-8v-352c0-4.425781-3.574219-8-8-8zm-344 16h80v48h-80zm336 336h-336v-272h336zm0-288h-240v-48h240zm0 0"/><path d="m56 224h256c4.425781 0 8-3.574219 8-8v-96c0-4.425781-3.574219-8-8-8h-256c-4.425781 0-8 3.574219-8 8v96c0 4.425781 3.574219 8 8 8zm8-96h240v80h-240zm0 0"/><path d="m56 320h256c4.425781 0 8-3.574219 8-8s-3.574219-8-8-8h-256c-4.425781 0-8 3.574219-8 8s3.574219 8 8 8zm0 0"/><path d="m56 272h256c4.425781 0 8-3.574219 8-8s-3.574219-8-8-8h-256c-4.425781 0-8 3.574219-8 8s3.574219 8 8 8zm0 0"/></svg>