<?xml version="1.0" encoding="iso-8859-1"?>
<!-- Generator: Adobe Illustrator 19.0.0, SVG Export Plug-In . SVG Version: 6.00 Build 0)  -->
<svg version="1.1" id="Capa_1" xmlns="http://www.w3.org/2000/svg" xmlns:xlink="http://www.w3.org/1999/xlink" x="0px" y="0px"
	 viewBox="0 0 496 496" style="enable-background:new 0 0 496 496;" xml:space="preserve">
<g>
	<g>
		<path d="M464,110.472v-32H320V25.528l-48-24V51.16l-11.312,11.312h-25.376L224,51.16V1.528l-48,24v52.944H32v32H0v336h192.568
			c3.888,27.104,27.264,48,55.432,48c28.168,0,51.536-20.896,55.432-48H496v-336H464z M192,35.416l16-8v30.368l20.688,20.688h38.624
			L288,57.784V27.416l16,8V83.16l-32,32v174.176l1.584,2.128c4.2,5.64,6.416,12.208,6.416,19.008c0,17.648-14.352,32-32,32
			s-32-14.352-32-32c0-6.8,2.216-13.368,6.416-19.008l1.584-2.128V115.16l-32-32V35.416z M480,430.472H288v8
			c0,22.056-17.944,40-40,40c-22.056,0-40-17.944-40-40v-8H16v-304h16v288h432v-256h-16v240H48v-304h132.688L208,121.784v162.384
			c-5.24,7.904-8,16.944-8,26.304c0,26.472,21.528,48,48,48s48-21.528,48-48c0-9.36-2.76-18.4-8-26.304V121.784l27.312-27.312H448
			v48h16v-16h16V430.472z"/>
	</g>
</g>
<g>
	<g>
		<path d="M64,110.472v112h128v-112H64z M176,206.472H80v-80h96V206.472z"/>
	</g>
</g>
<g>
	<g>
		<rect x="64" y="238.472" width="128" height="16"/>
	</g>
</g>
<g>
	<g>
		<rect x="64" y="270.472" width="128" height="16"/>
	</g>
</g>
<g>
	<g>
		<rect x="64" y="302.472" width="128" height="16"/>
	</g>
</g>
<g>
	<g>
		<rect x="64" y="334.472" width="128" height="16"/>
	</g>
</g>
<g>
	<g>
		<rect x="64" y="366.472" width="96" height="16"/>
	</g>
</g>
<g>
	<g>
		<rect x="240" y="126.472" width="16" height="152"/>
	</g>
</g>
<g>
	<g>
		<rect x="304" y="110.472" width="128" height="16"/>
	</g>
</g>
<g>
	<g>
		<rect x="304" y="142.472" width="128" height="16"/>
	</g>
</g>
<g>
	<g>
		<rect x="304" y="174.472" width="128" height="16"/>
	</g>
</g>
<g>
	<g>
		<rect x="304" y="206.472" width="128" height="16"/>
	</g>
</g>
<g>
	<g>
		<rect x="304" y="238.472" width="96" height="16"/>
	</g>
</g>
<g>
	<g>
		<path d="M368,270.472c-30.872,0-56,25.128-56,56s25.128,56,56,56s56-25.128,56-56S398.872,270.472,368,270.472z M368,366.472
			c-22.056,0-40-17.944-40-40c0-22.056,17.944-40,40-40c22.056,0,40,17.944,40,40C408,348.528,390.056,366.472,368,366.472z"/>
	</g>
</g>
<g>
	<g>
		<rect x="416" y="238.472" width="16" height="16"/>
	</g>
</g>
<g>
	<g>
		<rect x="176" y="366.472" width="16" height="16"/>
	</g>
</g>
<g>
	<g>
		<rect x="240" y="302.472" width="16" height="16"/>
	</g>
</g>
<g>
</g>
<g>
</g>
<g>
</g>
<g>
</g>
<g>
</g>
<g>
</g>
<g>
</g>
<g>
</g>
<g>
</g>
<g>
</g>
<g>
</g>
<g>
</g>
<g>
</g>
<g>
</g>
<g>
</g>
</svg>
